<svg version="1.1" id="Layer_1" xmlns="http://www.w3.org/2000/svg" xmlns:xlink="http://www.w3.org/1999/xlink" x="0px" y="0px"
	 width="100%" viewBox="0 0 491 488" enable-background="new 0 0 491 488" xml:space="preserve">
<path fill="#FFFFFF" opacity="1.000000" stroke="none" 
	d="
M1.000000,168.000000 
	C1.000000,112.014153 1.000000,56.528309 1.000000,1.021233 
	C164.610764,1.021233 328.221527,1.021233 491.916138,1.021233 
	C491.916138,163.569244 491.916138,326.138550 491.916138,488.853943 
	C328.333435,488.853943 164.666733,488.853943 1.000000,488.853943 
	C1.000000,382.111664 1.000000,275.305847 1.000000,168.000000 
M5.999561,322.500000 
	C5.999581,371.663818 5.997561,420.827667 6.001204,469.991486 
	C6.002011,480.880981 10.157386,484.998932 21.140509,484.999054 
	C170.965897,485.000854 320.791290,485.000702 470.616669,484.999512 
	C481.950470,484.999420 485.999146,480.983002 485.999268,469.734344 
	C486.000732,319.908966 486.000763,170.083572 485.999268,20.258186 
	C485.999146,9.016927 481.946472,5.000487 470.609192,5.000396 
	C320.950470,4.999194 171.291733,4.999317 21.633005,5.000115 
	C9.951253,5.000178 6.000374,8.920871 6.000241,20.515968 
	C5.999098,120.843979 5.999571,221.171982 5.999561,322.500000 
z"/>
<path fill="#DD1367" opacity="1.000000" stroke="none" 
	d="
M5.999561,322.000000 
	C5.999571,221.171982 5.999098,120.843979 6.000241,20.515968 
	C6.000374,8.920871 9.951253,5.000178 21.633005,5.000115 
	C171.291733,4.999317 320.950470,4.999194 470.609192,5.000396 
	C481.946472,5.000487 485.999146,9.016927 485.999268,20.258186 
	C486.000763,170.083572 486.000732,319.908966 485.999268,469.734344 
	C485.999146,480.983002 481.950470,484.999420 470.616669,484.999512 
	C320.791290,485.000702 170.965897,485.000854 21.140509,484.999054 
	C10.157386,484.998932 6.002011,480.880981 6.001204,469.991486 
	C5.997561,420.827667 5.999581,371.663818 5.999561,322.000000 
M88.799019,139.294861 
	C100.554138,137.451767 108.512306,129.982742 108.964355,118.074692 
	C109.626266,100.638054 109.473869,83.140213 108.858704,65.697014 
	C108.502113,55.585678 101.933960,48.314690 93.185661,45.960754 
	C75.224365,41.127846 61.386864,50.525539 60.603455,69.042229 
	C59.949821,84.491592 60.046894,100.022652 60.807575,115.468475 
	C61.638409,132.338730 70.999809,140.097717 88.799019,139.294861 
M262.500000,320.150299 
	C242.102020,320.150299 221.704041,320.150299 201.387070,320.150299 
	C201.387070,330.218689 201.387070,339.448456 201.387070,348.609131 
	C231.614426,348.609131 261.461670,348.609131 291.736145,348.609131 
	C291.736145,339.923920 291.680786,331.626709 291.766846,323.330963 
	C291.796021,320.517700 290.305450,320.099884 287.969727,320.121948 
	C279.813782,320.199066 271.656677,320.150940 262.500000,320.150299 
M291.751404,285.372162 
	C291.751373,279.716614 291.517944,274.048096 291.830902,268.409943 
	C292.050690,264.449890 290.762878,263.309998 286.788330,263.334290 
	C259.842346,263.499115 232.894867,263.413239 205.947891,263.437958 
	C204.374207,263.439392 202.800751,263.698334 201.278168,263.832947 
	C201.278168,273.478119 201.278168,282.561279 201.278168,291.905243 
	C231.403687,291.905243 261.255768,291.905243 291.751221,291.905243 
	C291.751221,289.885620 291.751221,288.108612 291.751404,285.372162 
M164.694702,278.506958 
	C164.694702,273.448608 164.694702,268.390259 164.694702,262.983032 
	C149.797928,277.901917 135.519318,292.201691 122.350861,305.389709 
	C136.311737,319.411469 150.577347,333.739288 164.694489,347.917999 
	C164.694489,325.624878 164.694489,302.564423 164.694702,278.506958 
M232.499893,224.590546 
	C251.352646,224.590546 270.205414,224.590546 288.943726,224.590546 
	C274.358643,209.911560 260.140259,195.601654 246.733444,182.108521 
	C232.877182,196.030136 218.604401,210.370224 204.451172,224.590210 
	C212.958572,224.590210 222.229218,224.590210 232.499893,224.590546 
M367.374573,301.132812 
	C354.618408,288.395111 341.862244,275.657410 328.493530,262.308075 
	C328.493530,292.032379 328.493530,320.492615 328.493530,348.885498 
	C342.944092,334.373138 357.208130,320.048126 372.281799,304.910004 
	C371.080139,304.016693 369.476776,302.824768 367.374573,301.132812 
M243.798737,429.656799 
	C244.651962,430.422699 245.505188,431.188629 245.423187,431.114990 
	C259.843384,416.645844 274.085419,402.355499 288.045685,388.347839 
	C260.435913,388.347839 232.008163,388.347839 202.540527,388.347839 
	C216.587097,402.414612 229.943253,415.789948 243.798737,429.656799 
M39.310593,76.523453 
	C39.310593,96.934090 39.310593,117.344727 39.310593,137.678345 
	C45.609760,137.678345 51.186634,137.678345 56.757626,137.678345 
	C56.757626,107.113007 56.757626,76.879974 56.757626,45.772423 
	C51.786110,46.223053 46.788147,45.765800 42.504070,47.300869 
	C37.448112,49.112514 32.956104,52.563309 28.344767,55.500008 
	C27.320889,56.152058 26.283497,57.577606 26.180599,58.729900 
	C25.889082,61.994423 26.078499,65.301895 26.078499,68.967911 
	C30.558109,67.505341 34.601368,66.185234 39.311001,64.647560 
	C39.311001,68.643478 39.311001,72.088120 39.310593,76.523453 
M165.646088,70.512199 
	C165.802429,68.827301 165.958786,67.142403 166.115128,65.457504 
	C166.577560,65.352623 167.039993,65.247742 167.502426,65.142868 
	C168.058838,66.106628 168.812439,67.009247 169.133850,68.045876 
	C170.018982,70.900452 171.055466,73.769440 171.424500,76.709000 
	C172.049377,81.686462 174.895966,81.878052 179.042892,80.773643 
	C178.015991,77.125214 177.110352,73.616417 176.032089,70.161499 
	C175.026398,66.939148 174.689819,64.375648 177.161942,61.114750 
	C181.170959,55.826591 177.975739,47.456837 171.889160,46.451221 
	C167.774048,45.771328 163.455688,46.321537 159.195847,46.321537 
	C159.195847,58.078537 159.195847,69.370407 159.195847,80.853500 
	C161.376587,80.853500 163.411697,80.853500 165.644760,80.853500 
	C165.644760,77.459770 165.644760,74.468201 165.646088,70.512199 
M335.023651,117.600281 
	C334.969330,104.785309 329.070038,100.641914 315.964600,104.171577 
	C315.964600,115.568825 315.964600,126.948875 315.964600,138.427338 
	C319.386566,138.427338 322.393280,138.658524 325.352142,138.380554 
	C332.083954,137.748093 334.727844,134.841507 334.979218,128.065125 
	C335.096527,124.902939 335.015045,121.733391 335.023651,117.600281 
M171.373322,103.937714 
	C167.442200,103.706139 163.511078,103.474564 159.319000,103.227615 
	C159.319000,115.320572 159.319000,126.707520 159.319000,138.514145 
	C162.541168,138.514145 165.514114,138.715027 168.450775,138.473938 
	C175.387924,137.904373 178.112534,135.389709 178.518387,128.554871 
	C178.843002,123.087975 178.621536,117.574821 178.386963,112.093140 
	C178.215805,108.093582 176.348663,105.107964 171.373322,103.937714 
M340.777618,51.074234 
	C336.158173,43.457088 328.914612,46.721352 322.415588,46.004765 
	C322.415588,58.052704 322.415588,69.443222 322.415588,81.151688 
	C325.672241,81.151688 328.648895,81.286453 331.609283,81.124252 
	C338.222900,80.761917 341.295349,78.224701 341.571533,71.748009 
	C341.853546,65.136147 341.234253,58.485844 340.777618,51.074234 
M273.254944,114.539513 
	C273.254944,110.932808 273.254944,107.326111 273.254944,103.709167 
	C270.841278,103.709167 269.094879,103.709167 266.994965,103.709167 
	C266.994965,109.673515 267.009430,115.313484 266.989319,120.953316 
	C266.978027,124.118347 267.302185,127.361649 266.692261,130.413177 
	C266.410156,131.824600 264.255676,132.861771 262.950073,134.068619 
	C261.943176,132.774994 260.544342,131.616577 260.038574,130.150116 
	C259.522644,128.654160 259.866638,126.855545 259.864929,125.189415 
	C259.857697,118.081337 259.861847,110.973236 259.861847,103.801834 
	C257.381256,103.801834 255.516388,103.801834 253.784180,103.801834 
	C253.784180,113.200356 253.447968,122.189926 253.904648,131.139023 
	C254.199585,136.918579 257.715637,139.214752 263.916656,139.002014 
	C269.624146,138.806229 272.599976,136.213409 272.980347,130.508499 
	C273.312469,125.527878 273.181610,120.516396 273.254944,114.539513 
M289.105133,72.926285 
	C290.833618,79.784492 293.963867,82.301338 300.109039,81.773911 
	C306.165985,81.254066 308.923035,78.088264 309.149597,70.911407 
	C309.311890,65.768539 309.301422,60.607418 309.068237,55.468044 
	C308.760132,48.677814 305.656067,45.843185 299.038879,45.861507 
	C292.569397,45.879417 289.240997,48.991989 289.042999,55.595303 
	C288.878754,61.072254 289.031586,66.558716 289.105133,72.926285 
M236.664215,112.805908 
	C236.870255,110.449097 237.118500,107.149834 240.159164,108.183838 
	C242.212540,108.882111 243.388763,112.159737 245.283539,114.725250 
	C246.072952,114.725250 247.834595,114.725250 249.580460,114.725250 
	C249.860855,106.617752 247.193237,103.244446 240.558868,103.002502 
	C233.852280,102.757927 230.314072,106.158066 230.081131,113.444412 
	C229.910858,118.770721 229.858826,124.120186 230.155701,129.436905 
	C230.492874,135.475403 233.550720,138.988571 238.366867,138.896072 
	C242.073288,138.824860 245.766785,138.082291 249.687363,137.611679 
	C249.687363,132.420914 249.687363,126.717819 249.687363,120.743866 
	C247.197403,120.743866 245.028610,120.584785 242.903229,120.819298 
	C242.006561,120.918236 241.201416,121.846817 240.354675,122.398293 
	C240.932968,123.222771 241.341141,124.506905 242.118149,124.794502 
	C246.115723,126.274117 243.752258,129.282913 243.571091,131.463226 
	C243.492615,132.407639 240.417908,134.114578 240.126160,133.858047 
	C238.718964,132.620636 236.991089,130.899445 236.851624,129.226944 
	C236.423767,124.095284 236.670807,118.907356 236.664215,112.805908 
M261.293945,89.891640 
	C260.245605,87.343033 259.197266,84.794426 257.987823,81.854240 
	C264.561005,80.721344 265.569489,75.177780 264.860474,68.453384 
	C262.692017,68.453384 260.954926,68.453384 259.119537,68.453384 
	C259.032410,70.251518 259.361084,71.926453 258.782074,73.183258 
	C258.123779,74.612274 256.654388,75.667671 255.537567,76.885483 
	C254.405563,75.643196 252.370239,74.453171 252.294830,73.149750 
	C251.929871,66.841522 251.875229,60.490452 252.236420,54.184685 
	C252.315170,52.809860 254.547928,51.558418 255.788651,50.250156 
	C256.828583,51.536266 258.175140,52.688084 258.815094,54.149349 
	C259.364594,55.404079 259.106628,57.012463 259.222260,58.706757 
	C260.273346,58.767677 261.079407,58.871166 261.881470,58.846169 
	C262.833252,58.816513 263.781555,58.676273 264.666504,58.590263 
	C265.570312,50.129913 263.268097,46.418449 257.038574,45.923714 
	C249.295609,45.308781 245.964371,48.346699 245.695801,56.773361 
	C245.521027,62.257114 245.468719,67.793327 246.058426,73.230453 
	C246.316483,75.609856 247.950043,78.124031 249.610565,80.000366 
	C252.059326,82.767387 255.090332,85.019150 258.466187,88.016762 
	C255.988144,88.873039 254.449402,89.404739 252.910660,89.936447 
	C252.934952,90.428528 252.959259,90.920616 252.983551,91.412697 
	C255.559769,92.448784 258.166626,92.767059 261.293945,89.891640 
M359.886810,112.552795 
	C359.886810,121.115204 359.886810,129.677612 359.886810,138.337769 
	C363.759583,138.337769 366.915039,138.590332 370.015411,138.284653 
	C376.274170,137.667557 378.865662,134.894638 379.057190,128.617004 
	C379.224365,123.137459 379.136749,117.646088 379.015564,112.163177 
	C378.930725,108.326439 377.272034,105.078041 373.362244,104.332108 
	C369.074493,103.514061 364.619141,103.574585 359.886780,103.226524 
	C359.886780,106.607201 359.886780,109.089752 359.886810,112.552795 
M236.024155,51.635872 
	C236.022812,57.786327 236.033478,63.936825 236.014786,70.087227 
	C236.006134,72.931198 236.252563,76.545059 232.514099,76.708672 
	C228.514709,76.883705 228.932358,73.174446 228.869766,70.386734 
	C228.810089,67.728363 228.852173,65.067688 228.851730,62.408020 
	C228.850845,57.001617 228.851456,51.595215 228.851456,46.277996 
	C226.334274,46.277996 224.578690,46.277996 222.927933,46.277996 
	C222.927933,55.842793 222.634064,65.128830 223.049973,74.382965 
	C223.262848,79.119736 226.971588,81.595169 232.143021,81.741516 
	C237.058472,81.880608 241.451248,79.278717 241.673416,74.817780 
	C242.148148,65.286194 241.818741,55.714561 241.818741,46.166405 
	C239.815475,46.166405 238.193542,46.166405 236.270264,46.166405 
	C236.182800,47.766136 236.103378,49.218716 236.024155,51.635872 
M200.661743,80.999367 
	C203.479858,81.036606 206.303131,81.200584 209.115036,81.085732 
	C215.765656,80.814072 218.734894,77.837852 219.035126,71.219208 
	C219.155396,68.568115 219.104248,65.908569 219.105087,63.252853 
	C219.110214,47.045284 217.290329,45.315281 201.047913,46.098736 
	C200.762909,46.112480 200.490601,46.388985 199.989105,46.666363 
	C199.989105,57.800720 199.989105,69.050606 200.661743,80.999367 
M341.060547,138.584900 
	C342.298706,136.089874 343.536835,133.594849 344.858429,130.931625 
	C351.982788,128.332611 350.095428,135.200806 351.734680,138.339920 
	C353.559631,138.339920 355.152466,138.339920 357.409271,138.339920 
	C355.183014,127.079910 353.128601,116.184311 350.714111,105.369110 
	C350.505188,104.433311 347.902161,103.503853 346.438110,103.544296 
	C345.276825,103.576363 343.377655,104.924423 343.139862,105.986694 
	C340.961426,115.719566 339.113037,125.525719 337.078583,135.291779 
	C336.485779,138.137512 337.731720,138.905563 341.060547,138.584900 
M292.187256,119.088509 
	C291.152924,113.920341 290.118591,108.752182 289.107971,103.702507 
	C286.469147,103.702507 284.385223,103.702507 282.129120,103.702507 
	C279.815216,115.316528 277.556183,126.655243 275.254730,138.206894 
	C278.480011,138.705536 281.649719,139.781631 281.853210,135.284424 
	C282.072174,130.443893 284.595642,129.899872 288.588898,131.097778 
	C289.152405,133.474670 289.716156,135.852524 290.293610,138.288269 
	C292.218262,138.288269 293.951843,138.288269 296.079865,138.288269 
	C294.794769,131.907639 293.587433,125.913078 292.187256,119.088509 
M371.065582,71.439178 
	C369.278900,71.161377 367.492249,70.883583 365.422180,70.561722 
	C365.939941,75.801064 366.787109,79.488403 371.113403,81.023087 
	C375.249908,82.490425 379.141602,82.009262 382.005737,78.524696 
	C385.200226,74.638237 384.588257,70.251190 381.917267,66.493111 
	C379.932373,63.700348 376.784210,61.753429 374.656158,59.036549 
	C373.266998,57.262993 372.641022,54.823177 372.020477,52.585499 
	C371.920624,52.225494 374.223328,50.668732 374.425751,50.839355 
	C376.033112,52.194153 377.401062,53.832924 379.385071,55.968517 
	C380.025055,55.818409 381.530609,55.465282 383.142303,55.087254 
	C382.948975,50.646339 381.683350,46.802433 377.510498,46.378315 
	C374.244812,46.046394 370.049194,46.889885 367.561829,48.852497 
	C364.306793,51.420784 364.915527,55.853756 366.889954,59.421722 
	C367.903931,61.254074 369.673859,62.685127 371.175659,64.225937 
	C372.796936,65.889351 374.915405,67.227844 376.048279,69.159012 
	C377.019836,70.815269 377.058441,73.101006 377.150513,75.124695 
	C377.169922,75.551544 375.112427,76.622429 374.887970,76.420906 
	C373.512268,75.185570 372.388611,73.669571 371.065582,71.439178 
M416.422638,108.367401 
	C413.801544,103.368233 409.506592,101.674004 404.474243,103.654099 
	C400.385864,105.262764 398.206116,109.537277 399.964020,114.398193 
	C400.967438,117.172874 403.440674,119.447441 405.380859,121.842888 
	C407.234161,124.131035 409.663452,126.065033 411.017334,128.594757 
	C411.633698,129.746414 410.268982,131.958328 409.802856,133.689316 
	C408.339905,132.745010 406.681213,131.993103 405.490051,130.781586 
	C404.815002,130.095016 404.906647,128.654617 404.577118,127.224533 
	C402.704224,127.639526 401.050995,128.005859 397.610291,128.768250 
	C400.408752,132.566254 401.928009,136.029709 404.574799,137.882294 
	C408.277557,140.474030 413.712097,138.880432 416.215942,135.552856 
	C418.871246,132.023926 418.519928,126.630257 415.025085,122.694656 
	C412.496094,119.846703 409.374634,117.510124 406.966827,114.576584 
	C406.010162,113.411072 406.004028,111.232849 406.113770,109.551476 
	C406.151855,108.967949 408.355133,107.829536 408.690613,108.087532 
	C409.862244,108.988403 410.670593,110.373566 411.572815,111.607025 
	C411.933105,112.099586 412.178375,112.676254 412.431519,113.134117 
	C415.353729,113.086777 418.020142,113.106628 416.422638,108.367401 
M267.247711,77.808609 
	C266.355774,83.692039 270.399506,80.352592 272.505798,81.057251 
	C273.193542,78.134804 273.785400,75.619820 274.331451,73.299553 
	C276.488129,73.299553 278.250488,73.299553 279.929596,73.299553 
	C282.258850,81.623276 282.258850,81.623276 287.372864,80.363953 
	C285.121216,69.036270 282.866547,57.693531 280.582336,46.202042 
	C278.167175,46.202042 276.070618,46.202042 273.640930,46.202042 
	C271.569336,56.528358 269.518921,66.748955 267.247711,77.808609 
M363.254944,77.090401 
	C361.212555,66.749298 359.170197,56.408192 357.172699,46.294411 
	C354.387085,46.294411 352.294800,46.294411 350.164124,46.294411 
	C347.854218,57.916759 345.602203,69.247940 343.283630,80.913872 
	C345.463867,80.913872 347.214905,80.913872 349.118225,80.913872 
	C349.727570,78.252953 350.304840,75.732086 350.870667,73.261177 
	C353.015808,73.261177 354.782715,73.261177 356.575836,73.261177 
	C357.202087,75.994987 357.777954,78.508705 358.461029,81.490486 
	C360.469177,80.187347 364.845978,83.588539 363.254944,77.090401 
M210.957199,129.734222 
	C210.116226,131.126266 209.275253,132.518311 208.434265,133.910355 
	C206.591644,131.950211 204.749023,129.990082 202.488205,127.585075 
	C201.958099,127.690178 200.547607,127.969826 198.833328,128.309708 
	C199.131531,132.711121 199.804443,136.525055 204.296997,138.206497 
	C208.602448,139.817902 212.551376,139.188629 215.529343,135.496582 
	C218.092804,132.318436 217.713531,126.674652 214.571136,123.017136 
	C212.200653,120.258041 209.121262,118.088623 206.883163,115.243202 
	C205.737015,113.786041 205.568954,111.439095 205.374191,109.453537 
	C205.334259,109.046402 207.812088,107.850380 207.994675,108.050972 
	C209.213638,109.389938 210.112686,111.017410 211.148148,112.528900 
	C211.318222,112.777168 211.648636,112.915604 212.107544,113.254349 
	C213.364746,113.018539 214.782562,112.752609 216.358139,112.457085 
	C216.221481,108.269028 215.228546,104.307037 211.057144,103.726776 
	C207.818573,103.276268 203.630386,103.991310 201.054016,105.843323 
	C197.669205,108.276489 198.086395,112.794922 199.916245,116.347626 
	C201.079575,118.606300 203.384567,120.265495 205.119995,122.244026 
	C207.060699,124.456566 208.936264,126.726234 210.957199,129.734222 
M182.196884,75.273026 
	C182.196884,77.080482 182.196884,78.887947 182.196884,81.268425 
	C186.182831,81.268425 189.811356,81.125793 193.423309,81.309158 
	C196.925781,81.486977 198.002396,80.241234 196.586151,76.897987 
	C194.117874,76.761436 191.684998,76.626846 189.085190,76.483017 
	C189.085190,72.676422 189.085190,69.241882 189.085190,66.046303 
	C191.078568,64.206696 197.181122,67.353928 194.725098,60.937572 
	C192.806198,60.753155 191.023697,60.581848 189.182953,60.404942 
	C189.182953,57.087467 189.182953,54.007107 189.182953,51.443787 
	C191.689743,49.177586 197.893921,53.387138 196.878464,46.242836 
	C191.843338,46.242836 187.261078,46.242836 182.197006,46.242836 
	C182.197006,55.781990 182.197006,65.054085 182.196884,75.273026 
M188.698608,111.573341 
	C188.504547,104.607773 194.672470,110.079041 197.315155,106.391983 
	C196.534729,105.568237 195.571701,103.624687 194.422928,103.507874 
	C190.508530,103.109886 186.528687,103.355583 182.313416,103.355583 
	C182.313416,115.280304 182.313416,126.666046 182.313416,138.653061 
	C186.288116,138.653061 190.073730,138.560211 193.852631,138.679489 
	C197.539032,138.795837 197.315155,136.869263 196.610138,134.272614 
	C193.905289,134.124664 191.482071,133.992126 188.978806,133.855194 
	C188.978806,130.023285 188.978806,126.605560 188.978806,123.201317 
	C191.365494,121.929550 196.939697,124.230782 194.514481,118.139381 
	C192.631714,117.983513 190.860031,117.836838 188.697388,117.657799 
	C188.697388,115.771805 188.697388,114.143181 188.698608,111.573341 
M397.691650,105.635170 
	C397.013794,104.889107 396.366516,103.533432 395.652985,103.497581 
	C391.543243,103.291138 387.417847,103.396980 383.164734,103.396980 
	C383.164734,115.353561 383.164734,126.749817 383.164734,138.613129 
	C387.413208,138.613129 391.385376,138.746811 395.334991,138.507599 
	C396.190735,138.455765 396.965393,137.064529 397.777374,136.290237 
	C396.920166,135.567337 396.144043,134.388428 395.188568,134.218567 
	C393.326385,133.887543 391.363770,134.121552 389.564636,134.121552 
	C389.564636,129.945282 389.564636,126.533813 389.564636,123.198410 
	C395.975067,122.133896 395.975067,122.133896 395.177704,118.196007 
	C393.267548,118.007751 391.342590,117.818039 389.427246,117.629272 
	C389.427246,114.353554 389.427246,111.401390 389.427246,108.980865 
	C392.393555,108.077110 395.028839,107.274216 397.691650,105.635170 
M301.561646,103.331436 
	C298.826080,102.984207 298.217285,104.413216 298.250916,106.863029 
	C298.355530,114.488930 298.288727,122.117180 298.288452,129.744522 
	C298.288330,132.635376 298.288391,135.526245 298.288391,138.318558 
	C312.830444,139.586609 313.561523,139.375656 312.795197,134.244827 
	C310.294678,134.126755 307.748260,134.006516 304.966797,133.875183 
	C304.966797,124.746239 304.991913,116.142365 304.946655,107.538857 
	C304.937042,105.708778 305.725708,103.237900 301.561646,103.331436 
M226.366653,131.298172 
	C226.366653,122.096848 226.366653,112.895523 226.366653,103.754257 
	C223.792191,103.754257 222.046997,103.754257 220.283508,103.754257 
	C220.283508,115.448601 220.283508,126.810577 220.283508,138.321655 
	C222.329559,138.321655 224.077087,138.321655 226.366104,138.321655 
	C226.366104,136.125931 226.366104,134.178192 226.366653,131.298172 
M274.892151,39.796612 
	C275.965271,40.153633 277.040863,40.503342 278.111053,40.868965 
	C282.269379,42.289623 283.855072,40.773518 283.206909,36.910118 
	C280.452789,36.588787 277.939087,36.380558 275.454987,35.986057 
	C271.576752,35.370159 270.638580,37.511665 270.402863,41.651134 
	C272.087006,40.950241 273.157288,40.504814 274.892151,39.796612 
z"/>
<path fill="#FEFAFC" opacity="1.000000" stroke="none" 
	d="
M88.382828,139.376709 
	C70.999809,140.097717 61.638409,132.338730 60.807575,115.468475 
	C60.046894,100.022652 59.949821,84.491592 60.603455,69.042229 
	C61.386864,50.525539 75.224365,41.127846 93.185661,45.960754 
	C101.933960,48.314690 108.502113,55.585678 108.858704,65.697014 
	C109.473869,83.140213 109.626266,100.638054 108.964355,118.074692 
	C108.512306,129.982742 100.554138,137.451767 88.382828,139.376709 
M78.189293,104.479744 
	C78.406464,108.952301 78.418770,113.447403 78.907646,117.890060 
	C79.277908,121.254700 80.939476,123.963249 84.858917,124.082794 
	C88.805603,124.203163 90.375504,121.579163 91.103615,118.221298 
	C91.454124,116.604858 91.823120,114.947998 91.828850,113.308205 
	C91.877716,99.332031 91.945877,85.354485 91.795845,71.379639 
	C91.716087,63.951111 89.354034,60.313599 85.176125,60.219727 
	C80.756836,60.120422 78.244637,64.063667 78.197639,71.539703 
	C78.130692,82.188057 78.186569,92.837189 78.189293,104.479744 
z"/>
<path fill="#FFFCFD" opacity="1.000000" stroke="none" 
	d="
M263.000000,320.150330 
	C271.656677,320.150940 279.813782,320.199066 287.969727,320.121948 
	C290.305450,320.099884 291.796021,320.517700 291.766846,323.330963 
	C291.680786,331.626709 291.736145,339.923920 291.736145,348.609131 
	C261.461670,348.609131 231.614426,348.609131 201.387070,348.609131 
	C201.387070,339.448456 201.387070,330.218689 201.387070,320.150299 
	C221.704041,320.150299 242.102020,320.150299 263.000000,320.150330 
z"/>
<path fill="#FEFAFC" opacity="1.000000" stroke="none" 
	d="
M291.751312,285.851868 
	C291.751221,288.108612 291.751221,289.885620 291.751221,291.905243 
	C261.255768,291.905243 231.403687,291.905243 201.278168,291.905243 
	C201.278168,282.561279 201.278168,273.478119 201.278168,263.832947 
	C202.800751,263.698334 204.374207,263.439392 205.947891,263.437958 
	C232.894867,263.413239 259.842346,263.499115 286.788330,263.334290 
	C290.762878,263.309998 292.050690,264.449890 291.830902,268.409943 
	C291.517944,274.048096 291.751373,279.716614 291.751312,285.851868 
z"/>
<path fill="#FEFAFC" opacity="1.000000" stroke="none" 
	d="
M164.694595,279.005463 
	C164.694489,302.564423 164.694489,325.624878 164.694489,347.917999 
	C150.577347,333.739288 136.311737,319.411469 122.350861,305.389709 
	C135.519318,292.201691 149.797928,277.901917 164.694702,262.983032 
	C164.694702,268.390259 164.694702,273.448608 164.694595,279.005463 
z"/>
<path fill="#FEF8FA" opacity="1.000000" stroke="none" 
	d="
M231.999878,224.590378 
	C222.229218,224.590210 212.958572,224.590210 204.451172,224.590210 
	C218.604401,210.370224 232.877182,196.030136 246.733444,182.108521 
	C260.140259,195.601654 274.358643,209.911560 288.943726,224.590546 
	C270.205414,224.590546 251.352646,224.590546 231.999878,224.590378 
z"/>
<path fill="#FFFCFD" opacity="1.000000" stroke="none" 
	d="
M367.624023,301.382812 
	C369.476776,302.824768 371.080139,304.016693 372.281799,304.910004 
	C357.208130,320.048126 342.944092,334.373138 328.493530,348.885498 
	C328.493530,320.492615 328.493530,292.032379 328.493530,262.308075 
	C341.862244,275.657410 354.618408,288.395111 367.624023,301.382812 
z"/>
<path fill="#FFFEFE" opacity="1.000000" stroke="none" 
	d="
M243.549072,429.411072 
	C229.943253,415.789948 216.587097,402.414612 202.540527,388.347839 
	C232.008163,388.347839 260.435913,388.347839 288.045685,388.347839 
	C274.085419,402.355499 259.843384,416.645844 245.423187,431.114990 
	C245.505188,431.188629 244.651962,430.422699 243.549072,429.411072 
z"/>
<path fill="#FEFAFC" opacity="1.000000" stroke="none" 
	d="
M39.310799,76.028107 
	C39.311001,72.088120 39.311001,68.643478 39.311001,64.647560 
	C34.601368,66.185234 30.558109,67.505341 26.078499,68.967911 
	C26.078499,65.301895 25.889082,61.994423 26.180599,58.729900 
	C26.283497,57.577606 27.320889,56.152058 28.344767,55.500008 
	C32.956104,52.563309 37.448112,49.112514 42.504070,47.300869 
	C46.788147,45.765800 51.786110,46.223053 56.757626,45.772423 
	C56.757626,76.879974 56.757626,107.113007 56.757626,137.678345 
	C51.186634,137.678345 45.609760,137.678345 39.310593,137.678345 
	C39.310593,117.344727 39.310593,96.934090 39.310799,76.028107 
z"/>
<path fill="#FDF1F6" opacity="1.000000" stroke="none" 
	d="
M165.645416,70.994415 
	C165.644760,74.468201 165.644760,77.459770 165.644760,80.853500 
	C163.411697,80.853500 161.376587,80.853500 159.195847,80.853500 
	C159.195847,69.370407 159.195847,58.078537 159.195847,46.321537 
	C163.455688,46.321537 167.774048,45.771328 171.889160,46.451221 
	C177.975739,47.456837 181.170959,55.826591 177.161942,61.114750 
	C174.689819,64.375648 175.026398,66.939148 176.032089,70.161499 
	C177.110352,73.616417 178.015991,77.125214 179.042892,80.773643 
	C174.895966,81.878052 172.049377,81.686462 171.424500,76.709000 
	C171.055466,73.769440 170.018982,70.900452 169.133850,68.045876 
	C168.812439,67.009247 168.058838,66.106628 167.502426,65.142868 
	C167.039993,65.247742 166.577560,65.352623 166.115128,65.457504 
	C165.958786,67.142403 165.802429,68.827301 165.645416,70.994415 
M166.394501,50.912346 
	C166.065994,54.106064 165.737503,57.299782 165.402359,60.558060 
	C169.591415,61.449551 172.060837,60.625977 172.377182,56.656982 
	C172.660782,53.098873 171.857681,50.244423 166.394501,50.912346 
z"/>
<path fill="#FDF3F7" opacity="1.000000" stroke="none" 
	d="
M335.023651,118.083725 
	C335.015045,121.733391 335.096527,124.902939 334.979218,128.065125 
	C334.727844,134.841507 332.083954,137.748093 325.352142,138.380554 
	C322.393280,138.658524 319.386566,138.427338 315.964600,138.427338 
	C315.964600,126.948875 315.964600,115.568825 315.964600,104.171577 
	C329.070038,100.641914 334.969330,104.785309 335.023651,118.083725 
M324.269257,108.031235 
	C323.525909,108.448952 322.140869,108.856575 322.134125,109.285858 
	C322.005493,117.467720 322.039154,125.652130 322.039154,133.758484 
	C326.475586,134.293655 328.348694,132.646759 328.339386,128.845398 
	C328.326385,123.544853 328.581512,118.225212 328.181519,112.954750 
	C328.052948,111.260635 326.215515,109.696213 324.269257,108.031235 
z"/>
<path fill="#FDEEF4" opacity="1.000000" stroke="none" 
	d="
M171.775024,103.994865 
	C176.348663,105.107964 178.215805,108.093582 178.386963,112.093140 
	C178.621536,117.574821 178.843002,123.087975 178.518387,128.554871 
	C178.112534,135.389709 175.387924,137.904373 168.450775,138.473938 
	C165.514114,138.715027 162.541168,138.514145 159.319000,138.514145 
	C159.319000,126.707520 159.319000,115.320572 159.319000,103.227615 
	C163.511078,103.474564 167.442200,103.706139 171.775024,103.994865 
M171.974319,112.956985 
	C171.928650,108.817719 169.861923,107.498444 165.998596,108.326683 
	C165.998596,117.037971 165.998596,125.393585 165.998596,133.799103 
	C170.437897,134.214462 172.074966,132.224594 172.010132,128.294998 
	C171.930893,123.490448 171.991516,118.683594 171.974319,112.956985 
z"/>
<path fill="#FDF0F5" opacity="1.000000" stroke="none" 
	d="
M340.893585,51.463303 
	C341.234253,58.485844 341.853546,65.136147 341.571533,71.748009 
	C341.295349,78.224701 338.222900,80.761917 331.609283,81.124252 
	C328.648895,81.286453 325.672241,81.151688 322.415588,81.151688 
	C322.415588,69.443222 322.415588,58.052704 322.415588,46.004765 
	C328.914612,46.721352 336.158173,43.457088 340.893585,51.463303 
M335.066406,66.416443 
	C335.058441,62.942940 335.023041,59.469227 335.049713,55.995991 
	C335.080475,51.988659 333.400726,50.158527 329.205139,51.220539 
	C329.205139,59.751877 329.205139,68.178436 329.205139,76.706604 
	C336.700531,76.579865 334.719177,71.296066 335.066406,66.416443 
z"/>
<path fill="#FDF0F5" opacity="1.000000" stroke="none" 
	d="
M273.255127,115.029030 
	C273.181610,120.516396 273.312469,125.527878 272.980347,130.508499 
	C272.599976,136.213409 269.624146,138.806229 263.916656,139.002014 
	C257.715637,139.214752 254.199585,136.918579 253.904648,131.139023 
	C253.447968,122.189926 253.784180,113.200356 253.784180,103.801834 
	C255.516388,103.801834 257.381256,103.801834 259.861847,103.801834 
	C259.861847,110.973236 259.857697,118.081337 259.864929,125.189415 
	C259.866638,126.855545 259.522644,128.654160 260.038574,130.150116 
	C260.544342,131.616577 261.943176,132.774994 262.950073,134.068619 
	C264.255676,132.861771 266.410156,131.824600 266.692261,130.413177 
	C267.302185,127.361649 266.978027,124.118347 266.989319,120.953316 
	C267.009430,115.313484 266.994965,109.673515 266.994965,103.709167 
	C269.094879,103.709167 270.841278,103.709167 273.254944,103.709167 
	C273.254944,107.326111 273.254944,110.932808 273.255127,115.029030 
z"/>
<path fill="#FDF4F8" opacity="1.000000" stroke="none" 
	d="
M289.074524,72.483627 
	C289.031586,66.558716 288.878754,61.072254 289.042999,55.595303 
	C289.240997,48.991989 292.569397,45.879417 299.038879,45.861507 
	C305.656067,45.843185 308.760132,48.677814 309.068237,55.468044 
	C309.301422,60.607418 309.311890,65.768539 309.149597,70.911407 
	C308.923035,78.088264 306.165985,81.254066 300.109039,81.773911 
	C293.963867,82.301338 290.833618,79.784492 289.074524,72.483627 
M302.846375,70.119827 
	C302.821777,64.830276 303.044556,59.520279 302.610107,54.264606 
	C302.491608,52.831001 300.396423,51.560791 299.208374,50.215595 
	C298.025421,51.526581 295.900513,52.783131 295.821075,54.157887 
	C295.459351,60.417263 295.502563,66.718346 295.813507,72.983925 
	C295.881317,74.350792 297.645111,75.633499 298.627808,76.954964 
	C299.978912,75.800537 301.447388,74.750862 302.619934,73.437103 
	C303.053101,72.951775 302.789764,71.844818 302.846375,70.119827 
z"/>
<path fill="#FDF1F6" opacity="1.000000" stroke="none" 
	d="
M236.659821,113.273605 
	C236.670807,118.907356 236.423767,124.095284 236.851624,129.226944 
	C236.991089,130.899445 238.718964,132.620636 240.126160,133.858047 
	C240.417908,134.114578 243.492615,132.407639 243.571091,131.463226 
	C243.752258,129.282913 246.115723,126.274117 242.118149,124.794502 
	C241.341141,124.506905 240.932968,123.222771 240.354675,122.398293 
	C241.201416,121.846817 242.006561,120.918236 242.903229,120.819298 
	C245.028610,120.584785 247.197403,120.743866 249.687363,120.743866 
	C249.687363,126.717819 249.687363,132.420914 249.687363,137.611679 
	C245.766785,138.082291 242.073288,138.824860 238.366867,138.896072 
	C233.550720,138.988571 230.492874,135.475403 230.155701,129.436905 
	C229.858826,124.120186 229.910858,118.770721 230.081131,113.444412 
	C230.314072,106.158066 233.852280,102.757927 240.558868,103.002502 
	C247.193237,103.244446 249.860855,106.617752 249.580460,114.725250 
	C247.834595,114.725250 246.072952,114.725250 245.283539,114.725250 
	C243.388763,112.159737 242.212540,108.882111 240.159164,108.183838 
	C237.118500,107.149834 236.870255,110.449097 236.659821,113.273605 
z"/>
<path fill="#FEF6FA" opacity="1.000000" stroke="none" 
	d="
M261.087280,90.232910 
	C258.166626,92.767059 255.559769,92.448784 252.983551,91.412697 
	C252.959259,90.920616 252.934952,90.428528 252.910660,89.936447 
	C254.449402,89.404739 255.988144,88.873039 258.466187,88.016762 
	C255.090332,85.019150 252.059326,82.767387 249.610565,80.000366 
	C247.950043,78.124031 246.316483,75.609856 246.058426,73.230453 
	C245.468719,67.793327 245.521027,62.257114 245.695801,56.773361 
	C245.964371,48.346699 249.295609,45.308781 257.038574,45.923714 
	C263.268097,46.418449 265.570312,50.129913 264.666504,58.590263 
	C263.781555,58.676273 262.833252,58.816513 261.881470,58.846169 
	C261.079407,58.871166 260.273346,58.767677 259.222260,58.706757 
	C259.106628,57.012463 259.364594,55.404079 258.815094,54.149349 
	C258.175140,52.688084 256.828583,51.536266 255.788651,50.250153 
	C254.547928,51.558418 252.315170,52.809860 252.236420,54.184685 
	C251.875229,60.490452 251.929871,66.841522 252.294830,73.149750 
	C252.370239,74.453171 254.405563,75.643196 255.537567,76.885483 
	C256.654388,75.667671 258.123779,74.612274 258.782074,73.183258 
	C259.361084,71.926453 259.032410,70.251518 259.119537,68.453384 
	C260.954926,68.453384 262.692017,68.453384 264.860474,68.453384 
	C265.569489,75.177780 264.561005,80.721344 257.987823,81.854240 
	C259.197266,84.794426 260.245605,87.343033 261.087280,90.232910 
z"/>
<path fill="#FEFAFC" opacity="1.000000" stroke="none" 
	d="
M359.886780,112.062553 
	C359.886780,109.089752 359.886780,106.607201 359.886780,103.226524 
	C364.619141,103.574585 369.074493,103.514061 373.362244,104.332108 
	C377.272034,105.078041 378.930725,108.326439 379.015564,112.163177 
	C379.136749,117.646088 379.224365,123.137459 379.057190,128.617004 
	C378.865662,134.894638 376.274170,137.667557 370.015411,138.284653 
	C366.915039,138.590332 363.759583,138.337769 359.886810,138.337769 
	C359.886810,129.677612 359.886810,121.115204 359.886780,112.062553 
M372.269104,131.461014 
	C372.426270,125.022308 372.822388,118.577225 372.651001,112.147278 
	C372.548248,108.292519 369.948334,107.279953 366.331879,108.430038 
	C366.331879,116.939049 366.331879,125.331505 366.331879,134.724350 
	C368.586029,133.730377 370.267029,132.989136 372.269104,131.461014 
z"/>
<path fill="#FEF8FA" opacity="1.000000" stroke="none" 
	d="
M236.024048,51.153584 
	C236.103378,49.218716 236.182800,47.766136 236.270264,46.166405 
	C238.193542,46.166405 239.815475,46.166405 241.818741,46.166405 
	C241.818741,55.714561 242.148148,65.286194 241.673416,74.817780 
	C241.451248,79.278717 237.058472,81.880608 232.143021,81.741516 
	C226.971588,81.595169 223.262848,79.119736 223.049973,74.382965 
	C222.634064,65.128830 222.927933,55.842793 222.927933,46.277996 
	C224.578690,46.277996 226.334274,46.277996 228.851456,46.277996 
	C228.851456,51.595215 228.850845,57.001617 228.851730,62.408020 
	C228.852173,65.067688 228.810089,67.728363 228.869766,70.386734 
	C228.932358,73.174446 228.514709,76.883705 232.514099,76.708672 
	C236.252563,76.545059 236.006134,72.931198 236.014786,70.087227 
	C236.033478,63.936825 236.022812,57.786327 236.024048,51.153584 
z"/>
<path fill="#FFFCFD" opacity="1.000000" stroke="none" 
	d="
M200.325424,80.649933 
	C199.989105,69.050606 199.989105,57.800720 199.989105,46.666363 
	C200.490601,46.388985 200.762909,46.112480 201.047913,46.098736 
	C217.290329,45.315281 219.110214,47.045284 219.105087,63.252853 
	C219.104248,65.908569 219.155396,68.568115 219.035126,71.219208 
	C218.734894,77.837852 215.765656,80.814072 209.115036,81.085732 
	C206.303131,81.200584 203.479858,81.036606 200.325424,80.649933 
M212.809845,67.316536 
	C212.802597,63.678017 212.830627,60.038998 212.778976,56.401108 
	C212.718277,52.126106 211.030228,49.837917 206.259277,51.260628 
	C206.259277,59.751831 206.259277,68.132980 206.259277,76.512222 
	C212.231430,76.506935 212.706131,75.885582 212.809845,67.316536 
z"/>
<path fill="#FDF0F5" opacity="1.000000" stroke="none" 
	d="
M340.656433,138.601288 
	C337.731720,138.905563 336.485779,138.137512 337.078583,135.291779 
	C339.113037,125.525719 340.961426,115.719566 343.139862,105.986694 
	C343.377655,104.924423 345.276825,103.576363 346.438110,103.544296 
	C347.902161,103.503853 350.505188,104.433311 350.714111,105.369110 
	C353.128601,116.184311 355.183014,127.079910 357.409271,138.339920 
	C355.152466,138.339920 353.559631,138.339920 351.734680,138.339920 
	C350.095428,135.200806 351.982788,128.332611 344.858429,130.931625 
	C343.536835,133.594849 342.298706,136.089874 340.656433,138.601288 
M345.939484,118.558334 
	C345.597260,120.935081 345.255035,123.311821 344.904907,125.743500 
	C349.894440,125.851364 350.084473,124.709900 346.922333,114.516655 
	C346.495239,116.014191 346.251495,116.868881 345.939484,118.558334 
z"/>
<path fill="#FDF1F6" opacity="1.000000" stroke="none" 
	d="
M292.283691,119.503510 
	C293.587433,125.913078 294.794769,131.907639 296.079865,138.288269 
	C293.951843,138.288269 292.218262,138.288269 290.293610,138.288269 
	C289.716156,135.852524 289.152405,133.474670 288.588898,131.097778 
	C284.595642,129.899872 282.072174,130.443893 281.853210,135.284424 
	C281.649719,139.781631 278.480011,138.705536 275.254730,138.206894 
	C277.556183,126.655243 279.815216,115.316528 282.129120,103.702507 
	C284.385223,103.702507 286.469147,103.702507 289.107971,103.702507 
	C290.118591,108.752182 291.152924,113.920341 292.283691,119.503510 
M283.748627,124.438034 
	C284.938477,125.087692 286.128326,125.737358 288.310577,126.928886 
	C287.321564,121.715385 286.644592,118.146851 285.967651,114.578308 
	C285.701263,114.617279 285.434845,114.656242 285.168457,114.695213 
	C284.726471,117.648300 284.284454,120.601387 283.748627,124.438034 
z"/>
<path fill="#FDF4F8" opacity="1.000000" stroke="none" 
	d="
M371.123291,71.843117 
	C372.388611,73.669571 373.512268,75.185570 374.887970,76.420906 
	C375.112427,76.622429 377.169922,75.551544 377.150513,75.124695 
	C377.058441,73.101006 377.019836,70.815269 376.048279,69.159012 
	C374.915405,67.227844 372.796936,65.889351 371.175659,64.225937 
	C369.673859,62.685127 367.903931,61.254074 366.889954,59.421722 
	C364.915527,55.853756 364.306793,51.420784 367.561829,48.852497 
	C370.049194,46.889885 374.244812,46.046394 377.510498,46.378315 
	C381.683350,46.802433 382.948975,50.646339 383.142303,55.087254 
	C381.530609,55.465282 380.025055,55.818409 379.385071,55.968517 
	C377.401062,53.832924 376.033112,52.194153 374.425751,50.839355 
	C374.223328,50.668732 371.920624,52.225494 372.020477,52.585499 
	C372.641022,54.823177 373.266998,57.262993 374.656158,59.036549 
	C376.784210,61.753429 379.932373,63.700348 381.917267,66.493111 
	C384.588257,70.251190 385.200226,74.638237 382.005737,78.524696 
	C379.141602,82.009262 375.249908,82.490425 371.113403,81.023087 
	C366.787109,79.488403 365.939941,75.801064 365.422180,70.561722 
	C367.492249,70.883583 369.278900,71.161377 371.123291,71.843117 
z"/>
<path fill="#FDF3F7" opacity="1.000000" stroke="none" 
	d="
M416.574646,108.742378 
	C418.020142,113.106628 415.353729,113.086777 412.431519,113.134117 
	C412.178375,112.676254 411.933105,112.099586 411.572815,111.607025 
	C410.670593,110.373566 409.862244,108.988403 408.690613,108.087532 
	C408.355133,107.829536 406.151855,108.967949 406.113770,109.551476 
	C406.004028,111.232849 406.010162,113.411072 406.966827,114.576584 
	C409.374634,117.510124 412.496094,119.846703 415.025085,122.694656 
	C418.519928,126.630257 418.871246,132.023926 416.215942,135.552856 
	C413.712097,138.880432 408.277557,140.474030 404.574799,137.882294 
	C401.928009,136.029709 400.408752,132.566254 397.610291,128.768250 
	C401.050995,128.005859 402.704224,127.639526 404.577118,127.224533 
	C404.906647,128.654617 404.815002,130.095016 405.490051,130.781586 
	C406.681213,131.993103 408.339905,132.745010 409.802856,133.689316 
	C410.268982,131.958328 411.633698,129.746414 411.017334,128.594757 
	C409.663452,126.065033 407.234161,124.131035 405.380859,121.842888 
	C403.440674,119.447441 400.967438,117.172874 399.964020,114.398193 
	C398.206116,109.537277 400.385864,105.262764 404.474243,103.654099 
	C409.506592,101.674004 413.801544,103.368233 416.574646,108.742378 
z"/>
<path fill="#FEF6FA" opacity="1.000000" stroke="none" 
	d="
M267.358124,77.389084 
	C269.518921,66.748955 271.569336,56.528358 273.640930,46.202042 
	C276.070618,46.202042 278.167175,46.202042 280.582336,46.202042 
	C282.866547,57.693531 285.121216,69.036270 287.372864,80.363953 
	C282.258850,81.623276 282.258850,81.623276 279.929596,73.299553 
	C278.250488,73.299553 276.488129,73.299553 274.331451,73.299553 
	C273.785400,75.619820 273.193542,78.134804 272.505798,81.057251 
	C270.399506,80.352592 266.355774,83.692039 267.358124,77.389084 
M277.600555,57.041050 
	C276.557129,60.808765 275.513672,64.576477 274.370483,68.704376 
	C276.543365,68.704376 277.758453,68.704376 279.337769,68.704376 
	C278.798737,64.810600 278.305878,61.250542 277.600555,57.041050 
z"/>
<path fill="#FEF6FA" opacity="1.000000" stroke="none" 
	d="
M363.366089,77.503723 
	C364.845978,83.588539 360.469177,80.187347 358.461029,81.490486 
	C357.777954,78.508705 357.202087,75.994987 356.575836,73.261177 
	C354.782715,73.261177 353.015808,73.261177 350.870667,73.261177 
	C350.304840,75.732086 349.727570,78.252953 349.118225,80.913872 
	C347.214905,80.913872 345.463867,80.913872 343.283630,80.913872 
	C345.602203,69.247940 347.854218,57.916759 350.164124,46.294411 
	C352.294800,46.294411 354.387085,46.294411 357.172699,46.294411 
	C359.170197,56.408192 361.212555,66.749298 363.366089,77.503723 
M352.947693,68.994011 
	C353.902527,68.172577 355.730896,67.269981 355.663391,66.543549 
	C355.343842,63.104240 354.506470,59.713039 353.853577,56.304699 
	C353.556305,56.334110 353.259033,56.363525 352.961761,56.392937 
	C352.695190,60.546841 352.428619,64.700745 352.947693,68.994011 
z"/>
<path fill="#FEF6FA" opacity="1.000000" stroke="none" 
	d="
M210.898682,129.352631 
	C208.936264,126.726234 207.060699,124.456566 205.119995,122.244026 
	C203.384567,120.265495 201.079575,118.606300 199.916245,116.347626 
	C198.086395,112.794922 197.669205,108.276489 201.054016,105.843323 
	C203.630386,103.991310 207.818573,103.276268 211.057144,103.726776 
	C215.228546,104.307037 216.221481,108.269028 216.358139,112.457085 
	C214.782562,112.752609 213.364746,113.018539 212.107544,113.254349 
	C211.648636,112.915604 211.318222,112.777168 211.148148,112.528900 
	C210.112686,111.017410 209.213638,109.389938 207.994675,108.050972 
	C207.812088,107.850380 205.334259,109.046402 205.374191,109.453537 
	C205.568954,111.439095 205.737015,113.786041 206.883163,115.243202 
	C209.121262,118.088623 212.200653,120.258041 214.571136,123.017136 
	C217.713531,126.674652 218.092804,132.318436 215.529343,135.496582 
	C212.551376,139.188629 208.602448,139.817902 204.296997,138.206497 
	C199.804443,136.525055 199.131531,132.711121 198.833328,128.309708 
	C200.547607,127.969826 201.958099,127.690178 202.488205,127.585075 
	C204.749023,129.990082 206.591644,131.950211 208.434265,133.910355 
	C209.275253,132.518311 210.116226,131.126266 210.898682,129.352631 
z"/>
<path fill="#FDF0F5" opacity="1.000000" stroke="none" 
	d="
M182.196945,74.799599 
	C182.197006,65.054085 182.197006,55.781990 182.197006,46.242836 
	C187.261078,46.242836 191.843338,46.242836 196.878464,46.242836 
	C197.893921,53.387138 191.689743,49.177586 189.182953,51.443787 
	C189.182953,54.007107 189.182953,57.087467 189.182953,60.404942 
	C191.023697,60.581848 192.806198,60.753155 194.725098,60.937572 
	C197.181122,67.353928 191.078568,64.206696 189.085190,66.046303 
	C189.085190,69.241882 189.085190,72.676422 189.085190,76.483017 
	C191.684998,76.626846 194.117874,76.761436 196.586151,76.897987 
	C198.002396,80.241234 196.925781,81.486977 193.423309,81.309158 
	C189.811356,81.125793 186.182831,81.268425 182.196884,81.268425 
	C182.196884,78.887947 182.196884,77.080482 182.196945,74.799599 
z"/>
<path fill="#FCE8F0" opacity="1.000000" stroke="none" 
	d="
M188.697998,112.043945 
	C188.697388,114.143181 188.697388,115.771805 188.697388,117.657799 
	C190.860031,117.836838 192.631714,117.983513 194.514481,118.139381 
	C196.939697,124.230782 191.365494,121.929550 188.978806,123.201317 
	C188.978806,126.605560 188.978806,130.023285 188.978806,133.855194 
	C191.482071,133.992126 193.905289,134.124664 196.610138,134.272614 
	C197.315155,136.869263 197.539032,138.795837 193.852631,138.679489 
	C190.073730,138.560211 186.288116,138.653061 182.313416,138.653061 
	C182.313416,126.666046 182.313416,115.280304 182.313416,103.355583 
	C186.528687,103.355583 190.508530,103.109886 194.422928,103.507874 
	C195.571701,103.624687 196.534729,105.568237 197.315155,106.391983 
	C194.672470,110.079041 188.504547,104.607773 188.697998,112.043945 
z"/>
<path fill="#FDF0F5" opacity="1.000000" stroke="none" 
	d="
M397.677887,106.053253 
	C395.028839,107.274216 392.393555,108.077110 389.427246,108.980865 
	C389.427246,111.401390 389.427246,114.353554 389.427246,117.629272 
	C391.342590,117.818039 393.267548,118.007751 395.177704,118.196007 
	C395.975067,122.133896 395.975067,122.133896 389.564636,123.198410 
	C389.564636,126.533813 389.564636,129.945282 389.564636,134.121552 
	C391.363770,134.121552 393.326385,133.887543 395.188568,134.218567 
	C396.144043,134.388428 396.920166,135.567337 397.777374,136.290237 
	C396.965393,137.064529 396.190735,138.455765 395.334991,138.507599 
	C391.385376,138.746811 387.413208,138.613129 383.164734,138.613129 
	C383.164734,126.749817 383.164734,115.353561 383.164734,103.396980 
	C387.417847,103.396980 391.543243,103.291138 395.652985,103.497581 
	C396.366516,103.533432 397.013794,104.889107 397.677887,106.053253 
z"/>
<path fill="#FBE5EE" opacity="1.000000" stroke="none" 
	d="
M301.985291,103.334862 
	C305.725708,103.237900 304.937042,105.708778 304.946655,107.538857 
	C304.991913,116.142365 304.966797,124.746239 304.966797,133.875183 
	C307.748260,134.006516 310.294678,134.126755 312.795197,134.244827 
	C313.561523,139.375656 312.830444,139.586609 298.288391,138.318558 
	C298.288391,135.526245 298.288330,132.635376 298.288452,129.744522 
	C298.288727,122.117180 298.355530,114.488930 298.250916,106.863029 
	C298.217285,104.413216 298.826080,102.984207 301.985291,103.334862 
z"/>
<path fill="#FEFAFC" opacity="1.000000" stroke="none" 
	d="
M226.366379,131.764313 
	C226.366104,134.178192 226.366104,136.125931 226.366104,138.321655 
	C224.077087,138.321655 222.329559,138.321655 220.283508,138.321655 
	C220.283508,126.810577 220.283508,115.448601 220.283508,103.754257 
	C222.046997,103.754257 223.792191,103.754257 226.366653,103.754257 
	C226.366653,112.895523 226.366653,122.096848 226.366379,131.764313 
z"/>
<path fill="#FDEEF4" opacity="1.000000" stroke="none" 
	d="
M274.559875,39.928001 
	C273.157288,40.504814 272.087006,40.950241 270.402863,41.651134 
	C270.638580,37.511665 271.576752,35.370159 275.454987,35.986057 
	C277.939087,36.380558 280.452789,36.588787 283.206909,36.910118 
	C283.855072,40.773518 282.269379,42.289623 278.111053,40.868965 
	C277.040863,40.503342 275.965271,40.153633 274.559875,39.928001 
z"/>
<path fill="#DE1C6D" opacity="1.000000" stroke="none" 
	d="
M78.189636,103.982864 
	C78.186569,92.837189 78.130692,82.188057 78.197639,71.539703 
	C78.244637,64.063667 80.756836,60.120422 85.176125,60.219727 
	C89.354034,60.313599 91.716087,63.951111 91.795845,71.379639 
	C91.945877,85.354485 91.877716,99.332031 91.828850,113.308205 
	C91.823120,114.947998 91.454124,116.604858 91.103615,118.221298 
	C90.375504,121.579163 88.805603,124.203163 84.858917,124.082794 
	C80.939476,123.963249 79.277908,121.254700 78.907646,117.890060 
	C78.418770,113.447403 78.406464,108.952301 78.189636,103.982864 
z"/>
<path fill="#DE1C6D" opacity="1.000000" stroke="none" 
	d="
M166.853546,50.789719 
	C171.857681,50.244423 172.660782,53.098873 172.377182,56.656982 
	C172.060837,60.625977 169.591415,61.449551 165.402359,60.558060 
	C165.737503,57.299782 166.065994,54.106064 166.853546,50.789719 
z"/>
<path fill="#DD1569" opacity="1.000000" stroke="none" 
	d="
M324.714539,108.051849 
	C326.215515,109.696213 328.052948,111.260635 328.181519,112.954750 
	C328.581512,118.225212 328.326385,123.544853 328.339386,128.845398 
	C328.348694,132.646759 326.475586,134.293655 322.039154,133.758484 
	C322.039154,125.652130 322.005493,117.467720 322.134125,109.285858 
	C322.140869,108.856575 323.525909,108.448952 324.714539,108.051849 
z"/>
<path fill="#DD1569" opacity="1.000000" stroke="none" 
	d="
M171.982986,113.417358 
	C171.991516,118.683594 171.930893,123.490448 172.010132,128.294998 
	C172.074966,132.224594 170.437897,134.214462 165.998596,133.799103 
	C165.998596,125.393585 165.998596,117.037971 165.998596,108.326683 
	C169.861923,107.498444 171.928650,108.817719 171.982986,113.417358 
z"/>
<path fill="#DD1569" opacity="1.000000" stroke="none" 
	d="
M335.066254,66.895706 
	C334.719177,71.296066 336.700531,76.579865 329.205139,76.706604 
	C329.205139,68.178436 329.205139,59.751877 329.205139,51.220539 
	C333.400726,50.158527 335.080475,51.988659 335.049713,55.995991 
	C335.023041,59.469227 335.058441,62.942940 335.066254,66.895706 
z"/>
<path fill="#DE1C6D" opacity="1.000000" stroke="none" 
	d="
M302.845215,70.570602 
	C302.789764,71.844818 303.053101,72.951775 302.619934,73.437103 
	C301.447388,74.750862 299.978912,75.800537 298.627808,76.954964 
	C297.645111,75.633499 295.881317,74.350792 295.813507,72.983925 
	C295.502563,66.718346 295.459351,60.417263 295.821075,54.157887 
	C295.900513,52.783131 298.025421,51.526581 299.208374,50.215599 
	C300.396423,51.560791 302.491608,52.831001 302.610107,54.264606 
	C303.044556,59.520279 302.821777,64.830276 302.845215,70.570602 
z"/>
<path fill="#DF2371" opacity="1.000000" stroke="none" 
	d="
M372.108582,131.854446 
	C370.267029,132.989136 368.586029,133.730377 366.331879,134.724350 
	C366.331879,125.331505 366.331879,116.939049 366.331879,108.430038 
	C369.948334,107.279953 372.548248,108.292519 372.651001,112.147278 
	C372.822388,118.577225 372.426270,125.022308 372.108582,131.854446 
z"/>
<path fill="#DF2371" opacity="1.000000" stroke="none" 
	d="
M212.809265,67.784622 
	C212.706131,75.885582 212.231430,76.506935 206.259277,76.512222 
	C206.259277,68.132980 206.259277,59.751831 206.259277,51.260628 
	C211.030228,49.837917 212.718277,52.126106 212.778976,56.401108 
	C212.830627,60.038998 212.802597,63.678017 212.809265,67.784622 
z"/>
<path fill="#DF2371" opacity="1.000000" stroke="none" 
	d="
M345.973633,118.140953 
	C346.251495,116.868881 346.495239,116.014191 346.922333,114.516655 
	C350.084473,124.709900 349.894440,125.851364 344.904907,125.743500 
	C345.255035,123.311821 345.597260,120.935081 345.973633,118.140953 
z"/>
<path fill="#DF2371" opacity="1.000000" stroke="none" 
	d="
M283.795532,123.996254 
	C284.284454,120.601387 284.726471,117.648300 285.168457,114.695213 
	C285.434845,114.656242 285.701263,114.617279 285.967651,114.578308 
	C286.644592,118.146851 287.321564,121.715385 288.310577,126.928886 
	C286.128326,125.737358 284.938477,125.087692 283.795532,123.996254 
z"/>
<path fill="#DF2371" opacity="1.000000" stroke="none" 
	d="
M277.706787,57.365768 
	C278.305878,61.250542 278.798737,64.810600 279.337769,68.704376 
	C277.758453,68.704376 276.543365,68.704376 274.370483,68.704376 
	C275.513672,64.576477 276.557129,60.808765 277.706787,57.365768 
z"/>
<path fill="#DF2371" opacity="1.000000" stroke="none" 
	d="
M352.554871,68.924332 
	C352.428619,64.700745 352.695190,60.546841 352.961761,56.392937 
	C353.259033,56.363525 353.556305,56.334110 353.853577,56.304699 
	C354.506470,59.713039 355.343842,63.104240 355.663391,66.543549 
	C355.730896,67.269981 353.902527,68.172577 352.554871,68.924332 
z"/>
</svg>