<svg version="1.1" id="Layer_1" xmlns="http://www.w3.org/2000/svg" xmlns:xlink="http://www.w3.org/1999/xlink" x="0px" y="0px"
	 width="100%" viewBox="0 0 486 486" enable-background="new 0 0 486 486" xml:space="preserve">
<path fill="#FFFFFF" opacity="1.000000" stroke="none" 
	d="
M487.000000,165.000000 
	C487.000000,272.666626 487.000000,379.833282 487.000000,486.999939 
	C325.000061,486.999939 163.000122,486.999939 1.000144,486.999969 
	C1.000096,325.000092 1.000096,163.000198 1.000048,1.000231 
	C162.999863,1.000154 324.999725,1.000154 486.999786,1.000077 
	C487.000000,55.500000 487.000000,110.000000 487.000000,165.000000 
M3.998887,259.500000 
	C3.998910,329.331512 3.997450,399.163025 4.000502,468.994537 
	C4.000978,479.878235 8.157933,483.999512 19.130409,483.999664 
	C168.960159,484.001495 318.789917,484.001312 468.619659,484.000122 
	C479.947510,484.000031 483.999786,479.982056 483.999908,468.744507 
	C484.001434,318.914764 484.001434,169.084991 483.999878,19.255245 
	C483.999786,8.018013 479.947357,3.999840 468.619385,3.999746 
	C318.956299,3.998515 169.293213,3.998631 19.630121,3.999470 
	C7.953321,3.999535 3.999807,7.920990 3.999614,19.505713 
	C3.998288,99.170471 3.998898,178.835236 3.998887,259.500000 
z"/>
<path fill="#FD9D25" opacity="1.000000" stroke="none" 
	d="
M3.998887,259.000000 
	C3.998898,178.835236 3.998288,99.170471 3.999614,19.505713 
	C3.999807,7.920990 7.953321,3.999535 19.630121,3.999470 
	C169.293213,3.998631 318.956299,3.998515 468.619385,3.999746 
	C479.947357,3.999840 483.999786,8.018013 483.999878,19.255245 
	C484.001434,169.084991 484.001434,318.914764 483.999908,468.744507 
	C483.999786,479.982056 479.947510,484.000031 468.619659,484.000122 
	C318.789917,484.001312 168.960159,484.001495 19.130409,483.999664 
	C8.157933,483.999512 4.000978,479.878235 4.000502,468.994537 
	C3.997450,399.163025 3.998910,329.331512 3.998887,259.000000 
M188.386398,304.499969 
	C188.384628,347.644958 188.430908,390.790100 188.308105,433.934753 
	C188.295563,438.339752 189.354126,440.053192 194.171310,439.974152 
	C211.824387,439.684662 229.486145,439.754974 247.142090,439.936829 
	C251.285889,439.979523 253.002777,439.098145 252.993103,434.458618 
	C252.852875,367.159332 252.854095,299.859558 252.991226,232.560257 
	C253.000595,227.960175 251.353317,227.013596 247.166321,227.059174 
	C229.510590,227.251434 211.848801,227.312241 194.195587,227.027145 
	C189.416733,226.949982 188.271896,228.591476 188.303513,233.035843 
	C188.470581,256.522888 188.384537,280.011719 188.386398,304.499969 
M292.276855,304.758545 
	C282.799713,316.794067 273.243073,328.768677 263.926483,340.927246 
	C262.437775,342.870087 261.248016,345.632385 261.232910,348.024109 
	C261.050049,377.006897 261.179657,405.991547 261.035797,434.974731 
	C261.016174,438.923096 262.180756,440.140747 266.159485,440.098999 
	C284.314056,439.908447 302.473114,439.899963 320.627380,440.104279 
	C324.679962,440.149841 325.717834,438.787842 325.710999,434.936249 
	C325.613739,380.300079 325.650848,325.663666 325.615112,271.027344 
	C325.614014,269.340485 325.178436,267.653931 324.945435,265.967224 
	C324.435333,265.766357 323.925262,265.565521 323.415192,265.364685 
	C313.184753,278.310089 302.954315,291.255493 292.276855,304.758545 
M55.005344,97.500000 
	C55.005352,88.504791 55.259022,79.499451 54.900505,70.518555 
	C54.715668,65.888313 56.578594,64.208588 61.554199,64.219391 
	C61.554199,88.414772 61.554199,112.590050 61.554199,136.741333 
	C67.735069,136.741333 73.169861,136.741333 78.663147,136.741333 
	C78.663147,106.127075 78.663147,75.778557 78.663147,45.881371 
	C69.376846,42.726566 62.326668,47.095646 55.274364,52.267483 
	C55.046761,49.446774 54.890160,47.506004 54.672699,44.810966 
	C49.720448,45.213196 44.699909,44.724819 40.354816,46.211098 
	C35.429920,47.895706 31.055222,51.262585 26.567760,54.098164 
	C25.502562,54.771252 24.362808,56.189499 24.257416,57.355392 
	C23.949921,60.756977 24.148188,64.204277 24.148188,68.100731 
	C28.757519,66.507271 32.732449,65.133125 37.426262,63.510460 
	C37.426262,88.418335 37.426262,112.497444 37.426262,136.696350 
	C43.525921,136.696350 49.087231,136.696350 55.005348,136.696350 
	C55.005348,123.760399 55.005348,111.130196 55.005344,97.500000 
M332.789825,407.500000 
	C332.789795,416.830170 332.960480,426.164978 332.706940,435.488251 
	C332.603271,439.301208 333.894257,440.265900 337.562012,440.233734 
	C356.387512,440.068695 375.215240,440.164642 394.042145,440.141510 
	C395.325378,440.139923 396.608337,439.910065 398.053711,439.770721 
	C398.053711,417.768280 398.053711,396.067566 398.053711,374.319580 
	C376.176117,374.319580 354.767731,374.319580 332.789368,374.319580 
	C332.789368,385.257080 332.789368,395.878540 332.789825,407.500000 
M156.751831,407.923370 
	C156.751831,418.475922 156.751831,429.028473 156.751831,439.855042 
	C164.116638,439.855042 170.272614,440.049683 176.395889,439.689087 
	C177.606415,439.617828 179.666931,437.425964 179.685562,436.187225 
	C179.913452,421.043701 179.809052,405.895538 179.855042,390.748718 
	C179.863358,388.005676 178.774948,386.943848 175.973389,386.954865 
	C156.332581,387.031921 136.691193,387.032379 117.050400,386.954437 
	C114.236580,386.943298 113.176765,388.026367 113.185280,390.760284 
	C113.232445,405.907074 113.151802,421.054657 113.313118,436.199890 
	C113.326035,437.412689 114.790894,439.613159 115.659882,439.653442 
	C122.058434,439.950043 128.477051,439.813782 135.159790,439.813782 
	C135.159790,429.746460 135.225113,420.435059 135.121246,411.125519 
	C135.088745,408.211792 135.983414,406.832703 139.121445,406.965790 
	C144.764618,407.205170 150.418625,407.189545 156.751831,407.923370 
M131.501526,381.152344 
	C147.533585,381.152344 163.565628,381.152344 179.597687,381.152344 
	C179.790466,380.690491 179.983231,380.228668 180.176010,379.766815 
	C169.184402,365.521606 158.192780,351.276367 146.489059,336.108246 
	C134.967880,351.234985 124.120041,365.477661 113.272194,379.720306 
	C113.591324,380.197693 113.910454,380.675079 114.229584,381.152466 
	C119.653862,381.152466 125.078133,381.152466 131.501526,381.152344 
M343.526062,354.000977 
	C340.103088,354.000977 336.680145,354.000977 333.204529,354.000977 
	C333.204529,359.339478 333.204529,363.914978 333.204529,368.706726 
	C354.902985,368.706726 376.275208,368.706726 397.804749,368.706726 
	C397.804749,363.720245 397.804749,359.031708 397.804749,354.000977 
	C379.760956,354.000977 362.140533,354.000977 343.526062,354.000977 
M197.178864,136.800751 
	C198.619507,137.044708 200.060150,137.288681 201.090942,137.463242 
	C201.090942,125.410248 201.090942,114.033997 201.090942,102.885452 
	C196.430756,101.611374 194.204987,102.427795 193.568954,107.063965 
	C192.765411,112.921028 191.115280,118.661942 189.830338,124.452957 
	C189.607651,124.420219 189.384964,124.387482 189.162277,124.354744 
	C187.625320,117.105865 186.088348,109.856979 184.561462,102.655701 
	C182.155884,102.655701 180.238449,102.655701 177.193802,102.655701 
	C177.193802,113.578293 177.170074,124.192192 177.205826,134.805893 
	C177.219559,138.883423 179.666641,137.622177 182.367722,136.948257 
	C182.367722,130.982956 182.367722,125.150345 182.367722,119.317741 
	C182.786118,119.264374 183.204514,119.211006 183.622925,119.157639 
	C184.706131,124.030571 185.645889,128.942703 186.960342,133.752441 
	C187.352524,135.187515 188.794159,136.335770 189.754974,137.615463 
	C190.581238,136.406616 191.815384,135.303314 192.160416,133.969925 
	C193.397461,129.189346 194.333603,124.330933 195.383530,119.501945 
	C195.923065,119.545143 196.462585,119.588333 197.002106,119.631531 
	C197.002106,125.072189 197.002106,130.512848 197.178864,136.800751 
M154.407227,109.361725 
	C154.433640,116.330078 154.005737,123.339508 154.630859,130.253738 
	C155.127182,135.743256 158.727036,138.047455 164.430420,138.004654 
	C170.138214,137.961838 173.507095,135.560074 173.978912,129.990158 
	C174.509430,123.727043 174.281754,117.388084 174.169983,111.085907 
	C174.082413,106.149155 171.658951,102.916725 166.557037,102.130409 
	C160.654877,101.220741 157.002060,103.213364 154.407227,109.361725 
M240.161850,120.102798 
	C237.948608,115.096977 235.928467,109.990509 233.404099,105.146835 
	C232.649933,103.699776 230.484985,102.987976 228.330490,101.500168 
	C228.330490,114.575516 228.330490,125.961105 228.330490,137.658539 
	C230.141479,137.531296 231.562622,137.431442 233.530670,137.293167 
	C233.530670,131.466980 233.530670,125.928749 233.530670,120.390503 
	C233.937210,120.296219 234.343750,120.201935 234.750290,120.107651 
	C236.756119,124.897713 238.873337,129.645294 240.723068,134.494904 
	C241.719666,137.107773 242.947113,138.481903 245.800491,137.037979 
	C245.800491,125.538734 245.800491,114.162163 245.800491,102.412300 
	C244.038177,102.516045 242.647202,102.597923 240.864655,102.702858 
	C240.864655,108.724922 240.864655,114.358276 240.161850,120.102798 
M209.731659,137.121719 
	C217.714050,139.232956 223.389603,137.558365 223.874084,131.747253 
	C224.677185,122.114380 224.092575,112.365814 224.092575,102.663742 
	C222.287689,102.663742 220.543564,102.663742 218.557281,102.663742 
	C218.469818,104.440033 218.343353,105.904602 218.334793,107.369858 
	C218.294037,114.352692 218.483963,121.346146 218.117981,128.310928 
	C218.032257,129.942307 216.103073,131.476791 215.022018,133.055862 
	C213.742737,131.459045 212.094604,130.023529 211.303024,128.213425 
	C210.689896,126.811386 211.133881,124.940880 211.132416,123.278603 
	C211.126480,116.499046 211.129944,109.719482 211.129944,102.642563 
	C208.922333,102.642563 207.196320,102.642563 205.160767,102.642563 
	C205.160767,112.140053 204.930817,121.410713 205.335587,130.653580 
	C205.427460,132.751602 207.720306,134.753265 209.731659,137.121719 
M322.175323,122.436813 
	C322.116669,118.446884 322.193115,114.449036 321.959717,110.469353 
	C321.745270,106.812065 319.883331,103.899918 316.197876,103.245544 
	C312.027161,102.505020 307.725067,102.504326 303.183044,102.159370 
	C303.183044,114.312340 303.183044,125.693718 303.183044,137.703476 
	C306.892731,137.533279 310.354431,137.595795 313.754456,137.168228 
	C319.283783,136.472885 321.651733,133.833527 322.063263,128.390320 
	C322.188446,126.734787 322.142456,125.066322 322.175323,122.436813 
M279.179901,127.177017 
	C279.153046,121.849907 279.182800,116.521706 279.080475,111.196053 
	C279.006256,107.333023 277.348450,104.094284 273.452759,103.327805 
	C269.164307,102.484039 264.698975,102.539200 260.338135,102.204842 
	C260.338135,114.492668 260.338135,125.881813 260.338135,137.322601 
	C263.851990,137.322601 267.014313,137.599747 270.110291,137.264359 
	C276.380157,136.585220 278.217865,134.552109 279.179901,127.177017 
M158.873718,163.740234 
	C159.248383,158.050598 155.673264,159.941498 152.930298,160.214691 
	C152.930298,169.821701 152.610062,179.100464 153.059219,188.341827 
	C153.300339,193.302750 157.114166,195.143967 161.885162,195.152771 
	C167.657394,195.163422 171.363770,193.402969 171.622253,188.798615 
	C172.157349,179.266602 171.783615,169.683548 171.783615,159.813965 
	C169.717239,159.918961 167.999786,160.006226 165.986740,160.108505 
	C165.986740,168.733536 166.019547,176.856995 165.967575,184.979919 
	C165.951111,187.555023 165.636871,190.630936 162.228027,190.029800 
	C160.868103,189.789978 159.134338,186.891281 159.036301,185.121765 
	C158.659943,178.329224 158.877853,171.503769 158.873718,163.740234 
M164.937561,75.381638 
	C165.023697,76.827309 165.109848,78.272972 165.215347,80.043358 
	C168.784653,80.043358 172.073654,80.211136 175.339203,80.005783 
	C180.850189,79.659233 183.722809,76.721375 184.059860,71.123909 
	C184.269089,67.649452 184.188736,64.155914 184.191147,60.670918 
	C184.201019,46.392712 182.522614,44.760475 168.098312,45.008644 
	C167.154953,45.024876 166.214264,45.195526 164.937469,45.329483 
	C164.937469,55.207569 164.937469,64.804756 164.937561,75.381638 
M227.155823,64.442169 
	C227.112885,60.794769 227.151413,57.144115 227.005951,53.500809 
	C226.831894,49.140900 224.590347,46.082493 220.249161,45.561146 
	C216.256989,45.081715 212.161911,45.459236 208.272430,45.459236 
	C208.272430,57.135872 208.272430,68.497009 208.272430,80.027847 
	C211.930069,80.027847 215.239487,80.212837 218.520309,79.985344 
	C223.698059,79.626320 226.555908,76.645317 227.017502,71.377731 
	C227.190781,69.400337 227.116882,67.401299 227.155823,64.442169 
M237.509018,182.049271 
	C243.668488,196.731644 242.171967,195.285461 246.661072,194.296921 
	C246.661072,182.890457 246.661072,171.479034 246.661072,159.750702 
	C244.883453,159.942169 243.482010,160.093124 241.677887,160.287445 
	C241.677887,166.153046 241.677887,171.673599 241.677887,177.194168 
	C238.704407,172.553589 236.799789,167.647446 234.438660,162.971817 
	C233.650314,161.410675 231.694412,160.439117 230.272232,159.198059 
	C229.904434,159.558395 229.536652,159.918747 229.168854,160.279099 
	C229.168854,171.674194 229.168854,183.069290 229.168854,194.805450 
	C230.924393,194.716888 232.318619,194.646545 234.131622,194.555084 
	C234.131622,188.195175 234.131622,182.174057 234.131622,176.152924 
	C234.388077,176.110397 234.644531,176.067871 234.900986,176.025345 
	C235.660583,177.806213 236.420181,179.587082 237.509018,182.049271 
M287.139130,132.677628 
	C287.980286,128.208237 291.008423,129.865143 293.556976,129.978546 
	C294.234528,132.709869 294.819489,135.067993 295.397797,137.399124 
	C297.357208,137.399124 298.956085,137.399124 301.176910,137.399124 
	C299.141357,127.325272 297.188263,117.620949 295.217560,107.920197 
	C293.945526,101.658600 293.933990,101.660942 287.093903,102.961945 
	C284.846924,114.292572 282.576813,125.739700 280.303070,137.205231 
	C284.365601,138.183411 287.024078,137.939514 287.139130,132.677628 
M137.835434,136.997910 
	C147.848419,140.070526 153.377411,135.117126 151.414352,124.717918 
	C149.695099,124.717918 147.971481,124.717918 146.126663,124.717918 
	C146.019684,126.708542 146.313507,128.513123 145.726578,129.960571 
	C145.217560,131.215881 143.723450,132.860657 142.641388,132.878021 
	C141.506714,132.896225 139.391541,131.223328 139.347702,130.217941 
	C139.051453,123.421204 139.045731,116.599037 139.347198,109.802902 
	C139.391953,108.794075 141.565796,107.119774 142.725510,107.144066 
	C143.786041,107.166275 145.163986,108.911209 145.743835,110.194405 
	C146.308365,111.443710 146.038025,113.070274 146.149414,114.761322 
	C148.095123,114.761322 149.833054,114.761322 151.833862,114.761322 
	C151.905777,113.765305 152.020264,112.970734 152.011459,112.177528 
	C151.937607,105.519791 149.388611,102.459587 143.604050,102.045860 
	C136.987839,101.572655 133.323669,104.222527 132.849518,110.862885 
	C132.401886,117.131798 132.453720,123.501022 133.070236,129.748718 
	C133.309006,132.168289 135.701935,134.375305 137.835434,136.997910 
M139.015182,70.080399 
	C139.015488,64.915985 138.726944,59.726692 139.168457,54.600273 
	C139.328918,52.737282 141.231308,51.024315 142.338913,49.242897 
	C143.534653,50.889957 144.893036,52.448475 145.858154,54.221096 
	C146.347443,55.119774 146.127243,56.404747 146.227005,57.506371 
	C148.311905,57.506371 150.038055,57.506371 151.745728,57.506371 
	C151.868805,56.664394 151.999634,56.175217 152.003036,55.685150 
	C152.053085,48.467503 149.652176,45.328316 143.796097,44.925110 
	C136.529251,44.424770 133.220154,47.026669 132.700684,54.456032 
	C132.318695,59.919193 132.360046,65.454750 132.755020,70.918854 
	C133.274826,78.109863 137.928619,81.810440 144.291870,80.677803 
	C150.554871,79.562996 153.084839,74.775871 151.283890,67.369659 
	C149.689178,67.369659 148.083282,67.369659 147.721817,67.369659 
	C145.794769,70.686340 144.291519,73.273582 142.788284,75.860825 
	C141.534271,74.231941 140.280258,72.603058 139.015182,70.080399 
M138.362762,159.641129 
	C131.455353,162.768814 130.049728,169.660080 135.290604,175.396942 
	C137.749817,178.088882 140.785736,180.292236 143.003723,183.149124 
	C144.019806,184.457901 143.908127,186.818466 143.830933,188.682297 
	C143.810287,189.180267 141.467651,190.231293 141.161133,189.954437 
	C139.915604,188.829300 139.001968,187.316162 138.064270,185.881836 
	C137.731888,185.373383 137.679626,184.681793 137.020309,182.456573 
	C135.016327,184.449249 132.621780,185.726410 132.600174,187.042511 
	C132.505722,192.794174 137.292587,196.006851 143.815643,195.104538 
	C148.681732,194.431427 151.993790,189.850037 150.460175,184.810730 
	C149.541733,181.792847 147.428085,179.036972 145.445709,176.477768 
	C143.944061,174.539185 141.442200,173.345428 140.063889,171.351303 
	C139.077454,169.924103 138.968231,167.717743 138.991409,165.865570 
	C138.998825,165.270767 141.336212,164.058563 141.487885,164.214935 
	C142.642975,165.405777 143.525101,166.862656 144.481644,168.244019 
	C144.755875,168.640030 144.995361,169.060120 145.432846,169.760727 
	C146.920074,169.409958 148.438126,169.051926 149.902954,168.706451 
	C149.181427,161.097778 146.588287,158.955063 138.362762,159.641129 
M285.183258,192.693558 
	C283.027069,181.811615 280.870911,170.929672 278.750854,160.230072 
	C271.859283,159.496841 271.860260,159.497055 270.634949,165.215759 
	C270.181946,167.330017 269.687317,169.436035 269.273865,171.557953 
	C267.794861,179.148331 266.342468,186.743912 264.845032,194.519180 
	C267.256378,194.519180 268.978912,194.519180 270.633698,194.519180 
	C271.304169,191.787689 271.889008,189.405090 272.419647,187.243210 
	C276.942078,185.995712 278.868958,187.390182 279.208801,191.897400 
	C279.480194,195.497009 281.739868,195.909515 285.183258,192.693558 
M202.728149,62.698921 
	C201.515976,56.879604 200.303818,51.060287 199.091446,45.240082 
	C196.603409,45.240082 194.500107,45.240082 192.148178,45.240082 
	C189.853653,56.870537 187.598679,68.300438 185.306458,79.919174 
	C188.553360,80.089417 191.756577,81.352905 191.837479,77.015541 
	C191.929596,72.077591 194.347229,71.116028 198.620239,72.471024 
	C199.186325,75.021416 199.746948,77.547112 200.338974,80.214340 
	C202.400452,80.101723 204.002441,80.014206 206.010635,79.904503 
	C204.919968,74.204231 203.899429,68.870392 202.728149,62.698921 
M258.929718,54.755791 
	C260.594147,54.566280 262.258606,54.376766 264.012299,54.177094 
	C263.309479,49.267605 262.026062,45.576122 257.080200,44.992085 
	C253.135361,44.526253 249.360077,44.876858 247.135254,48.910622 
	C245.042114,52.705627 245.978882,57.444653 249.627594,61.145702 
	C251.608170,63.154690 254.136780,64.761238 255.643753,67.057556 
	C256.953583,69.053467 257.247375,71.748772 257.758453,74.183647 
	C257.807190,74.415840 255.584900,75.486832 255.466049,75.336868 
	C254.051727,73.552551 252.837677,71.609634 251.567032,69.711044 
	C251.475357,69.574081 251.351776,69.458496 250.872864,68.905678 
	C249.465164,69.272690 247.814407,69.703079 245.925507,70.195549 
	C246.615631,74.483055 247.201920,78.273712 251.448044,79.918358 
	C255.718002,81.572250 259.690247,81.023140 262.763031,77.440865 
	C265.541595,74.201607 265.236969,68.402657 261.932709,64.549675 
	C259.568237,61.792534 256.478577,59.650898 254.163834,56.860264 
	C253.065933,55.536659 252.799301,53.356476 252.647751,51.523689 
	C252.606018,51.018692 254.994370,49.728165 255.145248,49.884106 
	C256.381927,51.162220 257.353149,52.697189 258.929718,54.755791 
M342.258362,133.045303 
	C345.861664,138.173981 351.335449,139.517654 355.965820,136.410156 
	C360.330627,133.480881 361.071381,127.120636 357.180145,122.262329 
	C354.808716,119.301575 351.558319,117.049553 349.145569,114.115105 
	C348.045868,112.777611 347.790253,110.577042 347.647949,108.729721 
	C347.607910,108.209976 349.969208,106.901962 350.135223,107.065552 
	C351.406921,108.318703 352.401154,109.851631 353.500549,111.283073 
	C353.693695,111.534515 353.975525,111.717827 354.537659,112.219040 
	C355.804871,111.977112 357.318909,111.688065 358.804474,111.404457 
	C357.928131,105.237656 356.548828,103.035278 352.744843,102.286903 
	C349.015228,101.553177 345.299164,101.790024 342.816681,105.224846 
	C340.311523,108.690979 340.512085,112.507286 342.596161,116.032341 
	C343.663818,117.838226 345.459045,119.223221 346.968170,120.756416 
	C348.711151,122.527206 350.910187,124.009865 352.132904,126.077820 
	C353.008453,127.558655 352.815369,129.818207 352.624115,131.681549 
	C352.575165,132.158417 350.135925,133.044952 349.809418,132.720947 
	C348.618317,131.538879 347.812897,129.949371 346.955750,128.459564 
	C346.647461,127.923752 346.603790,127.235710 346.383759,126.407951 
	C345.423859,126.540169 344.619690,126.582672 343.852783,126.774261 
	C342.946381,127.000710 342.072113,127.355919 340.933502,127.739716 
	C341.337921,129.443726 341.678406,130.878265 342.258362,133.045303 
M333.057526,188.107269 
	C335.470551,194.595932 340.481934,197.061081 346.245880,194.594772 
	C350.924316,192.592941 352.720917,186.553284 349.799683,181.325607 
	C348.539185,179.069962 346.446411,177.257156 344.626343,175.343399 
	C343.140900,173.781525 341.130371,172.593674 340.045105,170.817017 
	C339.208954,169.448151 339.174744,167.393799 339.351990,165.703842 
	C339.417145,165.082611 341.635132,163.963333 341.969269,164.224594 
	C343.156525,165.152939 344.002106,166.546371 344.877350,167.831573 
	C345.220734,168.335861 345.300812,169.019409 345.584778,169.874008 
	C347.320709,169.435837 348.867218,169.045486 352.013489,168.251328 
	C349.399750,164.962814 347.868195,161.606598 345.266357,160.105820 
	C341.597076,157.989319 337.408081,158.864182 334.458191,162.350861 
	C331.850708,165.432785 332.251984,171.503540 335.231873,174.820404 
	C338.108704,178.022583 341.477905,180.831223 344.000732,184.274429 
	C344.808105,185.376312 343.605316,187.951035 343.322266,189.851913 
	C341.785675,188.836960 340.127441,187.958511 338.767090,186.745865 
	C338.145325,186.191620 338.110535,184.978912 337.760803,183.916916 
	C335.307281,184.167603 332.569061,183.451416 333.057526,188.107269 
M184.158005,173.203918 
	C183.552689,172.635376 182.592896,172.162277 182.409241,171.480209 
	C181.880768,169.517395 181.513092,167.474854 181.450882,165.452316 
	C181.437744,165.025192 183.574768,164.009903 183.735153,164.182388 
	C184.975693,165.516449 185.974167,167.075623 187.046921,168.565613 
	C187.315247,168.938293 187.580948,169.312851 187.914444,169.779755 
	C189.410019,169.434250 190.828308,169.106598 192.206192,168.788284 
	C191.639130,162.322830 189.514114,159.546417 184.672119,159.271469 
	C181.056686,159.066177 177.486938,159.724030 175.811783,163.484055 
	C174.082169,167.366364 174.124649,171.343475 177.131256,174.680923 
	C179.907471,177.762604 183.157944,180.437302 185.750961,183.652969 
	C186.679031,184.803879 186.555450,187.042404 186.363647,188.721909 
	C186.299713,189.281647 184.085251,190.292160 183.621536,189.974823 
	C182.397202,189.137024 181.518356,187.735428 180.653625,186.455780 
	C180.215912,185.808060 180.106216,184.938690 179.865723,184.221695 
	C174.688202,184.307083 173.961929,185.231308 175.481522,189.572235 
	C177.106339,194.213730 180.616196,195.993439 186.358459,195.087463 
	C190.527435,194.429733 193.037979,191.151184 193.085617,186.542252 
	C193.149551,180.359955 188.739624,177.158463 184.158005,173.203918 
M295.737549,178.781998 
	C295.369324,179.905197 295.001068,181.028412 294.408173,182.836807 
	C293.147430,176.016815 291.863464,169.999344 290.972107,163.924271 
	C290.374420,159.850769 288.498840,158.977524 284.592743,160.598267 
	C286.559967,170.455154 288.713318,180.183411 290.366638,189.995941 
	C291.142151,194.598694 293.163269,195.929245 297.871826,194.272552 
	C300.116943,183.190887 302.414062,171.852646 304.785217,160.148834 
	C302.708649,160.148834 300.981110,160.148834 298.967010,160.148834 
	C297.917877,166.224030 296.902161,172.105713 295.737549,178.781998 
M329.705841,102.298225 
	C328.267181,102.406700 326.828522,102.515175 325.414124,102.621819 
	C325.414124,114.446259 325.414124,125.826241 325.414124,137.147202 
	C337.017975,138.975998 340.035187,138.173538 339.460266,133.315338 
	C337.092010,133.154266 334.676758,132.990005 332.068909,132.812653 
	C332.068909,129.086136 332.068909,125.682228 332.068909,122.269890 
	C334.430756,120.994652 340.069885,123.188698 337.520416,117.204178 
	C335.579193,116.981445 333.823853,116.780037 332.084869,116.580513 
	C332.084869,113.329323 332.084869,110.412277 332.084869,107.258949 
	C334.779144,107.101158 337.202148,106.959251 339.581757,106.819893 
	C340.548218,103.758423 340.072540,102.047791 336.620270,102.277351 
	C334.634430,102.409401 332.632538,102.299507 329.705841,102.298225 
M313.515198,159.831345 
	C311.379028,159.831345 309.242859,159.831345 306.895813,159.831345 
	C306.895813,171.660980 306.895813,183.052856 306.895813,194.867630 
	C311.168549,194.867630 315.140350,194.999298 319.090271,194.763794 
	C319.947571,194.712677 320.726349,193.344437 321.541290,192.582825 
	C320.663391,191.843582 319.875092,190.663315 318.887695,190.462646 
	C317.164490,190.112411 315.318726,190.365082 313.308044,190.365082 
	C313.308044,186.324387 313.308044,182.755280 313.308044,179.217041 
	C319.801270,178.562256 319.801270,178.562256 318.969452,174.322601 
	C317.117737,174.169220 315.213257,174.011475 313.449951,173.865402 
	C313.449951,170.403961 313.449951,167.369965 313.449951,164.374298 
	C316.309235,164.197952 318.733429,164.048431 321.499939,163.877808 
	C321.451721,157.551147 316.826904,160.754700 313.515198,159.831345 
M221.347961,159.831375 
	C218.400238,159.831375 215.452530,159.831375 212.249695,159.831375 
	C212.249695,171.667648 212.249695,183.023300 212.249695,194.626328 
	C217.109634,194.626328 221.682968,194.626328 226.689682,194.626328 
	C227.457077,187.192581 220.245316,192.502945 218.840469,189.447037 
	C218.840469,185.969955 218.840469,182.588409 218.840469,179.203461 
	C221.041473,178.949173 222.811737,178.744659 224.510330,178.548416 
	C226.644501,171.909424 220.354279,175.361465 218.405365,172.958771 
	C218.405365,171.687302 218.548584,170.023392 218.375107,168.393188 
	C218.029663,165.147018 219.296799,163.951630 222.595673,164.047821 
	C223.961151,164.087646 225.365738,162.785370 226.752548,162.093475 
	C225.263275,161.339417 223.773987,160.585358 221.347961,159.831375 
M275.173615,62.500038 
	C275.173615,68.256599 275.173615,74.013153 275.173615,79.937103 
	C280.425720,79.937103 285.002716,79.937103 290.066956,79.937103 
	C290.337250,72.989540 284.006287,77.630432 282.297363,75.133644 
	C282.297363,71.506729 282.297363,67.956085 282.297363,64.450645 
	C288.579102,63.961979 288.579102,63.961979 287.495667,60.036182 
	C285.738800,59.839142 283.981903,59.642101 282.260468,59.449036 
	C282.260468,56.068958 282.260468,53.018524 282.260468,50.475273 
	C284.848541,48.378098 290.938232,52.174679 289.840515,45.316559 
	C284.697754,45.316559 280.136230,45.316559 275.173187,45.316559 
	C275.173187,50.937908 275.173187,56.219711 275.173615,62.500038 
M230.086853,47.772110 
	C230.086853,58.377754 230.086853,68.983398 230.086853,79.483665 
	C240.844757,81.540764 244.884384,80.574089 244.441589,76.045982 
	C242.061432,75.884026 239.642334,75.719421 237.114410,75.547417 
	C237.114410,71.663025 237.114410,68.121353 237.114410,64.467659 
	C239.233414,64.248680 240.991837,64.066971 242.677612,63.892761 
	C244.364975,57.810722 239.001953,60.878471 237.066589,59.011749 
	C237.066589,56.240910 237.066589,53.196167 237.066589,50.965744 
	C239.327774,47.971977 245.903473,52.520947 244.709518,44.988464 
	C240.409073,44.988464 236.436035,44.887192 232.476349,45.071983 
	C231.662247,45.109978 230.898010,46.216629 230.086853,47.772110 
M260.377319,159.831390 
	C256.464935,159.831390 252.552567,159.831390 248.935715,159.831390 
	C246.836197,165.881607 251.965347,163.972900 254.272552,165.471878 
	C254.272552,175.218369 254.272552,184.929932 254.272552,194.605911 
	C256.545807,194.605911 258.311981,194.605911 260.641602,194.605911 
	C260.641602,184.644043 260.641602,174.931030 260.641602,165.198975 
	C263.573669,164.343369 268.046051,165.123657 265.081024,159.831451 
	C263.946503,159.831451 262.638580,159.831451 260.377319,159.831390 
M194.106033,164.483047 
	C197.857376,164.182571 198.769623,166.018784 198.661118,169.560913 
	C198.408203,177.817673 198.580429,186.087479 198.580429,194.501373 
	C201.008743,194.501373 202.866318,194.501373 205.178665,194.501373 
	C205.178665,184.433609 205.178665,174.724167 205.178665,164.959824 
	C208.313705,164.486649 212.232437,165.023178 209.901550,159.836761 
	C205.406265,159.836761 200.935364,159.987411 196.480118,159.788162 
	C193.038437,159.634247 192.448578,161.158112 194.106033,164.483047 
M249.974960,125.484291 
	C249.974960,129.408798 249.974960,133.333298 249.974960,137.264191 
	C252.395599,137.264191 254.122177,137.264191 255.822876,137.264191 
	C255.822876,125.523758 255.822876,114.153076 255.822876,102.734344 
	C253.723740,102.734344 251.997177,102.734344 249.974030,102.734344 
	C249.974030,110.226364 249.974030,117.357430 249.974960,125.484291 
M154.971039,47.763859 
	C154.971039,58.492821 154.971039,69.221786 154.971039,80.188049 
	C157.387238,80.082291 158.999420,80.011726 160.873840,79.929688 
	C160.873840,68.273407 160.873840,56.889633 160.873840,44.152042 
	C158.498672,45.231144 156.743958,46.028358 154.971039,47.763859 
M329.962402,173.508469 
	C329.962402,169.065979 329.962402,164.623505 329.962402,160.191956 
	C327.582703,160.191956 325.843201,160.191956 324.147125,160.191956 
	C324.147125,171.898193 324.147125,183.257294 324.147125,194.600418 
	C326.215485,194.600418 327.820312,194.600418 329.962341,194.600418 
	C329.962341,187.736984 329.962341,181.120911 329.962402,173.508469 
M280.938354,149.290009 
	C275.557648,148.521805 274.861023,149.286194 274.224548,157.021240 
	C279.098145,157.128586 279.065491,152.563339 280.938354,149.290009 
z"/>
<path fill="#FFFEFC" opacity="1.000000" stroke="none" 
	d="
M188.386322,303.999939 
	C188.384537,280.011719 188.470581,256.522888 188.303513,233.035843 
	C188.271896,228.591476 189.416733,226.949982 194.195587,227.027145 
	C211.848801,227.312241 229.510590,227.251434 247.166321,227.059174 
	C251.353317,227.013596 253.000595,227.960175 252.991226,232.560257 
	C252.854095,299.859558 252.852875,367.159332 252.993103,434.458618 
	C253.002777,439.098145 251.285889,439.979523 247.142090,439.936829 
	C229.486145,439.754974 211.824387,439.684662 194.171310,439.974152 
	C189.354126,440.053192 188.295563,438.339752 188.308105,433.934753 
	C188.430908,390.790100 188.384628,347.644958 188.386322,303.999939 
M199.088104,402.886200 
	C199.089401,406.527344 198.920242,410.181580 199.197388,413.801605 
	C199.278992,414.867676 200.568542,416.657898 201.398483,416.713470 
	C205.772400,417.006561 210.176392,416.850769 214.557556,416.850769 
	C214.557556,410.676300 214.557556,405.315918 214.557556,399.402130 
	C209.935516,399.402130 205.665146,399.268707 201.417282,399.518311 
	C200.598984,399.566376 199.868912,401.116150 199.088104,402.886200 
M211.228561,380.877686 
	C212.433273,380.321594 214.640854,379.831299 214.682327,379.198914 
	C214.984848,374.587799 215.818329,369.612030 214.382324,365.482269 
	C213.805435,363.823212 207.961548,363.681305 204.478424,363.479919 
	C202.741180,363.379486 199.461456,364.558807 199.379456,365.402283 
	C198.893219,370.404083 199.139481,375.477020 199.139481,380.878418 
	C203.391129,380.878418 206.844040,380.878418 211.228561,380.877686 
M212.191589,344.999176 
	C213.086166,344.286591 214.719345,343.609375 214.755432,342.855682 
	C214.989319,337.972015 214.875320,333.071655 214.875320,328.214844 
	C209.258514,328.214844 204.391861,328.214844 199.510132,328.214844 
	C199.510132,333.936829 199.510132,339.281464 199.510132,345.004883 
	C203.692444,345.004883 207.472137,345.004883 212.191589,344.999176 
M199.104233,265.452759 
	C199.104233,267.862122 199.104233,270.271484 199.104233,272.628357 
	C204.775146,272.628357 209.643814,272.628357 214.507706,272.628357 
	C214.507706,266.884857 214.507706,261.526733 214.507706,256.240509 
	C209.226959,256.240509 204.356613,256.240509 199.105164,256.240509 
	C199.105164,259.245239 199.105164,261.868805 199.104233,265.452759 
M214.042633,308.742157 
	C214.427155,303.276367 214.811691,297.810577 215.207855,292.179443 
	C209.341858,292.179443 204.470215,292.179443 199.459473,292.179443 
	C199.459473,297.872070 199.459473,303.229126 199.459473,308.964722 
	C204.251816,308.964722 208.694336,308.964722 214.042633,308.742157 
M238.245087,399.366150 
	C234.625977,399.366150 231.006851,399.366150 227.257874,399.366150 
	C227.257874,405.483246 227.257874,410.996429 227.257874,416.479187 
	C232.419693,416.479187 237.147995,416.479187 242.238083,416.479187 
	C242.238083,411.460510 242.414413,406.806488 242.098709,402.186066 
	C242.030380,401.186127 240.193115,400.307037 238.245087,399.366150 
M237.313324,363.365021 
	C233.920181,363.365021 230.527023,363.365021 227.229218,363.365021 
	C227.229218,369.693146 227.229218,375.082092 227.229218,380.503601 
	C232.362274,380.503601 237.090363,380.503601 242.246796,380.503601 
	C242.246796,375.852234 242.076553,371.540680 242.303314,367.250153 
	C242.469971,364.096802 241.188919,362.999908 237.313324,363.365021 
M242.229736,263.518219 
	C242.229736,261.094788 242.229736,258.671356 242.229736,256.179321 
	C236.763168,256.179321 232.033920,256.179321 227.210831,256.179321 
	C227.210831,261.878723 227.210831,267.253876 227.210831,272.683777 
	C232.311630,272.683777 237.045059,272.683777 242.229950,272.683777 
	C242.229950,269.749146 242.229950,267.121246 242.229736,263.518219 
M231.621338,308.995453 
	C235.048096,308.995453 238.474854,308.995453 241.801132,308.995453 
	C241.801132,302.884857 241.801132,297.502655 241.801132,292.243042 
	C236.633759,292.243042 231.902908,292.243042 226.850052,292.243042 
	C226.850052,296.929688 227.014786,301.244354 226.794373,305.539276 
	C226.637390,308.598114 228.053604,309.321228 231.621338,308.995453 
M226.847397,333.574402 
	C226.847397,337.302429 226.847397,341.030426 226.847397,344.586304 
	C232.482605,344.586304 237.205643,344.586304 241.951019,344.586304 
	C241.951019,338.922302 241.951019,333.671570 241.951019,328.142395 
	C236.949646,328.142395 232.223892,328.142395 227.159210,328.142395 
	C227.048477,329.724884 226.947754,331.164124 226.847397,333.574402 
z"/>
<path fill="#FFFBF7" opacity="1.000000" stroke="none" 
	d="
M292.500366,304.479736 
	C302.954315,291.255493 313.184753,278.310089 323.415192,265.364685 
	C323.925262,265.565521 324.435333,265.766357 324.945435,265.967224 
	C325.178436,267.653931 325.614014,269.340485 325.615112,271.027344 
	C325.650848,325.663666 325.613739,380.300079 325.710999,434.936249 
	C325.717834,438.787842 324.679962,440.149841 320.627380,440.104279 
	C302.473114,439.899963 284.314056,439.908447 266.159485,440.098999 
	C262.180756,440.140747 261.016174,438.923096 261.035797,434.974731 
	C261.179657,405.991547 261.050049,377.006897 261.232910,348.024109 
	C261.248016,345.632385 262.437775,342.870087 263.926483,340.927246 
	C273.243073,328.768677 282.799713,316.794067 292.500366,304.479736 
M290.345184,346.444397 
	C290.345184,339.304901 290.345184,332.165405 290.345184,325.025940 
	C289.632294,324.815704 288.919434,324.605438 288.206543,324.395203 
	C281.923004,332.430725 275.428497,340.315308 269.500122,348.604797 
	C267.963593,350.753296 269.008118,353.501343 272.785309,353.383942 
	C276.608063,353.265106 280.465668,353.069031 284.256866,353.435669 
	C288.989807,353.893372 291.191376,352.350647 290.345184,346.444397 
M315.034485,353.606049 
	C316.092957,352.650757 317.958252,351.776825 318.064240,350.725525 
	C318.438416,347.013916 318.209869,343.241577 318.209869,339.000000 
	C314.079437,339.000000 310.641174,339.000000 307.202911,339.000000 
	C296.488617,339.000000 296.615509,338.995789 296.968536,349.641632 
	C297.073639,352.811005 298.439148,353.661774 301.197083,353.628479 
	C305.502258,353.576508 309.808594,353.617554 315.034485,353.606049 
M290.297394,408.611816 
	C291.248810,403.405884 288.920715,401.687042 283.937134,402.323395 
	C281.477783,402.637451 278.945190,402.376221 276.445740,402.378235 
	C269.088409,402.384155 269.088379,402.384705 269.088806,409.655914 
	C269.089233,416.998505 269.089264,416.998627 276.249176,416.999969 
	C278.415375,417.000366 280.581696,417.017242 282.747711,416.996887 
	C290.868835,416.920624 290.256226,418.104706 290.297394,408.611816 
M297.045044,389.428589 
	C297.080292,395.845490 297.080292,395.845886 303.660675,395.852081 
	C305.493469,395.853790 307.326416,395.868805 309.158997,395.849609 
	C319.358459,395.742767 317.963928,397.120361 318.313232,386.822906 
	C318.457581,382.566589 317.367737,380.569489 312.789551,381.089142 
	C309.993134,381.406586 307.131256,381.147034 304.298798,381.147797 
	C297.053467,381.149750 297.053467,381.149994 297.045044,389.428589 
M275.680969,381.147705 
	C269.095856,381.177216 269.067139,381.177338 269.095276,387.614349 
	C269.135620,396.829224 268.109375,395.787354 277.418091,395.850739 
	C279.084229,395.862061 280.750488,395.852539 282.416687,395.852356 
	C290.303925,395.851471 290.303925,395.851410 290.297516,388.105408 
	C290.291748,381.150818 290.291748,381.150604 283.129150,381.147797 
	C280.963104,381.146942 278.797028,381.147766 275.680969,381.147705 
M317.698822,361.056946 
	C311.622681,360.775299 305.547577,360.394440 299.469238,360.333008 
	C298.677521,360.324982 297.349884,361.855927 297.148773,362.851471 
	C295.114410,372.922058 296.694275,375.027039 306.610687,374.809265 
	C319.776794,374.520142 318.342072,378.062592 317.698822,361.056946 
M279.508728,374.852295 
	C291.417603,374.852509 291.417450,374.852509 290.288757,363.569305 
	C290.272247,363.404358 290.347229,363.163544 290.261658,363.082306 
	C289.220886,362.094666 288.205048,360.360565 287.092682,360.292572 
	C282.125549,359.988831 277.121674,360.018555 272.149567,360.279785 
	C271.102661,360.334808 269.472717,361.717529 269.231598,362.750031 
	C266.972778,372.422852 268.917694,374.852448 279.508728,374.852295 
M314.281738,416.983826 
	C315.580505,416.144714 317.971558,415.328613 317.989807,414.462555 
	C318.070557,410.628540 317.494049,406.777222 317.034485,402.946686 
	C317.014160,402.777252 315.810791,402.671509 315.157928,402.668640 
	C310.183746,402.646576 305.205811,402.557983 300.238098,402.738678 
	C299.194305,402.776642 297.341797,403.792389 297.303589,404.442322 
	C297.081177,408.226044 296.567047,412.282349 297.738892,415.702698 
	C298.154480,416.915802 303.018402,416.730042 305.869507,416.945648 
	C308.342529,417.132660 310.840912,416.984467 314.281738,416.983826 
M318.211945,327.423706 
	C318.213593,318.015472 318.213593,318.015472 308.718872,318.015472 
	C308.057037,318.015472 307.394897,318.001312 306.733459,318.017609 
	C295.832306,318.286224 297.209778,315.771423 297.028381,328.254333 
	C296.989594,330.922638 297.790619,332.239685 300.674316,332.156982 
	C305.303253,332.024200 309.943207,332.000641 314.569977,332.167755 
	C317.432068,332.271149 318.519409,331.104431 318.211945,327.423706 
M302.047699,310.980743 
	C307.304352,310.980743 312.561035,310.980743 317.666901,310.980743 
	C317.666901,303.140289 317.666901,296.134125 317.666901,288.813568 
	C316.482758,289.126923 315.620819,289.084534 315.295044,289.481781 
	C310.333099,295.533081 305.390259,301.602631 300.619293,307.803558 
	C300.185974,308.366730 300.962677,309.860901 302.047699,310.980743 
z"/>
<path fill="#FFFDFC" opacity="1.000000" stroke="none" 
	d="
M55.005348,98.000000 
	C55.005348,111.130196 55.005348,123.760399 55.005348,136.696350 
	C49.087231,136.696350 43.525921,136.696350 37.426262,136.696350 
	C37.426262,112.497444 37.426262,88.418335 37.426262,63.510460 
	C32.732449,65.133125 28.757519,66.507271 24.148188,68.100731 
	C24.148188,64.204277 23.949921,60.756977 24.257416,57.355392 
	C24.362808,56.189499 25.502562,54.771252 26.567760,54.098164 
	C31.055222,51.262585 35.429920,47.895706 40.354816,46.211098 
	C44.699909,44.724819 49.720448,45.213196 54.672699,44.810966 
	C54.890160,47.506004 55.046761,49.446774 55.274364,52.267483 
	C62.326668,47.095646 69.376846,42.726566 78.663147,45.881371 
	C78.663147,75.778557 78.663147,106.127075 78.663147,136.741333 
	C73.169861,136.741333 67.735069,136.741333 61.554199,136.741333 
	C61.554199,112.590050 61.554199,88.414772 61.554199,64.219391 
	C56.578594,64.208588 54.715668,65.888313 54.900505,70.518555 
	C55.259022,79.499451 55.005352,88.504791 55.005348,98.000000 
z"/>
<path fill="#FFFDFB" opacity="1.000000" stroke="none" 
	d="
M332.789612,407.000000 
	C332.789368,395.878540 332.789368,385.257080 332.789368,374.319580 
	C354.767731,374.319580 376.176117,374.319580 398.053711,374.319580 
	C398.053711,396.067566 398.053711,417.768280 398.053711,439.770721 
	C396.608337,439.910065 395.325378,440.139923 394.042145,440.141510 
	C375.215240,440.164642 356.387512,440.068695 337.562012,440.233734 
	C333.894257,440.265900 332.603271,439.301208 332.706940,435.488251 
	C332.960480,426.164978 332.789795,416.830170 332.789612,407.000000 
M373.805237,416.999512 
	C379.395447,416.999512 384.985657,416.999512 390.877502,416.999512 
	C390.976166,414.752655 391.089539,413.131470 391.109253,411.509125 
	C391.143127,408.716217 391.118622,405.922607 391.118622,402.386108 
	C386.849792,402.386108 383.071777,402.386108 379.293732,402.386108 
	C368.667328,402.386108 367.739227,403.380249 369.468628,414.032806 
	C369.654144,415.175476 371.695374,416.016876 373.805237,416.999512 
M371.976715,395.983398 
	C374.960938,395.988861 377.945160,395.998535 380.929382,395.999023 
	C391.950714,396.000885 391.862488,396.005127 391.180939,384.831604 
	C391.021301,382.214386 390.028778,381.340210 387.585114,381.375061 
	C382.778168,381.443665 377.966736,381.305603 373.163544,381.456543 
	C371.999268,381.493103 369.845703,382.368042 369.864807,382.777313 
	C370.069244,387.157440 370.619110,391.521454 371.976715,395.983398 
M347.555847,381.619537 
	C345.472839,381.714691 343.389862,381.809814 341.417633,381.899902 
	C339.531158,395.999786 339.531158,395.999786 352.679504,395.999786 
	C353.510559,395.999786 354.341583,395.999847 355.172638,395.999756 
	C362.742950,395.998962 362.742950,395.998962 362.737976,388.497314 
	C362.733459,381.626007 362.733459,381.625458 356.020355,381.619995 
	C353.527222,381.617981 351.034119,381.619232 347.555847,381.619537 
M340.912598,413.306671 
	C340.742889,415.568604 341.164124,417.126129 344.048889,417.038971 
	C349.173218,416.884216 354.314240,417.153076 359.427795,416.871796 
	C360.561462,416.809418 362.396057,415.311951 362.547577,414.276215 
	C362.974030,411.361603 362.876862,408.324890 362.583130,405.376465 
	C362.487366,404.415131 361.175629,402.828369 360.377441,402.801697 
	C354.016907,402.589172 347.646118,402.683167 340.910919,402.683167 
	C340.910919,406.452789 340.910919,409.406219 340.912598,413.306671 
z"/>
<path fill="#FFFDFB" opacity="1.000000" stroke="none" 
	d="
M156.409973,407.601929 
	C150.418625,407.189545 144.764618,407.205170 139.121445,406.965790 
	C135.983414,406.832703 135.088745,408.211792 135.121246,411.125519 
	C135.225113,420.435059 135.159790,429.746460 135.159790,439.813782 
	C128.477051,439.813782 122.058434,439.950043 115.659882,439.653442 
	C114.790894,439.613159 113.326035,437.412689 113.313118,436.199890 
	C113.151802,421.054657 113.232445,405.907074 113.185280,390.760284 
	C113.176765,388.026367 114.236580,386.943298 117.050400,386.954437 
	C136.691193,387.032379 156.332581,387.031921 175.973389,386.954865 
	C178.774948,386.943848 179.863358,388.005676 179.855042,390.748718 
	C179.809052,405.895538 179.913452,421.043701 179.685562,436.187225 
	C179.666931,437.425964 177.606415,439.617828 176.395889,439.689087 
	C170.272614,440.049683 164.116638,439.855042 156.751831,439.855042 
	C156.751831,429.028473 156.751831,418.475922 156.409973,407.601929 
z"/>
<path fill="#FFFEFD" opacity="1.000000" stroke="none" 
	d="
M131.001968,381.152405 
	C125.078133,381.152466 119.653862,381.152466 114.229584,381.152466 
	C113.910454,380.675079 113.591324,380.197693 113.272194,379.720306 
	C124.120041,365.477661 134.967880,351.234985 146.489059,336.108246 
	C158.192780,351.276367 169.184402,365.521606 180.176010,379.766815 
	C179.983231,380.228668 179.790466,380.690491 179.597687,381.152344 
	C163.565628,381.152344 147.533585,381.152344 131.001968,381.152405 
z"/>
<path fill="#FFFFFF" opacity="1.000000" stroke="none" 
	d="
M344.023071,354.000977 
	C362.140533,354.000977 379.760956,354.000977 397.804749,354.000977 
	C397.804749,359.031708 397.804749,363.720245 397.804749,368.706726 
	C376.275208,368.706726 354.902985,368.706726 333.204529,368.706726 
	C333.204529,363.914978 333.204529,359.339478 333.204529,354.000977 
	C336.680145,354.000977 340.103088,354.000977 344.023071,354.000977 
z"/>
<path fill="#FFF9F2" opacity="1.000000" stroke="none" 
	d="
M197.090485,136.377136 
	C197.002106,130.512848 197.002106,125.072189 197.002106,119.631531 
	C196.462585,119.588333 195.923065,119.545143 195.383530,119.501945 
	C194.333603,124.330933 193.397461,129.189346 192.160416,133.969925 
	C191.815384,135.303314 190.581238,136.406616 189.754974,137.615448 
	C188.794159,136.335770 187.352524,135.187515 186.960342,133.752441 
	C185.645889,128.942703 184.706131,124.030571 183.622925,119.157639 
	C183.204514,119.211006 182.786118,119.264374 182.367722,119.317741 
	C182.367722,125.150345 182.367722,130.982956 182.367722,136.948257 
	C179.666641,137.622177 177.219559,138.883423 177.205826,134.805893 
	C177.170074,124.192192 177.193802,113.578293 177.193802,102.655701 
	C180.238449,102.655701 182.155884,102.655701 184.561462,102.655701 
	C186.088348,109.856979 187.625320,117.105865 189.162277,124.354744 
	C189.384964,124.387482 189.607651,124.420219 189.830338,124.452957 
	C191.115280,118.661942 192.765411,112.921028 193.568954,107.063965 
	C194.204987,102.427795 196.430756,101.611374 201.090942,102.885452 
	C201.090942,114.033997 201.090942,125.410248 201.090942,137.463242 
	C200.060150,137.288681 198.619507,137.044708 197.090485,136.377136 
z"/>
<path fill="#FFFAF5" opacity="1.000000" stroke="none" 
	d="
M154.532532,108.963882 
	C157.002060,103.213364 160.654877,101.220741 166.557037,102.130409 
	C171.658951,102.916725 174.082413,106.149155 174.169983,111.085907 
	C174.281754,117.388084 174.509430,123.727043 173.978912,129.990158 
	C173.507095,135.560074 170.138214,137.961838 164.430420,138.004654 
	C158.727036,138.047455 155.127182,135.743256 154.630859,130.253738 
	C154.005737,123.339508 154.433640,116.330078 154.532532,108.963882 
M160.805893,116.579544 
	C160.829559,120.879936 160.609894,125.203964 161.024033,129.466415 
	C161.149521,130.758179 163.059982,132.862213 164.095505,132.828583 
	C165.370010,132.787186 167.599075,130.950089 167.657440,129.799927 
	C167.992035,123.205170 167.977814,116.574669 167.622910,109.981003 
	C167.564728,108.900177 165.312180,107.345726 163.913193,107.148277 
	C163.058990,107.027718 161.402390,108.923996 160.997894,110.197639 
	C160.471039,111.856529 160.828293,113.796204 160.805893,116.579544 
z"/>
<path fill="#FFFCF8" opacity="1.000000" stroke="none" 
	d="
M240.513245,120.047211 
	C240.864655,114.358276 240.864655,108.724922 240.864655,102.702858 
	C242.647202,102.597923 244.038177,102.516045 245.800491,102.412300 
	C245.800491,114.162163 245.800491,125.538734 245.800491,137.037979 
	C242.947113,138.481903 241.719666,137.107773 240.723068,134.494904 
	C238.873337,129.645294 236.756119,124.897713 234.750290,120.107651 
	C234.343750,120.201935 233.937210,120.296219 233.530670,120.390503 
	C233.530670,125.928749 233.530670,131.466980 233.530670,137.293167 
	C231.562622,137.431442 230.141479,137.531296 228.330490,137.658539 
	C228.330490,125.961105 228.330490,114.575516 228.330490,101.500168 
	C230.484985,102.987976 232.649933,103.699776 233.404099,105.146835 
	C235.928467,109.990509 237.948608,115.096977 240.513245,120.047211 
z"/>
<path fill="#FFF8F0" opacity="1.000000" stroke="none" 
	d="
M209.365860,136.960510 
	C207.720306,134.753265 205.427460,132.751602 205.335587,130.653580 
	C204.930817,121.410713 205.160767,112.140053 205.160767,102.642563 
	C207.196320,102.642563 208.922333,102.642563 211.129944,102.642563 
	C211.129944,109.719482 211.126480,116.499046 211.132416,123.278603 
	C211.133881,124.940880 210.689896,126.811386 211.303024,128.213425 
	C212.094604,130.023529 213.742737,131.459045 215.022018,133.055862 
	C216.103073,131.476791 218.032257,129.942307 218.117981,128.310928 
	C218.483963,121.346146 218.294037,114.352692 218.334793,107.369858 
	C218.343353,105.904602 218.469818,104.440033 218.557281,102.663742 
	C220.543564,102.663742 222.287689,102.663742 224.092575,102.663742 
	C224.092575,112.365814 224.677185,122.114380 223.874084,131.747253 
	C223.389603,137.558365 217.714050,139.232956 209.365860,136.960510 
z"/>
<path fill="#FFFDFA" opacity="1.000000" stroke="none" 
	d="
M322.175110,122.920296 
	C322.142456,125.066322 322.188446,126.734787 322.063263,128.390320 
	C321.651733,133.833527 319.283783,136.472885 313.754456,137.168228 
	C310.354431,137.595795 306.892731,137.533279 303.183044,137.703476 
	C303.183044,125.693718 303.183044,114.312340 303.183044,102.159370 
	C307.725067,102.504326 312.027161,102.505020 316.197876,103.245544 
	C319.883331,103.899918 321.745270,106.812065 321.959717,110.469353 
	C322.193115,114.449036 322.116669,118.446884 322.175110,122.920296 
M309.109985,120.495880 
	C309.109985,124.579216 309.109985,128.662552 309.109985,132.659393 
	C313.937256,133.550735 315.774261,131.524643 315.847412,127.657089 
	C315.944946,122.500931 315.962158,117.339142 315.835327,112.184158 
	C315.733459,108.043861 313.785126,106.109451 309.110077,107.512726 
	C309.110077,111.565880 309.110077,115.535439 309.109985,120.495880 
z"/>
<path fill="#FFFDFA" opacity="1.000000" stroke="none" 
	d="
M279.159485,127.632103 
	C278.217865,134.552109 276.380157,136.585220 270.110291,137.264359 
	C267.014313,137.599747 263.851990,137.322601 260.338135,137.322601 
	C260.338135,125.881813 260.338135,114.492668 260.338135,102.204842 
	C264.698975,102.539200 269.164307,102.484039 273.452759,103.327805 
	C277.348450,104.094284 279.006256,107.333023 279.080475,111.196053 
	C279.182800,116.521706 279.153046,121.849907 279.159485,127.632103 
M270.837128,107.426186 
	C269.431824,107.280128 268.026520,107.134064 266.378601,106.962784 
	C266.378601,115.868317 266.378601,124.248131 266.378601,134.101578 
	C268.935028,132.523315 272.133209,131.487213 272.157074,130.382629 
	C272.318268,122.911736 271.808136,115.426361 270.837128,107.426186 
z"/>
<path fill="#FFF9F2" opacity="1.000000" stroke="none" 
	d="
M158.873886,164.215408 
	C158.877853,171.503769 158.659943,178.329224 159.036301,185.121765 
	C159.134338,186.891281 160.868103,189.789978 162.228027,190.029800 
	C165.636871,190.630936 165.951111,187.555023 165.967575,184.979919 
	C166.019547,176.856995 165.986740,168.733536 165.986740,160.108505 
	C167.999786,160.006226 169.717239,159.918961 171.783615,159.813965 
	C171.783615,169.683548 172.157349,179.266602 171.622253,188.798615 
	C171.363770,193.402969 167.657394,195.163422 161.885162,195.152771 
	C157.114166,195.143967 153.300339,193.302750 153.059219,188.341827 
	C152.610062,179.100464 152.930298,169.821701 152.930298,160.214691 
	C155.673264,159.941498 159.248383,158.050598 158.873886,164.215408 
z"/>
<path fill="#FFFEFC" opacity="1.000000" stroke="none" 
	d="
M164.937515,74.891792 
	C164.937469,64.804756 164.937469,55.207569 164.937469,45.329483 
	C166.214264,45.195526 167.154953,45.024876 168.098312,45.008644 
	C182.522614,44.760475 184.201019,46.392712 184.191147,60.670918 
	C184.188736,64.155914 184.269089,67.649452 184.059860,71.123909 
	C183.722809,76.721375 180.850189,79.659233 175.339203,80.005783 
	C172.073654,80.211136 168.784653,80.043358 165.215347,80.043358 
	C165.109848,78.272972 165.023697,76.827309 164.937515,74.891792 
M171.247040,74.714951 
	C175.373001,76.358055 177.590225,75.266586 177.802292,70.976212 
	C178.073181,65.496040 177.991394,59.989101 177.834778,54.500172 
	C177.716095,50.341034 175.439758,49.022678 171.142303,50.444073 
	C171.142303,58.266235 171.142303,66.063774 171.247040,74.714951 
z"/>
<path fill="#FFFEFC" opacity="1.000000" stroke="none" 
	d="
M227.155746,64.927147 
	C227.116882,67.401299 227.190781,69.400337 227.017502,71.377731 
	C226.555908,76.645317 223.698059,79.626320 218.520309,79.985344 
	C215.239487,80.212837 211.930069,80.027847 208.272430,80.027847 
	C208.272430,68.497009 208.272430,57.135872 208.272430,45.459236 
	C212.161911,45.459236 216.256989,45.081715 220.249161,45.561146 
	C224.590347,46.082493 226.831894,49.140900 227.005951,53.500809 
	C227.151413,57.144115 227.112885,60.794769 227.155746,64.927147 
M220.883957,66.324554 
	C220.872665,62.495743 220.942291,58.664532 220.828644,54.838760 
	C220.700089,50.511341 218.568298,48.963123 214.501282,50.325119 
	C214.501282,58.934113 214.501282,67.289803 214.501282,75.716263 
	C221.430756,76.047791 220.831757,71.424606 220.883957,66.324554 
z"/>
<path fill="#FFFDFC" opacity="1.000000" stroke="none" 
	d="
M237.344406,181.708618 
	C236.420181,179.587082 235.660583,177.806213 234.900986,176.025345 
	C234.644531,176.067871 234.388077,176.110397 234.131622,176.152924 
	C234.131622,182.174057 234.131622,188.195175 234.131622,194.555084 
	C232.318619,194.646545 230.924393,194.716888 229.168854,194.805450 
	C229.168854,183.069290 229.168854,171.674194 229.168854,160.279099 
	C229.536652,159.918747 229.904434,159.558395 230.272232,159.198059 
	C231.694412,160.439117 233.650314,161.410675 234.438660,162.971817 
	C236.799789,167.647446 238.704407,172.553589 241.677887,177.194168 
	C241.677887,171.673599 241.677887,166.153046 241.677887,160.287445 
	C243.482010,160.093124 244.883453,159.942169 246.661072,159.750702 
	C246.661072,171.479034 246.661072,182.890457 246.661072,194.296921 
	C242.171967,195.285461 243.668488,196.731644 237.344406,181.708618 
z"/>
<path fill="#FFF8F0" opacity="1.000000" stroke="none" 
	d="
M287.086914,133.092422 
	C287.024078,137.939514 284.365601,138.183411 280.303070,137.205231 
	C282.576813,125.739700 284.846924,114.292572 287.093903,102.961945 
	C293.933990,101.660942 293.945526,101.658600 295.217560,107.920197 
	C297.188263,117.620949 299.141357,127.325272 301.176910,137.399124 
	C298.956085,137.399124 297.357208,137.399124 295.397797,137.399124 
	C294.819489,135.067993 294.234528,132.709869 293.556976,129.978546 
	C291.008423,129.865143 287.980286,128.208237 287.086914,133.092422 
M289.469208,118.185486 
	C288.386566,125.181244 288.386566,125.181244 293.037323,124.372749 
	C292.332642,120.524971 291.630096,116.689003 290.927551,112.853035 
	C290.713379,112.886047 290.499176,112.919052 290.285004,112.952065 
	C290.083771,114.430420 289.882538,115.908783 289.469208,118.185486 
z"/>
<path fill="#FFFCF8" opacity="1.000000" stroke="none" 
	d="
M137.474472,136.838531 
	C135.701935,134.375305 133.309006,132.168289 133.070236,129.748718 
	C132.453720,123.501022 132.401886,117.131798 132.849518,110.862885 
	C133.323669,104.222527 136.987839,101.572655 143.604050,102.045860 
	C149.388611,102.459587 151.937607,105.519791 152.011459,112.177528 
	C152.020264,112.970734 151.905777,113.765305 151.833862,114.761322 
	C149.833054,114.761322 148.095123,114.761322 146.149414,114.761322 
	C146.038025,113.070274 146.308365,111.443710 145.743835,110.194405 
	C145.163986,108.911209 143.786041,107.166275 142.725510,107.144066 
	C141.565796,107.119774 139.391953,108.794075 139.347198,109.802902 
	C139.045731,116.599037 139.051453,123.421204 139.347702,130.217941 
	C139.391541,131.223328 141.506714,132.896225 142.641388,132.878021 
	C143.723450,132.860657 145.217560,131.215881 145.726578,129.960571 
	C146.313507,128.513123 146.019684,126.708542 146.126663,124.717918 
	C147.971481,124.717918 149.695099,124.717918 151.414352,124.717918 
	C153.377411,135.117126 147.848419,140.070526 137.474472,136.838531 
z"/>
<path fill="#FFFCF8" opacity="1.000000" stroke="none" 
	d="
M139.020706,70.527283 
	C140.280258,72.603058 141.534271,74.231941 142.788284,75.860825 
	C144.291519,73.273582 145.794769,70.686340 147.721817,67.369659 
	C148.083282,67.369659 149.689178,67.369659 151.283890,67.369659 
	C153.084839,74.775871 150.554871,79.562996 144.291870,80.677803 
	C137.928619,81.810440 133.274826,78.109863 132.755020,70.918854 
	C132.360046,65.454750 132.318695,59.919193 132.700684,54.456032 
	C133.220154,47.026669 136.529251,44.424770 143.796097,44.925110 
	C149.652176,45.328316 152.053085,48.467503 152.003036,55.685150 
	C151.999634,56.175217 151.868805,56.664394 151.745728,57.506371 
	C150.038055,57.506371 148.311905,57.506371 146.227005,57.506371 
	C146.127243,56.404747 146.347443,55.119774 145.858154,54.221096 
	C144.893036,52.448475 143.534653,50.889957 142.338913,49.242897 
	C141.231308,51.024315 139.328918,52.737282 139.168457,54.600273 
	C138.726944,59.726692 139.015488,64.915985 139.020706,70.527283 
z"/>
<path fill="#FFFAF5" opacity="1.000000" stroke="none" 
	d="
M138.742844,159.539490 
	C146.588287,158.955063 149.181427,161.097778 149.902954,168.706451 
	C148.438126,169.051926 146.920074,169.409958 145.432846,169.760727 
	C144.995361,169.060120 144.755875,168.640030 144.481644,168.244019 
	C143.525101,166.862656 142.642975,165.405777 141.487885,164.214935 
	C141.336212,164.058563 138.998825,165.270767 138.991409,165.865570 
	C138.968231,167.717743 139.077454,169.924103 140.063889,171.351303 
	C141.442200,173.345428 143.944061,174.539185 145.445709,176.477768 
	C147.428085,179.036972 149.541733,181.792847 150.460175,184.810730 
	C151.993790,189.850037 148.681732,194.431427 143.815643,195.104538 
	C137.292587,196.006851 132.505722,192.794174 132.600174,187.042511 
	C132.621780,185.726410 135.016327,184.449249 137.020309,182.456573 
	C137.679626,184.681793 137.731888,185.373383 138.064270,185.881836 
	C139.001968,187.316162 139.915604,188.829300 141.161133,189.954437 
	C141.467651,190.231293 143.810287,189.180267 143.830933,188.682297 
	C143.908127,186.818466 144.019806,184.457901 143.003723,183.149124 
	C140.785736,180.292236 137.749817,178.088882 135.290604,175.396942 
	C130.049728,169.660080 131.455353,162.768814 138.742844,159.539490 
z"/>
<path fill="#FFFAF5" opacity="1.000000" stroke="none" 
	d="
M285.253204,193.065521 
	C281.739868,195.909515 279.480194,195.497009 279.208801,191.897400 
	C278.868958,187.390182 276.942078,185.995712 272.419647,187.243210 
	C271.889008,189.405090 271.304169,191.787689 270.633698,194.519180 
	C268.978912,194.519180 267.256378,194.519180 264.845032,194.519180 
	C266.342468,186.743912 267.794861,179.148331 269.273865,171.557953 
	C269.687317,169.436035 270.181946,167.330017 270.634949,165.215759 
	C271.860260,159.497055 271.859283,159.496841 278.750854,160.230072 
	C280.870911,170.929672 283.027069,181.811615 285.253204,193.065521 
M275.137360,170.572174 
	C274.347107,174.419373 273.556885,178.266586 272.695862,182.458374 
	C274.643311,182.458374 275.958160,182.458374 277.501801,182.458374 
	C276.850037,178.118515 276.260376,174.192139 275.137360,170.572174 
z"/>
<path fill="#FFFBF7" opacity="1.000000" stroke="none" 
	d="
M202.803513,63.117737 
	C203.899429,68.870392 204.919968,74.204231 206.010635,79.904503 
	C204.002441,80.014206 202.400452,80.101723 200.338974,80.214340 
	C199.746948,77.547112 199.186325,75.021416 198.620239,72.471024 
	C194.347229,71.116028 191.929596,72.077591 191.837479,77.015541 
	C191.756577,81.352905 188.553360,80.089417 185.306458,79.919174 
	C187.598679,68.300438 189.853653,56.870537 192.148178,45.240082 
	C194.500107,45.240082 196.603409,45.240082 199.091446,45.240082 
	C200.303818,51.060287 201.515976,56.879604 202.803513,63.117737 
M194.740356,59.475269 
	C194.301712,62.174633 193.863052,64.873993 193.344299,68.066231 
	C195.276932,67.882263 196.592697,67.757011 198.197601,67.604240 
	C197.382889,63.558773 196.684357,60.090179 195.985825,56.621582 
	C195.713272,56.673531 195.440735,56.725475 195.168198,56.777424 
	C195.067688,57.421513 194.967194,58.065605 194.740356,59.475269 
z"/>
<path fill="#FFF9F2" opacity="1.000000" stroke="none" 
	d="
M258.667358,54.454979 
	C257.353149,52.697189 256.381927,51.162220 255.145248,49.884106 
	C254.994370,49.728165 252.606018,51.018692 252.647751,51.523689 
	C252.799301,53.356476 253.065933,55.536659 254.163834,56.860264 
	C256.478577,59.650898 259.568237,61.792534 261.932709,64.549675 
	C265.236969,68.402657 265.541595,74.201607 262.763031,77.440865 
	C259.690247,81.023140 255.718002,81.572250 251.448044,79.918358 
	C247.201920,78.273712 246.615631,74.483055 245.925507,70.195549 
	C247.814407,69.703079 249.465164,69.272690 250.872864,68.905678 
	C251.351776,69.458496 251.475357,69.574081 251.567032,69.711044 
	C252.837677,71.609634 254.051727,73.552551 255.466049,75.336868 
	C255.584900,75.486832 257.807190,74.415840 257.758453,74.183647 
	C257.247375,71.748772 256.953583,69.053467 255.643753,67.057556 
	C254.136780,64.761238 251.608170,63.154690 249.627594,61.145702 
	C245.978882,57.444653 245.042114,52.705627 247.135254,48.910622 
	C249.360077,44.876858 253.135361,44.526253 257.080200,44.992085 
	C262.026062,45.576122 263.309479,49.267605 264.012299,54.177094 
	C262.258606,54.376766 260.594147,54.566280 258.667358,54.454979 
z"/>
<path fill="#FFFAF5" opacity="1.000000" stroke="none" 
	d="
M342.138611,132.679047 
	C341.678406,130.878265 341.337921,129.443726 340.933502,127.739716 
	C342.072113,127.355919 342.946381,127.000710 343.852783,126.774261 
	C344.619690,126.582672 345.423859,126.540169 346.383759,126.407951 
	C346.603790,127.235710 346.647461,127.923752 346.955750,128.459564 
	C347.812897,129.949371 348.618317,131.538879 349.809418,132.720947 
	C350.135925,133.044952 352.575165,132.158417 352.624115,131.681549 
	C352.815369,129.818207 353.008453,127.558655 352.132904,126.077820 
	C350.910187,124.009865 348.711151,122.527206 346.968170,120.756416 
	C345.459045,119.223221 343.663818,117.838226 342.596161,116.032341 
	C340.512085,112.507286 340.311523,108.690979 342.816681,105.224846 
	C345.299164,101.790024 349.015228,101.553177 352.744843,102.286903 
	C356.548828,103.035278 357.928131,105.237656 358.804474,111.404457 
	C357.318909,111.688065 355.804871,111.977112 354.537659,112.219040 
	C353.975525,111.717827 353.693695,111.534515 353.500549,111.283073 
	C352.401154,109.851631 351.406921,108.318703 350.135223,107.065552 
	C349.969208,106.901962 347.607910,108.209976 347.647949,108.729721 
	C347.790253,110.577042 348.045868,112.777611 349.145569,114.115105 
	C351.558319,117.049553 354.808716,119.301575 357.180145,122.262329 
	C361.071381,127.120636 360.330627,133.480881 355.965820,136.410156 
	C351.335449,139.517654 345.861664,138.173981 342.138611,132.679047 
z"/>
<path fill="#FFFBF7" opacity="1.000000" stroke="none" 
	d="
M333.008057,187.702545 
	C332.569061,183.451416 335.307281,184.167603 337.760803,183.916916 
	C338.110535,184.978912 338.145325,186.191620 338.767090,186.745865 
	C340.127441,187.958511 341.785675,188.836960 343.322266,189.851898 
	C343.605316,187.951035 344.808105,185.376312 344.000732,184.274429 
	C341.477905,180.831223 338.108704,178.022583 335.231873,174.820404 
	C332.251984,171.503540 331.850708,165.432785 334.458191,162.350861 
	C337.408081,158.864182 341.597076,157.989319 345.266357,160.105820 
	C347.868195,161.606598 349.399750,164.962814 352.013489,168.251328 
	C348.867218,169.045486 347.320709,169.435837 345.584778,169.874008 
	C345.300812,169.019409 345.220734,168.335861 344.877350,167.831573 
	C344.002106,166.546371 343.156525,165.152939 341.969269,164.224594 
	C341.635132,163.963333 339.417145,165.082611 339.351990,165.703842 
	C339.174744,167.393799 339.208954,169.448151 340.045105,170.817017 
	C341.130371,172.593674 343.140900,173.781525 344.626343,175.343399 
	C346.446411,177.257156 348.539185,179.069962 349.799683,181.325607 
	C352.720917,186.553284 350.924316,192.592941 346.245880,194.594772 
	C340.481934,197.061081 335.470551,194.595932 333.008057,187.702545 
z"/>
<path fill="#FFFBF7" opacity="1.000000" stroke="none" 
	d="
M184.433929,173.441193 
	C188.739624,177.158463 193.149551,180.359955 193.085617,186.542252 
	C193.037979,191.151184 190.527435,194.429733 186.358459,195.087463 
	C180.616196,195.993439 177.106339,194.213730 175.481522,189.572235 
	C173.961929,185.231308 174.688202,184.307083 179.865723,184.221695 
	C180.106216,184.938690 180.215912,185.808060 180.653625,186.455780 
	C181.518356,187.735428 182.397202,189.137024 183.621536,189.974823 
	C184.085251,190.292160 186.299713,189.281647 186.363647,188.721909 
	C186.555450,187.042404 186.679031,184.803879 185.750961,183.652969 
	C183.157944,180.437302 179.907471,177.762604 177.131256,174.680923 
	C174.124649,171.343475 174.082169,167.366364 175.811783,163.484055 
	C177.486938,159.724030 181.056686,159.066177 184.672119,159.271469 
	C189.514114,159.546417 191.639130,162.322830 192.206192,168.788284 
	C190.828308,169.106598 189.410019,169.434250 187.914444,169.779755 
	C187.580948,169.312851 187.315247,168.938293 187.046921,168.565613 
	C185.974167,167.075623 184.975693,165.516449 183.735153,164.182388 
	C183.574768,164.009903 181.437744,165.025192 181.450882,165.452316 
	C181.513092,167.474854 181.880768,169.517395 182.409241,171.480209 
	C182.592896,172.162277 183.552689,172.635376 184.433929,173.441193 
z"/>
<path fill="#FFFBF7" opacity="1.000000" stroke="none" 
	d="
M295.812012,178.384689 
	C296.902161,172.105713 297.917877,166.224030 298.967010,160.148834 
	C300.981110,160.148834 302.708649,160.148834 304.785217,160.148834 
	C302.414062,171.852646 300.116943,183.190887 297.871826,194.272552 
	C293.163269,195.929245 291.142151,194.598694 290.366638,189.995941 
	C288.713318,180.183411 286.559967,170.455154 284.592743,160.598267 
	C288.498840,158.977524 290.374420,159.850769 290.972107,163.924271 
	C291.863464,169.999344 293.147430,176.016815 294.408173,182.836807 
	C295.001068,181.028412 295.369324,179.905197 295.812012,178.384689 
z"/>
<path fill="#FFF5E9" opacity="1.000000" stroke="none" 
	d="
M330.171844,102.298378 
	C332.632538,102.299507 334.634430,102.409401 336.620270,102.277351 
	C340.072540,102.047791 340.548218,103.758423 339.581757,106.819893 
	C337.202148,106.959251 334.779144,107.101158 332.084869,107.258949 
	C332.084869,110.412277 332.084869,113.329323 332.084869,116.580513 
	C333.823853,116.780037 335.579193,116.981445 337.520416,117.204178 
	C340.069885,123.188698 334.430756,120.994652 332.068909,122.269890 
	C332.068909,125.682228 332.068909,129.086136 332.068909,132.812653 
	C334.676758,132.990005 337.092010,133.154266 339.460266,133.315338 
	C340.035187,138.173538 337.017975,138.975998 325.414124,137.147202 
	C325.414124,125.826241 325.414124,114.446259 325.414124,102.621819 
	C326.828522,102.515175 328.267181,102.406700 330.171844,102.298378 
z"/>
<path fill="#FFFBF7" opacity="1.000000" stroke="none" 
	d="
M313.982391,159.831268 
	C316.826904,160.754700 321.451721,157.551147 321.499939,163.877808 
	C318.733429,164.048431 316.309235,164.197952 313.449951,164.374298 
	C313.449951,167.369965 313.449951,170.403961 313.449951,173.865402 
	C315.213257,174.011475 317.117737,174.169220 318.969452,174.322601 
	C319.801270,178.562256 319.801270,178.562256 313.308044,179.217041 
	C313.308044,182.755280 313.308044,186.324387 313.308044,190.365082 
	C315.318726,190.365082 317.164490,190.112411 318.887695,190.462646 
	C319.875092,190.663315 320.663391,191.843582 321.541290,192.582825 
	C320.726349,193.344437 319.947571,194.712677 319.090271,194.763794 
	C315.140350,194.999298 311.168549,194.867630 306.895813,194.867630 
	C306.895813,183.052856 306.895813,171.660980 306.895813,159.831345 
	C309.242859,159.831345 311.379028,159.831345 313.982391,159.831268 
z"/>
<path fill="#FFFBF7" opacity="1.000000" stroke="none" 
	d="
M221.816330,159.831329 
	C223.773987,160.585358 225.263275,161.339417 226.752548,162.093475 
	C225.365738,162.785370 223.961151,164.087646 222.595673,164.047821 
	C219.296799,163.951630 218.029663,165.147018 218.375107,168.393188 
	C218.548584,170.023392 218.405365,171.687302 218.405365,172.958771 
	C220.354279,175.361465 226.644501,171.909424 224.510330,178.548416 
	C222.811737,178.744659 221.041473,178.949173 218.840469,179.203461 
	C218.840469,182.588409 218.840469,185.969955 218.840469,189.447037 
	C220.245316,192.502945 227.457077,187.192581 226.689682,194.626328 
	C221.682968,194.626328 217.109634,194.626328 212.249695,194.626328 
	C212.249695,183.023300 212.249695,171.667648 212.249695,159.831375 
	C215.452530,159.831375 218.400238,159.831375 221.816330,159.831329 
z"/>
<path fill="#FFF8F0" opacity="1.000000" stroke="none" 
	d="
M275.173401,62.000778 
	C275.173187,56.219711 275.173187,50.937908 275.173187,45.316559 
	C280.136230,45.316559 284.697754,45.316559 289.840515,45.316559 
	C290.938232,52.174679 284.848541,48.378098 282.260468,50.475273 
	C282.260468,53.018524 282.260468,56.068958 282.260468,59.449036 
	C283.981903,59.642101 285.738800,59.839142 287.495544,60.037979 
	C288.579102,63.961979 288.579102,63.961979 282.297363,64.450645 
	C282.297363,67.956085 282.297363,71.506729 282.297363,75.133644 
	C284.006287,77.630432 290.337250,72.989540 290.066956,79.937103 
	C285.002716,79.937103 280.425720,79.937103 275.173615,79.937103 
	C275.173615,74.013153 275.173615,68.256599 275.173401,62.000778 
z"/>
<path fill="#FFF9F2" opacity="1.000000" stroke="none" 
	d="
M230.098816,47.301407 
	C230.898010,46.216629 231.662247,45.109978 232.476349,45.071983 
	C236.436035,44.887192 240.409073,44.988464 244.709518,44.988464 
	C245.903473,52.520947 239.327774,47.971977 237.066589,50.965744 
	C237.066589,53.196167 237.066589,56.240910 237.066589,59.011749 
	C239.001953,60.878471 244.364975,57.810722 242.677612,63.892761 
	C240.991837,64.066971 239.233414,64.248680 237.114410,64.467659 
	C237.114410,68.121353 237.114410,71.663025 237.114410,75.547417 
	C239.642334,75.719421 242.061432,75.884026 244.441589,76.045982 
	C244.884384,80.574089 240.844757,81.540764 230.086853,79.483665 
	C230.086853,68.983398 230.086853,58.377754 230.098816,47.301407 
z"/>
<path fill="#FFFBF7" opacity="1.000000" stroke="none" 
	d="
M260.853973,159.831421 
	C262.638580,159.831451 263.946503,159.831451 265.081024,159.831451 
	C268.046051,165.123657 263.573669,164.343369 260.641602,165.198975 
	C260.641602,174.931030 260.641602,184.644043 260.641602,194.605911 
	C258.311981,194.605911 256.545807,194.605911 254.272552,194.605911 
	C254.272552,184.929932 254.272552,175.218369 254.272552,165.471878 
	C251.965347,163.972900 246.836197,165.881607 248.935715,159.831390 
	C252.552567,159.831390 256.464935,159.831390 260.853973,159.831421 
z"/>
<path fill="#FFFCF8" opacity="1.000000" stroke="none" 
	d="
M193.733932,164.244904 
	C192.448578,161.158112 193.038437,159.634247 196.480118,159.788162 
	C200.935364,159.987411 205.406265,159.836761 209.901550,159.836761 
	C212.232437,165.023178 208.313705,164.486649 205.178665,164.959824 
	C205.178665,174.724167 205.178665,184.433609 205.178665,194.501373 
	C202.866318,194.501373 201.008743,194.501373 198.580429,194.501373 
	C198.580429,186.087479 198.408203,177.817673 198.661118,169.560913 
	C198.769623,166.018784 197.857376,164.182571 193.733932,164.244904 
z"/>
<path fill="#FFFCF8" opacity="1.000000" stroke="none" 
	d="
M249.974487,124.986397 
	C249.974030,117.357430 249.974030,110.226364 249.974030,102.734344 
	C251.997177,102.734344 253.723740,102.734344 255.822876,102.734344 
	C255.822876,114.153076 255.822876,125.523758 255.822876,137.264191 
	C254.122177,137.264191 252.395599,137.264191 249.974960,137.264191 
	C249.974960,133.333298 249.974960,129.408798 249.974487,124.986397 
z"/>
<path fill="#FFFFFF" opacity="1.000000" stroke="none" 
	d="
M154.980133,47.294716 
	C156.743958,46.028358 158.498672,45.231144 160.873840,44.152042 
	C160.873840,56.889633 160.873840,68.273407 160.873840,79.929688 
	C158.999420,80.011726 157.387238,80.082291 154.971039,80.188049 
	C154.971039,69.221786 154.971039,58.492821 154.980133,47.294716 
z"/>
<path fill="#FFFDFA" opacity="1.000000" stroke="none" 
	d="
M329.962372,174.006653 
	C329.962341,181.120911 329.962341,187.736984 329.962341,194.600418 
	C327.820312,194.600418 326.215485,194.600418 324.147125,194.600418 
	C324.147125,183.257294 324.147125,171.898193 324.147125,160.191956 
	C325.843201,160.191956 327.582703,160.191956 329.962402,160.191956 
	C329.962402,164.623505 329.962402,169.065979 329.962372,174.006653 
z"/>
<path fill="#FFF9F2" opacity="1.000000" stroke="none" 
	d="
M280.993652,149.693436 
	C279.065491,152.563339 279.098145,157.128586 274.224548,157.021240 
	C274.861023,149.286194 275.557648,148.521805 280.993652,149.693436 
z"/>
<path fill="#FDA331" opacity="1.000000" stroke="none" 
	d="
M199.093109,402.429688 
	C199.868912,401.116150 200.598984,399.566376 201.417282,399.518311 
	C205.665146,399.268707 209.935516,399.402130 214.557556,399.402130 
	C214.557556,405.315918 214.557556,410.676300 214.557556,416.850769 
	C210.176392,416.850769 205.772400,417.006561 201.398483,416.713470 
	C200.568542,416.657898 199.278992,414.867676 199.197388,413.801605 
	C198.920242,410.181580 199.089401,406.527344 199.093109,402.429688 
z"/>
<path fill="#FDA331" opacity="1.000000" stroke="none" 
	d="
M210.762756,380.878052 
	C206.844040,380.878418 203.391129,380.878418 199.139481,380.878418 
	C199.139481,375.477020 198.893219,370.404083 199.379456,365.402283 
	C199.461456,364.558807 202.741180,363.379486 204.478424,363.479919 
	C207.961548,363.681305 213.805435,363.823212 214.382324,365.482269 
	C215.818329,369.612030 214.984848,374.587799 214.682327,379.198914 
	C214.640854,379.831299 212.433273,380.321594 210.762756,380.878052 
z"/>
<path fill="#FDA02A" opacity="1.000000" stroke="none" 
	d="
M211.721710,345.002014 
	C207.472137,345.004883 203.692444,345.004883 199.510132,345.004883 
	C199.510132,339.281464 199.510132,333.936829 199.510132,328.214844 
	C204.391861,328.214844 209.258514,328.214844 214.875320,328.214844 
	C214.875320,333.071655 214.989319,337.972015 214.755432,342.855682 
	C214.719345,343.609375 213.086166,344.286591 211.721710,345.002014 
z"/>
<path fill="#FDA02A" opacity="1.000000" stroke="none" 
	d="
M199.104706,264.972565 
	C199.105164,261.868805 199.105164,259.245239 199.105164,256.240509 
	C204.356613,256.240509 209.226959,256.240509 214.507706,256.240509 
	C214.507706,261.526733 214.507706,266.884857 214.507706,272.628357 
	C209.643814,272.628357 204.775146,272.628357 199.104233,272.628357 
	C199.104233,270.271484 199.104233,267.862122 199.104706,264.972565 
z"/>
<path fill="#FDA02A" opacity="1.000000" stroke="none" 
	d="
M213.589752,308.853455 
	C208.694336,308.964722 204.251816,308.964722 199.459473,308.964722 
	C199.459473,303.229126 199.459473,297.872070 199.459473,292.179443 
	C204.470215,292.179443 209.341858,292.179443 215.207855,292.179443 
	C214.811691,297.810577 214.427155,303.276367 213.589752,308.853455 
z"/>
<path fill="#FDA12C" opacity="1.000000" stroke="none" 
	d="
M238.707855,399.369202 
	C240.193115,400.307037 242.030380,401.186127 242.098709,402.186066 
	C242.414413,406.806488 242.238083,411.460510 242.238083,416.479187 
	C237.147995,416.479187 232.419693,416.479187 227.257874,416.479187 
	C227.257874,410.996429 227.257874,405.483246 227.257874,399.366150 
	C231.006851,399.366150 234.625977,399.366150 238.707855,399.369202 
z"/>
<path fill="#FDA12C" opacity="1.000000" stroke="none" 
	d="
M237.779190,363.365845 
	C241.188919,362.999908 242.469971,364.096802 242.303314,367.250153 
	C242.076553,371.540680 242.246796,375.852234 242.246796,380.503601 
	C237.090363,380.503601 232.362274,380.503601 227.229218,380.503601 
	C227.229218,375.082092 227.229218,369.693146 227.229218,363.365021 
	C230.527023,363.365021 233.920181,363.365021 237.779190,363.365845 
z"/>
<path fill="#FD9D25" opacity="1.000000" stroke="none" 
	d="
M242.229843,264.005798 
	C242.229950,267.121246 242.229950,269.749146 242.229950,272.683777 
	C237.045059,272.683777 232.311630,272.683777 227.210831,272.683777 
	C227.210831,267.253876 227.210831,261.878723 227.210831,256.179321 
	C232.033920,256.179321 236.763168,256.179321 242.229736,256.179321 
	C242.229736,258.671356 242.229736,261.094788 242.229843,264.005798 
z"/>
<path fill="#FD9D25" opacity="1.000000" stroke="none" 
	d="
M231.141800,308.995239 
	C228.053604,309.321228 226.637390,308.598114 226.794373,305.539276 
	C227.014786,301.244354 226.850052,296.929688 226.850052,292.243042 
	C231.902908,292.243042 236.633759,292.243042 241.801132,292.243042 
	C241.801132,297.502655 241.801132,302.884857 241.801132,308.995453 
	C238.474854,308.995453 235.048096,308.995453 231.141800,308.995239 
z"/>
<path fill="#FD9D25" opacity="1.000000" stroke="none" 
	d="
M226.847229,333.088867 
	C226.947754,331.164124 227.048477,329.724884 227.159210,328.142395 
	C232.223892,328.142395 236.949646,328.142395 241.951019,328.142395 
	C241.951019,333.671570 241.951019,338.922302 241.951019,344.586304 
	C237.205643,344.586304 232.482605,344.586304 226.847397,344.586304 
	C226.847397,341.030426 226.847397,337.302429 226.847229,333.088867 
z"/>
<path fill="#FD9F28" opacity="1.000000" stroke="none" 
	d="
M290.345398,346.936279 
	C291.191376,352.350647 288.989807,353.893372 284.256866,353.435669 
	C280.465668,353.069031 276.608063,353.265106 272.785309,353.383942 
	C269.008118,353.501343 267.963593,350.753296 269.500122,348.604797 
	C275.428497,340.315308 281.923004,332.430725 288.206543,324.395203 
	C288.919434,324.605438 289.632294,324.815704 290.345184,325.025940 
	C290.345184,332.165405 290.345184,339.304901 290.345398,346.936279 
z"/>
<path fill="#FDA12C" opacity="1.000000" stroke="none" 
	d="
M314.574463,353.612610 
	C309.808594,353.617554 305.502258,353.576508 301.197083,353.628479 
	C298.439148,353.661774 297.073639,352.811005 296.968536,349.641632 
	C296.615509,338.995789 296.488617,339.000000 307.202911,339.000000 
	C310.641174,339.000000 314.079437,339.000000 318.209869,339.000000 
	C318.209869,343.241577 318.438416,347.013916 318.064240,350.725525 
	C317.958252,351.776825 316.092957,352.650757 314.574463,353.612610 
z"/>
<path fill="#FDA12C" opacity="1.000000" stroke="none" 
	d="
M290.297363,409.083038 
	C290.256226,418.104706 290.868835,416.920624 282.747711,416.996887 
	C280.581696,417.017242 278.415375,417.000366 276.249176,416.999969 
	C269.089264,416.998627 269.089233,416.998505 269.088806,409.655914 
	C269.088379,402.384705 269.088409,402.384155 276.445740,402.378235 
	C278.945190,402.376221 281.477783,402.637451 283.937134,402.323395 
	C288.920715,401.687042 291.248810,403.405884 290.297363,409.083038 
z"/>
<path fill="#FDA12C" opacity="1.000000" stroke="none" 
	d="
M297.044891,388.966980 
	C297.053467,381.149994 297.053467,381.149750 304.298798,381.147797 
	C307.131256,381.147034 309.993134,381.406586 312.789551,381.089142 
	C317.367737,380.569489 318.457581,382.566589 318.313232,386.822906 
	C317.963928,397.120361 319.358459,395.742767 309.158997,395.849609 
	C307.326416,395.868805 305.493469,395.853790 303.660675,395.852081 
	C297.080292,395.845886 297.080292,395.845490 297.044891,388.966980 
z"/>
<path fill="#FDA12C" opacity="1.000000" stroke="none" 
	d="
M276.155975,381.147766 
	C278.797028,381.147766 280.963104,381.146942 283.129150,381.147797 
	C290.291748,381.150604 290.291748,381.150818 290.297516,388.105408 
	C290.303925,395.851410 290.303925,395.851471 282.416687,395.852356 
	C280.750488,395.852539 279.084229,395.862061 277.418091,395.850739 
	C268.109375,395.787354 269.135620,396.829224 269.095276,387.614349 
	C269.067139,381.177338 269.095856,381.177216 276.155975,381.147766 
z"/>
<path fill="#FDA12C" opacity="1.000000" stroke="none" 
	d="
M317.890198,361.481384 
	C318.342072,378.062592 319.776794,374.520142 306.610687,374.809265 
	C296.694275,375.027039 295.114410,372.922058 297.148773,362.851471 
	C297.349884,361.855927 298.677521,360.324982 299.469238,360.333008 
	C305.547577,360.394440 311.622681,360.775299 317.890198,361.481384 
z"/>
<path fill="#FDA12C" opacity="1.000000" stroke="none" 
	d="
M279.028259,374.852234 
	C268.917694,374.852448 266.972778,372.422852 269.231598,362.750031 
	C269.472717,361.717529 271.102661,360.334808 272.149567,360.279785 
	C277.121674,360.018555 282.125549,359.988831 287.092682,360.292572 
	C288.205048,360.360565 289.220886,362.094666 290.261658,363.082306 
	C290.347229,363.163544 290.272247,363.404358 290.288757,363.569305 
	C291.417450,374.852509 291.417603,374.852509 279.028259,374.852234 
z"/>
<path fill="#FD9D25" opacity="1.000000" stroke="none" 
	d="
M313.804901,416.984131 
	C310.840912,416.984467 308.342529,417.132660 305.869507,416.945648 
	C303.018402,416.730042 298.154480,416.915802 297.738892,415.702698 
	C296.567047,412.282349 297.081177,408.226044 297.303589,404.442322 
	C297.341797,403.792389 299.194305,402.776642 300.238098,402.738678 
	C305.205811,402.557983 310.183746,402.646576 315.157928,402.668640 
	C315.810791,402.671509 317.014160,402.777252 317.034485,402.946686 
	C317.494049,406.777222 318.070557,410.628540 317.989807,414.462555 
	C317.971558,415.328613 315.580505,416.144714 313.804901,416.984131 
z"/>
<path fill="#FD9D25" opacity="1.000000" stroke="none" 
	d="
M318.210999,327.900513 
	C318.519409,331.104431 317.432068,332.271149 314.569977,332.167755 
	C309.943207,332.000641 305.303253,332.024200 300.674316,332.156982 
	C297.790619,332.239685 296.989594,330.922638 297.028381,328.254333 
	C297.209778,315.771423 295.832306,318.286224 306.733459,318.017609 
	C307.394897,318.001312 308.057037,318.015472 308.718872,318.015472 
	C318.213593,318.015472 318.213593,318.015472 318.210999,327.900513 
z"/>
<path fill="#FD9F28" opacity="1.000000" stroke="none" 
	d="
M301.612610,310.951721 
	C300.962677,309.860901 300.185974,308.366730 300.619293,307.803558 
	C305.390259,301.602631 310.333099,295.533081 315.295044,289.481781 
	C315.620819,289.084534 316.482758,289.126923 317.666901,288.813568 
	C317.666901,296.134125 317.666901,303.140289 317.666901,310.980743 
	C312.561035,310.980743 307.304352,310.980743 301.612610,310.951721 
z"/>
<path fill="#FD9F28" opacity="1.000000" stroke="none" 
	d="
M373.340515,416.998779 
	C371.695374,416.016876 369.654144,415.175476 369.468628,414.032806 
	C367.739227,403.380249 368.667328,402.386108 379.293732,402.386108 
	C383.071777,402.386108 386.849792,402.386108 391.118622,402.386108 
	C391.118622,405.922607 391.143127,408.716217 391.109253,411.509125 
	C391.089539,413.131470 390.976166,414.752655 390.877502,416.999512 
	C384.985657,416.999512 379.395447,416.999512 373.340515,416.998779 
z"/>
<path fill="#FD9F28" opacity="1.000000" stroke="none" 
	d="
M371.525452,395.936646 
	C370.619110,391.521454 370.069244,387.157440 369.864807,382.777313 
	C369.845703,382.368042 371.999268,381.493103 373.163544,381.456543 
	C377.966736,381.305603 382.778168,381.443665 387.585114,381.375061 
	C390.028778,381.340210 391.021301,382.214386 391.180939,384.831604 
	C391.862488,396.005127 391.950714,396.000885 380.929382,395.999023 
	C377.945160,395.998535 374.960938,395.988861 371.525452,395.936646 
z"/>
<path fill="#FD9F28" opacity="1.000000" stroke="none" 
	d="
M348.048401,381.619263 
	C351.034119,381.619232 353.527222,381.617981 356.020355,381.619995 
	C362.733459,381.625458 362.733459,381.626007 362.737976,388.497314 
	C362.742950,395.998962 362.742950,395.998962 355.172638,395.999756 
	C354.341583,395.999847 353.510559,395.999786 352.679504,395.999786 
	C339.531158,395.999786 339.531158,395.999786 341.417633,381.899902 
	C343.389862,381.809814 345.472839,381.714691 348.048401,381.619263 
z"/>
<path fill="#FD9F28" opacity="1.000000" stroke="none" 
	d="
M340.911743,412.833130 
	C340.910919,409.406219 340.910919,406.452789 340.910919,402.683167 
	C347.646118,402.683167 354.016907,402.589172 360.377441,402.801697 
	C361.175629,402.828369 362.487366,404.415131 362.583130,405.376465 
	C362.876862,408.324890 362.974030,411.361603 362.547577,414.276215 
	C362.396057,415.311951 360.561462,416.809418 359.427795,416.871796 
	C354.314240,417.153076 349.173218,416.884216 344.048889,417.038971 
	C341.164124,417.126129 340.742889,415.568604 340.911743,412.833130 
z"/>
<path fill="#FD9F28" opacity="1.000000" stroke="none" 
	d="
M160.805481,116.097298 
	C160.828293,113.796204 160.471039,111.856529 160.997894,110.197639 
	C161.402390,108.923996 163.058990,107.027718 163.913193,107.148277 
	C165.312180,107.345726 167.564728,108.900177 167.622910,109.981003 
	C167.977814,116.574669 167.992035,123.205170 167.657440,129.799927 
	C167.599075,130.950089 165.370010,132.787186 164.095505,132.828583 
	C163.059982,132.862213 161.149521,130.758179 161.024033,129.466415 
	C160.609894,125.203964 160.829559,120.879936 160.805481,116.097298 
z"/>
<path fill="#FDA433" opacity="1.000000" stroke="none" 
	d="
M309.110046,120.000443 
	C309.110077,115.535439 309.110077,111.565880 309.110077,107.512726 
	C313.785126,106.109451 315.733459,108.043861 315.835327,112.184158 
	C315.962158,117.339142 315.944946,122.500931 315.847412,127.657089 
	C315.774261,131.524643 313.937256,133.550735 309.109985,132.659393 
	C309.109985,128.662552 309.109985,124.579216 309.110046,120.000443 
z"/>
<path fill="#FDA433" opacity="1.000000" stroke="none" 
	d="
M271.176117,107.685928 
	C271.808136,115.426361 272.318268,122.911736 272.157074,130.382629 
	C272.133209,131.487213 268.935028,132.523315 266.378601,134.101578 
	C266.378601,124.248131 266.378601,115.868317 266.378601,106.962784 
	C268.026520,107.134064 269.431824,107.280128 271.176117,107.685928 
z"/>
<path fill="#FDA433" opacity="1.000000" stroke="none" 
	d="
M171.194672,74.288132 
	C171.142303,66.063774 171.142303,58.266235 171.142303,50.444073 
	C175.439758,49.022678 177.716095,50.341034 177.834778,54.500172 
	C177.991394,59.989101 178.073181,65.496040 177.802292,70.976212 
	C177.590225,75.266586 175.373001,76.358055 171.194672,74.288132 
z"/>
<path fill="#FDA433" opacity="1.000000" stroke="none" 
	d="
M220.883453,66.794060 
	C220.831757,71.424606 221.430756,76.047791 214.501282,75.716263 
	C214.501282,67.289803 214.501282,58.934113 214.501282,50.325119 
	C218.568298,48.963123 220.700089,50.511341 220.828644,54.838760 
	C220.942291,58.664532 220.872665,62.495743 220.883453,66.794060 
z"/>
<path fill="#FDA433" opacity="1.000000" stroke="none" 
	d="
M289.575256,117.786316 
	C289.882538,115.908783 290.083771,114.430420 290.285004,112.952065 
	C290.499176,112.919052 290.713379,112.886047 290.927551,112.853035 
	C291.630096,116.689003 292.332642,120.524971 293.037323,124.372749 
	C288.386566,125.181244 288.386566,125.181244 289.575256,117.786316 
z"/>
<path fill="#FDA433" opacity="1.000000" stroke="none" 
	d="
M275.404053,170.418961 
	C276.260376,174.192139 276.850037,178.118515 277.501801,182.458374 
	C275.958160,182.458374 274.643311,182.458374 272.695862,182.458374 
	C273.556885,178.266586 274.347107,174.419373 275.404053,170.418961 
z"/>
<path fill="#FDA433" opacity="1.000000" stroke="none" 
	d="
M194.803528,59.092484 
	C194.967194,58.065605 195.067688,57.421513 195.168198,56.777424 
	C195.440735,56.725475 195.713272,56.673531 195.985825,56.621582 
	C196.684357,60.090179 197.382889,63.558773 198.197601,67.604240 
	C196.592697,67.757011 195.276932,67.882263 193.344299,68.066231 
	C193.863052,64.873993 194.301712,62.174633 194.803528,59.092484 
z"/>
</svg>