<svg version="1.1" id="Layer_1" xmlns="http://www.w3.org/2000/svg" xmlns:xlink="http://www.w3.org/1999/xlink" x="0px" y="0px"
	 width="100%" viewBox="0 0 489 491" enable-background="new 0 0 489 491" xml:space="preserve">
<path fill="#FFFFFF" opacity="1.000000" stroke="none" 
	d="
M490.000000,170.000000 
	C490.000000,277.666626 490.000000,384.833282 490.000000,491.999939 
	C327.000061,491.999939 164.000122,491.999939 1.000145,491.999969 
	C1.000097,328.333435 1.000097,164.666870 1.000048,1.000233 
	C163.999863,1.000155 326.999725,1.000155 489.999786,1.000078 
	C490.000000,57.166668 490.000000,113.333336 490.000000,170.000000 
M73.500000,5.998871 
	C55.667351,5.998889 37.834702,5.994833 20.002052,6.000438 
	C9.121307,6.003859 5.000298,10.160147 5.000162,21.136431 
	C4.998311,170.965302 4.998510,320.794189 4.999718,470.623047 
	C4.999810,481.946960 9.021045,485.999817 20.261528,485.999939 
	C170.090408,486.001434 319.919281,486.001465 469.748169,485.999908 
	C480.978912,485.999786 485.000061,481.941498 485.000153,470.613342 
	C485.001343,320.951141 485.001251,171.288925 485.000427,21.626709 
	C485.000366,9.955564 481.074341,5.999646 469.488251,5.999554 
	C337.825500,5.998512 206.162750,5.998880 73.500000,5.998871 
z"/>
<path fill="#BF8B2F" opacity="1.000000" stroke="none" 
	d="
M74.000000,5.998871 
	C206.162750,5.998880 337.825500,5.998512 469.488251,5.999554 
	C481.074341,5.999646 485.000366,9.955564 485.000427,21.626709 
	C485.001251,171.288925 485.001343,320.951141 485.000153,470.613342 
	C485.000061,481.941498 480.978912,485.999786 469.748169,485.999908 
	C319.919281,486.001465 170.090408,486.001434 20.261528,485.999939 
	C9.021045,485.999817 4.999810,481.946960 4.999718,470.623047 
	C4.998510,320.794189 4.998311,170.965302 5.000162,21.136431 
	C5.000298,10.160147 9.121307,6.003859 20.002052,6.000438 
	C37.834702,5.994833 55.667351,5.998889 74.000000,5.998871 
M222.821228,303.724213 
	C230.367767,317.042175 237.442413,330.655853 245.563065,343.614044 
	C260.576935,367.571747 281.340027,384.304047 309.443390,390.405396 
	C339.497833,396.930359 367.318451,385.815704 382.272308,361.187683 
	C394.570740,340.932892 396.061981,318.705994 391.677704,295.983368 
	C383.109924,251.578812 342.830719,235.851685 310.742523,240.010757 
	C286.581482,243.142319 268.474365,256.804932 253.657486,275.378937 
	C253.011551,276.188660 252.286423,277.759613 252.639542,278.413971 
	C256.062073,284.756104 259.707397,290.978058 263.710297,297.969879 
	C265.612488,295.743347 266.624878,294.483826 267.714661,293.295319 
	C273.106903,287.414490 278.000793,280.942719 284.032837,275.810425 
	C296.679443,265.050232 311.283203,259.322784 328.280182,262.002106 
	C347.076294,264.965057 361.512054,273.938629 367.901733,292.650421 
	C373.097687,307.866425 373.070496,323.472260 368.261536,338.820831 
	C363.096985,355.304108 351.770020,365.505157 334.869598,369.072144 
	C320.067566,372.196320 306.480530,368.008728 293.676636,360.891571 
	C278.147430,352.259552 267.839539,338.718445 259.164520,323.622864 
	C250.548431,308.629822 242.459442,293.237152 232.657639,279.042877 
	C213.943466,251.942429 189.003799,235.939453 154.441620,240.017563 
	C136.587112,242.124268 120.947502,249.150314 109.223534,262.961975 
	C90.745232,284.730652 88.449417,310.589020 93.978874,337.051392 
	C102.252876,376.648346 143.439774,399.239685 184.357437,387.979309 
	C192.857224,385.640228 200.696579,380.901337 209.355560,377.038574 
	C212.298950,379.566010 215.992950,382.737976 220.400833,386.522919 
	C221.121887,384.016510 221.661530,382.668488 221.888474,381.269745 
	C224.020218,368.132294 226.089630,354.984802 228.196213,341.843231 
	C229.150131,335.892487 228.809692,335.538544 223.246826,337.091858 
	C210.115112,340.758728 196.984680,344.430328 183.864792,348.139191 
	C182.827820,348.432312 181.876633,349.028931 180.129471,349.832092 
	C184.185104,353.532593 187.788727,356.820679 191.458481,360.169098 
	C174.515259,373.384186 139.704590,371.825287 123.627327,349.749298 
	C112.244995,334.119965 112.454681,316.794556 115.659035,299.050293 
	C117.882835,286.735901 124.017471,276.645721 134.842957,269.908325 
	C155.394211,257.117981 182.041763,258.889832 199.628998,275.504242 
	C208.238007,283.637024 214.882828,293.848969 222.821228,303.724213 
M88.810242,107.304466 
	C91.407677,103.435295 94.244637,99.702538 96.544586,95.663948 
	C99.737732,90.056984 103.293861,84.477287 105.322418,78.425926 
	C108.940041,67.634239 105.517830,55.881004 98.320457,50.668091 
	C90.004990,44.645370 75.537865,44.362576 67.116684,50.058132 
	C59.477383,55.224876 55.351055,67.787254 57.914951,78.366302 
	C63.145878,78.366302 68.416656,78.366302 73.794235,78.366302 
	C74.275803,74.367432 74.404655,70.522522 75.268906,66.850716 
	C76.262024,62.631424 79.115326,60.327023 83.742615,60.981216 
	C87.988525,61.581493 88.777931,64.728371 89.105331,68.244141 
	C89.730209,74.954269 86.925301,80.619843 83.494324,85.996353 
	C76.152771,97.500908 69.032402,109.177307 61.069881,120.242508 
	C56.813587,126.157303 56.907146,132.092300 57.399956,138.656906 
	C73.080765,138.656906 88.456711,138.656906 103.864502,138.656906 
	C103.864502,134.036804 103.864502,129.769180 103.864502,124.838974 
	C95.008522,124.838974 86.369247,124.838974 77.098961,124.838974 
	C81.203239,118.675591 84.794586,113.282471 88.810242,107.304466 
M55.206268,64.501343 
	C55.206268,58.893898 55.206268,53.286453 55.206268,46.695133 
	C49.919224,47.237564 44.956573,46.880325 40.671261,48.414742 
	C35.770462,50.169537 31.438368,53.552296 26.937380,56.353367 
	C25.933666,56.978001 24.621244,58.074486 24.541931,59.043060 
	C24.253561,62.564636 24.428127,66.124123 24.428127,69.967743 
	C29.269773,68.382401 33.294518,67.064545 38.077766,65.498329 
	C38.077766,90.449547 38.077766,114.622742 38.077766,138.661163 
	C44.093224,138.661163 49.507896,138.661163 55.206432,138.661163 
	C55.206432,114.047951 55.206432,89.774323 55.206268,64.501343 
M287.967957,80.252708 
	C289.294617,81.009338 290.621277,81.765976 292.102966,82.611008 
	C292.102966,69.996498 292.102966,58.599178 292.102966,47.325150 
	C289.464447,47.325150 287.548157,47.325150 285.541260,47.325150 
	C283.912384,54.918774 282.348633,62.208832 280.483978,70.901688 
	C278.637451,62.149315 277.080627,54.770004 275.516083,47.354176 
	C273.178253,47.354176 271.139343,47.354176 268.176758,47.354176 
	C268.176758,57.869389 268.163605,68.016441 268.183167,78.163429 
	C268.191071,82.259712 268.223633,82.259651 272.861359,81.495064 
	C273.109680,75.812263 273.360229,70.078323 273.610809,64.344376 
	C275.817627,69.207993 276.727325,74.092323 277.994354,78.882103 
	C278.321838,80.119942 279.770630,81.061142 280.704376,82.138603 
	C281.505157,81.107727 282.736847,80.186348 283.031494,79.026855 
	C284.246796,74.244553 285.177887,69.390038 286.213440,64.562057 
	C286.433044,64.587280 286.652649,64.612495 286.872223,64.637718 
	C287.226685,69.533264 287.581116,74.428802 287.967957,80.252708 
M280.912659,177.504974 
	C280.912659,172.404968 280.912659,167.304947 280.912659,162.019836 
	C278.829071,162.019836 277.273987,162.019836 275.202271,162.019836 
	C275.202271,167.677795 275.202271,173.011826 275.202271,178.345840 
	C272.248444,173.856567 270.063629,169.270493 268.249298,164.542282 
	C267.036163,161.380798 265.262054,160.989380 262.713959,162.305832 
	C262.713959,173.875534 262.713959,185.236130 262.713959,196.957306 
	C264.707275,196.803116 266.255157,196.683380 268.291565,196.525848 
	C268.291565,190.303070 268.291565,184.549622 268.291565,178.796173 
	C271.070160,183.809875 272.962097,188.953766 275.331238,193.867584 
	C276.065796,195.391174 278.096222,196.289978 279.533356,197.474823 
	C279.993103,197.101852 280.452850,196.728897 280.912598,196.355942 
	C280.912598,190.404755 280.912598,184.453568 280.912659,177.504974 
M163.959686,189.467468 
	C163.959686,186.702057 163.959686,183.936630 163.959686,181.171219 
	C164.409225,180.991028 164.858749,180.810822 165.308289,180.630630 
	C166.102295,181.715210 167.208069,182.692368 167.626480,183.906387 
	C168.542572,186.564468 169.404480,189.305618 169.753983,192.080170 
	C170.345306,196.774475 172.679916,197.913681 177.300507,196.177246 
	C176.206421,192.193817 175.220490,188.196609 173.992477,184.275223 
	C173.162048,181.623444 173.093216,179.697144 175.194534,177.186768 
	C179.176758,172.429352 177.050461,163.968811 171.611694,162.650757 
	C167.118835,161.561920 162.298203,161.825592 157.587830,161.487457 
	C157.587830,173.828491 157.587830,185.074631 157.587830,196.583740 
	C159.734528,196.583740 161.610199,196.583740 163.959656,196.583740 
	C163.959656,194.330734 163.959656,192.374588 163.959686,189.467468 
M180.629395,139.594193 
	C182.067291,139.523270 183.505203,139.452362 185.450516,139.356415 
	C185.450516,136.373459 185.395767,133.753189 185.466461,131.136322 
	C185.532455,128.693115 185.731674,126.253494 185.872253,123.812294 
	C186.583252,123.719162 187.294250,123.626022 188.005234,123.532890 
	C189.100449,127.309601 190.477753,131.032059 191.217331,134.877167 
	C192.083786,139.381943 194.340469,140.688828 198.850784,139.031189 
	C197.759872,135.064468 196.770218,131.070892 195.545624,127.150703 
	C194.716736,124.497215 194.745377,122.552086 196.671860,119.990570 
	C201.428482,113.666046 197.589233,105.390312 189.752518,104.522614 
	C186.351517,104.146057 182.874115,104.459435 178.980011,104.459435 
	C178.980011,113.022301 178.901886,121.122780 179.017197,129.220505 
	C179.065582,132.620117 179.523376,136.013901 180.629395,139.594193 
M203.513504,136.918793 
	C207.137955,140.628387 211.515869,140.713150 215.996597,139.174591 
	C220.549347,137.611282 221.444046,133.474731 221.524796,129.425476 
	C221.647202,123.287094 221.582779,117.101593 220.941925,111.005058 
	C220.427124,106.107872 216.730606,104.129425 212.041046,104.019569 
	C207.355392,103.909798 202.831833,105.048515 202.029648,110.233589 
	C200.688477,118.902458 199.791153,127.723907 203.513504,136.918793 
M318.720856,139.123840 
	C327.054504,141.290207 332.378815,139.312744 333.131287,132.611282 
	C333.938477,125.422729 333.798615,117.998543 332.910400,110.820938 
	C332.610565,108.397789 329.118011,105.460808 326.446838,104.458977 
	C322.701141,103.054131 318.447479,103.734085 315.560608,107.310623 
	C311.874847,111.876968 312.515320,133.135345 316.414429,137.600403 
	C316.842560,138.090637 317.459259,138.416153 318.720856,139.123840 
M305.581482,46.877167 
	C300.547241,46.816410 296.843811,49.192623 296.437103,54.146721 
	C295.869141,61.064240 295.877197,68.105240 296.485504,75.018890 
	C296.967407,80.495941 301.098206,83.095970 306.810974,82.811142 
	C312.275818,82.538689 315.603882,79.767258 315.978058,74.252090 
	C316.381714,68.302971 316.403503,62.295204 316.092712,56.339066 
	C315.742554,49.628124 313.288940,47.489872 305.581482,46.877167 
M270.348022,115.006653 
	C270.363708,119.838242 269.858276,124.749092 270.576843,129.473770 
	C271.062134,132.664398 272.834869,135.925690 274.830139,138.547852 
	C276.974976,141.366547 280.052948,143.475174 283.281281,146.398468 
	C280.753784,147.385376 279.209930,147.988190 276.721832,148.959686 
	C280.515656,151.731308 283.705566,151.089600 285.632141,148.659409 
	C289.250824,144.094818 283.701904,143.268967 281.515137,141.149857 
	C289.819855,135.937622 290.840057,134.020676 289.350159,126.726746 
	C287.618439,126.726746 285.898499,126.726746 284.129944,126.726746 
	C283.911591,128.898422 284.060425,130.834885 283.431427,132.472549 
	C283.012482,133.563293 281.477112,134.907974 280.453766,134.897766 
	C279.362518,134.886917 277.379578,133.449753 277.346130,132.575546 
	C277.079041,125.596268 277.064667,118.598610 277.313293,111.618721 
	C277.346344,110.690781 279.442230,108.986641 280.314758,109.142517 
	C281.545105,109.362305 282.913513,110.798637 283.507874,112.053505 
	C284.158386,113.426949 283.994873,115.185928 284.175446,116.688126 
	C286.269531,116.688126 288.006195,116.688126 289.713409,116.688126 
	C290.370544,106.907524 286.588654,102.889214 278.253723,104.104782 
	C272.426300,104.954651 270.950623,109.170090 270.348022,115.006653 
M224.969284,115.525673 
	C224.969284,123.438667 224.969284,131.351654 224.969284,139.800064 
	C229.339920,139.543442 232.975571,139.477463 236.574814,139.080826 
	C240.942596,138.599457 243.741745,135.960220 243.946564,131.624695 
	C244.259872,124.992393 244.475983,118.281013 243.743118,111.713707 
	C243.482864,109.381500 240.697556,106.175919 238.418350,105.476685 
	C234.307968,104.215675 229.710419,104.542618 224.969269,104.179756 
	C224.969269,108.232491 224.969269,111.384445 224.969284,115.525673 
M264.907562,137.324966 
	C265.601349,135.660431 266.858643,134.008102 266.895050,132.329315 
	C267.092682,123.215309 266.988892,114.094765 266.988892,104.676117 
	C264.983612,104.676117 263.254913,104.676117 261.027069,104.676117 
	C261.027069,108.050545 261.032806,111.170479 261.025848,114.290382 
	C261.013519,119.785507 261.262848,125.303276 260.803680,130.761185 
	C260.674957,132.291016 258.451172,133.644592 257.188385,135.079010 
	C256.102539,133.683319 254.535141,132.433411 254.056870,130.853745 
	C253.501495,129.019379 253.890411,126.895767 253.888840,124.897690 
	C253.883530,118.146942 253.886826,111.396194 253.886826,104.313965 
	C251.330399,104.455696 249.588608,104.552261 247.713745,104.656204 
	C247.576401,105.934807 247.414246,106.739464 247.415359,107.543892 
	C247.425491,114.870110 247.147888,122.214600 247.571060,129.518021 
	C248.155396,139.603577 255.180038,142.964462 264.907562,137.324966 
M258.242523,58.522778 
	C258.195557,63.686237 258.369019,68.867561 257.953033,74.001122 
	C257.843384,75.353699 255.912140,76.558662 254.817398,77.831413 
	C253.637207,76.640694 252.028061,75.638588 251.398087,74.205925 
	C250.774643,72.788101 251.084976,70.935928 251.080017,69.273987 
	C251.058228,61.988480 251.070633,54.702869 251.070633,47.236343 
	C248.818787,47.236343 247.085022,47.236343 244.947830,47.236343 
	C244.947830,55.943935 244.814865,64.403664 244.990921,72.856956 
	C245.126053,79.344971 248.442535,82.635216 254.432922,82.797470 
	C260.128448,82.951729 264.019958,79.983086 264.351898,73.889778 
	C264.829315,65.126503 264.473846,56.317863 264.473846,47.302471 
	C262.401489,47.302471 260.530121,47.302471 258.242767,47.302471 
	C258.242767,50.927017 258.242767,54.230614 258.242523,58.522778 
M243.707504,196.184280 
	C252.411774,198.608932 257.985199,196.327621 258.671082,189.240631 
	C259.323242,182.502106 259.067230,175.632660 258.672119,168.852158 
	C258.439850,164.865829 255.830048,162.256424 251.670197,161.534607 
	C247.513977,160.813431 243.626785,161.201141 240.805618,164.703781 
	C237.186386,169.197296 238.250504,190.960968 242.173828,195.251190 
	C242.393433,195.491318 242.704773,195.647552 243.707504,196.184280 
M190.983429,82.653557 
	C196.532806,81.813026 198.943176,78.274872 199.050354,72.976479 
	C199.161163,67.498665 199.227310,62.011517 199.035690,56.538158 
	C198.798996,49.776829 195.668076,46.878967 189.068634,46.880894 
	C182.589539,46.882786 179.249496,50.000439 179.035294,56.570244 
	C178.873016,61.547501 178.920349,66.535789 179.017670,71.516365 
	C179.177032,79.673187 181.920029,82.379028 190.983429,82.653557 
M211.961227,70.604004 
	C213.162323,73.523689 214.097244,76.598457 215.671509,79.300758 
	C216.518875,80.755310 218.462296,81.571327 220.675568,83.257957 
	C220.675568,70.033943 220.675568,58.624687 220.675568,46.927372 
	C218.912598,47.079681 217.501694,47.201572 215.767197,47.351421 
	C215.767197,53.372631 215.767197,59.079674 215.767197,64.786713 
	C212.770340,60.044956 210.489426,55.138065 208.527191,50.106888 
	C207.391937,47.196171 205.826263,46.289810 203.036896,47.522610 
	C203.036896,59.063927 203.036896,70.328918 203.036896,81.751266 
	C204.797485,81.751266 206.305130,81.751266 208.210144,81.751266 
	C208.210144,75.523651 208.210144,69.674095 208.210144,63.824535 
	C208.460846,63.777851 208.711533,63.731167 208.962234,63.684479 
	C209.873611,65.751846 210.784988,67.819214 211.961227,70.604004 
M163.450256,60.585861 
	C163.512466,58.595940 163.140167,56.450798 163.777603,54.666355 
	C164.266922,53.296539 166.029053,52.381393 167.225128,51.264042 
	C168.171783,52.435875 169.470642,53.476448 169.969513,54.815151 
	C170.506577,56.256290 170.293747,57.976879 170.406845,59.558342 
	C172.610260,59.558342 174.351013,59.558342 176.059113,59.558342 
	C176.807770,50.802269 174.425217,47.221317 167.868958,46.897034 
	C160.229202,46.519157 157.071747,49.753479 156.966629,58.182056 
	C156.908630,62.834667 156.930862,67.489159 156.984756,72.142014 
	C157.033585,76.358788 157.943161,80.725243 162.487961,81.675568 
	C165.899887,82.389000 170.342621,82.180168 173.212769,80.490349 
	C177.032913,78.241226 176.733688,73.530350 176.074631,69.086311 
	C173.944778,69.195992 172.197998,69.285950 170.344589,69.381393 
	C170.253479,70.827271 170.160690,71.804932 170.136337,72.784286 
	C170.076553,75.188499 169.966278,78.154037 166.808212,77.578056 
	C165.436157,77.327812 163.891159,74.395004 163.621658,72.509514 
	C163.109344,68.925278 163.458313,65.217949 163.450256,60.585861 
M303.382751,131.710388 
	C304.577057,134.215561 305.771332,136.720734 307.042053,139.386215 
	C308.402527,139.386215 309.998993,139.386215 312.225311,139.386215 
	C310.193024,129.328583 308.248840,119.636086 306.272247,109.950188 
	C304.996490,103.698425 304.975220,103.702766 298.157043,104.966537 
	C295.913635,116.284821 293.646515,127.722725 291.367767,139.219269 
	C297.018402,139.786606 297.163147,139.813873 298.068665,135.006668 
	C298.578339,132.300919 299.913300,131.310883 303.382751,131.710388 
M163.968506,136.168747 
	C163.968506,132.230652 163.968506,128.292557 163.968506,124.302444 
	C165.199509,124.175926 165.840942,124.075264 166.485397,124.049080 
	C173.623016,123.759132 176.763000,120.970474 176.876114,114.804771 
	C177.004700,107.796822 173.923080,104.626289 166.563431,104.343796 
	C163.632950,104.231308 160.694550,104.325310 157.611206,104.325310 
	C157.611206,116.391090 157.611206,127.771820 157.611206,141.053604 
	C160.406342,139.302429 162.185410,138.187820 163.968506,136.168747 
M232.658585,59.455421 
	C232.039810,57.382187 231.300552,55.329308 230.942841,53.211960 
	C230.893860,52.921951 233.370941,51.705048 233.609375,51.951508 
	C234.764221,53.145332 235.547073,54.696831 236.479614,56.109810 
	C236.655289,56.376030 236.912094,56.588707 237.404633,57.121716 
	C238.776306,56.831993 240.306763,56.508732 241.961716,56.159176 
	C241.645416,51.576553 240.351715,48.001934 235.866928,47.127823 
	C231.847382,46.344402 227.642197,46.465881 225.333832,50.751686 
	C223.125031,54.852619 223.788834,58.874454 226.896774,62.299454 
	C228.906403,64.514107 231.304901,66.373154 233.352692,68.557007 
	C234.455002,69.732529 235.746643,71.187271 235.926865,72.643059 
	C236.109665,74.119484 235.028931,75.752335 234.501602,77.316681 
	C233.096298,76.424873 231.459518,75.747650 230.365372,74.567398 
	C229.609741,73.752312 229.604187,72.241890 229.168823,70.709091 
	C227.277359,71.279106 225.754379,71.738075 224.133179,72.226639 
	C224.540878,77.394249 225.895401,81.371155 231.385254,82.481812 
	C235.569107,83.328247 239.031433,82.232094 241.398605,78.645462 
	C243.830734,74.960403 242.999115,69.642189 239.413544,65.784599 
	C237.490952,63.716167 235.282410,61.913528 232.658585,59.455421 
M307.888763,172.221695 
	C306.271149,180.266068 304.653503,188.310455 302.997772,196.544342 
	C305.371796,196.544342 307.097260,196.544342 308.883118,196.544342 
	C309.511505,193.868408 310.069885,191.490707 310.555664,189.422028 
	C318.440948,186.433029 316.420197,193.408020 318.148773,196.546509 
	C320.016388,196.546509 321.751221,196.546509 323.857544,196.546509 
	C321.459747,184.721268 319.140564,173.283829 316.862762,162.050415 
	C314.168274,162.050415 312.210510,162.050415 309.959442,162.050415 
	C309.284729,165.260834 308.641785,168.320282 307.888763,172.221695 
M212.547745,163.957291 
	C207.788300,160.407425 202.266296,160.339371 199.062012,163.791092 
	C195.763458,167.344376 196.252411,173.621094 200.252899,177.749802 
	C202.677963,180.252563 205.521393,182.407745 207.616562,185.147537 
	C208.639572,186.485306 208.595520,188.806747 208.558807,190.673569 
	C208.549194,191.162140 206.205856,192.251160 205.887878,191.973282 
	C204.638733,190.881622 203.728851,189.382202 202.781891,187.974396 
	C202.429276,187.450134 202.320496,186.761841 201.969986,185.784286 
	C200.352768,186.066910 198.797668,186.338669 197.158752,186.625092 
	C196.892944,191.143433 197.896271,194.895493 201.937744,196.462509 
	C205.712860,197.926224 209.923096,198.104218 213.063004,194.744568 
	C216.169998,191.420120 216.052795,187.335144 214.069046,183.616119 
	C212.784500,181.207840 210.567230,179.276855 208.671097,177.221283 
	C207.100922,175.519073 205.062683,174.152802 203.861130,172.241959 
	C203.127869,171.075851 203.270767,169.080109 203.646286,167.617813 
	C203.823288,166.928604 205.899658,165.961258 206.371109,166.267120 
	C207.479630,166.986282 208.201202,168.356705 208.957733,169.541275 
	C209.358032,170.168030 209.504028,170.957230 209.857193,171.926651 
	C211.674789,171.442886 213.208633,171.034637 215.077576,170.537216 
	C214.292191,168.283264 213.644714,166.425125 212.547745,163.957291 
M301.345367,168.063446 
	C299.516998,165.928299 298.088013,162.937317 295.768402,161.854736 
	C292.114624,160.149521 288.192719,161.152359 285.522766,164.592758 
	C283.057709,167.769165 283.356689,173.288101 286.316284,176.630646 
	C288.841278,179.482376 292.019775,181.785614 294.345306,184.770798 
	C295.478546,186.225464 295.498901,188.672958 295.610046,190.693756 
	C295.632782,191.107391 293.181396,192.231857 292.946991,191.989136 
	C291.680634,190.677704 290.739349,189.048187 289.718018,187.507111 
	C289.451202,187.104507 289.298798,186.626053 288.924805,185.816559 
	C287.409668,186.072968 285.850677,186.336792 284.157593,186.623306 
	C284.040161,191.279343 285.040039,195.239594 289.419250,196.650513 
	C293.215118,197.873505 297.495667,198.069443 300.433929,194.383942 
	C303.384583,190.682892 303.020325,186.489700 300.715454,182.730270 
	C299.278046,180.385712 296.926514,178.602509 294.990417,176.562469 
	C293.512421,175.005142 291.385620,173.657959 290.773041,171.810837 
	C290.265381,170.280121 291.547180,168.155914 292.036194,166.294632 
	C293.364227,167.369492 294.769257,168.365921 295.982727,169.557449 
	C296.474640,170.040466 296.549072,170.948654 297.280670,172.926453 
	C299.080353,171.184021 300.324188,169.979721 301.345367,168.063446 
M381.171783,182.419281 
	C382.230621,183.685791 383.922882,184.833694 384.187897,186.248871 
	C384.519135,188.017761 383.676422,190.006485 383.340515,191.900299 
	C381.838989,190.822037 380.223022,189.865585 378.887360,188.610779 
	C378.278809,188.039124 378.224060,186.877975 377.846191,185.774094 
	C376.153259,186.082291 374.734161,186.340637 373.392883,186.584808 
	C372.928436,192.961777 375.245148,196.540207 380.110260,197.088043 
	C384.070557,197.533997 387.986847,197.284897 390.079590,193.227798 
	C392.273438,188.974716 391.547455,184.699753 388.553558,181.133896 
	C386.327667,178.482758 383.201660,176.565460 381.099396,173.840744 
	C379.880280,172.260681 379.731140,169.748047 379.496460,167.611603 
	C379.452942,167.215302 382.005432,166.015640 382.159210,166.198181 
	C383.343170,167.603607 384.224579,169.262543 385.216888,170.832062 
	C385.386383,171.100220 385.637054,171.317032 386.074036,171.810089 
	C387.477448,171.460052 389.024323,171.074234 390.608582,170.679108 
	C390.237427,166.299637 389.148895,162.258759 384.617065,161.817978 
	C381.488159,161.513657 376.934784,162.112030 375.271301,164.148010 
	C373.414948,166.420151 373.042786,171.110001 373.991852,174.129120 
	C374.934784,177.128555 378.322479,179.359436 381.171783,182.419281 
M326.026703,176.621689 
	C327.388397,183.267120 328.750061,189.912567 330.063934,196.324539 
	C334.651184,197.834534 337.204742,196.872009 337.510925,192.028549 
	C337.635437,190.059265 338.319611,188.128906 338.703308,186.171860 
	C340.255432,178.255615 341.789734,170.335892 343.325348,162.444473 
	C338.992889,161.009750 337.322205,162.085892 336.849304,166.183334 
	C336.175232,172.023438 334.815094,177.784348 333.747986,183.579086 
	C333.505676,183.594574 333.263367,183.610046 333.021057,183.625534 
	C331.572083,176.390762 330.123108,169.156006 328.639984,161.750702 
	C326.535919,161.902008 324.948914,162.016129 323.132141,162.146774 
	C324.122803,166.998138 325.019318,171.388351 326.026703,176.621689 
M195.360565,195.439774 
	C195.085098,189.143326 189.442810,194.272354 187.361328,191.436035 
	C187.361328,188.167099 187.361328,184.639404 187.361328,181.121750 
	C189.530258,180.944809 191.308304,180.799759 193.532135,180.618347 
	C193.420624,178.981873 193.328690,177.632721 193.238617,176.310989 
	C190.947830,176.134796 189.174240,175.998367 187.222534,175.848251 
	C187.222534,172.647827 187.222534,169.726578 187.222534,166.575363 
	C189.904633,166.428665 192.349014,166.294983 195.236160,166.137070 
	C195.130020,164.534332 195.041367,163.195709 194.962296,162.001678 
	C189.878708,162.001678 185.299774,162.001678 180.655899,162.001678 
	C180.655899,173.728622 180.655899,185.103241 180.655899,197.185242 
	C185.723877,196.839676 190.423096,196.519257 195.360565,195.439774 
M236.527115,167.403473 
	C233.650040,161.645813 228.649750,160.301636 218.221802,162.519012 
	C218.221802,173.896652 218.221802,185.287750 218.221802,196.697784 
	C220.277283,196.697784 222.015610,196.697784 224.224152,196.697784 
	C224.224152,191.487747 224.224152,186.562881 224.224152,181.738861 
	C236.420609,179.769409 237.611893,178.440918 236.527115,167.403473 
M352.250122,191.175461 
	C352.250122,187.894623 352.250122,184.613770 352.250122,181.403610 
	C359.200958,180.356430 359.200958,180.356430 357.948456,176.304611 
	C356.170654,176.154465 354.388092,176.003922 352.526672,175.846725 
	C352.526672,172.577225 352.526672,169.549683 352.526672,166.161011 
	C354.734467,166.161011 356.577271,166.364334 358.338043,166.072662 
	C359.180420,165.933105 360.406494,164.905273 360.473083,164.188202 
	C360.539734,163.470734 359.408478,161.994476 358.748138,161.962311 
	C354.525879,161.756668 350.288696,161.857483 346.171783,161.857483 
	C346.171783,173.919891 346.171783,185.154007 346.171783,196.865479 
	C350.407715,196.865479 354.365692,196.999008 358.301147,196.760727 
	C359.160522,196.708694 359.939545,195.328964 360.755554,194.560715 
	C359.897339,193.828537 359.140533,192.705093 358.158508,192.450531 
	C356.430664,192.002640 354.565155,192.085815 352.250122,191.175461 
M335.215088,72.451370 
	C335.215088,70.513145 335.215088,68.574921 335.215088,66.502121 
	C337.804138,66.251411 339.723969,66.065506 341.598389,65.884003 
	C343.121918,59.417297 337.235199,63.230213 335.599121,60.958057 
	C335.599121,58.111542 335.599121,55.070988 335.599121,52.385059 
	C338.286804,50.361633 344.074799,53.969685 343.774872,47.279144 
	C338.523804,47.279144 333.942413,47.279144 329.269836,47.279144 
	C329.269836,58.966057 329.269836,70.363266 329.269836,81.904236 
	C334.159210,81.904236 338.746338,81.904236 343.833954,81.904236 
	C343.818542,75.058685 337.786438,79.540405 335.453125,76.662285 
	C335.400391,75.925682 335.307831,74.632355 335.215088,72.451370 
M363.275970,195.919540 
	C365.211060,196.317505 367.146118,196.715469 369.474731,197.194366 
	C369.474731,184.953903 369.474731,173.593079 369.474731,161.958374 
	C367.301208,161.958374 365.404266,161.958374 363.111572,161.958374 
	C363.111572,173.190262 363.111572,184.111740 363.275970,195.919540 
M308.329163,94.926994 
	C305.902130,94.837570 303.349426,95.197342 301.075470,94.560936 
	C296.928223,93.400238 295.376434,94.545525 295.643951,99.218124 
	C297.864594,99.103195 300.341736,98.301643 302.248474,99.018105 
	C306.080292,100.457916 307.894806,99.515564 308.329163,94.926994 
M316.133789,157.578583 
	C317.375122,155.525055 318.616455,153.471542 319.922607,151.310745 
	C313.727417,150.207138 313.099976,150.871078 312.275543,159.611908 
	C313.633850,159.065872 314.719147,158.629593 316.133789,157.578583 
z"/>
<path fill="#FEFEFD" opacity="1.000000" stroke="none" 
	d="
M222.618927,303.422058 
	C214.882828,293.848969 208.238007,283.637024 199.628998,275.504242 
	C182.041763,258.889832 155.394211,257.117981 134.842957,269.908325 
	C124.017471,276.645721 117.882835,286.735901 115.659035,299.050293 
	C112.454681,316.794556 112.244995,334.119965 123.627327,349.749298 
	C139.704590,371.825287 174.515259,373.384186 191.458481,360.169098 
	C187.788727,356.820679 184.185104,353.532593 180.129471,349.832092 
	C181.876633,349.028931 182.827820,348.432312 183.864792,348.139191 
	C196.984680,344.430328 210.115112,340.758728 223.246826,337.091858 
	C228.809692,335.538544 229.150131,335.892487 228.196213,341.843231 
	C226.089630,354.984802 224.020218,368.132294 221.888474,381.269745 
	C221.661530,382.668488 221.121887,384.016510 220.400833,386.522919 
	C215.992950,382.737976 212.298950,379.566010 209.355560,377.038574 
	C200.696579,380.901337 192.857224,385.640228 184.357437,387.979309 
	C143.439774,399.239685 102.252876,376.648346 93.978874,337.051392 
	C88.449417,310.589020 90.745232,284.730652 109.223534,262.961975 
	C120.947502,249.150314 136.587112,242.124268 154.441620,240.017563 
	C189.003799,235.939453 213.943466,251.942429 232.657639,279.042877 
	C242.459442,293.237152 250.548431,308.629822 259.164520,323.622864 
	C267.839539,338.718445 278.147430,352.259552 293.676636,360.891571 
	C306.480530,368.008728 320.067566,372.196320 334.869598,369.072144 
	C351.770020,365.505157 363.096985,355.304108 368.261536,338.820831 
	C373.070496,323.472260 373.097687,307.866425 367.901733,292.650421 
	C361.512054,273.938629 347.076294,264.965057 328.280182,262.002106 
	C311.283203,259.322784 296.679443,265.050232 284.032837,275.810425 
	C278.000793,280.942719 273.106903,287.414490 267.714661,293.295319 
	C266.624878,294.483826 265.612488,295.743347 263.710297,297.969879 
	C259.707397,290.978058 256.062073,284.756104 252.639542,278.413971 
	C252.286423,277.759613 253.011551,276.188660 253.657486,275.378937 
	C268.474365,256.804932 286.581482,243.142319 310.742523,240.010757 
	C342.830719,235.851685 383.109924,251.578812 391.677704,295.983368 
	C396.061981,318.705994 394.570740,340.932892 382.272308,361.187683 
	C367.318451,385.815704 339.497833,396.930359 309.443390,390.405396 
	C281.340027,384.304047 260.576935,367.571747 245.563065,343.614044 
	C237.442413,330.655853 230.367767,317.042175 222.618927,303.422058 
z"/>
<path fill="#FEFDFC" opacity="1.000000" stroke="none" 
	d="
M88.598091,107.596909 
	C84.794586,113.282471 81.203239,118.675591 77.098961,124.838974 
	C86.369247,124.838974 95.008522,124.838974 103.864502,124.838974 
	C103.864502,129.769180 103.864502,134.036804 103.864502,138.656906 
	C88.456711,138.656906 73.080765,138.656906 57.399956,138.656906 
	C56.907146,132.092300 56.813587,126.157303 61.069881,120.242508 
	C69.032402,109.177307 76.152771,97.500908 83.494324,85.996353 
	C86.925301,80.619843 89.730209,74.954269 89.105331,68.244141 
	C88.777931,64.728371 87.988525,61.581493 83.742615,60.981216 
	C79.115326,60.327023 76.262024,62.631424 75.268906,66.850716 
	C74.404655,70.522522 74.275803,74.367432 73.794235,78.366302 
	C68.416656,78.366302 63.145878,78.366302 57.914951,78.366302 
	C55.351055,67.787254 59.477383,55.224876 67.116684,50.058132 
	C75.537865,44.362576 90.004990,44.645370 98.320457,50.668091 
	C105.517830,55.881004 108.940041,67.634239 105.322418,78.425926 
	C103.293861,84.477287 99.737732,90.056984 96.544586,95.663948 
	C94.244637,99.702538 91.407677,103.435295 88.598091,107.596909 
z"/>
<path fill="#FFFEFD" opacity="1.000000" stroke="none" 
	d="
M55.206352,65.001015 
	C55.206432,89.774323 55.206432,114.047951 55.206432,138.661163 
	C49.507896,138.661163 44.093224,138.661163 38.077766,138.661163 
	C38.077766,114.622742 38.077766,90.449547 38.077766,65.498329 
	C33.294518,67.064545 29.269773,68.382401 24.428127,69.967743 
	C24.428127,66.124123 24.253561,62.564636 24.541931,59.043060 
	C24.621244,58.074486 25.933666,56.978001 26.937380,56.353367 
	C31.438368,53.552296 35.770462,50.169537 40.671261,48.414742 
	C44.956573,46.880325 49.919224,47.237564 55.206268,46.695133 
	C55.206268,53.286453 55.206268,58.893898 55.206352,65.001015 
z"/>
<path fill="#FCFAF6" opacity="1.000000" stroke="none" 
	d="
M287.951782,79.788528 
	C287.581116,74.428802 287.226685,69.533264 286.872223,64.637718 
	C286.652649,64.612495 286.433044,64.587280 286.213440,64.562057 
	C285.177887,69.390038 284.246796,74.244553 283.031494,79.026855 
	C282.736847,80.186348 281.505157,81.107727 280.704376,82.138603 
	C279.770630,81.061142 278.321838,80.119942 277.994354,78.882103 
	C276.727325,74.092323 275.817627,69.207993 273.610809,64.344376 
	C273.360229,70.078323 273.109680,75.812263 272.861359,81.495064 
	C268.223633,82.259651 268.191071,82.259712 268.183167,78.163429 
	C268.163605,68.016441 268.176758,57.869389 268.176758,47.354176 
	C271.139343,47.354176 273.178253,47.354176 275.516083,47.354176 
	C277.080627,54.770004 278.637451,62.149315 280.483978,70.901688 
	C282.348633,62.208832 283.912384,54.918774 285.541260,47.325150 
	C287.548157,47.325150 289.464447,47.325150 292.102966,47.325150 
	C292.102966,58.599178 292.102966,69.996498 292.102966,82.611008 
	C290.621277,81.765976 289.294617,81.009338 287.951782,79.788528 
z"/>
<path fill="#FAF5ED" opacity="1.000000" stroke="none" 
	d="
M280.912628,178.003677 
	C280.912598,184.453568 280.912598,190.404755 280.912598,196.355942 
	C280.452850,196.728897 279.993103,197.101852 279.533356,197.474823 
	C278.096222,196.289978 276.065796,195.391174 275.331238,193.867584 
	C272.962097,188.953766 271.070160,183.809875 268.291565,178.796173 
	C268.291565,184.549622 268.291565,190.303070 268.291565,196.525848 
	C266.255157,196.683380 264.707275,196.803116 262.713959,196.957306 
	C262.713959,185.236130 262.713959,173.875534 262.713959,162.305832 
	C265.262054,160.989380 267.036163,161.380798 268.249298,164.542282 
	C270.063629,169.270493 272.248444,173.856567 275.202271,178.345840 
	C275.202271,173.011826 275.202271,167.677795 275.202271,162.019836 
	C277.273987,162.019836 278.829071,162.019836 280.912659,162.019836 
	C280.912659,167.304947 280.912659,172.404968 280.912628,178.003677 
z"/>
<path fill="#FBF7F1" opacity="1.000000" stroke="none" 
	d="
M163.959671,189.942963 
	C163.959656,192.374588 163.959656,194.330734 163.959656,196.583740 
	C161.610199,196.583740 159.734528,196.583740 157.587830,196.583740 
	C157.587830,185.074631 157.587830,173.828491 157.587830,161.487457 
	C162.298203,161.825592 167.118835,161.561920 171.611694,162.650757 
	C177.050461,163.968811 179.176758,172.429352 175.194534,177.186768 
	C173.093216,179.697144 173.162048,181.623444 173.992477,184.275223 
	C175.220490,188.196609 176.206421,192.193817 177.300507,196.177246 
	C172.679916,197.913681 170.345306,196.774475 169.753983,192.080170 
	C169.404480,189.305618 168.542572,186.564468 167.626480,183.906387 
	C167.208069,182.692368 166.102295,181.715210 165.308289,180.630630 
	C164.858749,180.810822 164.409225,180.991028 163.959686,181.171219 
	C163.959686,183.936630 163.959686,186.702057 163.959671,189.942963 
M166.194885,176.812500 
	C170.759949,176.395935 171.402756,173.321426 170.682190,169.721237 
	C169.961151,166.118530 167.319046,165.892487 163.332809,166.592743 
	C164.053284,170.214127 164.706360,173.496780 166.194885,176.812500 
z"/>
<path fill="#FCFAF6" opacity="1.000000" stroke="none" 
	d="
M180.212219,139.502258 
	C179.523376,136.013901 179.065582,132.620117 179.017197,129.220505 
	C178.901886,121.122780 178.980011,113.022301 178.980011,104.459435 
	C182.874115,104.459435 186.351517,104.146057 189.752518,104.522614 
	C197.589233,105.390312 201.428482,113.666046 196.671860,119.990570 
	C194.745377,122.552086 194.716736,124.497215 195.545624,127.150703 
	C196.770218,131.070892 197.759872,135.064468 198.850784,139.031189 
	C194.340469,140.688828 192.083786,139.381943 191.217331,134.877167 
	C190.477753,131.032059 189.100449,127.309601 188.005234,123.532890 
	C187.294250,123.626022 186.583252,123.719162 185.872253,123.812294 
	C185.731674,126.253494 185.532455,128.693115 185.466461,131.136322 
	C185.395767,133.753189 185.450516,136.373459 185.450516,139.356415 
	C183.505203,139.452362 182.067291,139.523270 180.212219,139.502258 
M191.559311,117.578987 
	C193.241837,110.231735 191.868622,108.323013 185.566559,109.465530 
	C185.566559,112.673851 185.566559,115.901779 185.566559,119.859253 
	C187.726151,119.199623 189.373505,118.696457 191.559311,117.578987 
z"/>
<path fill="#FCF9F4" opacity="1.000000" stroke="none" 
	d="
M203.282639,136.603409 
	C199.791153,127.723907 200.688477,118.902458 202.029648,110.233589 
	C202.831833,105.048515 207.355392,103.909798 212.041046,104.019569 
	C216.730606,104.129425 220.427124,106.107872 220.941925,111.005058 
	C221.582779,117.101593 221.647202,123.287094 221.524796,129.425476 
	C221.444046,133.474731 220.549347,137.611282 215.996597,139.174591 
	C211.515869,140.713150 207.137955,140.628387 203.282639,136.603409 
M207.909210,113.847961 
	C207.911057,119.311913 207.908066,124.775879 207.916931,130.239822 
	C207.920929,132.705688 208.259995,135.463623 211.419586,134.869629 
	C212.823151,134.605759 214.699860,132.137115 214.810089,130.560730 
	C215.213333,124.794167 215.174988,118.968765 214.814468,113.196030 
	C214.722046,111.716209 212.835922,110.348419 211.773849,108.929161 
	C210.489166,110.264175 209.204498,111.599182 207.909210,113.847961 
z"/>
<path fill="#FCFAF6" opacity="1.000000" stroke="none" 
	d="
M318.354675,138.970947 
	C317.459259,138.416153 316.842560,138.090637 316.414429,137.600403 
	C312.515320,133.135345 311.874847,111.876968 315.560608,107.310623 
	C318.447479,103.734085 322.701141,103.054131 326.446838,104.458977 
	C329.118011,105.460808 332.610565,108.397789 332.910400,110.820938 
	C333.798615,117.998543 333.938477,125.422729 333.131287,132.611282 
	C332.378815,139.312744 327.054504,141.290207 318.354675,138.970947 
M327.141907,127.336052 
	C327.116089,122.367073 327.306030,117.380997 326.914429,112.441017 
	C326.815155,111.188667 325.014252,109.431374 323.712494,109.130775 
	C322.787415,108.917175 320.397095,110.719452 320.358826,111.689003 
	C320.085205,118.623253 320.110504,125.581139 320.437347,132.512817 
	C320.480133,133.420227 322.741302,134.788147 324.048035,134.877792 
	C324.962646,134.940536 326.351044,133.351807 326.885071,132.202103 
	C327.399750,131.094070 327.089386,129.602814 327.141907,127.336052 
z"/>
<path fill="#FCFAF6" opacity="1.000000" stroke="none" 
	d="
M306.005280,46.871517 
	C313.288940,47.489872 315.742554,49.628124 316.092712,56.339066 
	C316.403503,62.295204 316.381714,68.302971 315.978058,74.252090 
	C315.603882,79.767258 312.275818,82.538689 306.810974,82.811142 
	C301.098206,83.095970 296.967407,80.495941 296.485504,75.018890 
	C295.877197,68.105240 295.869141,61.064240 296.437103,54.146721 
	C296.843811,49.192623 300.547241,46.816410 306.005280,46.871517 
M309.072968,76.284172 
	C309.305939,69.220207 309.731750,62.152615 309.598999,55.095543 
	C309.574310,53.783302 307.302856,52.513329 306.068329,51.223831 
	C304.953400,52.598938 302.960114,53.922710 302.876221,55.358089 
	C302.519928,61.453606 302.603027,67.585869 302.778564,73.697449 
	C302.891968,77.645271 304.778015,79.191612 309.072968,76.284172 
z"/>
<path fill="#FBF8F3" opacity="1.000000" stroke="none" 
	d="
M270.370605,114.567451 
	C270.950623,109.170090 272.426300,104.954651 278.253723,104.104782 
	C286.588654,102.889214 290.370544,106.907524 289.713409,116.688126 
	C288.006195,116.688126 286.269531,116.688126 284.175446,116.688126 
	C283.994873,115.185928 284.158386,113.426949 283.507874,112.053505 
	C282.913513,110.798637 281.545105,109.362305 280.314758,109.142517 
	C279.442230,108.986641 277.346344,110.690781 277.313293,111.618721 
	C277.064667,118.598610 277.079041,125.596268 277.346130,132.575546 
	C277.379578,133.449753 279.362518,134.886917 280.453766,134.897766 
	C281.477112,134.907974 283.012482,133.563293 283.431427,132.472549 
	C284.060425,130.834885 283.911591,128.898422 284.129944,126.726746 
	C285.898499,126.726746 287.618439,126.726746 289.350159,126.726746 
	C290.840057,134.020676 289.819855,135.937622 281.515137,141.149857 
	C283.701904,143.268967 289.250824,144.094818 285.632141,148.659409 
	C283.705566,151.089600 280.515656,151.731308 276.721832,148.959686 
	C279.209930,147.988190 280.753784,147.385376 283.281281,146.398468 
	C280.052948,143.475174 276.974976,141.366547 274.830139,138.547852 
	C272.834869,135.925690 271.062134,132.664398 270.576843,129.473770 
	C269.858276,124.749092 270.363708,119.838242 270.370605,114.567451 
z"/>
<path fill="#FEFDFB" opacity="1.000000" stroke="none" 
	d="
M224.969269,115.031036 
	C224.969269,111.384445 224.969269,108.232491 224.969269,104.179756 
	C229.710419,104.542618 234.307968,104.215675 238.418350,105.476685 
	C240.697556,106.175919 243.482864,109.381500 243.743118,111.713707 
	C244.475983,118.281013 244.259872,124.992393 243.946564,131.624695 
	C243.741745,135.960220 240.942596,138.599457 236.574814,139.080826 
	C232.975571,139.477463 229.339920,139.543442 224.969284,139.800064 
	C224.969284,131.351654 224.969284,123.438667 224.969269,115.031036 
M231.156586,132.080811 
	C232.069397,133.035690 232.982224,133.990570 233.895050,134.945435 
	C235.224838,133.522659 237.582230,132.180847 237.701813,130.662750 
	C238.155350,124.905769 238.045029,119.085701 237.828644,113.301079 
	C237.680908,109.351402 235.177689,108.362976 231.670609,109.322945 
	C231.500702,109.711166 231.257248,110.009773 231.255127,110.310081 
	C231.205872,117.261345 231.182800,124.212799 231.156586,132.080811 
z"/>
<path fill="#FCFAF6" opacity="1.000000" stroke="none" 
	d="
M264.625641,137.606720 
	C255.180038,142.964462 248.155396,139.603577 247.571060,129.518021 
	C247.147888,122.214600 247.425491,114.870110 247.415359,107.543892 
	C247.414246,106.739464 247.576401,105.934807 247.713745,104.656204 
	C249.588608,104.552261 251.330399,104.455696 253.886826,104.313965 
	C253.886826,111.396194 253.883530,118.146942 253.888840,124.897690 
	C253.890411,126.895767 253.501495,129.019379 254.056870,130.853745 
	C254.535141,132.433411 256.102539,133.683319 257.188385,135.079010 
	C258.451172,133.644592 260.674957,132.291016 260.803680,130.761185 
	C261.262848,125.303276 261.013519,119.785507 261.025848,114.290382 
	C261.032806,111.170479 261.027069,108.050545 261.027069,104.676117 
	C263.254913,104.676117 264.983612,104.676117 266.988892,104.676117 
	C266.988892,114.094765 267.092682,123.215309 266.895050,132.329315 
	C266.858643,134.008102 265.601349,135.660431 264.625641,137.606720 
z"/>
<path fill="#FBF8F3" opacity="1.000000" stroke="none" 
	d="
M258.242645,58.028492 
	C258.242767,54.230614 258.242767,50.927017 258.242767,47.302471 
	C260.530121,47.302471 262.401489,47.302471 264.473846,47.302471 
	C264.473846,56.317863 264.829315,65.126503 264.351898,73.889778 
	C264.019958,79.983086 260.128448,82.951729 254.432922,82.797470 
	C248.442535,82.635216 245.126053,79.344971 244.990921,72.856956 
	C244.814865,64.403664 244.947830,55.943935 244.947830,47.236343 
	C247.085022,47.236343 248.818787,47.236343 251.070633,47.236343 
	C251.070633,54.702869 251.058228,61.988480 251.080017,69.273987 
	C251.084976,70.935928 250.774643,72.788101 251.398087,74.205925 
	C252.028061,75.638588 253.637207,76.640694 254.817398,77.831413 
	C255.912140,76.558662 257.843384,75.353699 257.953033,74.001122 
	C258.369019,68.867561 258.195557,63.686237 258.242645,58.028492 
z"/>
<path fill="#FDFCFA" opacity="1.000000" stroke="none" 
	d="
M243.340454,196.013550 
	C242.704773,195.647552 242.393433,195.491318 242.173828,195.251190 
	C238.250504,190.960968 237.186386,169.197296 240.805618,164.703781 
	C243.626785,161.201141 247.513977,160.813431 251.670197,161.534607 
	C255.830048,162.256424 258.439850,164.865829 258.672119,168.852158 
	C259.067230,175.632660 259.323242,182.502106 258.671082,189.240631 
	C257.985199,196.327621 252.411774,198.608932 243.340454,196.013550 
M245.158463,171.028763 
	C245.163284,176.512878 244.872513,182.022476 245.341782,187.466553 
	C245.495056,189.244492 247.627426,190.851837 248.854645,192.537216 
	C250.136948,190.899445 252.380569,189.341614 252.524628,187.609192 
	C252.991150,181.998825 252.943542,176.305008 252.519760,170.686661 
	C252.396454,169.052185 250.349854,167.562775 249.184875,166.006866 
	C247.852386,167.388992 246.519897,168.771103 245.158463,171.028763 
z"/>
<path fill="#FDFCFA" opacity="1.000000" stroke="none" 
	d="
M190.586365,82.706894 
	C181.920029,82.379028 179.177032,79.673187 179.017670,71.516365 
	C178.920349,66.535789 178.873016,61.547501 179.035294,56.570244 
	C179.249496,50.000439 182.589539,46.882786 189.068634,46.880894 
	C195.668076,46.878967 198.798996,49.776829 199.035690,56.538158 
	C199.227310,62.011517 199.161163,67.498665 199.050354,72.976479 
	C198.943176,78.274872 196.532806,81.813026 190.586365,82.706894 
M185.336777,56.151276 
	C185.357697,61.973156 185.120132,67.815201 185.571777,73.603477 
	C185.692551,75.151283 187.918701,76.534813 189.178314,77.993759 
	C190.403290,76.486244 192.568848,75.047325 192.684692,73.458916 
	C193.107056,67.667824 193.094147,61.809196 192.684952,56.015606 
	C192.566071,54.332203 190.575485,52.780987 189.442902,51.169174 
	C188.093170,52.546295 186.743439,53.923412 185.336777,56.151276 
z"/>
<path fill="#FEFEFD" opacity="1.000000" stroke="none" 
	d="
M211.828796,70.245293 
	C210.784988,67.819214 209.873611,65.751846 208.962234,63.684479 
	C208.711533,63.731167 208.460846,63.777851 208.210144,63.824535 
	C208.210144,69.674095 208.210144,75.523651 208.210144,81.751266 
	C206.305130,81.751266 204.797485,81.751266 203.036896,81.751266 
	C203.036896,70.328918 203.036896,59.063927 203.036896,47.522610 
	C205.826263,46.289810 207.391937,47.196171 208.527191,50.106888 
	C210.489426,55.138065 212.770340,60.044956 215.767197,64.786713 
	C215.767197,59.079674 215.767197,53.372631 215.767197,47.351421 
	C217.501694,47.201572 218.912598,47.079681 220.675568,46.927372 
	C220.675568,58.624687 220.675568,70.033943 220.675568,83.257957 
	C218.462296,81.571327 216.518875,80.755310 215.671509,79.300758 
	C214.097244,76.598457 213.162323,73.523689 211.828796,70.245293 
z"/>
<path fill="#FCFAF6" opacity="1.000000" stroke="none" 
	d="
M163.449921,61.073799 
	C163.458313,65.217949 163.109344,68.925278 163.621658,72.509514 
	C163.891159,74.395004 165.436157,77.327812 166.808212,77.578056 
	C169.966278,78.154037 170.076553,75.188499 170.136337,72.784286 
	C170.160690,71.804932 170.253479,70.827271 170.344589,69.381393 
	C172.197998,69.285950 173.944778,69.195992 176.074631,69.086311 
	C176.733688,73.530350 177.032913,78.241226 173.212769,80.490349 
	C170.342621,82.180168 165.899887,82.389000 162.487961,81.675568 
	C157.943161,80.725243 157.033585,76.358788 156.984756,72.142014 
	C156.930862,67.489159 156.908630,62.834667 156.966629,58.182056 
	C157.071747,49.753479 160.229202,46.519157 167.868958,46.897034 
	C174.425217,47.221317 176.807770,50.802269 176.059113,59.558342 
	C174.351013,59.558342 172.610260,59.558342 170.406845,59.558342 
	C170.293747,57.976879 170.506577,56.256290 169.969513,54.815151 
	C169.470642,53.476448 168.171783,52.435875 167.225128,51.264046 
	C166.029053,52.381393 164.266922,53.296539 163.777603,54.666355 
	C163.140167,56.450798 163.512466,58.595940 163.449921,61.073799 
z"/>
<path fill="#FBF8F3" opacity="1.000000" stroke="none" 
	d="
M302.941223,131.689117 
	C299.913300,131.310883 298.578339,132.300919 298.068665,135.006668 
	C297.163147,139.813873 297.018402,139.786606 291.367767,139.219269 
	C293.646515,127.722725 295.913635,116.284821 298.157043,104.966537 
	C304.975220,103.702766 304.996490,103.698425 306.272247,109.950188 
	C308.248840,119.636086 310.193024,129.328583 312.225311,139.386215 
	C309.998993,139.386215 308.402527,139.386215 307.042053,139.386215 
	C305.771332,136.720734 304.577057,134.215561 302.941223,131.689117 
M300.742950,119.429321 
	C300.403595,121.823967 300.064240,124.218613 299.655762,127.100899 
	C301.528687,126.930611 302.702911,126.823845 304.218628,126.686028 
	C303.433075,122.494522 302.735321,118.771500 302.037567,115.048485 
	C301.769440,115.091156 301.501312,115.133827 301.233154,115.176506 
	C301.112946,116.329109 300.992706,117.481720 300.742950,119.429321 
z"/>
<path fill="#FAF5ED" opacity="1.000000" stroke="none" 
	d="
M163.966492,136.620972 
	C162.185410,138.187820 160.406342,139.302429 157.611206,141.053604 
	C157.611206,127.771820 157.611206,116.391090 157.611206,104.325310 
	C160.694550,104.325310 163.632950,104.231308 166.563431,104.343796 
	C173.923080,104.626289 177.004700,107.796822 176.876114,114.804771 
	C176.763000,120.970474 173.623016,123.759132 166.485397,124.049080 
	C165.840942,124.075264 165.199509,124.175926 163.968506,124.302444 
	C163.968506,128.292557 163.968506,132.230652 163.966492,136.620972 
M167.932938,109.130005 
	C166.687195,109.193443 165.441452,109.256882 164.263092,109.316895 
	C164.263092,112.829498 164.263092,115.917465 164.263092,120.188782 
	C166.710663,118.920731 169.721222,118.227135 169.899109,117.090263 
	C170.280792,114.651131 169.200851,111.983284 167.932938,109.130005 
z"/>
<path fill="#FBF8F3" opacity="1.000000" stroke="none" 
	d="
M232.930756,59.723183 
	C235.282410,61.913528 237.490952,63.716167 239.413544,65.784599 
	C242.999115,69.642189 243.830734,74.960403 241.398605,78.645462 
	C239.031433,82.232094 235.569107,83.328247 231.385254,82.481812 
	C225.895401,81.371155 224.540878,77.394249 224.133179,72.226639 
	C225.754379,71.738075 227.277359,71.279106 229.168823,70.709091 
	C229.604187,72.241890 229.609741,73.752312 230.365372,74.567398 
	C231.459518,75.747650 233.096298,76.424873 234.501602,77.316681 
	C235.028931,75.752335 236.109665,74.119484 235.926865,72.643059 
	C235.746643,71.187271 234.455002,69.732529 233.352692,68.557007 
	C231.304901,66.373154 228.906403,64.514107 226.896774,62.299454 
	C223.788834,58.874454 223.125031,54.852619 225.333832,50.751686 
	C227.642197,46.465881 231.847382,46.344402 235.866928,47.127823 
	C240.351715,48.001934 241.645416,51.576553 241.961716,56.159176 
	C240.306763,56.508732 238.776306,56.831993 237.404633,57.121716 
	C236.912094,56.588707 236.655289,56.376030 236.479614,56.109810 
	C235.547073,54.696831 234.764221,53.145332 233.609375,51.951508 
	C233.370941,51.705048 230.893860,52.921951 230.942841,53.211960 
	C231.300552,55.329308 232.039810,57.382187 232.930756,59.723183 
z"/>
<path fill="#FCFAF6" opacity="1.000000" stroke="none" 
	d="
M307.943787,171.800705 
	C308.641785,168.320282 309.284729,165.260834 309.959442,162.050415 
	C312.210510,162.050415 314.168274,162.050415 316.862762,162.050415 
	C319.140564,173.283829 321.459747,184.721268 323.857544,196.546509 
	C321.751221,196.546509 320.016388,196.546509 318.148773,196.546509 
	C316.420197,193.408020 318.440948,186.433029 310.555664,189.422028 
	C310.069885,191.490707 309.511505,193.868408 308.883118,196.544342 
	C307.097260,196.544342 305.371796,196.544342 302.997772,196.544342 
	C304.653503,188.310455 306.271149,180.266068 307.943787,171.800705 
M312.531952,175.339645 
	C312.078186,178.377136 311.624451,181.414627 311.115082,184.824524 
	C312.966797,184.720993 314.207001,184.651657 315.806488,184.562241 
	C315.081116,180.185776 314.415405,176.169449 313.749725,172.153107 
	C313.561920,172.166840 313.374115,172.180557 313.186279,172.194275 
	C313.030487,172.997238 312.874664,173.800217 312.531952,175.339645 
z"/>
<path fill="#FCF9F4" opacity="1.000000" stroke="none" 
	d="
M212.772491,164.262146 
	C213.644714,166.425125 214.292191,168.283264 215.077576,170.537216 
	C213.208633,171.034637 211.674789,171.442886 209.857193,171.926651 
	C209.504028,170.957230 209.358032,170.168030 208.957733,169.541275 
	C208.201202,168.356705 207.479630,166.986282 206.371109,166.267120 
	C205.899658,165.961258 203.823288,166.928604 203.646286,167.617813 
	C203.270767,169.080109 203.127869,171.075851 203.861130,172.241959 
	C205.062683,174.152802 207.100922,175.519073 208.671097,177.221283 
	C210.567230,179.276855 212.784500,181.207840 214.069046,183.616119 
	C216.052795,187.335144 216.169998,191.420120 213.063004,194.744568 
	C209.923096,198.104218 205.712860,197.926224 201.937744,196.462509 
	C197.896271,194.895493 196.892944,191.143433 197.158752,186.625092 
	C198.797668,186.338669 200.352768,186.066910 201.969986,185.784286 
	C202.320496,186.761841 202.429276,187.450134 202.781891,187.974396 
	C203.728851,189.382202 204.638733,190.881622 205.887878,191.973282 
	C206.205856,192.251160 208.549194,191.162140 208.558807,190.673569 
	C208.595520,188.806747 208.639572,186.485306 207.616562,185.147537 
	C205.521393,182.407745 202.677963,180.252563 200.252899,177.749802 
	C196.252411,173.621094 195.763458,167.344376 199.062012,163.791092 
	C202.266296,160.339371 207.788300,160.407425 212.772491,164.262146 
z"/>
<path fill="#FCFAF6" opacity="1.000000" stroke="none" 
	d="
M301.456726,168.419434 
	C300.324188,169.979721 299.080353,171.184021 297.280670,172.926453 
	C296.549072,170.948654 296.474640,170.040466 295.982727,169.557449 
	C294.769257,168.365921 293.364227,167.369492 292.036194,166.294632 
	C291.547180,168.155914 290.265381,170.280121 290.773041,171.810837 
	C291.385620,173.657959 293.512421,175.005142 294.990417,176.562469 
	C296.926514,178.602509 299.278046,180.385712 300.715454,182.730270 
	C303.020325,186.489700 303.384583,190.682892 300.433929,194.383942 
	C297.495667,198.069443 293.215118,197.873505 289.419250,196.650513 
	C285.040039,195.239594 284.040161,191.279343 284.157593,186.623306 
	C285.850677,186.336792 287.409668,186.072968 288.924805,185.816559 
	C289.298798,186.626053 289.451202,187.104507 289.718018,187.507111 
	C290.739349,189.048187 291.680634,190.677704 292.946991,191.989136 
	C293.181396,192.231857 295.632782,191.107391 295.610046,190.693756 
	C295.498901,188.672958 295.478546,186.225464 294.345306,184.770798 
	C292.019775,181.785614 288.841278,179.482376 286.316284,176.630646 
	C283.356689,173.288101 283.057709,167.769165 285.522766,164.592758 
	C288.192719,161.152359 292.114624,160.149521 295.768402,161.854736 
	C298.088013,162.937317 299.516998,165.928299 301.456726,168.419434 
z"/>
<path fill="#FCFAF6" opacity="1.000000" stroke="none" 
	d="
M380.904907,182.173309 
	C378.322479,179.359436 374.934784,177.128555 373.991852,174.129120 
	C373.042786,171.110001 373.414948,166.420151 375.271301,164.148010 
	C376.934784,162.112030 381.488159,161.513657 384.617065,161.817978 
	C389.148895,162.258759 390.237427,166.299637 390.608582,170.679108 
	C389.024323,171.074234 387.477448,171.460052 386.074036,171.810089 
	C385.637054,171.317032 385.386383,171.100220 385.216888,170.832062 
	C384.224579,169.262543 383.343170,167.603607 382.159210,166.198181 
	C382.005432,166.015640 379.452942,167.215302 379.496460,167.611603 
	C379.731140,169.748047 379.880280,172.260681 381.099396,173.840744 
	C383.201660,176.565460 386.327667,178.482758 388.553558,181.133896 
	C391.547455,184.699753 392.273438,188.974716 390.079590,193.227798 
	C387.986847,197.284897 384.070557,197.533997 380.110260,197.088043 
	C375.245148,196.540207 372.928436,192.961777 373.392883,186.584808 
	C374.734161,186.340637 376.153259,186.082291 377.846191,185.774094 
	C378.224060,186.877975 378.278809,188.039124 378.887360,188.610779 
	C380.223022,189.865585 381.838989,190.822037 383.340515,191.900299 
	C383.676422,190.006485 384.519135,188.017761 384.187897,186.248871 
	C383.922882,184.833694 382.230621,183.685791 380.904907,182.173309 
z"/>
<path fill="#FCF9F4" opacity="1.000000" stroke="none" 
	d="
M325.971252,176.200134 
	C325.019318,171.388351 324.122803,166.998138 323.132141,162.146774 
	C324.948914,162.016129 326.535919,161.902008 328.639984,161.750702 
	C330.123108,169.156006 331.572083,176.390762 333.021057,183.625534 
	C333.263367,183.610046 333.505676,183.594574 333.747986,183.579086 
	C334.815094,177.784348 336.175232,172.023438 336.849304,166.183334 
	C337.322205,162.085892 338.992889,161.009750 343.325348,162.444473 
	C341.789734,170.335892 340.255432,178.255615 338.703308,186.171860 
	C338.319611,188.128906 337.635437,190.059265 337.510925,192.028549 
	C337.204742,196.872009 334.651184,197.834534 330.063934,196.324539 
	C328.750061,189.912567 327.388397,183.267120 325.971252,176.200134 
z"/>
<path fill="#FAF5ED" opacity="1.000000" stroke="none" 
	d="
M195.241440,195.819305 
	C190.423096,196.519257 185.723877,196.839676 180.655899,197.185242 
	C180.655899,185.103241 180.655899,173.728622 180.655899,162.001678 
	C185.299774,162.001678 189.878708,162.001678 194.962296,162.001678 
	C195.041367,163.195709 195.130020,164.534332 195.236160,166.137070 
	C192.349014,166.294983 189.904633,166.428665 187.222534,166.575363 
	C187.222534,169.726578 187.222534,172.647827 187.222534,175.848251 
	C189.174240,175.998367 190.947830,176.134796 193.238617,176.310989 
	C193.328690,177.632721 193.420624,178.981873 193.532135,180.618347 
	C191.308304,180.799759 189.530258,180.944809 187.361328,181.121750 
	C187.361328,184.639404 187.361328,188.167099 187.361328,191.436035 
	C189.442810,194.272354 195.085098,189.143326 195.241440,195.819305 
z"/>
<path fill="#FEFEFD" opacity="1.000000" stroke="none" 
	d="
M236.650177,167.800842 
	C237.611893,178.440918 236.420609,179.769409 224.224152,181.738861 
	C224.224152,186.562881 224.224152,191.487747 224.224152,196.697784 
	C222.015610,196.697784 220.277283,196.697784 218.221802,196.697784 
	C218.221802,185.287750 218.221802,173.896652 218.221802,162.519012 
	C228.649750,160.301636 233.650040,161.645813 236.650177,167.800842 
M229.573151,166.938461 
	C227.917389,166.663269 226.261627,166.388077 224.385559,166.076263 
	C224.385559,170.009262 224.385559,173.236328 224.385559,176.430557 
	C230.979263,177.082047 232.336075,174.877731 229.573151,166.938461 
z"/>
<path fill="#FCFAF6" opacity="1.000000" stroke="none" 
	d="
M352.503723,191.561035 
	C354.565155,192.085815 356.430664,192.002640 358.158508,192.450531 
	C359.140533,192.705093 359.897339,193.828537 360.755554,194.560715 
	C359.939545,195.328964 359.160522,196.708694 358.301147,196.760727 
	C354.365692,196.999008 350.407715,196.865479 346.171783,196.865479 
	C346.171783,185.154007 346.171783,173.919891 346.171783,161.857483 
	C350.288696,161.857483 354.525879,161.756668 358.748138,161.962311 
	C359.408478,161.994476 360.539734,163.470734 360.473083,164.188202 
	C360.406494,164.905273 359.180420,165.933105 358.338043,166.072662 
	C356.577271,166.364334 354.734467,166.161011 352.526672,166.161011 
	C352.526672,169.549683 352.526672,172.577225 352.526672,175.846725 
	C354.388092,176.003922 356.170654,176.154465 357.948456,176.304611 
	C359.200958,180.356430 359.200958,180.356430 352.250122,181.403610 
	C352.250122,184.613770 352.250122,187.894623 352.503723,191.561035 
z"/>
<path fill="#FEFDFB" opacity="1.000000" stroke="none" 
	d="
M335.215179,72.895203 
	C335.307831,74.632355 335.400391,75.925682 335.453125,76.662285 
	C337.786438,79.540405 343.818542,75.058685 343.833954,81.904236 
	C338.746338,81.904236 334.159210,81.904236 329.269836,81.904236 
	C329.269836,70.363266 329.269836,58.966057 329.269836,47.279144 
	C333.942413,47.279144 338.523804,47.279144 343.774872,47.279144 
	C344.074799,53.969685 338.286804,50.361633 335.599121,52.385059 
	C335.599121,55.070988 335.599121,58.111542 335.599121,60.958057 
	C337.235199,63.230213 343.121918,59.417297 341.598389,65.884003 
	C339.723969,66.065506 337.804138,66.251411 335.215088,66.502121 
	C335.215088,68.574921 335.215088,70.513145 335.215179,72.895203 
z"/>
<path fill="#F8F3EA" opacity="1.000000" stroke="none" 
	d="
M363.193787,195.476379 
	C363.111572,184.111740 363.111572,173.190262 363.111572,161.958374 
	C365.404266,161.958374 367.301208,161.958374 369.474731,161.958374 
	C369.474731,173.593079 369.474731,184.953903 369.474731,197.194366 
	C367.146118,196.715469 365.211060,196.317505 363.193787,195.476379 
z"/>
<path fill="#FAF5ED" opacity="1.000000" stroke="none" 
	d="
M308.386658,95.268234 
	C307.894806,99.515564 306.080292,100.457916 302.248474,99.018105 
	C300.341736,98.301643 297.864594,99.103195 295.643951,99.218124 
	C295.376434,94.545525 296.928223,93.400238 301.075470,94.560936 
	C303.349426,95.197342 305.902130,94.837570 308.386658,95.268234 
z"/>
<path fill="#FBF7F1" opacity="1.000000" stroke="none" 
	d="
M315.969116,157.885956 
	C314.719147,158.629593 313.633850,159.065872 312.275543,159.611908 
	C313.099976,150.871078 313.727417,150.207138 319.922607,151.310745 
	C318.616455,153.471542 317.375122,155.525055 315.969116,157.885956 
z"/>
<path fill="#C29036" opacity="1.000000" stroke="none" 
	d="
M165.777161,176.795959 
	C164.706360,173.496780 164.053284,170.214127 163.332809,166.592743 
	C167.319046,165.892487 169.961151,166.118530 170.682190,169.721237 
	C171.402756,173.321426 170.759949,176.395935 165.777161,176.795959 
z"/>
<path fill="#C59541" opacity="1.000000" stroke="none" 
	d="
M191.290085,117.886139 
	C189.373505,118.696457 187.726151,119.199623 185.566559,119.859253 
	C185.566559,115.901779 185.566559,112.673851 185.566559,109.465530 
	C191.868622,108.323013 193.241837,110.231735 191.290085,117.886139 
z"/>
<path fill="#C08D31" opacity="1.000000" stroke="none" 
	d="
M207.914520,113.391083 
	C209.204498,111.599182 210.489166,110.264175 211.773849,108.929161 
	C212.835922,110.348419 214.722046,111.716209 214.814468,113.196030 
	C215.174988,118.968765 215.213333,124.794167 214.810089,130.560730 
	C214.699860,132.137115 212.823151,134.605759 211.419586,134.869629 
	C208.259995,135.463623 207.920929,132.705688 207.916931,130.239822 
	C207.908066,124.775879 207.911057,119.311913 207.914520,113.391083 
z"/>
<path fill="#C08D31" opacity="1.000000" stroke="none" 
	d="
M327.141693,127.807983 
	C327.089386,129.602814 327.399750,131.094070 326.885071,132.202103 
	C326.351044,133.351807 324.962646,134.940536 324.048035,134.877792 
	C322.741302,134.788147 320.480133,133.420227 320.437347,132.512817 
	C320.110504,125.581139 320.085205,118.623253 320.358826,111.689003 
	C320.397095,110.719452 322.787415,108.917175 323.712494,109.130775 
	C325.014252,109.431374 326.815155,111.188667 326.914429,112.441017 
	C327.306030,117.380997 327.116089,122.367073 327.141693,127.807983 
z"/>
<path fill="#C29036" opacity="1.000000" stroke="none" 
	d="
M308.825867,76.623993 
	C304.778015,79.191612 302.891968,77.645271 302.778564,73.697449 
	C302.603027,67.585869 302.519928,61.453606 302.876221,55.358089 
	C302.960114,53.922710 304.953400,52.598938 306.068329,51.223839 
	C307.302856,52.513329 309.574310,53.783302 309.598999,55.095543 
	C309.731750,62.152615 309.305939,69.220207 308.825867,76.623993 
z"/>
<path fill="#C3933D" opacity="1.000000" stroke="none" 
	d="
M231.155731,131.622513 
	C231.182800,124.212799 231.205872,117.261345 231.255127,110.310081 
	C231.257248,110.009773 231.500702,109.711166 231.670609,109.322945 
	C235.177689,108.362976 237.680908,109.351402 237.828644,113.301079 
	C238.045029,119.085701 238.155350,124.905769 237.701813,130.662750 
	C237.582230,132.180847 235.224838,133.522659 233.895050,134.945435 
	C232.982224,133.990570 232.069397,133.035690 231.155731,131.622513 
z"/>
<path fill="#C59541" opacity="1.000000" stroke="none" 
	d="
M245.172943,170.591003 
	C246.519897,168.771103 247.852386,167.388992 249.184875,166.006866 
	C250.349854,167.562775 252.396454,169.052185 252.519760,170.686661 
	C252.943542,176.305008 252.991150,181.998825 252.524628,187.609192 
	C252.380569,189.341614 250.136948,190.899445 248.854645,192.537216 
	C247.627426,190.851837 245.495056,189.244492 245.341782,187.466553 
	C244.872513,182.022476 245.163284,176.512878 245.172943,170.591003 
z"/>
<path fill="#C59541" opacity="1.000000" stroke="none" 
	d="
M185.365234,55.725906 
	C186.743439,53.923412 188.093170,52.546295 189.442902,51.169174 
	C190.575485,52.780987 192.566071,54.332203 192.684952,56.015606 
	C193.094147,61.809196 193.107056,67.667824 192.684692,73.458916 
	C192.568848,75.047325 190.403290,76.486244 189.178314,77.993759 
	C187.918701,76.534813 185.692551,75.151283 185.571777,73.603477 
	C185.120132,67.815201 185.357697,61.973156 185.365234,55.725906 
z"/>
<path fill="#C59541" opacity="1.000000" stroke="none" 
	d="
M300.807739,119.031822 
	C300.992706,117.481720 301.112946,116.329109 301.233154,115.176506 
	C301.501312,115.133827 301.769440,115.091156 302.037567,115.048485 
	C302.735321,118.771500 303.433075,122.494522 304.218628,126.686028 
	C302.702911,126.823845 301.528687,126.930611 299.655762,127.100899 
	C300.064240,124.218613 300.403595,121.823967 300.807739,119.031822 
z"/>
<path fill="#C29036" opacity="1.000000" stroke="none" 
	d="
M168.326157,109.269547 
	C169.200851,111.983284 170.280792,114.651131 169.899109,117.090263 
	C169.721222,118.227135 166.710663,118.920731 164.263092,120.188782 
	C164.263092,115.917465 164.263092,112.829498 164.263092,109.316895 
	C165.441452,109.256882 166.687195,109.193443 168.326157,109.269547 
z"/>
<path fill="#C59541" opacity="1.000000" stroke="none" 
	d="
M312.625427,174.971405 
	C312.874664,173.800217 313.030487,172.997238 313.186279,172.194275 
	C313.374115,172.180557 313.561920,172.166840 313.749725,172.153107 
	C314.415405,176.169449 315.081116,180.185776 315.806488,184.562241 
	C314.207001,184.651657 312.966797,184.720993 311.115082,184.824524 
	C311.624451,181.414627 312.078186,178.377136 312.625427,174.971405 
z"/>
<path fill="#C3933D" opacity="1.000000" stroke="none" 
	d="
M229.877472,167.228546 
	C232.336075,174.877731 230.979263,177.082047 224.385559,176.430557 
	C224.385559,173.236328 224.385559,170.009262 224.385559,166.076263 
	C226.261627,166.388077 227.917389,166.663269 229.877472,167.228546 
z"/>
</svg>