<svg version="1.1" id="Layer_1" xmlns="http://www.w3.org/2000/svg" xmlns:xlink="http://www.w3.org/1999/xlink" x="0px" y="0px"
	 width="100%" viewBox="0 0 490 490" enable-background="new 0 0 490 490" xml:space="preserve">
<path fill="#FFFFFF" opacity="1.000000" stroke="none" 
	d="
M1.000000,169.000000 
	C1.000000,112.680893 1.000000,56.861786 1.000000,1.021340 
	C164.277481,1.021340 327.554962,1.021340 490.916229,1.021340 
	C490.916229,164.235825 490.916229,327.471710 490.916229,490.853821 
	C327.666748,490.853821 164.333405,490.853821 1.000000,490.853821 
	C1.000000,383.778259 1.000000,276.639130 1.000000,169.000000 
M462.494019,5.998672 
	C315.497406,5.998681 168.500809,5.998377 21.504210,5.999303 
	C9.918669,5.999376 5.999242,9.951810 5.999185,21.632013 
	C5.998443,171.128586 5.998528,320.625153 5.998985,470.121735 
	C5.999022,482.151855 9.818318,486.000793 21.757956,486.000854 
	C171.254532,486.001434 320.751099,486.001434 470.247681,486.000854 
	C482.182709,486.000793 486.000916,482.150024 486.000977,470.116119 
	C486.001373,320.786194 486.001221,171.456284 486.001099,22.126371 
	C486.001099,20.793070 486.041931,19.458139 485.991089,18.126741 
	C485.721283,11.060585 481.016998,6.267939 473.989349,6.023167 
	C470.493652,5.901414 466.990234,5.999846 462.494019,5.998672 
z"/>
<path fill="#407E45" opacity="1.000000" stroke="none" 
	d="
M462.992188,5.998672 
	C466.990234,5.999846 470.493652,5.901414 473.989349,6.023167 
	C481.016998,6.267939 485.721283,11.060585 485.991089,18.126741 
	C486.041931,19.458139 486.001099,20.793070 486.001099,22.126371 
	C486.001221,171.456284 486.001373,320.786194 486.000977,470.116119 
	C486.000916,482.150024 482.182709,486.000793 470.247681,486.000854 
	C320.751099,486.001434 171.254532,486.001434 21.757956,486.000854 
	C9.818318,486.000793 5.999022,482.151855 5.998985,470.121735 
	C5.998528,320.625153 5.998443,171.128586 5.999185,21.632013 
	C5.999242,9.951810 9.918669,5.999376 21.504210,5.999303 
	C168.500809,5.998377 315.497406,5.998681 462.992188,5.998672 
M255.492310,227.938904 
	C201.106140,226.546921 152.633896,242.766327 110.187294,276.826996 
	C96.098549,288.132324 83.501175,300.898254 72.765388,315.478577 
	C71.015297,317.855377 70.935333,319.443817 72.784592,321.946808 
	C87.386436,341.710571 104.891006,358.503204 125.207611,372.168274 
	C174.430954,405.276184 228.634918,416.453400 286.983673,406.989349 
	C343.633148,397.800964 388.862274,369.130554 424.634338,324.720184 
	C427.952789,320.600372 427.846130,318.068207 424.508575,313.893158 
	C381.385559,259.948730 325.764313,230.658875 255.492310,227.938904 
M91.116508,69.720459 
	C91.100777,71.384415 91.159821,73.053032 91.056412,74.711525 
	C90.602486,81.991852 87.732040,84.745262 80.444221,85.006737 
	C79.685188,85.033974 78.931358,85.205994 78.258896,85.299225 
	C78.258896,89.611038 78.258896,93.545822 78.258896,97.426949 
	C89.327141,99.357971 91.133240,101.573723 91.160744,113.041649 
	C91.164337,114.538422 91.127495,116.041466 90.994087,117.531288 
	C90.486282,123.202423 88.084015,125.884064 83.652931,125.806305 
	C79.803604,125.738739 77.457886,122.823318 76.973747,117.371986 
	C76.756607,114.926979 76.686142,112.468948 76.534477,109.754761 
	C70.663010,109.754761 65.098312,109.754761 59.015675,109.754761 
	C59.253567,113.217758 59.282059,116.357712 59.711731,119.441788 
	C62.359600,138.447464 82.334503,147.328415 98.446342,136.562103 
	C100.847664,134.957489 103.025864,132.587936 104.487770,130.092209 
	C108.320389,123.549339 108.736694,116.268265 108.289093,108.829552 
	C107.818405,101.007141 105.106186,94.546471 97.842239,90.428352 
	C110.139786,84.368141 110.209404,67.412239 105.877640,57.884811 
	C101.121582,47.424168 87.378342,43.174091 73.695030,47.692867 
	C62.976856,51.232437 57.203041,62.805008 59.752876,75.670471 
	C65.311630,75.670471 70.867699,75.670471 76.258743,75.670471 
	C76.816193,71.569855 76.737030,67.593071 78.068085,64.163620 
	C78.802711,62.270870 81.832352,60.349697 83.958725,60.189980 
	C85.861641,60.047043 88.328674,61.957214 89.817726,63.616001 
	C90.869034,64.787148 90.702019,67.051933 91.116508,69.720459 
M57.750732,64.501816 
	C57.750732,58.888233 57.750732,53.274647 57.750732,47.823200 
	C49.008396,45.476849 42.629402,49.241188 35.464294,52.686771 
	C27.925182,56.312202 25.624981,60.818974 26.919384,68.301643 
	C26.997698,68.754364 27.159935,69.192581 27.335255,69.825851 
	C31.465645,68.441170 35.498009,67.089348 40.181419,65.519272 
	C40.181419,90.363503 40.181419,114.563011 40.181419,138.670593 
	C46.271133,138.670593 51.836170,138.670593 57.750618,138.670593 
	C57.750618,114.055397 57.750618,89.778198 57.750732,64.501816 
M177.057098,127.776138 
	C177.627151,125.328850 178.197220,122.881561 178.767273,120.434273 
	C179.212280,120.502960 179.657272,120.571640 180.102280,120.640327 
	C180.102280,126.837204 180.102280,133.034073 180.102280,139.659836 
	C182.111740,139.466736 183.477646,139.335464 184.376587,139.249084 
	C184.376587,127.427841 184.376587,116.149559 184.376587,104.992531 
	C179.803329,103.635460 177.359497,104.176056 176.704773,109.195946 
	C175.939529,115.063225 174.230698,120.807434 172.611023,128.033630 
	C170.772156,119.293854 169.248215,112.050880 167.708328,104.732178 
	C165.389420,104.732178 163.320908,104.732178 160.787094,104.732178 
	C160.787094,116.463348 160.787094,127.854225 160.787094,139.341583 
	C162.287491,139.341583 163.555435,139.341583 165.535797,139.341583 
	C165.535797,132.891571 165.535797,126.681023 165.535797,120.470474 
	C167.868698,125.843788 168.884415,131.343140 170.224716,136.762192 
	C170.494965,137.854813 171.995590,138.643112 172.928970,139.571716 
	C173.671921,138.678360 174.780487,137.894394 175.086914,136.870407 
	C175.894730,134.171021 176.354233,131.367401 177.057098,127.776138 
M289.124939,168.443100 
	C289.124939,166.324738 289.124939,164.206360 289.124939,162.293304 
	C283.971039,160.751801 281.920380,162.403198 281.278778,167.138641 
	C280.523682,172.711304 279.018280,178.182312 277.838257,183.697418 
	C277.597412,183.713028 277.356567,183.728638 277.115723,183.744263 
	C275.569000,176.538498 274.022278,169.332748 272.495850,162.221619 
	C270.070435,162.221619 268.028198,162.221619 265.578583,162.221619 
	C265.578583,173.902283 265.578583,185.175751 265.578583,196.835403 
	C267.128052,196.726913 268.489441,196.631592 270.637878,196.481186 
	C270.637878,190.183731 270.637878,184.282791 270.637878,178.381836 
	C272.796753,183.582855 273.780365,188.796432 275.067383,193.934006 
	C275.346008,195.046249 276.714966,195.885330 277.581726,196.850250 
	C278.407196,195.840134 279.688293,194.945679 279.979187,193.799850 
	C281.235229,188.851685 282.201355,183.829910 283.551666,177.536011 
	C284.191284,184.859055 284.705505,190.746552 285.206177,196.478806 
	C289.005402,197.637833 289.962219,196.209045 289.807312,192.878998 
	C289.443359,185.056473 289.346466,177.221527 289.124939,168.443100 
M178.450470,192.689560 
	C178.749069,184.488327 179.418060,176.271790 179.079865,168.096893 
	C178.997681,166.110245 175.883514,163.152084 173.667221,162.587036 
	C169.503174,161.525345 164.977325,161.882645 160.780807,161.659409 
	C160.780807,173.917236 160.780807,185.279617 160.780807,197.024918 
	C166.935089,196.175964 173.287216,198.931366 178.450470,192.689560 
M413.236359,129.501343 
	C412.134918,126.414658 411.033478,123.327972 409.780426,119.816391 
	C413.135284,117.641640 413.344391,113.097221 411.339600,109.544563 
	C409.943756,107.071014 406.121979,105.456223 403.062531,104.579712 
	C400.186401,103.755722 396.888763,104.403091 393.547668,104.403091 
	C393.547668,116.336639 393.547668,127.696579 393.547668,139.483780 
	C397.265717,139.483780 400.732239,139.733246 404.149536,139.429474 
	C410.383301,138.875351 412.338898,136.752258 413.236359,129.501343 
M308.778290,64.532028 
	C310.843079,69.433044 312.726959,74.423431 315.077728,79.183197 
	C315.829254,80.704803 317.817902,81.615402 319.240509,82.805557 
	C319.600189,82.422081 319.959900,82.038605 320.319580,81.655128 
	C320.319580,70.214630 320.319580,58.774139 320.319580,46.959614 
	C318.479797,47.068218 316.919250,47.160343 314.974579,47.275143 
	C314.974579,53.201637 314.974579,58.734383 314.974579,64.267128 
	C312.177765,59.754284 310.001801,55.154499 308.190765,50.415272 
	C307.047974,47.424839 305.546051,46.046032 302.376831,47.481518 
	C302.376831,59.016277 302.376831,70.445656 302.376831,82.215286 
	C304.265869,82.097885 305.840698,82.000008 307.976440,81.867271 
	C307.976440,75.846306 307.976440,70.212555 308.778290,64.532028 
M278.599426,72.786476 
	C279.679565,80.160233 282.639038,83.013161 288.993103,82.805916 
	C295.271393,82.601128 298.470886,79.298759 298.770050,72.056480 
	C298.995850,66.590797 299.066223,61.071011 298.561310,55.635162 
	C297.962921,49.192448 294.674561,46.717670 288.192230,46.866505 
	C282.137360,47.005531 279.056183,49.710201 278.651855,55.975964 
	C278.310394,61.268223 278.539429,66.597298 278.599426,72.786476 
M200.527618,73.169769 
	C201.230392,67.383301 197.543304,69.286903 194.463058,69.436295 
	C194.331268,71.431297 194.591507,73.220573 194.003601,74.664513 
	C193.489410,75.927383 192.150146,77.365799 190.928329,77.644791 
	C190.146286,77.823372 188.060257,76.071014 188.022446,75.125763 
	C187.743790,68.160103 187.693604,61.174290 187.961685,54.209843 
	C188.001099,53.185966 190.101929,52.241436 191.248962,51.260185 
	C192.212372,52.399422 193.539993,53.399799 194.041473,54.715153 
	C194.593903,56.164112 194.387390,57.902439 194.518082,59.600136 
	C196.641632,59.600136 198.387619,59.600136 200.094101,59.600136 
	C201.186462,51.495636 198.737305,47.469734 192.584259,46.922794 
	C184.906036,46.240284 181.237961,49.566391 181.041550,57.611084 
	C180.919754,62.599876 180.554230,67.660538 181.224747,72.562180 
	C181.638351,75.585762 183.354752,78.716560 185.283722,81.173012 
	C187.542526,84.049507 190.667862,86.245567 194.023788,89.286308 
	C191.293137,90.004097 189.708466,90.420647 188.123810,90.837196 
	C188.120300,91.404266 188.116791,91.971344 188.113297,92.538414 
	C190.111313,92.657715 192.236008,93.237892 194.063248,92.735710 
	C195.299469,92.395950 197.200531,90.049736 196.927689,89.438248 
	C195.935394,87.214310 194.153046,85.342888 192.380905,82.950127 
	C197.042587,82.266228 200.149933,79.320915 200.527618,73.169769 
M224.036148,66.447174 
	C224.082474,68.934456 223.915497,71.447937 224.217133,73.903862 
	C224.970215,80.035553 228.623611,83.053040 234.661407,82.808304 
	C240.519150,82.570862 243.781479,79.588791 244.080597,73.442711 
	C244.370361,67.488449 244.357147,61.495251 244.040253,55.542404 
	C243.719406,49.515465 240.440689,46.861839 234.195007,46.858601 
	C228.109192,46.855442 224.705307,49.661236 224.166809,55.526924 
	C223.864532,58.819214 224.063095,62.157478 224.036148,66.447174 
M389.135101,109.763573 
	C386.364136,104.750259 382.275085,102.929665 376.716217,104.310684 
	C371.708099,105.554871 369.821991,109.091133 369.835083,113.939789 
	C369.850342,119.590408 369.692291,125.250870 369.973938,130.888855 
	C370.276306,136.941147 373.613861,139.901566 379.588470,139.998291 
	C385.617432,140.095901 389.421387,137.330673 389.735840,131.412857 
	C390.104187,124.481964 389.558044,117.502480 389.135101,109.763573 
M231.417953,125.185616 
	C231.306305,120.877274 231.339676,116.558868 231.041611,112.263466 
	C230.752518,108.097412 228.341690,105.484032 224.179337,105.007004 
	C220.287552,104.560989 216.347885,104.532852 212.220490,104.309494 
	C212.220490,116.334129 212.220490,127.699257 212.220490,139.026550 
	C226.509933,141.331268 230.937561,138.302185 231.417953,125.185616 
M264.088928,125.315926 
	C265.678589,129.145248 267.067291,133.078110 268.959900,136.751343 
	C269.685028,138.158737 271.561157,138.973129 273.872131,140.827530 
	C273.872131,127.683762 273.872131,116.303902 273.872131,104.688599 
	C272.209198,104.688599 270.807343,104.688599 268.789917,104.688599 
	C268.789917,110.666435 268.789917,116.415146 268.789917,122.163864 
	C265.909454,117.333389 263.728729,112.505905 261.795715,107.581207 
	C260.678589,104.735138 259.079285,103.694649 256.257324,104.892296 
	C256.257324,116.497406 256.257324,127.878662 256.257324,139.311768 
	C258.014160,139.311768 259.437561,139.311768 261.546753,139.311768 
	C261.546753,133.452057 261.546753,127.833382 261.546753,122.214714 
	C261.892242,122.163773 262.237701,122.112831 262.583191,122.061890 
	C263.005341,122.885292 263.427521,123.708702 264.088928,125.315926 
M194.878586,122.459541 
	C194.878586,116.546181 194.878586,110.632820 194.878586,104.378311 
	C192.375397,104.492569 190.632889,104.572105 188.890656,104.651634 
	C188.890656,114.226219 188.589737,123.344955 189.005676,132.430862 
	C189.247742,137.718643 192.567596,139.958511 198.256302,139.999725 
	C203.905319,140.040649 207.598022,137.699829 207.824738,132.695663 
	C208.243500,123.453293 207.944473,114.178391 207.944473,104.708382 
	C205.922211,104.708382 204.187347,104.708382 202.233612,104.708382 
	C202.155884,106.282349 202.042435,107.578362 202.036057,108.874893 
	C202.000031,116.193840 202.196014,123.524139 201.799194,130.822632 
	C201.718399,132.309006 199.440247,133.675903 198.175034,135.097885 
	C197.091446,133.707672 195.416168,132.452103 195.062012,130.895889 
	C194.521408,128.520493 194.893784,125.937302 194.878586,122.459541 
M343.753845,126.177780 
	C343.902863,127.634308 344.566803,129.301544 344.077667,130.496933 
	C343.380585,132.200516 341.837585,133.557983 340.655945,135.063293 
	C339.403595,133.454712 337.209442,131.922653 337.071350,130.223541 
	C336.614197,124.597115 336.648529,118.892090 337.062653,113.259018 
	C337.175079,111.729630 339.292664,110.347664 340.489929,108.898033 
	C341.615295,110.245377 342.886078,111.502426 343.803162,112.979111 
	C344.245331,113.691086 344.021454,114.816704 344.099487,115.758980 
	C346.226440,115.758980 347.985016,115.758980 349.726776,115.758980 
	C350.118042,107.871407 347.657257,104.514557 341.334351,104.029282 
	C334.524902,103.506653 330.824707,106.591934 330.344421,113.899933 
	C329.984894,119.370537 329.915955,124.918762 330.395111,130.372910 
	C331.215912,139.716263 337.397980,142.482773 344.474457,137.981186 
	C346.576080,138.701111 348.057068,139.208435 349.855835,139.824615 
	C349.855835,133.341537 349.855835,127.757278 349.855835,122.155182 
	C346.671173,122.155182 343.784698,122.155182 340.898254,122.155182 
	C340.663177,122.511719 340.428131,122.868248 340.193054,123.224785 
	C341.115936,124.125420 342.038788,125.026054 343.753845,126.177780 
M277.759827,120.525360 
	C278.341003,125.737854 277.743805,131.502945 279.852264,135.999237 
	C281.759125,140.065598 286.620789,142.746353 290.816986,146.627762 
	C288.129700,147.427078 286.532867,147.902054 283.562256,148.785645 
	C287.525940,151.566956 290.701752,151.128769 292.658600,148.795853 
	C296.628174,144.063354 290.765167,143.255524 288.501190,141.092865 
	C296.948090,135.970825 297.914703,134.191025 296.469269,126.733124 
	C294.734528,126.733124 292.995361,126.733124 290.916870,126.733124 
	C290.916870,128.692413 291.319977,130.487595 290.794037,131.948227 
	C290.343048,133.200638 288.837677,134.879486 287.782654,134.890854 
	C286.633698,134.903229 284.507721,133.255249 284.461731,132.255081 
	C284.149506,125.463554 284.129059,118.645874 284.412750,111.853271 
	C284.455811,110.822502 286.834564,108.895096 287.660675,109.119675 
	C288.964020,109.474007 290.186737,111.150459 290.842743,112.549103 
	C291.409790,113.758110 291.140472,115.359413 291.236206,116.720627 
	C293.362732,116.720627 295.105591,116.720627 296.823792,116.720627 
	C297.416290,107.714645 294.928314,104.210617 288.027832,104.013168 
	C281.021698,103.812698 277.969177,107.243599 277.774628,115.556259 
	C277.743500,116.885414 277.763397,118.215767 277.759827,120.525360 
M348.510498,66.523323 
	C349.671417,67.466011 351.459381,68.189781 351.878937,69.391327 
	C353.288452,73.428398 354.210297,77.635735 355.329620,81.818260 
	C357.439117,81.818260 359.316742,81.818260 361.632324,81.818260 
	C360.382874,77.405174 359.251038,73.426369 358.131012,69.444244 
	C357.464935,67.076126 357.735931,65.340561 359.115753,62.823849 
	C360.781250,59.786152 360.907745,55.065720 359.827881,51.668930 
	C359.154449,49.550694 355.179810,47.850285 352.397217,47.199081 
	C349.142914,46.437492 345.573853,47.021042 342.153137,47.021042 
	C342.153137,59.012821 342.153137,70.410370 342.153137,81.911049 
	C344.185638,81.911049 345.925476,81.911049 348.183655,81.911049 
	C348.183655,76.880104 348.183655,72.094284 348.510498,66.523323 
M182.835892,172.742554 
	C182.854233,177.552399 182.746460,182.366806 182.921097,187.170975 
	C183.170898,194.043488 186.190430,197.039703 192.621292,197.128311 
	C199.244217,197.219559 202.614288,194.090302 202.922943,187.144882 
	C203.143646,182.178604 203.084595,177.192886 202.966995,172.220184 
	C202.790070,164.740646 199.616592,161.292191 193.071793,161.198975 
	C186.492950,161.105255 183.343765,164.376312 182.835892,172.742554 
M222.398758,167.375748 
	C231.497787,163.073425 226.372421,172.519226 229.501205,174.614212 
	C230.899628,174.549103 232.650681,174.467575 234.337143,174.389053 
	C235.024612,165.305954 232.451675,161.565765 225.639648,161.181320 
	C218.590347,160.783493 215.108551,164.629364 215.025497,173.048370 
	C214.976227,178.043076 214.838806,183.053436 215.151840,188.030914 
	C215.523956,193.948212 218.472397,196.904099 223.652267,197.247086 
	C232.019485,197.801147 235.474899,193.558670 234.217941,184.078918 
	C232.335190,184.078918 230.432938,184.078918 228.435867,184.078918 
	C228.365540,185.565659 228.659393,186.900360 228.178818,187.838242 
	C227.347519,189.460648 226.035919,190.836914 224.925781,192.316422 
	C223.857315,190.921265 221.918304,189.556015 221.869171,188.125854 
	C221.641083,181.487900 221.936905,174.831970 222.398758,167.375748 
M264.029663,52.370140 
	C272.602203,48.961781 268.177185,57.284611 270.494843,59.533638 
	C272.225372,59.533638 273.955933,59.533638 275.758179,59.533638 
	C275.848724,58.556126 275.972839,57.904747 275.959290,57.256248 
	C275.811310,50.183826 273.308044,47.197144 267.293640,46.880512 
	C260.394409,46.517296 257.034607,49.168884 256.523834,56.259892 
	C256.119324,61.876453 256.145325,67.572731 256.574036,73.188271 
	C257.109802,80.205238 262.002380,83.862900 268.348358,82.613525 
	C274.629120,81.376999 277.145264,76.480049 275.186768,69.352394 
	C273.557098,69.352394 271.937653,69.352394 270.096985,69.352394 
	C269.981415,70.846191 270.254303,72.335098 269.696167,73.380112 
	C268.816345,75.027306 267.377991,76.376167 266.176056,77.851318 
	C265.113281,76.395088 263.175659,74.961304 263.137604,73.478790 
	C262.963654,66.699272 263.322235,59.906101 264.029663,52.370140 
M244.261124,104.392311 
	C242.629425,105.074081 239.780289,105.479469 239.553116,106.480103 
	C237.103699,117.269669 235.067154,128.152969 232.850510,139.350098 
	C235.113724,139.350098 236.869003,139.350098 238.697876,139.350098 
	C239.306915,136.760162 239.867996,134.374115 240.435074,131.962585 
	C243.636398,131.486694 246.851303,130.568878 246.971695,135.380417 
	C247.090714,140.136658 249.768021,140.220612 253.633606,139.016068 
	C251.437576,128.142578 249.309006,117.421005 247.044098,106.728310 
	C246.859604,105.857285 245.743546,105.183586 244.261124,104.392311 
M432.075439,123.231453 
	C431.194855,118.833183 429.942963,114.469566 429.528442,110.027809 
	C429.019684,104.576134 426.489136,103.202248 421.265656,105.052773 
	C419.058899,116.199020 416.812897,127.543602 414.519409,139.127991 
	C417.840698,139.651520 420.853241,140.834229 421.072601,136.158661 
	C421.292999,131.460587 423.858582,130.763763 427.873871,132.188766 
	C428.423035,134.559082 428.972076,136.928787 429.591217,139.601105 
	C431.539246,139.510666 433.225525,139.432388 435.348633,139.333817 
	C434.210724,133.795990 433.211670,128.933853 432.075439,123.231453 
M300.670074,129.046600 
	C300.015167,132.383621 299.360291,135.720642 298.673279,139.221283 
	C301.130829,139.221283 302.853546,139.221283 304.488495,139.221283 
	C305.134125,136.464172 305.690674,134.087585 306.202728,131.900879 
	C309.625031,131.372513 312.631409,130.978378 312.740814,135.239594 
	C312.858978,139.842422 315.177979,140.407578 319.329926,138.894897 
	C317.233856,128.461548 315.254547,118.049240 312.926086,107.715599 
	C312.628967,106.396950 310.670258,104.953384 309.198639,104.513542 
	C306.883148,103.821472 305.303070,104.722076 304.835419,107.676071 
	C303.745789,114.558350 302.207428,121.369583 300.670074,129.046600 
M179.150208,80.543350 
	C177.006058,69.489891 174.861893,58.436432 172.685944,47.219013 
	C170.269592,47.219013 168.165375,47.219013 165.668900,47.219013 
	C163.392349,58.710930 161.120987,70.176620 158.799286,81.896431 
	C161.130127,81.896431 162.872757,81.896431 164.620956,81.896431 
	C165.258133,79.110237 165.835129,76.587257 166.354218,74.317436 
	C168.553482,74.317436 170.312729,74.317436 172.160202,74.317436 
	C172.712265,76.991219 173.208481,79.394531 173.812378,82.319374 
	C175.740326,82.005165 177.436600,81.728714 179.150208,80.543350 
M413.981384,79.679070 
	C411.804138,68.820740 409.626862,57.962414 407.487823,47.294739 
	C404.847015,47.294739 402.754150,47.294739 400.500397,47.294739 
	C398.209351,58.897442 395.971771,70.229225 393.666107,81.905777 
	C395.948029,81.905777 397.679321,81.905777 399.477081,81.905777 
	C400.118866,79.153175 400.704651,76.640846 401.254669,74.281960 
	C403.422211,74.281960 405.191437,74.281960 407.025574,74.281960 
	C407.558441,76.932304 408.042877,79.341591 408.728821,82.753242 
	C410.750854,81.923576 412.404602,81.245010 413.981384,79.679070 
M203.152481,75.629074 
	C202.827469,77.680115 202.502472,79.731148 202.159180,81.897629 
	C204.330963,81.897629 206.082657,81.897629 207.877640,81.897629 
	C208.435318,79.232536 208.938354,76.828568 209.462143,74.325348 
	C211.526398,74.325348 213.415604,74.325348 215.395218,74.325348 
	C215.924301,76.994057 216.400436,79.395592 216.891830,81.874161 
	C218.919861,81.874161 220.659241,81.874161 222.737854,81.874161 
	C220.373901,70.055275 218.081833,58.595684 215.816162,47.268127 
	C213.217880,47.268127 211.136459,47.268127 208.887985,47.268127 
	C207.005615,56.603188 205.171066,65.701012 203.152481,75.629074 
M304.979187,189.235641 
	C305.317566,190.319534 305.918610,191.396225 305.948547,192.488571 
	C306.074005,197.067749 308.578247,197.536377 312.638489,196.327957 
	C310.317383,184.790955 308.015045,173.347153 305.790314,162.289322 
	C299.988220,160.552490 298.266693,162.776367 297.506775,167.821106 
	C296.063293,177.404083 293.822937,186.867004 291.878601,196.553833 
	C294.275787,196.553833 296.015015,196.553833 297.720367,196.553833 
	C298.351105,193.865021 298.910583,191.479843 299.507812,188.933838 
	C301.209167,188.933838 302.687469,188.933838 304.979187,189.235641 
M365.615997,82.175674 
	C371.962524,82.713318 368.587860,76.688141 370.976868,74.328949 
	C372.733551,74.328949 374.627380,74.328949 376.444000,74.328949 
	C377.075836,77.148125 377.638580,79.659012 378.222870,82.265976 
	C380.359772,82.121635 381.962769,82.013351 383.861298,81.885109 
	C381.491821,70.043732 379.197784,58.579586 376.930206,47.247414 
	C374.299133,47.247414 372.206146,47.247414 369.979218,47.247414 
	C367.806915,58.213989 365.647827,68.949112 363.622375,79.709389 
	C363.487488,80.426003 364.367004,81.333557 365.615997,82.175674 
M322.346405,48.530010 
	C321.605652,53.287361 325.721466,51.207130 328.091583,52.453190 
	C328.091583,62.164730 328.091583,72.071709 328.091583,81.952621 
	C330.375488,81.952621 332.169495,81.952621 334.579163,81.952621 
	C334.579163,71.879829 334.579163,62.007332 334.579163,52.181652 
	C336.632568,51.920040 338.074005,51.736393 339.854553,51.509541 
	C339.777100,49.930737 339.710602,48.575546 339.617371,46.675449 
	C333.630829,47.031170 328.068878,47.361664 322.346405,48.530010 
M439.748352,104.350525 
	C438.960510,104.993095 437.494385,105.626892 437.485931,106.279533 
	C437.344421,117.222832 437.384857,128.168488 437.384857,139.659912 
	C441.727722,139.659912 445.518402,139.582596 449.304443,139.681793 
	C453.053406,139.779999 452.980225,137.921631 451.735748,134.956238 
	C449.293610,134.956238 446.857971,134.956238 443.993378,134.956238 
	C443.993378,125.798729 443.925751,117.004440 444.035553,108.212364 
	C444.067535,105.653656 443.716156,103.883667 439.748352,104.350525 
M362.383850,139.602661 
	C364.348846,139.602661 366.313873,139.602661 368.763397,139.602661 
	C369.001221,131.973465 362.388458,137.126328 359.947266,133.535538 
	C359.947266,124.552460 359.947266,114.655228 359.947266,104.726395 
	C357.688538,104.726395 355.944061,104.726395 354.195618,104.726395 
	C354.195618,116.438339 354.195618,127.824287 354.195618,139.602356 
	C356.847137,139.602356 359.152496,139.602356 362.383850,139.602661 
M237.818573,189.427704 
	C237.818573,191.824203 237.818573,194.220703 237.818573,196.534042 
	C252.167053,197.664825 252.612000,197.546082 252.278427,192.681183 
	C249.729172,192.506058 247.138428,192.328064 244.085297,192.118332 
	C244.085297,182.055038 244.085297,172.165451 244.085297,162.208496 
	C241.738831,162.208496 239.894623,162.208496 237.818573,162.208496 
	C237.818573,171.209763 237.818573,179.828674 237.818573,189.427704 
M260.270599,196.695648 
	C260.270599,185.209686 260.270599,173.723709 260.270599,162.085175 
	C258.839966,162.085175 257.104736,162.085175 255.209167,162.085175 
	C255.209167,173.700043 255.209167,185.069458 255.209167,196.820709 
	C256.774414,196.820709 258.069672,196.820709 260.270599,196.695648 
M219.007629,38.309902 
	C215.254608,37.942116 211.494141,37.313641 207.754654,37.420273 
	C206.980453,37.442348 206.284164,40.196438 205.813507,41.157406 
	C209.359299,41.595417 211.916550,42.359112 214.339584,42.054661 
	C215.980118,41.848522 217.431900,40.140312 219.007629,38.309902 
z"/>
<path fill="#FEFEFE" opacity="1.000000" stroke="none" 
	d="
M255.990021,227.947678 
	C325.764313,230.658875 381.385559,259.948730 424.508575,313.893158 
	C427.846130,318.068207 427.952789,320.600372 424.634338,324.720184 
	C388.862274,369.130554 343.633148,397.800964 286.983673,406.989349 
	C228.634918,416.453400 174.430954,405.276184 125.207611,372.168274 
	C104.891006,358.503204 87.386436,341.710571 72.784592,321.946808 
	C70.935333,319.443817 71.015297,317.855377 72.765388,315.478577 
	C83.501175,300.898254 96.098549,288.132324 110.187294,276.826996 
	C152.633896,242.766327 201.106140,226.546921 255.990021,227.947678 
M267.757965,325.671448 
	C265.838379,326.404846 263.918793,327.138245 261.523987,328.053223 
	C266.263092,332.412689 268.698547,332.093048 271.723358,327.697937 
	C273.260773,324.976318 275.529694,322.399872 276.107697,319.487793 
	C276.583435,317.090698 276.248199,314.235748 279.136047,314.389191 
	C281.029114,314.489838 283.384796,316.498138 284.493256,318.293976 
	C286.210938,321.076813 286.921021,324.461029 288.273712,327.494202 
	C290.760956,333.071533 297.184448,337.805145 301.973480,337.480774 
	C301.556732,336.186584 301.302734,334.912476 300.756805,333.778961 
	C296.046448,323.998871 296.712036,322.171722 306.357269,317.829590 
	C309.912598,316.229034 312.970795,314.354675 309.969086,309.574036 
	C309.199371,308.348145 309.709839,306.318451 309.595551,303.874817 
	C311.352112,304.905090 312.121429,305.567688 313.009857,305.836426 
	C315.354736,306.545715 317.751251,307.084229 320.127228,307.690735 
	C320.683746,305.252014 322.216614,302.556854 321.653412,300.412201 
	C308.863312,251.706741 252.373291,229.908966 210.780426,256.161163 
	C215.903168,255.789734 220.119019,255.364563 224.344910,255.205048 
	C231.086639,254.950546 232.260635,256.052551 233.885376,262.532440 
	C234.251633,263.993164 235.590118,265.267578 236.649490,266.480652 
	C237.675659,267.655701 238.918747,268.641296 240.513580,270.126373 
	C235.142853,272.960968 231.063705,276.774536 225.570206,277.418243 
	C225.295883,276.940887 225.021561,276.463501 224.747223,275.986145 
	C227.547760,274.112366 230.348282,272.238617 233.148804,270.364838 
	C233.010910,269.911987 232.873001,269.459167 232.735107,269.006317 
	C231.010590,269.006317 229.258759,268.808350 227.566483,269.041931 
	C221.484436,269.881470 215.380814,270.662689 209.371933,271.889984 
	C206.687363,272.438263 204.014343,273.688202 201.685883,275.169525 
	C198.851044,276.973022 199.163452,279.169464 201.969803,281.026215 
	C207.452332,284.653625 211.834000,284.191467 217.076401,279.901062 
	C218.374664,278.838531 220.521667,278.813019 222.278534,278.310791 
	C215.388733,286.183502 215.389664,286.174530 206.008957,285.210358 
	C205.019485,285.108643 203.943481,284.958191 203.022827,285.226135 
	C198.030106,286.679504 192.244553,286.944275 190.869537,293.819916 
	C190.696304,294.686188 188.116928,295.346527 186.570526,295.597046 
	C184.369064,295.953735 181.809448,295.257660 179.954041,296.153229 
	C178.860474,296.681091 178.560638,299.404480 178.486725,301.164948 
	C178.463928,301.708252 180.560959,303.028839 181.349045,302.804596 
	C185.936783,301.499176 190.703751,300.363312 194.859955,298.141113 
	C198.462769,296.214783 200.293900,296.800140 202.032928,300.091309 
	C203.072235,302.058228 204.331223,303.909058 205.491455,305.812073 
	C205.777878,305.687317 206.064301,305.562531 206.350723,305.437775 
	C206.130051,303.694885 205.909378,301.952026 205.722092,300.472870 
	C208.036636,301.423401 210.089722,302.279968 212.153763,303.109253 
	C213.408859,303.613495 215.714661,304.019623 215.744446,304.567810 
	C215.822556,306.006073 215.207764,308.535675 214.341995,308.782654 
	C211.185059,309.683167 207.628296,310.707275 204.562485,310.063751 
	C199.249405,308.948547 194.275330,306.309875 189.004333,304.881073 
	C181.058624,302.727203 174.755997,307.214447 175.253769,315.503510 
	C175.826782,325.045563 177.405136,334.595093 179.400116,343.959564 
	C180.685089,349.991272 182.220596,350.332825 187.852692,347.139618 
	C191.473480,345.086761 194.262848,345.106537 196.953842,348.373383 
	C198.635269,350.414612 199.126282,353.925873 203.007355,353.448425 
	C203.211395,353.423309 203.657608,354.536865 203.823853,355.164581 
	C205.269684,360.624329 206.746536,366.077515 208.072388,371.566864 
	C208.989166,375.362579 210.898056,376.809326 214.912506,375.664886 
	C220.230423,374.148895 223.433182,370.775818 225.098511,365.667999 
	C225.713684,363.781189 225.929810,361.447845 227.185959,360.146149 
	C230.868896,356.329681 230.952362,351.625824 231.726318,346.889038 
	C232.197327,344.006409 233.515213,340.840546 235.448425,338.702148 
	C240.140442,333.512115 240.176682,332.551117 234.324020,328.571808 
	C229.683411,325.416595 226.530350,321.311340 226.783524,313.910034 
	C230.079651,317.364075 232.382675,319.915771 234.835892,322.313782 
	C238.032791,325.438751 242.239868,325.085114 245.757492,321.645874 
	C249.377411,318.106628 246.618866,315.718872 244.298782,313.296753 
	C242.571579,311.493591 240.625366,309.896759 238.938309,308.059601 
	C237.605194,306.607910 236.517960,304.930420 235.321518,303.353180 
	C235.637878,303.034973 235.954239,302.716766 236.270615,302.398560 
	C239.484833,304.255554 242.844910,305.907318 245.857574,308.048004 
	C247.613861,309.295929 249.413300,311.103790 250.137375,313.052185 
	C251.564621,316.892700 254.078522,318.835541 257.825531,320.123993 
	C261.381653,321.346832 264.672791,323.340393 267.757965,325.671448 
M305.012939,343.741302 
	C302.250702,344.317444 299.461121,344.786896 296.730804,345.487518 
	C281.975647,349.274048 280.038483,359.154724 286.978363,372.097137 
	C289.004852,371.144226 291.053619,370.180786 293.342438,369.104462 
	C293.723785,370.095337 294.084656,371.032959 294.143341,371.185486 
	C304.750671,374.135223 308.289215,366.209076 312.019836,359.921051 
	C315.728790,353.669617 322.889435,347.433167 316.587067,338.671906 
	C312.679565,340.397369 309.222473,341.923950 305.012939,343.741302 
M249.550720,394.002472 
	C266.032288,393.787262 280.993256,389.260284 294.570282,378.637115 
	C287.979706,375.719147 282.511505,376.665222 278.099579,380.824432 
	C273.686127,384.985107 269.558197,384.994659 264.200958,382.847382 
	C258.864716,380.708588 253.110168,379.219452 247.405670,378.494019 
	C240.436096,377.607666 233.723022,379.156982 228.999908,385.023743 
	C226.137817,388.578857 226.940201,390.813171 231.342499,391.605316 
	C237.052185,392.632690 242.844696,393.199829 249.550720,394.002472 
M318.224823,329.144623 
	C319.486786,330.879089 320.748749,332.613556 322.460175,334.965729 
	C326.090302,316.818665 325.053253,311.485657 318.537689,310.586639 
	C318.441681,312.398438 318.929108,314.553345 318.136353,316.012909 
	C315.839294,320.241943 316.264099,324.268707 318.224823,329.144623 
M192.387451,277.835693 
	C186.364288,278.647369 181.272644,285.201141 181.650009,292.586700 
	C187.012222,288.131256 191.974518,284.008087 197.673340,279.272949 
	C195.558975,278.609100 194.375412,278.237488 192.387451,277.835693 
M233.225143,350.845703 
	C233.225143,353.145782 233.225143,355.445892 233.225143,357.745972 
	C233.792374,357.816650 234.359604,357.887329 234.926834,357.958038 
	C237.131073,351.852356 239.335312,345.746704 241.539536,339.641052 
	C241.040512,339.324371 240.541504,339.007660 240.042480,338.690979 
	C238.628433,339.628418 236.573776,340.254822 235.935715,341.569031 
	C234.666580,344.182983 234.177002,347.175415 233.225143,350.845703 
M198.136627,272.659119 
	C198.796539,270.400421 199.456436,268.141693 200.116348,265.882996 
	C197.741104,266.741760 195.147171,267.255096 193.063385,268.574280 
	C191.537613,269.540192 190.681946,271.564636 189.537415,273.104065 
	C192.685699,276.599426 195.018005,273.831818 198.136627,272.659119 
M307.333405,333.161469 
	C305.834595,333.870758 304.335785,334.580048 302.836945,335.289368 
	C302.980865,335.954132 303.124786,336.618896 303.268707,337.283661 
	C305.790314,337.568756 308.311920,337.853882 310.833527,338.138977 
	C311.024963,337.586060 311.216400,337.033112 311.407806,336.480194 
	C310.285858,335.455872 309.163910,334.431549 307.333405,333.161469 
z"/>
<path fill="#FCFDFC" opacity="1.000000" stroke="none" 
	d="
M91.097717,69.274460 
	C90.702019,67.051933 90.869034,64.787148 89.817726,63.616001 
	C88.328674,61.957214 85.861641,60.047043 83.958725,60.189980 
	C81.832352,60.349697 78.802711,62.270870 78.068085,64.163620 
	C76.737030,67.593071 76.816193,71.569855 76.258743,75.670471 
	C70.867699,75.670471 65.311630,75.670471 59.752876,75.670471 
	C57.203041,62.805008 62.976856,51.232437 73.695030,47.692867 
	C87.378342,43.174091 101.121582,47.424168 105.877640,57.884811 
	C110.209404,67.412239 110.139786,84.368141 97.842239,90.428352 
	C105.106186,94.546471 107.818405,101.007141 108.289093,108.829552 
	C108.736694,116.268265 108.320389,123.549339 104.487770,130.092209 
	C103.025864,132.587936 100.847664,134.957489 98.446342,136.562103 
	C82.334503,147.328415 62.359600,138.447464 59.711731,119.441788 
	C59.282059,116.357712 59.253567,113.217758 59.015675,109.754761 
	C65.098312,109.754761 70.663010,109.754761 76.534477,109.754761 
	C76.686142,112.468948 76.756607,114.926979 76.973747,117.371986 
	C77.457886,122.823318 79.803604,125.738739 83.652931,125.806305 
	C88.084015,125.884064 90.486282,123.202423 90.994087,117.531288 
	C91.127495,116.041466 91.164337,114.538422 91.160744,113.041649 
	C91.133240,101.573723 89.327141,99.357971 78.258896,97.426949 
	C78.258896,93.545822 78.258896,89.611038 78.258896,85.299225 
	C78.931358,85.205994 79.685188,85.033974 80.444221,85.006737 
	C87.732040,84.745262 90.602486,81.991852 91.056412,74.711525 
	C91.159821,73.053032 91.100777,71.384415 91.097717,69.274460 
z"/>
<path fill="#FAFCFA" opacity="1.000000" stroke="none" 
	d="
M57.750675,65.001404 
	C57.750618,89.778198 57.750618,114.055397 57.750618,138.670593 
	C51.836170,138.670593 46.271133,138.670593 40.181419,138.670593 
	C40.181419,114.563011 40.181419,90.363503 40.181419,65.519272 
	C35.498009,67.089348 31.465645,68.441170 27.335255,69.825851 
	C27.159935,69.192581 26.997698,68.754364 26.919384,68.301643 
	C25.624981,60.818974 27.925182,56.312202 35.464294,52.686771 
	C42.629402,49.241188 49.008396,45.476849 57.750732,47.823200 
	C57.750732,53.274647 57.750732,58.888233 57.750675,65.001404 
z"/>
<path fill="#F3F7F3" opacity="1.000000" stroke="none" 
	d="
M177.004761,128.190704 
	C176.354233,131.367401 175.894730,134.171021 175.086914,136.870407 
	C174.780487,137.894394 173.671921,138.678360 172.928970,139.571716 
	C171.995590,138.643112 170.494965,137.854813 170.224716,136.762192 
	C168.884415,131.343140 167.868698,125.843788 165.535797,120.470474 
	C165.535797,126.681023 165.535797,132.891571 165.535797,139.341583 
	C163.555435,139.341583 162.287491,139.341583 160.787094,139.341583 
	C160.787094,127.854225 160.787094,116.463348 160.787094,104.732178 
	C163.320908,104.732178 165.389420,104.732178 167.708328,104.732178 
	C169.248215,112.050880 170.772156,119.293854 172.611023,128.033630 
	C174.230698,120.807434 175.939529,115.063225 176.704773,109.195946 
	C177.359497,104.176056 179.803329,103.635460 184.376587,104.992531 
	C184.376587,116.149559 184.376587,127.427841 184.376587,139.249084 
	C183.477646,139.335464 182.111740,139.466736 180.102280,139.659836 
	C180.102280,133.034073 180.102280,126.837204 180.102280,120.640327 
	C179.657272,120.571640 179.212280,120.502960 178.767273,120.434273 
	C178.197220,122.881561 177.627151,125.328850 177.004761,128.190704 
z"/>
<path fill="#F6F9F6" opacity="1.000000" stroke="none" 
	d="
M289.133240,168.917358 
	C289.346466,177.221527 289.443359,185.056473 289.807312,192.878998 
	C289.962219,196.209045 289.005402,197.637833 285.206177,196.478806 
	C284.705505,190.746552 284.191284,184.859055 283.551666,177.536011 
	C282.201355,183.829910 281.235229,188.851685 279.979187,193.799850 
	C279.688293,194.945679 278.407196,195.840134 277.581726,196.850250 
	C276.714966,195.885330 275.346008,195.046249 275.067383,193.934006 
	C273.780365,188.796432 272.796753,183.582855 270.637878,178.381836 
	C270.637878,184.282791 270.637878,190.183731 270.637878,196.481186 
	C268.489441,196.631592 267.128052,196.726913 265.578583,196.835403 
	C265.578583,185.175751 265.578583,173.902283 265.578583,162.221619 
	C268.028198,162.221619 270.070435,162.221619 272.495850,162.221619 
	C274.022278,169.332748 275.569000,176.538498 277.115723,183.744263 
	C277.356567,183.728638 277.597412,183.713028 277.838257,183.697418 
	C279.018280,178.182312 280.523682,172.711304 281.278778,167.138641 
	C281.920380,162.403198 283.971039,160.751801 289.124939,162.293304 
	C289.124939,164.206360 289.124939,166.324738 289.133240,168.917358 
z"/>
<path fill="#F0F5F1" opacity="1.000000" stroke="none" 
	d="
M178.232178,193.019821 
	C173.287216,198.931366 166.935089,196.175964 160.780807,197.024918 
	C160.780807,185.279617 160.780807,173.917236 160.780807,161.659409 
	C164.977325,161.882645 169.503174,161.525345 173.667221,162.587036 
	C175.883514,163.152084 178.997681,166.110245 179.079865,168.096893 
	C179.418060,176.271790 178.749069,184.488327 178.232178,193.019821 
M172.290131,167.542236 
	C170.715103,167.022537 169.140060,166.502838 167.168854,165.852417 
	C167.168854,175.090897 167.168854,183.501663 167.168854,191.967102 
	C171.391266,192.854935 173.316711,191.254486 173.217590,187.145691 
	C173.065796,180.854446 172.930054,174.562805 172.290131,167.542236 
z"/>
<path fill="#F1F6F2" opacity="1.000000" stroke="none" 
	d="
M413.217896,129.927246 
	C412.338898,136.752258 410.383301,138.875351 404.149536,139.429474 
	C400.732239,139.733246 397.265717,139.483780 393.547668,139.483780 
	C393.547668,127.696579 393.547668,116.336639 393.547668,104.403091 
	C396.888763,104.403091 400.186401,103.755722 403.062531,104.579712 
	C406.121979,105.456223 409.943756,107.071014 411.339600,109.544563 
	C413.344391,113.097221 413.135284,117.641640 409.780426,119.816391 
	C411.033478,123.327972 412.134918,126.414658 413.217896,129.927246 
M404.758820,134.584106 
	C408.083466,132.150482 407.768890,128.655914 406.314331,125.766533 
	C405.521790,124.192276 402.719330,123.629837 400.207764,122.280296 
	C400.207764,127.447128 400.207764,131.131409 400.207764,134.872925 
	C401.663544,134.872925 402.806610,134.872925 404.758820,134.584106 
M401.298248,108.894012 
	C400.640472,112.012665 399.982697,115.131317 399.272369,118.499161 
	C403.474121,119.130028 406.097015,118.625107 406.705536,115.003174 
	C407.277679,111.597801 406.259766,109.010674 401.298248,108.894012 
z"/>
<path fill="#F6F9F6" opacity="1.000000" stroke="none" 
	d="
M308.377380,64.555412 
	C307.976440,70.212555 307.976440,75.846306 307.976440,81.867271 
	C305.840698,82.000008 304.265869,82.097885 302.376831,82.215286 
	C302.376831,70.445656 302.376831,59.016277 302.376831,47.481518 
	C305.546051,46.046032 307.047974,47.424839 308.190765,50.415272 
	C310.001801,55.154499 312.177765,59.754284 314.974579,64.267128 
	C314.974579,58.734383 314.974579,53.201637 314.974579,47.275143 
	C316.919250,47.160343 318.479797,47.068218 320.319580,46.959614 
	C320.319580,58.774139 320.319580,70.214630 320.319580,81.655128 
	C319.959900,82.038605 319.600189,82.422081 319.240509,82.805557 
	C317.817902,81.615402 315.829254,80.704803 315.077728,79.183197 
	C312.726959,74.423431 310.843079,69.433044 308.377380,64.555412 
z"/>
<path fill="#F7FAF7" opacity="1.000000" stroke="none" 
	d="
M278.557678,72.348282 
	C278.539429,66.597298 278.310394,61.268223 278.651855,55.975964 
	C279.056183,49.710201 282.137360,47.005531 288.192230,46.866505 
	C294.674561,46.717670 297.962921,49.192448 298.561310,55.635162 
	C299.066223,61.071011 298.995850,66.590797 298.770050,72.056480 
	C298.470886,79.298759 295.271393,82.601128 288.993103,82.805916 
	C282.639038,83.013161 279.679565,80.160233 278.557678,72.348282 
M288.555237,51.225845 
	C287.378815,52.743900 285.301544,54.197598 285.187683,55.791557 
	C284.776306,61.549698 284.747681,67.376717 285.197052,73.129105 
	C285.329193,74.820808 287.522095,76.351524 288.770569,77.956024 
	C289.888367,76.417999 291.861450,74.937859 291.970154,73.331558 
	C292.359985,67.570747 292.315338,61.756199 291.990326,55.987022 
	C291.899292,54.371349 290.279877,52.841785 288.555237,51.225845 
z"/>
<path fill="#F5F8F5" opacity="1.000000" stroke="none" 
	d="
M200.474014,73.565582 
	C200.149933,79.320915 197.042587,82.266228 192.380905,82.950127 
	C194.153046,85.342888 195.935394,87.214310 196.927689,89.438248 
	C197.200531,90.049736 195.299469,92.395950 194.063248,92.735710 
	C192.236008,93.237892 190.111313,92.657715 188.113297,92.538414 
	C188.116791,91.971344 188.120300,91.404266 188.123810,90.837196 
	C189.708466,90.420647 191.293137,90.004097 194.023788,89.286308 
	C190.667862,86.245567 187.542526,84.049507 185.283722,81.173012 
	C183.354752,78.716560 181.638351,75.585762 181.224747,72.562180 
	C180.554230,67.660538 180.919754,62.599876 181.041550,57.611084 
	C181.237961,49.566391 184.906036,46.240284 192.584259,46.922794 
	C198.737305,47.469734 201.186462,51.495636 200.094101,59.600136 
	C198.387619,59.600136 196.641632,59.600136 194.518082,59.600136 
	C194.387390,57.902439 194.593903,56.164112 194.041473,54.715153 
	C193.539993,53.399799 192.212372,52.399422 191.248962,51.260189 
	C190.101929,52.241436 188.001099,53.185966 187.961685,54.209843 
	C187.693604,61.174290 187.743790,68.160103 188.022446,75.125763 
	C188.060257,76.071014 190.146286,77.823372 190.928329,77.644791 
	C192.150146,77.365799 193.489410,75.927383 194.003601,74.664513 
	C194.591507,73.220573 194.331268,71.431297 194.463058,69.436295 
	C197.543304,69.286903 201.230392,67.383301 200.474014,73.565582 
z"/>
<path fill="#F7FAF7" opacity="1.000000" stroke="none" 
	d="
M224.036072,65.961105 
	C224.063095,62.157478 223.864532,58.819214 224.166809,55.526924 
	C224.705307,49.661236 228.109192,46.855442 234.195007,46.858601 
	C240.440689,46.861839 243.719406,49.515465 244.040253,55.542404 
	C244.357147,61.495251 244.370361,67.488449 244.080597,73.442711 
	C243.781479,79.588791 240.519150,82.570862 234.661407,82.808304 
	C228.623611,83.053040 224.970215,80.035553 224.217133,73.903862 
	C223.915497,71.447937 224.082474,68.934456 224.036072,65.961105 
M237.902405,66.444473 
	C237.868652,62.614235 238.173370,58.734646 237.625748,54.979340 
	C237.421799,53.580788 235.224823,52.472870 233.936661,51.232418 
	C232.875549,52.501236 230.958374,53.730846 230.898163,55.045506 
	C230.601395,61.525627 230.650848,68.035049 230.951080,74.516853 
	C231.006104,75.704613 232.951019,77.854210 233.735336,77.730614 
	C235.171219,77.504364 237.164322,76.134407 237.533691,74.843323 
	C238.198349,72.520126 237.835785,69.903030 237.902405,66.444473 
z"/>
<path fill="#F6F9F6" opacity="1.000000" stroke="none" 
	d="
M389.271851,110.153824 
	C389.558044,117.502480 390.104187,124.481964 389.735840,131.412857 
	C389.421387,137.330673 385.617432,140.095901 379.588470,139.998291 
	C373.613861,139.901566 370.276306,136.941147 369.973938,130.888855 
	C369.692291,125.250870 369.850342,119.590408 369.835083,113.939789 
	C369.821991,109.091133 371.708099,105.554871 376.716217,104.310684 
	C382.275085,102.929665 386.364136,104.750259 389.271851,110.153824 
M376.871582,110.550568 
	C376.662689,117.486725 376.259308,124.427406 376.420410,131.354950 
	C376.450104,132.633148 378.763245,133.858246 380.022430,135.107849 
	C381.124451,133.728821 383.090424,132.402145 383.177673,130.961655 
	C383.538574,125.004158 383.476532,119.007439 383.281403,113.034554 
	C383.148346,108.960655 381.031677,107.717163 376.871582,110.550568 
z"/>
<path fill="#FAFCFA" opacity="1.000000" stroke="none" 
	d="
M231.416840,125.637566 
	C230.937561,138.302185 226.509933,141.331268 212.220490,139.026550 
	C212.220490,127.699257 212.220490,116.334129 212.220490,104.309494 
	C216.347885,104.532852 220.287552,104.560989 224.179337,105.007004 
	C228.341690,105.484032 230.752518,108.097412 231.041611,112.263466 
	C231.339676,116.558868 231.306305,120.877274 231.416840,125.637566 
M221.155441,134.928589 
	C222.419693,133.266037 224.612137,131.688644 224.773972,129.924942 
	C225.257172,124.658546 224.998337,119.318382 224.925797,114.008438 
	C224.865829,109.617691 222.563110,108.303986 218.203293,109.442345 
	C218.203293,117.246056 218.136795,124.863037 218.295761,132.475311 
	C218.313644,133.331635 219.606201,134.161331 221.155441,134.928589 
z"/>
<path fill="#F8FBF8" opacity="1.000000" stroke="none" 
	d="
M263.969299,124.924011 
	C263.427521,123.708702 263.005341,122.885292 262.583191,122.061890 
	C262.237701,122.112831 261.892242,122.163773 261.546753,122.214714 
	C261.546753,127.833382 261.546753,133.452057 261.546753,139.311768 
	C259.437561,139.311768 258.014160,139.311768 256.257324,139.311768 
	C256.257324,127.878662 256.257324,116.497406 256.257324,104.892296 
	C259.079285,103.694649 260.678589,104.735138 261.795715,107.581207 
	C263.728729,112.505905 265.909454,117.333389 268.789917,122.163864 
	C268.789917,116.415146 268.789917,110.666435 268.789917,104.688599 
	C270.807343,104.688599 272.209198,104.688599 273.872131,104.688599 
	C273.872131,116.303902 273.872131,127.683762 273.872131,140.827530 
	C271.561157,138.973129 269.685028,138.158737 268.959900,136.751343 
	C267.067291,133.078110 265.678589,129.145248 263.969299,124.924011 
z"/>
<path fill="#F7FAF7" opacity="1.000000" stroke="none" 
	d="
M194.878571,122.950943 
	C194.893784,125.937302 194.521408,128.520493 195.062012,130.895889 
	C195.416168,132.452103 197.091446,133.707672 198.175034,135.097885 
	C199.440247,133.675903 201.718399,132.309006 201.799194,130.822632 
	C202.196014,123.524139 202.000031,116.193840 202.036057,108.874893 
	C202.042435,107.578362 202.155884,106.282349 202.233612,104.708382 
	C204.187347,104.708382 205.922211,104.708382 207.944473,104.708382 
	C207.944473,114.178391 208.243500,123.453293 207.824738,132.695663 
	C207.598022,137.699829 203.905319,140.040649 198.256302,139.999725 
	C192.567596,139.958511 189.247742,137.718643 189.005676,132.430862 
	C188.589737,123.344955 188.890656,114.226219 188.890656,104.651634 
	C190.632889,104.572105 192.375397,104.492569 194.878586,104.378311 
	C194.878586,110.632820 194.878586,116.546181 194.878571,122.950943 
z"/>
<path fill="#F5F8F5" opacity="1.000000" stroke="none" 
	d="
M343.357758,126.052238 
	C342.038788,125.026054 341.115936,124.125420 340.193054,123.224785 
	C340.428131,122.868248 340.663177,122.511719 340.898254,122.155182 
	C343.784698,122.155182 346.671173,122.155182 349.855835,122.155182 
	C349.855835,127.757278 349.855835,133.341537 349.855835,139.824615 
	C348.057068,139.208435 346.576080,138.701111 344.474457,137.981186 
	C337.397980,142.482773 331.215912,139.716263 330.395111,130.372910 
	C329.915955,124.918762 329.984894,119.370537 330.344421,113.899933 
	C330.824707,106.591934 334.524902,103.506653 341.334351,104.029282 
	C347.657257,104.514557 350.118042,107.871407 349.726776,115.758980 
	C347.985016,115.758980 346.226440,115.758980 344.099487,115.758980 
	C344.021454,114.816704 344.245331,113.691086 343.803162,112.979111 
	C342.886078,111.502426 341.615295,110.245377 340.489929,108.898033 
	C339.292664,110.347664 337.175079,111.729630 337.062653,113.259018 
	C336.648529,118.892090 336.614197,124.597115 337.071350,130.223541 
	C337.209442,131.922653 339.403595,133.454712 340.655945,135.063293 
	C341.837585,133.557983 343.380585,132.200516 344.077667,130.496933 
	C344.566803,129.301544 343.902863,127.634308 343.357758,126.052238 
z"/>
<path fill="#F8FBF8" opacity="1.000000" stroke="none" 
	d="
M277.759766,120.035461 
	C277.763397,118.215767 277.743500,116.885414 277.774628,115.556259 
	C277.969177,107.243599 281.021698,103.812698 288.027832,104.013168 
	C294.928314,104.210617 297.416290,107.714645 296.823792,116.720627 
	C295.105591,116.720627 293.362732,116.720627 291.236206,116.720627 
	C291.140472,115.359413 291.409790,113.758110 290.842743,112.549103 
	C290.186737,111.150459 288.964020,109.474007 287.660675,109.119675 
	C286.834564,108.895096 284.455811,110.822502 284.412750,111.853271 
	C284.129059,118.645874 284.149506,125.463554 284.461731,132.255081 
	C284.507721,133.255249 286.633698,134.903229 287.782654,134.890854 
	C288.837677,134.879486 290.343048,133.200638 290.794037,131.948227 
	C291.319977,130.487595 290.916870,128.692413 290.916870,126.733124 
	C292.995361,126.733124 294.734528,126.733124 296.469269,126.733124 
	C297.914703,134.191025 296.948090,135.970825 288.501190,141.092865 
	C290.765167,143.255524 296.628174,144.063354 292.658600,148.795853 
	C290.701752,151.128769 287.525940,151.566956 283.562256,148.785645 
	C286.532867,147.902054 288.129700,147.427078 290.816986,146.627762 
	C286.620789,142.746353 281.759125,140.065598 279.852264,135.999237 
	C277.743805,131.502945 278.341003,125.737854 277.759766,120.035461 
z"/>
<path fill="#FCFDFC" opacity="1.000000" stroke="none" 
	d="
M348.347076,66.915894 
	C348.183655,72.094284 348.183655,76.880104 348.183655,81.911049 
	C345.925476,81.911049 344.185638,81.911049 342.153137,81.911049 
	C342.153137,70.410370 342.153137,59.012821 342.153137,47.021042 
	C345.573853,47.021042 349.142914,46.437492 352.397217,47.199081 
	C355.179810,47.850285 359.154449,49.550694 359.827881,51.668930 
	C360.907745,55.065720 360.781250,59.786152 359.115753,62.823849 
	C357.735931,65.340561 357.464935,67.076126 358.131012,69.444244 
	C359.251038,73.426369 360.382874,77.405174 361.632324,81.818260 
	C359.316742,81.818260 357.439117,81.818260 355.329620,81.818260 
	C354.210297,77.635735 353.288452,73.428398 351.878937,69.391327 
	C351.459381,68.189781 349.671417,67.466011 348.347076,66.915894 
M348.557648,61.819767 
	C350.584747,61.170948 353.731049,61.063080 354.369110,59.742886 
	C355.262421,57.894630 354.895111,54.824501 353.884796,52.896687 
	C353.270935,51.725304 350.429260,51.721447 348.147430,51.066563 
	C348.147430,55.141922 348.147430,58.086197 348.557648,61.819767 
z"/>
<path fill="#FAFCFA" opacity="1.000000" stroke="none" 
	d="
M182.842346,172.280060 
	C183.343765,164.376312 186.492950,161.105255 193.071793,161.198975 
	C199.616592,161.292191 202.790070,164.740646 202.966995,172.220184 
	C203.084595,177.192886 203.143646,182.178604 202.922943,187.144882 
	C202.614288,194.090302 199.244217,197.219559 192.621292,197.128311 
	C186.190430,197.039703 183.170898,194.043488 182.921097,187.170975 
	C182.746460,182.366806 182.854233,177.552399 182.842346,172.280060 
M196.596725,185.975952 
	C196.576569,180.829315 196.831909,175.658005 196.374176,170.550583 
	C196.230423,168.946625 194.170227,167.514404 192.987228,166.003571 
	C191.705154,167.599747 189.482162,169.105011 189.317505,170.809143 
	C188.824738,175.908859 189.107727,181.086639 189.147705,186.233475 
	C189.168365,188.893097 188.926361,192.099045 192.557098,192.401382 
	C196.338562,192.716248 196.359573,189.526993 196.596725,185.975952 
z"/>
<path fill="#F0F5F1" opacity="1.000000" stroke="none" 
	d="
M222.221954,167.779114 
	C221.936905,174.831970 221.641083,181.487900 221.869171,188.125854 
	C221.918304,189.556015 223.857315,190.921265 224.925781,192.316422 
	C226.035919,190.836914 227.347519,189.460648 228.178818,187.838242 
	C228.659393,186.900360 228.365540,185.565659 228.435867,184.078918 
	C230.432938,184.078918 232.335190,184.078918 234.217941,184.078918 
	C235.474899,193.558670 232.019485,197.801147 223.652267,197.247086 
	C218.472397,196.904099 215.523956,193.948212 215.151840,188.030914 
	C214.838806,183.053436 214.976227,178.043076 215.025497,173.048370 
	C215.108551,164.629364 218.590347,160.783493 225.639648,161.181320 
	C232.451675,161.565765 235.024612,165.305954 234.337143,174.389053 
	C232.650681,174.467575 230.899628,174.549103 229.501205,174.614212 
	C226.372421,172.519226 231.497787,163.073425 222.221954,167.779114 
z"/>
<path fill="#F5F8F5" opacity="1.000000" stroke="none" 
	d="
M263.759583,52.743988 
	C263.322235,59.906101 262.963654,66.699272 263.137604,73.478790 
	C263.175659,74.961304 265.113281,76.395088 266.176056,77.851318 
	C267.377991,76.376167 268.816345,75.027306 269.696167,73.380112 
	C270.254303,72.335098 269.981415,70.846191 270.096985,69.352394 
	C271.937653,69.352394 273.557098,69.352394 275.186768,69.352394 
	C277.145264,76.480049 274.629120,81.376999 268.348358,82.613525 
	C262.002380,83.862900 257.109802,80.205238 256.574036,73.188271 
	C256.145325,67.572731 256.119324,61.876453 256.523834,56.259892 
	C257.034607,49.168884 260.394409,46.517296 267.293640,46.880512 
	C273.308044,47.197144 275.811310,50.183826 275.959290,57.256248 
	C275.972839,57.904747 275.848724,58.556126 275.758179,59.533638 
	C273.955933,59.533638 272.225372,59.533638 270.493256,59.529091 
	C268.177185,57.284611 272.602203,48.961781 263.759583,52.743988 
z"/>
<path fill="#F3F7F3" opacity="1.000000" stroke="none" 
	d="
M244.660736,104.405251 
	C245.743546,105.183586 246.859604,105.857285 247.044098,106.728310 
	C249.309006,117.421005 251.437576,128.142578 253.633606,139.016068 
	C249.768021,140.220612 247.090714,140.136658 246.971695,135.380417 
	C246.851303,130.568878 243.636398,131.486694 240.435074,131.962585 
	C239.867996,134.374115 239.306915,136.760162 238.697876,139.350098 
	C236.869003,139.350098 235.113724,139.350098 232.850510,139.350098 
	C235.067154,128.152969 237.103699,117.269669 239.553116,106.480103 
	C239.780289,105.479469 242.629425,105.074081 244.660736,104.405251 
M243.939529,116.312401 
	C243.786636,116.110794 243.653122,115.886810 243.465988,115.724731 
	C243.423965,115.688347 243.088669,115.846367 243.066574,115.952103 
	C242.335251,119.454193 241.625626,122.960808 240.858490,126.734024 
	C242.575195,126.734024 243.898071,126.734024 245.505310,126.734024 
	C244.969742,123.229881 244.499847,120.155350 243.939529,116.312401 
z"/>
<path fill="#F1F6F2" opacity="1.000000" stroke="none" 
	d="
M432.144043,123.651588 
	C433.211670,128.933853 434.210724,133.795990 435.348633,139.333817 
	C433.225525,139.432388 431.539246,139.510666 429.591217,139.601105 
	C428.972076,136.928787 428.423035,134.559082 427.873871,132.188766 
	C423.858582,130.763763 421.292999,131.460587 421.072601,136.158661 
	C420.853241,140.834229 417.840698,139.651520 414.519409,139.127991 
	C416.812897,127.543602 419.058899,116.199020 421.265656,105.052773 
	C426.489136,103.202248 429.019684,104.576134 429.528442,110.027809 
	C429.942963,114.469566 431.194855,118.833183 432.144043,123.651588 
M426.918365,124.657974 
	C426.369110,121.682396 425.819885,118.706818 425.270630,115.731239 
	C424.965485,115.759483 424.660309,115.787727 424.355164,115.815964 
	C423.821259,119.404922 423.287323,122.993874 422.525085,128.117599 
	C424.759552,126.819298 425.868561,126.174927 426.918365,124.657974 
z"/>
<path fill="#F3F7F3" opacity="1.000000" stroke="none" 
	d="
M300.760498,128.628113 
	C302.207428,121.369583 303.745789,114.558350 304.835419,107.676071 
	C305.303070,104.722076 306.883148,103.821472 309.198639,104.513542 
	C310.670258,104.953384 312.628967,106.396950 312.926086,107.715599 
	C315.254547,118.049240 317.233856,128.461548 319.329926,138.894897 
	C315.177979,140.407578 312.858978,139.842422 312.740814,135.239594 
	C312.631409,130.978378 309.625031,131.372513 306.202728,131.900879 
	C305.690674,134.087585 305.134125,136.464172 304.488495,139.221283 
	C302.853546,139.221283 301.130829,139.221283 298.673279,139.221283 
	C299.360291,135.720642 300.015167,132.383621 300.760498,128.628113 
M308.014801,118.723389 
	C307.630035,121.315384 307.245300,123.907379 306.810455,126.836746 
	C308.388275,126.836746 309.593018,126.836746 311.299957,126.836746 
	C310.686615,123.078201 310.129700,119.665573 309.572815,116.252937 
	C309.260254,116.248924 308.947693,116.244911 308.635132,116.240906 
	C308.457642,116.797813 308.280182,117.354729 308.014801,118.723389 
z"/>
<path fill="#F8FBF8" opacity="1.000000" stroke="none" 
	d="
M179.141541,80.997803 
	C177.436600,81.728714 175.740326,82.005165 173.812378,82.319374 
	C173.208481,79.394531 172.712265,76.991219 172.160202,74.317436 
	C170.312729,74.317436 168.553482,74.317436 166.354218,74.317436 
	C165.835129,76.587257 165.258133,79.110237 164.620956,81.896431 
	C162.872757,81.896431 161.130127,81.896431 158.799286,81.896431 
	C161.120987,70.176620 163.392349,58.710930 165.668900,47.219013 
	C168.165375,47.219013 170.269592,47.219013 172.685944,47.219013 
	C174.861893,58.436432 177.006058,69.489891 179.141541,80.997803 
M168.497086,59.187325 
	C167.984528,62.677021 167.471970,66.166718 166.900269,70.059120 
	C168.777893,69.875954 169.990143,69.757690 171.695999,69.591278 
	C170.851166,65.853455 170.097717,62.519897 168.497086,59.187325 
z"/>
<path fill="#F7FAF7" opacity="1.000000" stroke="none" 
	d="
M414.019867,80.122757 
	C412.404602,81.245010 410.750854,81.923576 408.728821,82.753242 
	C408.042877,79.341591 407.558441,76.932304 407.025574,74.281960 
	C405.191437,74.281960 403.422211,74.281960 401.254669,74.281960 
	C400.704651,76.640846 400.118866,79.153175 399.477081,81.905777 
	C397.679321,81.905777 395.948029,81.905777 393.666107,81.905777 
	C395.971771,70.229225 398.209351,58.897442 400.500397,47.294739 
	C402.754150,47.294739 404.847015,47.294739 407.487823,47.294739 
	C409.626862,57.962414 411.804138,68.820740 414.019867,80.122757 
M406.045990,69.342331 
	C405.589661,65.743042 405.133331,62.143757 404.677002,58.544468 
	C404.306030,58.548012 403.935059,58.551559 403.564087,58.555103 
	C402.965240,62.150204 402.366394,65.745308 401.709686,69.687775 
	C403.176697,69.776398 404.266449,69.842232 406.045990,69.342331 
z"/>
<path fill="#F8FBF8" opacity="1.000000" stroke="none" 
	d="
M203.244507,75.213959 
	C205.171066,65.701012 207.005615,56.603188 208.887985,47.268127 
	C211.136459,47.268127 213.217880,47.268127 215.816162,47.268127 
	C218.081833,58.595684 220.373901,70.055275 222.737854,81.874161 
	C220.659241,81.874161 218.919861,81.874161 216.891830,81.874161 
	C216.400436,79.395592 215.924301,76.994057 215.395218,74.325348 
	C213.415604,74.325348 211.526398,74.325348 209.462143,74.325348 
	C208.938354,76.828568 208.435318,79.232536 207.877640,81.897629 
	C206.082657,81.897629 204.330963,81.897629 202.159180,81.897629 
	C202.502472,79.731148 202.827469,77.680115 203.244507,75.213959 
M214.583252,68.558472 
	C213.990555,65.203560 213.397858,61.848640 212.805145,58.493725 
	C212.500366,58.512226 212.195572,58.530727 211.890778,58.549225 
	C211.278961,62.206417 210.667160,65.863609 209.939804,70.211472 
	C211.874802,69.860855 213.238632,69.613739 214.583252,68.558472 
z"/>
<path fill="#F6F9F6" opacity="1.000000" stroke="none" 
	d="
M304.572510,189.084747 
	C302.687469,188.933838 301.209167,188.933838 299.507812,188.933838 
	C298.910583,191.479843 298.351105,193.865021 297.720367,196.553833 
	C296.015015,196.553833 294.275787,196.553833 291.878601,196.553833 
	C293.822937,186.867004 296.063293,177.404083 297.506775,167.821106 
	C298.266693,162.776367 299.988220,160.552490 305.790314,162.289322 
	C308.015045,173.347153 310.317383,184.790955 312.638489,196.327957 
	C308.578247,197.536377 306.074005,197.067749 305.948547,192.488571 
	C305.918610,191.396225 305.317566,190.319534 304.572510,189.084747 
M300.527283,180.847260 
	C299.346680,184.728485 300.880188,185.542191 304.584137,184.287079 
	C303.980316,180.587646 303.397186,177.014847 302.814056,173.442047 
	C302.495544,173.439301 302.177063,173.436539 301.858582,173.433777 
	C301.478546,175.637131 301.098511,177.840500 300.527283,180.847260 
z"/>
<path fill="#F8FBF8" opacity="1.000000" stroke="none" 
	d="
M365.195343,82.163986 
	C364.367004,81.333557 363.487488,80.426003 363.622375,79.709389 
	C365.647827,68.949112 367.806915,58.213989 369.979218,47.247414 
	C372.206146,47.247414 374.299133,47.247414 376.930206,47.247414 
	C379.197784,58.579586 381.491821,70.043732 383.861298,81.885109 
	C381.962769,82.013351 380.359772,82.121635 378.222870,82.265976 
	C377.638580,79.659012 377.075836,77.148125 376.444000,74.328949 
	C374.627380,74.328949 372.733551,74.328949 370.976868,74.328949 
	C368.587860,76.688141 371.962524,82.713318 365.195343,82.163986 
M375.364655,66.864342 
	C374.839050,63.667923 374.313446,60.471504 373.787842,57.275085 
	C373.584778,57.298603 373.381683,57.322121 373.178619,57.345638 
	C372.520386,61.357456 371.862122,65.369270 371.203888,69.381081 
	C371.530853,69.764336 371.857788,70.147583 372.184723,70.530838 
	C373.313904,69.576263 374.443115,68.621689 375.364655,66.864342 
z"/>
<path fill="#FCFDFC" opacity="1.000000" stroke="none" 
	d="
M322.426666,48.111084 
	C328.068878,47.361664 333.630829,47.031170 339.617371,46.675449 
	C339.710602,48.575546 339.777100,49.930737 339.854553,51.509541 
	C338.074005,51.736393 336.632568,51.920040 334.579163,52.181652 
	C334.579163,62.007332 334.579163,71.879829 334.579163,81.952621 
	C332.169495,81.952621 330.375488,81.952621 328.091583,81.952621 
	C328.091583,72.071709 328.091583,62.164730 328.091583,52.453190 
	C325.721466,51.207130 321.605652,53.287361 322.426666,48.111084 
z"/>
<path fill="#E9F1EA" opacity="1.000000" stroke="none" 
	d="
M440.170624,104.346611 
	C443.716156,103.883667 444.067535,105.653656 444.035553,108.212364 
	C443.925751,117.004440 443.993378,125.798729 443.993378,134.956238 
	C446.857971,134.956238 449.293610,134.956238 451.735748,134.956238 
	C452.980225,137.921631 453.053406,139.779999 449.304443,139.681793 
	C445.518402,139.582596 441.727722,139.659912 437.384857,139.659912 
	C437.384857,128.168488 437.344421,117.222832 437.485931,106.279533 
	C437.494385,105.626892 438.960510,104.993095 440.170624,104.346611 
z"/>
<path fill="#F5F8F5" opacity="1.000000" stroke="none" 
	d="
M361.920837,139.602509 
	C359.152496,139.602356 356.847137,139.602356 354.195618,139.602356 
	C354.195618,127.824287 354.195618,116.438339 354.195618,104.726395 
	C355.944061,104.726395 357.688538,104.726395 359.947266,104.726395 
	C359.947266,114.655228 359.947266,124.552460 359.947266,133.535538 
	C362.388458,137.126328 369.001221,131.973465 368.763397,139.602661 
	C366.313873,139.602661 364.348846,139.602661 361.920837,139.602509 
z"/>
<path fill="#F8FBF8" opacity="1.000000" stroke="none" 
	d="
M237.818573,188.937653 
	C237.818573,179.828674 237.818573,171.209763 237.818573,162.208496 
	C239.894623,162.208496 241.738831,162.208496 244.085297,162.208496 
	C244.085297,172.165451 244.085297,182.055038 244.085297,192.118332 
	C247.138428,192.328064 249.729172,192.506058 252.278427,192.681183 
	C252.612000,197.546082 252.167053,197.664825 237.818573,196.534042 
	C237.818573,194.220703 237.818573,191.824203 237.818573,188.937653 
z"/>
<path fill="#FEFEFE" opacity="1.000000" stroke="none" 
	d="
M259.817749,196.758179 
	C258.069672,196.820709 256.774414,196.820709 255.209167,196.820709 
	C255.209167,185.069458 255.209167,173.700043 255.209167,162.085175 
	C257.104736,162.085175 258.839966,162.085175 260.270599,162.085175 
	C260.270599,173.723709 260.270599,185.209686 259.817749,196.758179 
z"/>
<path fill="#F0F5F1" opacity="1.000000" stroke="none" 
	d="
M218.987869,38.706909 
	C217.431900,40.140312 215.980118,41.848522 214.339584,42.054661 
	C211.916550,42.359112 209.359299,41.595417 205.813507,41.157406 
	C206.284164,40.196438 206.980453,37.442348 207.754654,37.420273 
	C211.494141,37.313641 215.254608,37.942116 218.987869,38.706909 
z"/>
<path fill="#417F46" opacity="1.000000" stroke="none" 
	d="
M268.080475,324.995056 
	C264.672791,323.340393 261.381653,321.346832 257.825531,320.123993 
	C254.078522,318.835541 251.564621,316.892700 250.137375,313.052185 
	C249.413300,311.103790 247.613861,309.295929 245.857574,308.048004 
	C242.844910,305.907318 239.484833,304.255554 236.270615,302.398560 
	C235.954239,302.716766 235.637878,303.034973 235.321518,303.353180 
	C236.517960,304.930420 237.605194,306.607910 238.938309,308.059601 
	C240.625366,309.896759 242.571579,311.493591 244.298782,313.296753 
	C246.618866,315.718872 249.377411,318.106628 245.757492,321.645874 
	C242.239868,325.085114 238.032791,325.438751 234.835892,322.313782 
	C232.382675,319.915771 230.079651,317.364075 226.783524,313.910034 
	C226.530350,321.311340 229.683411,325.416595 234.324020,328.571808 
	C240.176682,332.551117 240.140442,333.512115 235.448425,338.702148 
	C233.515213,340.840546 232.197327,344.006409 231.726318,346.889038 
	C230.952362,351.625824 230.868896,356.329681 227.185959,360.146149 
	C225.929810,361.447845 225.713684,363.781189 225.098511,365.667999 
	C223.433182,370.775818 220.230423,374.148895 214.912506,375.664886 
	C210.898056,376.809326 208.989166,375.362579 208.072388,371.566864 
	C206.746536,366.077515 205.269684,360.624329 203.823853,355.164581 
	C203.657608,354.536865 203.211395,353.423309 203.007355,353.448425 
	C199.126282,353.925873 198.635269,350.414612 196.953842,348.373383 
	C194.262848,345.106537 191.473480,345.086761 187.852692,347.139618 
	C182.220596,350.332825 180.685089,349.991272 179.400116,343.959564 
	C177.405136,334.595093 175.826782,325.045563 175.253769,315.503510 
	C174.755997,307.214447 181.058624,302.727203 189.004333,304.881073 
	C194.275330,306.309875 199.249405,308.948547 204.562485,310.063751 
	C207.628296,310.707275 211.185059,309.683167 214.341995,308.782654 
	C215.207764,308.535675 215.822556,306.006073 215.744446,304.567810 
	C215.714661,304.019623 213.408859,303.613495 212.153763,303.109253 
	C210.089722,302.279968 208.036636,301.423401 205.722092,300.472870 
	C205.909378,301.952026 206.130051,303.694885 206.350723,305.437775 
	C206.064301,305.562531 205.777878,305.687317 205.491455,305.812073 
	C204.331223,303.909058 203.072235,302.058228 202.032928,300.091309 
	C200.293900,296.800140 198.462769,296.214783 194.859955,298.141113 
	C190.703751,300.363312 185.936783,301.499176 181.349045,302.804596 
	C180.560959,303.028839 178.463928,301.708252 178.486725,301.164948 
	C178.560638,299.404480 178.860474,296.681091 179.954041,296.153229 
	C181.809448,295.257660 184.369064,295.953735 186.570526,295.597046 
	C188.116928,295.346527 190.696304,294.686188 190.869537,293.819916 
	C192.244553,286.944275 198.030106,286.679504 203.022827,285.226135 
	C203.943481,284.958191 205.019485,285.108643 206.008957,285.210358 
	C215.389664,286.174530 215.388733,286.183502 222.278534,278.310791 
	C220.521667,278.813019 218.374664,278.838531 217.076401,279.901062 
	C211.834000,284.191467 207.452332,284.653625 201.969803,281.026215 
	C199.163452,279.169464 198.851044,276.973022 201.685883,275.169525 
	C204.014343,273.688202 206.687363,272.438263 209.371933,271.889984 
	C215.380814,270.662689 221.484436,269.881470 227.566483,269.041931 
	C229.258759,268.808350 231.010590,269.006317 232.735107,269.006317 
	C232.873001,269.459167 233.010910,269.911987 233.148804,270.364838 
	C230.348282,272.238617 227.547760,274.112366 224.747223,275.986145 
	C225.021561,276.463501 225.295883,276.940887 225.570206,277.418243 
	C231.063705,276.774536 235.142853,272.960968 240.513580,270.126373 
	C238.918747,268.641296 237.675659,267.655701 236.649490,266.480652 
	C235.590118,265.267578 234.251633,263.993164 233.885376,262.532440 
	C232.260635,256.052551 231.086639,254.950546 224.344910,255.205048 
	C220.119019,255.364563 215.903168,255.789734 210.780426,256.161163 
	C252.373291,229.908966 308.863312,251.706741 321.653412,300.412201 
	C322.216614,302.556854 320.683746,305.252014 320.127228,307.690735 
	C317.751251,307.084229 315.354736,306.545715 313.009857,305.836426 
	C312.121429,305.567688 311.352112,304.905090 309.595551,303.874817 
	C309.709839,306.318451 309.199371,308.348145 309.969086,309.574036 
	C312.970795,314.354675 309.912598,316.229034 306.357269,317.829590 
	C296.712036,322.171722 296.046448,323.998871 300.756805,333.778961 
	C301.302734,334.912476 301.556732,336.186584 301.973480,337.480774 
	C297.184448,337.805145 290.760956,333.071533 288.273712,327.494202 
	C286.921021,324.461029 286.210938,321.076813 284.493256,318.293976 
	C283.384796,316.498138 281.029114,314.489838 279.136047,314.389191 
	C276.248199,314.235748 276.583435,317.090698 276.107697,319.487793 
	C275.529694,322.399872 273.260773,324.976318 271.323181,327.382263 
	C269.975464,326.376038 269.027985,325.685547 268.080475,324.995056 
z"/>
<path fill="#417F46" opacity="1.000000" stroke="none" 
	d="
M305.389160,343.595886 
	C309.222473,341.923950 312.679565,340.397369 316.587067,338.671906 
	C322.889435,347.433167 315.728790,353.669617 312.019836,359.921051 
	C308.289215,366.209076 304.750671,374.135223 294.143341,371.185486 
	C294.084656,371.032959 293.723785,370.095337 293.342438,369.104462 
	C291.053619,370.180786 289.004852,371.144226 286.978363,372.097137 
	C280.038483,359.154724 281.975647,349.274048 296.730804,345.487518 
	C299.461121,344.786896 302.250702,344.317444 305.389160,343.595886 
z"/>
<path fill="#448249" opacity="1.000000" stroke="none" 
	d="
M249.076141,393.983765 
	C242.844696,393.199829 237.052185,392.632690 231.342499,391.605316 
	C226.940201,390.813171 226.137817,388.578857 228.999908,385.023743 
	C233.723022,379.156982 240.436096,377.607666 247.405670,378.494019 
	C253.110168,379.219452 258.864716,380.708588 264.200958,382.847382 
	C269.558197,384.994659 273.686127,384.985107 278.099579,380.824432 
	C282.511505,376.665222 287.979706,375.719147 294.570282,378.637115 
	C280.993256,389.260284 266.032288,393.787262 249.076141,393.983765 
z"/>
<path fill="#448249" opacity="1.000000" stroke="none" 
	d="
M318.088623,328.787537 
	C316.264099,324.268707 315.839294,320.241943 318.136353,316.012909 
	C318.929108,314.553345 318.441681,312.398438 318.537689,310.586639 
	C325.053253,311.485657 326.090302,316.818665 322.460175,334.965729 
	C320.748749,332.613556 319.486786,330.879089 318.088623,328.787537 
z"/>
<path fill="#4D8751" opacity="1.000000" stroke="none" 
	d="
M192.789642,277.850800 
	C194.375412,278.237488 195.558975,278.609100 197.673340,279.272949 
	C191.974518,284.008087 187.012222,288.131256 181.650009,292.586700 
	C181.272644,285.201141 186.364288,278.647369 192.789642,277.850800 
z"/>
<path fill="#4D8751" opacity="1.000000" stroke="none" 
	d="
M233.295227,350.428589 
	C234.177002,347.175415 234.666580,344.182983 235.935715,341.569031 
	C236.573776,340.254822 238.628433,339.628418 240.042480,338.690979 
	C240.541504,339.007660 241.040512,339.324371 241.539536,339.641052 
	C239.335312,345.746704 237.131073,351.852356 234.926834,357.958038 
	C234.359604,357.887329 233.792374,357.816650 233.225143,357.745972 
	C233.225143,355.445892 233.225143,353.145782 233.295227,350.428589 
z"/>
<path fill="#4D8751" opacity="1.000000" stroke="none" 
	d="
M197.801910,272.836121 
	C195.018005,273.831818 192.685699,276.599426 189.537415,273.104065 
	C190.681946,271.564636 191.537613,269.540192 193.063385,268.574280 
	C195.147171,267.255096 197.741104,266.741760 200.116348,265.882996 
	C199.456436,268.141693 198.796539,270.400421 197.801910,272.836121 
z"/>
<path fill="#4D8751" opacity="1.000000" stroke="none" 
	d="
M267.919220,325.333252 
	C269.027985,325.685547 269.975464,326.376038 270.969421,327.378784 
	C268.698547,332.093048 266.263092,332.412689 261.523987,328.053223 
	C263.918793,327.138245 265.838379,326.404846 267.919220,325.333252 
z"/>
<path fill="#4D8751" opacity="1.000000" stroke="none" 
	d="
M307.687683,333.284363 
	C309.163910,334.431549 310.285858,335.455872 311.407806,336.480194 
	C311.216400,337.033112 311.024963,337.586060 310.833527,338.138977 
	C308.311920,337.853882 305.790314,337.568756 303.268707,337.283661 
	C303.124786,336.618896 302.980865,335.954132 302.836945,335.289368 
	C304.335785,334.580048 305.834595,333.870758 307.687683,333.284363 
z"/>
<path fill="#417F46" opacity="1.000000" stroke="none" 
	d="
M172.538818,167.906784 
	C172.930054,174.562805 173.065796,180.854446 173.217590,187.145691 
	C173.316711,191.254486 171.391266,192.854935 167.168854,191.967102 
	C167.168854,183.501663 167.168854,175.090897 167.168854,165.852417 
	C169.140060,166.502838 170.715103,167.022537 172.538818,167.906784 
z"/>
<path fill="#448249" opacity="1.000000" stroke="none" 
	d="
M404.354248,134.728516 
	C402.806610,134.872925 401.663544,134.872925 400.207764,134.872925 
	C400.207764,131.131409 400.207764,127.447128 400.207764,122.280296 
	C402.719330,123.629837 405.521790,124.192276 406.314331,125.766533 
	C407.768890,128.655914 408.083466,132.150482 404.354248,134.728516 
z"/>
<path fill="#4D8751" opacity="1.000000" stroke="none" 
	d="
M401.736938,108.882828 
	C406.259766,109.010674 407.277679,111.597801 406.705536,115.003174 
	C406.097015,118.625107 403.474121,119.130028 399.272369,118.499161 
	C399.982697,115.131317 400.640472,112.012665 401.736938,108.882828 
z"/>
<path fill="#417F46" opacity="1.000000" stroke="none" 
	d="
M288.958405,51.249283 
	C290.279877,52.841785 291.899292,54.371349 291.990326,55.987022 
	C292.315338,61.756199 292.359985,67.570747 291.970154,73.331558 
	C291.861450,74.937859 289.888367,76.417999 288.770569,77.956024 
	C287.522095,76.351524 285.329193,74.820808 285.197052,73.129105 
	C284.747681,67.376717 284.776306,61.549698 285.187683,55.791557 
	C285.301544,54.197598 287.378815,52.743900 288.958405,51.249283 
z"/>
<path fill="#448249" opacity="1.000000" stroke="none" 
	d="
M237.902374,66.926598 
	C237.835785,69.903030 238.198349,72.520126 237.533691,74.843323 
	C237.164322,76.134407 235.171219,77.504364 233.735336,77.730614 
	C232.951019,77.854210 231.006104,75.704613 230.951080,74.516853 
	C230.650848,68.035049 230.601395,61.525627 230.898163,55.045506 
	C230.958374,53.730846 232.875549,52.501236 233.936661,51.232422 
	C235.224823,52.472870 237.421799,53.580788 237.625748,54.979340 
	C238.173370,58.734646 237.868652,62.614235 237.902374,66.926598 
z"/>
<path fill="#448249" opacity="1.000000" stroke="none" 
	d="
M377.102173,110.187057 
	C381.031677,107.717163 383.148346,108.960655 383.281403,113.034554 
	C383.476532,119.007439 383.538574,125.004158 383.177673,130.961655 
	C383.090424,132.402145 381.124451,133.728821 380.022430,135.107849 
	C378.763245,133.858246 376.450104,132.633148 376.420410,131.354950 
	C376.259308,124.427406 376.662689,117.486725 377.102173,110.187057 
z"/>
<path fill="#4D8751" opacity="1.000000" stroke="none" 
	d="
M220.731537,134.965988 
	C219.606201,134.161331 218.313644,133.331635 218.295761,132.475311 
	C218.136795,124.863037 218.203293,117.246056 218.203293,109.442345 
	C222.563110,108.303986 224.865829,109.617691 224.925797,114.008438 
	C224.998337,119.318382 225.257172,124.658546 224.773972,129.924942 
	C224.612137,131.688644 222.419693,133.266037 220.731537,134.965988 
z"/>
<path fill="#4D8751" opacity="1.000000" stroke="none" 
	d="
M348.352539,61.425117 
	C348.147430,58.086197 348.147430,55.141922 348.147430,51.066563 
	C350.429260,51.721447 353.270935,51.725304 353.884796,52.896687 
	C354.895111,54.824501 355.262421,57.894630 354.369110,59.742886 
	C353.731049,61.063080 350.584747,61.170948 348.352539,61.425117 
z"/>
<path fill="#4D8751" opacity="1.000000" stroke="none" 
	d="
M196.593140,186.410080 
	C196.359573,189.526993 196.338562,192.716248 192.557098,192.401382 
	C188.926361,192.099045 189.168365,188.893097 189.147705,186.233475 
	C189.107727,181.086639 188.824738,175.908859 189.317505,170.809143 
	C189.482162,169.105011 191.705154,167.599747 192.987213,166.003571 
	C194.170227,167.514404 196.230423,168.946625 196.374176,170.550583 
	C196.831909,175.658005 196.576569,180.829315 196.593140,186.410080 
z"/>
<path fill="#4D8751" opacity="1.000000" stroke="none" 
	d="
M243.984741,116.696609 
	C244.499847,120.155350 244.969742,123.229881 245.505310,126.734024 
	C243.898071,126.734024 242.575195,126.734024 240.858490,126.734024 
	C241.625626,122.960808 242.335251,119.454193 243.066574,115.952103 
	C243.088669,115.846367 243.423965,115.688347 243.465988,115.724731 
	C243.653122,115.886810 243.786636,116.110794 243.984741,116.696609 
z"/>
<path fill="#4D8751" opacity="1.000000" stroke="none" 
	d="
M426.947937,125.094269 
	C425.868561,126.174927 424.759552,126.819298 422.525085,128.117599 
	C423.287323,122.993874 423.821259,119.404922 424.355164,115.815964 
	C424.660309,115.787727 424.965485,115.759483 425.270630,115.731239 
	C425.819885,118.706818 426.369110,121.682396 426.947937,125.094269 
z"/>
<path fill="#4D8751" opacity="1.000000" stroke="none" 
	d="
M308.058746,118.317520 
	C308.280182,117.354729 308.457642,116.797813 308.635132,116.240906 
	C308.947693,116.244911 309.260254,116.248924 309.572815,116.252937 
	C310.129700,119.665573 310.686615,123.078201 311.299957,126.836746 
	C309.593018,126.836746 308.388275,126.836746 306.810455,126.836746 
	C307.245300,123.907379 307.630035,121.315384 308.058746,118.317520 
z"/>
<path fill="#4D8751" opacity="1.000000" stroke="none" 
	d="
M168.920685,59.186829 
	C170.097717,62.519897 170.851166,65.853455 171.695999,69.591278 
	C169.990143,69.757690 168.777893,69.875954 166.900269,70.059120 
	C167.471970,66.166718 167.984528,62.677021 168.920685,59.186829 
z"/>
<path fill="#4D8751" opacity="1.000000" stroke="none" 
	d="
M405.701111,69.625198 
	C404.266449,69.842232 403.176697,69.776398 401.709686,69.687775 
	C402.366394,65.745308 402.965240,62.150204 403.564087,58.555103 
	C403.935059,58.551559 404.306030,58.548012 404.677002,58.544468 
	C405.133331,62.143757 405.589661,65.743042 405.701111,69.625198 
z"/>
<path fill="#4D8751" opacity="1.000000" stroke="none" 
	d="
M214.592865,68.962540 
	C213.238632,69.613739 211.874802,69.860855 209.939804,70.211472 
	C210.667160,65.863609 211.278961,62.206417 211.890778,58.549225 
	C212.195572,58.530727 212.500366,58.512226 212.805145,58.493725 
	C213.397858,61.848640 213.990555,65.203560 214.592865,68.962540 
z"/>
<path fill="#4D8751" opacity="1.000000" stroke="none" 
	d="
M300.622864,180.445557 
	C301.098511,177.840500 301.478546,175.637131 301.858582,173.433777 
	C302.177063,173.436539 302.495544,173.439301 302.814056,173.442047 
	C303.397186,177.014847 303.980316,180.587646 304.584137,184.287079 
	C300.880188,185.542191 299.346680,184.728485 300.622864,180.445557 
z"/>
<path fill="#4D8751" opacity="1.000000" stroke="none" 
	d="
M375.468475,67.265732 
	C374.443115,68.621689 373.313904,69.576263 372.184723,70.530838 
	C371.857788,70.147583 371.530853,69.764336 371.203888,69.381081 
	C371.862122,65.369270 372.520386,61.357456 373.178619,57.345638 
	C373.381683,57.322121 373.584778,57.298603 373.787842,57.275085 
	C374.313446,60.471504 374.839050,63.667923 375.468475,67.265732 
z"/>
</svg>