<svg version="1.1" id="Layer_1" xmlns="http://www.w3.org/2000/svg" xmlns:xlink="http://www.w3.org/1999/xlink" x="0px" y="0px"
	 width="100%" viewBox="0 0 492 488" enable-background="new 0 0 492 488" xml:space="preserve">
<path fill="#FFFFFF" opacity="1.000000" stroke="none" 
	d="
M493.000000,173.000000 
	C493.000000,278.666656 493.000000,383.833282 493.000000,488.999939 
	C329.000061,488.999969 165.000122,488.999969 1.000144,489.000000 
	C1.000096,326.333435 1.000096,163.666870 1.000048,1.000232 
	C164.999863,1.000154 328.999725,1.000154 492.999786,1.000077 
	C493.000000,58.166668 493.000000,115.333336 493.000000,173.000000 
M7.999405,172.500000 
	C7.999425,271.994049 7.998365,371.488068 8.001006,470.982117 
	C8.001295,481.876587 12.157404,485.999054 23.134661,485.999176 
	C173.125443,486.001038 323.116211,486.001282 473.106995,485.998596 
	C483.745026,485.998413 487.997925,481.786530 487.998138,471.240448 
	C488.001465,321.083008 488.001495,170.925583 487.998199,20.768150 
	C487.997955,10.212387 483.751587,6.001534 473.115601,6.001339 
	C323.124817,5.998588 173.134048,5.998854 23.143269,6.000710 
	C12.157210,6.000846 8.001883,10.118347 8.001082,21.009258 
	C7.997395,71.172836 7.999425,121.336418 7.999405,172.500000 
z"/>
<path fill="#0B97D9" opacity="1.000000" stroke="none" 
	d="
M7.999405,172.000000 
	C7.999425,121.336418 7.997395,71.172836 8.001082,21.009258 
	C8.001883,10.118347 12.157210,6.000846 23.143269,6.000710 
	C173.134048,5.998854 323.124817,5.998588 473.115601,6.001339 
	C483.751587,6.001534 487.997955,10.212387 487.998199,20.768150 
	C488.001495,170.925583 488.001465,321.083008 487.998138,471.240448 
	C487.997925,481.786530 483.745026,485.998413 473.106995,485.998596 
	C323.116211,486.001282 173.125443,486.001038 23.134661,485.999176 
	C12.157404,485.999054 8.001295,481.876587 8.001006,470.982117 
	C7.998365,371.488068 7.999425,271.994049 7.999405,172.000000 
M58.906746,117.717873 
	C68.011528,117.717873 77.116318,117.717873 86.696091,117.717873 
	C86.696091,124.960014 86.696091,131.713135 86.696091,138.645172 
	C92.380569,138.645172 97.574043,138.645172 103.152100,138.645172 
	C103.152100,131.510361 103.152100,124.734055 103.152100,117.831146 
	C106.271378,117.639915 109.009857,117.472031 111.639801,117.310806 
	C111.639801,112.707718 111.639801,108.620369 111.639801,104.329666 
	C108.726028,104.202354 106.123329,104.088631 102.983917,103.951454 
	C102.983917,85.039894 102.983917,66.323647 102.983917,47.145489 
	C97.156067,47.145489 91.858513,47.329079 86.582123,47.074375 
	C83.574539,46.929192 82.200546,48.053638 81.078148,50.766121 
	C74.471184,66.732933 67.702049,82.633003 60.906284,98.520782 
	C60.228954,100.104301 59.005089,101.454048 58.180264,101.997627 
	C58.180264,83.898560 58.180264,65.799492 58.180264,46.725330 
	C52.966022,47.240593 48.000320,46.856430 43.717285,48.385052 
	C38.814964,50.134693 34.471973,53.509247 29.993845,56.347988 
	C28.912333,57.033573 27.628635,58.328224 27.520479,59.447411 
	C27.194899,62.816441 27.403082,66.237053 27.403082,70.000397 
	C32.202526,68.405983 36.223026,67.070343 40.974113,65.491989 
	C40.974113,90.378807 40.974113,114.553635 40.974113,138.721039 
	C46.980431,138.721039 52.398346,138.721039 58.034924,138.721039 
	C58.034924,131.658005 58.034924,124.872803 58.906746,117.717873 
M257.426727,300.892700 
	C227.394669,307.602295 202.086304,323.670746 177.825439,341.677765 
	C159.627426,313.931641 130.167709,293.943512 116.347450,300.646790 
	C141.436783,338.986267 141.285263,377.741882 116.636398,416.850250 
	C145.817139,414.670013 163.966736,397.506042 178.093582,374.577576 
	C179.224777,375.365295 179.932159,375.802429 180.578659,376.316193 
	C198.021820,390.178955 216.886948,401.647949 237.735626,409.612793 
	C258.563721,417.569733 279.754517,420.576721 301.755310,414.260254 
	C333.046112,405.276520 356.408112,385.415649 376.553894,360.904846 
	C378.380371,358.682587 377.624664,357.301025 376.084503,355.366119 
	C363.310547,339.318512 348.613922,325.401855 330.960754,314.845062 
	C308.466431,301.393219 284.447449,295.365356 257.426727,300.892700 
M134.212997,267.550598 
	C150.910995,271.011810 163.827560,263.385132 175.591507,252.934418 
	C176.672821,253.678375 177.418121,254.071609 178.019363,254.622147 
	C197.994995,272.912933 222.205582,270.300293 241.827316,255.607315 
	C245.363541,252.959351 247.448914,253.447037 250.709717,255.864899 
	C270.225586,270.335846 294.175293,272.650208 313.779327,255.061844 
	C314.719910,254.217987 315.911774,253.654175 317.018402,252.939407 
	C318.493164,254.250275 319.720642,255.362549 320.970520,256.449036 
	C335.877533,269.407410 353.449768,271.944092 368.411194,263.302612 
	C376.557220,258.597595 378.166870,254.188385 374.948425,244.264984 
	C353.437805,254.259399 333.343018,252.596664 315.825958,235.877197 
	C292.396759,251.765518 269.349609,257.228821 246.195236,236.019302 
	C222.886490,257.352356 199.667313,251.739319 176.506561,235.889343 
	C158.663269,252.621460 138.748444,254.224548 117.432167,244.225754 
	C114.147446,252.743652 115.628593,258.233643 122.565346,262.376007 
	C125.956215,264.400909 129.799911,265.667511 134.212997,267.550598 
M179.681885,197.897797 
	C177.586166,195.528595 175.993896,196.489838 173.919098,198.277908 
	C158.063980,211.941940 140.437302,214.096420 121.326843,206.031967 
	C119.909233,205.433762 118.375000,205.111954 115.271202,204.167603 
	C116.248604,210.049133 115.451294,216.043869 118.071899,218.876511 
	C124.419968,225.738174 133.118637,228.954956 142.864258,228.489304 
	C154.240845,227.945724 163.614487,222.925247 172.026123,215.752197 
	C174.306015,213.807983 176.047287,212.718155 178.802399,215.179474 
	C198.451935,232.733505 221.400589,230.322876 240.939407,216.239548 
	C245.137909,213.213333 247.469833,213.421722 251.473022,216.420715 
	C271.382111,231.335602 294.183228,231.250381 312.064941,216.290817 
	C315.688080,213.259735 317.699249,213.581039 321.203827,216.487213 
	C334.458313,227.478439 349.076660,232.693375 365.955017,224.865234 
	C375.769012,220.313522 377.713165,216.167709 375.262695,204.414413 
	C353.567169,214.432541 333.295959,213.116394 315.743988,195.928436 
	C292.348785,211.791229 269.297211,217.207718 246.146988,196.006775 
	C244.524399,197.358948 243.293106,198.826981 241.721130,199.617767 
	C235.256485,202.869751 228.981628,207.145569 222.098495,208.787582 
	C206.669891,212.468201 192.989792,206.755539 179.681885,197.897797 
M181.503708,116.868774 
	C181.651428,122.014984 181.449722,127.201607 182.039032,132.296738 
	C182.712051,138.115555 187.505371,141.214767 192.738144,139.867630 
	C194.691010,139.364899 196.504517,136.065750 198.677475,139.543350 
	C199.621155,138.735382 201.336151,137.968124 201.381287,137.112747 
	C201.642059,132.171677 201.508545,127.209793 201.508545,122.116333 
	C198.069534,122.116333 195.156235,122.116333 191.183243,122.116333 
	C192.287201,123.816208 192.725464,125.381142 193.650772,125.761627 
	C197.631149,127.398346 195.418579,130.302017 194.951920,132.493607 
	C194.728653,133.542068 192.649109,134.195251 191.410324,135.027466 
	C190.282135,133.269348 188.360886,131.588516 188.180496,129.738007 
	C187.714874,124.961372 187.961197,120.108849 188.036957,115.288429 
	C188.080078,112.546097 187.478210,109.061867 191.692657,108.964912 
	C195.873627,108.868721 194.666840,112.493126 195.190643,114.865753 
	C195.254013,115.152779 195.506577,115.398056 195.701584,115.711082 
	C197.427017,115.711082 199.168488,115.711082 200.892593,115.711082 
	C201.294846,107.049446 198.102158,103.559349 190.503281,104.039879 
	C184.365402,104.428024 182.227097,107.265358 181.503708,116.868774 
M211.011566,106.016983 
	C209.166840,105.353493 207.322128,104.690002 204.973526,103.845284 
	C204.973526,113.908195 204.778946,122.731483 205.044632,131.540878 
	C205.210846,137.052170 208.191147,139.656052 213.592636,139.981277 
	C219.820633,140.356247 223.715866,138.108749 224.020004,132.607254 
	C224.530258,123.377434 224.159592,114.098915 224.159592,104.384277 
	C222.164230,104.471870 220.292252,104.554039 218.198349,104.645950 
	C218.198349,112.229370 218.436920,119.229576 218.091003,126.200775 
	C217.933746,129.369797 220.253815,134.875275 214.513641,134.807953 
	C209.405869,134.748047 211.243134,129.550369 211.119949,126.411140 
	C210.865265,119.922287 211.040466,113.416550 211.011566,106.016983 
M245.972092,65.499130 
	C245.972092,70.959778 245.972092,76.420425 245.972092,82.229759 
	C248.087799,82.067955 249.635574,81.949585 251.578903,81.800964 
	C251.578903,75.770973 251.578903,70.189903 251.578903,64.608833 
	C254.640244,69.342140 256.842316,74.260536 258.745148,79.292107 
	C259.806946,82.099861 261.332703,82.766548 263.784424,81.672104 
	C263.784424,69.969666 263.784424,58.563789 263.784424,46.888348 
	C261.979462,47.066875 260.574951,47.205795 258.886292,47.372818 
	C258.886292,53.435635 258.886292,59.159042 258.886292,64.882446 
	C256.042816,60.070358 253.796188,55.140156 251.832916,50.099590 
	C250.718369,47.238094 249.135956,46.206047 245.972702,47.592693 
	C245.972702,53.205299 245.972702,58.852711 245.972092,65.499130 
M198.462524,46.995575 
	C196.704285,46.995575 194.946045,46.995575 193.204391,46.995575 
	C193.204391,59.028370 193.204391,70.403824 193.204391,82.096558 
	C196.461563,82.096558 199.423111,82.209518 202.373154,82.073372 
	C208.802109,81.776680 211.781250,78.871849 212.058441,72.521614 
	C212.239365,68.377098 212.170578,64.220032 212.153305,60.068840 
	C212.109116,49.446175 209.923218,47.222507 198.462524,46.995575 
M232.356018,138.690353 
	C233.407364,135.040009 232.794083,129.561737 239.722916,132.202240 
	C240.258499,134.487717 240.815231,136.863358 241.379959,139.273224 
	C243.326584,139.273224 245.043915,139.273224 247.212738,139.273224 
	C245.187836,129.281052 242.908432,119.766396 241.446014,110.127792 
	C240.644791,104.846962 238.601089,103.134811 233.181290,104.980713 
	C230.949203,116.188858 228.670105,127.633034 226.265976,139.705124 
	C228.607239,139.516800 230.202637,139.388458 232.356018,138.690353 
M163.859818,117.212769 
	C162.398270,124.479828 160.936722,131.746887 159.420013,139.288223 
	C162.669525,139.617477 165.781387,140.838150 166.008133,136.240402 
	C166.238983,131.559250 168.753021,130.831665 172.803726,132.153229 
	C173.350601,134.523392 173.897079,136.891769 174.436462,139.229462 
	C176.409363,139.229462 178.108292,139.229462 180.260330,139.229462 
	C178.247192,129.203949 176.026764,119.692780 174.528839,110.069160 
	C173.714035,104.834259 171.628967,103.099480 166.316559,104.985741 
	C165.564453,108.648842 164.771759,112.509644 163.859818,117.212769 
M280.143372,75.400703 
	C280.579529,77.485146 281.015686,79.569595 281.498230,81.875778 
	C283.349884,81.875778 285.068634,81.875778 287.318359,81.875778 
	C284.960663,70.044647 282.679871,58.599400 280.422577,47.272053 
	C277.808746,47.272053 275.713257,47.272053 273.393005,47.272053 
	C271.115173,58.920940 268.884125,70.330589 266.552826,82.252914 
	C269.248108,82.083038 270.966309,81.974747 272.469910,81.879974 
	C273.132385,78.898781 273.659576,76.526367 274.263214,73.810013 
	C276.399811,74.099365 278.148560,74.336189 280.143372,75.400703 
M227.255905,75.281410 
	C228.364334,78.513191 227.070343,84.242775 234.376480,81.470108 
	C232.109070,70.054100 229.837204,58.615570 227.630386,47.504593 
	C222.130386,45.800701 219.918686,47.657505 219.356400,52.786007 
	C218.798569,57.874123 217.430206,62.871651 216.455719,67.916321 
	C215.564209,72.531540 214.723999,77.156677 213.777878,82.223495 
	C216.314850,82.095139 218.046875,82.007515 219.613647,81.928246 
	C220.246124,78.993515 220.761215,76.603500 221.343689,73.900803 
	C223.408432,74.112503 225.173172,74.293442 227.255905,75.281410 
M171.065308,64.342209 
	C170.731033,65.830406 170.396759,67.318596 170.062500,68.806786 
	C169.799988,68.762985 169.537476,68.719185 169.274948,68.675385 
	C167.901917,61.538418 166.528870,54.401447 165.159180,47.281921 
	C163.234833,47.281921 161.654724,47.281921 159.563889,47.281921 
	C161.574905,57.380047 163.763672,67.060028 165.336746,76.839050 
	C166.089584,81.519142 167.878662,83.304420 172.981155,81.668297 
	C175.241974,70.474876 177.556000,59.018059 179.933975,47.244595 
	C177.846252,47.244595 176.102341,47.244595 174.191223,47.244595 
	C173.163162,52.787506 172.168915,58.148125 171.065308,64.342209 
M183.084869,82.046555 
	C184.860291,82.046555 186.635696,82.046555 188.524536,82.046555 
	C188.524536,70.236275 188.524536,58.731449 188.524536,47.354073 
	C186.266006,47.354073 184.381226,47.354073 182.435638,47.354073 
	C182.435638,59.010166 182.435638,70.270287 183.084869,82.046555 
M172.202744,100.914330 
	C173.575012,98.564720 174.947281,96.215103 176.436203,93.665756 
	C170.027847,92.726051 170.027847,92.726051 168.513336,101.967018 
	C169.663803,101.823326 170.729492,101.690224 172.202744,100.914330 
z"/>
<path fill="#FEFEFF" opacity="1.000000" stroke="none" 
	d="
M257.842834,300.806091 
	C284.447449,295.365356 308.466431,301.393219 330.960754,314.845062 
	C348.613922,325.401855 363.310547,339.318512 376.084503,355.366119 
	C377.624664,357.301025 378.380371,358.682587 376.553894,360.904846 
	C356.408112,385.415649 333.046112,405.276520 301.755310,414.260254 
	C279.754517,420.576721 258.563721,417.569733 237.735626,409.612793 
	C216.886948,401.647949 198.021820,390.178955 180.578659,376.316193 
	C179.932159,375.802429 179.224777,375.365295 178.093582,374.577576 
	C163.966736,397.506042 145.817139,414.670013 116.636398,416.850250 
	C141.285263,377.741882 141.436783,338.986267 116.347450,300.646790 
	C130.167709,293.943512 159.627426,313.931641 177.825439,341.677765 
	C202.086304,323.670746 227.394669,307.602295 257.842834,300.806091 
M292.363983,343.428802 
	C292.171936,345.570831 291.729889,347.724762 291.831390,349.852783 
	C292.255402,358.740845 300.010376,365.062134 309.321930,364.265045 
	C317.933258,363.527893 324.639099,355.476929 323.685059,347.020752 
	C322.869629,339.793396 317.823395,334.226624 310.874146,332.888336 
	C303.166901,331.404053 296.593048,334.944916 292.363983,343.428802 
z"/>
<path fill="#FBFDFE" opacity="1.000000" stroke="none" 
	d="
M133.825821,267.413940 
	C129.799911,265.667511 125.956215,264.400909 122.565346,262.376007 
	C115.628593,258.233643 114.147446,252.743652 117.432167,244.225754 
	C138.748444,254.224548 158.663269,252.621460 176.506561,235.889343 
	C199.667313,251.739319 222.886490,257.352356 246.195236,236.019302 
	C269.349609,257.228821 292.396759,251.765518 315.825958,235.877197 
	C333.343018,252.596664 353.437805,254.259399 374.948425,244.264984 
	C378.166870,254.188385 376.557220,258.597595 368.411194,263.302612 
	C353.449768,271.944092 335.877533,269.407410 320.970520,256.449036 
	C319.720642,255.362549 318.493164,254.250275 317.018402,252.939407 
	C315.911774,253.654175 314.719910,254.217987 313.779327,255.061844 
	C294.175293,272.650208 270.225586,270.335846 250.709717,255.864899 
	C247.448914,253.447037 245.363541,252.959351 241.827316,255.607315 
	C222.205582,270.300293 197.994995,272.912933 178.019363,254.622147 
	C177.418121,254.071609 176.672821,253.678375 175.591507,252.934418 
	C163.827560,263.385132 150.910995,271.011810 133.825821,267.413940 
z"/>
<path fill="#FBFDFE" opacity="1.000000" stroke="none" 
	d="
M179.988724,198.082916 
	C192.989792,206.755539 206.669891,212.468201 222.098495,208.787582 
	C228.981628,207.145569 235.256485,202.869751 241.721130,199.617767 
	C243.293106,198.826981 244.524399,197.358948 246.146988,196.006775 
	C269.297211,217.207718 292.348785,211.791229 315.743988,195.928436 
	C333.295959,213.116394 353.567169,214.432541 375.262695,204.414413 
	C377.713165,216.167709 375.769012,220.313522 365.955017,224.865234 
	C349.076660,232.693375 334.458313,227.478439 321.203827,216.487213 
	C317.699249,213.581039 315.688080,213.259735 312.064941,216.290817 
	C294.183228,231.250381 271.382111,231.335602 251.473022,216.420715 
	C247.469833,213.421722 245.137909,213.213333 240.939407,216.239548 
	C221.400589,230.322876 198.451935,232.733505 178.802399,215.179474 
	C176.047287,212.718155 174.306015,213.807983 172.026123,215.752197 
	C163.614487,222.925247 154.240845,227.945724 142.864258,228.489304 
	C133.118637,228.954956 124.419968,225.738174 118.071899,218.876511 
	C115.451294,216.043869 116.248604,210.049133 115.271202,204.167603 
	C118.375000,205.111954 119.909233,205.433762 121.326843,206.031967 
	C140.437302,214.096420 158.063980,211.941940 173.919098,198.277908 
	C175.993896,196.489838 177.586166,195.528595 179.988724,198.082916 
z"/>
<path fill="#FAFDFE" opacity="1.000000" stroke="none" 
	d="
M58.034882,102.912292 
	C59.005089,101.454048 60.228954,100.104301 60.906284,98.520782 
	C67.702049,82.633003 74.471184,66.732933 81.078148,50.766121 
	C82.200546,48.053638 83.574539,46.929192 86.582123,47.074375 
	C91.858513,47.329079 97.156067,47.145489 102.983917,47.145489 
	C102.983917,66.323647 102.983917,85.039894 102.983917,103.951454 
	C106.123329,104.088631 108.726028,104.202354 111.639801,104.329666 
	C111.639801,108.620369 111.639801,112.707718 111.639801,117.310806 
	C109.009857,117.472031 106.271378,117.639915 103.152100,117.831146 
	C103.152100,124.734055 103.152100,131.510361 103.152100,138.645172 
	C97.574043,138.645172 92.380569,138.645172 86.696091,138.645172 
	C86.696091,131.713135 86.696091,124.960014 86.696091,117.717873 
	C77.116318,117.717873 68.011528,117.717873 58.455742,117.429779 
	C58.014786,112.398552 58.024834,107.655418 58.034882,102.912292 
M86.798386,71.941391 
	C86.798386,70.422798 86.798386,68.904205 86.798386,67.385612 
	C86.502388,67.355415 86.206390,67.325226 85.910400,67.295036 
	C81.556549,79.354729 77.202705,91.414413 72.708733,103.862251 
	C77.614883,103.862251 81.965904,103.862251 86.798111,103.862251 
	C86.798111,93.312363 86.798111,83.072479 86.798386,71.941391 
z"/>
<path fill="#FDFEFF" opacity="1.000000" stroke="none" 
	d="
M58.107574,102.454956 
	C58.024834,107.655418 58.014786,112.398552 58.019833,117.614639 
	C58.034924,124.872803 58.034924,131.658005 58.034924,138.721039 
	C52.398346,138.721039 46.980431,138.721039 40.974113,138.721039 
	C40.974113,114.553635 40.974113,90.378807 40.974113,65.491989 
	C36.223026,67.070343 32.202526,68.405983 27.403082,70.000397 
	C27.403082,66.237053 27.194899,62.816441 27.520479,59.447411 
	C27.628635,58.328224 28.912333,57.033573 29.993845,56.347988 
	C34.471973,53.509247 38.814964,50.134693 43.717285,48.385052 
	C48.000320,46.856430 52.966022,47.240593 58.180264,46.725330 
	C58.180264,65.799492 58.180264,83.898560 58.107574,102.454956 
z"/>
<path fill="#F7FCFE" opacity="1.000000" stroke="none" 
	d="
M181.508804,116.418396 
	C182.227097,107.265358 184.365402,104.428024 190.503281,104.039879 
	C198.102158,103.559349 201.294846,107.049446 200.892593,115.711082 
	C199.168488,115.711082 197.427017,115.711082 195.701584,115.711082 
	C195.506577,115.398056 195.254013,115.152779 195.190643,114.865753 
	C194.666840,112.493126 195.873627,108.868721 191.692657,108.964912 
	C187.478210,109.061867 188.080078,112.546097 188.036957,115.288429 
	C187.961197,120.108849 187.714874,124.961372 188.180496,129.738007 
	C188.360886,131.588516 190.282135,133.269348 191.410324,135.027466 
	C192.649109,134.195251 194.728653,133.542068 194.951920,132.493607 
	C195.418579,130.302017 197.631149,127.398346 193.650772,125.761627 
	C192.725464,125.381142 192.287201,123.816208 191.183243,122.116333 
	C195.156235,122.116333 198.069534,122.116333 201.508545,122.116333 
	C201.508545,127.209793 201.642059,132.171677 201.381287,137.112747 
	C201.336151,137.968124 199.621155,138.735382 198.677475,139.543350 
	C196.504517,136.065750 194.691010,139.364899 192.738144,139.867630 
	C187.505371,141.214767 182.712051,138.115555 182.039032,132.296738 
	C181.449722,127.201607 181.651428,122.014984 181.508804,116.418396 
z"/>
<path fill="#EFF8FC" opacity="1.000000" stroke="none" 
	d="
M211.025208,106.467377 
	C211.040466,113.416550 210.865265,119.922287 211.119949,126.411140 
	C211.243134,129.550369 209.405869,134.748047 214.513641,134.807953 
	C220.253815,134.875275 217.933746,129.369797 218.091003,126.200775 
	C218.436920,119.229576 218.198349,112.229370 218.198349,104.645950 
	C220.292252,104.554039 222.164230,104.471870 224.159592,104.384277 
	C224.159592,114.098915 224.530258,123.377434 224.020004,132.607254 
	C223.715866,138.108749 219.820633,140.356247 213.592636,139.981277 
	C208.191147,139.656052 205.210846,137.052170 205.044632,131.540878 
	C204.778946,122.731483 204.973526,113.908195 204.973526,103.845284 
	C207.322128,104.690002 209.166840,105.353493 211.025208,106.467377 
z"/>
<path fill="#FCFEFF" opacity="1.000000" stroke="none" 
	d="
M245.972397,64.999626 
	C245.972702,58.852711 245.972702,53.205299 245.972702,47.592693 
	C249.135956,46.206047 250.718369,47.238094 251.832916,50.099590 
	C253.796188,55.140156 256.042816,60.070358 258.886292,64.882446 
	C258.886292,59.159042 258.886292,53.435635 258.886292,47.372818 
	C260.574951,47.205795 261.979462,47.066875 263.784424,46.888348 
	C263.784424,58.563789 263.784424,69.969666 263.784424,81.672104 
	C261.332703,82.766548 259.806946,82.099861 258.745148,79.292107 
	C256.842316,74.260536 254.640244,69.342140 251.578903,64.608833 
	C251.578903,70.189903 251.578903,75.770973 251.578903,81.800964 
	C249.635574,81.949585 248.087799,82.067955 245.972092,82.229759 
	C245.972092,76.420425 245.972092,70.959778 245.972397,64.999626 
z"/>
<path fill="#FCFEFF" opacity="1.000000" stroke="none" 
	d="
M198.925568,46.995613 
	C209.923218,47.222507 212.109116,49.446175 212.153305,60.068840 
	C212.170578,64.220032 212.239365,68.377098 212.058441,72.521614 
	C211.781250,78.871849 208.802109,81.776680 202.373154,82.073372 
	C199.423111,82.209518 196.461563,82.096558 193.204391,82.096558 
	C193.204391,70.403824 193.204391,59.028370 193.204391,46.995575 
	C194.946045,46.995575 196.704285,46.995575 198.925568,46.995613 
M205.875122,68.322586 
	C205.861221,64.494713 205.935532,60.663948 205.809937,56.839748 
	C205.668900,52.546070 203.550369,50.964031 199.509674,52.296345 
	C199.509674,60.928555 199.509674,69.287720 199.509674,77.727417 
	C206.408447,78.029762 205.826385,73.421936 205.875122,68.322586 
z"/>
<path fill="#F0F9FD" opacity="1.000000" stroke="none" 
	d="
M232.077026,138.975250 
	C230.202637,139.388458 228.607239,139.516800 226.265976,139.705124 
	C228.670105,127.633034 230.949203,116.188858 233.181290,104.980713 
	C238.601089,103.134811 240.644791,104.846962 241.446014,110.127792 
	C242.908432,119.766396 245.187836,129.281052 247.212738,139.273224 
	C245.043915,139.273224 243.326584,139.273224 241.379959,139.273224 
	C240.815231,136.863358 240.258499,134.487717 239.722916,132.202240 
	C232.794083,129.561737 233.407364,135.040009 232.077026,138.975250 
M237.896042,119.108727 
	C237.443863,118.253380 236.991699,117.398026 236.249649,115.994331 
	C235.669495,119.966148 235.181229,123.308868 234.621155,127.143211 
	C236.534531,126.948967 237.708923,126.829750 239.071365,126.691437 
	C238.668625,124.135620 238.334335,122.014267 237.896042,119.108727 
z"/>
<path fill="#F0F9FD" opacity="1.000000" stroke="none" 
	d="
M163.919434,116.791603 
	C164.771759,112.509644 165.564453,108.648842 166.316559,104.985741 
	C171.628967,103.099480 173.714035,104.834259 174.528839,110.069160 
	C176.026764,119.692780 178.247192,129.203949 180.260330,139.229462 
	C178.108292,139.229462 176.409363,139.229462 174.436462,139.229462 
	C173.897079,136.891769 173.350601,134.523392 172.803726,132.153229 
	C168.753021,130.831665 166.238983,131.559250 166.008133,136.240402 
	C165.781387,140.838150 162.669525,139.617477 159.420013,139.288223 
	C160.936722,131.746887 162.398270,124.479828 163.919434,116.791603 
M170.753860,117.365669 
	C170.469543,116.628738 170.185226,115.891800 169.745132,114.751137 
	C166.975815,127.327858 166.975815,127.327858 172.050705,126.421524 
	C171.657379,123.659386 171.262665,120.887474 170.753860,117.365669 
z"/>
<path fill="#F6FBFE" opacity="1.000000" stroke="none" 
	d="
M280.020325,74.986862 
	C278.148560,74.336189 276.399811,74.099365 274.263214,73.810013 
	C273.659576,76.526367 273.132385,78.898781 272.469910,81.879974 
	C270.966309,81.974747 269.248108,82.083038 266.552826,82.252914 
	C268.884125,70.330589 271.115173,58.920940 273.393005,47.272053 
	C275.713257,47.272053 277.808746,47.272053 280.422577,47.272053 
	C282.679871,58.599400 284.960663,70.044647 287.318359,81.875778 
	C285.068634,81.875778 283.349884,81.875778 281.498230,81.875778 
	C281.015686,79.569595 280.579529,77.485146 280.020325,74.986862 
M278.430176,64.132317 
	C278.051758,62.233093 277.673309,60.333874 277.294861,58.434650 
	C276.975647,58.489174 276.656403,58.543697 276.337189,58.598217 
	C275.821625,62.243427 275.306091,65.888641 274.730621,69.957550 
	C276.546173,69.845314 277.750824,69.770836 279.173157,69.682907 
	C278.973816,67.876236 278.813263,66.421326 278.430176,64.132317 
z"/>
<path fill="#F6FBFE" opacity="1.000000" stroke="none" 
	d="
M227.096909,74.877892 
	C225.173172,74.293442 223.408432,74.112503 221.343689,73.900803 
	C220.761215,76.603500 220.246124,78.993515 219.613647,81.928246 
	C218.046875,82.007515 216.314850,82.095139 213.777878,82.223495 
	C214.723999,77.156677 215.564209,72.531540 216.455719,67.916321 
	C217.430206,62.871651 218.798569,57.874123 219.356400,52.786007 
	C219.918686,47.657505 222.130386,45.800701 227.630386,47.504593 
	C229.837204,58.615570 232.109070,70.054100 234.376480,81.470108 
	C227.070343,84.242775 228.364334,78.513191 227.096909,74.877892 
M225.418869,69.885139 
	C225.418869,65.933472 225.418869,61.981812 225.418869,58.030144 
	C224.836899,58.029724 224.254929,58.029305 223.672958,58.028885 
	C223.120316,61.375885 222.439590,64.711517 222.140457,68.081017 
	C222.090332,68.645859 223.693527,69.357468 225.418869,69.885139 
z"/>
<path fill="#F6FBFE" opacity="1.000000" stroke="none" 
	d="
M171.119995,63.925476 
	C172.168915,58.148125 173.163162,52.787506 174.191223,47.244595 
	C176.102341,47.244595 177.846252,47.244595 179.933975,47.244595 
	C177.556000,59.018059 175.241974,70.474876 172.981155,81.668297 
	C167.878662,83.304420 166.089584,81.519142 165.336746,76.839050 
	C163.763672,67.060028 161.574905,57.380047 159.563889,47.281921 
	C161.654724,47.281921 163.234833,47.281921 165.159180,47.281921 
	C166.528870,54.401447 167.901917,61.538418 169.274948,68.675385 
	C169.537476,68.719185 169.799988,68.762985 170.062500,68.806786 
	C170.396759,67.318596 170.731033,65.830406 171.119995,63.925476 
z"/>
<path fill="#E8F5FB" opacity="1.000000" stroke="none" 
	d="
M182.760254,81.788483 
	C182.435638,70.270287 182.435638,59.010166 182.435638,47.354073 
	C184.381226,47.354073 186.266006,47.354073 188.524536,47.354073 
	C188.524536,58.731449 188.524536,70.236275 188.524536,82.046555 
	C186.635696,82.046555 184.860291,82.046555 182.760254,81.788483 
z"/>
<path fill="#E8F5FB" opacity="1.000000" stroke="none" 
	d="
M171.998962,101.235725 
	C170.729492,101.690224 169.663803,101.823326 168.513336,101.967018 
	C170.027847,92.726051 170.027847,92.726051 176.436203,93.665756 
	C174.947281,96.215103 173.575012,98.564720 171.998962,101.235725 
z"/>
<path fill="#0D98D9" opacity="1.000000" stroke="none" 
	d="
M292.529846,343.054321 
	C296.593048,334.944916 303.166901,331.404053 310.874146,332.888336 
	C317.823395,334.226624 322.869629,339.793396 323.685059,347.020752 
	C324.639099,355.476929 317.933258,363.527893 309.321930,364.265045 
	C300.010376,365.062134 292.255402,358.740845 291.831390,349.852783 
	C291.729889,347.724762 292.171936,345.570831 292.529846,343.054321 
z"/>
<path fill="#199DDB" opacity="1.000000" stroke="none" 
	d="
M86.798248,72.386993 
	C86.798111,83.072479 86.798111,93.312363 86.798111,103.862251 
	C81.965904,103.862251 77.614883,103.862251 72.708733,103.862251 
	C77.202705,91.414413 81.556549,79.354729 85.910400,67.295036 
	C86.206390,67.325226 86.502388,67.355415 86.798386,67.385612 
	C86.798386,68.904205 86.798386,70.422798 86.798248,72.386993 
z"/>
<path fill="#199DDB" opacity="1.000000" stroke="none" 
	d="
M205.874603,68.791786 
	C205.826385,73.421936 206.408447,78.029762 199.509674,77.727417 
	C199.509674,69.287720 199.509674,60.928555 199.509674,52.296345 
	C203.550369,50.964031 205.668900,52.546070 205.809937,56.839748 
	C205.935532,60.663948 205.861221,64.494713 205.874603,68.791786 
z"/>
<path fill="#199DDB" opacity="1.000000" stroke="none" 
	d="
M237.948059,119.500816 
	C238.334335,122.014267 238.668625,124.135620 239.071365,126.691437 
	C237.708923,126.829750 236.534531,126.948967 234.621155,127.143211 
	C235.181229,123.308868 235.669495,119.966148 236.249649,115.994331 
	C236.991699,117.398026 237.443863,118.253380 237.948059,119.500816 
z"/>
<path fill="#22A1DD" opacity="1.000000" stroke="none" 
	d="
M170.810913,117.740616 
	C171.262665,120.887474 171.657379,123.659386 172.050705,126.421524 
	C166.975815,127.327858 166.975815,127.327858 169.745132,114.751137 
	C170.185226,115.891800 170.469543,116.628738 170.810913,117.740616 
z"/>
<path fill="#22A1DD" opacity="1.000000" stroke="none" 
	d="
M278.541443,64.549370 
	C278.813263,66.421326 278.973816,67.876236 279.173157,69.682907 
	C277.750824,69.770836 276.546173,69.845314 274.730621,69.957550 
	C275.306091,65.888641 275.821625,62.243427 276.337189,58.598217 
	C276.656403,58.543697 276.975647,58.489174 277.294861,58.434650 
	C277.673309,60.333874 278.051758,62.233093 278.541443,64.549370 
z"/>
<path fill="#22A1DD" opacity="1.000000" stroke="none" 
	d="
M224.975830,69.943199 
	C223.693527,69.357468 222.090332,68.645859 222.140457,68.081017 
	C222.439590,64.711517 223.120316,61.375885 223.672958,58.028885 
	C224.254929,58.029305 224.836899,58.029724 225.418869,58.030144 
	C225.418869,61.981812 225.418869,65.933472 224.975830,69.943199 
z"/>
</svg>