<svg version="1.1" id="Layer_1" xmlns="http://www.w3.org/2000/svg" xmlns:xlink="http://www.w3.org/1999/xlink" x="0px" y="0px"
	 width="100%" viewBox="0 0 492 487" enable-background="new 0 0 492 487" xml:space="preserve">
<path fill="#FFFFFF" opacity="1.000000" stroke="none" 
	d="
M493.000000,176.000000 
	C493.000000,280.333313 493.000000,384.166626 493.000000,487.999939 
	C329.000061,487.999969 165.000122,487.999969 1.000144,488.000000 
	C1.000096,325.666779 1.000096,163.333542 1.000048,1.000231 
	C164.999863,1.000154 328.999725,1.000154 492.999786,1.000077 
	C493.000000,59.166668 493.000000,117.333336 493.000000,176.000000 
M414.500000,4.999510 
	C283.674072,4.999530 152.848129,4.998755 22.022203,5.001049 
	C11.298917,5.001236 7.002637,9.176603 7.002358,19.627815 
	C6.998351,169.952835 6.997972,320.277863 7.003377,470.602875 
	C7.003735,480.550964 11.398364,484.995239 21.252937,484.995667 
	C171.744614,485.002228 322.236298,485.002197 472.727966,484.995819 
	C482.599731,484.995392 486.996002,480.562408 486.996368,470.621948 
	C487.001892,320.130280 487.002380,169.638596 486.995056,19.146917 
	C486.994598,9.540455 482.513763,5.017137 472.996826,5.006224 
	C453.831238,4.984248 434.665619,4.999573 414.500000,4.999510 
z"/>
<path fill="#56C02B" opacity="1.000000" stroke="none" 
	d="
M415.000000,4.999510 
	C434.665619,4.999573 453.831238,4.984248 472.996826,5.006224 
	C482.513763,5.017137 486.994598,9.540455 486.995056,19.146917 
	C487.002380,169.638596 487.001892,320.130280 486.996368,470.621948 
	C486.996002,480.562408 482.599731,484.995392 472.727966,484.995819 
	C322.236298,485.002197 171.744614,485.002228 21.252937,484.995667 
	C11.398364,484.995239 7.003735,480.550964 7.003377,470.602875 
	C6.997972,320.277863 6.998351,169.952835 7.002358,19.627815 
	C7.002637,9.176603 11.298917,5.001236 22.022203,5.001049 
	C152.848129,4.998755 283.674072,4.999530 415.000000,4.999510 
M252.116516,300.506927 
	C256.680878,291.191437 258.165985,281.561951 255.015030,271.482635 
	C250.599655,257.358643 240.786758,248.741409 226.895279,244.654953 
	C233.852585,221.471878 225.424088,203.063461 205.366699,196.801544 
	C185.121750,190.481049 168.871521,201.384552 160.968750,226.737747 
	C148.886353,227.514496 139.623123,232.718399 135.618744,244.779160 
	C131.415558,257.438690 136.723007,267.024048 146.723602,274.900238 
	C140.409927,282.495422 138.137405,290.982117 140.563812,300.273285 
	C143.953918,313.254700 154.164932,320.415833 169.068008,320.545563 
	C183.883118,320.674530 198.718674,320.155579 213.510910,320.760559 
	C230.207718,321.443359 242.899521,315.271179 252.116516,300.506927 
M188.500015,411.138855 
	C167.759384,411.138855 147.018753,411.138855 126.334198,411.138855 
	C126.334198,417.150116 126.334198,422.235474 126.334198,427.402466 
	C205.362350,427.402466 284.051086,427.402466 362.699829,427.402466 
	C362.699829,421.848999 362.699829,416.761108 362.699829,411.138947 
	C304.744781,411.138947 247.122406,411.138947 188.500015,411.138855 
M158.499985,399.157623 
	C226.562027,399.157623 294.624054,399.157623 362.635529,399.157623 
	C362.635529,393.241516 362.635529,388.178070 362.635529,383.138794 
	C283.673889,383.138794 205.096588,383.138794 126.329193,383.138794 
	C126.329193,388.493317 126.329193,393.546875 126.329193,399.157684 
	C136.925674,399.157684 147.212814,399.157684 158.499985,399.157623 
M82.423752,77.614868 
	C80.025665,78.437637 77.627571,79.260414 74.838593,80.217300 
	C75.217697,73.723251 75.572876,67.639015 75.953491,61.118942 
	C85.400177,61.118942 94.322426,61.118942 103.414612,61.118942 
	C103.414612,55.931507 103.414612,51.220745 103.414612,46.467323 
	C89.319496,46.467323 75.589294,46.467323 61.040314,46.467323 
	C61.040314,63.809361 61.040314,80.837891 61.040314,98.168777 
	C64.265411,98.168777 67.591850,98.065559 70.908516,98.201202 
	C73.595627,98.311104 75.137085,97.732521 76.662827,94.951485 
	C77.906746,92.684120 81.554123,90.207672 83.833580,90.468193 
	C86.087349,90.725784 89.510338,94.154236 89.722527,96.441994 
	C90.453667,104.324783 90.254204,112.328239 89.894600,120.262413 
	C89.730644,123.879677 87.434105,126.498543 83.290947,126.250801 
	C79.288750,126.011482 77.476395,123.441750 76.986794,119.731659 
	C76.620911,116.959106 76.330360,114.176613 76.026657,111.573334 
	C70.287300,111.573334 64.897865,111.573334 59.543171,111.573334 
	C59.032810,132.963837 67.483170,141.092743 88.351952,139.088303 
	C97.640900,138.196091 103.464188,132.414490 105.680267,123.470581 
	C108.153702,113.487999 108.330147,103.326363 106.050690,93.276848 
	C103.169922,80.576286 96.276009,75.908310 82.423752,77.614868 
M57.047661,101.500000 
	C57.047661,83.128159 57.047661,64.756325 57.047661,45.711300 
	C51.653721,46.209278 46.792068,45.756676 42.649845,47.271420 
	C37.606586,49.115662 33.116482,52.533344 28.509096,55.462326 
	C27.469002,56.123528 26.376377,57.525543 26.270025,58.675514 
	C25.968250,61.938633 26.164253,65.247787 26.164253,68.976425 
	C30.634539,67.505714 34.666767,66.179115 39.430023,64.612015 
	C39.430023,89.351585 39.430023,113.525810 39.430023,137.680603 
	C45.633240,137.680603 51.202465,137.680603 57.047016,137.680603 
	C57.047016,125.740662 57.047016,114.120331 57.047661,101.500000 
M290.972260,284.211609 
	C286.926147,286.429718 282.761902,288.468567 278.921875,290.999329 
	C278.027618,291.588684 278.235779,293.850800 277.936707,295.343201 
	C278.971771,295.489624 280.170105,296.052124 281.017212,295.719666 
	C292.652557,291.152924 302.984192,294.099487 312.152344,301.592957 
	C316.014496,304.749664 318.423340,304.693298 322.292847,301.540833 
	C331.464691,294.068665 341.842468,291.213654 353.482178,295.652374 
	C354.413330,296.007446 355.766693,295.255463 356.923828,295.017914 
	C356.559113,293.671631 356.615051,291.592957 355.759338,291.101440 
	C351.220581,288.494476 346.679169,285.404480 341.715515,284.130585 
	C332.538116,281.775177 324.568909,285.979645 317.172638,291.097992 
	C309.465271,285.338013 301.261078,282.282501 290.972260,284.211609 
M192.847198,330.131775 
	C191.924271,330.832886 190.207245,331.522522 190.196915,332.236816 
	C190.029419,343.824524 190.078384,355.415344 190.078384,367.615448 
	C194.318970,367.615448 197.959793,367.397308 201.562424,367.674927 
	C205.399734,367.970642 206.869125,366.809082 206.735977,362.702240 
	C206.439362,353.553619 206.425262,344.381348 206.738052,335.233826 
	C206.886566,330.890503 205.273483,329.647797 201.266525,330.076324 
	C198.797028,330.340393 196.276352,330.125824 192.847198,330.131775 
M287.587738,228.382828 
	C285.804962,228.108078 283.824524,228.242493 282.271423,227.492264 
	C272.113983,222.585602 261.051910,223.909088 254.755447,231.208862 
	C253.860458,232.246460 253.881790,234.074463 253.479004,235.536621 
	C254.652206,235.661667 256.028595,236.250778 256.967133,235.839844 
	C266.176971,231.807220 274.642456,233.883713 282.350525,239.320618 
	C285.780487,241.739960 287.719452,241.620178 290.766541,238.769867 
	C297.386749,232.577103 305.163971,229.392868 314.499817,231.822174 
	C315.854034,232.174576 317.411407,231.746429 318.874756,231.679489 
	C318.194794,230.183670 317.907654,228.218765 316.771667,227.267502 
	C308.872070,220.652206 298.865387,220.993927 287.587738,228.382828 
M229.102921,131.476425 
	C230.280197,135.378387 230.191116,140.769791 237.338257,138.008606 
	C236.242722,134.063156 235.218521,130.073608 234.013107,126.139610 
	C233.212509,123.526764 232.963135,121.572289 235.129105,119.018990 
	C239.125946,114.307365 237.023743,105.653694 231.679092,104.359184 
	C227.169998,103.267067 222.339249,103.503082 217.583038,103.146141 
	C217.583038,115.497124 217.583038,126.764091 217.583038,138.337494 
	C219.725876,138.337494 221.608414,138.337494 224.089630,138.337494 
	C224.089630,133.006393 224.089630,127.968956 224.089630,122.931526 
	C224.724609,122.744438 225.359573,122.557358 225.994553,122.370270 
	C226.983429,125.138222 227.972305,127.906181 229.102921,131.476425 
M194.308578,107.805672 
	C194.308578,117.891426 194.308578,127.977173 194.308578,138.332184 
	C196.734055,138.332184 198.615845,138.332184 201.078369,138.332184 
	C201.078369,133.003754 201.078369,127.972778 201.078369,122.941803 
	C201.517044,122.771713 201.955734,122.601616 202.394409,122.431526 
	C203.168350,123.557671 204.231918,124.585075 204.656418,125.830338 
	C205.563370,128.490936 206.409790,131.227188 206.790787,133.999832 
	C207.442963,138.745911 209.923889,139.497055 214.314133,137.955826 
	C213.159027,133.759064 212.154205,129.769028 210.945755,125.841652 
	C210.188828,123.381668 209.946808,121.574471 212.006973,119.195282 
	C215.894012,114.706291 214.326447,106.171379 209.339676,104.684540 
	C205.167587,103.440590 200.530396,103.632843 196.092743,103.554955 
	C195.518173,103.544868 194.905151,105.725922 194.308578,107.805672 
M302.258362,123.053497 
	C303.218567,123.792862 304.683258,124.343620 305.043549,125.307274 
	C306.086517,128.097031 306.964386,131.011902 307.395294,133.952637 
	C308.092468,138.710678 310.662384,139.468552 315.000702,138.030807 
	C313.994659,134.413452 313.124451,130.888779 312.022766,127.437996 
	C310.991089,124.206482 310.731537,121.697227 313.124146,118.404755 
	C317.503357,112.378502 313.545715,104.464012 306.194794,103.609375 
	C302.635315,103.195534 298.987946,103.537903 295.366882,103.537903 
	C295.366882,115.432587 295.366882,126.829239 295.366882,138.200424 
	C297.597748,138.200424 299.466858,138.200424 301.763092,138.200424 
	C301.763092,133.130005 301.763092,128.485062 302.258362,123.053497 
M211.001938,70.159225 
	C211.003998,67.829498 211.007751,65.499779 211.007812,63.170052 
	C211.008270,47.087433 208.978500,45.188095 192.751740,46.119713 
	C192.475616,46.135571 192.214844,46.418831 191.850861,46.634117 
	C191.850861,57.996571 191.850861,69.400146 191.850861,80.763985 
	C205.784821,82.393707 209.735535,80.349808 211.001938,70.159225 
M326.450470,213.838547 
	C333.477020,211.243195 340.439972,209.593781 347.321106,214.400436 
	C348.290863,215.077850 349.827148,214.944305 351.101196,215.186142 
	C350.974152,213.720688 351.343262,211.936081 350.639343,210.841705 
	C346.147247,203.858002 339.405853,201.655121 331.614624,203.320923 
	C328.372803,204.014038 326.548767,203.417496 324.317108,201.098022 
	C318.832520,195.397644 309.793030,193.784103 303.732086,197.192139 
	C302.675903,197.786041 302.209961,199.429642 301.471375,200.588425 
	C302.405365,201.081818 303.377808,202.062592 304.267334,201.992386 
	C312.154236,201.369949 317.410889,205.466354 321.908081,211.270828 
	C322.822296,212.450806 324.404846,213.112930 326.450470,213.838547 
M226.929733,78.731804 
	C228.615448,79.792870 230.301178,80.853935 231.986893,81.915009 
	C232.380127,81.469765 232.773346,81.024521 233.166565,80.579277 
	C230.889877,69.119995 228.613190,57.660721 226.343246,46.235466 
	C223.804260,46.235466 221.699631,46.235466 219.330093,46.235466 
	C217.056152,57.853634 214.820831,69.274559 212.571014,80.769508 
	C217.375198,81.202919 217.375198,81.202919 220.470551,73.285049 
	C222.232254,73.285049 223.993942,73.285049 225.772476,73.285049 
	C226.153305,74.979752 226.478531,76.426941 226.929733,78.731804 
M257.026398,130.437805 
	C258.654175,132.972824 259.727264,136.384933 262.035156,137.844421 
	C265.827515,140.242630 270.136200,139.388031 273.363495,135.934082 
	C276.129456,132.973801 276.084259,127.189873 273.026398,123.459381 
	C270.618561,120.521896 267.400360,118.242149 265.043274,115.272438 
	C263.886414,113.814888 263.689117,111.473007 263.478912,109.486755 
	C263.435059,109.072556 265.913483,107.844490 266.096069,108.041580 
	C267.321991,109.364845 268.229095,110.980591 269.273224,112.478043 
	C269.446198,112.726105 269.784058,112.859177 270.294281,113.222275 
	C271.519989,113.009911 272.949493,112.762230 274.530579,112.488297 
	C274.401489,107.855385 272.999573,104.276039 268.334656,103.288345 
	C264.423523,102.460251 260.454498,102.891029 258.222595,106.788673 
	C255.955719,110.747444 256.341248,114.869728 259.285248,118.408173 
	C260.862976,120.304466 262.994629,121.728729 264.745026,123.496048 
	C266.133209,124.897682 267.973877,126.330910 268.413544,128.055969 
	C268.844788,129.748032 267.760864,131.826233 267.341888,133.734970 
	C265.847534,132.625961 264.230072,131.642532 262.913483,130.352158 
	C262.303436,129.754257 262.279327,128.558517 261.719391,126.771416 
	C259.964478,127.844391 258.484619,128.749207 257.026398,130.437805 
M159.994644,54.658672 
	C161.763046,63.409821 163.531433,72.160973 165.296616,80.896133 
	C167.674255,80.896133 169.602585,80.896133 171.756454,80.896133 
	C174.076111,69.226837 176.349960,57.787872 178.651001,46.212219 
	C176.338135,46.212219 174.718796,46.212219 172.964569,46.212219 
	C171.570831,53.782444 170.212524,61.160301 168.854218,68.538155 
	C168.640335,68.518631 168.426453,68.499107 168.212570,68.479576 
	C166.770264,61.033371 165.327942,53.587166 163.849808,45.956028 
	C161.834900,46.049934 160.234909,46.124504 158.354691,46.212135 
	C158.912354,48.992580 159.397369,51.410858 159.994644,54.658672 
M246.977631,131.306564 
	C246.977631,128.528336 246.977631,125.750092 246.977631,123.237419 
	C249.890213,121.990456 255.295914,124.359856 252.939865,118.083420 
	C251.025116,117.983894 249.236343,117.890923 247.271484,117.788803 
	C247.271484,114.478951 247.271484,111.424942 247.271484,107.993454 
	C249.991043,107.993454 252.417282,107.993454 255.263824,107.993454 
	C255.105347,106.207779 254.983948,104.839806 254.885941,103.735336 
	C249.792099,103.735336 245.220093,103.735336 240.701431,103.735336 
	C240.701431,115.532730 240.701431,126.919365 240.701431,138.250565 
	C253.463623,139.762970 255.444748,139.196915 254.822296,135.072922 
	C252.014771,134.057755 249.504822,133.150192 246.977631,131.306564 
M325.589844,133.921570 
	C325.206604,130.297028 324.823364,126.672485 324.440338,123.050156 
	C327.193756,122.725266 328.975067,122.515076 330.814209,122.298065 
	C330.814209,120.815331 330.814209,119.567520 330.814209,118.233772 
	C328.661316,118.005562 326.755127,117.803497 324.969482,117.614212 
	C324.969482,114.278862 324.969482,111.356827 324.969482,108.238274 
	C327.697784,108.095474 330.131683,107.968079 334.260590,107.751968 
	C332.492859,105.649467 331.614197,103.616112 330.549500,103.513550 
	C326.496857,103.123154 322.384186,103.356102 318.393280,103.356102 
	C318.393280,115.500351 318.393280,126.882484 318.393280,138.416077 
	C323.364594,138.416077 327.963593,138.416077 332.664856,138.416077 
	C334.030396,131.687454 328.822723,135.011673 325.589844,133.921570 
M177.072006,112.557938 
	C177.072006,121.122719 177.072006,129.687500 177.072006,138.423889 
	C182.393250,138.423889 186.984421,138.423889 191.870972,138.423889 
	C192.762634,130.913620 186.189651,135.898270 184.142090,133.200333 
	C184.142090,130.012070 184.142090,126.480988 184.142090,122.994423 
	C190.130905,122.387863 190.130905,122.387863 189.523102,118.074501 
	C187.800659,117.986710 186.028870,117.896393 184.090210,117.797585 
	C184.090210,114.451096 184.090210,111.419670 184.090210,108.249557 
	C186.840744,108.096779 189.271133,107.961784 192.102448,107.804520 
	C191.897018,106.151955 191.731567,104.821075 191.596802,103.736923 
	C186.476929,103.736923 181.908157,103.736923 177.072037,103.736923 
	C177.072037,106.616730 177.072037,109.098244 177.072006,112.557938 
M281.171906,133.273285 
	C281.247711,134.886551 281.323486,136.499802 281.410217,138.345367 
	C283.635590,138.345367 285.526245,138.345367 287.895630,138.345367 
	C287.895630,128.316971 287.895630,118.586075 287.895630,108.759132 
	C289.912659,108.429115 291.477661,108.173058 293.364563,107.864334 
	C293.158997,106.216446 292.986267,104.831627 292.840149,103.660461 
	C286.932648,103.660461 281.516571,103.660461 275.913086,103.660461 
	C275.913086,105.256714 275.913086,106.533463 275.913086,107.937050 
	C277.645538,108.221405 279.232880,108.481949 281.172058,108.800240 
	C281.172058,116.737862 281.172058,124.532951 281.171906,133.273285 
M169.085968,138.410614 
	C169.379822,136.689011 169.908417,134.970016 169.927551,133.245361 
	C170.017471,125.132980 169.967560,117.019043 169.967560,108.738022 
	C171.888397,108.438187 173.470840,108.191162 175.407303,107.888885 
	C175.248444,106.329834 175.107376,104.945213 174.973465,103.630966 
	C169.100616,103.630966 163.685425,103.630966 158.076080,103.630966 
	C158.076080,105.194763 158.076080,106.468658 158.076080,107.892326 
	C159.760666,108.203293 161.314758,108.490166 163.359344,108.867584 
	C163.359344,118.724564 163.359344,128.445480 163.359344,138.609665 
	C165.344955,138.609665 166.798676,138.609665 169.085968,138.410614 
M187.638809,57.526337 
	C187.638809,53.772514 187.638809,50.018688 187.638809,46.315449 
	C185.094635,46.315449 183.208923,46.315449 181.233246,46.315449 
	C181.233246,58.044880 181.233246,69.415062 181.233246,81.016655 
	C183.332947,81.016655 185.232513,81.016655 187.638443,81.016655 
	C187.638443,73.336601 187.638443,65.926903 187.638809,57.526337 
z"/>
<path fill="#FEFFFE" opacity="1.000000" stroke="none" 
	d="
M251.945282,300.833984 
	C242.899521,315.271179 230.207718,321.443359 213.510910,320.760559 
	C198.718674,320.155579 183.883118,320.674530 169.068008,320.545563 
	C154.164932,320.415833 143.953918,313.254700 140.563812,300.273285 
	C138.137405,290.982117 140.409927,282.495422 146.723602,274.900238 
	C136.723007,267.024048 131.415558,257.438690 135.618744,244.779160 
	C139.623123,232.718399 148.886353,227.514496 160.968750,226.737747 
	C168.871521,201.384552 185.121750,190.481049 205.366699,196.801544 
	C225.424088,203.063461 233.852585,221.471878 226.895279,244.654953 
	C240.786758,248.741409 250.599655,257.358643 255.015030,271.482635 
	C258.165985,281.561951 256.680878,291.191437 251.945282,300.833984 
z"/>
<path fill="#FAFDF9" opacity="1.000000" stroke="none" 
	d="
M189.000031,411.138916 
	C247.122406,411.138947 304.744781,411.138947 362.699829,411.138947 
	C362.699829,416.761108 362.699829,421.848999 362.699829,427.402466 
	C284.051086,427.402466 205.362350,427.402466 126.334198,427.402466 
	C126.334198,422.235474 126.334198,417.150116 126.334198,411.138855 
	C147.018753,411.138855 167.759384,411.138855 189.000031,411.138916 
z"/>
<path fill="#FFFFFF" opacity="1.000000" stroke="none" 
	d="
M157.999969,399.157654 
	C147.212814,399.157684 136.925674,399.157684 126.329193,399.157684 
	C126.329193,393.546875 126.329193,388.493317 126.329193,383.138794 
	C205.096588,383.138794 283.673889,383.138794 362.635529,383.138794 
	C362.635529,388.178070 362.635529,393.241516 362.635529,399.157623 
	C294.624054,399.157623 226.562027,399.157623 157.999969,399.157654 
z"/>
<path fill="#FCFEFB" opacity="1.000000" stroke="none" 
	d="
M82.827721,77.492630 
	C96.276009,75.908310 103.169922,80.576286 106.050690,93.276848 
	C108.330147,103.326363 108.153702,113.487999 105.680267,123.470581 
	C103.464188,132.414490 97.640900,138.196091 88.351952,139.088303 
	C67.483170,141.092743 59.032810,132.963837 59.543171,111.573334 
	C64.897865,111.573334 70.287300,111.573334 76.026657,111.573334 
	C76.330360,114.176613 76.620911,116.959106 76.986794,119.731659 
	C77.476395,123.441750 79.288750,126.011482 83.290947,126.250801 
	C87.434105,126.498543 89.730644,123.879677 89.894600,120.262413 
	C90.254204,112.328239 90.453667,104.324783 89.722527,96.441994 
	C89.510338,94.154236 86.087349,90.725784 83.833580,90.468193 
	C81.554123,90.207672 77.906746,92.684120 76.662827,94.951485 
	C75.137085,97.732521 73.595627,98.311104 70.908516,98.201202 
	C67.591850,98.065559 64.265411,98.168777 61.040314,98.168777 
	C61.040314,80.837891 61.040314,63.809361 61.040314,46.467323 
	C75.589294,46.467323 89.319496,46.467323 103.414612,46.467323 
	C103.414612,51.220745 103.414612,55.931507 103.414612,61.118942 
	C94.322426,61.118942 85.400177,61.118942 75.953491,61.118942 
	C75.572876,67.639015 75.217697,73.723251 74.838593,80.217300 
	C77.627571,79.260414 80.025665,78.437637 82.827721,77.492630 
z"/>
<path fill="#FEFFFD" opacity="1.000000" stroke="none" 
	d="
M57.047340,102.000000 
	C57.047016,114.120331 57.047016,125.740662 57.047016,137.680603 
	C51.202465,137.680603 45.633240,137.680603 39.430023,137.680603 
	C39.430023,113.525810 39.430023,89.351585 39.430023,64.612015 
	C34.666767,66.179115 30.634539,67.505714 26.164253,68.976425 
	C26.164253,65.247787 25.968250,61.938633 26.270025,58.675514 
	C26.376377,57.525543 27.469002,56.123528 28.509096,55.462326 
	C33.116482,52.533344 37.606586,49.115662 42.649845,47.271420 
	C46.792068,45.756676 51.653721,46.209278 57.047661,45.711300 
	C57.047661,64.756325 57.047661,83.128159 57.047340,102.000000 
z"/>
<path fill="#FAFDF9" opacity="1.000000" stroke="none" 
	d="
M291.370239,284.127838 
	C301.261078,282.282501 309.465271,285.338013 317.172638,291.097992 
	C324.568909,285.979645 332.538116,281.775177 341.715515,284.130585 
	C346.679169,285.404480 351.220581,288.494476 355.759338,291.101440 
	C356.615051,291.592957 356.559113,293.671631 356.923828,295.017914 
	C355.766693,295.255463 354.413330,296.007446 353.482178,295.652374 
	C341.842468,291.213654 331.464691,294.068665 322.292847,301.540833 
	C318.423340,304.693298 316.014496,304.749664 312.152344,301.592957 
	C302.984192,294.099487 292.652557,291.152924 281.017212,295.719666 
	C280.170105,296.052124 278.971771,295.489624 277.936707,295.343201 
	C278.235779,293.850800 278.027618,291.588684 278.921875,290.999329 
	C282.761902,288.468567 286.926147,286.429718 291.370239,284.127838 
z"/>
<path fill="#F6FCF4" opacity="1.000000" stroke="none" 
	d="
M193.312927,330.128967 
	C196.276352,330.125824 198.797028,330.340393 201.266525,330.076324 
	C205.273483,329.647797 206.886566,330.890503 206.738052,335.233826 
	C206.425262,344.381348 206.439362,353.553619 206.735977,362.702240 
	C206.869125,366.809082 205.399734,367.970642 201.562424,367.674927 
	C197.959793,367.397308 194.318970,367.615448 190.078384,367.615448 
	C190.078384,355.415344 190.029419,343.824524 190.196915,332.236816 
	C190.207245,331.522522 191.924271,330.832886 193.312927,330.128967 
z"/>
<path fill="#FAFDF9" opacity="1.000000" stroke="none" 
	d="
M287.912964,228.181580 
	C298.865387,220.993927 308.872070,220.652206 316.771667,227.267502 
	C317.907654,228.218765 318.194794,230.183670 318.874756,231.679489 
	C317.411407,231.746429 315.854034,232.174576 314.499817,231.822174 
	C305.163971,229.392868 297.386749,232.577103 290.766541,238.769867 
	C287.719452,241.620178 285.780487,241.739960 282.350525,239.320618 
	C274.642456,233.883713 266.176971,231.807220 256.967133,235.839844 
	C256.028595,236.250778 254.652206,235.661667 253.479004,235.536621 
	C253.881790,234.074463 253.860458,232.246460 254.755447,231.208862 
	C261.051910,223.909088 272.113983,222.585602 282.271423,227.492264 
	C283.824524,228.242493 285.804962,228.108078 287.912964,228.181580 
z"/>
<path fill="#F1FAED" opacity="1.000000" stroke="none" 
	d="
M229.032043,131.075287 
	C227.972305,127.906181 226.983429,125.138222 225.994553,122.370270 
	C225.359573,122.557358 224.724609,122.744438 224.089630,122.931526 
	C224.089630,127.968956 224.089630,133.006393 224.089630,138.337494 
	C221.608414,138.337494 219.725876,138.337494 217.583038,138.337494 
	C217.583038,126.764091 217.583038,115.497124 217.583038,103.146141 
	C222.339249,103.503082 227.169998,103.267067 231.679092,104.359184 
	C237.023743,105.653694 239.125946,114.307365 235.129105,119.018990 
	C232.963135,121.572289 233.212509,123.526764 234.013107,126.139610 
	C235.218521,130.073608 236.242722,134.063156 237.338257,138.008606 
	C230.191116,140.769791 230.280197,135.378387 229.032043,131.075287 
M224.034836,117.166313 
	C225.878586,117.103760 228.972824,117.622032 229.323898,116.866158 
	C230.255081,114.861435 230.728119,112.024673 229.969711,110.066429 
	C229.441177,108.701736 226.577347,108.241493 223.962952,107.000435 
	C223.962952,111.019730 223.962952,113.635643 224.034836,117.166313 
z"/>
<path fill="#F1FAED" opacity="1.000000" stroke="none" 
	d="
M194.309265,107.348839 
	C194.905151,105.725922 195.518173,103.544868 196.092743,103.554955 
	C200.530396,103.632843 205.167587,103.440590 209.339676,104.684540 
	C214.326447,106.171379 215.894012,114.706291 212.006973,119.195282 
	C209.946808,121.574471 210.188828,123.381668 210.945755,125.841652 
	C212.154205,129.769028 213.159027,133.759064 214.314133,137.955826 
	C209.923889,139.497055 207.442963,138.745911 206.790787,133.999832 
	C206.409790,131.227188 205.563370,128.490936 204.656418,125.830338 
	C204.231918,124.585075 203.168350,123.557671 202.394409,122.431526 
	C201.955734,122.601616 201.517044,122.771713 201.078369,122.941803 
	C201.078369,127.972778 201.078369,133.003754 201.078369,138.332184 
	C198.615845,138.332184 196.734055,138.332184 194.308578,138.332184 
	C194.308578,127.977173 194.308578,117.891426 194.309265,107.348839 
M200.947647,115.337509 
	C201.825317,116.286049 202.701645,118.041702 203.580887,118.043159 
	C207.349823,118.049408 208.090683,115.272438 207.801392,112.203789 
	C207.404343,107.992287 204.802048,107.330742 200.945572,108.332771 
	C200.945572,110.489326 200.945572,112.450127 200.947647,115.337509 
z"/>
<path fill="#F3FBF0" opacity="1.000000" stroke="none" 
	d="
M302.010742,123.446815 
	C301.763092,128.485062 301.763092,133.130005 301.763092,138.200424 
	C299.466858,138.200424 297.597748,138.200424 295.366882,138.200424 
	C295.366882,126.829239 295.366882,115.432587 295.366882,103.537903 
	C298.987946,103.537903 302.635315,103.195534 306.194794,103.609375 
	C313.545715,104.464012 317.503357,112.378502 313.124146,118.404755 
	C310.731537,121.697227 310.991089,124.206482 312.022766,127.437996 
	C313.124451,130.888779 313.994659,134.413452 315.000702,138.030807 
	C310.662384,139.468552 308.092468,138.710678 307.395294,133.952637 
	C306.964386,131.011902 306.086517,128.097031 305.043549,125.307274 
	C304.683258,124.343620 303.218567,123.792862 302.010742,123.446815 
M303.265228,118.271980 
	C307.945526,118.307091 308.721344,115.414635 308.266083,111.600731 
	C307.782593,107.550186 305.133331,107.648857 301.376434,108.268036 
	C301.716309,111.640839 302.038544,114.838852 303.265228,118.271980 
z"/>
<path fill="#FCFEFB" opacity="1.000000" stroke="none" 
	d="
M210.989471,70.612061 
	C209.735535,80.349808 205.784821,82.393707 191.850861,80.763985 
	C191.850861,69.400146 191.850861,57.996571 191.850861,46.634117 
	C192.214844,46.418831 192.475616,46.135571 192.751740,46.119713 
	C208.978500,45.188095 211.008270,47.087433 211.007812,63.170052 
	C211.007751,65.499779 211.003998,67.829498 210.989471,70.612061 
M198.069611,75.828362 
	C202.303955,77.223488 204.107300,76.445663 204.364243,72.331680 
	C204.715927,66.700386 204.615448,61.028797 204.455872,55.381626 
	C204.338638,51.232990 202.044235,49.990475 197.971375,51.460640 
	C197.971375,59.340645 197.971375,67.145920 198.069611,75.828362 
z"/>
<path fill="#F9FDF8" opacity="1.000000" stroke="none" 
	d="
M326.064880,213.926147 
	C324.404846,213.112930 322.822296,212.450806 321.908081,211.270828 
	C317.410889,205.466354 312.154236,201.369949 304.267334,201.992386 
	C303.377808,202.062592 302.405365,201.081818 301.471375,200.588425 
	C302.209961,199.429642 302.675903,197.786041 303.732086,197.192139 
	C309.793030,193.784103 318.832520,195.397644 324.317108,201.098022 
	C326.548767,203.417496 328.372803,204.014038 331.614624,203.320923 
	C339.405853,201.655121 346.147247,203.858002 350.639343,210.841705 
	C351.343262,211.936081 350.974152,213.720688 351.101196,215.186142 
	C349.827148,214.944305 348.290863,215.077850 347.321106,214.400436 
	C340.439972,209.593781 333.477020,211.243195 326.064880,213.926147 
z"/>
<path fill="#F9FDF7" opacity="1.000000" stroke="none" 
	d="
M226.866745,78.302963 
	C226.478531,76.426941 226.153305,74.979752 225.772476,73.285049 
	C223.993942,73.285049 222.232254,73.285049 220.468719,73.285019 
	C217.375198,81.202919 217.375198,81.202919 212.571014,80.769508 
	C214.820831,69.274559 217.056152,57.853634 219.330093,46.235466 
	C221.699631,46.235466 223.804260,46.235466 226.343246,46.235466 
	C228.613190,57.660721 230.889877,69.119995 233.166565,80.579277 
	C232.773346,81.024521 232.380127,81.469765 231.986893,81.915009 
	C230.301178,80.853935 228.615448,79.792870 226.866745,78.302963 
M223.104996,57.285995 
	C222.953995,57.221115 222.806274,57.119648 222.650726,57.105782 
	C222.564499,57.098091 222.395111,57.226009 222.381973,57.311161 
	C221.811966,60.999962 221.255280,64.690819 220.647034,68.711700 
	C222.311676,68.711700 223.520233,68.711700 225.162033,68.711700 
	C224.570328,64.914696 224.021362,61.391850 223.104996,57.285995 
z"/>
<path fill="#F9FDF7" opacity="1.000000" stroke="none" 
	d="
M257.015564,130.045914 
	C258.484619,128.749207 259.964478,127.844391 261.719391,126.771416 
	C262.279327,128.558517 262.303436,129.754257 262.913483,130.352158 
	C264.230072,131.642532 265.847534,132.625961 267.341888,133.734970 
	C267.760864,131.826233 268.844788,129.748032 268.413544,128.055969 
	C267.973877,126.330910 266.133209,124.897682 264.745026,123.496048 
	C262.994629,121.728729 260.862976,120.304466 259.285248,118.408173 
	C256.341248,114.869728 255.955719,110.747444 258.222595,106.788673 
	C260.454498,102.891029 264.423523,102.460251 268.334656,103.288345 
	C272.999573,104.276039 274.401489,107.855385 274.530579,112.488297 
	C272.949493,112.762230 271.519989,113.009911 270.294281,113.222275 
	C269.784058,112.859177 269.446198,112.726105 269.273224,112.478043 
	C268.229095,110.980591 267.321991,109.364845 266.096069,108.041580 
	C265.913483,107.844490 263.435059,109.072556 263.478912,109.486755 
	C263.689117,111.473007 263.886414,113.814888 265.043274,115.272438 
	C267.400360,118.242149 270.618561,120.521896 273.026398,123.459381 
	C276.084259,127.189873 276.129456,132.973801 273.363495,135.934082 
	C270.136200,139.388031 265.827515,140.242630 262.035156,137.844421 
	C259.727264,136.384933 258.654175,132.972824 257.015564,130.045914 
z"/>
<path fill="#F9FDF7" opacity="1.000000" stroke="none" 
	d="
M159.938507,54.243904 
	C159.397369,51.410858 158.912354,48.992580 158.354691,46.212135 
	C160.234909,46.124504 161.834900,46.049934 163.849808,45.956028 
	C165.327942,53.587166 166.770264,61.033371 168.212570,68.479576 
	C168.426453,68.499107 168.640335,68.518631 168.854218,68.538155 
	C170.212524,61.160301 171.570831,53.782444 172.964569,46.212219 
	C174.718796,46.212219 176.338135,46.212219 178.651001,46.212219 
	C176.349960,57.787872 174.076111,69.226837 171.756454,80.896133 
	C169.602585,80.896133 167.674255,80.896133 165.296616,80.896133 
	C163.531433,72.160973 161.763046,63.409821 159.938507,54.243904 
z"/>
<path fill="#EDF8E8" opacity="1.000000" stroke="none" 
	d="
M246.986267,131.774597 
	C249.504822,133.150192 252.014771,134.057755 254.822296,135.072922 
	C255.444748,139.196915 253.463623,139.762970 240.701431,138.250565 
	C240.701431,126.919365 240.701431,115.532730 240.701431,103.735336 
	C245.220093,103.735336 249.792099,103.735336 254.885941,103.735336 
	C254.983948,104.839806 255.105347,106.207779 255.263824,107.993454 
	C252.417282,107.993454 249.991043,107.993454 247.271484,107.993454 
	C247.271484,111.424942 247.271484,114.478951 247.271484,117.788803 
	C249.236343,117.890923 251.025116,117.983894 252.939865,118.083420 
	C255.295914,124.359856 249.890213,121.990456 246.977631,123.237419 
	C246.977631,125.750092 246.977631,128.528336 246.986267,131.774597 
z"/>
<path fill="#EFF9EB" opacity="1.000000" stroke="none" 
	d="
M326.056519,133.992401 
	C328.822723,135.011673 334.030396,131.687454 332.664856,138.416077 
	C327.963593,138.416077 323.364594,138.416077 318.393280,138.416077 
	C318.393280,126.882484 318.393280,115.500351 318.393280,103.356102 
	C322.384186,103.356102 326.496857,103.123154 330.549500,103.513550 
	C331.614197,103.616112 332.492859,105.649467 334.260590,107.751968 
	C330.131683,107.968079 327.697784,108.095474 324.969482,108.238274 
	C324.969482,111.356827 324.969482,114.278862 324.969482,117.614212 
	C326.755127,117.803497 328.661316,118.005562 330.814209,118.233772 
	C330.814209,119.567520 330.814209,120.815331 330.814209,122.298065 
	C328.975067,122.515076 327.193756,122.725266 324.440338,123.050156 
	C324.823364,126.672485 325.206604,130.297028 326.056519,133.992401 
z"/>
<path fill="#EEF9EA" opacity="1.000000" stroke="none" 
	d="
M177.072021,112.068848 
	C177.072037,109.098244 177.072037,106.616730 177.072037,103.736923 
	C181.908157,103.736923 186.476929,103.736923 191.596802,103.736923 
	C191.731567,104.821075 191.897018,106.151955 192.102448,107.804520 
	C189.271133,107.961784 186.840744,108.096779 184.090210,108.249557 
	C184.090210,111.419670 184.090210,114.451096 184.090210,117.797585 
	C186.028870,117.896393 187.800659,117.986710 189.523102,118.074501 
	C190.130905,122.387863 190.130905,122.387863 184.142090,122.994423 
	C184.142090,126.480988 184.142090,130.012070 184.142090,133.200333 
	C186.189651,135.898270 192.762634,130.913620 191.870972,138.423889 
	C186.984421,138.423889 182.393250,138.423889 177.072006,138.423889 
	C177.072006,129.687500 177.072006,121.122719 177.072021,112.068848 
z"/>
<path fill="#EFF9EB" opacity="1.000000" stroke="none" 
	d="
M281.171997,132.800659 
	C281.172058,124.532951 281.172058,116.737862 281.172058,108.800240 
	C279.232880,108.481949 277.645538,108.221405 275.913086,107.937050 
	C275.913086,106.533463 275.913086,105.256714 275.913086,103.660461 
	C281.516571,103.660461 286.932648,103.660461 292.840149,103.660461 
	C292.986267,104.831627 293.158997,106.216446 293.364563,107.864334 
	C291.477661,108.173058 289.912659,108.429115 287.895630,108.759132 
	C287.895630,118.586075 287.895630,128.316971 287.895630,138.345367 
	C285.526245,138.345367 283.635590,138.345367 281.410217,138.345367 
	C281.323486,136.499802 281.247711,134.886551 281.171997,132.800659 
z"/>
<path fill="#EFF9EB" opacity="1.000000" stroke="none" 
	d="
M168.669189,138.510132 
	C166.798676,138.609665 165.344955,138.609665 163.359344,138.609665 
	C163.359344,128.445480 163.359344,118.724564 163.359344,108.867584 
	C161.314758,108.490166 159.760666,108.203293 158.076080,107.892326 
	C158.076080,106.468658 158.076080,105.194763 158.076080,103.630966 
	C163.685425,103.630966 169.100616,103.630966 174.973465,103.630966 
	C175.107376,104.945213 175.248444,106.329834 175.407303,107.888885 
	C173.470840,108.191162 171.888397,108.438187 169.967560,108.738022 
	C169.967560,117.019043 170.017471,125.132980 169.927551,133.245361 
	C169.908417,134.970016 169.379822,136.689011 168.669189,138.510132 
z"/>
<path fill="#EFF9EB" opacity="1.000000" stroke="none" 
	d="
M187.638626,58.021774 
	C187.638443,65.926903 187.638443,73.336601 187.638443,81.016655 
	C185.232513,81.016655 183.332947,81.016655 181.233246,81.016655 
	C181.233246,69.415062 181.233246,58.044880 181.233246,46.315449 
	C183.208923,46.315449 185.094635,46.315449 187.638809,46.315449 
	C187.638809,50.018688 187.638809,53.772514 187.638626,58.021774 
z"/>
<path fill="#5BC231" opacity="1.000000" stroke="none" 
	d="
M223.998901,116.708939 
	C223.962952,113.635643 223.962952,111.019730 223.962952,107.000435 
	C226.577347,108.241493 229.441177,108.701736 229.969711,110.066429 
	C230.728119,112.024673 230.255081,114.861435 229.323898,116.866158 
	C228.972824,117.622032 225.878586,117.103760 223.998901,116.708939 
z"/>
<path fill="#5BC231" opacity="1.000000" stroke="none" 
	d="
M200.946609,114.874214 
	C200.945572,112.450127 200.945572,110.489326 200.945572,108.332771 
	C204.802048,107.330742 207.404343,107.992287 207.801392,112.203789 
	C208.090683,115.272438 207.349823,118.049408 203.580887,118.043159 
	C202.701645,118.041702 201.825317,116.286049 200.946609,114.874214 
z"/>
<path fill="#5BC231" opacity="1.000000" stroke="none" 
	d="
M302.812988,118.154427 
	C302.038544,114.838852 301.716309,111.640839 301.376434,108.268036 
	C305.133331,107.648857 307.782593,107.550186 308.266083,111.600731 
	C308.721344,115.414635 307.945526,118.307091 302.812988,118.154427 
z"/>
<path fill="#5FC336" opacity="1.000000" stroke="none" 
	d="
M198.020493,75.389771 
	C197.971375,67.145920 197.971375,59.340645 197.971375,51.460640 
	C202.044235,49.990475 204.338638,51.232990 204.455872,55.381626 
	C204.615448,61.028797 204.715927,66.700386 204.364243,72.331680 
	C204.107300,76.445663 202.303955,77.223488 198.020493,75.389771 
z"/>
<path fill="#5FC336" opacity="1.000000" stroke="none" 
	d="
M223.288696,57.577499 
	C224.021362,61.391850 224.570328,64.914696 225.162033,68.711700 
	C223.520233,68.711700 222.311676,68.711700 220.647034,68.711700 
	C221.255280,64.690819 221.811966,60.999962 222.381973,57.311161 
	C222.395111,57.226009 222.564499,57.098091 222.650726,57.105782 
	C222.806274,57.119648 222.953995,57.221115 223.288696,57.577499 
z"/>
</svg>