<svg version="1.1" id="Layer_1" xmlns="http://www.w3.org/2000/svg" xmlns:xlink="http://www.w3.org/1999/xlink" x="0px" y="0px"
	 width="100%" viewBox="0 0 490 490" enable-background="new 0 0 490 490" xml:space="preserve">
<path fill="#FFFFFF" opacity="1.000000" stroke="none" 
	d="
M1.000000,171.000000 
	C1.000000,114.014397 1.000000,57.528793 1.000000,1.021595 
	C164.277313,1.021595 327.554626,1.021595 490.915955,1.021595 
	C490.915955,164.235657 490.915955,327.471375 490.915955,490.853546 
	C327.666748,490.853546 164.333405,490.853546 1.000000,490.853546 
	C1.000000,384.445251 1.000000,277.972626 1.000000,171.000000 
M48.500000,5.998683 
	C39.333622,5.998702 30.167238,5.994563 21.000860,5.999815 
	C10.117061,6.006051 6.000006,10.155506 5.999881,21.134178 
	C5.998173,170.964188 5.998353,320.794189 5.999454,470.624207 
	C5.999537,481.951111 10.016714,486.000122 21.259239,486.000214 
	C171.089249,486.001617 320.919250,486.001678 470.749268,486.000275 
	C481.983490,486.000183 486.000397,481.946533 486.000458,470.615723 
	C486.001526,320.952362 486.001465,171.289032 486.000732,21.625683 
	C486.000702,9.950497 482.079712,5.999369 470.490662,5.999293 
	C330.160431,5.998385 189.830215,5.998692 48.500000,5.998683 
z"/>
<path fill="#01699D" opacity="1.000000" stroke="none" 
	d="
M49.000000,5.998683 
	C189.830215,5.998692 330.160431,5.998385 470.490662,5.999293 
	C482.079712,5.999369 486.000702,9.950497 486.000732,21.625683 
	C486.001465,171.289032 486.001526,320.952362 486.000458,470.615723 
	C486.000397,481.946533 481.983490,486.000183 470.749268,486.000275 
	C320.919250,486.001678 171.089249,486.001617 21.259239,486.000214 
	C10.016714,486.000122 5.999537,481.951111 5.999454,470.624207 
	C5.998353,320.794189 5.998173,170.964188 5.999881,21.134178 
	C6.000006,10.155506 10.117061,6.006051 21.000860,5.999815 
	C30.167238,5.994563 39.333622,5.998702 49.000000,5.998683 
M334.661194,93.027298 
	C335.931427,91.727913 338.510284,89.801186 338.241150,89.239761 
	C337.180847,87.027954 335.225433,85.245247 333.642456,83.351471 
	C341.545837,79.100929 342.652863,77.173309 341.303864,69.371872 
	C339.585846,69.371872 337.839081,69.371872 335.946808,69.371872 
	C335.733307,71.403259 335.857361,73.323303 335.247284,74.971657 
	C334.818298,76.130714 333.156769,77.849403 332.459076,77.673943 
	C331.154358,77.345856 329.220062,75.864761 329.172119,74.790855 
	C328.867950,67.977715 328.862244,61.138458 329.153992,54.324764 
	C329.199707,53.257580 331.261322,51.492531 332.394928,51.489281 
	C333.412415,51.486359 334.817535,53.306831 335.354523,54.610157 
	C335.954437,56.066174 335.768799,57.845844 335.939545,59.636688 
	C337.896393,59.636688 339.651672,59.636688 341.370636,59.636688 
	C342.544128,51.624275 340.102081,47.541302 333.950500,46.931499 
	C326.456787,46.188652 322.747925,49.236397 322.299500,57.032558 
	C322.003571,62.177990 321.728424,67.433395 322.467926,72.489807 
	C322.929474,75.645309 324.900604,78.828247 326.917816,81.440063 
	C329.049469,84.200035 332.040009,86.296661 335.344604,89.311935 
	C332.560425,89.951355 331.069702,90.293701 329.579010,90.636055 
	C329.481659,91.009590 329.384308,91.383125 329.286957,91.756660 
	C330.222168,92.160248 331.157379,92.563843 332.119904,93.701111 
	C330.180786,95.503540 328.303711,96.435158 325.666077,94.578239 
	C324.805481,93.972366 322.541534,94.226532 321.731262,94.970993 
	C320.731628,95.889442 320.579315,97.730110 320.308075,98.484650 
	C323.734955,98.933586 326.374054,99.610786 328.975555,99.488327 
	C330.399170,99.421326 332.110992,98.281288 333.039764,97.108124 
	C333.824890,96.116341 333.669617,94.380051 334.661194,93.027298 
M256.841370,289.578857 
	C254.400665,290.025574 251.972641,290.764435 249.517181,290.870819 
	C235.156998,291.493042 224.979523,283.513885 214.875061,274.622803 
	C207.197189,267.866882 198.926315,261.483917 190.055786,256.459534 
	C178.601334,249.971588 165.735687,248.785675 152.013931,250.352188 
	C158.602554,254.682114 162.056625,258.428650 164.177948,265.290436 
	C167.416656,275.766510 169.952713,286.457550 173.037140,296.984070 
	C177.988144,313.880737 187.319016,326.566406 205.834534,330.126648 
	C206.506699,330.255859 207.065613,330.974152 206.788284,330.772949 
	C200.990692,334.080292 194.695786,337.099304 189.036789,341.033142 
	C180.470810,346.987885 171.375763,350.147369 160.903854,349.003967 
	C159.112000,348.808319 157.280441,348.976318 154.676193,348.976318 
	C173.690979,359.613220 190.440216,372.841644 212.496124,372.690948 
	C212.496124,380.517792 212.496124,387.583832 212.496124,393.996216 
	C188.923706,393.996216 165.688736,393.996216 142.400040,393.996216 
	C142.400040,398.548553 142.400040,403.310852 142.400040,408.401031 
	C143.597656,408.401031 144.557037,408.418243 145.515686,408.398590 
	C186.154480,407.565857 226.790863,406.547089 267.433655,406.031067 
	C276.831970,405.911713 286.252106,407.509766 295.998566,408.346436 
	C295.998566,412.219879 296.062775,415.522980 295.980408,418.822388 
	C295.899017,422.083313 297.221191,423.851105 300.644836,423.844116 
	C312.806366,423.819244 324.967957,423.831055 337.129547,423.831940 
	C340.149780,423.832153 341.825104,422.436920 341.826691,419.313110 
	C341.832855,407.151550 341.819244,394.989929 341.846802,382.828430 
	C341.853882,379.702240 340.266724,378.194153 337.257355,378.186401 
	C324.929291,378.154694 312.597168,378.026031 300.278229,378.361786 
	C298.815704,378.401672 296.513611,380.900757 296.192841,382.566498 
	C295.547760,385.916290 296.000977,389.477631 296.000977,392.862152 
	C275.023621,397.231750 254.312439,396.160492 233.419022,394.974762 
	C233.419022,387.334015 233.419022,380.084930 233.419022,373.120544 
	C240.123734,371.360382 246.583908,369.883484 252.905334,367.952423 
	C261.919189,365.198822 270.061584,360.833160 277.033142,354.313751 
	C286.524109,345.438263 290.101196,334.176575 290.929382,321.653748 
	C291.411133,314.370117 291.352112,306.949768 292.818542,299.855957 
	C295.010834,289.250824 302.916107,283.480713 314.105591,283.041992 
	C315.667816,288.688263 314.950226,295.163208 319.852692,299.853394 
	C318.752075,293.984467 317.651459,288.115509 316.513214,282.045929 
	C319.622223,281.780884 321.798279,281.595367 324.851959,281.335052 
	C323.303375,280.150482 322.608978,279.363678 321.737640,278.994904 
	C316.665222,276.847961 316.907379,273.103394 319.233276,269.352356 
	C322.187286,264.588409 325.477325,259.997437 328.983582,255.621185 
	C332.528320,251.196899 336.514099,247.126053 340.306671,242.900375 
	C339.634216,242.339691 338.961761,241.778992 338.289307,241.218307 
	C330.378448,251.846039 318.678528,259.371704 314.901520,273.813873 
	C313.083893,271.911255 311.950745,270.707367 310.798523,269.522034 
	C303.599976,262.116455 298.389038,261.139526 289.613159,266.707001 
	C284.168365,270.161224 279.532166,274.864380 274.253021,278.612549 
	C268.880341,282.427124 263.164276,285.758087 256.841370,289.578857 
M59.612373,74.805000 
	C59.615410,83.957306 59.326874,93.121887 59.711849,102.258102 
	C60.031601,109.846352 60.215603,117.645447 62.127739,124.912239 
	C64.834526,135.198990 73.684868,140.363251 85.164078,140.118500 
	C96.486465,139.877106 103.934319,134.438278 106.985764,123.914970 
	C109.585121,114.950783 109.786507,105.829712 107.582535,96.781906 
	C104.737427,85.102036 94.851471,79.432480 83.662422,82.908577 
	C81.573990,83.557381 79.677124,84.822807 77.024544,86.133362 
	C77.392136,79.008255 77.532356,72.540016 78.131638,66.114601 
	C78.477852,62.402622 80.243813,59.255165 84.648262,59.287518 
	C89.111649,59.320305 90.454384,62.444183 90.830101,66.270775 
	C90.970657,67.702255 91.125366,69.132347 91.265488,70.484650 
	C96.845688,70.484650 102.072372,70.484650 107.276245,70.484650 
	C107.552116,54.897221 102.131973,47.913616 88.684952,46.160313 
	C72.972031,44.111561 62.743256,51.552826 60.211224,66.962646 
	C59.834991,69.252388 59.829285,71.603004 59.612373,74.805000 
M56.224319,92.500053 
	C56.224319,77.461548 56.224319,62.423042 56.224319,46.831970 
	C50.921272,47.195805 46.141800,46.536308 42.181187,48.037376 
	C36.846088,50.059380 32.108810,53.693272 27.199879,56.770824 
	C26.391571,57.277576 25.575464,58.452412 25.522715,59.362526 
	C25.325432,62.766323 25.443810,66.188423 25.443810,69.960625 
	C30.208931,68.403740 34.317410,67.061386 38.977997,65.538651 
	C38.977997,90.461807 38.977997,114.520615 38.977997,138.683838 
	C44.884769,138.683838 50.435612,138.683838 56.224384,138.683838 
	C56.224384,123.411469 56.224384,108.455765 56.224319,92.500053 
M312.503662,439.578461 
	C321.330841,439.568909 330.159454,439.650116 338.984467,439.507111 
	C342.743988,439.446198 345.640778,437.639130 345.467163,433.503906 
	C345.300323,429.528992 342.651581,427.787750 338.696228,427.801483 
	C325.205475,427.848358 311.714386,427.794891 298.223694,427.850128 
	C294.364594,427.865936 291.761261,429.562653 291.849243,433.806488 
	C291.930542,437.727631 294.366913,439.436462 298.016266,439.526001 
	C302.510620,439.636292 307.009338,439.568848 312.503662,439.578461 
M293.045715,371.351166 
	C294.916901,372.234894 296.776123,373.853790 298.661224,373.884583 
	C312.153442,374.104797 325.651093,374.033752 339.146698,373.981506 
	C343.075775,373.966309 345.611450,371.832428 345.677368,367.931061 
	C345.742584,364.072968 342.910828,362.267548 339.397064,362.233856 
	C325.736237,362.102875 312.070862,362.020752 298.412750,362.250885 
	C293.078064,362.340759 291.458557,365.129578 293.045715,371.351166 
M188.583176,125.484543 
	C188.583176,118.564468 188.583176,111.644394 188.583176,104.395264 
	C186.340897,104.519554 184.917801,104.598434 183.018494,104.703712 
	C183.018494,110.511818 183.018494,116.020645 183.018494,121.529472 
	C180.047180,116.877815 177.891251,112.104103 175.937363,107.249092 
	C174.724930,104.236420 172.954269,103.605560 170.085922,105.259132 
	C170.085922,110.969818 170.085922,116.628540 170.085922,122.287270 
	C170.085922,127.898781 170.085922,133.510284 170.085922,139.269440 
	C172.226624,139.269440 173.791855,139.269440 175.943726,139.269440 
	C175.943726,133.180954 175.943726,127.392876 175.943726,121.604782 
	C179.006699,126.865540 181.086685,132.255356 183.496613,137.493362 
	C183.951630,138.482346 185.719208,138.867477 186.881134,139.531235 
	C187.446838,138.512268 188.433075,137.520203 188.500366,136.469330 
	C188.712830,133.150284 188.581131,129.809174 188.583176,125.484543 
M328.980896,104.121178 
	C319.761108,103.849121 316.824768,106.536674 316.703278,115.558762 
	C316.638397,120.377457 316.610046,125.206268 316.843170,130.017044 
	C317.177826,136.923508 320.274261,139.954666 326.634735,140.006439 
	C332.930328,140.057693 336.442047,136.951477 336.821960,130.282730 
	C337.142822,124.650597 337.032959,118.978485 336.812592,113.335823 
	C336.635223,108.794510 334.593567,105.372658 328.980896,104.121178 
M279.626343,114.547424 
	C279.626343,111.278038 279.626343,108.008652 279.626343,104.716576 
	C277.153564,104.716576 275.398560,104.716576 273.189392,104.716576 
	C273.189392,106.813782 273.193207,108.610741 273.188690,110.407692 
	C273.171997,117.073814 273.364319,123.752129 272.981934,130.397308 
	C272.888885,132.014038 270.902863,133.521851 269.787231,135.079742 
	C268.539001,133.476715 266.975677,132.018250 266.151031,130.220901 
	C265.581818,128.980179 266.030579,127.270851 266.030273,125.770943 
	C266.028961,118.813583 266.029694,111.856224 266.029694,104.652527 
	C263.806366,104.652527 262.043488,104.652527 260.027527,104.652527 
	C260.027527,114.079956 259.749847,123.380264 260.140137,132.652451 
	C260.347382,137.575668 263.756836,139.874741 269.165649,140.005432 
	C274.942932,140.145020 278.428894,137.990860 278.965912,132.987640 
	C279.585815,127.212120 279.439911,121.354401 279.626343,114.547424 
M294.505157,111.392883 
	C294.395020,117.862976 293.836456,124.371346 294.384003,130.785294 
	C294.620178,133.551636 296.811188,136.397629 298.716919,138.710846 
	C300.967255,141.442337 303.869751,143.636566 307.057495,146.589920 
	C304.420380,147.401413 302.820953,147.893600 300.760071,148.527786 
	C303.843323,152.228882 307.242615,151.043533 309.098724,148.861115 
	C313.226715,144.007355 306.786865,143.277893 304.809723,140.776962 
	C313.045349,137.105286 314.736298,134.140366 313.039276,126.694984 
	C311.313721,126.694984 309.572357,126.694984 307.615845,126.694984 
	C307.452179,128.779495 307.627960,130.682037 307.059906,132.327805 
	C306.677948,133.434326 305.269409,134.859528 304.272949,134.897369 
	C303.212036,134.937653 301.176208,133.543106 301.147278,132.719498 
	C300.896790,125.590279 300.894409,118.444672 301.148346,111.315697 
	C301.178101,110.480980 303.235291,109.064140 304.299927,109.111069 
	C305.295227,109.154930 306.635651,110.626343 307.073151,111.759430 
	C307.638336,113.223351 307.457367,114.975342 307.606567,116.705902 
	C309.731354,116.705902 311.614349,116.705902 313.475128,116.705902 
	C313.906342,108.796860 312.063751,105.365799 306.971313,104.231270 
	C301.020172,102.905441 297.017059,104.988533 294.505157,111.392883 
M263.107544,57.530731 
	C263.070404,63.016094 263.278748,68.521835 262.826355,73.972733 
	C262.710785,75.365364 260.503479,76.584396 259.257172,77.883186 
	C258.178406,76.596237 256.694885,75.461990 256.135468,73.979118 
	C255.583176,72.515152 255.943527,70.698639 255.941513,69.036743 
	C255.932709,61.777828 255.937729,54.518887 255.937729,47.267368 
	C253.579330,47.267368 251.830276,47.267368 249.958450,47.267368 
	C249.958450,56.649487 249.724960,65.766106 250.052322,74.862541 
	C250.228485,79.757904 253.482452,82.242378 258.764160,82.672424 
	C263.644958,83.069824 268.422821,80.580246 268.649384,76.288887 
	C269.159882,66.619476 268.809631,56.904621 268.809631,46.948853 
	C266.869934,47.052265 265.130524,47.144997 263.107544,47.252850 
	C263.107544,50.607182 263.107544,53.576580 263.107544,57.530731 
M204.363922,187.869110 
	C205.933792,195.744934 209.849731,198.540512 217.243423,197.063797 
	C222.507568,196.012390 224.837296,190.959976 223.275772,184.116211 
	C221.500977,184.116211 219.750412,184.116211 217.963165,184.116211 
	C217.755615,186.232635 217.914200,188.171280 217.281845,189.803452 
	C216.865982,190.876831 215.289200,192.183578 214.269165,192.153061 
	C213.187927,192.120712 211.266739,190.662247 211.233810,189.770432 
	C210.976364,182.800781 210.946442,175.811752 211.240067,168.845306 
	C211.281113,167.871521 213.393784,166.438156 214.686783,166.266464 
	C215.479050,166.161240 216.944046,167.905701 217.376190,169.086853 
	C217.968887,170.706802 217.868561,172.580292 218.055206,174.255341 
	C220.171875,174.255341 221.921371,174.255341 223.890701,174.255341 
	C223.827530,169.225723 224.261841,164.298737 218.810486,162.057953 
	C211.492279,159.049789 205.160706,162.684082 204.452744,170.533417 
	C203.961746,175.977371 204.312378,181.497253 204.363922,187.869110 
M178.401291,56.572563 
	C177.262756,47.431423 170.906769,44.513901 159.387711,47.726887 
	C159.387711,59.159168 159.387711,70.544319 159.387711,81.860489 
	C161.632217,81.860489 163.536880,81.860489 165.796860,81.860489 
	C165.796860,76.706001 165.796860,71.924232 165.796860,67.220444 
	C176.673737,65.254700 177.482651,64.606750 178.401291,56.572563 
M246.181915,195.543991 
	C243.993774,184.353088 241.805634,173.162186 239.650299,162.139099 
	C232.748749,161.539642 232.690170,161.527771 231.440857,167.692200 
	C229.509094,177.223831 227.666702,186.773544 225.741257,196.544800 
	C228.120407,196.544800 229.852066,196.544800 231.581848,196.544800 
	C232.175613,193.859818 232.703430,191.472977 233.231018,189.087204 
	C235.336487,189.087204 237.113693,189.087204 239.078354,189.087204 
	C239.634476,191.655716 240.153275,194.051834 240.777191,196.933456 
	C242.649460,196.704132 244.362534,196.494324 246.181915,195.543991 
M345.562592,82.167549 
	C352.465271,83.261909 349.201538,76.586800 351.616089,74.235245 
	C353.400452,74.235245 355.184845,74.235245 356.704071,74.235245 
	C358.875671,77.238083 356.164642,84.544556 364.380341,81.463570 
	C362.098511,70.021690 359.810303,58.547920 357.571289,47.320736 
	C354.873108,47.320736 352.792389,47.320736 350.617157,47.320736 
	C349.131927,54.615608 347.578369,61.583904 346.332275,68.606766 
	C345.543976,73.049477 345.214325,77.573570 345.562592,82.167549 
M186.703751,74.026703 
	C193.612091,72.777786 190.757523,79.221153 192.739563,81.827240 
	C194.553040,81.827240 196.281204,81.827240 198.341583,81.827240 
	C195.993347,70.049492 193.726151,58.678230 191.470856,47.366623 
	C188.870758,47.366623 186.648270,47.366623 184.413132,47.366623 
	C182.123444,59.059025 179.905731,70.383774 177.666565,81.818176 
	C180.102509,81.818176 181.834030,81.818176 183.135162,81.818176 
	C184.140839,78.935349 184.986313,76.511742 186.703751,74.026703 
M192.076141,112.529984 
	C193.823288,115.757629 195.305313,119.171593 197.401245,122.154137 
	C199.085999,124.551613 201.845428,126.204010 203.473938,128.626678 
	C204.300629,129.856522 203.879364,132.089401 203.596527,133.798340 
	C203.514343,134.294769 201.482437,135.093414 201.165588,134.815872 
	C199.917480,133.722626 198.912689,132.310745 197.992065,130.903015 
	C197.580292,130.273346 197.580902,129.373993 197.314423,128.263992 
	C195.412109,128.660873 193.745544,129.008575 190.293686,129.728729 
	C193.087479,133.534760 194.580658,137.086395 197.253555,138.844757 
	C201.003799,141.311874 205.333435,140.365814 208.559387,136.942444 
	C211.393936,133.934402 211.398163,128.412521 208.277344,124.518539 
	C205.909576,121.564217 202.668716,119.309380 200.303009,116.353767 
	C199.135651,114.895317 198.880051,112.578163 198.648178,110.598434 
	C198.595947,110.152550 201.021835,108.860634 201.188110,109.033623 
	C202.424347,110.319756 203.369797,111.883369 204.429230,113.343407 
	C204.613342,113.597130 204.904907,113.772888 205.447678,114.247978 
	C206.747009,114.000893 208.271545,113.710991 209.772263,113.425613 
	C208.780502,106.555916 206.798477,104.309219 201.825912,104.020004 
	C196.341812,103.701042 193.706970,105.790840 192.076141,112.529984 
M285.592651,47.438118 
	C276.464050,45.837227 271.528748,49.542919 273.110443,57.282490 
	C273.626892,59.809582 275.707184,62.140675 277.437714,64.263504 
	C279.418762,66.693672 282.282928,68.512550 283.828918,71.145683 
	C284.678864,72.593300 284.325684,76.361099 283.261261,77.002617 
	C280.559387,78.631035 279.265686,76.167831 278.566315,73.736946 
	C278.306213,72.832870 278.030701,71.933250 277.659790,70.687683 
	C275.815948,71.294899 274.317993,71.788208 272.760406,72.301147 
	C273.117249,76.674858 273.962036,80.359505 278.220734,81.951645 
	C282.527069,83.561600 286.488647,82.920189 289.488464,79.225487 
	C292.024139,76.102455 291.757446,70.408035 288.634064,66.691086 
	C286.298187,63.911289 283.103058,61.844307 280.829468,59.025261 
	C279.669312,57.586792 279.517517,55.208771 279.330536,53.215969 
	C279.292084,52.806023 281.805878,51.614479 281.983002,51.813889 
	C283.187531,53.169785 284.072144,54.807819 285.084412,56.338642 
	C285.255066,56.596737 285.543671,56.776829 285.975281,57.175259 
	C287.240753,56.855648 288.642273,56.501675 291.552155,55.766750 
	C289.511536,52.693810 287.902832,50.271332 285.592651,47.438118 
M368.903961,104.202278 
	C360.133301,103.765388 355.561798,108.585617 358.257782,116.082527 
	C359.245026,118.827728 362.077759,120.908592 364.065948,123.294701 
	C365.949097,125.554787 368.180878,127.630806 369.531555,130.174255 
	C370.049255,131.149155 368.551605,133.194275 367.972321,134.751694 
	C366.580994,133.937088 364.936493,133.359192 363.881226,132.230408 
	C363.086151,131.379913 363.045990,129.823669 362.593750,128.330399 
	C360.918182,128.716431 359.394836,129.067383 357.835052,129.426743 
	C357.824188,134.469437 359.196533,138.304123 364.288757,139.605072 
	C368.314209,140.633499 371.935791,139.785324 374.530151,136.349777 
	C377.030914,133.038254 376.575287,127.596619 373.375092,123.887741 
	C371.323395,121.509964 368.589569,119.691574 366.702057,117.211090 
	C365.338074,115.418633 364.730072,112.985474 364.128448,110.745781 
	C364.033630,110.392685 366.322601,108.856895 366.555267,109.045433 
	C368.177002,110.359558 369.547211,111.984100 371.571838,114.112335 
	C372.112854,114.006645 373.612579,113.713654 375.198547,113.403801 
	C375.088684,108.919312 373.751312,105.811020 368.903961,104.202278 
M283.696930,169.618362 
	C285.356812,172.877106 286.733917,176.326141 288.760712,179.337997 
	C290.578339,182.038986 293.460846,184.043686 295.154602,186.797714 
	C295.827606,187.891968 294.565063,190.176605 294.183716,191.919296 
	C292.686615,191.039230 291.008362,190.355194 289.762207,189.203552 
	C289.045959,188.541626 289.029938,187.121964 288.321808,184.816193 
	C286.509705,186.370087 284.236023,187.357437 283.993286,188.709427 
	C283.280548,192.679047 286.712982,196.612885 290.767273,197.084351 
	C294.708008,197.542618 298.601624,197.325562 300.811859,193.346725 
	C303.181244,189.081436 302.250580,184.861130 299.413422,181.247467 
	C297.593292,178.929184 294.969147,177.259750 292.954559,175.070190 
	C291.672821,173.677109 290.355896,171.965790 289.991211,170.203400 
	C289.749817,169.036987 291.167725,167.527206 291.842804,166.171127 
	C293.062317,167.004074 294.457855,167.672821 295.440704,168.726547 
	C296.119171,169.453934 296.227020,170.713593 296.624786,171.833725 
	C298.346008,171.408188 299.746582,171.061920 301.091339,170.729462 
	C300.582855,164.285431 298.417694,161.682953 293.449768,161.240845 
	C288.092865,160.764130 284.990417,163.201599 283.696930,169.618362 
M340.795288,106.258049 
	C340.795288,117.203545 340.795288,128.149033 340.795288,139.597198 
	C345.185181,139.597198 349.139435,139.728271 353.072754,139.499069 
	C353.982300,139.446075 354.820068,138.161301 355.690887,137.443359 
	C354.717072,136.669693 353.839569,135.467377 352.747040,135.221817 
	C351.065399,134.843887 349.236237,135.122375 347.473694,135.122375 
	C347.473694,130.977295 347.473694,127.441322 347.473694,123.951828 
	C354.014374,123.299118 354.014374,123.299118 353.098022,119.172073 
	C351.186829,119.006989 349.269073,118.841339 347.316895,118.672722 
	C347.316895,115.380005 347.316895,112.448860 347.316895,109.239204 
	C350.073883,109.092117 352.643127,108.955048 356.281952,108.760910 
	C355.276520,106.885887 354.629089,104.630981 353.975586,104.629211 
	C349.620728,104.617363 345.264557,105.086899 340.795288,106.258049 
M173.476852,162.019913 
	C168.747208,162.019913 164.017563,162.019913 159.399765,162.019913 
	C159.399765,173.812119 159.399765,185.180420 159.399765,196.686218 
	C164.348358,196.686218 168.939926,196.686218 173.777954,196.686218 
	C173.777954,195.257523 173.777954,194.032578 173.777954,192.613007 
	C170.999741,192.437210 168.442535,192.275391 165.941406,192.117126 
	C165.941406,188.119202 165.941406,184.708679 165.941406,181.052048 
	C167.985718,180.947601 169.753189,180.857300 171.765167,180.754501 
	C171.765167,179.152908 171.765167,177.802460 171.765167,176.403320 
	C169.563568,176.152542 167.672211,175.937103 166.046692,175.751953 
	C166.046692,172.378250 166.046692,169.477829 166.046692,166.577393 
	C168.264893,164.019058 174.409271,169.830490 173.476852,162.019913 
M273.094391,182.805527 
	C275.202393,181.820007 277.310394,180.834488 279.665375,179.733505 
	C281.213379,173.693649 275.151886,177.436508 273.504578,175.685440 
	C273.504578,172.440857 273.504578,169.409042 273.504578,166.378159 
	C276.346649,166.218140 278.767822,166.081833 281.157013,165.947311 
	C281.171600,161.264191 278.656891,160.674576 267.070221,162.321609 
	C267.070221,173.641083 267.070221,184.995468 267.070221,196.858734 
	C271.252869,196.858734 275.202301,196.989304 279.130432,196.757965 
	C280.005920,196.706421 280.806427,195.382339 281.641479,194.644150 
	C280.783386,193.906876 280.010468,192.708755 279.048950,192.531021 
	C277.210785,192.191269 275.265228,192.432327 273.084930,192.432327 
	C273.084930,189.009613 273.084930,186.371506 273.094391,182.805527 
M376.872955,54.555077 
	C376.872955,63.655529 376.872955,72.755981 376.872955,81.911560 
	C382.079742,81.911560 386.668610,81.911560 391.848602,81.911560 
	C391.598663,75.154716 385.812256,79.362686 383.426514,77.005257 
	C383.426514,73.718468 383.426514,70.164070 383.426514,66.654297 
	C389.963165,65.771568 389.963165,65.771568 389.045410,62.041546 
	C387.134705,61.838486 385.223999,61.635426 383.341034,61.435318 
	C383.341034,58.036415 383.341034,55.083469 383.341034,52.174843 
	C391.563324,50.650414 391.563324,50.650414 390.884033,47.309708 
	C386.278107,47.309708 381.697693,47.309708 376.872925,47.309708 
	C376.872925,49.609474 376.872925,51.589794 376.872955,54.555077 
M223.438080,119.516548 
	C223.438080,116.250282 223.438080,112.984009 223.438080,109.657158 
	C225.668030,109.334045 227.226273,109.108261 228.579620,108.912163 
	C229.586685,105.526817 228.647141,104.192551 225.393097,104.369720 
	C221.912369,104.559235 218.405960,104.553993 214.924240,104.373604 
	C211.171112,104.179146 210.707733,105.892395 211.793335,108.949211 
	C213.504562,109.175133 215.107117,109.386696 217.052551,109.643532 
	C217.052551,119.572151 217.052551,129.323730 217.052551,139.227234 
	C219.299057,139.227234 221.167267,139.227234 223.436630,139.227234 
	C223.436630,132.753723 223.436630,126.631393 223.438080,119.516548 
M254.574326,196.869888 
	C257.541107,196.869888 260.507874,196.869888 264.104279,196.869888 
	C263.831085,189.274811 256.981812,194.518555 254.718887,191.187469 
	C257.946320,181.807449 261.249847,172.206192 264.727417,162.099213 
	C258.661835,162.099213 253.767654,162.099213 248.887665,162.099213 
	C248.747009,165.687256 248.747009,165.687256 256.891052,166.566833 
	C254.728104,176.752335 248.789505,185.901001 247.867310,196.869858 
	C250.342636,196.869858 251.988571,196.869858 254.574326,196.869888 
M208.736603,52.934200 
	C206.093872,60.432755 203.373871,67.905556 200.859680,75.446960 
	C200.183258,77.475929 200.132538,79.713509 199.782593,81.931412 
	C205.580124,81.931412 210.503967,81.931412 215.795074,81.931412 
	C215.695816,80.600525 215.790924,78.631424 215.507370,78.575294 
	C212.663666,78.012428 209.757751,77.763924 206.299011,77.360336 
	C209.726288,67.424675 213.119064,57.589024 216.693970,47.225399 
	C210.487900,47.225399 205.578217,47.225399 200.687164,47.225399 
	C199.620285,50.411766 200.484436,51.801167 203.771851,51.627899 
	C205.380661,51.543098 207.014343,51.930626 208.736603,52.934200 
M245.828522,116.595284 
	C245.828522,124.167854 245.828522,131.740433 245.828522,139.236877 
	C248.371506,139.236877 250.117874,139.236877 252.307892,139.236877 
	C252.307892,129.149490 252.307892,119.401443 252.307892,109.575012 
	C254.312225,109.296692 255.890839,109.077484 259.141266,108.626137 
	C257.301392,106.649055 256.327240,104.651398 255.215607,104.571701 
	C250.304810,104.219597 245.354446,104.419449 240.309052,104.419449 
	C240.309052,106.319489 240.309052,107.598770 240.309052,108.958015 
	C242.126663,109.157547 243.739014,109.334549 245.828995,109.563980 
	C245.828995,111.724686 245.828995,113.675385 245.828522,116.595284 
M183.140167,190.432938 
	C183.140167,187.334244 183.140167,184.235565 183.140167,181.208023 
	C189.674408,180.587830 189.674408,180.587830 189.441132,176.745331 
	C187.526962,176.544540 185.580307,176.340347 183.559082,176.128326 
	C183.559082,172.798874 183.559082,169.607346 183.559082,166.329498 
	C186.243927,166.210617 188.513855,166.110107 190.745331,166.011292 
	C190.962540,161.414490 187.266739,160.525620 177.210876,162.426880 
	C177.210876,173.786530 177.210876,185.152191 177.210876,196.558167 
	C179.273895,196.558167 181.001724,196.558167 183.140198,196.558167 
	C183.140198,194.645737 183.140198,193.013504 183.140167,190.432938 
M296.663391,46.996407 
	C295.203278,47.060818 293.743164,47.125229 291.967346,47.203564 
	C292.100769,48.868034 292.211731,50.252411 292.315887,51.551563 
	C294.272583,51.823742 295.841431,52.041969 297.802734,52.314789 
	C297.802734,62.305996 297.802734,72.028870 297.802734,81.951843 
	C299.994110,81.951843 301.743408,81.951843 303.946655,81.951843 
	C303.946655,71.920692 303.946655,62.024017 303.946655,52.158951 
	C305.970612,51.896664 307.544800,51.692665 309.205994,51.477390 
	C309.205994,49.900875 309.205994,48.648399 309.205994,46.996395 
	C305.187622,46.996395 301.403137,46.996395 296.663391,46.996407 
M234.516190,82.324478 
	C241.027634,83.799507 244.800415,82.271935 245.025070,77.125435 
	C245.458298,67.201500 245.151428,57.245262 245.151428,47.331993 
	C243.068130,47.331993 241.174957,47.331993 239.033737,47.331993 
	C239.033737,54.977528 239.091827,62.284275 239.009659,69.589439 
	C238.967545,73.333496 240.435333,77.838600 234.759003,79.216957 
	C234.460632,79.289406 234.495102,80.732521 234.516190,82.324478 
M138.850388,397.809021 
	C138.406067,391.487244 136.814896,389.672882 131.851013,389.827881 
	C127.213570,389.972717 125.851006,391.818024 125.823471,398.026123 
	C125.812439,400.514557 125.830162,403.003143 125.834854,405.491638 
	C125.842438,409.514465 127.870987,411.670013 131.872864,411.826050 
	C135.785751,411.978638 138.253815,410.099396 138.707764,406.167938 
	C138.991577,403.709991 138.818542,401.199310 138.850388,397.809021 
M159.161957,118.508034 
	C159.161957,125.413803 159.161957,132.319565 159.161957,139.257751 
	C161.739136,139.257751 163.621140,139.257751 165.489578,139.257751 
	C165.489578,127.504280 165.489578,116.145096 165.489578,104.742226 
	C163.259201,104.742226 161.376923,104.742226 159.161713,104.742226 
	C159.161713,109.257637 159.161713,113.385567 159.161957,118.508034 
M233.678986,104.355896 
	C232.856949,105.634628 231.378708,106.886383 231.324844,108.196693 
	C231.072266,114.339516 231.211441,120.498451 231.211014,126.651627 
	C231.210724,130.890610 231.210968,135.129593 231.210968,139.700287 
	C233.949265,139.559540 235.828781,139.462936 237.875473,139.357742 
	C237.875473,128.400162 237.807434,118.094971 237.923264,107.791832 
	C237.952255,105.213432 237.152283,104.025116 233.678986,104.355896 
M287.429169,104.439842 
	C285.065247,104.173485 283.708801,104.725037 283.824860,107.610985 
	C284.032104,112.764046 283.881500,117.931488 283.881104,123.092918 
	C283.880707,128.501648 283.881012,133.910370 283.881012,139.601517 
	C286.422150,139.489914 288.155914,139.413757 290.092224,139.328720 
	C290.092224,128.314514 290.139313,117.832619 290.014038,107.352791 
	C290.002441,106.382820 288.894836,105.425957 287.429169,104.439842 
M312.001221,60.508545 
	C312.001221,67.609848 312.001221,74.711159 312.001221,81.923035 
	C314.251556,81.923035 315.994293,81.923035 317.857117,81.923035 
	C317.857117,70.184998 317.857117,58.685158 317.857117,46.960045 
	C315.731873,47.061115 313.992767,47.143822 312.001221,47.238533 
	C312.001221,51.580845 312.001221,55.546497 312.001221,60.508545 
M194.682236,162.007507 
	C194.682236,173.521133 194.682236,185.034744 194.682236,196.525330 
	C196.412949,196.525330 198.149292,196.525330 199.924698,196.525330 
	C199.924698,184.830688 199.924698,173.456238 199.924698,161.857025 
	C198.257034,161.857025 196.944183,161.857025 194.682236,162.007507 
M342.547424,239.495392 
	C353.711609,238.169952 358.496246,232.734726 357.186401,222.865891 
	C346.534729,221.748383 339.084900,229.686584 342.547424,239.495392 
M313.239746,238.256592 
	C305.913513,244.531738 308.141327,255.316650 317.599335,259.361450 
	C323.254700,250.714844 322.190002,244.802292 313.239746,238.256592 
M322.631226,229.142639 
	C320.517212,237.379089 323.103973,242.826935 330.448486,245.606125 
	C336.055481,236.391098 334.325836,229.397659 324.950470,224.630966 
	C324.270813,225.884506 323.584869,227.149658 322.631226,229.142639 
M338.727509,254.901764 
	C346.961700,259.404663 351.843689,258.356293 356.716217,251.038788 
	C350.024994,245.431015 343.207275,245.476730 338.424500,251.321991 
	C337.874451,251.994217 338.220245,253.399460 338.727509,254.901764 
M336.466766,271.785065 
	C339.475769,270.643646 342.484772,269.502258 345.643738,268.303955 
	C340.042725,259.449432 331.629852,258.594543 325.211243,266.632172 
	C328.853851,268.441040 332.268829,270.136841 336.466766,271.785065 
M222.899307,85.051491 
	C223.205948,82.200775 223.512589,79.350060 223.843628,76.272552 
	C221.442032,76.272552 219.844681,76.272552 217.053635,76.272552 
	C218.078506,79.192169 218.915466,81.576439 219.912277,84.416130 
	C219.635086,84.849136 218.917786,85.969635 218.200485,87.090141 
	C218.461746,87.413231 218.723022,87.736328 218.984283,88.059425 
	C220.154343,87.274582 221.324417,86.489746 222.899307,85.051491 
z"/>
<path fill="#FCFDFE" opacity="1.000000" stroke="none" 
	d="
M257.219971,289.439819 
	C263.164276,285.758087 268.880341,282.427124 274.253021,278.612549 
	C279.532166,274.864380 284.168365,270.161224 289.613159,266.707001 
	C298.389038,261.139526 303.599976,262.116455 310.798523,269.522034 
	C311.950745,270.707367 313.083893,271.911255 314.901520,273.813873 
	C318.678528,259.371704 330.378448,251.846039 338.289307,241.218307 
	C338.961761,241.778992 339.634216,242.339691 340.306671,242.900375 
	C336.514099,247.126053 332.528320,251.196899 328.983582,255.621185 
	C325.477325,259.997437 322.187286,264.588409 319.233276,269.352356 
	C316.907379,273.103394 316.665222,276.847961 321.737640,278.994904 
	C322.608978,279.363678 323.303375,280.150482 324.851959,281.335052 
	C321.798279,281.595367 319.622223,281.780884 316.513214,282.045929 
	C317.651459,288.115509 318.752075,293.984467 319.852692,299.853394 
	C314.950226,295.163208 315.667816,288.688263 314.105591,283.041992 
	C302.916107,283.480713 295.010834,289.250824 292.818542,299.855957 
	C291.352112,306.949768 291.411133,314.370117 290.929382,321.653748 
	C290.101196,334.176575 286.524109,345.438263 277.033142,354.313751 
	C270.061584,360.833160 261.919189,365.198822 252.905334,367.952423 
	C246.583908,369.883484 240.123734,371.360382 233.419022,373.120544 
	C233.419022,380.084930 233.419022,387.334015 233.419022,394.974762 
	C254.312439,396.160492 275.023621,397.231750 296.000977,392.862152 
	C296.000977,389.477631 295.547760,385.916290 296.192841,382.566498 
	C296.513611,380.900757 298.815704,378.401672 300.278229,378.361786 
	C312.597168,378.026031 324.929291,378.154694 337.257355,378.186401 
	C340.266724,378.194153 341.853882,379.702240 341.846802,382.828430 
	C341.819244,394.989929 341.832855,407.151550 341.826691,419.313110 
	C341.825104,422.436920 340.149780,423.832153 337.129547,423.831940 
	C324.967957,423.831055 312.806366,423.819244 300.644836,423.844116 
	C297.221191,423.851105 295.899017,422.083313 295.980408,418.822388 
	C296.062775,415.522980 295.998566,412.219879 295.998566,408.346436 
	C286.252106,407.509766 276.831970,405.911713 267.433655,406.031067 
	C226.790863,406.547089 186.154480,407.565857 145.515686,408.398590 
	C144.557037,408.418243 143.597656,408.401031 142.400040,408.401031 
	C142.400040,403.310852 142.400040,398.548553 142.400040,393.996216 
	C165.688736,393.996216 188.923706,393.996216 212.496124,393.996216 
	C212.496124,387.583832 212.496124,380.517792 212.496124,372.690948 
	C190.440216,372.841644 173.690979,359.613220 154.676193,348.976318 
	C157.280441,348.976318 159.112000,348.808319 160.903854,349.003967 
	C171.375763,350.147369 180.470810,346.987885 189.036789,341.033142 
	C194.695786,337.099304 200.990692,334.080292 206.788284,330.772949 
	C207.065613,330.974152 206.506699,330.255859 205.834534,330.126648 
	C187.319016,326.566406 177.988144,313.880737 173.037140,296.984070 
	C169.952713,286.457550 167.416656,275.766510 164.177948,265.290436 
	C162.056625,258.428650 158.602554,254.682114 152.013931,250.352188 
	C165.735687,248.785675 178.601334,249.971588 190.055786,256.459534 
	C198.926315,261.483917 207.197189,267.866882 214.875061,274.622803 
	C224.979523,283.513885 235.156998,291.493042 249.517181,290.870819 
	C251.972641,290.764435 254.400665,290.025574 257.219971,289.439819 
M219.003571,389.385986 
	C219.003571,391.154785 219.003571,392.923553 219.003571,394.848724 
	C221.946152,394.848724 224.343552,394.848724 226.828735,394.848724 
	C226.828735,387.580353 226.828735,380.560089 226.828735,373.645569 
	C224.088821,373.645569 221.688873,373.645569 219.003571,373.645569 
	C219.003571,378.831329 219.003571,383.623993 219.003571,389.385986 
z"/>
<path fill="#FBFDFE" opacity="1.000000" stroke="none" 
	d="
M59.632263,74.365234 
	C59.829285,71.603004 59.834991,69.252388 60.211224,66.962646 
	C62.743256,51.552826 72.972031,44.111561 88.684952,46.160313 
	C102.131973,47.913616 107.552116,54.897221 107.276245,70.484650 
	C102.072372,70.484650 96.845688,70.484650 91.265488,70.484650 
	C91.125366,69.132347 90.970657,67.702255 90.830101,66.270775 
	C90.454384,62.444183 89.111649,59.320305 84.648262,59.287518 
	C80.243813,59.255165 78.477852,62.402622 78.131638,66.114601 
	C77.532356,72.540016 77.392136,79.008255 77.024544,86.133362 
	C79.677124,84.822807 81.573990,83.557381 83.662422,82.908577 
	C94.851471,79.432480 104.737427,85.102036 107.582535,96.781906 
	C109.786507,105.829712 109.585121,114.950783 106.985764,123.914970 
	C103.934319,134.438278 96.486465,139.877106 85.164078,140.118500 
	C73.684868,140.363251 64.834526,135.198990 62.127739,124.912239 
	C60.215603,117.645447 60.031601,109.846352 59.711849,102.258102 
	C59.326874,93.121887 59.615410,83.957306 59.632263,74.365234 
M80.155220,125.419373 
	C84.704880,128.074722 89.199860,127.470535 89.713531,123.194626 
	C90.663528,115.286804 90.407082,107.176743 89.882729,99.201584 
	C89.787575,97.754471 85.890892,95.348595 83.966957,95.542786 
	C81.670395,95.774597 77.824219,98.242958 77.745148,99.891014 
	C77.346298,108.204323 75.756310,116.763634 80.155220,125.419373 
z"/>
<path fill="#FDFEFE" opacity="1.000000" stroke="none" 
	d="
M56.224350,93.000061 
	C56.224384,108.455765 56.224384,123.411469 56.224384,138.683838 
	C50.435612,138.683838 44.884769,138.683838 38.977997,138.683838 
	C38.977997,114.520615 38.977997,90.461807 38.977997,65.538651 
	C34.317410,67.061386 30.208931,68.403740 25.443810,69.960625 
	C25.443810,66.188423 25.325432,62.766323 25.522715,59.362526 
	C25.575464,58.452412 26.391571,57.277576 27.199879,56.770824 
	C32.108810,53.693272 36.846088,50.059380 42.181187,48.037376 
	C46.141800,46.536308 50.921272,47.195805 56.224319,46.831970 
	C56.224319,62.423042 56.224319,77.461548 56.224350,93.000061 
z"/>
<path fill="#F5F9FB" opacity="1.000000" stroke="none" 
	d="
M312.004913,439.578308 
	C307.009338,439.568848 302.510620,439.636292 298.016266,439.526001 
	C294.366913,439.436462 291.930542,437.727631 291.849243,433.806488 
	C291.761261,429.562653 294.364594,427.865936 298.223694,427.850128 
	C311.714386,427.794891 325.205475,427.848358 338.696228,427.801483 
	C342.651581,427.787750 345.300323,429.528992 345.467163,433.503906 
	C345.640778,437.639130 342.743988,439.446198 338.984467,439.507111 
	C330.159454,439.650116 321.330841,439.568909 312.004913,439.578308 
z"/>
<path fill="#F8FBFC" opacity="1.000000" stroke="none" 
	d="
M292.847168,370.999329 
	C291.458557,365.129578 293.078064,362.340759 298.412750,362.250885 
	C312.070862,362.020752 325.736237,362.102875 339.397064,362.233856 
	C342.910828,362.267548 345.742584,364.072968 345.677368,367.931061 
	C345.611450,371.832428 343.075775,373.966309 339.146698,373.981506 
	C325.651093,374.033752 312.153442,374.104797 298.661224,373.884583 
	C296.776123,373.853790 294.916901,372.234894 292.847168,370.999329 
z"/>
<path fill="#EFF5F9" opacity="1.000000" stroke="none" 
	d="
M188.582886,125.980576 
	C188.581131,129.809174 188.712830,133.150284 188.500366,136.469330 
	C188.433075,137.520203 187.446838,138.512268 186.881134,139.531235 
	C185.719208,138.867477 183.951630,138.482346 183.496613,137.493362 
	C181.086685,132.255356 179.006699,126.865540 175.943726,121.604782 
	C175.943726,127.392876 175.943726,133.180954 175.943726,139.269440 
	C173.791855,139.269440 172.226624,139.269440 170.085922,139.269440 
	C170.085922,133.510284 170.085922,127.898781 170.085922,122.287270 
	C170.085922,116.628540 170.085922,110.969818 170.085922,105.259132 
	C172.954269,103.605560 174.724930,104.236420 175.937363,107.249092 
	C177.891251,112.104103 180.047180,116.877815 183.018494,121.529472 
	C183.018494,116.020645 183.018494,110.511818 183.018494,104.703712 
	C184.917801,104.598434 186.340897,104.519554 188.583176,104.395264 
	C188.583176,111.644394 188.583176,118.564468 188.582886,125.980576 
z"/>
<path fill="#F4F8FB" opacity="1.000000" stroke="none" 
	d="
M329.384003,104.187180 
	C334.593567,105.372658 336.635223,108.794510 336.812592,113.335823 
	C337.032959,118.978485 337.142822,124.650597 336.821960,130.282730 
	C336.442047,136.951477 332.930328,140.057693 326.634735,140.006439 
	C320.274261,139.954666 317.177826,136.923508 316.843170,130.017044 
	C316.610046,125.206268 316.638397,120.377457 316.703278,115.558762 
	C316.824768,106.536674 319.761108,103.849121 329.384003,104.187180 
M323.101379,125.374695 
	C323.110626,127.201141 322.630219,129.224289 323.263275,130.800140 
	C323.930481,132.461044 325.660980,133.694824 326.926910,135.115219 
	C328.035217,133.749191 330.013367,132.436050 330.100189,131.007935 
	C330.462219,125.052788 330.458588,119.051239 330.111755,113.094505 
	C330.026917,111.637474 328.135010,110.285667 327.073944,108.885483 
	C325.757538,110.243271 323.531647,111.465309 323.304688,112.985710 
	C322.746948,116.722672 323.109192,120.596954 323.101379,125.374695 
z"/>
<path fill="#EFF5F9" opacity="1.000000" stroke="none" 
	d="
M279.626434,115.039902 
	C279.439911,121.354401 279.585815,127.212120 278.965912,132.987640 
	C278.428894,137.990860 274.942932,140.145020 269.165649,140.005432 
	C263.756836,139.874741 260.347382,137.575668 260.140137,132.652451 
	C259.749847,123.380264 260.027527,114.079956 260.027527,104.652527 
	C262.043488,104.652527 263.806366,104.652527 266.029694,104.652527 
	C266.029694,111.856224 266.028961,118.813583 266.030273,125.770943 
	C266.030579,127.270851 265.581818,128.980179 266.151031,130.220901 
	C266.975677,132.018250 268.539001,133.476715 269.787231,135.079742 
	C270.902863,133.521851 272.888885,132.014038 272.981934,130.397308 
	C273.364319,123.752129 273.171997,117.073814 273.188690,110.407692 
	C273.193207,108.610741 273.189392,106.813782 273.189392,104.716576 
	C275.398560,104.716576 277.153564,104.716576 279.626343,104.716576 
	C279.626343,108.008652 279.626343,111.278038 279.626434,115.039902 
z"/>
<path fill="#EBF3F7" opacity="1.000000" stroke="none" 
	d="
M294.624390,110.993553 
	C297.017059,104.988533 301.020172,102.905441 306.971313,104.231270 
	C312.063751,105.365799 313.906342,108.796860 313.475128,116.705902 
	C311.614349,116.705902 309.731354,116.705902 307.606567,116.705902 
	C307.457367,114.975342 307.638336,113.223351 307.073151,111.759430 
	C306.635651,110.626343 305.295227,109.154930 304.299927,109.111069 
	C303.235291,109.064140 301.178101,110.480980 301.148346,111.315697 
	C300.894409,118.444672 300.896790,125.590279 301.147278,132.719498 
	C301.176208,133.543106 303.212036,134.937653 304.272949,134.897369 
	C305.269409,134.859528 306.677948,133.434326 307.059906,132.327805 
	C307.627960,130.682037 307.452179,128.779495 307.615845,126.694984 
	C309.572357,126.694984 311.313721,126.694984 313.039276,126.694984 
	C314.736298,134.140366 313.045349,137.105286 304.809723,140.776962 
	C306.786865,143.277893 313.226715,144.007355 309.098724,148.861115 
	C307.242615,151.043533 303.843323,152.228882 300.760071,148.527786 
	C302.820953,147.893600 304.420380,147.401413 307.057495,146.589920 
	C303.869751,143.636566 300.967255,141.442337 298.716919,138.710846 
	C296.811188,136.397629 294.620178,133.551636 294.384003,130.785294 
	C293.836456,124.371346 294.395020,117.862976 294.624390,110.993553 
z"/>
<path fill="#EFF5F9" opacity="1.000000" stroke="none" 
	d="
M332.092621,92.967430 
	C331.157379,92.563843 330.222168,92.160248 329.286957,91.756660 
	C329.384308,91.383125 329.481659,91.009590 329.579010,90.636055 
	C331.069702,90.293701 332.560425,89.951355 335.344604,89.311935 
	C332.040009,86.296661 329.049469,84.200035 326.917816,81.440063 
	C324.900604,78.828247 322.929474,75.645309 322.467926,72.489807 
	C321.728424,67.433395 322.003571,62.177990 322.299500,57.032558 
	C322.747925,49.236397 326.456787,46.188652 333.950500,46.931499 
	C340.102081,47.541302 342.544128,51.624275 341.370636,59.636688 
	C339.651672,59.636688 337.896393,59.636688 335.939545,59.636688 
	C335.768799,57.845844 335.954437,56.066174 335.354523,54.610157 
	C334.817535,53.306831 333.412415,51.486359 332.394928,51.489281 
	C331.261322,51.492531 329.199707,53.257580 329.153992,54.324764 
	C328.862244,61.138458 328.867950,67.977715 329.172119,74.790855 
	C329.220062,75.864761 331.154358,77.345856 332.459076,77.673943 
	C333.156769,77.849403 334.818298,76.130714 335.247284,74.971657 
	C335.857361,73.323303 335.733307,71.403259 335.946808,69.371872 
	C337.839081,69.371872 339.585846,69.371872 341.303864,69.371872 
	C342.652863,77.173309 341.545837,79.100929 333.642456,83.351471 
	C335.225433,85.245247 337.180847,87.027954 338.241150,89.239761 
	C338.510284,89.801186 335.931427,91.727913 333.989746,92.984390 
	C332.909760,92.950127 332.501190,92.958778 332.092621,92.967430 
z"/>
<path fill="#F8FBFC" opacity="1.000000" stroke="none" 
	d="
M263.107544,57.038357 
	C263.107544,53.576580 263.107544,50.607182 263.107544,47.252850 
	C265.130524,47.144997 266.869934,47.052265 268.809631,46.948853 
	C268.809631,56.904621 269.159882,66.619476 268.649384,76.288887 
	C268.422821,80.580246 263.644958,83.069824 258.764160,82.672424 
	C253.482452,82.242378 250.228485,79.757904 250.052322,74.862541 
	C249.724960,65.766106 249.958450,56.649487 249.958450,47.267368 
	C251.830276,47.267368 253.579330,47.267368 255.937729,47.267368 
	C255.937729,54.518887 255.932709,61.777828 255.941513,69.036743 
	C255.943527,70.698639 255.583176,72.515152 256.135468,73.979118 
	C256.694885,75.461990 258.178406,76.596237 259.257172,77.883186 
	C260.503479,76.584396 262.710785,75.365364 262.826355,73.972733 
	C263.278748,68.521835 263.070404,63.016094 263.107544,57.038357 
z"/>
<path fill="#EFF5F9" opacity="1.000000" stroke="none" 
	d="
M204.325439,187.426147 
	C204.312378,181.497253 203.961746,175.977371 204.452744,170.533417 
	C205.160706,162.684082 211.492279,159.049789 218.810486,162.057953 
	C224.261841,164.298737 223.827530,169.225723 223.890701,174.255341 
	C221.921371,174.255341 220.171875,174.255341 218.055206,174.255341 
	C217.868561,172.580292 217.968887,170.706802 217.376190,169.086853 
	C216.944046,167.905701 215.479050,166.161240 214.686783,166.266464 
	C213.393784,166.438156 211.281113,167.871521 211.240067,168.845306 
	C210.946442,175.811752 210.976364,182.800781 211.233810,189.770432 
	C211.266739,190.662247 213.187927,192.120712 214.269165,192.153061 
	C215.289200,192.183578 216.865982,190.876831 217.281845,189.803452 
	C217.914200,188.171280 217.755615,186.232635 217.963165,184.116211 
	C219.750412,184.116211 221.500977,184.116211 223.275772,184.116211 
	C224.837296,190.959976 222.507568,196.012390 217.243423,197.063797 
	C209.849731,198.540512 205.933792,195.744934 204.325439,187.426147 
z"/>
<path fill="#EFF5F9" opacity="1.000000" stroke="none" 
	d="
M178.402817,56.959221 
	C177.482651,64.606750 176.673737,65.254700 165.796860,67.220444 
	C165.796860,71.924232 165.796860,76.706001 165.796860,81.860489 
	C163.536880,81.860489 161.632217,81.860489 159.387711,81.860489 
	C159.387711,70.544319 159.387711,59.159168 159.387711,47.726887 
	C170.906769,44.513901 177.262756,47.431423 178.402817,56.959221 
M170.760376,61.345547 
	C171.051270,58.580677 171.768066,55.752583 171.372772,53.089569 
	C171.254623,52.293583 168.026337,51.959267 165.911102,51.319031 
	C165.911102,55.475758 165.911102,58.523952 165.911102,61.758045 
	C167.439270,61.758045 168.706879,61.758045 170.760376,61.345547 
z"/>
<path fill="#F5F9FB" opacity="1.000000" stroke="none" 
	d="
M246.128754,195.914246 
	C244.362534,196.494324 242.649460,196.704132 240.777191,196.933456 
	C240.153275,194.051834 239.634476,191.655716 239.078354,189.087204 
	C237.113693,189.087204 235.336487,189.087204 233.231018,189.087204 
	C232.703430,191.472977 232.175613,193.859818 231.581848,196.544800 
	C229.852066,196.544800 228.120407,196.544800 225.741257,196.544800 
	C227.666702,186.773544 229.509094,177.223831 231.440857,167.692200 
	C232.690170,161.527771 232.748749,161.539642 239.650299,162.139099 
	C241.805634,173.162186 243.993774,184.353088 246.128754,195.914246 
M234.702866,179.147003 
	C233.516693,185.079102 233.516693,185.079102 238.446472,184.052429 
	C237.839020,180.693848 237.230667,177.330261 236.622314,173.966690 
	C236.202423,174.013565 235.782532,174.060455 235.362625,174.107330 
	C235.189484,175.503235 235.016342,176.899124 234.702866,179.147003 
z"/>
<path fill="#F5F9FB" opacity="1.000000" stroke="none" 
	d="
M345.120789,82.114357 
	C345.214325,77.573570 345.543976,73.049477 346.332275,68.606766 
	C347.578369,61.583904 349.131927,54.615608 350.617157,47.320736 
	C352.792389,47.320736 354.873108,47.320736 357.571289,47.320736 
	C359.810303,58.547920 362.098511,70.021690 364.380341,81.463570 
	C356.164642,84.544556 358.875671,77.238083 356.704071,74.235245 
	C355.184845,74.235245 353.400452,74.235245 351.613770,74.241455 
	C349.201538,76.586800 352.465271,83.261909 345.120789,82.114357 
M356.152069,68.431885 
	C355.645294,64.966133 355.138519,61.500381 354.631744,58.034630 
	C354.318695,58.020016 354.005646,58.005398 353.692627,57.990780 
	C353.052490,61.777729 352.412354,65.564674 351.632721,70.176804 
	C353.499237,69.826653 354.806885,69.581337 356.152069,68.431885 
z"/>
<path fill="#F5F9FB" opacity="1.000000" stroke="none" 
	d="
M186.267761,74.057419 
	C184.986313,76.511742 184.140839,78.935349 183.135162,81.818176 
	C181.834030,81.818176 180.102509,81.818176 177.666565,81.818176 
	C179.905731,70.383774 182.123444,59.059025 184.413132,47.366623 
	C186.648270,47.366623 188.870758,47.366623 191.470856,47.366623 
	C193.726151,58.678230 195.993347,70.049492 198.341583,81.827240 
	C196.281204,81.827240 194.553040,81.827240 192.739563,81.827240 
	C190.757523,79.221153 193.612091,72.777786 186.267761,74.057419 
M185.975586,67.576103 
	C187.041763,68.507729 188.107941,69.439354 189.174118,70.370979 
	C189.544662,69.961311 189.915207,69.551643 190.285751,69.141975 
	C189.660233,65.417572 189.034714,61.693169 188.409195,57.968765 
	C188.121170,57.995251 187.833160,58.021736 187.545135,58.048218 
	C187.049438,60.927792 186.553726,63.807362 185.975586,67.576103 
z"/>
<path fill="#F2F8FA" opacity="1.000000" stroke="none" 
	d="
M192.088348,112.131783 
	C193.706970,105.790840 196.341812,103.701042 201.825912,104.020004 
	C206.798477,104.309219 208.780502,106.555916 209.772263,113.425613 
	C208.271545,113.710991 206.747009,114.000893 205.447678,114.247978 
	C204.904907,113.772888 204.613342,113.597130 204.429230,113.343407 
	C203.369797,111.883369 202.424347,110.319756 201.188110,109.033623 
	C201.021835,108.860634 198.595947,110.152550 198.648178,110.598434 
	C198.880051,112.578163 199.135651,114.895317 200.303009,116.353767 
	C202.668716,119.309380 205.909576,121.564217 208.277344,124.518539 
	C211.398163,128.412521 211.393936,133.934402 208.559387,136.942444 
	C205.333435,140.365814 201.003799,141.311874 197.253555,138.844757 
	C194.580658,137.086395 193.087479,133.534760 190.293686,129.728729 
	C193.745544,129.008575 195.412109,128.660873 197.314423,128.263992 
	C197.580902,129.373993 197.580292,130.273346 197.992065,130.903015 
	C198.912689,132.310745 199.917480,133.722626 201.165588,134.815872 
	C201.482437,135.093414 203.514343,134.294769 203.596527,133.798340 
	C203.879364,132.089401 204.300629,129.856522 203.473938,128.626678 
	C201.845428,126.204010 199.085999,124.551613 197.401245,122.154137 
	C195.305313,119.171593 193.823288,115.757629 192.088348,112.131783 
z"/>
<path fill="#F5F9FB" opacity="1.000000" stroke="none" 
	d="
M285.943420,47.643486 
	C287.902832,50.271332 289.511536,52.693810 291.552155,55.766750 
	C288.642273,56.501675 287.240753,56.855648 285.975281,57.175259 
	C285.543671,56.776829 285.255066,56.596737 285.084412,56.338642 
	C284.072144,54.807819 283.187531,53.169785 281.983002,51.813889 
	C281.805878,51.614479 279.292084,52.806023 279.330536,53.215969 
	C279.517517,55.208771 279.669312,57.586792 280.829468,59.025261 
	C283.103058,61.844307 286.298187,63.911289 288.634064,66.691086 
	C291.757446,70.408035 292.024139,76.102455 289.488464,79.225487 
	C286.488647,82.920189 282.527069,83.561600 278.220734,81.951645 
	C273.962036,80.359505 273.117249,76.674858 272.760406,72.301147 
	C274.317993,71.788208 275.815948,71.294899 277.659790,70.687683 
	C278.030701,71.933250 278.306213,72.832870 278.566315,73.736946 
	C279.265686,76.167831 280.559387,78.631035 283.261261,77.002617 
	C284.325684,76.361099 284.678864,72.593300 283.828918,71.145683 
	C282.282928,68.512550 279.418762,66.693672 277.437714,64.263504 
	C275.707184,62.140675 273.626892,59.809582 273.110443,57.282490 
	C271.528748,49.542919 276.464050,45.837227 285.943420,47.643486 
z"/>
<path fill="#F5F9FB" opacity="1.000000" stroke="none" 
	d="
M369.290344,104.311890 
	C373.751312,105.811020 375.088684,108.919312 375.198547,113.403801 
	C373.612579,113.713654 372.112854,114.006645 371.571838,114.112335 
	C369.547211,111.984100 368.177002,110.359558 366.555267,109.045433 
	C366.322601,108.856895 364.033630,110.392685 364.128448,110.745781 
	C364.730072,112.985474 365.338074,115.418633 366.702057,117.211090 
	C368.589569,119.691574 371.323395,121.509964 373.375092,123.887741 
	C376.575287,127.596619 377.030914,133.038254 374.530151,136.349777 
	C371.935791,139.785324 368.314209,140.633499 364.288757,139.605072 
	C359.196533,138.304123 357.824188,134.469437 357.835052,129.426743 
	C359.394836,129.067383 360.918182,128.716431 362.593750,128.330399 
	C363.045990,129.823669 363.086151,131.379913 363.881226,132.230408 
	C364.936493,133.359192 366.580994,133.937088 367.972321,134.751709 
	C368.551605,133.194275 370.049255,131.149155 369.531555,130.174255 
	C368.180878,127.630806 365.949097,125.554787 364.065948,123.294701 
	C362.077759,120.908592 359.245026,118.827728 358.257782,116.082527 
	C355.561798,108.585617 360.133301,103.765388 369.290344,104.311890 
z"/>
<path fill="#F5F9FB" opacity="1.000000" stroke="none" 
	d="
M283.717560,169.244629 
	C284.990417,163.201599 288.092865,160.764130 293.449768,161.240845 
	C298.417694,161.682953 300.582855,164.285431 301.091339,170.729462 
	C299.746582,171.061920 298.346008,171.408188 296.624786,171.833725 
	C296.227020,170.713593 296.119171,169.453934 295.440704,168.726547 
	C294.457855,167.672821 293.062317,167.004074 291.842834,166.171143 
	C291.167725,167.527206 289.749817,169.036987 289.991211,170.203400 
	C290.355896,171.965790 291.672821,173.677109 292.954559,175.070190 
	C294.969147,177.259750 297.593292,178.929184 299.413422,181.247467 
	C302.250580,184.861130 303.181244,189.081436 300.811859,193.346725 
	C298.601624,197.325562 294.708008,197.542618 290.767273,197.084351 
	C286.712982,196.612885 283.280548,192.679047 283.993286,188.709427 
	C284.236023,187.357437 286.509705,186.370087 288.321808,184.816193 
	C289.029938,187.121964 289.045959,188.541626 289.762207,189.203552 
	C291.008362,190.355194 292.686615,191.039230 294.183716,191.919296 
	C294.565063,190.176605 295.827606,187.891968 295.154602,186.797714 
	C293.460846,184.043686 290.578339,182.038986 288.760712,179.337997 
	C286.733917,176.326141 285.356812,172.877106 283.717560,169.244629 
z"/>
<path fill="#EFF5F9" opacity="1.000000" stroke="none" 
	d="
M340.852051,105.829041 
	C345.264557,105.086899 349.620728,104.617363 353.975586,104.629211 
	C354.629089,104.630981 355.276520,106.885887 356.281952,108.760910 
	C352.643127,108.955048 350.073883,109.092117 347.316895,109.239204 
	C347.316895,112.448860 347.316895,115.380005 347.316895,118.672722 
	C349.269073,118.841339 351.186829,119.006989 353.098022,119.172073 
	C354.014374,123.299118 354.014374,123.299118 347.473694,123.951828 
	C347.473694,127.441322 347.473694,130.977295 347.473694,135.122375 
	C349.236237,135.122375 351.065399,134.843887 352.747040,135.221817 
	C353.839569,135.467377 354.717072,136.669693 355.690887,137.443359 
	C354.820068,138.161301 353.982300,139.446075 353.072754,139.499069 
	C349.139435,139.728271 345.185181,139.597198 340.795288,139.597198 
	C340.795288,128.149033 340.795288,117.203545 340.852051,105.829041 
z"/>
<path fill="#EBF3F7" opacity="1.000000" stroke="none" 
	d="
M173.689087,162.383575 
	C174.409271,169.830490 168.264893,164.019058 166.046692,166.577393 
	C166.046692,169.477829 166.046692,172.378250 166.046692,175.751953 
	C167.672211,175.937103 169.563568,176.152542 171.765167,176.403320 
	C171.765167,177.802460 171.765167,179.152908 171.765167,180.754501 
	C169.753189,180.857300 167.985718,180.947601 165.941406,181.052048 
	C165.941406,184.708679 165.941406,188.119202 165.941406,192.117126 
	C168.442535,192.275391 170.999741,192.437210 173.777954,192.613007 
	C173.777954,194.032578 173.777954,195.257523 173.777954,196.686218 
	C168.939926,196.686218 164.348358,196.686218 159.399765,196.686218 
	C159.399765,185.180420 159.399765,173.812119 159.399765,162.019913 
	C164.017563,162.019913 168.747208,162.019913 173.689087,162.383575 
z"/>
<path fill="#F5F9FB" opacity="1.000000" stroke="none" 
	d="
M273.089661,183.269455 
	C273.084930,186.371506 273.084930,189.009613 273.084930,192.432327 
	C275.265228,192.432327 277.210785,192.191269 279.048950,192.531021 
	C280.010468,192.708755 280.783386,193.906876 281.641479,194.644150 
	C280.806427,195.382339 280.005920,196.706421 279.130432,196.757965 
	C275.202301,196.989304 271.252869,196.858734 267.070221,196.858734 
	C267.070221,184.995468 267.070221,173.641083 267.070221,162.321609 
	C278.656891,160.674576 281.171600,161.264191 281.157013,165.947311 
	C278.767822,166.081833 276.346649,166.218140 273.504578,166.378159 
	C273.504578,169.409042 273.504578,172.440857 273.504578,175.685440 
	C275.151886,177.436508 281.213379,173.693649 279.665375,179.733505 
	C277.310394,180.834488 275.202393,181.820007 273.089661,183.269455 
z"/>
<path fill="#F8FBFC" opacity="1.000000" stroke="none" 
	d="
M376.872925,54.062595 
	C376.872925,51.589794 376.872925,49.609474 376.872925,47.309708 
	C381.697693,47.309708 386.278107,47.309708 390.884033,47.309708 
	C391.563324,50.650414 391.563324,50.650414 383.341034,52.174843 
	C383.341034,55.083469 383.341034,58.036415 383.341034,61.435318 
	C385.223999,61.635426 387.134705,61.838486 389.048767,62.045700 
	C389.963165,65.771568 389.963165,65.771568 383.426514,66.654297 
	C383.426514,70.164070 383.426514,73.718468 383.426514,77.005257 
	C385.812256,79.362686 391.598663,75.154716 391.848602,81.911560 
	C386.668610,81.911560 382.079742,81.911560 376.872955,81.911560 
	C376.872955,72.755981 376.872955,63.655529 376.872925,54.062595 
z"/>
<path fill="#F2F8FA" opacity="1.000000" stroke="none" 
	d="
M223.437347,120.012802 
	C223.436630,126.631393 223.436630,132.753723 223.436630,139.227234 
	C221.167267,139.227234 219.299057,139.227234 217.052551,139.227234 
	C217.052551,129.323730 217.052551,119.572151 217.052551,109.643532 
	C215.107117,109.386696 213.504562,109.175133 211.793335,108.949211 
	C210.707733,105.892395 211.171112,104.179146 214.924240,104.373604 
	C218.405960,104.553993 221.912369,104.559235 225.393097,104.369720 
	C228.647141,104.192551 229.586685,105.526817 228.579620,108.912163 
	C227.226273,109.108261 225.668030,109.334045 223.438080,109.657158 
	C223.438080,112.984009 223.438080,116.250282 223.437347,120.012802 
z"/>
<path fill="#F2F8FA" opacity="1.000000" stroke="none" 
	d="
M254.104401,196.869873 
	C251.988571,196.869858 250.342636,196.869858 247.867310,196.869858 
	C248.789505,185.901001 254.728104,176.752335 256.891052,166.566833 
	C248.747009,165.687256 248.747009,165.687256 248.887665,162.099213 
	C253.767654,162.099213 258.661835,162.099213 264.727417,162.099213 
	C261.249847,172.206192 257.946320,181.807449 254.718887,191.187469 
	C256.981812,194.518555 263.831085,189.274811 264.104279,196.869888 
	C260.507874,196.869888 257.541107,196.869888 254.104401,196.869873 
z"/>
<path fill="#F4F8FB" opacity="1.000000" stroke="none" 
	d="
M208.686691,52.519287 
	C207.014343,51.930626 205.380661,51.543098 203.771851,51.627899 
	C200.484436,51.801167 199.620285,50.411766 200.687164,47.225399 
	C205.578217,47.225399 210.487900,47.225399 216.693970,47.225399 
	C213.119064,57.589024 209.726288,67.424675 206.299011,77.360336 
	C209.757751,77.763924 212.663666,78.012428 215.507370,78.575294 
	C215.790924,78.631424 215.695816,80.600525 215.795074,81.931412 
	C210.503967,81.931412 205.580124,81.931412 199.782593,81.931412 
	C200.132538,79.713509 200.183258,77.475929 200.859680,75.446960 
	C203.373871,67.905556 206.093872,60.432755 208.686691,52.519287 
z"/>
<path fill="#F2F8FA" opacity="1.000000" stroke="none" 
	d="
M245.828766,116.110687 
	C245.828995,113.675385 245.828995,111.724686 245.828995,109.563980 
	C243.739014,109.334549 242.126663,109.157547 240.309052,108.958015 
	C240.309052,107.598770 240.309052,106.319489 240.309052,104.419449 
	C245.354446,104.419449 250.304810,104.219597 255.215607,104.571701 
	C256.327240,104.651398 257.301392,106.649055 259.141266,108.626137 
	C255.890839,109.077484 254.312225,109.296692 252.307892,109.575012 
	C252.307892,119.401443 252.307892,129.149490 252.307892,139.236877 
	C250.117874,139.236877 248.371506,139.236877 245.828522,139.236877 
	C245.828522,131.740433 245.828522,124.167854 245.828766,116.110687 
z"/>
<path fill="#F8FBFC" opacity="1.000000" stroke="none" 
	d="
M183.140182,190.907104 
	C183.140198,193.013504 183.140198,194.645737 183.140198,196.558167 
	C181.001724,196.558167 179.273895,196.558167 177.210876,196.558167 
	C177.210876,185.152191 177.210876,173.786530 177.210876,162.426880 
	C187.266739,160.525620 190.962540,161.414490 190.745331,166.011292 
	C188.513855,166.110107 186.243927,166.210617 183.559082,166.329498 
	C183.559082,169.607346 183.559082,172.798874 183.559082,176.128326 
	C185.580307,176.340347 187.526962,176.544540 189.441132,176.745331 
	C189.674408,180.587830 189.674408,180.587830 183.140167,181.208023 
	C183.140167,184.235565 183.140167,187.334244 183.140182,190.907104 
z"/>
<path fill="#FCFDFE" opacity="1.000000" stroke="none" 
	d="
M297.141022,46.996399 
	C301.403137,46.996395 305.187622,46.996395 309.205994,46.996395 
	C309.205994,48.648399 309.205994,49.900875 309.205994,51.477390 
	C307.544800,51.692665 305.970612,51.896664 303.946655,52.158951 
	C303.946655,62.024017 303.946655,71.920692 303.946655,81.951843 
	C301.743408,81.951843 299.994110,81.951843 297.802734,81.951843 
	C297.802734,72.028870 297.802734,62.305996 297.802734,52.314789 
	C295.841431,52.041969 294.272583,51.823742 292.315887,51.551563 
	C292.211731,50.252411 292.100769,48.868034 291.967346,47.203564 
	C293.743164,47.125229 295.203278,47.060818 297.141022,46.996399 
z"/>
<path fill="#F8FBFC" opacity="1.000000" stroke="none" 
	d="
M234.445404,81.931007 
	C234.495102,80.732521 234.460632,79.289406 234.759003,79.216957 
	C240.435333,77.838600 238.967545,73.333496 239.009659,69.589439 
	C239.091827,62.284275 239.033737,54.977528 239.033737,47.331993 
	C241.174957,47.331993 243.068130,47.331993 245.151428,47.331993 
	C245.151428,57.245262 245.458298,67.201500 245.025070,77.125435 
	C244.800415,82.271935 241.027634,83.799507 234.445404,81.931007 
z"/>
<path fill="#F8FBFC" opacity="1.000000" stroke="none" 
	d="
M138.850433,398.260651 
	C138.818542,401.199310 138.991577,403.709991 138.707764,406.167938 
	C138.253815,410.099396 135.785751,411.978638 131.872864,411.826050 
	C127.870987,411.670013 125.842438,409.514465 125.834854,405.491638 
	C125.830162,403.003143 125.812439,400.514557 125.823471,398.026123 
	C125.851006,391.818024 127.213570,389.972717 131.851013,389.827881 
	C136.814896,389.672882 138.406067,391.487244 138.850433,398.260651 
z"/>
<path fill="#E2EEF4" opacity="1.000000" stroke="none" 
	d="
M159.161835,118.010765 
	C159.161713,113.385567 159.161713,109.257637 159.161713,104.742226 
	C161.376923,104.742226 163.259201,104.742226 165.489578,104.742226 
	C165.489578,116.145096 165.489578,127.504280 165.489578,139.257751 
	C163.621140,139.257751 161.739136,139.257751 159.161957,139.257751 
	C159.161957,132.319565 159.161957,125.413803 159.161835,118.010765 
z"/>
<path fill="#E2EEF4" opacity="1.000000" stroke="none" 
	d="
M234.101379,104.352844 
	C237.152283,104.025116 237.952255,105.213432 237.923264,107.791832 
	C237.807434,118.094971 237.875473,128.400162 237.875473,139.357742 
	C235.828781,139.462936 233.949265,139.559540 231.210968,139.700287 
	C231.210968,135.129593 231.210724,130.890610 231.211014,126.651627 
	C231.211441,120.498451 231.072266,114.339516 231.324844,108.196693 
	C231.378708,106.886383 232.856949,105.634628 234.101379,104.352844 
z"/>
<path fill="#F8FBFC" opacity="1.000000" stroke="none" 
	d="
M287.862671,104.451424 
	C288.894836,105.425957 290.002441,106.382820 290.014038,107.352791 
	C290.139313,117.832619 290.092224,128.314514 290.092224,139.328720 
	C288.155914,139.413757 286.422150,139.489914 283.881012,139.601517 
	C283.881012,133.910370 283.880707,128.501648 283.881104,123.092918 
	C283.881500,117.931488 284.032104,112.764046 283.824860,107.610985 
	C283.708801,104.725037 285.065247,104.173485 287.862671,104.451424 
z"/>
<path fill="#FFFFFF" opacity="1.000000" stroke="none" 
	d="
M312.001221,60.010345 
	C312.001221,55.546497 312.001221,51.580845 312.001221,47.238533 
	C313.992767,47.143822 315.731873,47.061115 317.857117,46.960045 
	C317.857117,58.685158 317.857117,70.184998 317.857117,81.923035 
	C315.994293,81.923035 314.251556,81.923035 312.001221,81.923035 
	C312.001221,74.711159 312.001221,67.609848 312.001221,60.010345 
z"/>
<path fill="#FBFDFE" opacity="1.000000" stroke="none" 
	d="
M195.156784,161.932266 
	C196.944183,161.857025 198.257034,161.857025 199.924698,161.857025 
	C199.924698,173.456238 199.924698,184.830688 199.924698,196.525330 
	C198.149292,196.525330 196.412949,196.525330 194.682236,196.525330 
	C194.682236,185.034744 194.682236,173.521133 195.156784,161.932266 
z"/>
<path fill="#F4F8FB" opacity="1.000000" stroke="none" 
	d="
M342.170776,239.381287 
	C339.084900,229.686584 346.534729,221.748383 357.186401,222.865891 
	C358.496246,232.734726 353.711609,238.169952 342.170776,239.381287 
z"/>
<path fill="#F5F9FB" opacity="1.000000" stroke="none" 
	d="
M313.552368,238.440201 
	C322.190002,244.802292 323.254700,250.714844 317.599335,259.361450 
	C308.141327,255.316650 305.913513,244.531738 313.552368,238.440201 
z"/>
<path fill="#F5F9FB" opacity="1.000000" stroke="none" 
	d="
M322.765076,228.778717 
	C323.584869,227.149658 324.270813,225.884506 324.950470,224.630966 
	C334.325836,229.397659 336.055481,236.391098 330.448486,245.606125 
	C323.103973,242.826935 320.517212,237.379089 322.765076,228.778717 
z"/>
<path fill="#F8FBFC" opacity="1.000000" stroke="none" 
	d="
M338.439087,254.683289 
	C338.220245,253.399460 337.874451,251.994217 338.424500,251.321991 
	C343.207275,245.476730 350.024994,245.431015 356.716217,251.038788 
	C351.843689,258.356293 346.961700,259.404663 338.439087,254.683289 
z"/>
<path fill="#F2F8FA" opacity="1.000000" stroke="none" 
	d="
M336.075287,271.808868 
	C332.268829,270.136841 328.853851,268.441040 325.211243,266.632172 
	C331.629852,258.594543 340.042725,259.449432 345.643738,268.303955 
	C342.484772,269.502258 339.475769,270.643646 336.075287,271.808868 
z"/>
<path fill="#E2EEF4" opacity="1.000000" stroke="none" 
	d="
M332.106262,93.334274 
	C332.501190,92.958778 332.909760,92.950127 333.624451,92.957367 
	C333.669617,94.380051 333.824890,96.116341 333.039764,97.108124 
	C332.110992,98.281288 330.399170,99.421326 328.975555,99.488327 
	C326.374054,99.610786 323.734955,98.933586 320.308075,98.484650 
	C320.579315,97.730110 320.731628,95.889442 321.731262,94.970993 
	C322.541534,94.226532 324.805481,93.972366 325.666077,94.578239 
	C328.303711,96.435158 330.180786,95.503540 332.106262,93.334274 
z"/>
<path fill="#E2EEF4" opacity="1.000000" stroke="none" 
	d="
M222.696899,85.378204 
	C221.324417,86.489746 220.154343,87.274582 218.984283,88.059425 
	C218.723022,87.736328 218.461746,87.413231 218.200485,87.090141 
	C218.917786,85.969635 219.635086,84.849136 219.912277,84.416130 
	C218.915466,81.576439 218.078506,79.192169 217.053635,76.272552 
	C219.844681,76.272552 221.442032,76.272552 223.843628,76.272552 
	C223.512589,79.350060 223.205948,82.200775 222.696899,85.378204 
z"/>
<path fill="#01699D" opacity="1.000000" stroke="none" 
	d="
M219.003571,388.901306 
	C219.003571,383.623993 219.003571,378.831329 219.003571,373.645569 
	C221.688873,373.645569 224.088821,373.645569 226.828735,373.645569 
	C226.828735,380.560089 226.828735,387.580353 226.828735,394.848724 
	C224.343552,394.848724 221.946152,394.848724 219.003571,394.848724 
	C219.003571,392.923553 219.003571,391.154785 219.003571,388.901306 
z"/>
<path fill="#086DA0" opacity="1.000000" stroke="none" 
	d="
M79.918945,125.098877 
	C75.756310,116.763634 77.346298,108.204323 77.745148,99.891014 
	C77.824219,98.242958 81.670395,95.774597 83.966957,95.542786 
	C85.890892,95.348595 89.787575,97.754471 89.882729,99.201584 
	C90.407082,107.176743 90.663528,115.286804 89.713531,123.194626 
	C89.199860,127.470535 84.704880,128.074722 79.918945,125.098877 
z"/>
<path fill="#086DA0" opacity="1.000000" stroke="none" 
	d="
M323.101410,124.895348 
	C323.109192,120.596954 322.746948,116.722672 323.304688,112.985710 
	C323.531647,111.465309 325.757538,110.243271 327.073944,108.885483 
	C328.135010,110.285667 330.026917,111.637474 330.111755,113.094505 
	C330.458588,119.051239 330.462219,125.052788 330.100189,131.007935 
	C330.013367,132.436050 328.035217,133.749191 326.926910,135.115234 
	C325.660980,133.694824 323.930481,132.461044 323.263275,130.800140 
	C322.630219,129.224289 323.110626,127.201141 323.101410,124.895348 
z"/>
<path fill="#01699D" opacity="1.000000" stroke="none" 
	d="
M170.367432,61.551796 
	C168.706879,61.758045 167.439270,61.758045 165.911102,61.758045 
	C165.911102,58.523952 165.911102,55.475758 165.911102,51.319031 
	C168.026337,51.959267 171.254623,52.293583 171.372772,53.089569 
	C171.768066,55.752583 171.051270,58.580677 170.367432,61.551796 
z"/>
<path fill="#1977A7" opacity="1.000000" stroke="none" 
	d="
M234.773026,178.721008 
	C235.016342,176.899124 235.189484,175.503235 235.362625,174.107330 
	C235.782532,174.060455 236.202423,174.013565 236.622314,173.966690 
	C237.230667,177.330261 237.839020,180.693848 238.446472,184.052429 
	C233.516693,185.079102 233.516693,185.079102 234.773026,178.721008 
z"/>
<path fill="#1977A7" opacity="1.000000" stroke="none" 
	d="
M356.133301,68.883957 
	C354.806885,69.581337 353.499237,69.826653 351.632721,70.176804 
	C352.412354,65.564674 353.052490,61.777729 353.692627,57.990780 
	C354.005646,58.005398 354.318695,58.020016 354.631744,58.034630 
	C355.138519,61.500381 355.645294,64.966133 356.133301,68.883957 
z"/>
<path fill="#1977A7" opacity="1.000000" stroke="none" 
	d="
M186.016800,67.131516 
	C186.553726,63.807362 187.049438,60.927792 187.545135,58.048218 
	C187.833160,58.021736 188.121170,57.995251 188.409195,57.968765 
	C189.034714,61.693169 189.660233,65.417572 190.285751,69.141975 
	C189.915207,69.551643 189.544662,69.961311 189.174118,70.370979 
	C188.107941,69.439354 187.041763,68.507729 186.016800,67.131516 
z"/>
</svg>