<svg version="1.1" id="Layer_1" xmlns="http://www.w3.org/2000/svg" xmlns:xlink="http://www.w3.org/1999/xlink" x="0px" y="0px"
	 width="100%" viewBox="0 0 489 485" enable-background="new 0 0 489 485" xml:space="preserve">
<path fill="#FFFFFF" opacity="1.000000" stroke="none" 
	d="
M490.000000,164.000000 
	C490.000000,271.666626 490.000000,378.833282 490.000000,485.999939 
	C327.000061,485.999939 164.000122,485.999939 1.000145,485.999969 
	C1.000097,324.333435 1.000097,162.666870 1.000048,1.000232 
	C163.999863,1.000154 326.999725,1.000154 489.999786,1.000077 
	C490.000000,55.166668 490.000000,109.333336 490.000000,164.000000 
M468.424011,3.999196 
	C319.591400,3.999201 170.758804,3.999074 21.926199,3.999456 
	C9.863605,3.999487 5.999670,7.809736 5.999620,19.709160 
	C5.999003,169.208237 5.999038,318.707306 5.999549,468.206390 
	C5.999589,480.176086 9.835895,484.000397 21.841732,484.000427 
	C171.174133,484.000854 320.506561,484.000793 469.838959,484.000549 
	C482.247772,484.000549 486.000458,480.291565 486.000488,468.025696 
	C486.000824,318.693298 486.000824,169.360886 485.999420,20.028473 
	C485.999420,18.361969 486.093964,16.685425 485.948578,15.030767 
	C485.425293,9.074109 480.863129,4.538649 474.890900,4.049934 
	C473.069122,3.900855 471.226318,4.008904 468.424011,3.999196 
z"/>
<path fill="#1A496A" opacity="1.000000" stroke="none" 
	d="
M468.908569,3.999197 
	C471.226318,4.008904 473.069122,3.900855 474.890900,4.049934 
	C480.863129,4.538649 485.425293,9.074109 485.948578,15.030767 
	C486.093964,16.685425 485.999420,18.361969 485.999420,20.028473 
	C486.000824,169.360886 486.000824,318.693298 486.000488,468.025696 
	C486.000458,480.291565 482.247772,484.000549 469.838959,484.000549 
	C320.506561,484.000793 171.174133,484.000854 21.841732,484.000427 
	C9.835895,484.000397 5.999589,480.176086 5.999549,468.206390 
	C5.999038,318.707306 5.999003,169.208237 5.999620,19.709160 
	C5.999670,7.809736 9.863605,3.999487 21.926199,3.999456 
	C170.758804,3.999074 319.591400,3.999201 468.908569,3.999197 
M150.800491,365.151276 
	C152.737564,412.962219 204.976425,441.218933 245.713943,416.410492 
	C248.442993,414.748535 250.385254,415.096741 252.939758,416.585785 
	C262.287079,422.034485 272.307770,425.029694 283.271790,425.191711 
	C322.932190,425.777802 353.803802,388.951508 345.709961,350.189240 
	C344.860168,346.119507 345.948669,344.056671 348.734009,341.319336 
	C367.370728,323.003601 373.838837,300.941040 365.590912,276.042114 
	C357.253296,250.872406 339.018555,236.457520 312.585815,233.026917 
	C309.270294,232.596588 307.661926,231.445969 306.438904,228.482422 
	C301.875885,217.425720 294.572296,208.374863 284.662994,201.779190 
	C250.815887,179.250488 207.520462,191.926498 190.995850,229.102676 
	C189.810577,231.769257 188.285904,232.663773 185.462494,233.023224 
	C161.659439,236.053635 144.066971,248.191788 134.323105,270.203491 
	C123.024460,295.727417 129.270157,323.285431 149.838516,342.235321 
	C152.128281,344.344910 153.067856,346.109009 152.306549,349.456268 
	C151.210770,354.274261 151.198654,359.338684 150.800491,365.151276 
M79.242126,67.629578 
	C73.641144,90.622910 68.040161,113.616241 62.417618,136.698074 
	C68.437294,136.698074 73.854942,136.698074 79.427063,136.698074 
	C85.798470,110.103081 92.212936,83.791000 98.298203,57.402992 
	C99.159477,53.668175 98.417343,49.563599 98.417343,45.478580 
	C97.581970,45.350304 96.950890,45.169365 96.319626,45.168728 
	C79.493683,45.151711 62.667656,45.133152 45.841915,45.192417 
	C44.588444,45.196831 43.197239,45.531715 42.109066,46.140308 
	C37.621284,48.650234 33.179871,51.252171 28.828337,53.990215 
	C27.734070,54.678738 26.379324,55.937153 26.277830,57.038162 
	C25.951956,60.573341 26.156631,64.157433 26.156631,68.201401 
	C30.835421,66.492867 34.813286,65.040283 39.606667,63.289906 
	C39.606667,88.386574 39.606667,112.594131 39.606667,136.627136 
	C45.793457,136.627136 51.361221,136.627136 57.216003,136.627136 
	C57.216003,110.464371 57.216003,84.684395 57.216003,58.831158 
	C65.283386,58.831158 73.037270,58.831158 81.321266,58.831158 
	C80.659248,61.749264 80.082039,64.293533 79.242126,67.629578 
M275.219360,123.494278 
	C275.219360,128.083298 275.219360,132.672333 275.219360,137.659973 
	C277.134552,137.468582 278.510742,137.331070 280.521729,137.130096 
	C280.521729,131.068512 280.521729,125.412010 280.521729,119.755508 
	C282.674927,124.495316 283.610077,129.320343 284.862061,134.061722 
	C285.204529,135.358704 286.497650,136.404663 287.354523,137.565811 
	C288.250793,136.414185 289.630737,135.384888 289.958374,134.089432 
	C291.272156,128.895477 292.259644,123.619003 293.367767,118.373039 
	C293.804993,118.412270 294.242188,118.451500 294.679382,118.490738 
	C294.679382,124.733864 294.679382,130.976990 294.679382,137.220108 
	C295.175598,137.531601 295.671783,137.843079 296.167999,138.154556 
	C297.331757,137.155640 299.483612,136.179352 299.507080,135.154343 
	C299.753387,124.393188 299.659241,113.624252 299.659241,102.663414 
	C296.559326,102.663414 294.636200,102.663414 292.465576,102.663414 
	C290.843628,110.114182 289.261627,117.381531 287.366119,126.088936 
	C285.825439,118.916862 284.158844,113.156593 283.451965,107.280876 
	C282.802795,101.884712 280.083008,101.740997 275.253387,103.063560 
	C275.253387,109.560501 275.253387,116.029060 275.219360,123.494278 
M370.855194,74.371536 
	C370.855194,64.632042 370.855194,54.892548 370.855194,45.132805 
	C367.674622,45.132805 365.876007,45.132805 363.780334,45.132805 
	C362.130920,52.618156 360.497955,60.028702 358.550476,68.866608 
	C356.670837,59.901020 355.117218,52.490509 353.596466,45.236679 
	C351.146332,45.236679 349.223053,45.236679 346.815979,45.236679 
	C346.815979,56.908588 346.815979,68.328423 346.815979,80.124153 
	C348.221222,80.054993 349.609894,79.986649 351.608124,79.888313 
	C351.608124,73.450386 351.608124,67.402000 351.608124,61.353611 
	C353.792633,66.416000 354.767273,71.585434 356.058777,76.674446 
	C356.388306,77.972946 357.721893,79.016609 358.594177,80.177345 
	C359.478821,79.070686 360.837158,78.087929 361.164703,76.835556 
	C362.461609,71.877396 363.435760,66.834824 364.529572,61.823551 
	C364.992920,61.870621 365.456268,61.917686 365.919617,61.964756 
	C365.919617,67.983307 365.919617,74.001854 365.919617,80.206146 
	C367.911011,80.101723 369.191772,80.034569 370.872986,79.946411 
	C370.872986,78.258423 370.872986,76.797234 370.855194,74.371536 
M189.819412,135.057297 
	C191.033035,136.055069 192.246658,137.052856 193.460297,138.050629 
	C193.945862,137.672180 194.431442,137.293716 194.917023,136.915268 
	C194.917023,130.488754 194.917023,124.062225 194.917023,117.635704 
	C197.025986,123.088158 198.028198,128.612930 199.351959,134.059540 
	C199.668411,135.361542 201.056610,136.403046 201.951859,137.564377 
	C202.876572,136.439102 204.330399,135.440414 204.635147,134.166794 
	C206.013000,128.408707 207.065903,122.572868 208.235855,116.765038 
	C209.228989,122.442574 209.334839,128.037506 209.191757,133.626053 
	C209.096466,137.348053 210.458786,138.465042 213.504837,137.177750 
	C213.504837,125.475899 213.504837,114.087875 213.504837,102.564209 
	C211.082916,102.564209 209.281601,102.564209 207.157928,102.564209 
	C205.571625,109.594673 204.001541,116.553268 202.431458,123.511871 
	C202.082413,123.474258 201.733368,123.436653 201.384323,123.399048 
	C199.903397,116.492638 198.422455,109.586227 196.969223,102.808990 
	C194.555801,102.808990 192.487183,102.808990 189.823227,102.808990 
	C189.823227,113.520493 189.823227,123.833023 189.819412,135.057297 
M147.985291,125.253975 
	C147.958511,120.764885 148.064636,116.269814 147.863297,111.788567 
	C147.699371,108.139801 146.625397,104.421593 142.661453,103.562836 
	C138.115433,102.577980 133.356033,102.578094 128.812500,102.161606 
	C128.812500,114.638199 128.812500,126.005402 128.812500,137.320969 
	C143.512512,138.494064 147.196945,136.293610 147.985291,125.253975 
M233.336411,46.900375 
	C233.336411,57.835964 233.336411,68.771553 233.336411,79.964081 
	C235.662949,79.964081 237.582199,79.964081 240.224854,79.964081 
	C240.224854,74.637863 240.224854,69.509590 240.224854,64.381317 
	C240.907272,64.231415 241.589691,64.081520 242.272110,63.931625 
	C243.922287,69.321617 245.572464,74.711609 247.274292,80.270302 
	C249.298248,80.172150 251.166916,80.081535 252.914642,79.996788 
	C252.997864,79.215050 253.064163,79.041664 253.024734,78.897110 
	C252.020935,75.217133 251.127716,71.500740 249.952637,67.875809 
	C249.092545,65.222588 248.920609,63.277020 251.084915,60.765526 
	C254.736252,56.528431 253.364853,47.643509 248.742905,46.477066 
	C243.906738,45.256554 238.559586,46.060745 233.336411,46.900375 
M339.875916,129.395157 
	C339.875916,120.487488 339.875916,111.579819 339.875916,102.257301 
	C337.519928,102.484886 335.978760,102.633766 334.062744,102.818848 
	C334.062744,108.689728 334.062744,114.030106 334.062744,119.370483 
	C331.275238,114.836243 329.105011,110.232140 327.275757,105.496330 
	C326.139740,102.555305 324.585815,101.537170 321.654175,102.996552 
	C321.654175,114.471809 321.654175,125.851860 321.654175,137.622742 
	C323.594543,137.522247 325.163208,137.440994 327.188965,137.336075 
	C327.188965,131.116714 327.188965,125.310196 327.188965,119.503677 
	C330.042603,124.424583 332.174652,129.417389 334.104004,134.487350 
	C335.195221,137.354904 336.730896,138.508850 339.875763,136.810883 
	C339.875763,134.643021 339.875763,132.497849 339.875916,129.395157 
M173.439178,80.201469 
	C176.169403,80.587143 176.836288,79.207878 176.745743,76.726501 
	C176.596451,72.635841 176.705215,68.535767 176.705215,64.439667 
	C177.143280,64.264038 177.581360,64.088409 178.019424,63.912781 
	C178.705627,64.730698 179.710587,65.444183 180.019073,66.385826 
	C180.998672,69.376068 182.054260,72.407249 182.461319,75.504005 
	C183.095062,80.325043 185.688065,81.054344 190.031921,79.699394 
	C188.947891,75.705704 188.031784,71.703796 186.749863,67.822716 
	C185.856812,65.118958 186.512497,63.288517 187.725540,60.660774 
	C189.212173,57.440338 189.474472,52.754105 188.222168,49.484470 
	C187.378036,47.280575 183.137009,45.841576 180.160873,45.138420 
	C177.069809,44.408108 173.672073,44.975704 170.099014,44.975704 
	C170.099014,47.060780 170.098877,48.531296 170.099045,50.001816 
	C170.100098,59.144814 170.031281,68.289162 170.208023,77.428772 
	C170.226151,78.366013 171.713852,79.274841 173.439178,80.201469 
M429.991058,136.805893 
	C438.046204,139.445068 444.170288,137.656601 444.895050,131.383102 
	C445.780029,123.722900 445.544464,115.837151 444.873383,108.129051 
	C444.466705,103.457260 440.193024,102.082657 435.861694,102.016701 
	C431.327545,101.947662 426.764526,103.350769 426.314392,108.139992 
	C425.574127,116.015800 426.023926,124.025146 426.362610,131.961517 
	C426.426758,133.464218 428.307159,134.889404 429.991058,136.805893 
M404.335083,49.153465 
	C404.003632,57.061829 403.155182,64.993896 403.516266,72.870506 
	C403.771637,78.440903 407.941589,81.048187 413.661835,80.804405 
	C419.393890,80.560120 422.667664,77.699738 423.035583,71.904366 
	C423.382446,66.440407 423.244263,60.941929 423.216644,55.459152 
	C423.195648,51.289902 422.445160,47.153351 417.936218,45.678097 
	C413.213806,44.132988 408.390503,43.909424 404.335083,49.153465 
M381.850983,120.484268 
	C379.031677,131.880081 387.434265,137.732132 394.912994,144.714783 
	C392.223969,145.426773 390.601440,145.856384 388.399231,146.439484 
	C391.151489,150.069031 394.425079,148.966675 396.286316,147.227676 
	C401.705994,142.163849 394.120392,141.492966 392.656494,138.711639 
	C400.707794,134.936264 401.826385,132.987503 400.711761,124.693283 
	C398.995911,124.693283 397.245544,124.693283 395.251495,124.693283 
	C395.156189,126.560547 395.421967,128.316895 394.885101,129.778397 
	C394.413727,131.061584 393.088989,132.835220 392.056885,132.893295 
	C390.914459,132.957565 388.678711,131.360611 388.639099,130.415009 
	C388.347198,123.450409 388.349152,116.461823 388.653168,109.498001 
	C388.693237,108.581001 390.920776,107.211105 392.226685,107.096870 
	C393.052307,107.024635 394.449341,108.751869 394.864960,109.928215 
	C395.379883,111.385536 395.144501,113.107964 395.235962,114.765335 
	C397.360779,114.765335 399.115753,114.765335 400.846619,114.765335 
	C401.597687,105.822502 399.123596,102.249062 392.210693,102.010529 
	C385.190826,101.768311 382.002228,105.301468 381.863190,113.505363 
	C381.829315,115.504272 381.853577,117.504150 381.850983,120.484268 
M366.382629,102.788818 
	C363.933868,114.218056 361.485077,125.647293 358.965271,137.408142 
	C361.455597,137.408142 363.077637,137.408142 364.819336,137.408142 
	C366.609894,134.134232 364.758667,126.830765 372.582397,130.298752 
	C373.115601,132.613297 373.662750,134.988251 374.263519,137.596069 
	C376.281647,137.507339 377.990570,137.432220 380.010162,137.343445 
	C377.593262,125.377487 375.298645,114.016945 372.972717,102.501305 
	C370.760406,102.501305 368.946655,102.501305 366.382629,102.788818 
M407.486725,114.878799 
	C406.025482,122.290596 404.564240,129.702393 403.075623,137.252930 
	C405.397247,137.252930 407.127747,137.252930 408.247192,137.252930 
	C411.071442,134.906525 407.802979,129.593536 413.471405,129.551529 
	C419.440613,129.507309 415.669800,135.389343 418.597107,137.203812 
	C420.119019,137.203812 421.834839,137.203812 423.867554,137.203812 
	C421.489929,125.413872 419.199280,114.055344 416.902252,102.665085 
	C414.442139,102.665085 412.342346,102.665085 409.970367,102.665085 
	C409.194885,106.590195 408.456909,110.325554 407.486725,114.878799 
M235.521545,104.994812 
	C230.371994,101.002029 224.523041,102.769249 218.599396,102.472801 
	C218.599396,114.336769 218.599396,125.701088 218.599396,137.283554 
	C220.777008,137.283554 222.663879,137.283554 225.035080,137.283554 
	C225.035080,132.069611 225.035080,127.166618 225.035080,122.333336 
	C227.646271,122.065147 229.870590,122.178108 231.873840,121.566742 
	C237.813660,119.753975 239.365479,113.441307 235.521545,104.994812 
M134.957581,70.526993 
	C134.957581,68.627907 134.957581,66.728821 134.957581,64.900223 
	C136.191544,64.738068 136.681076,64.640236 137.174393,64.613914 
	C144.837158,64.205109 148.101746,61.129192 147.847641,54.544949 
	C147.576584,47.521534 144.694977,45.028961 136.752792,44.971497 
	C134.128723,44.952507 131.504395,44.968506 128.754150,44.968506 
	C128.754150,56.939449 128.754150,68.461342 128.754150,79.842300 
	C131.026688,79.842300 132.917847,79.842300 134.957581,79.842300 
	C134.957581,76.796661 134.957581,74.136871 134.957581,70.526993 
M434.255035,65.354477 
	C435.543152,67.050713 437.402283,68.588844 437.930237,70.495567 
	C438.319855,71.902733 436.972870,73.790764 436.399597,75.464546 
	C435.033081,74.507111 433.437164,73.747925 432.379303,72.523773 
	C431.653198,71.683495 431.674774,70.197113 431.278900,68.680748 
	C429.364563,69.281120 427.836365,69.760391 426.188263,70.277260 
	C426.656952,74.491043 427.361511,78.271278 431.572235,79.908081 
	C435.817810,81.558449 439.841095,81.069176 442.923981,77.428078 
	C445.628845,74.233482 445.501068,68.715973 442.364410,64.908142 
	C440.053528,62.102818 436.890381,59.997730 434.593201,57.183727 
	C433.397858,55.719429 433.070007,53.422913 432.781128,51.439575 
	C432.717804,51.004433 435.147034,49.662682 435.303925,49.825047 
	C436.558868,51.123741 437.537476,52.688103 438.616364,54.159634 
	C438.801147,54.411610 439.060852,54.608662 439.599274,55.140705 
	C440.887604,54.829636 442.406555,54.462887 444.132080,54.046257 
	C443.508850,49.634392 442.440948,45.934639 437.856445,45.101860 
	C434.005310,44.402287 429.997375,44.470772 427.631226,48.409325 
	C425.217438,52.427139 425.796600,56.450687 428.688385,60.008560 
	C430.147461,61.803749 432.020630,63.262409 434.255035,65.354477 
M296.189636,56.852097 
	C294.513275,54.552334 293.113007,51.705894 296.358795,50.275284 
	C297.522369,49.762417 300.166748,52.609154 302.135284,53.922554 
	C301.962799,54.352673 301.790283,54.782791 301.617798,55.212910 
	C303.112671,54.811729 304.607544,54.410549 306.112427,54.006683 
	C305.699219,49.157143 304.229675,45.658001 299.342377,45.006371 
	C295.360168,44.475410 291.441193,44.882046 289.459900,48.987915 
	C287.582245,52.878994 288.019958,56.858200 290.991394,60.136646 
	C293.661102,63.082180 296.890228,65.551178 299.338867,68.651886 
	C300.347443,69.929016 300.136932,72.313408 300.085541,74.183311 
	C300.072357,74.662704 298.045807,75.670822 297.815552,75.464340 
	C296.441437,74.232216 295.242645,72.772926 294.158325,71.265228 
	C293.738739,70.681786 293.772552,69.772293 293.530853,68.707497 
	C291.701355,69.247787 290.156738,69.703949 288.494568,70.194817 
	C288.813873,74.606102 289.562836,78.441010 294.105713,80.021545 
	C298.437775,81.528732 302.387939,80.889084 305.296112,77.110397 
	C307.884399,73.747375 307.539368,68.415176 304.309174,64.616684 
	C302.063812,61.976238 299.297943,59.778435 296.189636,56.852097 
M160.011749,72.351212 
	C160.657578,74.870911 161.303391,77.390602 161.924728,79.814835 
	C163.922195,79.814835 165.647919,79.814835 167.608932,79.814835 
	C165.265259,68.048744 163.002243,56.687561 160.710754,45.183369 
	C158.336868,45.183369 156.218552,45.183369 153.744919,45.183369 
	C151.468018,56.705208 149.199631,68.184082 146.873566,79.954750 
	C149.118317,79.954750 150.867661,79.954750 152.697250,79.954750 
	C153.313843,77.228615 153.885056,74.703094 154.482864,72.059975 
	C156.219376,72.059975 157.703049,72.059975 160.011749,72.351212 
M199.201660,59.640999 
	C199.301254,57.158585 199.042191,54.583569 199.649246,52.232166 
	C199.960526,51.026394 201.827652,49.450958 202.976440,49.463234 
	C203.997482,49.474144 205.391663,51.291553 205.901306,52.593403 
	C206.463730,54.030098 206.206390,55.787720 206.320633,57.641201 
	C207.369431,57.725975 208.166626,57.849297 208.962204,57.839520 
	C209.915054,57.827820 210.866516,57.702480 211.753799,57.631535 
	C212.817764,49.272007 210.531540,45.471199 204.338654,44.931198 
	C196.599442,44.256359 193.085175,47.500725 192.921814,55.642021 
	C192.825134,60.460133 192.881821,65.282265 192.928146,70.102020 
	C192.968597,74.312492 193.826218,78.699341 198.375610,79.664383 
	C201.790512,80.388771 206.258408,80.197830 209.117554,78.497490 
	C212.934036,76.227837 212.702621,71.541359 211.685684,67.105881 
	C209.701019,67.207062 207.977982,67.294907 206.227356,67.384155 
	C206.159988,68.774300 206.354156,69.707085 206.034790,70.404831 
	C205.177200,72.278549 204.338120,75.378487 203.063766,75.607224 
	C199.720139,76.207352 199.339859,73.120445 199.249039,70.565201 
	C199.130997,67.244873 199.208633,63.917603 199.201660,59.640999 
M267.071411,74.508698 
	C266.792145,76.247070 266.512878,77.985451 266.198639,79.941620 
	C268.289246,79.941620 270.046814,79.941620 271.860046,79.941620 
	C272.498657,77.195000 273.086639,74.666191 273.644257,72.267792 
	C275.773438,72.267792 277.547272,72.267792 279.403320,72.267792 
	C279.995331,75.001915 280.542450,77.528763 281.022308,79.744949 
	C283.241180,79.744949 284.934937,79.744949 286.785309,79.744949 
	C284.422363,67.927437 282.150269,56.564281 279.875000,45.185379 
	C277.382202,45.185379 275.263641,45.185379 273.005157,45.185379 
	C271.051392,54.789005 269.131012,64.228584 267.071411,74.508698 
M257.616089,106.014763 
	C257.616089,116.422386 257.616089,126.830009 257.616089,137.146957 
	C270.722900,138.663101 272.687042,138.109192 271.723114,133.081467 
	C269.357269,133.081467 266.924377,133.081467 264.263092,133.081467 
	C264.263092,129.161224 264.263092,125.571625 264.263092,121.999229 
	C270.561218,121.208633 270.561218,121.208633 270.151306,116.986115 
	C268.279297,116.986115 266.363098,116.986115 264.268066,116.986115 
	C264.268066,113.511909 264.268066,110.445549 264.268066,106.874542 
	C267.049713,106.874542 269.597809,106.874542 272.145874,106.874542 
	C272.424011,106.313103 272.702118,105.751663 272.980255,105.190231 
	C271.695007,104.263741 270.499695,102.748398 269.105438,102.535408 
	C266.345856,102.113861 263.442017,102.159386 260.669189,102.536598 
	C259.555847,102.688065 258.630493,104.221741 257.616089,106.014763 
M158.045166,111.523560 
	C158.125870,110.086975 158.206573,108.650398 158.303635,106.922523 
	C161.102234,106.922523 163.541992,106.922523 166.429337,106.922523 
	C166.265305,105.216217 166.135681,103.867912 166.020172,102.666367 
	C161.054749,102.666367 156.619537,102.666367 151.937958,102.666367 
	C151.937958,114.305191 151.937958,125.687447 151.937958,137.587769 
	C155.946564,137.587769 159.724594,137.562973 163.502121,137.594742 
	C167.303543,137.626709 167.042374,135.748413 165.832840,133.272659 
	C163.170624,133.141281 160.749481,133.021790 158.361328,132.903931 
	C158.361328,128.952469 158.361328,125.399651 158.361328,121.881645 
	C164.882843,121.329353 164.882843,121.329353 164.016144,117.133453 
	C162.120377,117.007141 160.202759,116.879379 158.045609,116.735649 
	C158.045609,115.071976 158.045609,113.761864 158.045166,111.523560 
M328.888458,59.771954 
	C321.924530,57.961426 327.747925,53.034126 325.475464,49.916954 
	C333.998169,49.241646 333.998169,49.241646 333.483215,45.379990 
	C328.747620,45.379990 324.037659,45.379990 319.498962,45.379990 
	C319.498962,57.167610 319.498962,68.543770 319.498962,80.041550 
	C324.456207,80.041550 329.062134,80.041550 333.845764,80.041550 
	C333.845764,78.595222 333.845764,77.333992 333.845764,75.718773 
	C331.169373,75.718773 328.717865,75.718773 326.079376,75.718773 
	C326.079376,71.791283 326.079376,68.219887 326.079376,64.477272 
	C328.145935,64.313828 329.926910,64.172974 333.401001,63.898212 
	C331.727173,61.986950 330.760712,60.883427 328.888458,59.771954 
M303.879974,132.330017 
	C303.879974,133.936630 303.879974,135.543243 303.879974,137.064911 
	C316.174316,138.792480 318.832703,138.089645 318.109009,133.274902 
	C315.573853,133.158859 312.979370,133.040100 310.459717,132.924759 
	C310.459717,129.053909 310.459717,125.620842 310.459717,121.950470 
	C312.620575,121.712357 314.556122,121.499077 316.693756,121.263519 
	C316.693756,119.863434 316.693756,118.625229 316.693756,117.239983 
	C314.441284,117.019211 312.385437,116.817719 310.393372,116.622475 
	C310.393372,113.304199 310.393372,110.352928 310.393372,107.262070 
	C313.178711,107.095886 315.781891,106.940559 318.385071,106.785240 
	C318.667694,106.393852 318.950287,106.002457 319.232880,105.611061 
	C318.181763,104.543961 317.209808,102.668777 316.065155,102.556656 
	C312.152374,102.173363 308.178925,102.409767 303.879608,102.409767 
	C303.879608,112.442581 303.879608,121.906212 303.879974,132.330017 
M385.173248,49.554527 
	C386.640747,49.480507 388.108246,49.406490 389.612061,49.330643 
	C389.612061,47.774345 389.612061,46.539639 389.612061,45.373924 
	C384.606171,45.373924 379.886627,45.373924 375.387665,45.373924 
	C375.387665,57.173637 375.387665,68.586357 375.387665,80.177551 
	C379.395508,80.177551 383.059967,80.057640 386.712860,80.211540 
	C390.307983,80.363014 390.564667,78.743118 389.398865,75.967880 
	C386.820343,75.846001 384.374329,75.730392 381.859741,75.611542 
	C381.859741,71.665733 381.859741,68.114471 381.859741,64.331886 
	C383.996277,64.225426 385.776794,64.136711 387.755615,64.038109 
	C387.755615,62.584183 387.755615,61.363689 387.755615,60.102974 
	C385.597656,59.867252 383.697205,59.659657 381.478455,59.417294 
	C381.478455,56.904781 381.167938,54.691620 381.599792,52.634281 
	C381.842621,51.477413 383.311279,50.577858 385.173248,49.554527 
M222.141891,71.355034 
	C222.141891,69.088173 222.141891,66.821304 222.141891,64.418472 
	C224.701126,64.224693 226.623856,64.079117 228.544861,63.933662 
	C230.130707,57.205585 223.773224,61.424179 222.537384,59.205387 
	C222.537384,55.944164 222.537384,52.898834 222.537384,49.909828 
	C230.604385,49.122284 230.604385,49.122284 230.010056,45.245514 
	C225.428955,45.245514 220.844269,45.245514 216.290161,45.245514 
	C216.290161,57.021095 216.290161,68.535919 216.290161,80.023849 
	C230.668289,80.655334 230.668289,80.655334 230.167862,75.818306 
	C228.592941,75.818306 226.945648,75.679214 225.330811,75.848946 
	C222.482574,76.148308 221.874786,74.643745 222.141891,71.355034 
M347.628571,125.463112 
	C347.628571,129.394150 347.628571,133.325180 347.628571,137.318695 
	C350.063232,137.318695 351.828552,137.318695 354.155640,137.318695 
	C354.155640,127.221054 354.155640,117.359375 354.155640,107.451591 
	C356.168945,107.265991 357.625580,107.131714 361.018585,106.818932 
	C358.976807,104.706116 357.947540,102.680092 356.765961,102.586990 
	C351.995178,102.211037 347.177429,102.431091 342.283752,102.431091 
	C342.283752,104.240738 342.283752,105.642151 342.283752,106.931847 
	C344.163483,107.225029 345.734406,107.470032 347.628204,107.765404 
	C347.628204,113.547798 347.628204,119.011635 347.628571,125.463112 
M246.876831,131.253204 
	C246.876831,121.816139 246.876831,112.379074 246.876831,102.664429 
	C244.445633,102.664429 242.553482,102.664429 240.444626,102.664429 
	C240.444626,114.342766 240.444626,125.718086 240.444626,137.639359 
	C244.338745,137.639359 247.970901,137.474945 251.581314,137.684784 
	C255.322937,137.902237 255.880493,136.318253 254.813248,133.568344 
	C252.008911,133.075974 249.491333,132.633942 246.876831,131.253204 
M179.005081,104.079796 
	C179.005081,115.134048 179.005081,126.188301 179.005081,137.273392 
	C181.365250,137.273392 183.111923,137.273392 185.029099,137.273392 
	C185.029099,125.622299 185.029099,114.248604 185.029099,102.206627 
	C182.839828,102.584282 180.996262,102.902306 179.005081,104.079796 
M259.566803,45.002327 
	C258.709259,45.663715 257.113892,46.314602 257.104309,46.988056 
	C256.948730,57.924004 256.994202,68.862816 256.994202,79.940796 
	C259.220398,79.940796 260.965179,79.940796 263.189240,79.940796 
	C263.189240,68.958092 263.247314,58.187447 263.073822,47.420528 
	C263.060608,46.600929 261.406403,45.807770 259.566803,45.002327 
M399.105194,69.481194 
	C399.105194,61.398674 399.105194,53.316158 399.105194,45.266045 
	C396.741089,45.266045 394.996216,45.266045 393.142578,45.266045 
	C393.142578,56.924622 393.142578,68.318871 393.142578,79.783859 
	C395.230133,79.783859 397.070831,79.783859 399.104858,79.783859 
	C399.104858,76.429436 399.104858,73.450600 399.105194,69.481194 
M407.811310,93.274704 
	C407.554962,94.639961 407.298645,96.005219 407.208069,96.487602 
	C410.384033,96.828529 412.700989,97.161804 415.029327,97.292686 
	C416.255066,97.361595 418.064911,97.529694 418.610352,96.849998 
	C419.518860,95.717850 419.622925,93.940140 419.778534,93.410965 
	C416.532471,92.913696 414.116394,92.439453 411.677399,92.218147 
	C410.613068,92.121582 409.501678,92.543205 407.811310,93.274704 
z"/>
<path fill="#FBFCFD" opacity="1.000000" stroke="none" 
	d="
M150.762268,364.724609 
	C151.198654,359.338684 151.210770,354.274261 152.306549,349.456268 
	C153.067856,346.109009 152.128281,344.344910 149.838516,342.235321 
	C129.270157,323.285431 123.024460,295.727417 134.323105,270.203491 
	C144.066971,248.191788 161.659439,236.053635 185.462494,233.023224 
	C188.285904,232.663773 189.810577,231.769257 190.995850,229.102676 
	C207.520462,191.926498 250.815887,179.250488 284.662994,201.779190 
	C294.572296,208.374863 301.875885,217.425720 306.438904,228.482422 
	C307.661926,231.445969 309.270294,232.596588 312.585815,233.026917 
	C339.018555,236.457520 357.253296,250.872406 365.590912,276.042114 
	C373.838837,300.941040 367.370728,323.003601 348.734009,341.319336 
	C345.948669,344.056671 344.860168,346.119507 345.709961,350.189240 
	C353.803802,388.951508 322.932190,425.777802 283.271790,425.191711 
	C272.307770,425.029694 262.287079,422.034485 252.939758,416.585785 
	C250.385254,415.096741 248.442993,414.748535 245.713943,416.410492 
	C204.976425,441.218933 152.737564,412.962219 150.762268,364.724609 
M213.960739,217.449478 
	C210.088898,222.506409 206.217056,227.563339 201.850006,233.267044 
	C223.790222,237.889557 238.838867,249.542114 248.849762,268.543335 
	C258.871643,249.423111 273.956085,237.968826 294.277802,233.545593 
	C284.483002,205.999237 243.298889,190.517014 213.960739,217.449478 
M164.624344,373.671600 
	C169.075760,392.165924 180.300858,404.510956 198.376770,410.418304 
	C212.349762,414.984833 225.675003,413.381561 238.733719,405.867462 
	C224.120560,390.067535 219.169205,371.834229 221.873703,350.959381 
	C202.649704,360.611359 183.676361,360.823425 163.333481,351.990051 
	C163.721024,359.711182 164.051041,366.286224 164.624344,373.671600 
M155.990860,330.642731 
	C158.808563,333.872375 159.423615,330.534637 160.405426,329.043671 
	C169.244934,315.620026 181.129715,306.305939 196.718506,301.968170 
	C199.646729,301.153351 202.632462,300.545135 206.076263,299.726379 
	C190.615875,284.763794 184.491211,266.822052 186.166260,245.618866 
	C166.756714,248.667526 152.727280,258.436646 145.651169,276.108887 
	C137.789062,295.744049 140.454773,314.253082 155.990860,330.642731 
M303.947083,284.379120 
	C300.175140,289.513489 296.403229,294.647888 292.646759,299.761200 
	C313.247894,303.413574 329.133514,313.932068 339.552368,332.265869 
	C356.215637,317.996735 360.830566,292.843536 350.759857,272.786652 
	C343.067810,257.467102 323.134277,244.148560 311.643829,246.676361 
	C312.573120,259.692261 310.768372,272.174316 303.947083,284.379120 
M293.670349,411.440155 
	C322.911713,406.322144 339.246124,375.913391 332.836029,352.615692 
	C313.739929,361.146576 294.793396,360.139496 277.158081,351.519501 
	C276.142456,361.189545 276.428009,371.252838 273.740631,380.447174 
	C271.075745,389.564545 265.415894,397.806488 260.915283,406.738556 
	C270.356262,411.879272 281.330261,413.265289 293.670349,411.440155 
M274.555420,312.894928 
	C270.046021,314.296112 265.536591,315.697327 260.938263,317.126129 
	C273.647644,345.698181 310.806335,352.276947 328.761169,339.406769 
	C318.518982,319.625671 296.477081,308.619141 274.555420,312.894928 
M262.266083,350.376190 
	C259.968658,341.321167 255.678955,333.423920 248.888016,326.938751 
	C228.932632,343.611786 229.113586,381.473389 249.417114,397.979279 
	C261.683258,384.537445 266.443604,369.106964 262.266083,350.376190 
M195.387878,315.806732 
	C183.437057,320.465851 174.709167,328.570557 168.868988,339.970398 
	C190.955734,352.746765 225.724304,343.344818 236.131485,317.848389 
	C223.093719,311.462463 209.802444,310.475555 195.387878,315.806732 
M219.794449,294.779175 
	C226.337067,299.069641 233.238754,302.359924 241.210632,302.859375 
	C246.513260,272.348755 222.206299,247.598557 199.101257,246.313019 
	C196.904175,266.089233 203.401352,282.142670 219.794449,294.779175 
M288.097931,284.566650 
	C296.986603,273.291779 300.186127,260.502869 298.630920,246.341431 
	C278.750854,246.919418 251.127670,269.017365 256.456757,302.985870 
	C269.157379,300.984955 279.431946,294.853516 288.097931,284.566650 
z"/>
<path fill="#F9FAFB" opacity="1.000000" stroke="none" 
	d="
M79.373482,67.233688 
	C80.082039,64.293533 80.659248,61.749264 81.321266,58.831158 
	C73.037270,58.831158 65.283386,58.831158 57.216003,58.831158 
	C57.216003,84.684395 57.216003,110.464371 57.216003,136.627136 
	C51.361221,136.627136 45.793457,136.627136 39.606667,136.627136 
	C39.606667,112.594131 39.606667,88.386574 39.606667,63.289906 
	C34.813286,65.040283 30.835421,66.492867 26.156631,68.201401 
	C26.156631,64.157433 25.951956,60.573341 26.277830,57.038162 
	C26.379324,55.937153 27.734070,54.678738 28.828337,53.990215 
	C33.179871,51.252171 37.621284,48.650234 42.109066,46.140308 
	C43.197239,45.531715 44.588444,45.196831 45.841915,45.192417 
	C62.667656,45.133152 79.493683,45.151711 96.319626,45.168728 
	C96.950890,45.169365 97.581970,45.350304 98.417343,45.478580 
	C98.417343,49.563599 99.159477,53.668175 98.298203,57.402992 
	C92.212936,83.791000 85.798470,110.103081 79.427063,136.698074 
	C73.854942,136.698074 68.437294,136.698074 62.417618,136.698074 
	C68.040161,113.616241 73.641144,90.622910 79.373482,67.233688 
z"/>
<path fill="#F1F4F6" opacity="1.000000" stroke="none" 
	d="
M275.236389,122.995941 
	C275.253387,116.029060 275.253387,109.560501 275.253387,103.063560 
	C280.083008,101.740997 282.802795,101.884712 283.451965,107.280876 
	C284.158844,113.156593 285.825439,118.916862 287.366119,126.088936 
	C289.261627,117.381531 290.843628,110.114182 292.465576,102.663414 
	C294.636200,102.663414 296.559326,102.663414 299.659241,102.663414 
	C299.659241,113.624252 299.753387,124.393188 299.507080,135.154343 
	C299.483612,136.179352 297.331757,137.155640 296.167999,138.154556 
	C295.671783,137.843079 295.175598,137.531601 294.679382,137.220108 
	C294.679382,130.976990 294.679382,124.733864 294.679382,118.490738 
	C294.242188,118.451500 293.804993,118.412270 293.367767,118.373039 
	C292.259644,123.619003 291.272156,128.895477 289.958374,134.089432 
	C289.630737,135.384888 288.250793,136.414185 287.354523,137.565811 
	C286.497650,136.404663 285.204529,135.358704 284.862061,134.061722 
	C283.610077,129.320343 282.674927,124.495316 280.521729,119.755508 
	C280.521729,125.412010 280.521729,131.068512 280.521729,137.130096 
	C278.510742,137.331070 277.134552,137.468582 275.219360,137.659973 
	C275.219360,132.672333 275.219360,128.083298 275.236389,122.995941 
z"/>
<path fill="#F5F7F8" opacity="1.000000" stroke="none" 
	d="
M370.864075,74.853790 
	C370.872986,76.797234 370.872986,78.258423 370.872986,79.946411 
	C369.191772,80.034569 367.911011,80.101723 365.919617,80.206146 
	C365.919617,74.001854 365.919617,67.983307 365.919617,61.964756 
	C365.456268,61.917686 364.992920,61.870621 364.529572,61.823551 
	C363.435760,66.834824 362.461609,71.877396 361.164703,76.835556 
	C360.837158,78.087929 359.478821,79.070686 358.594177,80.177353 
	C357.721893,79.016609 356.388306,77.972946 356.058777,76.674446 
	C354.767273,71.585434 353.792633,66.416000 351.608124,61.353611 
	C351.608124,67.402000 351.608124,73.450386 351.608124,79.888313 
	C349.609894,79.986649 348.221222,80.054993 346.815979,80.124153 
	C346.815979,68.328423 346.815979,56.908588 346.815979,45.236679 
	C349.223053,45.236679 351.146332,45.236679 353.596466,45.236679 
	C355.117218,52.490509 356.670837,59.901020 358.550476,68.866608 
	C360.497955,60.028702 362.130920,52.618156 363.780334,45.132805 
	C365.876007,45.132805 367.674622,45.132805 370.855194,45.132805 
	C370.855194,54.892548 370.855194,64.632042 370.864075,74.853790 
z"/>
<path fill="#F0F3F5" opacity="1.000000" stroke="none" 
	d="
M189.821320,134.601425 
	C189.823227,123.833023 189.823227,113.520493 189.823227,102.808990 
	C192.487183,102.808990 194.555801,102.808990 196.969223,102.808990 
	C198.422455,109.586227 199.903397,116.492638 201.384323,123.399048 
	C201.733368,123.436653 202.082413,123.474258 202.431458,123.511871 
	C204.001541,116.553268 205.571625,109.594673 207.157928,102.564209 
	C209.281601,102.564209 211.082916,102.564209 213.504837,102.564209 
	C213.504837,114.087875 213.504837,125.475899 213.504837,137.177750 
	C210.458786,138.465042 209.096466,137.348053 209.191757,133.626053 
	C209.334839,128.037506 209.228989,122.442574 208.235855,116.765038 
	C207.065903,122.572868 206.013000,128.408707 204.635147,134.166794 
	C204.330399,135.440414 202.876572,136.439102 201.951859,137.564377 
	C201.056610,136.403046 199.668411,135.361542 199.351959,134.059540 
	C198.028198,128.612930 197.025986,123.088158 194.917023,117.635704 
	C194.917023,124.062225 194.917023,130.488754 194.917023,136.915268 
	C194.431442,137.293716 193.945862,137.672180 193.460297,138.050629 
	C192.246658,137.052856 191.033035,136.055069 189.821320,134.601425 
z"/>
<path fill="#EDF0F3" opacity="1.000000" stroke="none" 
	d="
M147.980148,125.716385 
	C147.196945,136.293610 143.512512,138.494064 128.812500,137.320969 
	C128.812500,126.005402 128.812500,114.638199 128.812500,102.161606 
	C133.356033,102.578094 138.115433,102.577980 142.661453,103.562836 
	C146.625397,104.421593 147.699371,108.139801 147.863297,111.788567 
	C148.064636,116.269814 147.958511,120.764885 147.980148,125.716385 
M141.262878,114.692177 
	C141.057663,107.189018 140.980164,107.092239 135.167191,107.348755 
	C135.167191,115.779877 135.167191,124.220764 135.167191,132.711060 
	C139.358124,133.398865 141.270172,131.709991 141.232727,127.633919 
	C141.196014,123.637794 141.249756,119.640831 141.262878,114.692177 
z"/>
<path fill="#F1F4F6" opacity="1.000000" stroke="none" 
	d="
M233.386108,46.440151 
	C238.559586,46.060745 243.906738,45.256554 248.742905,46.477066 
	C253.364853,47.643509 254.736252,56.528431 251.084915,60.765526 
	C248.920609,63.277020 249.092545,65.222588 249.952637,67.875809 
	C251.127716,71.500740 252.020935,75.217133 253.024734,78.897110 
	C253.064163,79.041664 252.997864,79.215050 252.914642,79.996788 
	C251.166916,80.081535 249.298248,80.172150 247.274292,80.270302 
	C245.572464,74.711609 243.922287,69.321617 242.272110,63.931625 
	C241.589691,64.081520 240.907272,64.231415 240.224854,64.381317 
	C240.224854,69.509590 240.224854,74.637863 240.224854,79.964081 
	C237.582199,79.964081 235.662949,79.964081 233.336411,79.964081 
	C233.336411,68.771553 233.336411,57.835964 233.386108,46.440151 
M245.910767,58.410393 
	C248.118210,51.775711 246.551407,49.391678 240.120438,49.975243 
	C240.120438,53.188229 240.120438,56.423553 240.120438,60.299801 
	C242.054764,59.830769 243.701035,59.431583 245.910767,58.410393 
z"/>
<path fill="#E9EEF1" opacity="1.000000" stroke="none" 
	d="
M339.875854,129.873901 
	C339.875763,132.497849 339.875763,134.643021 339.875763,136.810883 
	C336.730896,138.508850 335.195221,137.354904 334.104004,134.487350 
	C332.174652,129.417389 330.042603,124.424583 327.188965,119.503677 
	C327.188965,125.310196 327.188965,131.116714 327.188965,137.336075 
	C325.163208,137.440994 323.594543,137.522247 321.654175,137.622742 
	C321.654175,125.851860 321.654175,114.471809 321.654175,102.996552 
	C324.585815,101.537170 326.139740,102.555305 327.275757,105.496330 
	C329.105011,110.232140 331.275238,114.836243 334.062744,119.370483 
	C334.062744,114.030106 334.062744,108.689728 334.062744,102.818848 
	C335.978760,102.633766 337.519928,102.484886 339.875916,102.257301 
	C339.875916,111.579819 339.875916,120.487488 339.875854,129.873901 
z"/>
<path fill="#F1F4F6" opacity="1.000000" stroke="none" 
	d="
M172.979401,80.199158 
	C171.713852,79.274841 170.226151,78.366013 170.208023,77.428772 
	C170.031281,68.289162 170.100098,59.144814 170.099045,50.001816 
	C170.098877,48.531296 170.099014,47.060780 170.099014,44.975704 
	C173.672073,44.975704 177.069809,44.408108 180.160873,45.138420 
	C183.137009,45.841576 187.378036,47.280575 188.222168,49.484470 
	C189.474472,52.754105 189.212173,57.440338 187.725540,60.660774 
	C186.512497,63.288517 185.856812,65.118958 186.749863,67.822716 
	C188.031784,71.703796 188.947891,75.705704 190.031921,79.699394 
	C185.688065,81.054344 183.095062,80.325043 182.461319,75.504005 
	C182.054260,72.407249 180.998672,69.376068 180.019073,66.385826 
	C179.710587,65.444183 178.705627,64.730698 178.019424,63.912781 
	C177.581360,64.088409 177.143280,64.264038 176.705215,64.439667 
	C176.705215,68.535767 176.596451,72.635841 176.745743,76.726501 
	C176.836288,79.207878 176.169403,80.587143 172.979401,80.199158 
M183.086044,57.663658 
	C184.390869,50.930321 182.752823,48.937489 177.003662,50.204224 
	C177.003662,53.440041 177.003662,56.653557 177.003662,60.728790 
	C179.305237,59.789204 181.022461,59.088173 183.086044,57.663658 
z"/>
<path fill="#F6F8F9" opacity="1.000000" stroke="none" 
	d="
M429.670288,136.578125 
	C428.307159,134.889404 426.426758,133.464218 426.362610,131.961517 
	C426.023926,124.025146 425.574127,116.015800 426.314392,108.139992 
	C426.764526,103.350769 431.327545,101.947662 435.861694,102.016701 
	C440.193024,102.082657 444.466705,103.457260 444.873383,108.129051 
	C445.544464,115.837151 445.780029,123.722900 444.895050,131.383102 
	C444.170288,137.656601 438.046204,139.445068 429.670288,136.578125 
M439.163818,127.222359 
	C439.161407,122.069710 439.182465,116.916893 439.146271,111.764488 
	C439.129242,109.344383 438.882874,106.427109 435.679718,107.107956 
	C434.196655,107.423203 432.337463,110.073883 432.189240,111.798203 
	C431.735352,117.077873 432.016022,122.421745 432.035095,127.740562 
	C432.044403,130.335526 432.148468,133.041824 435.688202,133.072952 
	C438.981140,133.101944 439.100342,130.569382 439.163818,127.222359 
z"/>
<path fill="#F6F8F9" opacity="1.000000" stroke="none" 
	d="
M404.573914,48.832748 
	C408.390503,43.909424 413.213806,44.132988 417.936218,45.678097 
	C422.445160,47.153351 423.195648,51.289902 423.216644,55.459152 
	C423.244263,60.941929 423.382446,66.440407 423.035583,71.904366 
	C422.667664,77.699738 419.393890,80.560120 413.661835,80.804405 
	C407.941589,81.048187 403.771637,78.440903 403.516266,72.870506 
	C403.155182,64.993896 404.003632,57.061829 404.573914,48.832748 
M416.417816,51.598320 
	C414.972290,50.887993 413.411652,49.481133 412.118805,49.694794 
	C411.140991,49.856388 409.885132,52.059380 409.824554,53.402199 
	C409.563873,59.182957 409.444519,64.998993 409.839966,70.763336 
	C409.963165,72.558868 411.638336,75.460571 413.004333,75.716835 
	C416.293182,76.333839 416.851471,73.387222 416.850769,70.755188 
	C416.849060,64.635025 416.749634,58.514889 416.417816,51.598320 
z"/>
<path fill="#F6F8F9" opacity="1.000000" stroke="none" 
	d="
M381.851044,119.993927 
	C381.853577,117.504150 381.829315,115.504272 381.863190,113.505363 
	C382.002228,105.301468 385.190826,101.768311 392.210693,102.010529 
	C399.123596,102.249062 401.597687,105.822502 400.846619,114.765335 
	C399.115753,114.765335 397.360779,114.765335 395.235962,114.765335 
	C395.144501,113.107964 395.379883,111.385536 394.864960,109.928215 
	C394.449341,108.751869 393.052307,107.024635 392.226685,107.096870 
	C390.920776,107.211105 388.693237,108.581001 388.653168,109.498001 
	C388.349152,116.461823 388.347198,123.450409 388.639099,130.415009 
	C388.678711,131.360611 390.914459,132.957565 392.056885,132.893295 
	C393.088989,132.835220 394.413727,131.061584 394.885101,129.778397 
	C395.421967,128.316895 395.156189,126.560547 395.251495,124.693283 
	C397.245544,124.693283 398.995911,124.693283 400.711761,124.693283 
	C401.826385,132.987503 400.707794,134.936264 392.656494,138.711639 
	C394.120392,141.492966 401.705994,142.163849 396.286316,147.227676 
	C394.425079,148.966675 391.151489,150.069031 388.399231,146.439484 
	C390.601440,145.856384 392.223969,145.426773 394.912994,144.714783 
	C387.434265,137.732132 379.031677,131.880081 381.851044,119.993927 
z"/>
<path fill="#F1F4F6" opacity="1.000000" stroke="none" 
	d="
M366.757751,102.645065 
	C368.946655,102.501305 370.760406,102.501305 372.972717,102.501305 
	C375.298645,114.016945 377.593262,125.377487 380.010162,137.343445 
	C377.990570,137.432220 376.281647,137.507339 374.263519,137.596069 
	C373.662750,134.988251 373.115601,132.613297 372.582397,130.298752 
	C364.758667,126.830765 366.609894,134.134232 364.819336,137.408142 
	C363.077637,137.408142 361.455597,137.408142 358.965271,137.408142 
	C361.485077,125.647293 363.933868,114.218056 366.757751,102.645065 
M371.782379,123.545708 
	C371.154907,120.218376 370.527405,116.891045 369.899933,113.563705 
	C369.638031,113.601410 369.376129,113.639107 369.114258,113.676811 
	C368.530548,117.338394 367.946838,120.999977 367.244415,125.406250 
	C369.172485,124.968346 370.486572,124.669891 371.782379,123.545708 
z"/>
<path fill="#F1F4F6" opacity="1.000000" stroke="none" 
	d="
M407.602814,114.469849 
	C408.456909,110.325554 409.194885,106.590195 409.970367,102.665085 
	C412.342346,102.665085 414.442139,102.665085 416.902252,102.665085 
	C419.199280,114.055344 421.489929,125.413872 423.867554,137.203812 
	C421.834839,137.203812 420.119019,137.203812 418.597107,137.203812 
	C415.669800,135.389343 419.440613,129.507309 413.471405,129.551529 
	C407.802979,129.593536 411.071442,134.906525 408.247192,137.252930 
	C407.127747,137.252930 405.397247,137.252930 403.075623,137.252930 
	C404.564240,129.702393 406.025482,122.290596 407.602814,114.469849 
M411.934875,120.291046 
	C411.716492,121.716156 411.498108,123.141258 411.242615,124.808548 
	C412.878113,124.808548 414.236694,124.808548 415.795868,124.808548 
	C415.110321,120.739975 414.486450,117.037636 413.752838,112.683846 
	C413.268768,113.769409 413.001587,114.168907 412.912048,114.604881 
	C412.580170,116.220818 412.306824,117.848785 411.934875,120.291046 
z"/>
<path fill="#EDF0F3" opacity="1.000000" stroke="none" 
	d="
M235.754822,105.305435 
	C239.365479,113.441307 237.813660,119.753975 231.873840,121.566742 
	C229.870590,122.178108 227.646271,122.065147 225.035080,122.333336 
	C225.035080,127.166618 225.035080,132.069611 225.035080,137.283554 
	C222.663879,137.283554 220.777008,137.283554 218.599396,137.283554 
	C218.599396,125.701088 218.599396,114.336769 218.599396,102.472801 
	C224.523041,102.769249 230.371994,101.002029 235.754822,105.305435 
M231.662323,113.305565 
	C231.229324,107.039101 230.765320,106.634094 225.329529,107.625763 
	C225.329529,110.837204 225.329529,114.010368 225.329529,117.183533 
	C225.732056,117.513069 226.134583,117.842598 226.537109,118.172134 
	C228.189758,116.816078 229.842407,115.460022 231.662323,113.305565 
z"/>
<path fill="#F0F3F5" opacity="1.000000" stroke="none" 
	d="
M134.957581,71.002037 
	C134.957581,74.136871 134.957581,76.796661 134.957581,79.842300 
	C132.917847,79.842300 131.026688,79.842300 128.754150,79.842300 
	C128.754150,68.461342 128.754150,56.939449 128.754150,44.968506 
	C131.504395,44.968506 134.128723,44.952507 136.752792,44.971497 
	C144.694977,45.028961 147.576584,47.521534 147.847641,54.544949 
	C148.101746,61.129192 144.837158,64.205109 137.174393,64.613914 
	C136.681076,64.640236 136.191544,64.738068 134.957581,64.900223 
	C134.957581,66.728821 134.957581,68.627907 134.957581,71.002037 
M134.933441,51.641914 
	C134.933441,54.382126 134.933441,57.122337 134.933441,61.437485 
	C137.824707,59.726395 140.573792,59.039036 141.110718,57.552608 
	C141.842468,55.526829 141.298859,52.715561 140.404953,50.624619 
	C140.135559,49.994488 136.883057,50.639679 134.933441,51.641914 
z"/>
<path fill="#F1F4F6" opacity="1.000000" stroke="none" 
	d="
M433.980774,65.113861 
	C432.020630,63.262409 430.147461,61.803749 428.688385,60.008560 
	C425.796600,56.450687 425.217438,52.427139 427.631226,48.409325 
	C429.997375,44.470772 434.005310,44.402287 437.856445,45.101860 
	C442.440948,45.934639 443.508850,49.634392 444.132080,54.046257 
	C442.406555,54.462887 440.887604,54.829636 439.599274,55.140705 
	C439.060852,54.608662 438.801147,54.411610 438.616364,54.159634 
	C437.537476,52.688103 436.558868,51.123741 435.303925,49.825047 
	C435.147034,49.662682 432.717804,51.004433 432.781128,51.439575 
	C433.070007,53.422913 433.397858,55.719429 434.593201,57.183727 
	C436.890381,59.997730 440.053528,62.102818 442.364410,64.908142 
	C445.501068,68.715973 445.628845,74.233482 442.923981,77.428078 
	C439.841095,81.069176 435.817810,81.558449 431.572235,79.908081 
	C427.361511,78.271278 426.656952,74.491043 426.188263,70.277260 
	C427.836365,69.760391 429.364563,69.281120 431.278900,68.680748 
	C431.674774,70.197113 431.653198,71.683495 432.379303,72.523773 
	C433.437164,73.747925 435.033081,74.507111 436.399597,75.464546 
	C436.972870,73.790764 438.319855,71.902733 437.930237,70.495567 
	C437.402283,68.588844 435.543152,67.050713 433.980774,65.113861 
z"/>
<path fill="#F5F7F8" opacity="1.000000" stroke="none" 
	d="
M296.477112,57.117493 
	C299.297943,59.778435 302.063812,61.976238 304.309174,64.616684 
	C307.539368,68.415176 307.884399,73.747375 305.296112,77.110397 
	C302.387939,80.889084 298.437775,81.528732 294.105713,80.021545 
	C289.562836,78.441010 288.813873,74.606102 288.494568,70.194817 
	C290.156738,69.703949 291.701355,69.247787 293.530853,68.707497 
	C293.772552,69.772293 293.738739,70.681786 294.158325,71.265228 
	C295.242645,72.772926 296.441437,74.232216 297.815552,75.464340 
	C298.045807,75.670822 300.072357,74.662704 300.085541,74.183311 
	C300.136932,72.313408 300.347443,69.929016 299.338867,68.651886 
	C296.890228,65.551178 293.661102,63.082180 290.991394,60.136646 
	C288.019958,56.858200 287.582245,52.878994 289.459900,48.987915 
	C291.441193,44.882046 295.360168,44.475410 299.342377,45.006371 
	C304.229675,45.658001 305.699219,49.157143 306.112427,54.006683 
	C304.607544,54.410549 303.112671,54.811729 301.617798,55.212910 
	C301.790283,54.782791 301.962799,54.352673 302.135284,53.922554 
	C300.166748,52.609154 297.522369,49.762417 296.358795,50.275284 
	C293.113007,51.705894 294.513275,54.552334 296.477112,57.117493 
z"/>
<path fill="#F6F8F9" opacity="1.000000" stroke="none" 
	d="
M159.599228,72.205597 
	C157.703049,72.059975 156.219376,72.059975 154.482864,72.059975 
	C153.885056,74.703094 153.313843,77.228615 152.697250,79.954750 
	C150.867661,79.954750 149.118317,79.954750 146.873566,79.954750 
	C149.199631,68.184082 151.468018,56.705208 153.744919,45.183369 
	C156.218552,45.183369 158.336868,45.183369 160.710754,45.183369 
	C163.002243,56.687561 165.265259,68.048744 167.608932,79.814835 
	C165.647919,79.814835 163.922195,79.814835 161.924728,79.814835 
	C161.303391,77.390602 160.657578,74.870911 159.599228,72.205597 
M156.597748,57.524212 
	C156.054810,60.889824 155.511871,64.255432 154.907776,68.000130 
	C156.722397,67.879379 157.971237,67.796280 159.951248,67.664520 
	C158.864532,63.766098 157.895142,60.288509 156.597748,57.524212 
z"/>
<path fill="#F7F9FA" opacity="1.000000" stroke="none" 
	d="
M199.201843,60.117157 
	C199.208633,63.917603 199.130997,67.244873 199.249039,70.565201 
	C199.339859,73.120445 199.720139,76.207352 203.063766,75.607224 
	C204.338120,75.378487 205.177200,72.278549 206.034790,70.404831 
	C206.354156,69.707085 206.159988,68.774300 206.227356,67.384155 
	C207.977982,67.294907 209.701019,67.207062 211.685684,67.105881 
	C212.702621,71.541359 212.934036,76.227837 209.117554,78.497490 
	C206.258408,80.197830 201.790512,80.388771 198.375610,79.664383 
	C193.826218,78.699341 192.968597,74.312492 192.928146,70.102020 
	C192.881821,65.282265 192.825134,60.460133 192.921814,55.642021 
	C193.085175,47.500725 196.599442,44.256359 204.338654,44.931198 
	C210.531540,45.471199 212.817764,49.272007 211.753799,57.631535 
	C210.866516,57.702480 209.915054,57.827820 208.962204,57.839520 
	C208.166626,57.849297 207.369431,57.725975 206.320633,57.641201 
	C206.206390,55.787720 206.463730,54.030098 205.901306,52.593403 
	C205.391663,51.291553 203.997482,49.474144 202.976440,49.463234 
	C201.827652,49.450958 199.960526,51.026394 199.649246,52.232166 
	C199.042191,54.583569 199.301254,57.158585 199.201843,60.117157 
z"/>
<path fill="#F7F9FA" opacity="1.000000" stroke="none" 
	d="
M267.141052,74.088425 
	C269.131012,64.228584 271.051392,54.789005 273.005157,45.185379 
	C275.263641,45.185379 277.382202,45.185379 279.875000,45.185379 
	C282.150269,56.564281 284.422363,67.927437 286.785309,79.744949 
	C284.934937,79.744949 283.241180,79.744949 281.022308,79.744949 
	C280.542450,77.528763 279.995331,75.001915 279.403320,72.267792 
	C277.547272,72.267792 275.773438,72.267792 273.644257,72.267792 
	C273.086639,74.666191 272.498657,77.195000 271.860046,79.941620 
	C270.046814,79.941620 268.289246,79.941620 266.198639,79.941620 
	C266.512878,77.985451 266.792145,76.247070 267.141052,74.088425 
M277.131561,57.697681 
	C276.974823,57.238289 276.818085,56.778900 276.265106,55.158237 
	C275.425049,60.013512 274.774170,63.775249 274.046692,67.979851 
	C275.940857,67.881371 277.328766,67.809212 278.841766,67.730553 
	C278.266449,64.367714 277.763214,61.426281 277.131561,57.697681 
z"/>
<path fill="#F1F4F6" opacity="1.000000" stroke="none" 
	d="
M257.617859,105.570534 
	C258.630493,104.221741 259.555847,102.688065 260.669189,102.536598 
	C263.442017,102.159386 266.345856,102.113861 269.105438,102.535408 
	C270.499695,102.748398 271.695007,104.263741 272.980255,105.190231 
	C272.702118,105.751663 272.424011,106.313103 272.145874,106.874542 
	C269.597809,106.874542 267.049713,106.874542 264.268066,106.874542 
	C264.268066,110.445549 264.268066,113.511909 264.268066,116.986115 
	C266.363098,116.986115 268.279297,116.986115 270.151306,116.986115 
	C270.561218,121.208633 270.561218,121.208633 264.263092,121.999229 
	C264.263092,125.571625 264.263092,129.161224 264.263092,133.081467 
	C266.924377,133.081467 269.357269,133.081467 271.723114,133.081467 
	C272.687042,138.109192 270.722900,138.663101 257.616089,137.146957 
	C257.616089,126.830009 257.616089,116.422386 257.617859,105.570534 
z"/>
<path fill="#F1F4F6" opacity="1.000000" stroke="none" 
	d="
M158.045380,111.987656 
	C158.045609,113.761864 158.045609,115.071976 158.045609,116.735649 
	C160.202759,116.879379 162.120377,117.007141 164.016144,117.133453 
	C164.882843,121.329353 164.882843,121.329353 158.361328,121.881645 
	C158.361328,125.399651 158.361328,128.952469 158.361328,132.903931 
	C160.749481,133.021790 163.170624,133.141281 165.832840,133.272659 
	C167.042374,135.748413 167.303543,137.626709 163.502121,137.594742 
	C159.724594,137.562973 155.946564,137.587769 151.937958,137.587769 
	C151.937958,125.687447 151.937958,114.305191 151.937958,102.666367 
	C156.619537,102.666367 161.054749,102.666367 166.020172,102.666367 
	C166.135681,103.867912 166.265305,105.216217 166.429337,106.922523 
	C163.541992,106.922523 161.102234,106.922523 158.303635,106.922523 
	C158.206573,108.650398 158.125870,110.086975 158.045380,111.987656 
z"/>
<path fill="#F1F4F6" opacity="1.000000" stroke="none" 
	d="
M329.341370,59.775928 
	C330.760712,60.883427 331.727173,61.986950 333.401001,63.898212 
	C329.926910,64.172974 328.145935,64.313828 326.079376,64.477272 
	C326.079376,68.219887 326.079376,71.791283 326.079376,75.718773 
	C328.717865,75.718773 331.169373,75.718773 333.845764,75.718773 
	C333.845764,77.333992 333.845764,78.595222 333.845764,80.041550 
	C329.062134,80.041550 324.456207,80.041550 319.498962,80.041550 
	C319.498962,68.543770 319.498962,57.167610 319.498962,45.379990 
	C324.037659,45.379990 328.747620,45.379990 333.483215,45.379990 
	C333.998169,49.241646 333.998169,49.241646 325.475464,49.916954 
	C327.747925,53.034126 321.924530,57.961426 329.341370,59.775928 
z"/>
<path fill="#F0F3F5" opacity="1.000000" stroke="none" 
	d="
M303.879791,131.849930 
	C303.879608,121.906212 303.879608,112.442581 303.879608,102.409767 
	C308.178925,102.409767 312.152374,102.173363 316.065155,102.556656 
	C317.209808,102.668777 318.181763,104.543961 319.232880,105.611061 
	C318.950287,106.002457 318.667694,106.393852 318.385071,106.785240 
	C315.781891,106.940559 313.178711,107.095886 310.393372,107.262070 
	C310.393372,110.352928 310.393372,113.304199 310.393372,116.622475 
	C312.385437,116.817719 314.441284,117.019211 316.693756,117.239983 
	C316.693756,118.625229 316.693756,119.863434 316.693756,121.263519 
	C314.556122,121.499077 312.620575,121.712357 310.459717,121.950470 
	C310.459717,125.620842 310.459717,129.053909 310.459717,132.924759 
	C312.979370,133.040100 315.573853,133.158859 318.109009,133.274902 
	C318.832703,138.089645 316.174316,138.792480 303.879974,137.064911 
	C303.879974,135.543243 303.879974,133.936630 303.879791,131.849930 
z"/>
<path fill="#F9FAFB" opacity="1.000000" stroke="none" 
	d="
M384.700500,49.558456 
	C383.311279,50.577858 381.842621,51.477413 381.599792,52.634281 
	C381.167938,54.691620 381.478455,56.904781 381.478455,59.417294 
	C383.697205,59.659657 385.597656,59.867252 387.755615,60.102974 
	C387.755615,61.363689 387.755615,62.584183 387.755615,64.038109 
	C385.776794,64.136711 383.996277,64.225426 381.859741,64.331886 
	C381.859741,68.114471 381.859741,71.665733 381.859741,75.611542 
	C384.374329,75.730392 386.820343,75.846001 389.398865,75.967880 
	C390.564667,78.743118 390.307983,80.363014 386.712860,80.211540 
	C383.059967,80.057640 379.395508,80.177551 375.387665,80.177551 
	C375.387665,68.586357 375.387665,57.173637 375.387665,45.373924 
	C379.886627,45.373924 384.606171,45.373924 389.612061,45.373924 
	C389.612061,46.539639 389.612061,47.774345 389.612061,49.330643 
	C388.108246,49.406490 386.640747,49.480507 384.700500,49.558456 
z"/>
<path fill="#F9FAFB" opacity="1.000000" stroke="none" 
	d="
M222.142014,71.811386 
	C221.874786,74.643745 222.482574,76.148308 225.330811,75.848946 
	C226.945648,75.679214 228.592941,75.818306 230.167862,75.818306 
	C230.668289,80.655334 230.668289,80.655334 216.290161,80.023849 
	C216.290161,68.535919 216.290161,57.021095 216.290161,45.245514 
	C220.844269,45.245514 225.428955,45.245514 230.010056,45.245514 
	C230.604385,49.122284 230.604385,49.122284 222.537384,49.909828 
	C222.537384,52.898834 222.537384,55.944164 222.537384,59.205387 
	C223.773224,61.424179 230.130707,57.205585 228.544861,63.933662 
	C226.623856,64.079117 224.701126,64.224693 222.141891,64.418472 
	C222.141891,66.821304 222.141891,69.088173 222.142014,71.811386 
z"/>
<path fill="#F5F7F8" opacity="1.000000" stroke="none" 
	d="
M347.628387,124.969299 
	C347.628204,119.011635 347.628204,113.547798 347.628204,107.765404 
	C345.734406,107.470032 344.163483,107.225029 342.283752,106.931847 
	C342.283752,105.642151 342.283752,104.240738 342.283752,102.431091 
	C347.177429,102.431091 351.995178,102.211037 356.765961,102.586990 
	C357.947540,102.680092 358.976807,104.706116 361.018585,106.818932 
	C357.625580,107.131714 356.168945,107.265991 354.155640,107.451591 
	C354.155640,117.359375 354.155640,127.221054 354.155640,137.318695 
	C351.828552,137.318695 350.063232,137.318695 347.628571,137.318695 
	C347.628571,133.325180 347.628571,129.394150 347.628387,124.969299 
z"/>
<path fill="#E6EBEF" opacity="1.000000" stroke="none" 
	d="
M246.925293,131.722565 
	C249.491333,132.633942 252.008911,133.075974 254.813248,133.568344 
	C255.880493,136.318253 255.322937,137.902237 251.581314,137.684784 
	C247.970901,137.474945 244.338745,137.639359 240.444626,137.639359 
	C240.444626,125.718086 240.444626,114.342766 240.444626,102.664429 
	C242.553482,102.664429 244.445633,102.664429 246.876831,102.664429 
	C246.876831,112.379074 246.876831,121.816139 246.925293,131.722565 
z"/>
<path fill="#F9FAFB" opacity="1.000000" stroke="none" 
	d="
M179.078888,103.650055 
	C180.996262,102.902306 182.839828,102.584282 185.029099,102.206627 
	C185.029099,114.248604 185.029099,125.622299 185.029099,137.273392 
	C183.111923,137.273392 181.365250,137.273392 179.005081,137.273392 
	C179.005081,126.188301 179.005081,115.134048 179.078888,103.650055 
z"/>
<path fill="#FFFFFF" opacity="1.000000" stroke="none" 
	d="
M260.040894,45.002323 
	C261.406403,45.807770 263.060608,46.600929 263.073822,47.420528 
	C263.247314,58.187447 263.189240,68.958092 263.189240,79.940796 
	C260.965179,79.940796 259.220398,79.940796 256.994202,79.940796 
	C256.994202,68.862816 256.948730,57.924004 257.104309,46.988056 
	C257.113892,46.314602 258.709259,45.663715 260.040894,45.002323 
z"/>
<path fill="#FFFFFF" opacity="1.000000" stroke="none" 
	d="
M399.105042,69.976486 
	C399.104858,73.450600 399.104858,76.429436 399.104858,79.783859 
	C397.070831,79.783859 395.230133,79.783859 393.142578,79.783859 
	C393.142578,68.318871 393.142578,56.924622 393.142578,45.266045 
	C394.996216,45.266045 396.741089,45.266045 399.105194,45.266045 
	C399.105194,53.316158 399.105194,61.398674 399.105042,69.976486 
z"/>
<path fill="#E9EEF1" opacity="1.000000" stroke="none" 
	d="
M408.111511,93.002106 
	C409.501678,92.543205 410.613068,92.121582 411.677399,92.218147 
	C414.116394,92.439453 416.532471,92.913696 419.778534,93.410965 
	C419.622925,93.940140 419.518860,95.717850 418.610352,96.849998 
	C418.064911,97.529694 416.255066,97.361595 415.029327,97.292686 
	C412.700989,97.161804 410.384033,96.828529 407.208069,96.487602 
	C407.298645,96.005219 407.554962,94.639961 408.111511,93.002106 
z"/>
<path fill="#1B4A6B" opacity="1.000000" stroke="none" 
	d="
M214.211456,217.198914 
	C243.298889,190.517014 284.483002,205.999237 294.277802,233.545593 
	C273.956085,237.968826 258.871643,249.423111 248.849762,268.543335 
	C238.838867,249.542114 223.790222,237.889557 201.850006,233.267044 
	C206.217056,227.563339 210.088898,222.506409 214.211456,217.198914 
z"/>
<path fill="#1B4A6C" opacity="1.000000" stroke="none" 
	d="
M164.502701,373.266449 
	C164.051041,366.286224 163.721024,359.711182 163.333481,351.990051 
	C183.676361,360.823425 202.649704,360.611359 221.873703,350.959381 
	C219.169205,371.834229 224.120560,390.067535 238.733719,405.867462 
	C225.675003,413.381561 212.349762,414.984833 198.376770,410.418304 
	C180.300858,404.510956 169.075760,392.165924 164.502701,373.266449 
z"/>
<path fill="#1B496B" opacity="1.000000" stroke="none" 
	d="
M155.737503,330.378326 
	C140.454773,314.253082 137.789062,295.744049 145.651169,276.108887 
	C152.727280,258.436646 166.756714,248.667526 186.166260,245.618866 
	C184.491211,266.822052 190.615875,284.763794 206.076263,299.726379 
	C202.632462,300.545135 199.646729,301.153351 196.718506,301.968170 
	C181.129715,306.305939 169.244934,315.620026 160.405426,329.043671 
	C159.423615,330.534637 158.808563,333.872375 155.737503,330.378326 
z"/>
<path fill="#1B4A6B" opacity="1.000000" stroke="none" 
	d="
M304.112305,284.050110 
	C310.768372,272.174316 312.573120,259.692261 311.643829,246.676361 
	C323.134277,244.148560 343.067810,257.467102 350.759857,272.786652 
	C360.830566,292.843536 356.215637,317.996735 339.552368,332.265869 
	C329.133514,313.932068 313.247894,303.413574 292.646759,299.761200 
	C296.403229,294.647888 300.175140,289.513489 304.112305,284.050110 
z"/>
<path fill="#1B4A6C" opacity="1.000000" stroke="none" 
	d="
M293.245544,411.564575 
	C281.330261,413.265289 270.356262,411.879272 260.915283,406.738556 
	C265.415894,397.806488 271.075745,389.564545 273.740631,380.447174 
	C276.428009,371.252838 276.142456,361.189545 277.158081,351.519501 
	C294.793396,360.139496 313.739929,361.146576 332.836029,352.615692 
	C339.246124,375.913391 322.911713,406.322144 293.245544,411.564575 
z"/>
<path fill="#1C4A6C" opacity="1.000000" stroke="none" 
	d="
M274.986084,312.832153 
	C296.477081,308.619141 318.518982,319.625671 328.761169,339.406769 
	C310.806335,352.276947 273.647644,345.698181 260.938263,317.126129 
	C265.536591,315.697327 270.046021,314.296112 274.986084,312.832153 
z"/>
<path fill="#1C4A6C" opacity="1.000000" stroke="none" 
	d="
M262.402893,350.771362 
	C266.443604,369.106964 261.683258,384.537445 249.417114,397.979279 
	C229.113586,381.473389 228.932632,343.611786 248.888016,326.938751 
	C255.678955,333.423920 259.968658,341.321167 262.402893,350.771362 
z"/>
<path fill="#1C4A6C" opacity="1.000000" stroke="none" 
	d="
M195.748077,315.648071 
	C209.802444,310.475555 223.093719,311.462463 236.131485,317.848389 
	C225.724304,343.344818 190.955734,352.746765 168.868988,339.970398 
	C174.709167,328.570557 183.437057,320.465851 195.748077,315.648071 
z"/>
<path fill="#1B4A6C" opacity="1.000000" stroke="none" 
	d="
M219.506714,294.562134 
	C203.401352,282.142670 196.904175,266.089233 199.101257,246.313019 
	C222.206299,247.598557 246.513260,272.348755 241.210632,302.859375 
	C233.238754,302.359924 226.337067,299.069641 219.506714,294.562134 
z"/>
<path fill="#1B4A6C" opacity="1.000000" stroke="none" 
	d="
M287.908142,284.869568 
	C279.431946,294.853516 269.157379,300.984955 256.456757,302.985870 
	C251.127670,269.017365 278.750854,246.919418 298.630920,246.341431 
	C300.186127,260.502869 296.986603,273.291779 287.908142,284.869568 
z"/>
<path fill="#1C4A6C" opacity="1.000000" stroke="none" 
	d="
M141.263336,115.168213 
	C141.249756,119.640831 141.196014,123.637794 141.232727,127.633919 
	C141.270172,131.709991 139.358124,133.398865 135.167191,132.711060 
	C135.167191,124.220764 135.167191,115.779877 135.167191,107.348755 
	C140.980164,107.092239 141.057663,107.189018 141.263336,115.168213 
z"/>
<path fill="#285474" opacity="1.000000" stroke="none" 
	d="
M245.629028,58.721397 
	C243.701035,59.431583 242.054764,59.830769 240.120438,60.299801 
	C240.120438,56.423553 240.120438,53.188229 240.120438,49.975243 
	C246.551407,49.391678 248.118210,51.775711 245.629028,58.721397 
z"/>
<path fill="#285474" opacity="1.000000" stroke="none" 
	d="
M182.912872,58.025398 
	C181.022461,59.088173 179.305237,59.789204 177.003662,60.728790 
	C177.003662,56.653557 177.003662,53.440041 177.003662,50.204224 
	C182.752823,48.937489 184.390869,50.930321 182.912872,58.025398 
z"/>
<path fill="#1C4A6C" opacity="1.000000" stroke="none" 
	d="
M439.160767,127.683945 
	C439.100342,130.569382 438.981140,133.101944 435.688202,133.072952 
	C432.148468,133.041824 432.044403,130.335526 432.035095,127.740562 
	C432.016022,122.421745 431.735352,117.077873 432.189240,111.798203 
	C432.337463,110.073883 434.196655,107.423203 435.679718,107.107956 
	C438.882874,106.427109 439.129242,109.344383 439.146271,111.764488 
	C439.182465,116.916893 439.161407,122.069710 439.160767,127.683945 
z"/>
<path fill="#1C4A6C" opacity="1.000000" stroke="none" 
	d="
M416.553802,51.996532 
	C416.749634,58.514889 416.849060,64.635025 416.850769,70.755188 
	C416.851471,73.387222 416.293182,76.333839 413.004333,75.716835 
	C411.638336,75.460571 409.963165,72.558868 409.839966,70.763336 
	C409.444519,64.998993 409.563873,59.182957 409.824554,53.402199 
	C409.885132,52.059380 411.140991,49.856388 412.118805,49.694794 
	C413.411652,49.481133 414.972290,50.887993 416.553802,51.996532 
z"/>
<path fill="#285474" opacity="1.000000" stroke="none" 
	d="
M371.791504,123.958572 
	C370.486572,124.669891 369.172485,124.968346 367.244415,125.406250 
	C367.946838,120.999977 368.530548,117.338394 369.114258,113.676811 
	C369.376129,113.639107 369.638031,113.601410 369.899933,113.563705 
	C370.527405,116.891045 371.154907,120.218376 371.791504,123.958572 
z"/>
<path fill="#285474" opacity="1.000000" stroke="none" 
	d="
M411.973206,119.881638 
	C412.306824,117.848785 412.580170,116.220818 412.912048,114.604881 
	C413.001587,114.168907 413.268768,113.769409 413.752838,112.683846 
	C414.486450,117.037636 415.110321,120.739975 415.795868,124.808548 
	C414.236694,124.808548 412.878113,124.808548 411.242615,124.808548 
	C411.498108,123.141258 411.716492,121.716156 411.973206,119.881638 
z"/>
<path fill="#1C4A6C" opacity="1.000000" stroke="none" 
	d="
M231.578705,113.704758 
	C229.842407,115.460022 228.189758,116.816078 226.537109,118.172134 
	C226.134583,117.842598 225.732056,117.513069 225.329529,117.183533 
	C225.329529,114.010368 225.329529,110.837204 225.329529,107.625763 
	C230.765320,106.634094 231.229324,107.039101 231.578705,113.704758 
z"/>
<path fill="#285474" opacity="1.000000" stroke="none" 
	d="
M134.965256,51.171288 
	C136.883057,50.639679 140.135559,49.994488 140.404953,50.624619 
	C141.298859,52.715561 141.842468,55.526829 141.110718,57.552608 
	C140.573792,59.039036 137.824707,59.726395 134.933441,61.437485 
	C134.933441,57.122337 134.933441,54.382126 134.965256,51.171288 
z"/>
<path fill="#285474" opacity="1.000000" stroke="none" 
	d="
M156.761749,57.167564 
	C157.895142,60.288509 158.864532,63.766098 159.951248,67.664520 
	C157.971237,67.796280 156.722397,67.879379 154.907776,68.000130 
	C155.511871,64.255432 156.054810,60.889824 156.761749,57.167564 
z"/>
<path fill="#285474" opacity="1.000000" stroke="none" 
	d="
M277.195770,58.091263 
	C277.763214,61.426281 278.266449,64.367714 278.841766,67.730553 
	C277.328766,67.809212 275.940857,67.881371 274.046692,67.979851 
	C274.774170,63.775249 275.425049,60.013512 276.265106,55.158237 
	C276.818085,56.778900 276.974823,57.238289 277.195770,58.091263 
z"/>
</svg>