<svg xmlns="http://www.w3.org/2000/svg" xmlns:xlink="http://www.w3.org/1999/xlink" width="1024" zoomAndPan="magnify" viewBox="0 0 768 767.999994" height="1024" preserveAspectRatio="xMidYMid meet" version="1.0"><rect x="-76.8" width="921.6" fill="#ffffff" y="-76.799999" height="921.599993" fill-opacity="1"/><rect x="-76.8" width="921.6" fill="#ffffff" y="-76.799999" height="921.599993" fill-opacity="1"/><rect x="-76.8" width="921.6" fill="#dea83a" y="-76.799999" height="921.599993" fill-opacity="1"/><path fill="#fefefe" d="M 175.710938 518.980469 C 177.824219 518.867188 179.945312 518.832031 182.0625 518.832031 L 186.265625 518.820312 L 190.941406 518.824219 L 195.863281 518.816406 C 200.394531 518.8125 204.925781 518.808594 209.457031 518.8125 C 214.332031 518.8125 219.210938 518.808594 224.085938 518.800781 C 233.652344 518.792969 243.214844 518.789062 252.777344 518.789062 C 260.546875 518.789062 268.316406 518.785156 276.085938 518.78125 C 298.09375 518.769531 320.097656 518.765625 342.097656 518.765625 L 349.300781 518.765625 C 368.578125 518.765625 387.855469 518.757812 407.128906 518.738281 C 426.898438 518.722656 446.667969 518.714844 466.433594 518.714844 C 477.542969 518.71875 488.652344 518.710938 499.761719 518.699219 C 509.21875 518.6875 518.675781 518.6875 528.132812 518.695312 C 532.960938 518.699219 537.789062 518.699219 542.617188 518.6875 C 547.035156 518.679688 551.449219 518.679688 555.863281 518.691406 C 557.464844 518.691406 559.070312 518.691406 560.671875 518.683594 C 562.839844 518.675781 565.007812 518.683594 567.175781 518.691406 L 570.832031 518.691406 L 573.671875 518.980469 L 576 521.308594 C 576.578125 528.65625 575.234375 534.867188 573.164062 541.890625 L 572.226562 545.089844 C 562.644531 576.589844 545.738281 603.933594 522.472656 627.199219 C 518.359375 630.910156 514.074219 634.316406 509.671875 637.671875 L 507.722656 639.179688 C 489.050781 653.582031 470.140625 663.628906 447.949219 671.671875 C 445.707031 672.394531 445.707031 672.394531 444.507812 673.746094 C 444.226562 676.976562 444.0625 680.207031 443.902344 683.445312 C 443.34375 686.546875 443.34375 686.546875 441.890625 688.457031 C 439.855469 690.035156 439.855469 690.035156 437.449219 690.472656 L 434.632812 690.472656 L 431.398438 690.496094 L 427.851562 690.46875 L 424.113281 690.480469 C 420.023438 690.492188 415.9375 690.476562 411.851562 690.457031 C 409.015625 690.457031 406.183594 690.460938 403.351562 690.460938 C 397.410156 690.460938 391.46875 690.449219 385.527344 690.425781 C 377.898438 690.402344 370.269531 690.402344 362.640625 690.410156 C 356.789062 690.414062 350.941406 690.402344 345.089844 690.394531 C 342.273438 690.390625 339.460938 690.386719 336.648438 690.390625 C 332.722656 690.386719 328.796875 690.375 324.871094 690.355469 L 321.316406 690.363281 L 318.089844 690.339844 L 315.277344 690.332031 L 313.019531 690.035156 L 310.691406 687.710938 C 310.210938 685.273438 310.210938 685.273438 309.964844 682.472656 L 309.699219 679.671875 C 309.585938 678.085938 309.527344 676.5 309.527344 674.910156 C 308.847656 674.640625 308.171875 674.371094 307.472656 674.09375 C 269.53125 659.003906 235.402344 639.847656 209.277344 607.507812 C 191.304688 584.34375 178.011719 556.199219 173.382812 527.128906 C 173.746094 523.054688 173.746094 523.054688 174.546875 520.144531 Z M 175.710938 518.980469 " fill-opacity="1" fill-rule="nonzero"/><path fill="#fefefe" d="M 0 0 L 768 0 L 768 768 L 0 768 Z M 22.082031 17.667969 C 19.355469 20.199219 17.199219 22.488281 15.128906 25.601562 C 13.53125 32.984375 13.796875 40.777344 13.8125 48.292969 L 13.808594 51.914062 C 13.800781 55.910156 13.804688 59.910156 13.808594 63.90625 L 13.800781 72.597656 C 13.792969 78.894531 13.792969 85.191406 13.792969 91.488281 C 13.792969 100.851562 13.789062 110.214844 13.785156 119.578125 C 13.773438 137.273438 13.769531 154.96875 13.769531 172.664062 C 13.761719 191.25 13.757812 209.832031 13.757812 228.414062 C 13.742188 262.234375 13.738281 296.035156 13.75 329.8125 L 13.75 339.304688 C 13.75 372.144531 13.742188 404.988281 13.726562 437.832031 C 13.703125 478.683594 13.691406 519.515625 13.695312 560.320312 L 13.695312 563.253906 C 13.695312 578.847656 13.691406 594.441406 13.679688 610.03125 C 13.667969 625.695312 13.667969 641.359375 13.675781 657.023438 C 13.679688 666.328125 13.679688 675.636719 13.667969 684.945312 C 13.660156 691.890625 13.664062 698.835938 13.671875 705.78125 C 13.675781 708.59375 13.671875 711.40625 13.667969 714.21875 C 13.660156 718.035156 13.664062 721.855469 13.675781 725.671875 L 13.65625 729 C 13.691406 735.414062 14.371094 740.917969 16.289062 747.054688 C 18.539062 751.054688 18.539062 751.054688 22.109375 754.035156 C 29.542969 757.613281 36.859375 758.023438 44.972656 757.953125 L 48.648438 757.960938 C 52.707031 757.96875 56.769531 757.949219 60.832031 757.933594 C 63.773438 757.933594 66.714844 757.9375 69.652344 757.9375 C 76.050781 757.941406 82.445312 757.933594 88.839844 757.914062 C 98.347656 757.890625 107.859375 757.882812 117.367188 757.882812 C 134.347656 757.875 151.332031 757.851562 168.3125 757.816406 C 188.171875 757.773438 208.027344 757.746094 227.882812 757.730469 C 265.410156 757.683594 302.9375 757.621094 340.464844 757.542969 C 373.8125 757.476562 407.164062 757.429688 440.515625 757.402344 C 481.96875 757.371094 523.421875 757.316406 564.882812 757.234375 L 567.863281 757.230469 C 582.714844 757.203125 597.570312 757.1875 612.421875 757.179688 C 629.308594 757.167969 646.191406 757.140625 663.074219 757.09375 C 672.527344 757.066406 681.980469 757.054688 691.433594 757.058594 C 698.484375 757.058594 705.53125 757.035156 712.582031 757.003906 C 715.441406 756.996094 718.300781 756.996094 721.15625 757.003906 C 725.03125 757.011719 728.902344 756.992188 732.777344 756.964844 L 736.171875 756.992188 C 741.707031 756.953125 741.707031 756.953125 746.9375 755.371094 C 750.425781 753.121094 753.035156 750.585938 755.199219 747.054688 C 756.28125 743.8125 756.511719 741.882812 756.515625 738.535156 L 756.53125 735.398438 L 756.527344 731.945312 L 756.535156 728.265625 C 756.542969 724.160156 756.550781 720.050781 756.550781 715.941406 C 756.554688 712.984375 756.5625 710.023438 756.570312 707.066406 C 756.582031 699.761719 756.59375 692.457031 756.597656 685.152344 C 756.609375 676.40625 756.621094 667.660156 756.636719 658.914062 C 756.671875 636.765625 756.695312 614.621094 756.71875 592.476562 L 756.734375 574.488281 C 756.785156 528.660156 756.816406 482.828125 756.835938 437 L 756.835938 433.753906 C 756.855469 399.011719 756.898438 364.269531 756.960938 329.527344 C 757.03125 287.78125 757.070312 246.035156 757.070312 204.289062 C 757.078125 188.308594 757.105469 172.328125 757.144531 156.347656 C 757.179688 140.292969 757.191406 124.238281 757.179688 108.183594 C 757.171875 98.640625 757.183594 89.097656 757.222656 79.550781 C 757.25 72.433594 757.238281 65.316406 757.214844 58.195312 C 757.210938 55.3125 757.222656 52.425781 757.242188 49.539062 C 757.269531 45.628906 757.253906 41.71875 757.226562 37.804688 L 757.28125 34.382812 C 757.214844 30.113281 757.097656 26.855469 754.914062 23.121094 C 751.914062 19.445312 749.144531 16.957031 744.726562 15.128906 C 737.3125 13.601562 729.589844 13.796875 722.050781 13.8125 L 718.441406 13.808594 C 714.449219 13.800781 710.457031 13.804688 706.464844 13.808594 L 697.789062 13.800781 C 691.5 13.796875 685.214844 13.792969 678.929688 13.792969 C 669.582031 13.792969 660.234375 13.789062 650.886719 13.785156 C 633.21875 13.773438 615.554688 13.769531 597.886719 13.769531 C 580.320312 13.765625 562.753906 13.761719 545.1875 13.761719 L 542.230469 13.757812 C 514.777344 13.75 487.324219 13.746094 459.871094 13.746094 L 431.527344 13.746094 C 398.738281 13.75 365.949219 13.742188 333.160156 13.722656 C 292.402344 13.6875 251.640625 13.679688 210.875 13.699219 L 207.949219 13.699219 C 192.378906 13.699219 176.8125 13.691406 161.25 13.679688 C 145.613281 13.667969 129.972656 13.667969 114.335938 13.675781 C 105.042969 13.679688 95.753906 13.679688 86.460938 13.667969 C 79.527344 13.660156 72.59375 13.664062 65.660156 13.671875 C 62.851562 13.675781 60.042969 13.671875 57.234375 13.667969 C 53.421875 13.660156 49.613281 13.664062 45.800781 13.675781 L 42.480469 13.65625 C 35.421875 13.695312 28.328125 14.015625 22.082031 17.667969 " fill-opacity="1" fill-rule="nonzero"/><path fill="#fefefe" d="M 125.746094 78.109375 C 131.890625 80.664062 137.210938 84.296875 141.425781 89.46875 C 145.5625 95.621094 147.390625 101.722656 148.078125 109.050781 C 148.589844 121.6875 144.589844 132.371094 138.984375 143.496094 C 136.382812 148.347656 133.375 152.882812 130.285156 157.433594 L 128.308594 160.386719 C 126.25 163.464844 124.179688 166.53125 122.109375 169.601562 L 117.933594 175.824219 C 115.382812 179.628906 112.828125 183.429688 110.265625 187.226562 C 107.632812 191.136719 105.011719 195.054688 102.398438 198.980469 L 106.121094 198.964844 C 110.660156 198.941406 115.199219 198.929688 119.738281 198.917969 C 121.703125 198.910156 123.671875 198.902344 125.640625 198.894531 C 128.460938 198.878906 131.28125 198.875 134.105469 198.867188 L 136.785156 198.851562 C 138.898438 198.851562 141.015625 198.910156 143.128906 198.980469 L 144.289062 200.144531 C 144.46875 203.242188 144.5625 206.285156 144.582031 209.382812 L 144.65625 212 C 144.671875 214.503906 144.671875 214.503906 144.289062 218.761719 C 140.800781 221.089844 140.800781 221.089844 137.988281 221.386719 L 134.621094 221.390625 L 130.796875 221.414062 L 126.664062 221.402344 L 122.414062 221.40625 C 119.449219 221.40625 116.480469 221.402344 113.511719 221.394531 C 108.972656 221.382812 104.433594 221.394531 99.890625 221.410156 C 97.007812 221.410156 94.128906 221.40625 91.246094 221.402344 L 87.128906 221.414062 L 83.28125 221.390625 C 82.167969 221.390625 81.054688 221.390625 79.90625 221.386719 C 76.558594 221.066406 74.027344 220.15625 70.980469 218.761719 C 70.136719 212.222656 69.410156 205.363281 71.84375 199.085938 C 74.363281 194.25 77.546875 189.839844 80.710938 185.40625 C 84.355469 180.214844 87.753906 174.851562 91.199219 169.527344 C 92.695312 167.230469 94.191406 164.933594 95.691406 162.640625 L 97.910156 159.234375 C 99.3125 157.089844 100.714844 154.953125 102.125 152.816406 C 114.027344 135.472656 114.027344 135.472656 120.269531 115.644531 C 120.402344 111.769531 119.941406 108.558594 118.980469 104.800781 C 117.671875 102.332031 117.671875 102.332031 115.5625 100.800781 C 112.683594 99.886719 112.683594 99.886719 108.800781 100.144531 C 104.679688 100.898438 104.679688 100.898438 102.230469 103.613281 C 99.480469 108 99.097656 111.578125 98.691406 116.65625 C 98.40625 119.664062 98.089844 122.671875 97.746094 125.671875 L 96.582031 126.835938 C 94.878906 126.953125 93.167969 126.988281 91.460938 126.992188 L 88.320312 126.996094 L 85.019531 126.980469 L 81.730469 126.996094 L 78.585938 126.992188 L 75.691406 126.988281 C 73.308594 126.835938 73.308594 126.835938 70.980469 125.671875 C 70.542969 114.402344 71.523438 103.441406 76.503906 93.167969 C 79.585938 88.089844 83.484375 84.230469 88.542969 81.121094 C 99.402344 75.480469 113.953125 74.589844 125.746094 78.109375 M 453.964844 345.890625 C 457.78125 346.226562 459.75 346.824219 463.199219 348.65625 C 465.453125 351.417969 465.453125 351.417969 466.480469 354.4375 C 466.675781 360.113281 464.367188 363.792969 461.746094 368.726562 C 455.628906 380.921875 450.433594 394.011719 451.113281 407.9375 C 452.328125 417.023438 454.40625 426.382812 459.636719 434.035156 C 462.25 437.203125 464.910156 440.335938 467.609375 443.429688 C 475.652344 452.753906 481.179688 462.457031 483.5625 474.609375 C 484.085938 478.339844 484.269531 481.910156 484.289062 485.671875 L 484.339844 489.40625 C 484.074219 493.382812 484.074219 493.382812 481.746094 502.691406 L 456.144531 502.691406 L 457.382812 497.238281 C 458.953125 488.28125 459.085938 479.8125 456.035156 471.152344 C 452.492188 463.542969 447.796875 457.363281 442.382812 450.996094 C 434.503906 441.65625 429.5 431.554688 426.335938 419.714844 C 424.195312 404.660156 425.183594 388.953125 430.546875 374.691406 C 434.304688 365.484375 438.796875 355.425781 445.761719 348.199219 C 448.585938 346.386719 450.621094 346.070312 453.964844 345.890625 M 294.570312 346.21875 C 298.285156 346.164062 301.363281 346.222656 304.777344 347.785156 C 306.691406 349.164062 306.691406 349.164062 309.527344 352.582031 C 309.976562 356.355469 309.976562 356.355469 309.527344 360.726562 C 308.230469 363.550781 306.773438 366.289062 305.164062 368.945312 C 298.6875 380.460938 295.152344 391.664062 294.910156 404.945312 C 295.035156 414.59375 296.679688 423.152344 301.382812 431.710938 C 304.308594 435.800781 307.644531 439.515625 311.011719 443.246094 C 318.960938 452.085938 324.351562 461.992188 326.980469 473.601562 C 328.535156 483.789062 328.121094 492.667969 325.816406 502.691406 L 300.21875 502.691406 L 301.382812 493.382812 C 301.988281 484.523438 302.140625 476.441406 298.34375 468.277344 C 294.527344 461.613281 289.875 455.585938 284.949219 449.710938 C 276.285156 439.355469 271.90625 429.15625 269.386719 415.882812 C 267.148438 400.800781 269.941406 385.527344 275.492188 371.417969 C 278.90625 363.152344 282.972656 354.304688 289.671875 348.199219 C 292.074219 346.761719 292.074219 346.761719 294.570312 346.21875 M 370.035156 346.761719 C 373.550781 346.386719 376.992188 346.417969 380.507812 346.761719 C 384 348.363281 384 348.363281 386.328125 350.253906 C 387.8125 353.222656 388.007812 355.902344 387.972656 359.191406 C 387.203125 363.496094 384.808594 366.59375 382.445312 370.207031 C 376.214844 380.890625 373.414062 392.757812 373.164062 405.015625 C 373.257812 413.789062 374.464844 421.394531 378.183594 429.382812 C 380.972656 433.558594 384.1875 437.246094 387.492188 441.019531 C 395.847656 451.597656 403.695312 462.929688 405.828125 476.507812 C 406.746094 486.015625 405.894531 493.179688 403.78125 502.691406 L 378.183594 502.691406 L 379.34375 494.546875 C 380.265625 482.121094 380.265625 482.121094 377.453125 470.183594 C 376.582031 468.578125 375.664062 467 374.691406 465.453125 L 373.195312 462.949219 C 369.972656 457.839844 366.300781 453.261719 362.402344 448.652344 C 353.933594 438.425781 349.757812 427.734375 347.378906 414.746094 C 345.328125 399.03125 348.957031 383.355469 354.910156 368.871094 C 358.566406 360.832031 362.378906 354.007812 368.871094 347.925781 Z M 479.417969 77.964844 C 482.339844 79.636719 484.03125 81.292969 486.398438 83.78125 C 488.367188 89.6875 487.824219 95.882812 487.84375 102.066406 C 487.855469 104.488281 487.890625 106.90625 487.925781 109.328125 C 487.933594 110.882812 487.941406 112.433594 487.945312 113.984375 L 487.976562 118.242188 C 487.515625 122.625 486.332031 125.402344 484.074219 129.164062 C 481.671875 131.34375 481.671875 131.34375 478.253906 132.65625 C 472.890625 133.292969 468.242188 133.3125 463.199219 131.273438 C 460.414062 128.824219 458.902344 126.691406 457.308594 123.34375 C 455.769531 117.015625 455.929688 110.769531 455.929688 104.289062 L 455.882812 100.710938 C 455.871094 94.234375 456.113281 88.683594 458.472656 82.617188 C 461.042969 80.046875 463.023438 78.371094 466.488281 77.253906 C 470.917969 76.433594 475.070312 76.851562 479.417969 77.964844 M 259.492188 77.964844 C 263.054688 80.871094 263.054688 80.871094 265.308594 83.78125 L 266.472656 84.945312 C 267.550781 91.730469 267.847656 98.375 267.855469 105.238281 L 267.898438 108.039062 C 267.914062 114.484375 267.34375 120.683594 265.308594 126.835938 C 263.054688 129.746094 263.054688 129.746094 260.65625 131.492188 C 255.617188 133.171875 250.796875 133.144531 245.527344 132.65625 C 242.007812 131.042969 240.09375 129.546875 237.382812 126.835938 C 235.144531 120.585938 235.820312 113.433594 235.746094 106.867188 C 235.722656 105.203125 235.683594 103.542969 235.628906 101.878906 C 235.183594 88.222656 235.183594 88.222656 237.644531 83.195312 C 239.398438 81.03125 240.855469 79.457031 243.199219 77.964844 C 248.636719 76.21875 253.980469 76.625 259.492188 77.964844 M 275.78125 77.964844 C 278.890625 77.800781 281.976562 77.914062 285.089844 77.964844 C 292.074219 105.28125 292.074219 105.28125 292.074219 112.871094 L 294.398438 112.871094 L 294.492188 110.808594 C 294.984375 103.332031 296.265625 96.171875 297.890625 88.871094 L 298.519531 86.03125 C 299.046875 83.71875 299.628906 81.421875 300.21875 79.128906 L 301.382812 77.964844 C 305.453125 77.816406 305.453125 77.816406 309.527344 77.964844 L 310.691406 79.128906 C 310.980469 82.433594 311.191406 85.707031 311.347656 89.019531 L 311.492188 92.089844 C 311.867188 100.835938 311.980469 109.574219 312 118.328125 L 312.015625 122.222656 L 312.007812 125.832031 L 312.003906 129.058594 L 311.855469 131.492188 L 310.691406 132.65625 C 308.753906 132.699219 306.8125 132.703125 304.871094 132.65625 C 302.882812 106.027344 302.882812 106.027344 304.871094 96.582031 L 302.546875 96.582031 L 302.375 98.691406 C 301.714844 106.113281 300.507812 113.296875 298.980469 120.582031 L 298.324219 123.785156 C 297.796875 126.355469 297.265625 128.921875 296.726562 131.492188 L 290.910156 132.65625 C 287.125 122.433594 285.023438 111.871094 282.761719 101.238281 L 282.675781 103.996094 C 282.539062 108.09375 282.398438 112.191406 282.253906 116.289062 L 282.117188 120.632812 L 281.96875 124.757812 L 281.839844 128.582031 L 281.601562 131.492188 L 280.4375 132.65625 C 278.496094 132.699219 276.558594 132.703125 274.617188 132.65625 C 274.589844 125.050781 274.566406 117.449219 274.554688 109.847656 C 274.546875 107.261719 274.539062 104.671875 274.53125 102.085938 C 274.515625 98.371094 274.511719 94.660156 274.503906 90.949219 L 274.488281 87.421875 L 274.488281 84.175781 L 274.476562 81.300781 L 274.617188 79.128906 Z M 325.816406 166.398438 C 328.816406 166.21875 331.761719 166.128906 334.765625 166.109375 L 337.261719 166.035156 C 341.574219 166.003906 344.324219 166.351562 348.394531 168.007812 C 351.417969 169.890625 351.417969 169.890625 353.601562 172.363281 C 355.429688 177.039062 355.601562 181.222656 354.910156 186.183594 C 353.558594 188.996094 352.4375 190.980469 350.253906 193.164062 C 350.746094 199.8125 352.257812 205.859375 354.1875 212.230469 C 354.917969 215.300781 355.039062 217.949219 354.910156 221.089844 L 346.761719 221.089844 C 343.617188 213.070312 341.09375 204.902344 338.617188 196.65625 L 336.289062 196.65625 L 336.203125 198.773438 C 336.066406 201.921875 335.925781 205.070312 335.78125 208.21875 L 335.644531 211.550781 L 335.496094 214.722656 L 335.367188 217.660156 L 335.128906 219.925781 L 333.964844 221.089844 C 331.25 221.136719 328.535156 221.136719 325.816406 221.089844 C 324.46875 218.390625 324.507812 216.824219 324.503906 213.816406 L 324.492188 210.722656 L 324.5 207.378906 L 324.496094 203.953125 C 324.496094 201.5625 324.5 199.167969 324.503906 196.777344 C 324.507812 193.101562 324.503906 189.425781 324.496094 185.753906 C 324.496094 183.433594 324.496094 181.113281 324.5 178.796875 L 324.492188 175.441406 L 324.503906 172.359375 L 324.507812 169.632812 L 324.65625 167.5625 Z M 545.746094 166.398438 C 548.960938 166.222656 552.128906 166.128906 555.34375 166.109375 L 558.039062 166.035156 C 562.300781 166.007812 565.03125 166.164062 568.941406 168.007812 C 572.007812 170.410156 573.339844 172.085938 574.835938 175.710938 C 575.308594 179.277344 575.335938 182.617188 574.835938 186.183594 C 573.164062 189.382812 573.164062 189.382812 571.34375 192 C 570.378906 194.609375 570.378906 194.609375 570.183594 197.816406 C 570.808594 200.757812 571.5625 203.667969 572.4375 206.546875 C 573.90625 211.453125 575.164062 215.914062 574.835938 221.089844 L 566.691406 221.089844 C 563.546875 213.070312 561.023438 204.902344 558.546875 196.65625 L 556.21875 196.65625 L 555.054688 221.089844 L 545.746094 221.089844 L 544.582031 219.925781 C 544.476562 218.289062 544.425781 216.648438 544.429688 215.007812 L 544.421875 211.839844 L 544.425781 208.398438 L 544.421875 204.890625 C 544.421875 202.4375 544.425781 199.984375 544.429688 197.53125 C 544.4375 193.761719 544.429688 189.992188 544.421875 186.222656 C 544.421875 183.84375 544.425781 181.46875 544.425781 179.089844 L 544.421875 175.648438 L 544.433594 172.484375 L 544.433594 169.683594 L 544.582031 167.5625 Z M 421.234375 77.964844 C 424.257812 77.785156 427.230469 77.695312 430.253906 77.671875 L 432.78125 77.601562 C 436.753906 77.570312 439.59375 77.839844 443.195312 79.566406 C 446.3125 81.941406 448.296875 83.890625 450.328125 87.273438 C 450.71875 90.800781 450.902344 93.183594 450.328125 96.582031 C 448.65625 100.292969 448.65625 100.292969 446.835938 103.5625 C 445.875 106.203125 445.875 106.203125 445.671875 109.382812 C 446.300781 112.324219 447.050781 115.230469 447.929688 118.109375 C 449.398438 123.015625 450.65625 127.476562 450.328125 132.65625 L 442.183594 132.65625 C 439.476562 125.957031 437.722656 119.421875 436.296875 112.335938 C 435.933594 111.359375 435.574219 110.386719 435.199219 109.382812 C 432.867188 108.015625 432.867188 108.015625 430.546875 107.054688 L 430.5625 109.28125 C 430.585938 112.585938 430.605469 115.894531 430.617188 119.199219 L 430.648438 122.703125 L 430.660156 126.03125 L 430.679688 129.117188 L 430.546875 131.492188 L 429.382812 132.65625 C 425.308594 132.800781 425.308594 132.800781 421.234375 132.65625 L 420.074219 131.492188 C 419.964844 129.851562 419.914062 128.210938 419.921875 126.570312 L 419.910156 123.40625 L 419.917969 119.964844 L 419.914062 116.453125 C 419.914062 114 419.917969 111.546875 419.921875 109.09375 C 419.925781 105.324219 419.921875 101.554688 419.914062 97.785156 C 419.914062 95.410156 419.914062 93.03125 419.917969 90.652344 L 419.910156 87.214844 L 419.921875 84.046875 L 419.925781 81.246094 L 420.074219 79.128906 Z M 371.199219 254.835938 C 374.074219 255.011719 374.074219 255.011719 377.019531 256 C 378.640625 258.320312 378.640625 258.320312 379.878906 261.335938 L 381.253906 264.617188 L 382.617188 268.074219 L 384.050781 271.5 C 387.492188 279.867188 387.492188 279.867188 387.492188 283.925781 L 389.816406 283.925781 L 389.800781 281.382812 C 389.777344 277.601562 389.757812 273.820312 389.746094 270.035156 L 389.714844 266.03125 L 389.703125 262.222656 L 389.683594 258.695312 L 389.816406 256 L 390.980469 254.835938 C 393.890625 254.691406 393.890625 254.691406 396.800781 254.835938 L 397.964844 256 C 398.078125 257.59375 398.113281 259.195312 398.113281 260.792969 L 398.125 263.878906 L 398.117188 267.230469 L 398.121094 270.652344 C 398.121094 273.046875 398.121094 275.441406 398.113281 277.835938 C 398.109375 281.507812 398.113281 285.179688 398.121094 288.851562 C 398.121094 291.171875 398.121094 293.492188 398.117188 295.8125 L 398.125 299.160156 L 398.113281 302.253906 L 398.109375 304.984375 C 397.964844 307.199219 397.964844 307.199219 396.800781 309.527344 L 390.980469 309.527344 L 389.914062 306.921875 C 386.917969 299.664062 383.796875 292.5 380.414062 285.414062 C 379.34375 282.761719 379.34375 282.761719 379.34375 279.273438 L 377.019531 279.273438 L 377.589844 282.664062 C 378.335938 287.886719 378.351562 293.058594 378.328125 298.328125 L 378.339844 301.214844 C 378.328125 303.597656 378.273438 305.980469 378.183594 308.363281 L 377.019531 309.527344 L 368.871094 309.527344 L 368.871094 256 Z M 306.121094 166.078125 C 309.527344 166.398438 309.527344 166.398438 313.164062 168.289062 C 315.726562 171.539062 316.785156 173.996094 317.671875 178.035156 C 317.816406 181.964844 317.816406 181.964844 317.671875 185.019531 L 308.363281 185.019531 L 306.035156 175.710938 C 303.246094 174.917969 303.246094 174.917969 300.21875 174.546875 L 297.890625 176.871094 C 297.546875 180.207031 297.546875 180.207031 297.625 184.105469 L 297.628906 188.488281 L 297.671875 193.089844 L 297.675781 197.679688 C 297.53125 205.433594 297.53125 205.433594 299.054688 212.945312 L 307.199219 211.78125 L 308.363281 200.144531 L 302.546875 197.816406 L 303.710938 193.164062 L 317.671875 193.164062 L 317.671875 221.089844 L 311.855469 221.089844 L 310.691406 216.4375 L 308.363281 216.4375 L 307.199219 221.089844 C 303.261719 221.441406 299.496094 221.570312 295.5625 221.089844 C 292.453125 219.496094 290.992188 217.929688 288.582031 215.273438 C 286.523438 209.101562 287.0625 202.457031 287.011719 195.992188 C 286.992188 194.257812 286.960938 192.523438 286.914062 190.789062 C 286.851562 188.277344 286.824219 185.765625 286.808594 183.25 L 286.738281 178.699219 C 287.394531 174.691406 287.796875 173.574219 290.21875 170.582031 C 295.253906 165.542969 299.214844 166.003906 306.121094 166.078125 M 243.199219 254.835938 C 246.691406 254.691406 246.691406 254.691406 250.183594 254.835938 L 251.34375 256 C 251.519531 259.15625 251.617188 262.289062 251.671875 265.449219 L 251.738281 268.324219 C 251.804688 271.367188 251.867188 274.410156 251.925781 277.453125 C 252.007812 281.453125 252.089844 285.453125 252.183594 289.449219 L 252.230469 292.253906 C 252.230469 296.972656 252.230469 296.972656 253.671875 301.382812 L 260.65625 301.382812 C 262.101562 297.042969 262.066406 292.949219 262.144531 288.425781 L 262.210938 285.632812 C 262.300781 281.6875 262.382812 277.738281 262.460938 273.792969 C 262.523438 270.914062 262.585938 268.035156 262.65625 265.15625 L 262.703125 262.429688 C 262.753906 260.285156 262.863281 258.140625 262.980469 256 L 264.144531 254.835938 C 267.636719 254.691406 267.636719 254.691406 271.128906 254.835938 L 272.289062 256 C 272.4375 259.007812 272.511719 261.980469 272.527344 264.992188 L 272.546875 267.746094 C 272.558594 269.675781 272.566406 271.609375 272.570312 273.539062 C 272.582031 276.472656 272.617188 279.40625 272.652344 282.339844 C 272.660156 284.21875 272.667969 286.097656 272.671875 287.972656 L 272.714844 290.609375 C 272.691406 296.589844 271.566406 300.714844 268.800781 306.035156 C 266.042969 308.621094 264.261719 309.488281 260.65625 310.691406 C 256.183594 311.027344 252.980469 310.855469 248.726562 309.382812 C 245.527344 307.199219 245.527344 307.199219 243.605469 304.21875 C 241.652344 299.246094 241.574219 295.1875 241.65625 289.90625 L 241.660156 286.96875 C 241.667969 284.933594 241.683594 282.898438 241.707031 280.863281 C 241.746094 277.734375 241.757812 274.609375 241.765625 271.480469 L 241.800781 265.539062 L 241.816406 262.695312 C 241.84375 260.460938 241.933594 258.230469 242.035156 256 Z M 507.34375 166.398438 L 516.65625 166.398438 L 516.742188 170.421875 C 516.851562 175.335938 516.96875 180.25 517.085938 185.164062 C 517.136719 187.292969 517.1875 189.421875 517.234375 191.550781 C 517.300781 194.605469 517.375 197.664062 517.449219 200.71875 L 517.507812 203.613281 C 517.519531 208.433594 517.519531 208.433594 518.980469 212.945312 L 524.800781 212.945312 C 526.855469 209.8125 527.175781 207.71875 527.5 203.917969 C 527.546875 202.167969 527.582031 200.421875 527.609375 198.671875 L 527.675781 195.875 C 527.746094 192.9375 527.800781 189.996094 527.855469 187.054688 L 527.992188 181.0625 C 528.101562 176.175781 528.199219 171.289062 528.289062 166.398438 C 531.007812 166.351562 533.722656 166.351562 536.4375 166.398438 L 537.601562 167.5625 C 537.746094 170.472656 537.820312 173.347656 537.835938 176.257812 L 537.855469 178.925781 C 537.867188 180.796875 537.875 182.667969 537.878906 184.542969 C 537.890625 187.378906 537.925781 190.214844 537.964844 193.050781 C 537.972656 194.875 537.976562 196.695312 537.980469 198.515625 L 538.027344 201.054688 C 538 207.269531 536.617188 211.90625 534.109375 217.601562 C 532.144531 219.855469 532.144531 219.855469 529.453125 221.089844 C 525.132812 222.101562 521.941406 222.582031 517.597656 221.785156 C 513.058594 220.375 513.058594 220.375 510.835938 218.761719 C 508.90625 215.722656 507.503906 213.007812 507.042969 209.402344 C 506.941406 206.652344 506.953125 203.921875 507.003906 201.171875 L 507.019531 198.148438 C 507.039062 194.984375 507.082031 191.820312 507.125 188.65625 C 507.144531 186.5 507.160156 184.34375 507.175781 182.191406 C 507.210938 176.925781 507.273438 171.664062 507.34375 166.398438 M 416.582031 166.398438 C 419.296875 166.351562 422.011719 166.351562 424.726562 166.398438 C 426.460938 169.871094 425.976562 172.988281 425.921875 176.855469 L 425.878906 181.828125 C 425.851562 184.4375 425.816406 187.046875 425.777344 189.65625 C 425.746094 192.175781 425.722656 194.699219 425.703125 197.21875 L 425.644531 201.789062 C 425.886719 205.925781 426.714844 209.105469 428.21875 212.945312 L 434.035156 212.945312 C 435.90625 209.210938 435.457031 205.121094 435.527344 201.011719 L 435.59375 198.136719 C 435.683594 194.0625 435.761719 189.992188 435.84375 185.917969 C 435.90625 182.949219 435.96875 179.980469 436.035156 177.011719 L 436.082031 174.199219 C 436.132812 171.988281 436.242188 169.773438 436.363281 167.5625 L 437.527344 166.398438 C 440.242188 166.351562 442.957031 166.351562 445.671875 166.398438 C 445.757812 172.734375 445.824219 179.070312 445.863281 185.40625 C 445.882812 187.558594 445.90625 189.710938 445.9375 191.867188 C 445.980469 194.96875 446 198.070312 446.011719 201.171875 C 446.03125 202.128906 446.046875 203.085938 446.066406 204.070312 C 446.070312 208.601562 445.757812 211.566406 444.046875 215.839844 C 442.183594 218.761719 442.183594 218.761719 439.917969 220.292969 C 434.984375 221.847656 431.167969 222.515625 426.035156 221.527344 C 423.4375 220.882812 421.5625 220.144531 419.335938 218.664062 C 416.863281 215.203125 416.183594 211.246094 415.417969 207.128906 C 415.132812 203.945312 415.117188 200.796875 415.152344 197.605469 L 415.152344 194.992188 C 415.15625 193.191406 415.164062 191.386719 415.179688 189.585938 C 415.199219 186.816406 415.203125 184.046875 415.203125 181.273438 L 415.222656 176.003906 L 415.226562 173.488281 C 415.246094 171.511719 415.324219 169.539062 415.417969 167.5625 Z M 262.980469 166.398438 C 265.246094 166.058594 265.246094 166.058594 267.78125 166.183594 L 272.289062 166.398438 C 274.855469 176.210938 277.046875 186.066406 279.027344 196.011719 C 279.496094 198.355469 279.972656 200.695312 280.453125 203.035156 L 281.359375 207.558594 L 282.179688 211.628906 C 282.695312 214.761719 282.890625 217.917969 282.761719 221.089844 L 274.617188 221.089844 C 273.230469 216.578125 272.289062 213.042969 272.289062 208.289062 L 262.980469 209.453125 L 262.515625 211.703125 L 261.890625 214.617188 L 261.277344 217.523438 L 260.65625 219.925781 L 259.492188 221.089844 C 256.777344 221.136719 254.0625 221.136719 251.34375 221.089844 C 252.070312 211.164062 253.925781 201.59375 255.949219 191.863281 C 256.511719 189.140625 257.0625 186.417969 257.613281 183.691406 L 258.6875 178.476562 L 259.179688 176.019531 C 259.992188 172.171875 260.765625 169.722656 262.980469 166.398438 M 591.128906 166.398438 L 600.4375 166.398438 C 602.601562 171.269531 603.738281 176.207031 604.773438 181.410156 L 605.3125 184.066406 C 605.683594 185.914062 606.050781 187.761719 606.417969 189.609375 C 606.976562 192.421875 607.550781 195.230469 608.125 198.035156 C 608.488281 199.839844 608.847656 201.640625 609.207031 203.445312 L 609.726562 205.960938 C 610.738281 211.132812 611.070312 215.859375 610.910156 221.089844 L 602.761719 221.089844 L 600.4375 209.453125 L 591.128906 209.453125 L 588.800781 221.089844 L 580.65625 221.089844 C 580.480469 214.5 581.023438 208.574219 582.351562 202.128906 C 582.53125 201.246094 582.703125 200.367188 582.886719 199.460938 C 583.253906 197.617188 583.628906 195.777344 584.007812 193.933594 C 584.582031 191.121094 585.140625 188.304688 585.699219 185.484375 L 586.789062 180.089844 L 587.292969 177.550781 C 588.128906 173.527344 589.03125 169.957031 591.128906 166.398438 M 451.492188 256 C 456.605469 279.863281 456.605469 279.863281 457.53125 284.199219 C 458.171875 287.179688 458.820312 290.160156 459.484375 293.136719 L 460.449219 297.519531 L 461.332031 301.464844 C 461.964844 304.871094 461.964844 304.871094 461.964844 309.527344 L 452.65625 309.527344 L 450.328125 297.890625 L 442.183594 297.890625 L 438.691406 309.527344 L 430.546875 309.527344 C 431.15625 297.984375 433.523438 286.851562 435.855469 275.5625 L 437.015625 269.851562 C 437.953125 265.234375 438.898438 260.617188 439.855469 256 C 444.117188 255.128906 447.328125 254.558594 451.492188 256 M 399.03125 165.910156 C 402.617188 166.398438 402.617188 166.398438 406.398438 169.019531 C 409.320312 173.605469 409.320312 173.605469 409.601562 176.871094 C 409.671875 179.984375 409.652344 183.070312 409.601562 186.183594 L 400.289062 186.183594 L 397.964844 174.546875 L 392.144531 174.546875 L 390.980469 175.710938 C 390.867188 178.261719 390.832031 180.820312 390.828125 183.378906 L 390.824219 185.703125 C 390.824219 187.332031 390.824219 188.957031 390.832031 190.582031 C 390.835938 193.078125 390.832031 195.570312 390.824219 198.0625 C 390.824219 199.640625 390.824219 201.21875 390.828125 202.796875 L 390.832031 207.167969 C 390.742188 210.535156 390.742188 210.535156 392.144531 212.945312 L 397.964844 212.945312 L 400.289062 201.308594 C 403 200.867188 405.714844 200.480469 408.4375 200.144531 L 409.601562 201.308594 C 409.976562 206.003906 409.640625 209.328125 408.144531 213.816406 C 406.109375 217.601562 406.109375 217.601562 404.144531 219.78125 C 400.214844 221.695312 396.472656 222.359375 392.144531 222.253906 C 387.78125 221.164062 387.78125 221.164062 384 218.761719 C 381.019531 214.3125 379.53125 211.085938 378.917969 205.753906 C 378.761719 201.5 378.769531 197.273438 378.835938 193.019531 L 378.8125 188.613281 C 378.863281 181.304688 379.078125 176.324219 382.835938 169.890625 C 387.480469 165.09375 392.71875 165.765625 399.03125 165.910156 M 224.28125 254.582031 C 226.910156 254.835938 226.910156 254.835938 230.328125 256.289062 C 232.726562 258.328125 232.726562 258.328125 234.253906 260.4375 C 235.277344 263.6875 235.210938 266.578125 235.054688 269.964844 L 226.910156 269.964844 L 225.746094 262.980469 L 218.761719 264.144531 C 218.277344 267.390625 218.277344 267.390625 218.761719 271.128906 C 220.640625 273.367188 222.398438 275.042969 224.582031 276.945312 C 226.4375 278.726562 228.28125 280.519531 230.109375 282.328125 L 232.855469 284.992188 C 235.054688 287.417969 235.054688 287.417969 236.21875 290.910156 C 236.695312 295.824219 236.71875 300.097656 234.910156 304.726562 C 232.726562 307.199219 232.726562 307.199219 229.671875 309.382812 C 225.269531 310.847656 222.28125 310.988281 217.742188 310.257812 C 215.273438 309.527344 215.273438 309.527344 211.78125 307.125 C 209.578125 303.890625 208.984375 302.480469 208.4375 298.761719 L 208.289062 294.398438 L 209.453125 293.238281 C 211.78125 293.191406 214.109375 293.1875 216.4375 293.238281 L 219.925781 301.382812 L 225.746094 300.21875 C 226.234375 297.023438 226.234375 297.023438 225.746094 293.238281 C 222.691406 288.75 219.195312 285.59375 215.054688 282.109375 C 212.453125 279.863281 210.683594 278.210938 208.871094 275.273438 C 208.054688 271.078125 207.460938 267.191406 208.289062 262.980469 C 209.953125 260.121094 211.699219 258.355469 214.109375 256 C 217.484375 254.3125 220.554688 254.535156 224.28125 254.582031 M 291.492188 254.328125 C 294.867188 254.496094 296.902344 254.910156 300.074219 256.21875 C 302.960938 258.683594 304.539062 260.648438 306.035156 264.144531 C 305.671875 267.417969 305.671875 267.417969 304.871094 269.964844 L 297.890625 271.128906 L 295.5625 264.144531 L 289.746094 264.144531 C 288.820312 266.179688 288.820312 266.179688 288.582031 268.800781 C 290.824219 273.273438 293.476562 276.105469 297.308594 279.273438 C 301.15625 282.453125 303.765625 285.273438 306.035156 289.746094 C 307.246094 294.039062 307.460938 297.90625 306.472656 302.253906 C 304.367188 305.703125 302.519531 307.417969 299.054688 309.527344 C 295.925781 310.402344 292.992188 310.757812 289.746094 310.691406 C 286.558594 309.839844 284.621094 308.925781 282.078125 306.863281 C 280.4375 304.871094 280.4375 304.871094 279.800781 302.28125 L 279.5625 299.492188 L 279.292969 296.683594 L 279.273438 294.398438 L 280.4375 293.238281 C 282.761719 293.191406 285.089844 293.1875 287.417969 293.238281 L 288.582031 301.382812 L 295.5625 301.382812 C 296.472656 298.164062 296.472656 298.164062 296.726562 294.398438 C 294.683594 289.085938 290.445312 285.921875 286.183594 282.355469 L 283.925781 280.4375 L 281.984375 278.800781 C 279.960938 276.378906 279.523438 274.355469 278.910156 271.273438 C 278.304688 267.753906 278.074219 265.488281 278.765625 261.964844 C 282.230469 256.835938 285.277344 254.554688 291.492188 254.328125 M 464.289062 254.835938 C 467.054688 254.617188 467.054688 254.617188 470.109375 254.835938 C 472.347656 258.195312 472.945312 259.882812 473.679688 263.726562 L 474.296875 266.921875 L 474.910156 270.253906 L 475.550781 273.53125 C 476.660156 279.425781 477.339844 284.910156 477.089844 290.910156 L 479.417969 290.910156 L 479.550781 288.804688 C 480.089844 281.679688 481.050781 274.675781 482.253906 267.636719 L 482.6875 265.019531 C 483.40625 260.941406 484.070312 258.332031 486.398438 254.835938 C 490.035156 254.617188 490.035156 254.617188 493.382812 254.835938 C 492.824219 265.230469 490.859375 275.21875 488.714844 285.378906 C 488.140625 288.101562 487.574219 290.828125 487.011719 293.558594 L 485.925781 298.769531 L 485.414062 301.234375 C 484.207031 306.929688 484.207031 306.929688 482.910156 309.527344 L 473.601562 309.527344 C 466.640625 278.757812 466.640625 278.757812 464.363281 267.128906 L 463.53125 262.914062 C 463.15625 259.746094 463.230469 257.808594 464.289062 254.835938 M 500.363281 254.835938 C 501.910156 254.722656 503.464844 254.683594 505.019531 254.679688 L 507.855469 254.675781 L 510.835938 254.691406 L 513.820312 254.675781 L 516.65625 254.679688 L 519.273438 254.6875 L 521.308594 254.835938 L 522.472656 256 L 522.472656 261.816406 L 509.671875 262.980469 L 509.671875 278.109375 L 518.980469 278.109375 L 518.980469 285.089844 L 509.671875 285.089844 L 509.671875 302.546875 L 515.417969 302.472656 C 517.382812 302.441406 519.347656 302.46875 521.308594 302.546875 L 522.472656 303.710938 C 522.519531 305.648438 522.523438 307.589844 522.472656 309.527344 C 518.8125 309.5625 515.152344 309.582031 511.492188 309.601562 L 508.324219 309.628906 L 505.3125 309.640625 L 502.527344 309.660156 L 500.363281 309.527344 L 499.199219 308.363281 C 499.09375 306.726562 499.042969 305.085938 499.046875 303.441406 L 499.039062 300.277344 L 499.046875 296.835938 L 499.042969 293.328125 C 499.042969 290.875 499.042969 288.421875 499.046875 285.96875 C 499.054688 282.195312 499.046875 278.429688 499.039062 274.660156 C 499.039062 272.28125 499.042969 269.902344 499.046875 267.527344 L 499.039062 264.085938 L 499.050781 260.921875 L 499.050781 258.121094 L 499.199219 256 Z M 342.109375 254.835938 C 343.671875 254.742188 345.238281 254.703125 346.804688 254.722656 L 349.65625 254.734375 L 352.65625 254.761719 L 355.664062 254.78125 C 358.128906 254.792969 360.589844 254.8125 363.054688 254.835938 L 364.21875 258.328125 L 363.054688 261.816406 L 351.417969 262.980469 L 351.417969 278.109375 L 360.726562 278.109375 L 360.726562 285.089844 L 351.417969 286.253906 L 351.417969 302.546875 L 363.054688 302.546875 C 363.5 304.472656 363.886719 306.414062 364.21875 308.363281 L 363.054688 309.527344 C 361.40625 309.621094 359.753906 309.660156 358.105469 309.640625 L 355.09375 309.628906 L 351.929688 309.597656 L 348.746094 309.585938 C 346.148438 309.570312 343.546875 309.550781 340.945312 309.527344 C 340.914062 301.925781 340.894531 294.324219 340.882812 286.722656 C 340.875 284.132812 340.867188 281.546875 340.859375 278.957031 C 340.84375 275.246094 340.835938 271.535156 340.832031 267.824219 L 340.8125 264.292969 L 340.8125 261.046875 L 340.804688 258.171875 L 340.945312 256 Z M 210.617188 166.398438 C 212.183594 166.304688 213.746094 166.269531 215.3125 166.285156 L 218.164062 166.296875 L 221.164062 166.328125 L 224.175781 166.34375 C 226.636719 166.359375 229.101562 166.378906 231.5625 166.398438 L 232.726562 169.890625 L 231.5625 173.382812 L 219.925781 174.546875 L 218.761719 188.507812 L 222.691406 188.4375 C 226.910156 188.507812 226.910156 188.507812 229.238281 189.671875 L 229.238281 195.492188 C 226.910156 196.65625 226.910156 196.65625 218.761719 196.65625 L 219.925781 212.945312 L 231.5625 214.109375 L 232.726562 218.761719 L 231.5625 221.089844 L 209.453125 221.089844 C 209.425781 213.488281 209.40625 205.886719 209.390625 198.285156 C 209.382812 195.695312 209.375 193.109375 209.367188 190.519531 C 209.351562 186.808594 209.347656 183.097656 209.339844 179.386719 L 209.324219 175.855469 L 209.324219 172.609375 L 209.316406 169.734375 L 209.453125 167.5625 Z M 393.308594 77.964844 C 394.871094 77.871094 396.4375 77.832031 398.003906 77.851562 L 400.855469 77.859375 L 403.855469 77.890625 L 406.867188 77.90625 C 409.328125 77.921875 411.792969 77.941406 414.253906 77.964844 L 414.253906 84.945312 L 402.617188 86.109375 L 401.453125 100.074219 L 406.035156 100 C 407.613281 99.96875 409.1875 99.996094 410.761719 100.074219 L 411.925781 101.238281 C 411.972656 103.175781 411.976562 105.117188 411.925781 107.054688 L 402.617188 108.21875 C 402.585938 110.714844 402.5625 113.210938 402.546875 115.710938 L 402.503906 119.921875 L 402.617188 123.34375 L 403.78125 124.507812 C 405.542969 124.777344 407.316406 124.988281 409.089844 125.164062 L 412.003906 125.457031 L 414.253906 125.671875 C 414.910156 127.855469 414.910156 127.855469 415.417969 130.328125 L 414.253906 132.65625 C 410.785156 132.6875 407.320312 132.710938 403.855469 132.726562 L 400.855469 132.757812 L 398.003906 132.769531 L 395.363281 132.789062 L 393.308594 132.65625 L 392.144531 131.492188 C 392.039062 129.851562 391.988281 128.210938 391.992188 126.570312 L 391.984375 123.40625 L 391.992188 119.964844 L 391.988281 116.453125 C 391.988281 114 391.988281 111.546875 391.996094 109.09375 C 392 105.324219 391.996094 101.554688 391.984375 97.785156 C 391.984375 95.410156 391.988281 93.03125 391.992188 90.652344 L 391.984375 87.214844 L 391.996094 84.046875 L 391.996094 81.246094 L 392.144531 79.128906 Z M 320 77.964844 L 342.109375 77.964844 L 342.109375 84.945312 L 330.472656 86.109375 L 329.308594 100.074219 L 338.617188 100.074219 C 339.273438 102.253906 339.273438 102.253906 339.78125 104.726562 L 338.617188 107.054688 C 335.917969 107.527344 333.199219 107.921875 330.472656 108.21875 L 330.472656 124.507812 L 342.109375 125.671875 L 342.109375 132.65625 L 320 132.65625 Z M 475.925781 166.398438 L 502.691406 166.398438 L 502.691406 173.382812 L 501.527344 174.546875 C 499.199219 174.59375 496.871094 174.59375 494.546875 174.546875 L 494.5625 178.691406 C 494.585938 183.753906 494.597656 188.8125 494.609375 193.871094 C 494.617188 196.0625 494.625 198.257812 494.632812 200.449219 C 494.648438 203.59375 494.652344 206.742188 494.660156 209.886719 L 494.675781 212.875 C 494.675781 215.226562 494.617188 217.578125 494.546875 219.925781 L 493.382812 221.089844 L 484.074219 221.089844 L 484.074219 174.546875 L 477.089844 174.546875 L 475.925781 173.382812 Z M 363.054688 77.964844 L 385.164062 77.964844 C 386.328125 83.78125 386.328125 83.78125 385.304688 87.660156 C 384.777344 89.125 384.234375 90.582031 383.683594 92.035156 L 382.824219 94.394531 C 381.921875 96.875 380.996094 99.347656 380.074219 101.816406 C 379.160156 104.289062 378.25 106.765625 377.347656 109.242188 C 376.785156 110.777344 376.214844 112.3125 375.640625 113.84375 C 374.167969 117.832031 373.203125 121.464844 372.363281 125.671875 L 386.328125 125.671875 L 386.328125 131.492188 L 385.164062 132.65625 C 383.53125 132.769531 381.890625 132.804688 380.253906 132.808594 L 377.257812 132.8125 L 374.109375 132.800781 L 370.960938 132.8125 L 367.964844 132.808594 L 365.199219 132.804688 L 363.054688 132.65625 L 361.890625 131.492188 C 362.152344 121.160156 366.003906 111.90625 369.527344 102.328125 L 371.363281 97.257812 C 372.847656 93.148438 374.34375 89.046875 375.855469 84.945312 L 363.054688 84.945312 Z M 310.691406 254.835938 C 312.496094 254.730469 314.300781 254.675781 316.109375 254.679688 L 319.421875 254.675781 L 322.910156 254.691406 L 326.394531 254.675781 L 329.710938 254.679688 L 332.769531 254.6875 L 335.128906 254.835938 L 336.289062 256 C 336.4375 258.910156 336.4375 258.910156 336.289062 261.816406 L 335.128906 262.980469 L 328.144531 262.980469 L 328.144531 309.527344 L 318.835938 309.527344 L 317.671875 308.363281 C 317.574219 305.015625 317.535156 301.671875 317.558594 298.324219 L 317.566406 295.273438 C 317.570312 292.050781 317.585938 288.824219 317.597656 285.597656 C 317.605469 283.417969 317.609375 281.238281 317.617188 279.054688 C 317.628906 273.699219 317.648438 268.339844 317.671875 262.980469 L 309.527344 262.980469 C 309.476562 260.65625 309.480469 258.328125 309.527344 256 Z M 403.78125 254.835938 C 405.585938 254.730469 407.390625 254.675781 409.199219 254.679688 L 412.515625 254.675781 L 416 254.691406 L 419.484375 254.675781 L 422.800781 254.679688 L 425.859375 254.6875 L 428.21875 254.835938 L 429.382812 256 C 429.429688 257.9375 429.433594 259.878906 429.382812 261.816406 L 421.234375 264.144531 L 421.253906 267.8125 C 421.273438 272.300781 421.289062 276.796875 421.300781 281.289062 C 421.304688 283.234375 421.3125 285.175781 421.324219 287.121094 C 421.339844 289.917969 421.34375 292.710938 421.351562 295.511719 L 421.367188 298.136719 C 421.367188 302.097656 421.320312 305.742188 420.074219 309.527344 C 417.359375 309.574219 414.640625 309.574219 411.925781 309.527344 L 410.761719 308.363281 C 410.664062 305.015625 410.625 301.671875 410.648438 298.324219 L 410.65625 295.273438 C 410.660156 292.050781 410.675781 288.824219 410.691406 285.597656 C 410.699219 283.417969 410.703125 281.238281 410.707031 279.054688 C 410.71875 273.699219 410.738281 268.339844 410.761719 262.980469 L 402.617188 262.980469 C 402.566406 260.65625 402.570312 258.328125 402.617188 256 Z M 210.617188 77.964844 C 213.925781 77.847656 217.199219 77.800781 220.507812 77.816406 L 223.324219 77.804688 C 225.683594 77.808594 228.042969 77.882812 230.398438 77.964844 L 231.5625 79.128906 L 231.5625 84.945312 L 218.761719 84.945312 L 218.761719 100.074219 L 229.238281 101.238281 L 229.238281 107.054688 C 226.910156 108.21875 226.910156 108.21875 218.761719 108.21875 L 218.761719 132.65625 L 210.617188 132.65625 L 209.453125 131.492188 C 209.347656 129.851562 209.296875 128.210938 209.304688 126.570312 L 209.292969 123.40625 L 209.300781 119.964844 L 209.296875 116.453125 C 209.296875 114 209.296875 111.546875 209.304688 109.09375 C 209.308594 105.324219 209.304688 101.554688 209.296875 97.785156 C 209.296875 95.410156 209.296875 93.03125 209.300781 90.652344 L 209.292969 87.214844 L 209.304688 84.046875 L 209.308594 81.246094 L 209.453125 79.128906 Z M 453.816406 166.398438 L 463.128906 166.398438 C 464.632812 170.921875 464.433594 175.195312 464.40625 179.902344 L 464.398438 182.863281 C 464.394531 185.984375 464.378906 189.101562 464.363281 192.21875 C 464.355469 194.332031 464.351562 196.449219 464.347656 198.5625 C 464.335938 203.746094 464.316406 208.925781 464.289062 214.109375 L 475.925781 214.109375 C 476.371094 216.039062 476.757812 217.976562 477.089844 219.925781 L 475.925781 221.089844 C 474.378906 221.203125 472.824219 221.242188 471.273438 221.246094 L 468.4375 221.25 L 465.453125 221.238281 L 462.472656 221.25 L 459.636719 221.246094 L 457.019531 221.242188 L 454.980469 221.089844 L 453.816406 219.925781 C 453.71875 218.246094 453.671875 216.566406 453.683594 214.882812 L 453.683594 211.636719 L 453.703125 208.105469 L 453.710938 204.507812 C 453.714844 200.703125 453.730469 196.898438 453.746094 193.089844 C 453.75 190.515625 453.757812 187.945312 453.761719 185.371094 C 453.773438 179.046875 453.792969 172.722656 453.816406 166.398438 M 528.289062 254.835938 C 531.007812 254.789062 533.722656 254.789062 536.4375 254.835938 L 537.601562 256 C 537.699219 259.429688 537.738281 262.863281 537.714844 266.296875 L 537.707031 269.421875 C 537.703125 272.730469 537.6875 276.039062 537.671875 279.347656 C 537.667969 281.582031 537.660156 283.820312 537.65625 286.058594 C 537.644531 291.554688 537.625 297.050781 537.601562 302.546875 L 550.398438 302.546875 L 550.398438 309.527344 L 528.289062 309.527344 C 526.980469 299.054688 526.980469 299.054688 527.101562 294.996094 L 527.171875 292.242188 L 527.269531 289.382812 L 527.351562 286.371094 C 527.441406 283.226562 527.535156 280.085938 527.636719 276.945312 L 527.820312 270.515625 C 527.96875 265.289062 528.128906 260.0625 528.289062 254.835938 M 363.054688 166.398438 C 365.769531 166.351562 368.484375 166.351562 371.199219 166.398438 L 372.363281 167.5625 C 372.476562 169.199219 372.511719 170.84375 372.515625 172.484375 L 372.523438 175.648438 L 372.519531 179.089844 L 372.523438 182.601562 C 372.523438 185.054688 372.519531 187.507812 372.515625 189.960938 C 372.507812 193.730469 372.515625 197.5 372.523438 201.269531 C 372.523438 203.644531 372.519531 206.023438 372.519531 208.398438 L 372.523438 211.839844 L 372.511719 215.007812 L 372.511719 217.808594 L 372.363281 219.925781 L 371.199219 221.089844 C 368.484375 221.136719 365.769531 221.136719 363.054688 221.089844 C 362.132812 208.480469 361.765625 195.914062 361.746094 183.273438 L 361.730469 179.042969 L 361.734375 175.089844 L 361.742188 171.542969 C 361.890625 168.726562 361.890625 168.726562 363.054688 166.398438 " fill-opacity="1" fill-rule="nonzero"/><path fill="#dea83a" d="M 468.945312 84.945312 C 471.78125 84.507812 471.78125 84.507812 474.761719 84.945312 C 476.667969 86.871094 476.667969 86.871094 478.253906 89.601562 C 478.707031 92.8125 478.707031 92.8125 478.71875 96.46875 L 478.730469 100.480469 L 478.691406 104.65625 L 478.730469 108.816406 L 478.71875 112.832031 L 478.707031 116.492188 C 478.1875 120.355469 477.117188 122.578125 474.761719 125.671875 C 471.78125 126.183594 471.78125 126.183594 468.945312 125.671875 L 466.617188 123.34375 C 466.316406 119.808594 466.316406 119.808594 466.308594 115.308594 L 466.304688 112.910156 C 466.300781 111.234375 466.304688 109.558594 466.3125 107.886719 C 466.328125 105.320312 466.3125 102.753906 466.300781 100.1875 C 466.300781 98.5625 466.304688 96.933594 466.308594 95.308594 L 466.316406 90.8125 L 466.617188 87.273438 Z M 252 84.507812 L 254.835938 84.945312 C 257.164062 88.4375 257.164062 88.4375 257.464844 91.75 L 257.472656 95.742188 L 257.480469 100.097656 L 257.453125 104.652344 L 257.480469 109.199219 L 257.472656 113.558594 L 257.464844 117.554688 C 257.175781 120.90625 256.578125 122.839844 254.835938 125.671875 C 252.144531 126.035156 252.144531 126.035156 249.019531 125.671875 C 247.105469 123.199219 247.105469 123.199219 245.527344 119.855469 C 245.074219 116.363281 245.074219 116.363281 245.0625 112.535156 L 245.050781 108.347656 L 245.089844 104 L 245.050781 99.628906 L 245.0625 95.445312 L 245.074219 91.625 C 245.527344 88.4375 245.527344 88.4375 247.117188 86.28125 C 249.019531 84.945312 249.019531 84.945312 252 84.507812 M 430.546875 84.945312 C 434.546875 84.726562 434.546875 84.726562 438.691406 84.945312 L 441.019531 87.273438 C 441.347656 90.6875 441.550781 93.261719 441.019531 96.582031 C 439.054688 99.492188 439.054688 99.492188 436.363281 101.238281 C 433.285156 101.347656 433.285156 101.347656 430.546875 101.238281 C 430.320312 98.738281 430.101562 96.242188 429.890625 93.746094 L 429.523438 89.53125 L 429.382812 86.109375 Z M 335.128906 173.382812 C 337.453125 173.328125 339.78125 173.332031 342.109375 173.382812 L 344.289062 174.617188 C 345.601562 176.871094 345.601562 176.871094 346.035156 180.875 C 345.601562 185.019531 345.601562 185.019531 344.21875 187.78125 C 342.109375 189.671875 342.109375 189.671875 339.054688 190.617188 L 336.289062 190.835938 L 335.128906 189.671875 C 335.046875 186.933594 335.023438 184.195312 335.054688 181.457031 L 335.085938 176.90625 Z M 555.054688 173.382812 C 562.035156 173.382812 562.035156 173.382812 564.21875 174.617188 C 565.527344 176.871094 565.527344 176.871094 565.964844 180.875 C 565.527344 185.019531 565.527344 185.019531 564.074219 187.78125 C 562.035156 189.671875 562.035156 189.671875 559.636719 190.617188 L 557.382812 190.835938 L 555.054688 189.671875 Z M 555.054688 173.382812 " fill-opacity="1" fill-rule="nonzero"/><path fill="#fefefe" d="M 448 238.546875 C 450.714844 238.5 453.429688 238.5 456.144531 238.546875 C 454.457031 243.332031 452.210938 247.28125 449.164062 251.34375 L 445.671875 252.507812 L 443.34375 249.019531 C 443.839844 246.679688 443.839844 246.679688 444.875 244.21875 L 445.878906 241.734375 C 446.835938 239.710938 446.835938 239.710938 448 238.546875 " fill-opacity="1" fill-rule="nonzero"/><path fill="#dea83a" d="M 594.617188 181.527344 L 596.945312 181.527344 L 599.273438 202.472656 L 592.289062 202.472656 C 593.414062 187.730469 593.414062 187.730469 594.617188 181.527344 M 265.308594 181.527344 L 267.636719 181.527344 C 269.53125 188.679688 270.199219 195.070312 269.964844 202.472656 L 264.144531 202.472656 Z M 444.507812 271.128906 L 446.835938 271.128906 C 449.507812 284.535156 449.507812 284.535156 449.164062 290.910156 L 442.183594 289.746094 Z M 444.507812 271.128906 " fill-opacity="1" fill-rule="nonzero"/></svg>