<svg xmlns="http://www.w3.org/2000/svg" xmlns:xlink="http://www.w3.org/1999/xlink" width="1024" zoomAndPan="magnify" viewBox="0 0 768 767.999994" height="1024" preserveAspectRatio="xMidYMid meet" version="1.0"><rect x="-76.8" width="921.6" fill="#ffffff" y="-76.799999" height="921.599993" fill-opacity="1"/><rect x="-76.8" width="921.6" fill="#ffffff" y="-76.799999" height="921.599993" fill-opacity="1"/><rect x="-76.8" width="921.6" fill="#4c9f38" y="-76.799999" height="921.599993" fill-opacity="1"/><path fill="#fefefe" d="M 516.640625 290.3125 C 519.34375 291.148438 519.34375 291.148438 521.273438 293.191406 C 523.390625 295.878906 525.007812 298.738281 526.574219 301.769531 L 527.480469 303.5 C 530.300781 308.976562 532.832031 314.578125 535.347656 320.195312 C 537.96875 326.03125 540.757812 331.753906 543.660156 337.449219 C 548.738281 347.4375 553.71875 357.46875 558.515625 367.59375 C 560.460938 371.695312 562.4375 375.78125 564.453125 379.851562 L 565.765625 382.519531 C 566.597656 384.21875 567.441406 385.910156 568.292969 387.601562 C 570.441406 391.992188 571.9375 395.609375 572.066406 400.523438 C 571.160156 403.054688 570.175781 404.703125 568.425781 406.722656 C 565.957031 407.890625 563.949219 408.140625 561.230469 408.007812 C 559.476562 407.605469 559.476562 407.605469 557.066406 405.640625 C 553.917969 401.296875 551.703125 396.328125 549.40625 391.5 C 548.375 389.332031 547.332031 387.167969 546.289062 385.003906 C 543.4375 379.085938 540.605469 373.160156 537.773438 367.230469 C 532.058594 355.261719 532.058594 355.261719 526.179688 343.378906 C 524.109375 339.273438 522.09375 335.140625 520.132812 330.984375 L 519.40625 329.464844 C 517.769531 325.957031 517.769531 325.957031 517.769531 324.195312 L 516.195312 324.195312 L 515.945312 326.460938 C 515.394531 330.265625 514.269531 333.859375 513.148438 337.527344 L 512.414062 339.960938 C 511.871094 341.757812 511.328125 343.550781 510.78125 345.347656 C 509.875 348.339844 508.96875 351.332031 508.066406 354.324219 L 507.078125 357.597656 L 506.5625 359.300781 L 504.945312 364.660156 C 501.632812 375.625 498.339844 386.59375 495.050781 397.5625 L 494.226562 400.308594 L 490.875 411.496094 C 481.660156 442.261719 472.410156 473.019531 463.128906 503.765625 C 459.125 517.035156 455.128906 530.308594 451.128906 543.582031 L 445.484375 562.332031 L 444.867188 564.382812 C 441.996094 573.917969 439.121094 583.453125 436.246094 592.988281 L 435.722656 594.726562 L 430.4375 612.246094 L 429.574219 615.097656 C 429.03125 616.898438 428.488281 618.695312 427.941406 620.496094 C 426.710938 624.539062 425.515625 628.59375 424.363281 632.660156 L 423.726562 634.875 C 423.34375 636.214844 422.96875 637.558594 422.605469 638.90625 C 421.839844 641.570312 421.1875 643.410156 419.464844 645.617188 C 417.835938 646.820312 417.835938 646.820312 414.789062 647.558594 C 412.339844 647.753906 411.335938 647.527344 408.933594 646.621094 C 407.105469 645.429688 405.835938 644.546875 404.460938 642.886719 C 403.914062 641.144531 403.914062 641.144531 403.550781 639.066406 L 403.117188 636.660156 L 402.667969 634 L 402.167969 631.167969 C 401.707031 628.550781 401.257812 625.929688 400.8125 623.3125 C 400.425781 621.046875 400.03125 618.785156 399.636719 616.523438 C 398.3125 608.871094 397 601.210938 395.703125 593.550781 L 394.625 587.21875 C 393.367188 579.824219 392.113281 572.433594 390.859375 565.039062 C 389.695312 558.183594 388.527344 551.328125 387.359375 544.476562 C 386.347656 538.546875 385.339844 532.617188 384.335938 526.683594 C 383.734375 523.160156 383.136719 519.636719 382.535156 516.113281 C 381.972656 512.8125 381.410156 509.511719 380.855469 506.207031 C 380.648438 505.003906 380.445312 503.800781 380.238281 502.59375 C 379.128906 496.128906 378.15625 489.699219 377.707031 483.148438 L 376.132812 483.148438 L 375.847656 484.902344 C 375.351562 487.050781 374.691406 488.5625 373.617188 490.476562 L 372.519531 492.460938 L 371.3125 494.605469 C 370.449219 496.164062 369.585938 497.722656 368.722656 499.28125 L 367.332031 501.789062 C 365.105469 505.84375 362.925781 509.921875 360.75 514.003906 C 356.1875 522.574219 351.570312 531.113281 346.902344 539.625 C 345.34375 542.472656 343.804688 545.328125 342.285156 548.195312 L 341.113281 550.382812 C 340.382812 551.746094 339.660156 553.113281 338.941406 554.484375 C 337.496094 557.171875 336.195312 559.28125 334.03125 561.457031 C 332.066406 562.621094 332.066406 562.621094 330.097656 563.066406 L 328.132812 563.066406 L 326.164062 563.117188 C 324.195312 562.621094 324.195312 562.621094 322.207031 561.160156 C 319.898438 558.230469 319.515625 556.21875 318.980469 552.59375 L 318.667969 550.136719 L 318.292969 547.519531 C 318.023438 545.652344 317.765625 543.785156 317.511719 541.917969 C 317.113281 539.035156 316.699219 536.152344 316.269531 533.273438 C 315.425781 527.585938 314.59375 521.898438 313.777344 516.207031 C 313.367188 513.371094 312.957031 510.535156 312.542969 507.695312 C 311.773438 502.363281 311 497.027344 310.230469 491.6875 C 309.347656 485.597656 308.46875 479.507812 307.585938 473.417969 C 305.777344 460.925781 303.96875 448.429688 302.164062 435.933594 C 297.386719 445.367188 297.386719 445.367188 292.941406 454.953125 L 292.226562 456.574219 C 291.726562 457.703125 291.226562 458.835938 290.730469 459.964844 C 289.941406 461.761719 289.148438 463.558594 288.355469 465.351562 C 286.949219 468.53125 285.546875 471.710938 284.144531 474.890625 C 281.824219 480.148438 279.5 485.40625 277.175781 490.664062 C 276.359375 492.507812 275.546875 494.355469 274.734375 496.199219 L 273.230469 499.59375 L 272.554688 501.140625 C 271.949219 502.492188 271.324219 503.839844 270.6875 505.179688 L 269.644531 507.398438 C 268.328125 509.113281 268.328125 509.113281 266.222656 509.996094 C 263.441406 510.734375 261.097656 510.886719 258.226562 510.894531 C 257.703125 510.898438 257.183594 510.898438 256.644531 510.902344 C 254.90625 510.910156 253.167969 510.90625 251.429688 510.90625 C 250.179688 510.910156 248.929688 510.914062 247.679688 510.917969 C 244.292969 510.925781 240.902344 510.925781 237.515625 510.925781 C 234.6875 510.925781 231.855469 510.929688 229.027344 510.933594 C 222.351562 510.941406 215.679688 510.941406 209.003906 510.9375 C 202.117188 510.933594 195.234375 510.941406 188.347656 510.957031 C 182.433594 510.972656 176.519531 510.976562 170.605469 510.972656 C 167.074219 510.972656 163.542969 510.976562 160.011719 510.984375 C 156.691406 510.996094 153.371094 510.996094 150.054688 510.984375 C 148.835938 510.980469 147.617188 510.984375 146.398438 510.992188 C 144.738281 511 143.074219 510.992188 141.410156 510.984375 L 138.59375 510.984375 C 135.859375 510.65625 134.398438 509.953125 132.195312 508.328125 C 130.769531 506.558594 130.769531 506.558594 129.835938 504.394531 C 129.441406 501.6875 129.441406 501.6875 129.835938 498.886719 C 130.976562 497 132.1875 495.746094 133.769531 494.164062 C 135.941406 493.078125 137.703125 493.265625 140.132812 493.253906 L 143.230469 493.230469 L 146.648438 493.214844 L 150.230469 493.191406 C 153.476562 493.171875 156.726562 493.152344 159.972656 493.136719 C 163.367188 493.121094 166.757812 493.101562 170.148438 493.078125 C 176.574219 493.039062 183.003906 493.003906 189.429688 492.96875 C 196.742188 492.929688 204.058594 492.886719 211.375 492.84375 C 226.425781 492.753906 241.472656 492.671875 256.523438 492.589844 L 257.40625 490.550781 L 262.117188 479.667969 C 265.832031 471.074219 269.625 462.511719 273.492188 453.984375 C 274.691406 451.328125 275.890625 448.671875 277.089844 446.015625 L 278.019531 443.960938 C 280.4375 438.589844 282.832031 433.207031 285.210938 427.820312 L 286.292969 425.375 C 288.035156 421.445312 289.769531 417.511719 291.503906 413.574219 L 293.402344 409.277344 L 294.261719 407.316406 C 298.445312 397.882812 298.445312 397.882812 301.121094 395.335938 C 303.59375 393.964844 305.335938 393.441406 308.164062 393.394531 C 310.820312 394.230469 310.820312 394.230469 312.855469 395.742188 C 315.070312 398.570312 315.492188 400.484375 316.035156 403.972656 L 316.351562 406.316406 L 316.726562 408.820312 C 316.992188 410.621094 317.253906 412.421875 317.503906 414.222656 C 317.902344 417.070312 318.324219 419.914062 318.746094 422.757812 C 319.597656 428.492188 320.421875 434.230469 321.238281 439.96875 C 321.566406 442.253906 321.890625 444.539062 322.21875 446.824219 C 322.992188 452.207031 323.761719 457.589844 324.527344 462.972656 C 325.316406 468.507812 326.109375 474.046875 326.902344 479.582031 C 327.589844 484.371094 328.273438 489.160156 328.957031 493.949219 C 329.363281 496.792969 329.773438 499.640625 330.179688 502.484375 C 330.632812 505.640625 331.082031 508.796875 331.53125 511.953125 L 331.9375 514.785156 L 332.304688 517.386719 L 332.628906 519.640625 C 332.847656 521.660156 332.894531 523.613281 332.851562 525.640625 L 334.425781 525.640625 L 335.0625 523.570312 C 335.984375 520.964844 337.089844 518.675781 338.402344 516.246094 L 339.855469 513.550781 L 341.410156 510.6875 L 343.019531 507.707031 C 344.609375 504.765625 346.203125 501.824219 347.804688 498.886719 L 349.105469 496.492188 C 350.636719 493.683594 352.167969 490.871094 353.703125 488.0625 C 356.328125 483.269531 358.921875 478.460938 361.507812 473.644531 C 363.75 469.460938 366.003906 465.285156 368.261719 461.113281 L 369.308594 459.179688 C 370.164062 457.605469 371.03125 456.039062 371.902344 454.476562 L 373.261719 452.019531 C 374.585938 450.058594 375.695312 448.960938 377.703125 447.738281 C 380.207031 447.046875 381.902344 446.835938 384.441406 447.394531 C 386.976562 448.890625 388.6875 450.8125 390.296875 453.246094 C 391.097656 455.804688 391.097656 455.804688 391.554688 458.671875 L 391.832031 460.3125 C 392.136719 462.164062 392.425781 464.015625 392.710938 465.867188 C 392.933594 467.234375 393.160156 468.601562 393.386719 469.96875 C 393.90625 473.09375 394.417969 476.222656 394.921875 479.347656 C 395.890625 485.28125 396.90625 491.207031 397.925781 497.132812 L 399.378906 505.550781 C 400.484375 511.988281 401.585938 518.425781 402.683594 524.863281 L 404.214844 533.855469 C 405.050781 538.753906 405.890625 543.648438 406.726562 548.542969 C 407.546875 553.332031 408.367188 558.121094 409.183594 562.910156 C 409.664062 565.742188 410.148438 568.574219 410.636719 571.40625 C 411.171875 574.539062 411.707031 577.671875 412.238281 580.804688 L 412.714844 583.578125 C 415.089844 597.613281 415.089844 597.613281 413.902344 601.179688 L 415.476562 601.179688 L 415.675781 598.6875 C 416.296875 593.773438 417.878906 589.128906 419.34375 584.414062 L 420.308594 581.269531 C 421 579.011719 421.695312 576.757812 422.390625 574.503906 C 423.515625 570.855469 424.636719 567.207031 425.753906 563.558594 L 426.328125 561.675781 L 427.496094 557.867188 C 428.089844 555.929688 428.683594 553.996094 429.277344 552.058594 C 433.019531 539.851562 436.710938 527.628906 440.386719 515.402344 C 441.808594 510.671875 443.234375 505.941406 444.65625 501.210938 C 445.035156 499.960938 445.410156 498.710938 445.789062 497.457031 C 450.863281 480.597656 455.957031 463.738281 461.046875 446.882812 C 465.554688 431.953125 470.0625 417.023438 474.566406 402.089844 L 476.613281 395.316406 C 478.765625 388.179688 480.921875 381.046875 483.074219 373.910156 C 483.953125 370.988281 484.835938 368.066406 485.714844 365.148438 C 489.1875 353.652344 492.644531 342.148438 496.027344 330.625 L 497.457031 325.769531 L 497.921875 324.191406 L 498.839844 321.082031 C 499.839844 317.683594 500.828125 314.28125 501.816406 310.875 L 503.34375 305.695312 L 504.011719 303.351562 C 505.21875 299.289062 506.460938 296.046875 509.113281 292.722656 C 511.808594 290.863281 513.363281 290.367188 516.640625 290.3125 " fill-opacity="1" fill-rule="nonzero"/><path fill="#fefefe" d="M 0 0 L 768 0 L 768 768 L 0 768 Z M 15.492188 9.195312 C 12.015625 12.1875 8.898438 15.410156 7.082031 19.671875 C 5.945312 27.117188 6.183594 34.773438 6.195312 42.289062 L 6.191406 45.96875 C 6.1875 49.332031 6.1875 52.691406 6.191406 56.050781 C 6.191406 59.710938 6.1875 63.371094 6.183594 67.027344 C 6.179688 73.4375 6.179688 79.847656 6.179688 86.261719 C 6.179688 95.792969 6.179688 105.324219 6.175781 114.855469 C 6.167969 132.867188 6.164062 150.882812 6.164062 168.894531 C 6.167969 187.808594 6.164062 206.71875 6.15625 225.632812 C 6.144531 262.789062 6.144531 299.863281 6.148438 336.867188 C 6.15625 379.394531 6.148438 421.921875 6.125 464.453125 L 6.125 466.050781 C 6.125 498.507812 6.121094 530.964844 6.117188 563.425781 L 6.117188 566.410156 C 6.117188 582.285156 6.113281 598.15625 6.105469 614.03125 C 6.097656 629.96875 6.097656 645.910156 6.101562 661.851562 C 6.105469 671.328125 6.101562 680.800781 6.097656 690.28125 C 6.089844 696.605469 6.09375 702.929688 6.097656 709.25 C 6.101562 712.859375 6.101562 716.464844 6.09375 720.074219 C 6.089844 723.351562 6.089844 726.632812 6.097656 729.914062 C 6.097656 731.09375 6.097656 732.273438 6.09375 733.453125 C 6.070312 740.261719 6.402344 745.902344 8.753906 752.3125 C 10.8125 755.535156 13.414062 757.921875 16.523438 760.132812 C 28.472656 765.890625 47.628906 762.605469 60.804688 762.59375 C 64.402344 762.589844 67.996094 762.59375 71.589844 762.597656 C 77.882812 762.597656 84.171875 762.597656 90.464844 762.597656 C 99.816406 762.59375 109.171875 762.59375 118.527344 762.597656 C 135.234375 762.601562 151.945312 762.601562 168.652344 762.597656 C 183.273438 762.597656 197.894531 762.597656 212.515625 762.597656 L 227.273438 762.597656 C 263.683594 762.601562 300.097656 762.597656 336.511719 762.59375 C 369.847656 762.589844 403.1875 762.589844 436.527344 762.59375 C 477.335938 762.597656 518.144531 762.597656 558.949219 762.597656 L 561.882812 762.597656 C 576.496094 762.597656 591.109375 762.597656 605.71875 762.597656 C 622.335938 762.601562 638.949219 762.601562 655.5625 762.597656 C 664.863281 762.59375 674.160156 762.59375 683.453125 762.597656 C 689.667969 762.597656 695.878906 762.597656 702.089844 762.59375 C 705.625 762.59375 709.164062 762.59375 712.703125 762.59375 C 715.925781 762.597656 719.148438 762.597656 722.375 762.59375 C 723.527344 762.59375 724.679688 762.59375 725.835938 762.59375 C 739.089844 763.128906 739.089844 763.128906 751.871094 760.476562 C 755.292969 758.425781 757.8125 755.464844 760.132812 752.261719 C 763.644531 745.875 762.605469 737.324219 762.589844 730.28125 C 762.589844 729.074219 762.59375 727.871094 762.59375 726.664062 C 762.597656 723.34375 762.597656 720.023438 762.59375 716.703125 C 762.59375 713.09375 762.59375 709.484375 762.597656 705.875 C 762.597656 699.546875 762.597656 693.21875 762.597656 686.890625 C 762.59375 677.480469 762.59375 668.066406 762.597656 658.65625 C 762.601562 641.847656 762.601562 625.039062 762.601562 608.230469 C 762.597656 593.511719 762.597656 578.796875 762.597656 564.078125 L 762.597656 549.242188 C 762.609375 512.597656 762.609375 475.953125 762.59375 439.308594 C 762.574219 397.292969 762.574219 355.292969 762.597656 313.316406 L 762.597656 311.742188 C 762.601562 279.667969 762.601562 247.59375 762.597656 215.519531 L 762.597656 212.566406 C 762.597656 197.867188 762.597656 183.167969 762.601562 168.46875 C 762.601562 151.746094 762.601562 135.019531 762.597656 118.292969 C 762.59375 108.9375 762.59375 99.585938 762.597656 90.230469 C 762.597656 83.972656 762.597656 77.714844 762.59375 71.460938 C 762.59375 67.898438 762.59375 64.339844 762.59375 60.78125 C 762.605469 52.585938 762.570312 44.390625 762.492188 36.195312 L 762.472656 33.480469 C 762.449219 31.164062 762.402344 28.847656 762.339844 26.53125 L 762.324219 24.636719 C 762.195312 21.285156 761.550781 19.070312 759.789062 16.195312 C 758.371094 14.105469 756.949219 12.3125 754.964844 10.722656 L 753.636719 9.621094 C 751.609375 8.195312 749.800781 7.207031 747.34375 6.757812 C 740.984375 6.238281 734.644531 6.183594 728.273438 6.195312 L 724.597656 6.191406 C 721.238281 6.1875 717.878906 6.1875 714.519531 6.191406 C 710.859375 6.191406 707.203125 6.1875 703.546875 6.183594 C 697.136719 6.179688 690.730469 6.179688 684.320312 6.179688 C 674.792969 6.179688 665.261719 6.179688 655.730469 6.175781 C 637.722656 6.167969 619.714844 6.164062 601.703125 6.164062 C 582.796875 6.167969 563.886719 6.164062 544.972656 6.15625 C 507.890625 6.144531 470.816406 6.140625 433.742188 6.148438 C 391.21875 6.152344 348.699219 6.144531 306.183594 6.125 L 304.585938 6.125 C 272.125 6.101562 239.671875 6.097656 207.222656 6.113281 L 204.234375 6.113281 C 188.367188 6.113281 172.5 6.109375 156.628906 6.101562 C 140.691406 6.097656 124.75 6.09375 108.808594 6.101562 C 99.335938 6.105469 89.859375 6.101562 80.386719 6.09375 C 74.0625 6.089844 67.734375 6.089844 61.410156 6.097656 C 57.804688 6.101562 54.199219 6.101562 50.59375 6.09375 C 47.3125 6.089844 44.027344 6.089844 40.746094 6.097656 C 39.566406 6.097656 38.390625 6.097656 37.210938 6.09375 C 26.023438 5.929688 26.023438 5.929688 15.492188 9.195312 " fill-opacity="1" fill-rule="nonzero"/><path fill="#fefefe" d="M 553.96875 441.835938 C 561.472656 445.226562 567.53125 450.808594 573.46875 456.390625 C 575.078125 457.988281 575.078125 457.988281 576.785156 458.753906 L 577.277344 457.445312 C 578.769531 454.914062 580.847656 453.226562 583.082031 451.378906 L 584.46875 450.222656 C 589.699219 445.9375 595.175781 441.847656 601.96875 440.65625 C 608.128906 440.222656 613.992188 440.496094 619.644531 443.136719 C 625.710938 446.511719 630.648438 450.722656 634.265625 456.6875 C 638.917969 465.3125 640.226562 473.027344 639.984375 482.742188 C 639.628906 489.769531 637.304688 496.359375 633.496094 502.261719 C 628.644531 508.625 622.949219 514.28125 617.070312 519.695312 C 611.550781 524.78125 606.214844 530.019531 600.949219 535.375 L 598.832031 537.519531 C 595.933594 540.457031 593.042969 543.402344 590.160156 546.355469 C 588.027344 548.539062 585.886719 550.714844 583.738281 552.882812 L 581.761719 554.929688 L 579.917969 556.777344 L 578.3125 558.417969 L 576.785156 559.476562 C 575.261719 559.273438 575.261719 559.273438 573.640625 558.6875 C 571.90625 557.179688 570.230469 555.605469 568.613281 553.96875 L 567.109375 552.476562 C 565.464844 550.839844 563.828125 549.199219 562.191406 547.554688 C 561.046875 546.410156 559.902344 545.269531 558.757812 544.128906 C 556.355469 541.726562 553.953125 539.324219 551.558594 536.917969 C 548.503906 533.851562 545.441406 530.792969 542.375 527.738281 C 540.003906 525.375 537.636719 523.011719 535.277344 520.640625 C 534.148438 519.511719 533.023438 518.386719 531.894531 517.261719 C 515.402344 500.839844 515.402344 500.839844 512.261719 489.441406 C 510.402344 482.078125 510.65625 473.171875 512.707031 465.886719 C 515.066406 459.328125 518.46875 453.785156 523.574219 449.015625 C 528.375 445.046875 533.3125 441.988281 539.503906 440.878906 C 544.546875 440.277344 549.128906 440.101562 553.96875 441.835938 M 122.65625 72.886719 C 127.875 75.496094 132.375 79.890625 136.03125 84.394531 C 139.492188 89.640625 141.195312 96.882812 141.640625 103.082031 C 142.113281 111.742188 141.160156 119.761719 137.558594 127.722656 C 135.421875 131.675781 132.609375 134.953125 129.050781 137.703125 C 126.886719 138.664062 126.886719 138.664062 125.113281 139.277344 L 126.5 140.289062 C 131.753906 144.234375 136.023438 147.875 138.6875 153.984375 C 142.515625 164.589844 142.554688 176.0625 140.707031 187.082031 C 139.277344 194.671875 137.097656 201.253906 132.050781 207.246094 C 127.488281 211.949219 122.550781 215.046875 116.3125 217.03125 C 106.761719 219.558594 97.632812 219.128906 88.089844 216.824219 C 82.886719 215.359375 78.097656 212.8125 74.066406 209.214844 C 69.09375 203.695312 66.511719 196.632812 64.9375 189.480469 C 63.714844 182.953125 63.644531 176.601562 63.738281 169.96875 C 66.695312 169 69.441406 169.160156 72.527344 169.277344 L 74.15625 169.332031 C 75.863281 169.390625 77.570312 169.457031 79.277344 169.523438 C 80.4375 169.566406 81.601562 169.609375 82.761719 169.648438 C 85.601562 169.75 88.441406 169.855469 91.277344 169.96875 L 91.539062 173.015625 L 91.917969 177.050781 L 92.085938 179.050781 C 92.515625 183.480469 93.371094 187.144531 95.214844 191.214844 C 96.285156 192.542969 96.285156 192.542969 97.574219 193.574219 C 100.367188 194.503906 102.507812 194.511719 105.441406 194.359375 C 107.757812 193.730469 109.011719 193.152344 110.707031 191.460938 C 113.707031 186.167969 113.574219 180.714844 113.558594 174.785156 L 113.59375 172.3125 C 113.597656 167.238281 113.121094 162.800781 110.949219 158.164062 C 109.296875 155.925781 107.941406 154.652344 105.410156 153.496094 C 101.511719 152.089844 97.742188 151.550781 93.640625 151.082031 C 93.617188 147.820312 93.601562 144.558594 93.589844 141.296875 L 93.570312 138.472656 L 93.5625 135.789062 L 93.550781 133.304688 L 93.640625 131.410156 L 94.425781 130.621094 C 95.914062 130.496094 97.410156 130.40625 98.902344 130.328125 C 101.753906 130.105469 103.914062 129.820312 106.621094 128.851562 C 108.894531 127.261719 110.246094 125.882812 111.738281 123.539062 C 113.449219 118.828125 113.597656 114.410156 113.605469 109.425781 L 113.664062 107.160156 C 113.683594 102.746094 113.15625 99.53125 111.015625 95.652344 C 110.125 94.265625 110.125 94.265625 108.394531 92.851562 C 105.480469 91.792969 103 91.625 99.933594 92.066406 C 97.699219 92.789062 97.699219 92.789062 96 94.425781 C 93.722656 97.667969 92.660156 100.144531 92.199219 104.085938 C 92.078125 105.570312 91.964844 107.054688 91.867188 108.539062 L 91.683594 110.855469 C 91.539062 112.722656 91.402344 114.589844 91.277344 116.460938 C 84.761719 117.0625 78.296875 117.332031 71.753906 117.34375 L 69.632812 117.355469 C 67.929688 117.34375 66.226562 117.308594 64.523438 117.246094 L 63.738281 116.460938 C 63.257812 105.972656 63.582031 96.089844 68.460938 86.558594 C 71.605469 81.597656 75.316406 77.898438 80.261719 74.753906 L 81.617188 73.851562 C 93.398438 66.964844 110.34375 68.109375 122.65625 72.886719 M 312.394531 70.820312 C 319.660156 70.4375 327.414062 70.273438 334.425781 72.394531 C 337.167969 73.835938 338.765625 75.726562 340.429688 78.347656 C 341.84375 81.882812 341.847656 84.917969 341.820312 88.691406 L 341.828125 90.902344 C 341.832031 92.441406 341.824219 93.976562 341.816406 95.515625 C 341.804688 97.855469 341.816406 100.195312 341.832031 102.535156 C 341.828125 104.035156 341.828125 105.535156 341.820312 107.035156 L 341.835938 109.132812 C 341.785156 113.667969 341.058594 117.046875 339.148438 121.179688 C 336.75 123.746094 335 124.929688 331.65625 126 C 327.609375 126.945312 323.609375 126.859375 319.476562 126.785156 L 317.171875 126.765625 C 315.316406 126.746094 313.460938 126.722656 311.605469 126.6875 C 310.734375 123.898438 310.746094 121.339844 310.789062 118.429688 L 310.832031 115.285156 C 310.847656 114.15625 310.867188 113.027344 310.886719 111.902344 L 310.9375 108.425781 C 310.972656 106.003906 311.011719 103.582031 311.054688 101.15625 C 311.105469 98.046875 311.152344 94.933594 311.195312 91.824219 C 311.226562 89.433594 311.265625 87.042969 311.304688 84.65625 C 311.320312 83.507812 311.335938 82.359375 311.355469 81.210938 C 311.378906 79.613281 311.402344 78.011719 311.433594 76.414062 L 311.476562 73.652344 L 311.605469 71.605469 Z M 206.164062 161.3125 C 208.386719 161.09375 210.617188 161.011719 212.851562 161.066406 C 213.492188 161.074219 214.132812 161.082031 214.792969 161.09375 C 220.359375 161.21875 225.628906 161.355469 230.507812 164.261719 C 232.515625 166.453125 233.527344 167.910156 234.492188 170.753906 C 234.921875 175.0625 234.910156 178.917969 233.558594 183.050781 C 232.132812 184.917969 232.132812 184.917969 230.015625 186 L 228.195312 186.492188 L 228.195312 188.066406 L 229.523438 188.214844 C 232.152344 189.136719 233.480469 190.695312 235.277344 192.785156 C 236.765625 196.984375 236.363281 201.789062 236.066406 206.164062 C 235.386719 209.054688 234.117188 211.148438 232.277344 213.492188 C 230.183594 215.109375 228.382812 215.671875 225.835938 216.394531 C 223.421875 216.644531 223.421875 216.644531 220.898438 216.71875 L 218.148438 216.8125 L 215.3125 216.886719 L 212.417969 216.976562 C 210.070312 217.050781 207.722656 217.117188 205.378906 217.179688 C 204.675781 214.171875 204.484375 211.375 204.476562 208.285156 L 204.460938 205.300781 L 204.457031 202.101562 L 204.449219 198.800781 C 204.445312 196.5 204.445312 194.199219 204.445312 191.898438 C 204.445312 188.949219 204.433594 186 204.421875 183.054688 C 204.414062 180.785156 204.410156 178.515625 204.410156 176.246094 C 204.410156 175.15625 204.40625 174.070312 204.398438 172.984375 C 204.390625 171.464844 204.394531 169.945312 204.398438 168.429688 L 204.394531 165.8125 C 204.589844 163.671875 204.589844 163.671875 206.164062 161.3125 M 273.050781 161.3125 C 274.773438 161.382812 276.492188 161.503906 278.214844 161.65625 L 281.066406 161.898438 L 283.277344 162.097656 L 283.84375 164.867188 C 284.835938 169.722656 285.832031 174.582031 286.824219 179.4375 C 287.253906 181.546875 287.6875 183.65625 288.121094 185.765625 L 288.523438 187.75 L 289.238281 191.242188 C 289.578125 192.816406 289.960938 194.375 290.359375 195.933594 C 291.71875 192.128906 292.628906 188.328125 293.464844 184.382812 L 293.882812 182.445312 C 294.316406 180.417969 294.75 178.390625 295.179688 176.359375 L 296.070312 172.21875 C 296.792969 168.84375 297.511719 165.472656 298.230469 162.097656 C 301.898438 161.394531 304.765625 161.433594 308.460938 162.097656 C 309.164062 165.136719 309.363281 167.988281 309.40625 171.101562 L 309.453125 174.15625 L 309.496094 177.433594 L 309.542969 180.804688 C 309.585938 183.753906 309.628906 186.699219 309.664062 189.648438 C 309.703125 192.660156 309.746094 195.671875 309.792969 198.683594 C 309.875 204.585938 309.957031 210.488281 310.03125 216.394531 C 308.867188 216.414062 307.703125 216.429688 306.542969 216.441406 L 304.578125 216.46875 L 302.949219 216.394531 L 302.164062 215.605469 C 302.03125 213.332031 301.9375 211.058594 301.886719 208.78125 L 301.832031 206.699219 C 301.792969 205.238281 301.757812 203.777344 301.726562 202.316406 C 301.671875 200.085938 301.613281 197.855469 301.550781 195.625 C 301.515625 194.207031 301.480469 192.789062 301.445312 191.371094 L 301.386719 189.355469 C 301.320312 186.179688 301.351562 183.296875 302.164062 180.195312 L 300.589844 180.195312 L 300.371094 183.214844 C 299.714844 189.789062 298.289062 196.246094 297 202.722656 L 296.214844 206.707031 C 295.578125 209.9375 294.9375 213.164062 294.296875 216.394531 L 287.214844 216.394531 C 286.308594 212.125 285.414062 207.855469 284.523438 203.585938 C 284.222656 202.132812 283.914062 200.683594 283.609375 199.230469 C 283.164062 197.140625 282.726562 195.050781 282.296875 192.957031 L 281.878906 191.007812 C 281.121094 187.324219 280.777344 183.957031 280.917969 180.195312 L 279.34375 180.195312 L 279.355469 183.265625 C 279.371094 187.019531 279.378906 190.769531 279.386719 194.523438 C 279.390625 196.148438 279.398438 197.773438 279.402344 199.398438 C 279.414062 201.730469 279.417969 204.066406 279.421875 206.402344 L 279.433594 208.605469 L 279.433594 210.660156 L 279.4375 212.464844 C 279.34375 214.03125 279.34375 214.03125 278.558594 216.394531 L 271.476562 216.394531 C 271.324219 186.175781 271.324219 186.175781 271.820312 171.589844 L 271.914062 168.6875 C 272.097656 163.792969 272.097656 163.792969 272.261719 162.097656 Z M 467.410156 161.3125 C 485.511719 160.476562 485.511719 160.476562 491.714844 163.644531 C 493.457031 164.898438 494.691406 166.367188 495.753906 168.226562 C 497.210938 171.578125 497.675781 174.796875 497.539062 178.4375 C 497.164062 181.332031 496.363281 183.929688 494.949219 186.492188 L 493.179688 188.066406 L 491.804688 189.640625 C 492.082031 195.207031 493.777344 200.363281 495.394531 205.671875 C 495.90625 207.367188 496.414062 209.0625 496.921875 210.753906 L 497.605469 213.007812 C 498.097656 214.820312 498.097656 214.820312 498.097656 216.394531 C 496.707031 216.589844 495.3125 216.765625 493.917969 216.933594 L 491.566406 217.238281 L 489.441406 217.179688 C 488.21875 216.296875 488.21875 216.296875 487.082031 214.820312 C 486.320312 212.625 486.320312 212.625 485.671875 209.996094 C 485.4375 209.050781 485.199219 208.109375 484.953125 207.136719 L 484.230469 204.148438 C 483.746094 202.195312 483.257812 200.242188 482.773438 198.292969 L 482.128906 195.664062 C 481.660156 193.613281 481.660156 193.613281 480.785156 192 L 476.851562 192 L 476.851562 216.394531 L 467.410156 217.179688 L 466.621094 216.394531 C 466.542969 214.707031 466.523438 213.019531 466.519531 211.332031 L 466.515625 209.730469 C 466.515625 207.976562 466.515625 206.222656 466.519531 204.464844 L 466.515625 200.824219 C 466.515625 198.277344 466.515625 195.726562 466.519531 193.179688 C 466.523438 189.90625 466.523438 186.632812 466.515625 183.359375 C 466.515625 180.851562 466.515625 178.34375 466.515625 175.835938 C 466.515625 174.628906 466.515625 173.421875 466.515625 172.214844 C 466.515625 170.527344 466.515625 168.84375 466.519531 167.160156 L 466.523438 164.25 L 466.621094 162.097656 Z M 273.050781 70.820312 C 274.492188 70.746094 275.933594 70.714844 277.378906 70.722656 L 279.761719 70.714844 L 281.703125 70.820312 L 282.492188 71.605469 C 282.574219 72.9375 282.605469 74.273438 282.617188 75.605469 L 282.640625 78.195312 L 282.65625 81.011719 L 282.726562 86.867188 C 282.757812 89.960938 282.785156 93.050781 282.808594 96.140625 C 282.828125 99.117188 282.867188 102.089844 282.902344 105.0625 L 282.910156 107.863281 L 282.949219 110.476562 L 282.96875 112.773438 C 283.335938 115.28125 284.148438 116.789062 285.640625 118.820312 C 287.246094 119.292969 287.246094 119.292969 288.933594 119.066406 L 291.933594 118.820312 C 292.6875 116.269531 292.835938 113.9375 292.871094 111.28125 L 292.910156 108.617188 L 292.941406 105.753906 L 292.988281 102.808594 C 293.039062 99.171875 293.089844 95.539062 293.136719 91.902344 C 293.183594 88.339844 293.234375 84.777344 293.285156 81.210938 L 293.320312 78.332031 L 293.359375 75.691406 L 293.390625 73.351562 L 293.507812 71.605469 L 294.296875 70.820312 C 295.738281 70.746094 297.179688 70.714844 298.621094 70.722656 L 301.007812 70.714844 L 302.949219 70.820312 L 303.738281 71.605469 C 303.820312 72.875 303.847656 74.144531 303.851562 75.410156 L 303.867188 77.871094 L 303.871094 80.558594 L 303.878906 83.308594 C 303.882812 85.238281 303.882812 87.167969 303.882812 89.09375 C 303.886719 92.03125 303.898438 94.96875 303.914062 97.902344 C 303.917969 99.777344 303.917969 101.648438 303.917969 103.523438 L 303.9375 106.171875 C 303.921875 111.054688 303.710938 115.722656 302.164062 120.394531 C 300.65625 122.871094 299.355469 124.101562 296.949219 125.703125 C 292.722656 127.269531 288.789062 127.859375 284.308594 127.132812 C 281.261719 126.332031 278.882812 125.328125 276.246094 123.589844 C 273.417969 119.390625 272.492188 114.355469 272.050781 109.351562 C 271.984375 106.921875 271.96875 104.492188 272.003906 102.066406 L 272.007812 99.410156 C 272.015625 97.582031 272.023438 95.75 272.039062 93.921875 C 272.066406 91.109375 272.074219 88.292969 272.078125 85.480469 L 272.101562 80.128906 L 272.113281 77.574219 L 272.136719 75.230469 L 272.152344 73.160156 L 272.261719 71.605469 Z M 247.082031 70.820312 C 249.300781 70.667969 249.300781 70.667969 251.902344 70.722656 L 254.515625 70.765625 L 256.523438 70.820312 C 258.570312 76.496094 259.859375 82.152344 261.011719 88.066406 L 261.582031 90.964844 C 261.976562 92.976562 262.371094 94.992188 262.761719 97.003906 C 263.160156 99.0625 263.566406 101.117188 263.972656 103.171875 C 264.5625 106.152344 265.148438 109.132812 265.730469 112.117188 L 266.28125 114.894531 L 266.785156 117.5 L 267.230469 119.773438 C 267.5625 122.105469 267.59375 124.335938 267.539062 126.6875 L 258.886719 126.6875 L 255.738281 114.097656 L 247.082031 114.886719 L 244.722656 126.6875 L 235.277344 126.6875 C 236.3125 119.722656 237.5 112.785156 238.84375 105.875 L 239.410156 102.96875 C 239.796875 100.960938 240.191406 98.953125 240.582031 96.949219 C 240.984375 94.890625 241.382812 92.835938 241.777344 90.777344 C 242.351562 87.792969 242.933594 84.808594 243.515625 81.828125 L 244.050781 79.027344 L 244.558594 76.453125 L 245 74.1875 C 245.507812 72.394531 245.507812 72.394531 247.082031 70.820312 M 445.246094 161.207031 C 447.175781 161.324219 448.992188 161.703125 450.886719 162.097656 C 452.222656 168.710938 453.558594 175.328125 454.886719 181.941406 C 455.503906 185.015625 456.121094 188.085938 456.742188 191.15625 C 457.34375 194.121094 457.941406 197.085938 458.535156 200.046875 C 458.761719 201.179688 458.992188 202.3125 459.21875 203.441406 C 459.539062 205.023438 459.859375 206.609375 460.175781 208.191406 C 460.355469 209.09375 460.539062 209.996094 460.726562 210.925781 C 461.113281 213.246094 461.113281 213.246094 461.113281 216.394531 C 459.835938 216.546875 458.558594 216.691406 457.277344 216.835938 L 455.121094 217.085938 C 453.246094 217.179688 453.246094 217.179688 451.671875 216.394531 C 451.175781 214.425781 450.75 212.441406 450.394531 210.441406 L 450.074219 208.746094 C 449.816406 207.363281 449.5625 205.976562 449.3125 204.589844 L 439.867188 204.589844 L 439.574219 208.230469 C 439.261719 211.410156 438.6875 214.191406 437.507812 217.179688 C 436.359375 217.199219 435.214844 217.21875 434.066406 217.230469 L 432.128906 217.257812 C 430.425781 217.179688 430.425781 217.179688 428.851562 216.394531 C 429.320312 210.03125 430.457031 203.875 431.726562 197.628906 L 432.347656 194.542969 C 432.777344 192.410156 433.210938 190.273438 433.648438 188.140625 C 434.207031 185.398438 434.753906 182.65625 435.300781 179.914062 C 435.824219 177.292969 436.359375 174.675781 436.890625 172.054688 L 437.484375 169.0625 L 438.046875 166.324219 L 438.539062 163.902344 L 439.082031 162.097656 C 441.132812 161.074219 442.988281 161.214844 445.246094 161.207031 M 224.507812 71.703125 C 227.128906 73.535156 228.671875 75.316406 230.558594 77.902344 C 231.46875 80.632812 231.398438 82.90625 231.34375 85.769531 L 223.476562 87.34375 L 222.542969 83.902344 C 221.933594 81.96875 221.933594 81.96875 221.113281 80.261719 L 219.195312 78.886719 C 217.171875 78.546875 217.171875 78.546875 215.3125 79.328125 C 213.945312 80.898438 213.945312 80.898438 213.765625 82.539062 C 213.792969 84.640625 214.078125 86.160156 214.820312 88.132812 C 217.363281 91.433594 220.503906 94.019531 223.660156 96.714844 C 227.199219 99.742188 230.167969 102.425781 231.90625 106.886719 C 232.960938 110.378906 233.09375 113.5625 232.550781 117.164062 C 231.882812 119.796875 230.746094 121.492188 228.984375 123.539062 C 226.953125 125.105469 225.128906 126.351562 222.738281 127.277344 C 218.410156 127.804688 214.796875 127.597656 210.773438 125.933594 C 208.214844 124.5 207.011719 122.847656 205.378906 120.394531 C 203.953125 117.140625 203.636719 114.484375 203.804688 110.949219 C 204.800781 110.535156 205.800781 110.125 206.804688 109.722656 L 208.492188 109.027344 L 210.097656 108.589844 L 212.460938 109.378906 C 213.039062 111.121094 213.039062 111.121094 213.492188 113.261719 C 214.019531 115.386719 214.019531 115.386719 214.820312 117.246094 C 217.066406 118.785156 217.066406 118.785156 219.539062 118.820312 L 221.902344 117.246094 C 222.597656 114.816406 222.433594 112.617188 221.902344 110.164062 C 219.472656 106.019531 215.46875 103.035156 211.917969 99.886719 C 207.863281 96.269531 205.527344 93.308594 203.804688 88.132812 C 203.5 84.363281 203.300781 80.765625 204.6875 77.214844 C 206.621094 75.023438 208.519531 73.34375 210.886719 71.605469 C 215.28125 70.152344 220.160156 70.226562 224.507812 71.703125 M 388.722656 161.3125 C 391.359375 162.246094 392.847656 163.773438 394.679688 165.886719 C 395.96875 167.863281 396.339844 169.421875 396.738281 171.738281 L 397.117188 173.863281 L 397.378906 175.476562 C 394.328125 176.414062 391.933594 177.050781 388.722656 177.050781 L 388.234375 175.527344 L 387.589844 173.558594 L 386.953125 171.59375 C 386.5 169.996094 386.5 169.996094 385.574219 169.179688 C 383.734375 169.40625 381.894531 169.667969 380.066406 169.96875 C 379.449219 172.503906 379.449219 172.503906 379.277344 175.476562 C 380.863281 179.660156 383.316406 182.019531 386.605469 184.871094 C 387.527344 185.695312 388.449219 186.527344 389.367188 187.359375 L 390.6875 188.550781 C 393.757812 191.375 396.125 193.960938 397.671875 197.902344 C 398.414062 202.050781 398.539062 205.453125 397.179688 209.460938 C 396.378906 211.394531 395.644531 212.660156 394.328125 214.328125 C 392.476562 215.746094 390.929688 216.433594 388.722656 217.179688 C 384.3125 217.703125 379.875 217.753906 375.738281 216 C 374.105469 215.03125 373.089844 214.171875 371.929688 212.671875 C 369.757812 208.800781 369.324219 205.039062 369.050781 200.65625 L 376.917969 199.082031 L 378 202.03125 C 378.835938 204.269531 379.714844 206.421875 380.851562 208.523438 L 386.359375 208.523438 C 387.300781 207.242188 387.300781 207.242188 387.933594 205.378906 C 388.078125 203 388.042969 202.003906 387.148438 199.867188 C 383.714844 195.230469 379.503906 191.410156 375.125 187.683594 C 372.65625 185.511719 371 183.382812 369.640625 180.394531 C 368.714844 176.386719 368.589844 172.59375 369.589844 168.589844 C 371.199219 165.835938 373.238281 163.738281 375.921875 162.003906 C 379.925781 160.449219 384.515625 160.910156 388.722656 161.3125 M 349.378906 70.820312 C 350.996094 70.742188 352.621094 70.71875 354.246094 70.714844 L 357.238281 70.710938 L 358.804688 70.71875 C 360.386719 70.71875 361.96875 70.71875 363.546875 70.710938 L 366.542969 70.714844 L 369.308594 70.71875 L 371.410156 70.820312 L 372.195312 71.605469 L 372.195312 77.902344 L 359.605469 78.6875 L 359.605469 93.640625 L 369.050781 94.425781 L 369.050781 101.507812 L 359.605469 102.296875 L 359.605469 118.820312 L 372.195312 119.605469 L 372.195312 126.6875 C 368.960938 126.707031 365.726562 126.722656 362.492188 126.730469 C 361.390625 126.734375 360.289062 126.742188 359.183594 126.746094 C 357.605469 126.757812 356.027344 126.761719 354.445312 126.765625 L 351.5625 126.777344 L 349.378906 126.6875 L 348.589844 125.902344 C 348.511719 124.214844 348.488281 122.527344 348.488281 120.839844 L 348.484375 119.238281 C 348.480469 117.484375 348.480469 115.730469 348.484375 113.976562 L 348.484375 110.332031 C 348.480469 107.785156 348.484375 105.238281 348.488281 102.6875 C 348.492188 99.414062 348.488281 96.140625 348.484375 92.867188 C 348.480469 90.359375 348.480469 87.851562 348.484375 85.34375 C 348.484375 84.136719 348.484375 82.929688 348.484375 81.722656 C 348.480469 80.035156 348.484375 78.351562 348.488281 76.667969 L 348.488281 73.757812 L 348.589844 71.605469 Z M 243.148438 161.3125 C 244.769531 161.234375 246.394531 161.210938 248.015625 161.207031 L 251.011719 161.203125 L 252.578125 161.210938 C 254.15625 161.214844 255.738281 161.210938 257.316406 161.203125 L 260.3125 161.207031 L 263.082031 161.210938 L 265.179688 161.3125 L 265.96875 162.097656 L 265.96875 168.394531 L 252.589844 169.179688 L 252.589844 184.132812 L 257.261719 184.082031 C 258.851562 184.066406 260.441406 184.074219 262.03125 184.132812 L 262.820312 184.917969 C 262.929688 187.019531 262.851562 189.105469 262.820312 191.214844 L 252.589844 192 L 253.378906 209.3125 L 265.96875 210.097656 L 265.96875 216.394531 C 262.769531 216.570312 259.574219 216.730469 256.378906 216.886719 L 253.632812 217.039062 L 250.984375 217.164062 L 248.546875 217.285156 C 246.144531 217.171875 244.554688 216.542969 242.359375 215.605469 C 242.34375 208.644531 242.328125 201.679688 242.320312 194.71875 C 242.316406 191.484375 242.308594 188.25 242.300781 185.019531 C 242.292969 181.902344 242.289062 178.785156 242.285156 175.667969 C 242.285156 174.476562 242.28125 173.28125 242.277344 172.089844 C 242.273438 170.425781 242.269531 168.761719 242.269531 167.101562 L 242.265625 164.222656 L 242.359375 162.097656 Z M 342.296875 161.3125 C 343.925781 161.242188 345.558594 161.226562 347.191406 161.234375 L 350.195312 161.242188 L 353.359375 161.261719 C 354.417969 161.265625 355.476562 161.269531 356.535156 161.273438 C 359.132812 161.28125 361.730469 161.296875 364.328125 161.3125 L 365.113281 168.394531 L 351.738281 169.179688 L 351.738281 184.132812 L 358.820312 184.132812 L 361.96875 184.917969 L 361.96875 191.214844 L 351.738281 192 L 351.738281 210.097656 C 355.84375 210.066406 355.84375 210.066406 359.953125 210.027344 C 361.410156 210.023438 362.871094 210.058594 364.328125 210.097656 L 365.113281 210.886719 C 365.148438 212.722656 365.148438 214.558594 365.113281 216.394531 C 362.007812 216.523438 358.898438 216.652344 355.789062 216.773438 C 354.210938 216.835938 352.628906 216.902344 351.050781 216.96875 L 348.054688 217.085938 L 345.28125 217.199219 C 343.082031 217.179688 343.082031 217.179688 341.507812 216.394531 C 341.492188 209.328125 341.476562 202.261719 341.46875 195.195312 C 341.464844 191.917969 341.457031 188.636719 341.449219 185.355469 C 341.441406 182.191406 341.433594 179.027344 341.433594 175.863281 C 341.433594 174.65625 341.429688 173.445312 341.425781 172.238281 C 341.421875 170.546875 341.417969 168.859375 341.417969 167.171875 L 341.414062 164.253906 L 341.507812 162.097656 Z M 395.015625 70.820312 C 396.582031 70.742188 398.148438 70.71875 399.714844 70.714844 L 402.597656 70.710938 L 405.640625 70.722656 L 408.679688 70.710938 L 414.234375 70.71875 L 416.261719 70.820312 L 417.050781 71.605469 L 417.050781 77.902344 L 403.671875 78.6875 L 404.457031 94.425781 L 409.132812 94.378906 C 410.722656 94.359375 412.3125 94.371094 413.902344 94.425781 L 414.6875 95.214844 C 414.785156 97.96875 414.785156 97.96875 414.6875 100.722656 L 413.902344 101.507812 C 410.761719 101.875 407.613281 102.0625 404.457031 102.296875 L 404.457031 119.605469 L 417.050781 119.605469 L 417.050781 126.6875 L 394.230469 126.6875 C 394.210938 119.519531 394.199219 112.351562 394.1875 105.183594 C 394.183594 101.855469 394.179688 98.527344 394.171875 95.199219 C 394.160156 91.992188 394.15625 88.78125 394.15625 85.570312 C 394.152344 84.34375 394.152344 83.117188 394.148438 81.890625 C 394.140625 80.179688 394.140625 78.464844 394.140625 76.753906 L 394.136719 73.792969 L 394.230469 71.605469 Z M 401.3125 161.3125 C 402.484375 161.234375 403.664062 161.210938 404.84375 161.207031 L 407.058594 161.203125 L 409.425781 161.214844 L 411.804688 161.21875 C 417.261719 161.25 422.640625 161.457031 428.066406 162.097656 L 428.066406 169.179688 L 419.410156 169.179688 L 419.410156 216.394531 L 409.96875 217.179688 L 409.179688 216.394531 C 409.113281 214.917969 409.082031 213.445312 409.089844 211.96875 L 409.089844 209.105469 L 409.101562 205.988281 L 409.105469 202.816406 C 409.109375 200.027344 409.117188 197.242188 409.125 194.453125 C 409.132812 191.609375 409.136719 188.765625 409.140625 185.925781 C 409.148438 180.34375 409.164062 174.761719 409.179688 169.179688 L 400.523438 169.179688 C 400.449219 163.722656 400.449219 163.722656 400.523438 162.097656 Z M 401.3125 161.3125 " fill-opacity="1" fill-rule="nonzero"/><path fill="#4c9f38" d="M 321.835938 78.6875 C 326.316406 78.320312 326.316406 78.320312 328.132812 78.6875 C 329.785156 79.808594 329.785156 79.808594 331.277344 81.835938 C 331.746094 84.367188 331.699219 86.867188 331.667969 89.433594 L 331.671875 91.675781 C 331.671875 93.234375 331.664062 94.796875 331.644531 96.355469 C 331.621094 98.746094 331.628906 101.132812 331.640625 103.523438 C 331.632812 105.039062 331.628906 106.554688 331.621094 108.074219 L 331.625 110.238281 C 331.554688 115.164062 331.554688 115.164062 330.1875 117.691406 C 328.917969 118.820312 328.917969 118.820312 327.164062 119.324219 L 325.277344 119.457031 L 323.378906 119.621094 L 321.835938 119.605469 L 321.050781 118.820312 C 320.976562 117.589844 320.941406 116.363281 320.945312 115.132812 L 320.941406 112.753906 L 320.945312 110.164062 L 320.941406 107.527344 C 320.941406 105.683594 320.945312 103.839844 320.945312 101.996094 C 320.949219 99.160156 320.945312 96.324219 320.941406 93.492188 C 320.941406 91.707031 320.941406 89.917969 320.945312 88.132812 L 320.941406 85.542969 L 320.949219 83.164062 L 320.949219 81.058594 L 321.050781 79.476562 Z M 215.605469 191.214844 C 217.859375 191.027344 219.691406 190.902344 221.902344 191.214844 C 224.214844 192.6875 224.214844 192.6875 225.835938 194.359375 C 227.125 196.9375 226.824219 199.621094 226.804688 202.460938 C 226.621094 204.589844 226.621094 204.589844 225.492188 207.050781 C 224.261719 208.523438 224.261719 208.523438 223.476562 209.3125 C 222.015625 209.367188 220.558594 209.378906 219.097656 209.359375 L 216.683594 209.339844 L 214.820312 209.3125 C 214.796875 206.441406 214.78125 203.574219 214.769531 200.707031 L 214.75 198.222656 L 214.742188 195.863281 L 214.730469 193.679688 L 214.820312 192 Z M 476.851562 168.394531 C 483.933594 168.394531 483.933594 168.394531 485.902344 169.523438 C 487.347656 171.996094 487.75 174.011719 487.953125 176.847656 C 487.867188 178.621094 487.867188 178.621094 486.886719 181.328125 C 485.507812 183.34375 485.507812 183.34375 483.148438 184.917969 L 476.851562 184.917969 Z M 215.605469 168.394531 C 218.628906 168.160156 220.617188 168.15625 223.378906 169.476562 C 225.050781 170.753906 225.050781 170.753906 225.835938 172.328125 C 226.183594 175.742188 226.191406 178.601562 224.804688 181.769531 L 223.476562 183.34375 C 220.726562 184.261719 218.488281 184.238281 215.605469 184.132812 L 214.820312 183.34375 C 214.746094 182.296875 214.710938 181.246094 214.714844 180.195312 L 214.710938 178.277344 L 214.722656 176.261719 L 214.710938 174.246094 L 214.714844 172.328125 L 214.71875 170.558594 L 214.820312 169.179688 Z M 215.605469 168.394531 " fill-opacity="1" fill-rule="nonzero"/><path fill="#fefefe" d="M 295.867188 53.507812 L 298.230469 54.296875 C 296.421875 59.042969 294.292969 63.65625 291.148438 67.671875 C 289.5625 68.285156 289.5625 68.285156 288.050781 68.261719 L 285.640625 67.671875 C 287.398438 58.375 287.398438 58.375 288.785156 54.296875 C 291.140625 53.117188 293.273438 53.417969 295.867188 53.507812 M 317.902344 191.214844 C 319.074219 191.148438 320.246094 191.125 321.421875 191.136719 L 323.566406 191.144531 L 325.820312 191.164062 L 328.082031 191.175781 C 329.933594 191.183594 331.785156 191.195312 333.640625 191.214844 L 333.640625 197.507812 C 331.03125 197.53125 328.425781 197.546875 325.820312 197.558594 L 323.566406 197.578125 L 321.421875 197.585938 L 319.433594 197.597656 L 317.902344 197.507812 L 317.113281 196.722656 C 317.015625 194.359375 317.015625 194.359375 317.113281 192 Z M 317.902344 191.214844 " fill-opacity="1" fill-rule="nonzero"/><path fill="#4c9f38" d="M 444.589844 177.835938 L 446.164062 178.621094 C 446.558594 180.023438 446.558594 180.023438 446.835938 181.832031 L 447.140625 183.816406 L 447.441406 185.902344 L 447.761719 187.953125 C 448.246094 191.160156 448.671875 194.253906 448.523438 197.507812 L 441.441406 197.507812 C 441.871094 191.164062 442.449219 184.847656 443.804688 178.621094 Z M 251.015625 85.769531 L 252.589844 86.558594 C 252.984375 87.933594 252.984375 87.933594 253.261719 89.710938 L 253.566406 91.671875 L 253.867188 93.738281 L 254.1875 95.75 C 254.765625 99.550781 255.066406 103.171875 254.949219 107.015625 L 247.867188 107.015625 C 248.246094 104.214844 248.621094 101.410156 249 98.605469 L 249.320312 96.203125 L 249.636719 93.875 L 249.921875 91.742188 C 250.226562 89.734375 250.601562 87.757812 251.015625 85.769531 " fill-opacity="1" fill-rule="nonzero"/></svg>