<svg xmlns="http://www.w3.org/2000/svg" xmlns:xlink="http://www.w3.org/1999/xlink" width="1024" zoomAndPan="magnify" viewBox="0 0 768 767.999994" height="1024" preserveAspectRatio="xMidYMid meet" version="1.0"><rect x="-76.8" width="921.6" fill="#ffffff" y="-76.799999" height="921.599993" fill-opacity="1"/><rect x="-76.8" width="921.6" fill="#ffffff" y="-76.799999" height="921.599993" fill-opacity="1"/><path fill="#c5182c" d="M 0.00390625 0 L 767.996094 0 L 767.996094 771 L 0.00390625 771 Z M 0.00390625 0 " fill-opacity="1" fill-rule="nonzero"/><path fill="#fefefe" d="M 491.015625 335.148438 L 492.589844 335.148438 L 492.589844 590.050781 C 437.507812 606.660156 437.507812 606.660156 417.835938 612.515625 C 413.660156 613.773438 409.507812 615.101562 405.375 616.5 C 400.484375 618.148438 395.570312 619.589844 390.589844 620.929688 C 381.828125 623.328125 373.160156 625.980469 364.5 628.722656 L 361.699219 629.605469 L 359.207031 630.398438 C 357.246094 630.960938 357.246094 630.960938 355.671875 630.960938 C 355.433594 603.40625 355.261719 575.851562 355.148438 548.296875 L 355.109375 538.535156 L 355.101562 536.574219 C 355.054688 526.085938 354.980469 515.601562 354.882812 505.113281 C 354.789062 494.355469 354.730469 483.59375 354.710938 472.832031 C 354.695312 466.191406 354.652344 459.554688 354.570312 452.914062 C 354.515625 448.359375 354.496094 443.808594 354.511719 439.253906 C 354.519531 436.625 354.503906 434.003906 354.453125 431.375 C 354.222656 418.476562 354.222656 418.476562 355.671875 413.824219 C 357.035156 411.851562 358.503906 410.6875 360.597656 409.542969 C 362.34375 408.816406 364.113281 408.144531 365.902344 407.527344 C 367.316406 406.726562 368.710938 405.894531 370.082031 405.019531 C 370.703125 404.652344 371.328125 404.28125 371.96875 403.898438 C 374.261719 402.511719 376.503906 401.050781 378.734375 399.570312 C 380.066406 398.875 380.066406 398.875 382.425781 398.875 L 382.425781 397.300781 L 384.367188 396.371094 C 390.742188 393.257812 396.863281 389.851562 402.957031 386.21875 C 407.449219 383.542969 411.976562 380.933594 416.507812 378.320312 L 419.117188 376.816406 C 423.746094 374.148438 428.378906 371.492188 433.019531 368.847656 L 434.460938 368.023438 C 436.351562 366.945312 438.246094 365.863281 440.140625 364.785156 C 446.441406 361.199219 452.714844 357.578125 458.914062 353.828125 C 460.15625 353.082031 461.421875 352.371094 462.6875 351.671875 L 464.261719 351.671875 L 464.261719 350.097656 L 466.199219 349.167969 C 474.742188 345 483.101562 340.425781 491.015625 335.148438 M 204.589844 335.148438 C 207.34375 336.25 209.667969 337.285156 212.207031 338.726562 L 214.347656 339.9375 C 215.105469 340.371094 215.863281 340.800781 216.640625 341.246094 L 219.035156 342.605469 C 229.949219 348.820312 240.832031 355.109375 251.578125 361.621094 C 253.480469 362.746094 255.414062 363.804688 257.363281 364.847656 C 261.035156 366.832031 264.636719 368.917969 268.230469 371.042969 C 273.238281 374.007812 278.269531 376.917969 283.328125 379.796875 C 290.070312 383.640625 296.789062 387.527344 303.484375 391.449219 C 310.355469 395.460938 317.242188 399.441406 324.136719 403.40625 C 325.6875 404.300781 327.226562 405.214844 328.753906 406.148438 C 331.199219 407.597656 331.199219 407.597656 333.769531 408.277344 C 336.230469 409.167969 336.230469 409.167969 338.714844 410.648438 C 340.722656 413.035156 340.722656 413.035156 341.253906 414.859375 C 342.175781 421.058594 341.902344 427.347656 341.792969 433.59375 C 341.785156 435.734375 341.792969 437.875 341.796875 440.011719 C 341.804688 444.621094 341.773438 449.226562 341.71875 453.832031 C 341.644531 460.492188 341.617188 467.148438 341.605469 473.808594 C 341.582031 484.613281 341.527344 495.417969 341.433594 506.222656 C 341.347656 516.71875 341.28125 527.210938 341.242188 537.707031 L 341.230469 539.667969 L 341.195312 549.40625 C 341.097656 576.332031 340.933594 603.253906 340.722656 630.175781 C 339.472656 629.929688 338.222656 629.683594 336.972656 629.4375 L 334.867188 629.023438 C 332.199219 628.464844 329.613281 627.726562 327.003906 626.9375 L 325.390625 626.457031 C 323.640625 625.929688 321.890625 625.402344 320.140625 624.871094 L 316.363281 623.734375 C 312.984375 622.71875 309.609375 621.699219 306.230469 620.679688 C 302.707031 619.613281 299.183594 618.554688 295.65625 617.492188 C 274.210938 611.039062 252.773438 604.550781 231.34375 598.035156 L 225.796875 596.347656 C 218.738281 594.203125 211.667969 592.132812 204.59375 590.050781 Z M 204.589844 335.148438 " fill-opacity="1" fill-rule="nonzero"/><path fill="#fefefe" d="M 0.00390625 0 L 767.996094 0 L 767.996094 771 L 0.00390625 771 Z M 14.488281 11.601562 C 13.132812 12.808594 11.863281 13.972656 10.726562 15.390625 L 9.625 16.71875 C 7.503906 19.742188 6.800781 22.308594 6.296875 25.960938 C 6.230469 27.6875 6.199219 29.417969 6.199219 31.144531 L 6.191406 34.292969 L 6.195312 37.738281 L 6.191406 41.421875 C 6.191406 44.8125 6.191406 48.199219 6.191406 51.585938 C 6.191406 55.269531 6.191406 58.949219 6.1875 62.628906 C 6.183594 69.085938 6.183594 75.542969 6.183594 81.996094 C 6.183594 91.597656 6.179688 101.195312 6.175781 110.796875 C 6.171875 128.9375 6.167969 147.082031 6.167969 165.222656 C 6.175781 184.269531 6.171875 203.316406 6.160156 222.363281 C 6.171875 259.707031 6.167969 297.050781 6.152344 334.394531 C 6.15625 377.226562 6.148438 420.058594 6.128906 462.890625 L 6.128906 464.5 C 6.121094 497.175781 6.117188 529.859375 6.117188 562.550781 L 6.117188 565.554688 C 6.117188 581.539062 6.113281 597.527344 6.105469 613.511719 C 6.101562 629.570312 6.097656 645.628906 6.105469 661.6875 C 6.105469 671.234375 6.105469 680.777344 6.097656 690.324219 C 6.09375 696.695312 6.09375 703.070312 6.101562 709.441406 C 6.105469 713.074219 6.101562 716.710938 6.097656 720.34375 C 6.09375 723.648438 6.09375 726.953125 6.101562 730.261719 C 6.101562 731.449219 6.101562 732.636719 6.097656 733.824219 C 6.058594 744.28125 6.058594 744.28125 8.78125 754.296875 C 10.777344 757.328125 12.726562 759.582031 15.933594 761.339844 C 21.359375 763.894531 26.882812 763.675781 32.742188 763.625 C 33.984375 763.628906 35.230469 763.632812 36.472656 763.640625 C 39.894531 763.65625 43.3125 763.648438 46.730469 763.632812 C 50.449219 763.621094 54.167969 763.632812 57.886719 763.644531 C 64.40625 763.65625 70.921875 763.65625 77.441406 763.644531 C 87.132812 763.628906 96.828125 763.632812 106.519531 763.644531 C 123.828125 763.660156 141.140625 763.65625 158.449219 763.640625 C 174.609375 763.628906 190.773438 763.625 206.933594 763.628906 L 219.164062 763.632812 C 247.617188 763.636719 276.070312 763.636719 304.523438 763.617188 L 306.148438 763.617188 L 332.273438 763.601562 C 368.996094 763.578125 405.722656 763.574219 442.441406 763.589844 L 444.078125 763.589844 L 462.007812 763.59375 L 463.632812 763.59375 C 497.652344 763.605469 531.667969 763.601562 565.675781 763.582031 C 580.816406 763.578125 595.957031 763.578125 611.09375 763.585938 C 628.308594 763.59375 645.519531 763.585938 662.730469 763.566406 C 672.367188 763.554688 682.003906 763.554688 691.640625 763.5625 C 698.070312 763.570312 704.503906 763.5625 710.9375 763.546875 C 714.605469 763.539062 718.273438 763.535156 721.941406 763.546875 C 725.277344 763.558594 728.613281 763.554688 731.949219 763.535156 C 733.148438 763.53125 734.351562 763.535156 735.550781 763.542969 C 741.320312 763.578125 746.464844 763.527344 751.710938 760.832031 C 754.808594 758.871094 756.886719 756.460938 758.75 753.347656 C 762.371094 745.34375 761.027344 734.90625 761.015625 726.257812 C 761.015625 725.03125 761.015625 723.804688 761.015625 722.574219 C 761.019531 719.214844 761.019531 715.855469 761.015625 712.5 C 761.015625 708.835938 761.015625 705.175781 761.019531 701.519531 C 761.019531 695.109375 761.019531 688.699219 761.019531 682.289062 C 761.015625 672.757812 761.015625 663.230469 761.019531 653.699219 C 761.023438 636.679688 761.023438 619.660156 761.023438 602.640625 C 761.019531 587.753906 761.019531 572.867188 761.019531 557.976562 L 761.019531 542.964844 C 761.023438 515 761.023438 487.039062 761.019531 459.074219 L 761.019531 457.476562 L 761.015625 431.8125 C 761.015625 389.261719 761.015625 346.746094 761.019531 304.261719 L 761.019531 302.664062 C 761.023438 269.234375 761.023438 235.804688 761.019531 202.375 C 761.019531 187.488281 761.019531 172.601562 761.023438 157.714844 C 761.023438 140.800781 761.023438 123.886719 761.019531 106.972656 C 761.019531 97.492188 761.019531 88.019531 761.019531 78.546875 C 761.023438 72.230469 761.019531 65.914062 761.015625 59.597656 C 761.015625 55.988281 761.015625 52.382812 761.015625 48.773438 C 761.019531 45.5 761.019531 42.226562 761.015625 38.953125 C 761.015625 37.769531 761.015625 36.585938 761.015625 35.402344 C 761.019531 33.808594 761.015625 32.210938 761.011719 30.617188 L 761.011719 27.929688 L 760.914062 25.960938 L 760.128906 25.175781 L 760.324219 23.554688 C 760.074219 20.617188 759.039062 18.945312 757.421875 16.519531 C 754.777344 13.140625 751.53125 10.289062 747.539062 8.652344 C 745.164062 8.417969 745.164062 8.417969 742.488281 8.453125 L 740.945312 8.445312 C 739.230469 8.441406 737.515625 8.445312 735.800781 8.449219 L 732.070312 8.441406 C 728.632812 8.433594 725.199219 8.433594 721.761719 8.4375 C 718.03125 8.4375 714.296875 8.433594 710.566406 8.425781 C 704.019531 8.417969 697.476562 8.414062 690.929688 8.414062 C 681.195312 8.414062 671.460938 8.40625 661.726562 8.394531 C 642.316406 8.375 622.90625 8.371094 603.496094 8.367188 L 600.449219 8.367188 L 597.394531 8.363281 C 586.242188 8.363281 575.085938 8.355469 563.929688 8.351562 C 520.027344 8.316406 477.058594 8.304688 435.023438 8.320312 C 400.335938 8.316406 365.644531 8.300781 330.953125 8.269531 C 305.085938 8.25 279.222656 8.230469 253.355469 8.222656 L 251.777344 8.222656 C 235.753906 8.222656 219.730469 8.21875 203.703125 8.21875 L 200.65625 8.21875 C 184.445312 8.21875 168.238281 8.203125 152.027344 8.1875 C 135.746094 8.167969 119.464844 8.167969 103.179688 8.175781 C 93.5 8.183594 83.820312 8.179688 74.140625 8.160156 C 67.679688 8.148438 61.21875 8.148438 54.757812 8.160156 C 51.070312 8.167969 47.386719 8.167969 43.703125 8.152344 C 40.351562 8.140625 37 8.140625 33.648438 8.160156 C 32.445312 8.164062 31.238281 8.160156 30.03125 8.148438 C 21.773438 8.042969 21.773438 8.042969 14.488281 11.601562 " fill-opacity="1" fill-rule="nonzero"/><path fill="#fefefe" d="M 188.855469 334.363281 L 190.429688 334.363281 L 191.214844 603.425781 L 231.34375 614.441406 C 241.078125 617.171875 250.808594 619.910156 260.535156 622.667969 C 264.792969 623.875 269.054688 625.078125 273.316406 626.277344 C 297.191406 633.003906 297.191406 633.003906 308.347656 636.261719 C 312.238281 637.398438 316.132812 638.519531 320.027344 639.636719 C 321.753906 640.136719 323.480469 640.644531 325.199219 641.160156 C 336.300781 644.480469 347.1875 647.285156 358.734375 644.589844 C 363.773438 643.207031 368.6875 641.5 373.605469 639.730469 C 376.886719 638.558594 380.191406 637.464844 383.496094 636.375 C 385.992188 635.550781 388.480469 634.71875 390.96875 633.878906 C 407.660156 628.273438 424.382812 622.785156 441.164062 617.453125 C 454.710938 613.148438 468.210938 608.710938 481.683594 604.179688 C 487.964844 602.066406 494.253906 599.96875 500.574219 597.976562 L 502.167969 597.472656 C 505.777344 596.34375 505.777344 596.34375 507.539062 596.34375 L 507.539062 335.148438 L 511.472656 336.722656 L 514.054688 337.71875 C 516.769531 339.195312 518.71875 340.453125 520.707031 342.804688 C 524.078125 348.847656 523.042969 357.265625 522.953125 364.035156 C 522.933594 365.261719 522.914062 366.488281 522.890625 367.71875 C 522.847656 370.9375 522.863281 374.15625 522.871094 377.375 C 522.875 382.945312 522.84375 388.515625 522.785156 394.085938 C 522.703125 402.140625 522.675781 410.191406 522.664062 418.246094 C 522.640625 431.316406 522.574219 444.382812 522.476562 457.449219 C 522.382812 470.140625 522.308594 482.832031 522.265625 495.523438 L 522.257812 497.894531 L 522.21875 509.679688 C 522.113281 542.238281 521.933594 574.800781 521.703125 607.359375 L 518.871094 608.234375 C 513.824219 609.789062 508.777344 611.347656 503.730469 612.910156 C 494.457031 615.769531 485.199219 618.667969 475.964844 621.667969 L 470.121094 623.566406 C 463.921875 625.574219 457.699219 627.507812 451.476562 629.4375 C 443.675781 631.851562 435.902344 634.359375 428.164062 636.960938 C 420.921875 639.398438 413.660156 641.738281 406.335938 643.917969 C 401.039062 645.519531 395.773438 647.222656 390.542969 649.03125 C 387.117188 650.199219 383.683594 651.359375 380.25 652.503906 C 378.550781 653.078125 376.855469 653.667969 375.164062 654.261719 C 362.855469 658.601562 351.425781 661.253906 338.359375 659.285156 C 328.417969 657.375 318.699219 654.40625 308.992188 651.566406 C 305.242188 650.476562 301.488281 649.414062 297.730469 648.355469 C 292.300781 646.816406 286.871094 645.265625 281.445312 643.707031 C 271.867188 640.957031 262.277344 638.253906 252.671875 635.597656 L 250.582031 635.019531 C 247.84375 634.261719 245.109375 633.503906 242.371094 632.746094 C 230.824219 629.546875 219.277344 626.328125 207.738281 623.09375 L 205.679688 622.515625 C 201.378906 621.3125 197.078125 620.109375 192.78125 618.902344 L 188.640625 617.738281 C 186.730469 617.203125 184.816406 616.667969 182.90625 616.128906 L 181.175781 615.644531 C 177.230469 614.53125 177.230469 614.53125 175.476562 613.652344 C 175.3125 575.546875 175.195312 537.441406 175.132812 499.335938 L 175.125 496.910156 C 175.097656 483.9375 175.050781 470.964844 174.992188 457.992188 C 174.933594 444.683594 174.898438 431.378906 174.886719 418.070312 C 174.878906 409.855469 174.847656 401.644531 174.796875 393.429688 C 174.765625 387.800781 174.753906 382.167969 174.761719 376.539062 C 174.765625 373.289062 174.761719 370.042969 174.726562 366.789062 C 174.695312 363.816406 174.695312 360.839844 174.714844 357.863281 C 174.71875 356.277344 174.691406 354.695312 174.664062 353.109375 C 174.699219 350.386719 174.804688 348.015625 175.476562 345.375 C 177.273438 342.992188 179.273438 341.464844 181.773438 339.871094 L 183.882812 338.125 L 185.609375 336.769531 L 187.371094 335.375 Z M 568.128906 357.964844 C 570.257812 357.886719 572.363281 357.855469 574.492188 357.859375 L 576.429688 357.855469 C 577.785156 357.855469 579.140625 357.859375 580.5 357.863281 C 582.574219 357.867188 584.648438 357.863281 586.726562 357.855469 C 588.042969 357.855469 589.355469 357.859375 590.671875 357.859375 L 592.558594 357.855469 C 595.109375 357.867188 597.164062 357.9375 599.605469 358.75 C 599.820312 386.925781 599.988281 415.101562 600.085938 443.277344 L 600.125 453.320312 L 600.132812 455.335938 C 600.171875 466.042969 600.246094 476.746094 600.332031 487.449219 C 600.421875 498.480469 600.476562 509.511719 600.492188 520.542969 C 600.503906 526.71875 600.53125 532.890625 600.601562 539.066406 C 600.90625 566.363281 599.855469 591.398438 590.738281 617.464844 C 589.453125 621.238281 588.351562 625.070312 587.21875 628.890625 C 586.148438 632.480469 585.015625 636.050781 583.867188 639.617188 L 582.292969 638.828125 C 581.714844 637.199219 581.21875 635.539062 580.761719 633.871094 L 580.347656 632.363281 C 580.054688 631.308594 579.769531 630.25 579.484375 629.195312 C 579.050781 627.582031 578.605469 625.96875 578.160156 624.363281 C 576 616.457031 576 616.457031 576 612.867188 L 574.425781 612.867188 C 572.617188 605.464844 572.617188 605.464844 572.851562 601.851562 L 571.277344 601.851562 L 571.277344 596.34375 L 569.703125 596.34375 L 569.703125 590.835938 L 568.128906 590.835938 C 567.25 585.902344 567.234375 581.074219 567.242188 576.070312 L 567.238281 573.253906 C 567.238281 570.6875 567.238281 568.117188 567.238281 565.546875 C 567.242188 562.773438 567.238281 559.996094 567.238281 557.222656 C 567.234375 551.792969 567.234375 546.363281 567.238281 540.933594 C 567.238281 536.523438 567.238281 532.109375 567.238281 527.699219 L 567.238281 521.96875 C 567.234375 510.015625 567.234375 498.0625 567.242188 486.109375 C 567.242188 475.84375 567.242188 465.578125 567.242188 455.3125 C 567.234375 442.125 567.234375 428.9375 567.238281 415.75 L 567.238281 413.859375 C 567.238281 409.449219 567.238281 405.039062 567.234375 400.628906 C 567.234375 395.257812 567.234375 389.890625 567.238281 384.523438 C 567.242188 381.785156 567.242188 379.042969 567.238281 376.304688 C 567.238281 373.339844 567.238281 370.375 567.242188 367.410156 L 567.238281 364.757812 L 567.242188 362.371094 L 567.242188 360.296875 L 567.34375 358.75 Z M 99.9375 73.167969 L 131.410156 73.167969 L 132.199219 162.066406 L 145.574219 162.855469 L 145.574219 183.308594 L 132.199219 184.097656 L 131.410156 217.140625 L 121.035156 217.582031 C 119.960938 217.628906 118.886719 217.675781 117.78125 217.726562 L 115.199219 217.828125 L 112.5625 217.941406 C 110.328125 217.925781 108.398438 217.660156 106.230469 217.140625 C 105.355469 210.148438 105.355469 203.222656 105.394531 196.191406 C 105.402344 195.015625 105.402344 193.839844 105.40625 192.660156 C 105.414062 189.804688 105.429688 186.949219 105.445312 184.097656 L 102.574219 184.109375 C 99.011719 184.121094 95.449219 184.132812 91.886719 184.140625 C 90.355469 184.144531 88.820312 184.148438 87.289062 184.15625 C 78.875 184.191406 70.542969 184.183594 62.167969 183.308594 C 60.652344 171.941406 61.0625 161.964844 65.386719 151.335938 C 67.65625 145.980469 70.101562 140.703125 72.574219 135.4375 C 76.0625 127.992188 79.234375 120.421875 82.402344 112.835938 C 83.660156 109.820312 84.933594 106.816406 86.207031 103.808594 C 88.539062 98.296875 90.847656 92.777344 93.132812 87.246094 C 94.160156 84.761719 95.179688 82.277344 96.1875 79.789062 L 97.015625 77.777344 L 97.699219 76.089844 C 98.363281 74.738281 98.363281 74.738281 99.9375 73.167969 M 307.671875 162.855469 C 310.160156 163.5 312 164.351562 313.96875 166 C 315.71875 168.109375 316.851562 169.761719 317.574219 172.398438 C 318.023438 175.496094 318.046875 178.546875 318.0625 181.675781 L 318.074219 183.722656 C 318.082031 185.152344 318.089844 186.582031 318.089844 188.007812 C 318.097656 190.175781 318.125 192.339844 318.148438 194.507812 C 318.152344 195.902344 318.15625 197.292969 318.160156 198.6875 L 318.191406 200.625 C 318.171875 205.109375 317.457031 209.117188 315.542969 213.207031 C 314.328125 214.757812 313.128906 215.863281 311.605469 217.140625 L 312.394531 219.5 C 313.964844 220.824219 313.964844 220.824219 315.542969 221.859375 C 314.851562 227.167969 314.851562 227.167969 313.96875 228.941406 C 312.175781 228.371094 312.175781 228.371094 310.035156 227.367188 C 308.605469 225.746094 308.605469 225.746094 307.230469 223.875 C 305.347656 221.636719 304.15625 220.441406 301.398438 219.40625 C 299.761719 219.046875 298.121094 218.703125 296.476562 218.382812 C 294.296875 217.925781 294.296875 217.925781 291.542969 216.648438 C 288.808594 214.050781 287.597656 211.261719 286.425781 207.699219 C 286.015625 205.007812 285.984375 202.375 286.007812 199.65625 L 286 197.402344 C 285.996094 195.84375 286.003906 194.28125 286.015625 192.71875 C 286.035156 190.34375 286.015625 187.96875 285.996094 185.59375 C 286 184.070312 286.003906 182.542969 286.007812 181.019531 L 285.988281 178.890625 C 286.050781 174.742188 286.726562 171.730469 288.703125 168.074219 C 290.019531 166.132812 291.550781 164.898438 293.507812 163.640625 C 298.03125 162.132812 302.960938 162.503906 307.671875 162.855469 M 472.207031 72.769531 C 475.503906 74.050781 477.726562 76.011719 480 78.671875 C 481.625 81.195312 481.953125 83.589844 482.359375 86.539062 C 482.441406 88.636719 482.488281 90.710938 482.492188 92.804688 L 482.5 94.589844 C 482.503906 95.832031 482.503906 97.074219 482.503906 98.316406 C 482.507812 100.199219 482.519531 102.082031 482.535156 103.964844 C 482.539062 105.179688 482.539062 106.390625 482.539062 107.605469 L 482.558594 109.285156 C 482.535156 114.136719 481.523438 118.355469 479.851562 122.925781 C 478.480469 125.003906 477.777344 125.683594 475.71875 126.910156 C 471.875 128.730469 468.78125 129.253906 464.558594 129.195312 C 461.558594 128.921875 459.03125 128.105469 456.394531 126.664062 C 454.027344 124.761719 452.726562 123.324219 451.476562 120.566406 C 450.070312 114.476562 449.96875 108.355469 450 102.128906 L 450.011719 99.722656 C 450.03125 97.425781 450.058594 95.128906 450.097656 92.835938 L 450.128906 91.015625 C 450.332031 82.308594 450.332031 82.308594 452.214844 78.574219 C 454.199219 76.109375 455.972656 74.671875 458.753906 73.167969 C 462.984375 71.832031 467.898438 71.75 472.207031 72.769531 M 446.164062 162.855469 C 453.398438 162.167969 462.207031 162.265625 469.015625 165.09375 C 470.980469 166.292969 472.210938 167.683594 473.558594 169.542969 C 475.410156 173.445312 475.414062 177.160156 475.4375 181.425781 L 475.449219 183.425781 C 475.457031 184.820312 475.464844 186.214844 475.464844 187.613281 C 475.476562 189.730469 475.5 191.84375 475.523438 193.960938 C 475.527344 195.324219 475.53125 196.683594 475.535156 198.046875 L 475.566406 199.9375 C 475.546875 204.40625 474.761719 208.328125 472.917969 212.417969 C 470.980469 214.878906 469.582031 216.089844 466.71875 217.335938 C 462.035156 218.460938 457.46875 218.835938 452.65625 218.859375 L 449.570312 218.894531 C 446.949219 218.710938 446.949219 218.710938 444.589844 217.140625 C 444.296875 214.960938 444.296875 214.960938 444.296875 212.144531 L 444.289062 210.59375 C 444.28125 208.898438 444.292969 207.203125 444.304688 205.511719 C 444.304688 204.332031 444.304688 203.15625 444.300781 201.980469 C 444.300781 199.515625 444.308594 197.050781 444.324219 194.585938 C 444.34375 191.421875 444.34375 188.257812 444.335938 185.09375 C 444.335938 182.664062 444.339844 180.238281 444.347656 177.808594 C 444.351562 176.640625 444.351562 175.476562 444.351562 174.308594 C 444.351562 172.679688 444.359375 171.050781 444.375 169.421875 L 444.382812 166.609375 L 444.589844 164.425781 Z M 517.769531 163.640625 C 520.925781 163.394531 524.097656 163.421875 527.261719 163.394531 L 529.933594 163.324219 C 533.972656 163.292969 537.414062 163.320312 541.105469 165.085938 C 543.734375 166.789062 543.734375 166.789062 545.65625 169.097656 C 547.785156 173.273438 547.804688 177.300781 547.832031 181.917969 L 547.84375 183.800781 C 547.851562 185.117188 547.855469 186.429688 547.859375 187.742188 C 547.867188 189.730469 547.890625 191.71875 547.917969 193.703125 C 548.007812 207.136719 548.007812 207.136719 545.308594 212.417969 C 543.445312 214.671875 541.273438 216 538.671875 217.335938 C 534.039062 218.691406 529.390625 218.835938 524.605469 218.8125 L 522.902344 218.820312 C 518.757812 218.8125 518.757812 218.8125 516.984375 217.925781 C 516.964844 210.964844 516.949219 204 516.941406 197.039062 C 516.9375 193.808594 516.933594 190.574219 516.921875 187.34375 C 516.914062 184.226562 516.910156 181.109375 516.90625 177.992188 C 516.90625 176.800781 516.902344 175.609375 516.898438 174.417969 C 516.894531 172.753906 516.890625 171.089844 516.894531 169.429688 L 516.886719 166.554688 L 516.980469 164.425781 Z M 234.492188 72.378906 C 241.929688 71.910156 251.308594 71.476562 258.183594 74.738281 C 260.246094 76.289062 261.328125 78.042969 262.519531 80.308594 C 263.957031 83.808594 263.960938 87.167969 263.949219 90.910156 L 263.960938 93.058594 C 263.964844 94.550781 263.964844 96.046875 263.957031 97.539062 C 263.953125 99.804688 263.972656 102.070312 264 104.335938 C 264 105.796875 264 107.253906 263.996094 108.710938 L 264.023438 110.738281 C 263.96875 115.539062 262.886719 119.351562 260.460938 123.515625 C 258.445312 125.640625 256.933594 126.511719 254.203125 127.523438 C 250.195312 128.621094 246.136719 128.40625 242.015625 128.335938 L 239.589844 128.316406 C 237.628906 128.296875 235.667969 128.269531 233.707031 128.238281 C 232.96875 125.742188 232.820312 123.496094 232.816406 120.898438 L 232.808594 118.359375 L 232.816406 115.621094 L 232.8125 112.789062 C 232.8125 110.804688 232.8125 108.824219 232.816406 106.839844 C 232.820312 103.832031 232.816406 100.820312 232.8125 97.808594 C 232.8125 95.878906 232.8125 93.949219 232.816406 92.019531 L 232.808594 89.316406 C 232.824219 83.925781 232.894531 78.507812 233.707031 73.167969 Z M 205.378906 162.855469 C 212.652344 162.394531 220.34375 162.527344 227.410156 164.425781 C 230.21875 166.003906 232.082031 167.820312 233.792969 170.53125 C 236.023438 176.148438 235.425781 182.632812 235.425781 188.585938 C 235.425781 190.28125 235.441406 191.976562 235.457031 193.675781 C 235.484375 200.34375 235.429688 206.542969 232.425781 212.664062 C 230.011719 215.398438 227.703125 216.757812 224.265625 217.925781 C 217.824219 219.304688 211.035156 219.039062 204.589844 217.925781 C 204.574219 210.859375 204.558594 203.796875 204.550781 196.734375 C 204.546875 193.453125 204.542969 190.171875 204.53125 186.894531 C 204.523438 183.730469 204.519531 180.566406 204.515625 177.40625 C 204.515625 176.195312 204.511719 174.988281 204.507812 173.777344 C 204.503906 172.089844 204.5 170.402344 204.503906 168.714844 L 204.496094 165.796875 L 204.589844 163.640625 Z M 400.738281 72.777344 C 403.453125 73.65625 405.050781 74.550781 407.113281 76.558594 C 409.003906 79.683594 409.917969 82.105469 410.058594 85.792969 C 410.066406 88.140625 410.019531 90.488281 409.96875 92.835938 L 400.523438 92.835938 L 400.140625 85.765625 C 399.878906 83.390625 399.878906 83.390625 398.671875 81.539062 L 397.375 80.246094 C 395.015625 79.722656 395.015625 79.722656 392.65625 80.246094 C 391.191406 81.375 391.191406 81.375 390.296875 83.394531 C 389.960938 85.859375 390.003906 88.304688 390.035156 90.789062 L 390.042969 92.972656 C 390.046875 94.492188 390.058594 96.011719 390.074219 97.53125 C 390.097656 99.855469 390.105469 102.175781 390.109375 104.5 C 390.117188 105.976562 390.125 107.457031 390.132812 108.933594 L 390.144531 111.035156 C 390.183594 114.242188 390.28125 117.238281 391.082031 120.371094 L 398.949219 120.371094 L 400.523438 107.78125 L 409.96875 107.78125 C 410.183594 113.480469 410.179688 118.339844 407.605469 123.515625 C 405.933594 125.828125 405.933594 125.828125 403.671875 127.449219 C 401.335938 128.195312 399.011719 128.671875 396.589844 129.023438 L 396.589844 132.171875 L 399.195312 132.417969 C 402.097656 132.957031 402.097656 132.957031 403.4375 133.949219 C 404.457031 135.320312 404.457031 135.320312 404.800781 137.015625 C 404.804688 138.859375 404.769531 140.578125 404.457031 142.398438 C 402.695312 144.34375 401.445312 144.714844 398.949219 145.546875 C 396.050781 145.648438 393.84375 145.679688 391.082031 144.757812 L 390.296875 140.824219 L 398.164062 140.039062 L 397.375 136.890625 L 395.015625 135.859375 L 392.65625 134.53125 C 391.96875 131.632812 391.96875 131.632812 391.867188 129.023438 L 388.96875 128.089844 C 386.597656 127.199219 385.316406 126.453125 383.3125 124.796875 C 381.171875 122.15625 380.3125 120.015625 379.644531 116.710938 C 379.222656 113.6875 379.136719 110.714844 379.117188 107.667969 L 379.105469 105.835938 C 379.097656 104.558594 379.09375 103.285156 379.089844 102.007812 C 379.082031 100.078125 379.058594 98.144531 379.035156 96.214844 C 378.992188 89.921875 379.015625 84.519531 381.640625 78.671875 C 382.910156 76.507812 383.929688 75.230469 386.113281 73.980469 C 390.839844 71.917969 395.722656 71.664062 400.738281 72.777344 M 271.476562 72.378906 C 277.214844 72.195312 277.214844 72.195312 280.132812 73.167969 L 280.144531 74.746094 C 280.199219 80.183594 280.261719 85.621094 280.339844 91.058594 C 280.363281 93.085938 280.386719 95.113281 280.40625 97.144531 C 280.429688 100.0625 280.472656 102.976562 280.515625 105.894531 L 280.53125 108.636719 C 280.558594 113.789062 280.558594 113.789062 282.125 118.621094 L 283.28125 120.371094 L 288.789062 120.371094 C 291.484375 115.355469 291.519531 110.824219 291.550781 105.203125 L 291.59375 102.421875 C 291.636719 99.503906 291.664062 96.589844 291.691406 93.671875 C 291.714844 91.6875 291.742188 89.703125 291.769531 87.71875 C 291.835938 82.867188 291.890625 78.015625 291.933594 73.167969 C 293.808594 72.230469 295.015625 72.273438 297.097656 72.28125 L 299.019531 72.273438 L 300.589844 72.378906 L 301.378906 73.167969 C 301.464844 74.480469 301.496094 75.796875 301.503906 77.117188 L 301.527344 79.671875 L 301.539062 82.460938 L 301.550781 85.316406 C 301.558594 87.316406 301.5625 89.320312 301.566406 91.324219 C 301.574219 94.375 301.597656 97.421875 301.625 100.472656 C 301.628906 102.417969 301.632812 104.363281 301.636719 106.308594 L 301.664062 109.058594 C 301.652344 114.269531 301.195312 118.738281 299.015625 123.515625 C 297.789062 125.386719 297.789062 125.386719 295.871094 126.664062 C 291.894531 128.40625 288.210938 129.246094 283.871094 128.925781 C 280.667969 128.453125 278.136719 127.691406 275.410156 125.878906 C 273.078125 123.542969 271.863281 121.382812 271.003906 118.203125 C 270.316406 114.328125 270.484375 110.382812 270.507812 106.460938 L 270.507812 103.578125 C 270.511719 101.578125 270.519531 99.578125 270.527344 97.578125 C 270.542969 94.5 270.542969 91.425781 270.542969 88.347656 C 270.546875 86.402344 270.550781 84.460938 270.558594 82.515625 L 270.558594 79.710938 L 270.574219 77.140625 L 270.585938 74.867188 L 270.691406 73.167969 Z M 325.769531 162.855469 C 327.082031 162.78125 328.394531 162.746094 329.707031 162.753906 L 331.871094 162.75 L 333.640625 162.855469 L 334.425781 163.640625 C 334.515625 164.945312 334.550781 166.257812 334.5625 167.566406 L 334.59375 170.105469 L 334.621094 172.871094 L 334.699219 178.621094 C 334.738281 181.652344 334.769531 184.6875 334.800781 187.71875 C 334.832031 190.636719 334.875 193.558594 334.914062 196.472656 L 334.9375 199.222656 L 334.976562 201.789062 L 335 204.042969 C 335.230469 206.289062 335.855469 208.011719 336.789062 210.058594 C 338.617188 210.363281 340.453125 210.625 342.296875 210.84375 L 343.871094 210.058594 C 346.03125 205.53125 345.71875 200.664062 345.769531 195.753906 L 345.816406 192.972656 C 345.863281 190.046875 345.898438 187.121094 345.933594 184.195312 L 346.027344 178.234375 C 346.101562 173.367188 346.167969 168.503906 346.230469 163.640625 C 349.183594 163.007812 351.855469 162.714844 354.886719 162.855469 L 355.671875 163.640625 C 355.757812 164.925781 355.789062 166.214844 355.800781 167.503906 L 355.824219 170.003906 L 355.832031 172.734375 L 355.84375 175.53125 C 355.851562 177.496094 355.859375 179.457031 355.859375 181.417969 C 355.867188 184.402344 355.894531 187.386719 355.917969 190.371094 C 355.921875 192.277344 355.925781 194.183594 355.929688 196.089844 L 355.960938 198.777344 C 355.945312 204.167969 355.40625 208.980469 353.3125 213.992188 C 351.792969 216.015625 350.699219 216.875 348.457031 217.984375 C 345.6875 218.890625 343.292969 218.949219 340.378906 218.957031 L 337.332031 218.996094 C 334.226562 218.691406 332.355469 217.964844 329.707031 216.351562 C 327.09375 213.671875 325.996094 211.269531 324.984375 207.699219 C 324.789062 205.464844 324.789062 205.464844 324.792969 203.128906 L 324.785156 200.464844 L 324.804688 197.628906 L 324.804688 194.691406 C 324.804688 192.648438 324.8125 190.605469 324.820312 188.5625 C 324.835938 185.421875 324.835938 182.28125 324.835938 179.140625 C 324.839844 177.15625 324.847656 175.171875 324.851562 173.191406 L 324.855469 170.324219 L 324.871094 167.699219 L 324.878906 165.375 L 324.984375 163.640625 Z M 364.328125 72.378906 C 366.023438 78.917969 367.492188 85.476562 368.8125 92.097656 L 369.382812 94.945312 C 369.78125 96.910156 370.171875 98.878906 370.566406 100.847656 C 371.167969 103.863281 371.773438 106.878906 372.382812 109.894531 L 373.535156 115.648438 L 374.085938 118.378906 L 374.589844 120.910156 L 375.03125 123.132812 C 375.34375 125.089844 375.34375 125.089844 375.34375 128.238281 L 366.6875 128.238281 C 364.90625 123.78125 364.671875 120.410156 364.328125 115.648438 L 354.886719 115.648438 L 354.398438 118.203125 L 353.753906 121.5 L 353.433594 123.1875 C 353.148438 124.613281 352.847656 126.035156 352.523438 127.449219 L 351.738281 128.238281 C 350.28125 128.292969 348.820312 128.304688 347.363281 128.289062 L 344.949219 128.265625 L 343.082031 128.238281 C 343.558594 121.824219 344.699219 115.605469 345.957031 109.304688 L 346.578125 106.167969 C 347.007812 103.996094 347.441406 101.824219 347.875 99.652344 C 348.433594 96.863281 348.984375 94.078125 349.527344 91.289062 C 349.953125 89.136719 350.378906 86.988281 350.8125 84.839844 C 351.117188 83.308594 351.417969 81.78125 351.714844 80.25 L 352.277344 77.464844 L 352.769531 75 C 353.039062 74.09375 353.039062 74.09375 353.3125 73.167969 C 356.542969 71.550781 360.769531 72.34375 364.328125 72.378906 M 425.703125 72.378906 C 427.921875 72.148438 427.921875 72.148438 430.523438 72.234375 L 433.136719 72.296875 L 435.148438 72.378906 C 437.160156 77.988281 438.472656 83.582031 439.632812 89.421875 L 440.203125 92.261719 C 440.597656 94.234375 440.992188 96.207031 441.382812 98.179688 C 441.980469 101.191406 442.589844 104.203125 443.203125 107.210938 C 443.585938 109.132812 443.96875 111.054688 444.351562 112.976562 L 444.902344 115.691406 C 445.742188 119.949219 446.390625 123.898438 446.164062 128.238281 L 437.507812 128.238281 L 434.359375 115.648438 L 425.703125 116.4375 L 423.34375 128.238281 L 414.6875 128.238281 C 413.730469 125.363281 414.136719 123.917969 414.726562 120.953125 L 415.332031 117.875 L 416.007812 114.542969 L 416.6875 111.132812 C 417.164062 108.746094 417.644531 106.363281 418.125 103.980469 C 418.746094 100.925781 419.355469 97.871094 419.960938 94.8125 C 420.425781 92.464844 420.898438 90.117188 421.371094 87.769531 C 421.597656 86.640625 421.824219 85.515625 422.046875 84.386719 C 422.359375 82.8125 422.679688 81.238281 423 79.664062 L 423.546875 76.949219 C 424.128906 74.738281 424.128906 74.738281 425.703125 72.378906 M 491.015625 162.855469 C 493.234375 162.625 493.234375 162.625 495.835938 162.707031 L 498.449219 162.773438 L 500.457031 162.855469 C 502.476562 168.472656 503.785156 174.074219 504.941406 179.925781 L 505.515625 182.773438 C 505.910156 184.746094 506.304688 186.722656 506.695312 188.695312 C 507.292969 191.71875 507.902344 194.734375 508.511719 197.753906 C 508.898438 199.679688 509.28125 201.601562 509.664062 203.527344 L 510.214844 206.253906 L 510.71875 208.808594 L 511.160156 211.042969 C 511.496094 213.363281 511.527344 215.582031 511.472656 217.925781 C 508.339844 218.753906 505.980469 218.585938 502.820312 217.925781 C 501.871094 214.261719 501.019531 210.660156 500.457031 206.910156 L 491.015625 206.910156 L 488.65625 217.925781 C 484.980469 218.660156 482.820312 218.5625 479.210938 217.925781 C 481.382812 205.898438 483.652344 193.894531 486.019531 181.90625 C 486.300781 180.480469 486.578125 179.058594 486.855469 177.632812 C 487.25 175.613281 487.648438 173.597656 488.050781 171.582031 C 488.167969 170.972656 488.285156 170.363281 488.402344 169.738281 C 488.953125 167.007812 489.453125 165.199219 491.015625 162.855469 M 372.195312 162.855469 C 374.1875 162.671875 374.1875 162.671875 376.523438 162.707031 L 378.859375 162.722656 C 380.851562 162.855469 380.851562 162.855469 382.425781 163.640625 C 383.003906 165.621094 383.003906 165.621094 383.542969 168.289062 L 384.164062 171.304688 L 384.816406 174.59375 L 385.5 177.949219 C 385.976562 180.296875 386.445312 182.644531 386.914062 184.996094 C 387.515625 188.003906 388.121094 191.007812 388.734375 194.015625 C 389.207031 196.328125 389.671875 198.640625 390.136719 200.953125 L 390.808594 204.273438 C 391.125 205.828125 391.433594 207.382812 391.742188 208.933594 L 392.277344 211.613281 C 392.621094 213.769531 392.730469 215.746094 392.65625 217.925781 C 389.652344 219.007812 387.089844 218.460938 384 217.925781 C 382.476562 213.96875 382.019531 210.316406 381.640625 206.125 L 371.410156 206.125 L 371.066406 210.253906 C 370.847656 212.894531 370.558594 215.375 369.835938 217.925781 C 366.488281 218.839844 363.789062 218.523438 360.394531 217.925781 C 361.410156 211.015625 362.597656 204.136719 363.960938 197.289062 L 364.523438 194.433594 C 364.914062 192.464844 365.304688 190.496094 365.699219 188.523438 C 366.300781 185.5 366.890625 182.472656 367.484375 179.449219 C 367.867188 177.527344 368.25 175.605469 368.632812 173.6875 L 369.164062 170.941406 L 369.675781 168.414062 L 370.117188 166.191406 C 370.625 164.425781 370.625 164.425781 372.195312 162.855469 M 331.179688 73.265625 C 333.449219 74.625 335.183594 75.917969 336.789062 78.039062 C 338.710938 81.515625 339.082031 85.339844 339.296875 89.246094 C 339.148438 91.261719 339.148438 91.261719 338.359375 92.835938 L 329.707031 92.835938 C 328.34375 90.113281 328.601562 86.988281 328.429688 83.984375 L 328.132812 81.820312 L 326.558594 80.246094 C 323.738281 80.117188 323.738281 80.117188 321.050781 80.246094 C 318.730469 84.761719 318.390625 88.238281 318.574219 93.265625 L 318.628906 95.394531 C 318.667969 96.871094 318.710938 98.34375 318.761719 99.820312 C 318.835938 102.082031 318.890625 104.34375 318.941406 106.605469 C 318.984375 108.042969 319.023438 109.480469 319.066406 110.917969 L 319.117188 112.964844 L 319.1875 114.867188 L 319.242188 116.539062 C 319.414062 118.269531 319.414062 118.269531 321.050781 120.371094 C 323.804688 120.765625 323.804688 120.765625 326.558594 120.371094 C 328.300781 118.132812 328.300781 118.132812 328.457031 115.542969 L 328.625 112.75 L 328.800781 109.9375 L 328.917969 107.78125 L 338.359375 107.78125 C 339.523438 112.425781 338.621094 116.535156 337.574219 121.15625 C 336.34375 123.960938 336.34375 123.960938 334.425781 125.878906 C 331.097656 127.996094 327.757812 129.210938 323.804688 129.417969 C 319.863281 129.21875 316.523438 127.9375 313.179688 125.878906 C 311.21875 123.964844 310.242188 122.441406 309.183594 119.933594 C 308.246094 116.425781 308.21875 113.171875 308.222656 109.554688 L 308.210938 107.339844 C 308.207031 105.796875 308.207031 104.257812 308.210938 102.714844 C 308.214844 100.367188 308.195312 98.019531 308.175781 95.671875 C 308.171875 94.167969 308.171875 92.667969 308.175781 91.167969 L 308.152344 89.054688 C 308.183594 84.730469 308.796875 81.726562 310.820312 77.886719 C 312.144531 76.34375 312.144531 76.34375 313.527344 75.230469 L 314.898438 74.082031 C 319.300781 71.261719 326.40625 71.480469 331.179688 73.265625 M 589.03125 312.480469 C 592.554688 314.339844 595.148438 316.445312 597.882812 319.367188 C 599.453125 322.09375 599.578125 325.015625 599.695312 328.121094 L 599.683594 330.644531 L 599.675781 333.394531 L 599.652344 336.230469 L 599.644531 339.121094 C 599.632812 341.46875 599.621094 343.816406 599.605469 346.164062 C 595.261719 346.183594 590.921875 346.195312 586.578125 346.207031 C 585.101562 346.210938 583.625 346.214844 582.144531 346.222656 C 580.027344 346.234375 577.90625 346.238281 575.785156 346.242188 L 573.773438 346.253906 C 569.097656 346.253906 569.097656 346.253906 567.34375 345.375 C 567.296875 342.214844 567.269531 339.050781 567.246094 335.886719 L 567.203125 333.183594 C 567.175781 328.554688 567.1875 324.527344 568.917969 320.199219 C 570.714844 317.351562 572.96875 315.171875 575.703125 313.21875 C 580.160156 311.109375 584.304688 310.90625 589.03125 312.480469 M 555.539062 162.855469 C 557.171875 162.785156 558.804688 162.769531 560.4375 162.777344 L 563.441406 162.785156 L 566.605469 162.804688 C 567.664062 162.808594 568.722656 162.8125 569.777344 162.816406 C 572.375 162.824219 574.972656 162.835938 577.570312 162.855469 L 577.570312 169.933594 C 573.328125 170.828125 569.296875 170.78125 564.980469 170.722656 L 564.980469 185.667969 L 569.65625 185.621094 C 571.242188 185.601562 572.835938 185.613281 574.425781 185.667969 L 575.210938 186.457031 C 575.324219 188.558594 575.246094 190.644531 575.210938 192.75 C 572.0625 193.535156 572.0625 193.535156 564.980469 193.535156 L 564.980469 211.632812 C 569.089844 211.601562 569.089844 211.601562 573.199219 211.5625 C 574.65625 211.554688 576.113281 211.59375 577.570312 211.632812 L 578.359375 212.417969 C 578.390625 214.253906 578.390625 216.089844 578.359375 217.925781 C 573.09375 218.5625 567.871094 218.796875 562.574219 218.8125 L 560.785156 218.820312 C 556.519531 218.808594 556.519531 218.808594 554.753906 217.925781 C 554.734375 210.859375 554.722656 203.796875 554.710938 196.734375 C 554.707031 193.453125 554.703125 190.171875 554.695312 186.894531 C 554.683594 183.730469 554.679688 180.566406 554.679688 177.40625 C 554.675781 176.195312 554.671875 174.988281 554.667969 173.777344 C 554.664062 172.089844 554.664062 170.402344 554.664062 168.714844 L 554.65625 165.796875 L 554.753906 163.640625 Z M 214.917969 72.273438 L 216.996094 72.273438 L 219.097656 72.28125 L 221.269531 72.273438 L 225.191406 72.277344 L 226.625 72.378906 L 227.410156 73.167969 L 227.410156 79.460938 L 214.820312 80.246094 L 214.820312 95.980469 L 225.050781 95.980469 C 225.128906 100.820312 225.128906 100.820312 225.050781 102.277344 L 224.265625 103.0625 C 221.113281 103.175781 217.972656 103.09375 214.820312 103.0625 L 214.820312 121.15625 L 227.410156 121.15625 C 228.484375 123.304688 228.300781 125.078125 228.199219 127.449219 L 227.410156 128.238281 L 204.589844 128.238281 L 204.589844 73.167969 C 211.6875 72.28125 211.6875 72.28125 214.917969 72.273438 M 243.148438 162.855469 C 244.445312 162.777344 245.746094 162.75 247.046875 162.75 L 249.460938 162.746094 L 252 162.753906 L 254.507812 162.746094 L 259.152344 162.753906 C 261.234375 162.851562 263.152344 163.175781 265.179688 163.640625 L 265.179688 169.933594 L 252.589844 171.507812 L 251.804688 185.667969 L 257.644531 185.59375 C 259.5 185.664062 261.046875 185.929688 262.820312 186.457031 L 262.820312 191.964844 C 259.210938 193.65625 256.890625 193.785156 252.589844 194.324219 L 252.589844 210.84375 L 265.179688 211.632812 L 265.179688 217.925781 C 262.875 218.585938 260.820312 218.8125 258.421875 218.816406 L 256.355469 218.820312 L 254.214844 218.8125 L 252.082031 218.820312 L 250.011719 218.816406 L 248.136719 218.8125 C 246.152344 218.703125 244.304688 218.332031 242.363281 217.925781 C 242.34375 210.859375 242.332031 203.796875 242.320312 196.734375 C 242.316406 193.453125 242.3125 190.171875 242.304688 186.894531 C 242.292969 183.730469 242.289062 180.566406 242.289062 177.40625 C 242.285156 176.195312 242.28125 174.988281 242.277344 173.777344 C 242.273438 172.089844 242.273438 170.402344 242.273438 168.714844 L 242.265625 165.796875 L 242.363281 163.640625 Z M 243.148438 162.855469 " fill-opacity="1" fill-rule="nonzero"/><path fill="#c5182c" d="M 104.660156 103.0625 L 106.230469 103.0625 C 106.25 110.625 106.261719 118.191406 106.273438 125.753906 C 106.277344 129.265625 106.28125 132.777344 106.292969 136.289062 C 106.300781 139.675781 106.304688 143.0625 106.308594 146.449219 C 106.308594 147.746094 106.3125 149.039062 106.316406 150.332031 C 106.320312 152.140625 106.320312 153.949219 106.320312 155.757812 L 106.328125 158.882812 C 106.230469 161.28125 106.230469 161.28125 105.445312 162.855469 L 84.199219 162.855469 C 86.855469 152.234375 86.855469 152.234375 88.40625 147.972656 L 89.445312 145.085938 L 90.550781 142.078125 L 91.699219 138.90625 C 92.695312 136.15625 93.695312 133.40625 94.699219 130.65625 C 95.722656 127.847656 96.746094 125.039062 97.761719 122.226562 C 98.90625 119.074219 100.054688 115.917969 101.203125 112.765625 L 102.230469 109.945312 L 103.136719 107.464844 C 103.660156 106.003906 104.167969 104.535156 104.660156 103.0625 " fill-opacity="1" fill-rule="nonzero"/><path fill="#fefefe" d="M 404.164062 162.753906 L 406.0625 162.75 L 407.605469 162.855469 L 408.394531 163.640625 C 408.46875 165.136719 408.484375 166.636719 408.484375 168.136719 L 408.484375 171.046875 L 408.46875 174.214844 L 408.464844 177.441406 C 408.464844 180.273438 408.457031 183.109375 408.449219 185.941406 C 408.441406 188.832031 408.433594 191.722656 408.433594 194.613281 C 408.421875 200.285156 408.410156 205.957031 408.394531 211.632812 L 411.121094 211.605469 C 412.292969 211.597656 413.464844 211.589844 414.640625 211.582031 L 416.4375 211.5625 C 417.953125 211.554688 419.46875 211.589844 420.984375 211.632812 L 421.769531 212.417969 C 421.800781 214.253906 421.800781 216.089844 421.769531 217.925781 C 418.117188 218.847656 414.589844 218.828125 410.851562 218.8125 L 409 218.820312 L 407.167969 218.816406 L 405.535156 218.8125 C 403.066406 218.679688 400.613281 218.277344 398.164062 217.925781 L 398.164062 163.640625 C 400.398438 162.894531 401.84375 162.746094 404.164062 162.753906 M 432.492188 162.753906 L 434.390625 162.75 L 435.933594 162.855469 L 436.722656 163.640625 C 436.792969 165.328125 436.8125 167.023438 436.8125 168.714844 L 436.8125 170.320312 C 436.8125 172.078125 436.804688 173.835938 436.796875 175.59375 L 436.792969 179.238281 C 436.789062 182.445312 436.785156 185.652344 436.773438 188.859375 C 436.769531 192.128906 436.761719 195.398438 436.757812 198.667969 C 436.75 205.085938 436.738281 211.507812 436.722656 217.925781 C 433.324219 218.710938 430.71875 218.585938 427.277344 217.925781 L 426.492188 217.140625 C 426.421875 215.472656 426.394531 213.804688 426.402344 212.136719 L 426.402344 210.558594 C 426.402344 208.824219 426.410156 207.09375 426.414062 205.359375 L 426.417969 201.761719 C 426.421875 198.605469 426.425781 195.445312 426.4375 192.285156 C 426.445312 189.0625 426.449219 185.839844 426.453125 182.621094 C 426.460938 176.292969 426.472656 169.964844 426.492188 163.640625 C 428.726562 162.894531 430.171875 162.746094 432.492188 162.753906 " fill-opacity="1" fill-rule="nonzero"/><path fill="#c5182c" d="M 463.476562 79.460938 C 466.128906 79.117188 466.128906 79.117188 468.984375 79.460938 C 470.710938 80.980469 470.710938 80.980469 472.128906 83.394531 C 472.566406 85.890625 472.535156 88.339844 472.492188 90.867188 C 472.492188 91.585938 472.492188 92.304688 472.492188 93.046875 C 472.484375 94.5625 472.472656 96.078125 472.453125 97.59375 C 472.429688 99.90625 472.417969 102.222656 472.421875 104.539062 C 472.414062 106.011719 472.40625 107.488281 472.394531 108.960938 L 472.390625 111.054688 C 472.292969 117.367188 472.292969 117.367188 470.554688 120.371094 C 468.34375 121.550781 468.34375 121.550781 465.835938 121.945312 C 463.671875 121.15625 463.671875 121.15625 461.902344 119.582031 C 460.203125 115.6875 460.097656 112.167969 460.117188 108 L 460.113281 106.039062 C 460.113281 104.675781 460.117188 103.3125 460.121094 101.949219 C 460.128906 99.871094 460.121094 97.789062 460.113281 95.710938 C 460.113281 94.382812 460.113281 93.054688 460.117188 91.726562 L 460.109375 89.851562 C 460.136719 86.574219 460.351562 83.949219 461.902344 81.035156 Z M 302.164062 169.542969 C 304.523438 169.933594 304.523438 169.933594 306.21875 171.046875 C 307.671875 173.082031 307.671875 173.082031 307.972656 174.679688 C 308.105469 176.734375 308.128906 178.765625 308.117188 180.824219 L 308.132812 183.109375 C 308.140625 184.703125 308.136719 186.300781 308.125 187.894531 C 308.117188 190.328125 308.140625 192.765625 308.171875 195.203125 C 308.171875 196.753906 308.171875 198.300781 308.167969 199.851562 L 308.199219 202.054688 C 308.171875 204.015625 308.085938 205.785156 307.671875 207.699219 C 305.855469 210.152344 305.855469 210.152344 303.738281 211.632812 C 300.835938 211.683594 300.835938 211.683594 298.230469 210.84375 C 297.144531 209.214844 296.691406 207.972656 296.445312 206.027344 L 296.425781 204.214844 L 296.398438 202.144531 L 296.390625 199.929688 L 296.375 197.636719 C 296.367188 196.039062 296.363281 194.441406 296.363281 192.84375 C 296.363281 190.398438 296.332031 187.957031 296.304688 185.511719 C 296.296875 183.957031 296.296875 182.40625 296.292969 180.851562 L 296.261719 178.636719 C 296.273438 176.734375 296.324219 174.957031 296.65625 173.082031 C 298.433594 170.585938 299.140625 170.046875 302.164062 169.542969 M 243.9375 80.246094 C 248.414062 79.878906 248.414062 79.878906 250.230469 80.246094 C 251.882812 81.378906 251.882812 81.378906 253.378906 83.394531 C 253.84375 85.859375 253.800781 88.289062 253.769531 90.789062 L 253.773438 92.972656 C 253.769531 94.492188 253.761719 96.011719 253.746094 97.53125 C 253.722656 99.855469 253.730469 102.175781 253.738281 104.5 C 253.734375 105.976562 253.726562 107.457031 253.71875 108.933594 L 253.726562 111.035156 C 253.679688 114.039062 253.546875 116.070312 252.285156 118.835938 L 251.019531 120.371094 C 249.265625 120.953125 249.265625 120.953125 247.378906 121.058594 L 245.480469 121.199219 L 243.9375 121.15625 L 243.148438 120.371094 C 243.078125 119.140625 243.042969 117.914062 243.046875 116.683594 L 243.039062 114.304688 L 243.042969 111.714844 L 243.042969 109.078125 C 243.042969 107.234375 243.042969 105.390625 243.046875 103.546875 C 243.050781 100.714844 243.046875 97.878906 243.042969 95.046875 C 243.042969 93.261719 243.042969 91.476562 243.042969 89.6875 L 243.039062 87.097656 L 243.046875 84.722656 L 243.050781 82.617188 L 243.148438 81.035156 Z M 531.933594 170.132812 C 534.292969 170.722656 534.292969 170.722656 535.71875 171.851562 C 536.65625 173.082031 536.65625 173.082031 537.441406 174.65625 C 537.539062 176.953125 537.589844 179.253906 537.601562 181.554688 L 537.613281 183.636719 C 537.621094 185.089844 537.628906 186.546875 537.628906 188.003906 C 537.636719 190.226562 537.660156 192.445312 537.6875 194.667969 C 537.691406 196.082031 537.695312 197.496094 537.699219 198.910156 L 537.730469 200.921875 C 537.71875 203.871094 537.601562 205.78125 536.34375 208.492188 C 535.082031 210.058594 535.082031 210.058594 533.507812 210.84375 L 527.210938 210.84375 L 527.210938 170.722656 C 529.574219 169.933594 529.574219 169.933594 531.933594 170.132812 M 216.394531 169.933594 C 219.148438 170.082031 219.148438 170.082031 221.902344 170.722656 C 223.378906 171.804688 223.378906 171.804688 224.265625 173.082031 C 225.269531 176.09375 225.179688 178.9375 225.183594 182.074219 L 225.191406 184.046875 C 225.195312 185.421875 225.195312 186.800781 225.195312 188.175781 C 225.199219 190.277344 225.210938 192.378906 225.226562 194.480469 C 225.230469 195.820312 225.230469 197.15625 225.230469 198.496094 L 225.25 200.394531 C 225.234375 203.671875 225.128906 206.34375 223.476562 209.269531 C 221.117188 210.84375 221.117188 210.84375 219.507812 211 L 217.820312 210.941406 L 214.820312 210.84375 C 214.15625 208.527344 213.929688 206.449219 213.90625 204.042969 L 213.882812 201.863281 L 213.875 199.53125 L 213.859375 197.121094 C 213.855469 195.441406 213.847656 193.761719 213.84375 192.085938 C 213.835938 189.507812 213.8125 186.933594 213.789062 184.355469 C 213.785156 182.726562 213.777344 181.097656 213.777344 179.46875 L 213.746094 177.125 L 213.753906 174.960938 L 213.746094 173.050781 C 213.839844 172.542969 213.9375 172.03125 214.035156 171.507812 Z M 459.933594 170.03125 L 462.6875 170.722656 C 464.019531 172.285156 464.019531 172.285156 465.046875 174.65625 C 465.382812 177.035156 465.378906 179.386719 465.363281 181.785156 L 465.371094 183.855469 C 465.371094 185.296875 465.367188 186.738281 465.355469 188.179688 C 465.34375 190.382812 465.355469 192.582031 465.371094 194.785156 C 465.371094 196.1875 465.367188 197.589844 465.363281 198.996094 L 465.375 200.980469 C 465.339844 203.90625 465.199219 205.800781 463.945312 208.488281 C 462.6875 210.058594 462.6875 210.058594 461.113281 210.84375 L 454.820312 210.84375 L 454.820312 170.722656 C 457.179688 169.933594 457.179688 169.933594 459.933594 170.03125 " fill-opacity="1" fill-rule="nonzero"/><path fill="#dd2f40" d="M 599.605469 428.769531 L 600.390625 428.769531 C 600.449219 433.957031 600.507812 439.144531 600.5625 444.328125 L 600.589844 446.792969 C 600.699219 456.875 600.796875 466.957031 600.878906 477.039062 L 600.902344 479.917969 C 600.933594 483.8125 600.964844 487.707031 600.996094 491.605469 C 601.082031 502.992188 601.199219 514.382812 601.386719 525.773438 C 601.496094 532.621094 601.578125 539.46875 601.640625 546.316406 C 601.679688 550.3125 601.730469 554.304688 601.816406 558.300781 C 602.269531 579.410156 600.621094 599.148438 593.308594 619.160156 L 591.734375 620.734375 C 591.488281 622.230469 591.488281 622.230469 591.441406 623.929688 C 591.089844 628.015625 589.644531 631.269531 587.800781 634.894531 L 585.441406 634.894531 C 586.503906 629.085938 587.933594 623.441406 589.550781 617.765625 C 590.554688 614.199219 591.5625 610.628906 592.574219 607.0625 L 594.875 598.902344 L 596.300781 593.84375 L 596.957031 591.535156 L 597.527344 589.507812 L 598.03125 587.691406 L 598.449219 586.398438 C 598.988281 583.691406 598.9375 581 598.941406 578.25 L 598.953125 576.316406 C 598.964844 574.171875 598.972656 572.03125 598.980469 569.886719 L 599.003906 565.28125 C 599.023438 561.109375 599.042969 556.941406 599.054688 552.769531 C 599.074219 548.414062 599.09375 544.054688 599.117188 539.695312 C 599.15625 531.445312 599.191406 523.191406 599.222656 514.9375 C 599.265625 505.542969 599.304688 496.148438 599.351562 486.753906 C 599.441406 467.425781 599.523438 448.097656 599.605469 428.769531 " fill-opacity="1" fill-rule="nonzero"/><path fill="#fefefe" d="M 425.605469 56.300781 C 428.398438 56.691406 430.3125 57.6875 432.785156 59.003906 L 435.148438 59.003906 L 435.933594 57.433594 L 440.65625 57.433594 C 440.195312 62.195312 440.195312 62.195312 439.867188 63.726562 L 438.292969 65.300781 C 435.738281 65.546875 435.738281 65.546875 432.785156 65.300781 L 430.277344 64.019531 L 428.066406 62.9375 C 426.335938 63.5 425.402344 64.027344 424.128906 65.300781 C 422.820312 65.332031 421.507812 65.332031 420.195312 65.300781 C 420 62.742188 420 62.742188 420.195312 59.792969 C 421.820312 57.355469 422.707031 56.742188 425.605469 56.300781 " fill-opacity="1" fill-rule="nonzero"/><path fill="#c5182c" d="M 376.132812 177.015625 L 377.703125 177.015625 C 378.105469 179.652344 378.496094 182.292969 378.886719 184.933594 L 379.226562 187.179688 C 379.8125 191.183594 380.199219 195 380.066406 199.042969 L 372.984375 199.042969 C 373.863281 191.667969 374.828125 184.332031 376.132812 177.015625 M 494.949219 177.015625 L 496.523438 177.015625 C 496.921875 179.359375 497.316406 181.703125 497.703125 184.046875 L 498.046875 186.027344 C 498.765625 190.425781 498.992188 194.585938 498.882812 199.042969 L 492.589844 199.042969 C 491.679688 196.320312 491.941406 194.960938 492.414062 192.152344 L 492.851562 189.484375 L 493.328125 186.703125 L 493.792969 183.890625 C 494.171875 181.597656 494.558594 179.308594 494.949219 177.015625 " fill-opacity="1" fill-rule="nonzero"/><path fill="#df192e" d="M 429.640625 87.328125 L 431.210938 87.328125 C 431.761719 90.71875 432.296875 94.113281 432.835938 97.507812 L 433.308594 100.441406 L 433.75 103.230469 L 434.160156 105.816406 L 434.359375 107.78125 L 433.574219 108.570312 L 426.492188 108.570312 Z M 429.640625 87.328125 " fill-opacity="1" fill-rule="nonzero"/><path fill="#e11a2f" d="M 358.03125 88.113281 L 359.605469 88.113281 C 361.136719 94.875 361.953125 101.691406 362.753906 108.570312 L 355.671875 108.570312 C 356.214844 101.710938 357.085938 94.925781 358.03125 88.113281 M 455.605469 171.507812 L 457.964844 172.292969 L 457.964844 194.324219 L 456.394531 194.324219 L 455.605469 198.257812 L 457.179688 199.042969 L 454.820312 199.832031 C 454.800781 195.921875 454.785156 192.015625 454.777344 188.109375 C 454.773438 186.78125 454.765625 185.449219 454.761719 184.117188 C 454.75 182.210938 454.746094 180.304688 454.742188 178.394531 L 454.730469 176.582031 C 454.730469 175.152344 454.769531 173.722656 454.820312 172.292969 Z M 455.605469 171.507812 " fill-opacity="1" fill-rule="nonzero"/><path fill="#df192e" d="M 450.882812 355.605469 L 452.457031 357.964844 C 449.929688 359.53125 447.398438 361.089844 444.859375 362.640625 C 443.371094 363.550781 441.894531 364.480469 440.433594 365.433594 C 439.03125 366.324219 439.03125 366.324219 436.722656 367.40625 C 434.804688 366.816406 434.804688 366.816406 433.574219 365.832031 L 436.722656 365.832031 L 437.507812 364.257812 C 439.515625 362.566406 441.613281 360.992188 443.804688 359.539062 C 445.917969 359.4375 445.917969 359.4375 447.738281 359.539062 L 447.738281 357.964844 L 450.097656 357.964844 Z M 434.359375 367.40625 L 434.359375 368.980469 C 432.074219 370.339844 429.78125 371.683594 427.476562 373.011719 L 425.507812 374.1875 L 423.601562 375.277344 L 421.855469 376.300781 L 420.195312 376.847656 C 418.410156 376.15625 418.410156 376.15625 417.050781 375.273438 L 420.195312 375.273438 L 420.738281 373.75 L 421.769531 372.125 C 423.785156 371.632812 423.785156 371.632812 425.703125 371.339844 L 426.492188 369.765625 C 428.996094 368.296875 431.445312 367.40625 434.359375 367.40625 " fill-opacity="1" fill-rule="nonzero"/><path fill="#de192e" d="M 406.820312 380.78125 L 408.394531 383.925781 L 396.589844 390.21875 L 395.804688 387.859375 C 397.886719 386.710938 398.867188 386.285156 401.3125 386.285156 L 401.3125 384.714844 L 403.671875 384.714844 L 404.457031 383.140625 C 405.230469 382.335938 406.015625 381.550781 406.820312 380.78125 " fill-opacity="1" fill-rule="nonzero"/><path fill="#dd192e" d="M 461.113281 350.097656 L 463.476562 350.882812 C 460.792969 354.011719 457.707031 355.5 454.03125 357.175781 L 454.03125 354.816406 L 455.605469 354.816406 L 456.394531 353.242188 C 457.949219 352.671875 459.523438 352.144531 461.113281 351.671875 Z M 461.113281 350.097656 " fill-opacity="1" fill-rule="nonzero"/><path fill="#e11a2f" d="M 10.234375 15.734375 C 11.117188 17.113281 11.117188 17.113281 11.804688 18.882812 C 11.066406 20.980469 10.242188 22.015625 8.660156 23.601562 L 7.085938 24.390625 C 7.488281 20.933594 8.28125 18.617188 10.234375 15.734375 " fill-opacity="1" fill-rule="nonzero"/><path fill="#dc192e" d="M 417.835938 376.847656 L 417.835938 378.417969 L 411.539062 381.566406 L 410.753906 379.992188 L 412.328125 379.992188 L 412.328125 378.417969 C 416.066406 376.847656 416.066406 376.847656 417.835938 376.847656 " fill-opacity="1" fill-rule="nonzero"/><path fill="#e11a2f" d="M 14.953125 11.015625 L 16.527344 11.015625 C 16.28125 12.539062 16.28125 12.539062 15.742188 14.160156 L 13.378906 14.949219 L 11.804688 16.519531 L 11.804688 14.160156 C 13.28125 12.441406 13.28125 12.441406 14.953125 11.015625 " fill-opacity="1" fill-rule="nonzero"/><path fill="#cb182c" d="M 358.03125 88.113281 L 359.605469 88.113281 L 360.394531 93.621094 L 358.820312 93.621094 Z M 358.03125 88.113281 " fill-opacity="1" fill-rule="nonzero"/></svg>