<svg xmlns="http://www.w3.org/2000/svg" xmlns:xlink="http://www.w3.org/1999/xlink" width="1024" zoomAndPan="magnify" viewBox="0 0 768 767.999994" height="1024" preserveAspectRatio="xMidYMid meet" version="1.0"><rect x="-76.8" width="921.6" fill="#ffffff" y="-76.799999" height="921.599993" fill-opacity="1"/><rect x="-76.8" width="921.6" fill="#ffffff" y="-76.799999" height="921.599993" fill-opacity="1"/><rect x="-76.8" width="921.6" fill="#fe3a21" y="-76.799999" height="921.599993" fill-opacity="1"/><path fill="#fefefe" d="M 463.800781 292.34375 L 560.199219 292.34375 L 560.199219 389.53125 L 527.011719 389.53125 L 527.011719 353.976562 C 521.828125 358.496094 521.828125 358.496094 516.84375 363.191406 L 514.773438 365.210938 C 511.730469 368.210938 508.691406 371.214844 505.65625 374.222656 C 504.050781 375.8125 502.441406 377.394531 500.824219 378.972656 C 498.859375 380.890625 496.90625 382.816406 494.960938 384.753906 C 493.863281 385.839844 492.757812 386.921875 491.644531 387.996094 L 489.644531 390.003906 L 487.867188 391.753906 C 487.488281 392.324219 487.109375 392.894531 486.714844 393.480469 C 486.941406 396.996094 488.519531 399.304688 490.421875 402.222656 C 500.992188 418.992188 507.132812 438.761719 508.148438 458.613281 C 508.886719 482.382812 503.660156 504.824219 492.789062 525.976562 C 482.367188 544.597656 466.984375 561.019531 448.804688 572.226562 C 435.179688 580.253906 420.011719 585.546875 404.542969 588.640625 L 404.542969 624.199219 L 412.640625 624.34375 C 415.214844 624.390625 417.789062 624.441406 420.367188 624.492188 C 422.160156 624.527344 423.957031 624.558594 425.753906 624.589844 C 428.328125 624.636719 430.902344 624.6875 433.476562 624.738281 L 435.925781 624.777344 L 438.179688 624.824219 L 440.171875 624.863281 L 441.679688 624.988281 L 442.46875 625.777344 C 442.542969 626.894531 442.5625 628.015625 442.558594 629.132812 L 442.558594 631.320312 L 442.546875 633.632812 L 442.542969 635.75 C 442.539062 638.367188 442.527344 640.984375 442.519531 643.605469 L 442.46875 661.332031 L 404.542969 662.125 L 403.753906 697.679688 C 401.148438 698.980469 398.25 698.582031 395.390625 698.574219 L 393.34375 698.578125 C 391.917969 698.578125 390.488281 698.574219 389.0625 698.570312 C 386.878906 698.566406 384.695312 698.570312 382.511719 698.578125 C 381.125 698.578125 379.738281 698.578125 378.351562 698.574219 L 376.375 698.578125 L 374.519531 698.570312 L 372.898438 698.570312 C 371.359375 698.46875 371.359375 698.46875 368.199219 697.679688 L 367.40625 662.125 L 329.480469 661.332031 L 329.433594 643.605469 L 329.410156 638 L 329.402344 633.632812 L 329.390625 631.320312 L 329.390625 629.132812 L 329.386719 627.222656 L 329.480469 625.777344 L 330.273438 624.988281 C 331.4375 624.917969 332.601562 624.890625 333.769531 624.898438 L 336.023438 624.898438 L 338.472656 624.910156 L 340.964844 624.914062 C 343.605469 624.917969 346.246094 624.929688 348.886719 624.9375 C 350.675781 624.941406 352.460938 624.945312 354.246094 624.949219 C 358.632812 624.957031 363.019531 624.972656 367.40625 624.988281 L 367.40625 589.433594 L 359.160156 587.753906 C 338.394531 583.316406 318.613281 574.351562 302.617188 560.199219 L 300.28125 558.179688 C 284.203125 544.074219 272.917969 525.871094 266.023438 505.679688 C 259.046875 484.269531 257.734375 461.378906 262.320312 439.308594 C 266.390625 421.058594 274.121094 404.023438 286.023438 389.53125 L 287.117188 388.1875 C 300.890625 371.308594 318.335938 357.945312 338.765625 350.171875 C 359.191406 342.660156 380.71875 339.761719 402.347656 342.972656 C 406.011719 343.613281 409.625 344.398438 413.234375 345.285156 C 413.984375 345.464844 414.734375 345.648438 415.503906 345.835938 C 430.4375 349.617188 444.050781 355.957031 456.222656 365.445312 L 458.273438 366.617188 C 460.203125 366.597656 460.203125 366.597656 462.222656 365.828125 C 464.210938 364.285156 464.210938 364.285156 466.128906 362.253906 L 467.242188 361.132812 C 468.453125 359.914062 469.648438 358.683594 470.847656 357.453125 C 471.6875 356.605469 472.53125 355.753906 473.371094 354.90625 C 475.582031 352.675781 477.785156 350.433594 479.984375 348.191406 C 483.507812 344.597656 487.046875 341.011719 490.585938 337.433594 C 491.824219 336.179688 493.058594 334.921875 494.289062 333.664062 L 496.550781 331.371094 L 498.546875 329.335938 C 499.339844 328.625 499.339844 328.625 500.148438 327.902344 L 501.726562 327.902344 L 501.726562 326.320312 L 463.800781 326.320312 C 462.980469 323.039062 462.898438 320.0625 462.90625 316.714844 L 462.90625 314.832031 C 462.90625 313.519531 462.90625 312.210938 462.910156 310.898438 C 462.914062 308.894531 462.910156 306.886719 462.902344 304.882812 C 462.902344 303.605469 462.90625 302.332031 462.90625 301.058594 L 462.902344 299.242188 C 462.914062 296.730469 463.003906 294.742188 463.800781 292.34375 " fill-opacity="1" fill-rule="nonzero"/><path fill="#fe3a21" d="M 420.34375 381.628906 C 428.382812 385.417969 435.828125 389.921875 442.46875 395.851562 L 444.417969 397.492188 C 452.804688 404.695312 459.179688 413.113281 464.59375 422.714844 L 465.898438 425.027344 C 474.21875 440.671875 475.566406 457.0625 475.019531 474.519531 C 474.683594 480.390625 473.503906 485.875 471.703125 491.457031 L 471.191406 493.078125 C 467.148438 505.511719 461.035156 516.167969 452.742188 526.222656 L 451.398438 527.960938 C 442.925781 538.480469 429.984375 546.183594 417.664062 551.210938 C 411.601562 553.546875 405.367188 554.96875 399.011719 556.246094 L 397.152344 556.664062 C 382.894531 559.195312 367.375 557.277344 353.828125 552.453125 C 338.5625 546.746094 324.785156 538.167969 314.214844 525.625 C 302.714844 511.488281 296.070312 495.453125 292.769531 477.621094 C 290.597656 462.011719 293.203125 446.054688 298.667969 431.40625 C 303.277344 420.175781 310.105469 410.972656 318.417969 402.171875 L 320.089844 400.347656 C 330.328125 389.546875 344.332031 381.96875 358.476562 377.621094 C 378.839844 371.914062 400.878906 373.347656 420.34375 381.628906 " fill-opacity="1" fill-rule="nonzero"/><path fill="#fefefe" d="M 0 0 L 768 0 L 768 768 L 0 768 Z M 14.816406 9.628906 C 11.703125 11.753906 9.644531 14.046875 7.902344 17.382812 C 6.019531 23.738281 6.101562 30.023438 6.121094 36.589844 L 6.117188 40.292969 C 6.109375 43.683594 6.113281 47.078125 6.117188 50.46875 C 6.121094 54.160156 6.117188 57.847656 6.113281 61.539062 C 6.109375 68.007812 6.105469 74.472656 6.113281 80.941406 C 6.117188 90.558594 6.113281 100.175781 6.109375 109.792969 C 6.101562 126.96875 6.101562 144.144531 6.105469 161.320312 C 6.109375 181.402344 6.109375 201.484375 6.109375 221.566406 C 6.101562 249.796875 6.105469 278.027344 6.109375 306.261719 L 6.109375 307.875 L 6.117188 333.796875 C 6.121094 376.707031 6.117188 419.617188 6.109375 462.527344 L 6.109375 464.140625 C 6.09375 496.902344 6.09375 529.644531 6.109375 562.375 L 6.109375 565.390625 C 6.109375 580.414062 6.109375 595.433594 6.105469 610.457031 C 6.101562 627.535156 6.101562 644.613281 6.109375 661.691406 C 6.117188 671.253906 6.117188 680.816406 6.109375 690.378906 C 6.105469 696.761719 6.109375 703.144531 6.117188 709.527344 C 6.121094 713.167969 6.121094 716.808594 6.113281 720.449219 C 6.109375 723.757812 6.109375 727.070312 6.121094 730.378906 C 6.121094 731.570312 6.121094 732.761719 6.117188 733.949219 C 6.09375 740.945312 6.394531 747.226562 8.789062 753.875 C 10.875 757.070312 13.488281 759.472656 16.59375 761.679688 C 24.1875 765.121094 33.265625 764.164062 41.425781 764.148438 C 42.652344 764.148438 43.875 764.148438 45.101562 764.152344 C 48.460938 764.15625 51.820312 764.152344 55.179688 764.152344 C 58.839844 764.148438 62.496094 764.152344 66.15625 764.152344 C 72.5625 764.15625 78.972656 764.15625 85.378906 764.152344 C 94.910156 764.152344 104.441406 764.152344 113.96875 764.15625 C 130.988281 764.160156 148.007812 764.160156 165.03125 764.15625 C 179.921875 764.15625 194.816406 764.152344 209.710938 764.15625 L 224.726562 764.15625 C 252.703125 764.15625 280.679688 764.15625 308.660156 764.15625 L 310.257812 764.15625 L 335.941406 764.152344 C 378.46875 764.140625 420.988281 764.140625 463.503906 764.15625 L 465.101562 764.15625 C 498.550781 764.167969 531.996094 764.167969 565.4375 764.15625 C 580.324219 764.152344 595.210938 764.15625 610.09375 764.15625 C 627.019531 764.160156 643.941406 764.160156 660.863281 764.15625 C 670.335938 764.152344 679.8125 764.152344 689.285156 764.15625 C 695.609375 764.15625 701.933594 764.15625 708.257812 764.152344 C 711.867188 764.148438 715.472656 764.148438 719.078125 764.152344 C 722.359375 764.15625 725.640625 764.152344 728.917969 764.148438 C 730.097656 764.148438 731.277344 764.152344 732.457031 764.152344 C 743.902344 764.515625 743.902344 764.515625 754.628906 761.179688 C 757.96875 758.804688 760.742188 755.714844 762.527344 752.019531 C 763.382812 749.453125 763.457031 747.371094 763.460938 744.664062 L 763.46875 743.117188 C 763.476562 741.398438 763.472656 739.679688 763.46875 737.960938 L 763.476562 734.21875 C 763.484375 730.773438 763.484375 727.328125 763.480469 723.882812 C 763.480469 720.144531 763.488281 716.402344 763.496094 712.660156 C 763.507812 705.234375 763.511719 697.804688 763.511719 690.378906 C 763.511719 681.484375 763.523438 672.589844 763.535156 663.695312 C 763.558594 642.199219 763.570312 620.699219 763.578125 599.203125 C 763.582031 589.035156 763.585938 578.871094 763.59375 568.703125 C 763.617188 524.601562 763.632812 480.496094 763.640625 436.390625 C 763.644531 401.0625 763.667969 365.734375 763.707031 330.40625 C 763.75 288.421875 763.773438 246.441406 763.769531 204.460938 L 763.769531 201.402344 C 763.773438 185.152344 763.789062 168.902344 763.8125 152.652344 C 763.835938 136.328125 763.839844 120.003906 763.828125 103.675781 C 763.820312 93.972656 763.828125 84.269531 763.851562 74.5625 C 763.867188 68.085938 763.867188 61.605469 763.851562 55.128906 C 763.839844 51.433594 763.839844 47.738281 763.859375 44.046875 C 763.878906 40.6875 763.875 37.324219 763.851562 33.964844 C 763.847656 32.757812 763.851562 31.546875 763.867188 30.339844 C 763.953125 23.695312 763.953125 23.695312 762.257812 17.320312 C 760.1875 13.75 758.015625 10.785156 754.46875 8.597656 C 748.015625 5.5625 740.714844 6.097656 733.769531 6.121094 L 730.0625 6.117188 C 726.667969 6.109375 723.269531 6.113281 719.875 6.117188 C 716.179688 6.121094 712.488281 6.117188 708.792969 6.113281 C 702.316406 6.109375 695.84375 6.105469 689.367188 6.113281 C 679.738281 6.117188 670.113281 6.113281 660.484375 6.109375 C 643.289062 6.101562 626.09375 6.101562 608.898438 6.105469 C 593.851562 6.109375 578.804688 6.113281 563.757812 6.109375 L 548.589844 6.109375 C 511.136719 6.101562 473.6875 6.105469 436.234375 6.117188 C 393.277344 6.121094 350.320312 6.117188 307.359375 6.109375 L 305.746094 6.109375 C 272.96875 6.101562 240.1875 6.101562 207.402344 6.109375 L 204.386719 6.109375 C 189.347656 6.109375 174.308594 6.109375 159.269531 6.105469 C 142.171875 6.101562 125.074219 6.101562 107.976562 6.109375 C 98.40625 6.117188 88.832031 6.117188 79.257812 6.109375 C 72.867188 6.105469 66.480469 6.109375 60.089844 6.117188 C 56.445312 6.121094 52.800781 6.121094 49.160156 6.113281 C 45.84375 6.109375 42.53125 6.109375 39.214844 6.121094 C 38.023438 6.121094 36.832031 6.121094 35.640625 6.117188 C 24.796875 5.898438 24.796875 5.898438 14.816406 9.628906 " fill-opacity="1" fill-rule="nonzero"/><path fill="#fefefe" d="M 68.742188 71.902344 L 135.109375 71.902344 L 135.109375 94.816406 L 134.320312 95.605469 C 132.960938 95.671875 131.601562 95.703125 130.242188 95.695312 L 127.605469 95.695312 L 124.738281 95.683594 L 121.816406 95.679688 C 118.726562 95.675781 115.632812 95.664062 112.542969 95.65625 C 110.453125 95.648438 108.363281 95.644531 106.273438 95.644531 C 101.136719 95.632812 96 95.621094 90.863281 95.605469 L 90.878906 98.421875 C 90.898438 105.035156 90.886719 111.621094 90.46875 118.222656 L 90.355469 120.199219 C 90.261719 121.746094 90.171875 123.292969 90.074219 124.839844 L 91.832031 124.125 C 99.015625 121.285156 105.988281 119.449219 113.777344 120.097656 C 118.5 120.832031 122.785156 121.832031 126.714844 124.640625 C 132.148438 129.214844 135.699219 134.214844 138.144531 140.867188 C 143.003906 156.507812 142.757812 175.390625 139.183594 191.273438 C 137.421875 197.855469 134.84375 203.160156 131.011719 208.742188 C 126.574219 213.179688 121.550781 215.667969 115.605469 217.582031 C 105.636719 220.160156 95.957031 219.132812 86.125 216.492188 C 81.515625 215.03125 77.6875 212.824219 74.15625 209.507812 C 70.066406 204.738281 67.949219 199.023438 66.46875 192.988281 C 65.582031 187.257812 65.582031 187.257812 65.582031 174.617188 L 90.863281 173.828125 C 92.425781 178.515625 92.992188 182.65625 93.503906 187.53125 C 94.039062 190.507812 94.8125 192.589844 96.394531 195.160156 C 98.886719 196.828125 98.886719 196.828125 101.925781 197.53125 C 104.96875 197.515625 107.730469 196.914062 110.617188 195.949219 C 111.53125 193.808594 111.53125 193.808594 112.199219 191.210938 L 113.039062 188.691406 C 115.992188 176.667969 115.828125 161.398438 112.988281 149.332031 C 111.714844 146.558594 110.367188 144.257812 108 142.273438 C 105.242188 141.179688 103.292969 141.121094 100.34375 141.433594 C 97.613281 142.449219 95.933594 143.472656 93.875 145.53125 C 91.988281 148.285156 91.988281 148.285156 90.074219 154.074219 L 67.160156 154.074219 C 65.882812 151.519531 66.34375 148.738281 66.414062 145.9375 L 66.457031 143.878906 C 66.503906 141.625 66.554688 139.371094 66.613281 137.117188 L 66.714844 132.410156 C 66.789062 129.109375 66.863281 125.8125 66.941406 122.511719 C 67.042969 118.308594 67.136719 114.101562 67.226562 109.894531 C 67.296875 106.648438 67.371094 103.402344 67.445312 100.152344 C 67.480469 98.605469 67.515625 97.054688 67.550781 95.507812 C 67.597656 93.324219 67.648438 91.144531 67.703125 88.960938 L 67.742188 87.058594 C 67.875 81.960938 68.316406 77.007812 68.742188 71.902344 M 328.691406 428.246094 C 330.128906 428.167969 331.570312 428.148438 333.011719 428.148438 L 335.851562 428.140625 L 338.996094 428.144531 L 342.285156 428.140625 C 345.269531 428.136719 348.257812 428.136719 351.242188 428.140625 C 354.359375 428.144531 357.476562 428.140625 360.597656 428.140625 C 365.832031 428.136719 371.066406 428.140625 376.304688 428.144531 C 382.367188 428.148438 388.433594 428.148438 394.496094 428.144531 C 399.691406 428.140625 404.886719 428.136719 410.085938 428.140625 C 413.191406 428.140625 416.300781 428.140625 419.40625 428.140625 C 422.328125 428.136719 425.25 428.140625 428.171875 428.144531 C 429.761719 428.144531 431.351562 428.144531 432.9375 428.140625 L 435.78125 428.148438 L 438.265625 428.148438 L 440.097656 428.246094 L 440.890625 429.035156 C 440.96875 431.078125 441 433.09375 440.992188 435.136719 L 440.996094 436.988281 C 440.996094 438.28125 440.996094 439.574219 440.992188 440.867188 C 440.988281 442.855469 440.992188 444.84375 440.996094 446.832031 C 440.996094 448.085938 440.996094 449.339844 440.992188 450.59375 L 441 452.40625 C 440.988281 453.835938 440.949219 455.261719 440.890625 456.691406 L 440.097656 457.480469 C 438.648438 457.558594 437.195312 457.578125 435.746094 457.578125 L 432.878906 457.578125 L 429.710938 457.570312 L 426.394531 457.570312 C 423.382812 457.570312 420.371094 457.566406 417.363281 457.5625 C 414.21875 457.554688 411.078125 457.554688 407.9375 457.554688 C 401.980469 457.550781 396.027344 457.546875 390.070312 457.539062 C 383.292969 457.527344 376.515625 457.523438 369.738281 457.519531 C 355.792969 457.511719 341.847656 457.5 327.902344 457.480469 C 327.882812 453.445312 327.867188 449.410156 327.859375 445.371094 C 327.855469 443.996094 327.847656 442.625 327.84375 441.25 C 327.832031 439.277344 327.828125 437.308594 327.824219 435.335938 L 327.8125 433.464844 C 327.8125 431.988281 327.851562 430.511719 327.902344 429.035156 Z M 327.902344 476.445312 L 440.890625 476.445312 L 440.890625 504.890625 C 438.824219 505.921875 437.308594 505.777344 434.996094 505.78125 L 432.21875 505.785156 L 429.15625 505.78125 L 425.945312 505.785156 C 423.035156 505.789062 420.121094 505.789062 417.207031 505.785156 C 414.164062 505.785156 411.121094 505.785156 408.074219 505.785156 C 402.960938 505.789062 397.847656 505.785156 392.734375 505.78125 C 386.820312 505.777344 380.902344 505.777344 374.988281 505.785156 C 369.914062 505.785156 364.839844 505.789062 359.765625 505.785156 C 356.730469 505.785156 353.699219 505.785156 350.667969 505.785156 C 347.816406 505.789062 344.964844 505.789062 342.113281 505.78125 C 340.566406 505.78125 339.015625 505.78125 337.46875 505.785156 L 334.683594 505.78125 L 332.261719 505.777344 C 330.273438 505.679688 330.273438 505.679688 327.902344 504.890625 Z M 480.542969 162.023438 C 483.570312 163.289062 485.371094 165.203125 487.402344 167.726562 C 489.792969 171.367188 489.605469 175.9375 489.875 180.148438 C 489.996094 183.425781 490.023438 186.695312 490.023438 189.976562 L 490.054688 192.472656 C 490.078125 206.082031 490.078125 206.082031 487.140625 211.523438 C 485.804688 213.515625 484.640625 214.984375 482.765625 216.492188 C 478.578125 218.136719 474.566406 218.5625 470.125 218.074219 C 466.800781 217.3125 464.328125 216.089844 461.582031 214.074219 C 459.160156 210.824219 458.230469 207.828125 457.480469 203.851562 C 457.109375 199.628906 457.140625 195.390625 457.171875 191.15625 C 457.183594 189.1875 457.171875 187.21875 457.15625 185.25 C 457.148438 178.933594 457.152344 173.34375 459.851562 167.507812 C 461.839844 165.171875 463.628906 163.671875 466.171875 161.976562 C 470.800781 160.613281 475.941406 160.585938 480.542969 162.023438 M 364.246094 71.109375 C 380.730469 70.359375 380.730469 70.359375 386.371094 72.691406 C 388.941406 74.222656 391 75.742188 392.691406 78.222656 C 394.617188 84.203125 394.539062 90.269531 394.519531 96.488281 C 394.519531 98.210938 394.535156 99.929688 394.558594 101.652344 C 394.585938 108.289062 394.15625 114.574219 391.902344 120.890625 C 390.371094 123.308594 390.371094 123.308594 387.949219 124.839844 C 380.425781 127.878906 372.226562 127.660156 364.246094 127.210938 L 363.457031 126.417969 C 363.378906 124.726562 363.355469 123.03125 363.355469 121.335938 L 363.351562 119.730469 C 363.347656 117.96875 363.347656 116.207031 363.351562 114.445312 L 363.347656 110.785156 C 363.347656 108.226562 363.351562 105.667969 363.355469 103.109375 C 363.355469 99.824219 363.355469 96.539062 363.351562 93.25 C 363.347656 90.730469 363.347656 88.210938 363.351562 85.695312 C 363.351562 84.480469 363.351562 83.269531 363.347656 82.058594 C 363.347656 80.367188 363.351562 78.675781 363.355469 76.984375 L 363.355469 74.0625 L 363.457031 71.902344 Z M 436.9375 71.109375 C 453.421875 70.359375 453.421875 70.359375 459.0625 72.691406 C 461.632812 74.222656 463.691406 75.742188 465.382812 78.222656 C 467.332031 84.242188 467.203125 90.355469 467.167969 96.621094 C 467.160156 98.367188 467.167969 100.113281 467.179688 101.859375 C 467.1875 108.613281 467.136719 114.941406 464.097656 121.136719 C 462.097656 123.398438 460.390625 124.507812 457.714844 125.816406 C 453.191406 127.320312 448.515625 127.335938 443.800781 127.308594 L 442.089844 127.316406 C 437.929688 127.308594 437.929688 127.308594 436.148438 126.417969 C 436.128906 119.324219 436.117188 112.230469 436.105469 105.136719 C 436.101562 101.839844 436.097656 98.546875 436.089844 95.253906 C 436.082031 92.078125 436.074219 88.902344 436.074219 85.722656 C 436.070312 84.507812 436.070312 83.296875 436.066406 82.082031 C 436.058594 80.386719 436.058594 78.691406 436.058594 76.996094 L 436.054688 74.066406 L 436.148438 71.902344 Z M 205.433594 161.976562 C 222.023438 161.976562 222.023438 161.976562 229.136719 163.554688 C 231.730469 165.136719 232.890625 166.398438 234.46875 168.988281 C 236.820312 174.871094 236.394531 181.117188 236.394531 187.347656 C 236.394531 189.125 236.410156 190.902344 236.425781 192.679688 C 236.425781 193.824219 236.429688 194.96875 236.429688 196.117188 L 236.4375 199.234375 C 236.179688 203.339844 235.414062 207.023438 233.628906 210.765625 C 232.023438 212.90625 230.605469 214.25 228.34375 215.703125 C 222.023438 217.285156 222.023438 217.285156 205.433594 217.285156 Z M 421.136719 161.976562 C 439.308594 161.976562 439.308594 161.976562 446.417969 164.34375 C 448.769531 166.695312 450.113281 168.316406 451.160156 171.457031 C 451.277344 173.25 451.335938 175.042969 451.359375 176.839844 L 451.417969 179.71875 C 451.132812 182.824219 450.425781 184.621094 448.789062 187.257812 L 446.988281 188.773438 L 445.628906 190.417969 C 445.847656 192.578125 446.183594 194.207031 446.816406 196.246094 L 447.285156 197.921875 C 447.769531 199.640625 448.273438 201.351562 448.789062 203.0625 C 449.386719 205.101562 449.976562 207.144531 450.566406 209.183594 L 451.371094 211.839844 C 451.949219 214.125 451.949219 214.125 451.949219 217.285156 L 442.46875 217.285156 C 439.921875 209.164062 437.605469 200.996094 435.359375 192.789062 L 431.40625 192.789062 L 430.617188 217.285156 L 421.136719 217.285156 Z M 355.554688 161.976562 C 357.664062 161.863281 359.761719 161.941406 361.875 161.976562 C 365.390625 168.597656 368.457031 175.339844 371.308594 182.273438 L 372.269531 184.589844 L 373.15625 186.773438 L 373.953125 188.730469 C 374.519531 190.417969 374.519531 190.417969 374.519531 192.789062 L 376.097656 192.789062 L 375.308594 190.417969 C 375.234375 188.335938 375.199219 186.25 375.203125 184.167969 L 375.199219 182.324219 C 375.199219 181.039062 375.203125 179.753906 375.207031 178.46875 C 375.210938 176.496094 375.207031 174.523438 375.199219 172.550781 C 375.199219 171.300781 375.203125 170.054688 375.203125 168.808594 L 375.199219 167.011719 C 375.207031 165.59375 375.253906 164.179688 375.308594 162.765625 L 376.097656 161.976562 C 377.28125 161.898438 378.46875 161.871094 379.65625 161.875 L 381.605469 161.871094 L 383.210938 161.976562 L 384 162.765625 C 384.078125 164.433594 384.101562 166.105469 384.101562 167.773438 L 384.105469 169.359375 C 384.109375 171.097656 384.109375 172.832031 384.105469 174.566406 L 384.109375 178.171875 C 384.109375 180.695312 384.105469 183.214844 384.101562 185.738281 C 384.097656 188.976562 384.101562 192.214844 384.105469 195.453125 C 384.109375 197.9375 384.109375 200.417969 384.105469 202.902344 C 384.105469 204.09375 384.105469 205.289062 384.109375 206.484375 C 384.109375 208.152344 384.105469 209.816406 384.101562 211.484375 L 384.101562 214.363281 L 384 216.492188 L 383.210938 217.285156 C 381.367188 217.316406 379.523438 217.316406 377.679688 217.285156 C 374.308594 210.796875 371.371094 204.230469 368.691406 197.433594 L 367.613281 194.746094 C 365.035156 188.261719 365.035156 188.261719 365.035156 186.46875 L 363.457031 186.46875 L 363.457031 217.285156 L 355.554688 217.285156 C 354.4375 215.050781 354.664062 213.175781 354.664062 210.675781 L 354.660156 209.117188 C 354.65625 207.410156 354.65625 205.703125 354.660156 203.996094 L 354.65625 200.449219 C 354.65625 197.96875 354.660156 195.488281 354.664062 193.011719 C 354.664062 189.824219 354.664062 186.640625 354.660156 183.457031 C 354.65625 181.011719 354.65625 178.570312 354.660156 176.128906 C 354.660156 174.953125 354.660156 173.78125 354.65625 172.605469 C 354.65625 170.964844 354.660156 169.328125 354.664062 167.691406 L 354.664062 164.859375 L 354.765625 162.765625 Z M 245.058594 71.480469 C 247.632812 72.425781 249.386719 73.828125 251.160156 75.851562 C 252.839844 78.222656 252.839844 78.222656 253.628906 80.59375 C 253.683594 82.222656 253.695312 83.851562 253.679688 85.480469 L 253.65625 88.082031 L 253.628906 90.074219 L 244.9375 90.074219 C 243.726562 87.648438 243.839844 85.097656 243.65625 82.421875 L 243.359375 80.59375 L 241.777344 79.011719 C 239.046875 78.617188 239.046875 78.617188 236.246094 79.011719 C 234.746094 80.128906 234.746094 80.128906 233.875 82.171875 C 233.535156 84.660156 233.5625 87.121094 233.589844 89.628906 L 233.589844 91.824219 C 233.589844 93.355469 233.597656 94.886719 233.609375 96.417969 C 233.628906 98.757812 233.625 101.097656 233.621094 103.4375 C 233.625 104.925781 233.632812 106.414062 233.640625 107.902344 L 233.636719 110.023438 L 233.660156 112.003906 L 233.671875 113.738281 C 233.910156 115.632812 234.457031 116.898438 235.457031 118.519531 C 237.09375 119.449219 237.09375 119.449219 239.359375 119.554688 L 241.777344 119.308594 C 243.199219 118.078125 243.199219 118.078125 244.148438 116.148438 C 244.605469 113.382812 244.605469 113.382812 244.691406 110.417969 L 244.847656 107.394531 L 244.9375 105.085938 L 239.40625 105.085938 L 239.40625 98.765625 C 241.761719 98.746094 244.117188 98.726562 246.46875 98.714844 L 248.503906 98.695312 L 250.441406 98.6875 L 252.234375 98.675781 L 253.628906 98.765625 L 254.417969 99.554688 C 254.5 101.539062 254.53125 103.5 254.523438 105.480469 L 254.527344 107.277344 C 254.527344 108.535156 254.527344 109.792969 254.523438 111.050781 C 254.519531 112.980469 254.523438 114.910156 254.527344 116.839844 C 254.527344 118.058594 254.527344 119.277344 254.523438 120.492188 L 254.53125 122.253906 C 254.515625 123.644531 254.480469 125.03125 254.417969 126.417969 L 253.628906 127.210938 C 251.785156 127.242188 249.941406 127.242188 248.097656 127.210938 L 247.308594 123.257812 L 245.726562 123.257812 L 245.332031 124.742188 L 244.148438 126.417969 C 241.015625 127.730469 238.980469 128.140625 235.617188 127.730469 C 231.996094 126.90625 229.613281 126.039062 226.765625 123.605469 C 223.167969 117.417969 222.535156 111.429688 222.488281 104.402344 C 222.492188 103.144531 222.496094 101.886719 222.507812 100.628906 C 222.519531 98.71875 222.507812 96.804688 222.488281 94.894531 C 222.480469 88.699219 222.621094 83.183594 225.183594 77.433594 C 226.792969 74.789062 228.066406 73.648438 230.714844 72.050781 C 235.210938 70.351562 240.410156 70.46875 245.058594 71.480469 M 309.433594 161.582031 C 312.625 163 314.285156 164.761719 316.535156 167.375 C 317.78125 169.324219 318.140625 170.75 318.417969 173.035156 C 318.515625 175.414062 318.457031 177.765625 318.417969 180.148438 L 308.9375 180.148438 L 307.933594 172.894531 L 307.359375 170.667969 L 304.988281 169.085938 C 302.554688 169.152344 302.554688 169.152344 300.246094 169.875 C 298.578125 171.992188 298.578125 171.992188 298.472656 173.804688 L 298.476562 175.597656 L 298.464844 177.636719 L 298.484375 179.828125 L 298.484375 182.085938 C 298.488281 183.660156 298.496094 185.234375 298.503906 186.8125 C 298.519531 189.226562 298.519531 191.640625 298.519531 194.054688 L 298.535156 198.640625 L 298.535156 200.835938 L 298.550781 202.871094 L 298.5625 204.664062 C 298.613281 206.390625 298.613281 206.390625 299.457031 208.59375 C 301.835938 209.785156 303.945312 209.523438 306.566406 209.382812 C 308.199219 207.980469 308.199219 207.980469 308.640625 206.40625 C 309 204.277344 309.011719 202.257812 308.988281 200.097656 L 308.964844 197.742188 L 308.9375 195.949219 L 304.199219 195.949219 L 303.40625 189.628906 C 305.761719 189.476562 308.113281 189.328125 310.46875 189.1875 L 312.503906 189.050781 L 314.441406 188.933594 L 316.234375 188.820312 L 317.628906 188.839844 L 318.417969 189.628906 C 318.488281 191.679688 318.511719 193.707031 318.496094 195.757812 L 318.492188 197.613281 C 318.488281 199.578125 318.480469 201.542969 318.46875 203.503906 C 318.464844 204.835938 318.460938 206.164062 318.457031 207.492188 C 318.449219 210.757812 318.4375 214.019531 318.417969 217.285156 L 312.097656 217.285156 L 312.097656 212.542969 L 310.519531 212.542969 L 310.074219 213.976562 C 308.9375 215.703125 308.9375 215.703125 306.519531 217.136719 C 304.179688 218.027344 302.292969 218.179688 299.804688 217.976562 C 296.660156 217.457031 294.179688 216.804688 291.554688 214.914062 C 289.332031 211.5625 287.78125 207.902344 287.496094 203.863281 L 287.476562 202.199219 L 287.453125 200.296875 L 287.445312 198.257812 L 287.429688 196.140625 C 287.421875 194.660156 287.417969 193.179688 287.414062 191.699219 C 287.40625 189.449219 287.382812 187.203125 287.359375 184.953125 C 287.351562 183.511719 287.347656 182.070312 287.347656 180.628906 L 287.316406 178.613281 C 287.332031 174.121094 288.082031 170.804688 289.976562 166.714844 C 291.945312 164.421875 294.195312 163.007812 296.9375 161.730469 C 301.214844 160.804688 305.117188 160.984375 309.433594 161.582031 M 261.53125 71.109375 L 271.011719 71.109375 L 271.058594 75.039062 C 271.121094 79.84375 271.191406 84.652344 271.261719 89.460938 C 271.292969 91.542969 271.320312 93.621094 271.347656 95.703125 C 271.382812 98.695312 271.429688 101.683594 271.476562 104.675781 L 271.503906 107.496094 L 271.550781 110.128906 L 271.582031 112.441406 C 271.816406 114.714844 272.4375 116.449219 273.382812 118.519531 L 278.914062 119.308594 C 280.410156 117.421875 281.304688 116.089844 282.074219 113.777344 C 282.164062 112.386719 282.214844 110.988281 282.234375 109.589844 L 282.285156 107.003906 L 282.324219 104.214844 L 282.375 101.351562 C 282.425781 98.335938 282.472656 95.316406 282.519531 92.296875 L 282.621094 86.164062 C 282.707031 81.144531 282.789062 76.128906 282.863281 71.109375 L 292.34375 71.109375 C 292.402344 77.167969 292.449219 83.226562 292.476562 89.289062 C 292.488281 91.347656 292.503906 93.40625 292.523438 95.464844 C 292.554688 98.433594 292.566406 101.398438 292.578125 104.367188 C 292.589844 105.28125 292.601562 106.195312 292.613281 107.136719 C 292.613281 112.335938 292.265625 116.941406 289.976562 121.679688 C 288.125 124.027344 286.644531 125.3125 284 126.667969 C 279.421875 127.582031 274.65625 127.859375 270.070312 126.816406 C 267.738281 125.929688 266.199219 124.769531 264.445312 123.011719 C 262.601562 120.078125 261.628906 117.332031 261.339844 113.867188 L 261.351562 111.476562 L 261.351562 108.746094 L 261.375 105.832031 L 261.382812 102.824219 C 261.390625 100.199219 261.402344 97.570312 261.421875 94.945312 C 261.4375 92.257812 261.445312 89.574219 261.453125 86.890625 C 261.472656 81.628906 261.496094 76.371094 261.53125 71.109375 M 409.285156 71.109375 L 419.554688 71.109375 C 420.652344 74.394531 421.511719 77.328125 422.1875 80.679688 L 422.761719 83.515625 L 423.363281 86.546875 L 423.996094 89.6875 C 424.433594 91.871094 424.871094 94.058594 425.304688 96.246094 C 425.863281 99.042969 426.425781 101.839844 426.992188 104.636719 C 427.425781 106.796875 427.859375 108.953125 428.289062 111.113281 C 428.59375 112.644531 428.902344 114.175781 429.210938 115.703125 L 429.773438 118.535156 L 430.269531 121.015625 C 430.617188 123.257812 430.617188 123.257812 430.617188 127.210938 L 421.925781 127.210938 L 418.765625 114.566406 L 410.074219 114.566406 L 409.582031 117.132812 L 408.9375 120.445312 L 408.617188 122.136719 C 408.328125 123.570312 408.027344 124.996094 407.703125 126.417969 L 406.914062 127.210938 C 405.582031 127.261719 404.246094 127.28125 402.914062 127.257812 L 400.710938 127.238281 L 399.011719 127.210938 C 398.292969 125.183594 398.242188 123.890625 398.511719 121.730469 L 399.0625 119 L 399.679688 115.902344 C 399.90625 114.789062 400.136719 113.675781 400.363281 112.5625 C 400.59375 111.417969 400.824219 110.277344 401.050781 109.132812 C 401.535156 106.738281 402.019531 104.347656 402.507812 101.957031 C 403.136719 98.886719 403.753906 95.816406 404.371094 92.746094 C 404.84375 90.386719 405.320312 88.027344 405.796875 85.671875 C 406.027344 84.539062 406.253906 83.40625 406.484375 82.273438 C 406.804688 80.691406 407.125 79.113281 407.449219 77.535156 L 408.003906 74.808594 C 408.492188 72.691406 408.492188 72.691406 409.285156 71.109375 M 308.148438 71.109375 L 318.417969 71.109375 C 319.636719 74.15625 320.414062 76.625 321.050781 79.785156 L 321.625 82.617188 L 322.226562 85.652344 L 322.859375 88.789062 C 323.296875 90.976562 323.734375 93.164062 324.171875 95.355469 C 324.726562 98.152344 325.289062 100.945312 325.855469 103.742188 C 326.289062 105.898438 326.722656 108.058594 327.152344 110.21875 C 327.457031 111.746094 327.765625 113.277344 328.078125 114.804688 L 328.636719 117.640625 L 329.132812 120.125 C 329.488281 122.523438 329.542969 124.789062 329.480469 127.210938 L 320.789062 127.210938 C 319.5625 122.710938 318.855469 118.421875 318.417969 113.777344 L 308.9375 114.566406 L 308.449219 117.132812 L 307.800781 120.445312 L 307.480469 122.136719 C 307.195312 123.570312 306.890625 124.996094 306.566406 126.417969 L 305.777344 127.210938 C 304.445312 127.261719 303.113281 127.28125 301.777344 127.257812 L 299.578125 127.238281 L 297.875 127.210938 C 297.160156 125.183594 297.105469 123.890625 297.375 121.730469 L 297.925781 119 L 298.542969 115.902344 C 298.769531 114.789062 299 113.675781 299.226562 112.5625 C 299.457031 111.417969 299.6875 110.277344 299.917969 109.132812 C 300.398438 106.738281 300.882812 104.347656 301.371094 101.957031 C 302 98.886719 302.617188 95.816406 303.234375 92.746094 C 303.707031 90.386719 304.183594 88.027344 304.664062 85.671875 C 304.890625 84.539062 305.121094 83.40625 305.347656 82.273438 C 305.667969 80.691406 305.988281 79.113281 306.3125 77.535156 L 306.867188 74.808594 C 307.359375 72.691406 307.359375 72.691406 308.148438 71.109375 M 391.902344 161.976562 L 414.816406 161.976562 L 414.816406 169.085938 L 402.171875 169.085938 L 402.171875 184.890625 L 412.445312 184.890625 L 412.445312 192 L 402.171875 192 L 402.171875 210.171875 C 406.296875 210.140625 406.296875 210.140625 410.421875 210.101562 C 411.886719 210.097656 413.351562 210.132812 414.816406 210.171875 L 415.605469 210.964844 C 415.703125 213.726562 415.703125 213.726562 415.605469 216.492188 L 414.816406 217.285156 L 391.902344 217.285156 Z M 474.074219 71.109375 L 496.988281 71.109375 L 496.988281 78.222656 L 484.34375 79.011719 L 484.34375 94.816406 L 493.828125 94.816406 L 494.617188 96.394531 C 494.394531 98.246094 494.132812 100.089844 493.828125 101.925781 L 484.34375 102.714844 L 484.34375 120.097656 L 496.988281 120.097656 L 496.988281 127.210938 C 493.464844 127.234375 489.941406 127.246094 486.417969 127.257812 L 483.375 127.28125 L 480.476562 127.289062 L 477.792969 127.300781 C 475.652344 127.210938 475.652344 127.210938 474.074219 126.417969 Z M 326.320312 161.976562 L 349.234375 161.976562 L 349.234375 169.085938 L 336.59375 169.875 L 336.59375 184.890625 L 341.285156 184.839844 C 342.878906 184.824219 344.476562 184.832031 346.074219 184.890625 L 346.863281 185.679688 C 347.050781 190.046875 347.050781 190.046875 346.074219 192 C 342.925781 192.480469 339.773438 192.589844 336.59375 192.789062 L 336.59375 210.171875 C 340.457031 210.140625 340.457031 210.140625 344.324219 210.101562 C 345.695312 210.097656 347.070312 210.132812 348.445312 210.171875 L 349.234375 210.964844 L 349.234375 217.285156 L 326.320312 217.285156 Z M 243.359375 161.976562 L 266.273438 161.976562 L 266.273438 169.085938 L 253.628906 169.875 L 253.628906 184.097656 L 263.109375 184.890625 C 263.902344 188.839844 263.902344 188.839844 263.109375 192 L 253.628906 192.789062 L 252.839844 210.171875 C 256.964844 210.140625 256.964844 210.140625 261.089844 210.101562 C 262.554688 210.097656 264.015625 210.132812 265.480469 210.171875 L 266.273438 210.964844 L 266.273438 217.285156 L 243.359375 217.285156 Z M 335.800781 71.109375 C 337.25 71.039062 338.699219 71.003906 340.148438 71.011719 L 342.542969 71.007812 L 344.492188 71.109375 L 345.285156 71.902344 C 345.359375 73.402344 345.375 74.910156 345.375 76.414062 L 345.375 79.339844 L 345.363281 82.519531 L 345.359375 85.761719 C 345.355469 88.605469 345.347656 91.453125 345.339844 94.296875 C 345.332031 97.199219 345.324219 100.101562 345.324219 103.003906 C 345.316406 108.703125 345.300781 114.402344 345.285156 120.097656 L 358.714844 120.097656 L 358.714844 126.417969 C 356.539062 127.507812 354.773438 127.3125 352.34375 127.316406 L 349.453125 127.316406 L 346.421875 127.308594 L 343.378906 127.316406 L 340.492188 127.316406 L 337.824219 127.3125 L 335.800781 127.210938 L 335.011719 126.417969 C 334.933594 124.726562 334.910156 123.03125 334.910156 121.335938 L 334.90625 119.730469 C 334.902344 117.96875 334.902344 116.207031 334.90625 114.445312 L 334.90625 110.785156 C 334.902344 108.226562 334.90625 105.667969 334.910156 103.109375 C 334.914062 99.824219 334.910156 96.539062 334.90625 93.25 C 334.902344 90.730469 334.902344 88.210938 334.90625 85.695312 C 334.90625 84.480469 334.90625 83.269531 334.90625 82.058594 C 334.902344 80.367188 334.90625 78.675781 334.910156 76.984375 L 334.910156 74.0625 L 335.011719 71.902344 Z M 206.222656 71.109375 C 207.667969 71.039062 209.117188 71.003906 210.566406 71.011719 L 212.960938 71.007812 L 214.914062 71.109375 L 215.703125 71.902344 C 215.78125 73.59375 215.804688 75.289062 215.804688 76.984375 L 215.808594 78.589844 C 215.8125 80.351562 215.8125 82.113281 215.808594 83.878906 L 215.8125 87.535156 C 215.8125 90.09375 215.808594 92.652344 215.804688 95.210938 C 215.804688 98.496094 215.804688 101.785156 215.808594 105.070312 C 215.8125 107.589844 215.8125 110.109375 215.808594 112.628906 C 215.808594 113.839844 215.808594 115.050781 215.8125 116.261719 C 215.8125 117.957031 215.8125 119.648438 215.804688 121.335938 L 215.804688 124.261719 L 215.703125 126.417969 L 214.914062 127.210938 C 213.46875 127.289062 212.015625 127.3125 210.566406 127.308594 L 208.171875 127.316406 L 206.222656 127.210938 L 205.433594 126.417969 C 205.351562 124.726562 205.332031 123.03125 205.328125 121.335938 L 205.324219 119.730469 C 205.324219 117.96875 205.324219 116.207031 205.328125 114.445312 L 205.324219 110.785156 C 205.324219 108.226562 205.324219 105.667969 205.328125 103.109375 C 205.332031 99.824219 205.332031 96.539062 205.328125 93.25 C 205.324219 90.730469 205.324219 88.210938 205.328125 85.695312 C 205.328125 84.480469 205.324219 83.269531 205.324219 82.058594 C 205.324219 80.367188 205.324219 78.675781 205.332031 76.984375 L 205.332031 74.0625 L 205.433594 71.902344 Z M 206.222656 71.109375 " fill-opacity="1" fill-rule="nonzero"/><path fill="#fe3a21" d="M 473.628906 168.890625 L 476.445312 169.085938 C 477.925781 170.125 477.925781 170.125 478.816406 171.457031 C 479.839844 174.53125 479.734375 177.457031 479.738281 180.660156 L 479.746094 182.695312 C 479.75 184.113281 479.75 185.535156 479.75 186.953125 C 479.753906 189.121094 479.765625 191.289062 479.78125 193.457031 C 479.785156 194.835938 479.785156 196.21875 479.785156 197.597656 L 479.804688 199.558594 C 479.789062 202.910156 479.648438 205.566406 478.023438 208.59375 L 476.445312 210.171875 C 473.730469 210.421875 473.730469 210.421875 470.914062 210.171875 C 469.433594 209.136719 469.433594 209.136719 468.542969 207.800781 C 467.832031 205.671875 467.648438 204.425781 467.636719 202.238281 L 467.621094 200.304688 L 467.621094 198.226562 L 467.613281 196.078125 C 467.609375 194.582031 467.605469 193.085938 467.605469 191.585938 C 467.605469 189.296875 467.589844 187.003906 467.574219 184.714844 C 467.574219 183.257812 467.570312 181.804688 467.570312 180.347656 L 467.554688 178.273438 L 467.5625 176.332031 L 467.558594 174.628906 C 467.789062 172.746094 468.339844 171.488281 469.332031 169.875 C 470.914062 169.085938 470.914062 169.085938 473.628906 168.890625 M 215.703125 169.085938 C 217.226562 168.84375 217.226562 168.84375 219.113281 168.742188 L 220.980469 168.597656 L 222.816406 169.085938 C 224.492188 171.0625 225.785156 172.785156 226.261719 175.382812 C 226.367188 177.160156 226.371094 178.910156 226.339844 180.691406 L 226.335938 182.65625 C 226.332031 184.023438 226.320312 185.386719 226.300781 186.753906 C 226.277344 188.832031 226.265625 190.914062 226.269531 192.992188 C 226.261719 194.324219 226.25 195.65625 226.242188 196.988281 L 226.234375 198.859375 C 226.175781 202.375 225.835938 205.320312 224.394531 208.59375 C 222.617188 209.679688 222.617188 209.679688 220.445312 210.171875 C 218.863281 210.191406 217.285156 210.195312 215.703125 210.171875 C 215.570312 204.449219 215.445312 198.722656 215.324219 193 C 215.28125 191.050781 215.238281 189.101562 215.191406 187.152344 C 215.128906 184.359375 215.066406 181.5625 215.011719 178.769531 L 214.945312 176.109375 L 214.898438 173.664062 L 214.847656 171.5 L 214.914062 169.875 Z M 446.417969 79.011719 L 453.53125 79.011719 C 455.902344 81.382812 455.902344 81.382812 456.4375 82.925781 C 456.863281 85.628906 456.835938 88.347656 456.851562 91.078125 L 456.863281 93 C 456.871094 94.335938 456.878906 95.675781 456.882812 97.011719 C 456.890625 99.050781 456.914062 101.085938 456.9375 103.125 C 456.941406 104.425781 456.949219 105.726562 456.949219 107.03125 L 456.980469 108.863281 C 456.96875 111.808594 456.714844 113.714844 455.605469 116.503906 C 454.320312 118.519531 454.320312 118.519531 452.445312 119.605469 C 450.371094 120.097656 450.371094 120.097656 446.417969 120.097656 Z M 373.726562 79.011719 L 380.839844 79.011719 C 383.210938 81.382812 383.210938 81.382812 384 83.753906 C 384.09375 85.96875 384.148438 88.167969 384.160156 90.386719 L 384.171875 92.363281 C 384.179688 93.742188 384.1875 95.121094 384.191406 96.5 C 384.199219 98.601562 384.222656 100.703125 384.246094 102.804688 C 384.25 104.144531 384.257812 105.488281 384.257812 106.832031 L 384.289062 108.722656 C 384.277344 111.71875 384.039062 113.683594 382.914062 116.511719 C 381.628906 118.519531 381.628906 118.519531 379.753906 119.652344 C 377.679688 120.097656 377.679688 120.097656 373.726562 119.308594 Z M 430.617188 169.085938 C 432.015625 169 433.414062 168.941406 434.816406 168.890625 L 437.175781 168.777344 L 439.308594 169.085938 C 440.757812 170.40625 440.757812 170.40625 441.679688 172.246094 C 441.964844 174.34375 441.964844 174.34375 441.925781 176.59375 L 441.917969 178.839844 C 441.671875 180.988281 441.265625 182.292969 440.097656 184.097656 C 437.824219 185.363281 436.1875 185.675781 433.582031 185.828125 L 431.40625 185.679688 L 430.617188 184.890625 C 430.554688 183.710938 430.527344 182.535156 430.539062 181.355469 L 430.546875 179.203125 L 430.566406 176.9375 L 430.578125 174.664062 C 430.589844 172.804688 430.601562 170.945312 430.617188 169.085938 " fill-opacity="1" fill-rule="nonzero"/><path fill="#fefefe" d="M 333.433594 145.382812 C 336.414062 145.007812 339.15625 144.835938 342.125 145.382812 C 344.125 147.195312 345.0625 149.230469 346.074219 151.703125 L 347.113281 153.925781 C 347.65625 155.65625 347.65625 155.65625 347.65625 158.023438 L 342.125 158.023438 C 339.65625 153.933594 339.65625 153.933594 338.964844 152.492188 L 338.964844 150.125 L 337.382812 150.914062 C 336.492188 152.582031 336.492188 152.582031 335.703125 154.519531 L 334.859375 156.496094 L 334.222656 158.023438 L 327.902344 158.023438 C 328.46875 155.058594 329.742188 152.605469 331.113281 149.925781 L 332.421875 147.34375 Z M 333.433594 145.382812 " fill-opacity="1" fill-rule="nonzero"/><path fill="#fe3a21" d="M 413.234375 86.125 L 414.816406 86.125 C 415.351562 88.640625 415.875 91.160156 416.394531 93.679688 L 416.851562 95.820312 C 417.664062 99.785156 418.152344 103.410156 417.976562 107.457031 L 410.863281 107.457031 C 411.4375 100.316406 412.316406 93.226562 413.234375 86.125 M 312.890625 86.125 L 314.46875 86.914062 C 314.867188 88.292969 314.867188 88.292969 315.140625 90.082031 L 315.449219 92.050781 L 315.753906 94.125 L 316.074219 96.140625 C 316.65625 99.960938 316.953125 103.597656 316.839844 107.457031 L 309.726562 107.457031 C 311.308594 92.964844 311.308594 92.964844 312.890625 86.125 " fill-opacity="1" fill-rule="nonzero"/></svg>