<svg xmlns="http://www.w3.org/2000/svg" xmlns:xlink="http://www.w3.org/1999/xlink" width="1024" zoomAndPan="magnify" viewBox="0 0 768 767.999994" height="1024" preserveAspectRatio="xMidYMid meet" version="1.0"><rect x="-76.8" width="921.6" fill="#ffffff" y="-76.799999" height="921.599993" fill-opacity="1"/><rect x="-76.8" width="921.6" fill="#ffffff" y="-76.799999" height="921.599993" fill-opacity="1"/><rect x="-76.8" width="921.6" fill="#26bde2" y="-76.799999" height="921.599993" fill-opacity="1"/><path fill="#fefefe" d="M 249.652344 309.527344 L 252.59375 309.515625 L 255.832031 309.527344 C 256.976562 309.527344 258.121094 309.523438 259.265625 309.519531 C 262.417969 309.511719 265.566406 309.515625 268.714844 309.523438 C 272.113281 309.523438 275.507812 309.519531 278.90625 309.515625 C 285.558594 309.507812 292.210938 309.511719 298.867188 309.515625 C 304.273438 309.519531 309.679688 309.519531 315.085938 309.515625 L 322.097656 309.515625 C 336.746094 309.511719 351.394531 309.515625 366.042969 309.523438 C 378.621094 309.53125 391.199219 309.53125 403.777344 309.523438 C 419.929688 309.511719 436.078125 309.511719 452.230469 309.515625 L 454.550781 309.515625 C 459.953125 309.519531 465.355469 309.515625 470.757812 309.511719 C 477.335938 309.507812 483.917969 309.507812 490.496094 309.519531 C 493.855469 309.523438 497.214844 309.523438 500.574219 309.519531 C 503.644531 309.515625 506.714844 309.515625 509.789062 309.523438 C 510.902344 309.527344 512.015625 309.527344 513.128906 309.523438 C 514.640625 309.515625 516.148438 309.523438 517.65625 309.53125 L 520.203125 309.53125 C 522.273438 309.726562 522.273438 309.726562 524.640625 311.308594 C 524.171875 320.023438 522.882812 328.546875 521.535156 337.160156 L 520.8125 341.835938 C 520.15625 346.066406 519.5 350.296875 518.839844 354.53125 C 518.136719 359.039062 517.441406 363.546875 516.742188 368.058594 C 515.398438 376.734375 514.050781 385.414062 512.703125 394.089844 C 511.003906 405.035156 509.304688 415.976562 507.609375 426.914062 L 505.765625 438.808594 L 505.308594 441.769531 C 504.238281 448.65625 503.171875 455.539062 502.101562 462.421875 C 498.78125 483.792969 495.480469 505.167969 492.199219 526.539062 L 490.835938 535.40625 L 489.808594 542.097656 L 489.558594 543.707031 C 488.695312 549.324219 487.835938 554.941406 486.976562 560.558594 C 486.273438 565.175781 485.5625 569.792969 484.851562 574.410156 C 484.601562 576.039062 484.351562 577.671875 484.105469 579.300781 C 483.773438 581.46875 483.441406 583.632812 483.105469 585.800781 L 482.828125 587.667969 C 482.265625 591.257812 481.460938 594.652344 480.394531 598.125 C 473.933594 599.027344 467.519531 599.015625 461.007812 598.992188 L 457.480469 598.988281 C 454.40625 598.984375 451.332031 598.976562 448.253906 598.96875 C 444.554688 598.960938 440.851562 598.953125 437.152344 598.949219 C 431.550781 598.941406 425.949219 598.925781 420.34375 598.914062 L 416.394531 643.949219 L 439.308594 643.949219 C 438.046875 646.472656 437.402344 647.636719 435.527344 649.5 L 434.171875 650.863281 L 432.691406 652.328125 L 431.125 653.894531 C 429.417969 655.601562 427.707031 657.300781 425.992188 659 C 424.808594 660.183594 423.625 661.363281 422.441406 662.546875 C 419.324219 665.65625 416.203125 668.765625 413.078125 671.867188 C 409.894531 675.039062 406.714844 678.210938 403.53125 681.386719 C 397.289062 687.613281 391.042969 693.832031 384.789062 700.050781 C 382.574219 699.039062 380.957031 697.992188 379.238281 696.269531 L 377.875 694.914062 L 376.410156 693.429688 L 374.84375 691.863281 C 373.140625 690.15625 371.4375 688.445312 369.742188 686.734375 C 368.558594 685.550781 367.375 684.363281 366.191406 683.179688 C 363.082031 680.0625 359.976562 676.945312 356.871094 673.820312 C 353.703125 670.632812 350.527344 667.453125 347.355469 664.273438 C 341.128906 658.027344 334.90625 651.78125 328.691406 645.53125 L 329.480469 643.949219 L 352.394531 643.949219 L 351.605469 642.371094 C 351.449219 641.183594 351.320312 639.992188 351.226562 638.796875 L 351.035156 636.550781 L 350.835938 634.113281 L 350.628906 631.609375 C 350.480469 629.855469 350.335938 628.105469 350.195312 626.351562 C 349.976562 623.679688 349.753906 621.007812 349.527344 618.335938 L 349.109375 613.226562 L 348.90625 610.8125 L 348.722656 608.53125 L 348.558594 606.539062 C 348.417969 603.992188 348.425781 601.460938 348.445312 598.914062 L 346.414062 598.925781 C 340.078125 598.957031 333.742188 598.980469 327.40625 598.996094 C 324.148438 599.003906 320.890625 599.015625 317.636719 599.03125 C 314.488281 599.050781 311.34375 599.058594 308.199219 599.0625 C 307 599.066406 305.804688 599.070312 304.609375 599.082031 C 302.925781 599.09375 301.242188 599.09375 299.558594 599.09375 L 296.660156 599.105469 C 293.65625 598.894531 291.25 598.253906 288.394531 597.332031 C 284.988281 579.644531 282.058594 561.882812 279.136719 544.109375 C 278.453125 539.9375 277.765625 535.761719 277.074219 531.585938 C 275.753906 523.566406 274.433594 515.546875 273.113281 507.527344 C 270.6875 492.785156 268.261719 478.042969 265.832031 463.296875 L 263.566406 449.550781 C 259.453125 424.539062 255.3125 399.535156 251.144531 374.535156 L 249.785156 366.359375 C 248.695312 359.828125 247.605469 353.296875 246.511719 346.765625 C 245.90625 343.152344 245.304688 339.539062 244.703125 335.921875 C 244.433594 334.300781 244.160156 332.675781 243.886719 331.050781 C 243.523438 328.878906 243.160156 326.710938 242.800781 324.539062 L 242.480469 322.671875 C 241.859375 318.835938 241.6875 315.199219 241.777344 311.308594 C 244.464844 309.683594 246.535156 309.53125 249.652344 309.53125 " fill-opacity="1" fill-rule="nonzero"/><path fill="#fefefe" d="M 0 0 L 768 0 L 768 768 L 0 768 Z M 12.640625 8.691406 C 10.867188 10.164062 10.867188 10.164062 9.582031 11.804688 L 8.253906 13.355469 C 6.460938 15.957031 5.59375 18.207031 5.332031 21.371094 L 5.332031 24.125 L 5.324219 25.675781 C 5.316406 27.394531 5.324219 29.113281 5.328125 30.832031 L 5.320312 34.574219 C 5.3125 38.019531 5.316406 41.464844 5.320312 44.910156 C 5.320312 48.652344 5.316406 52.394531 5.308594 56.136719 C 5.300781 62.699219 5.300781 69.265625 5.300781 75.828125 C 5.304688 85.589844 5.296875 95.351562 5.289062 105.109375 C 5.273438 123.554688 5.269531 142 5.269531 160.445312 C 5.265625 178.785156 5.261719 197.121094 5.253906 215.460938 L 5.253906 218.546875 C 5.234375 256.519531 5.226562 294.484375 5.238281 332.441406 C 5.238281 367.226562 5.230469 402.011719 5.207031 436.796875 L 5.191406 463.089844 L 5.191406 464.722656 C 5.167969 481.882812 5.164062 499.042969 5.171875 516.191406 C 5.164062 532.265625 5.164062 548.339844 5.171875 564.40625 L 5.171875 567.460938 C 5.171875 583.714844 5.160156 599.96875 5.148438 616.222656 C 5.132812 632.546875 5.132812 648.875 5.140625 665.203125 C 5.148438 674.910156 5.144531 684.617188 5.128906 694.320312 C 5.121094 700.800781 5.121094 707.28125 5.132812 713.757812 C 5.140625 717.453125 5.140625 721.148438 5.128906 724.839844 C 5.117188 728.203125 5.121094 731.5625 5.132812 734.921875 C 5.136719 736.132812 5.132812 737.339844 5.125 738.550781 C 5.085938 744.375 5.140625 749.550781 7.863281 754.84375 C 8.984375 756.609375 10.179688 757.941406 11.804688 759.257812 L 13.355469 760.566406 C 15.964844 762.320312 18.21875 763.199219 21.371094 763.457031 L 24.125 763.460938 L 25.671875 763.46875 C 27.386719 763.472656 29.105469 763.46875 30.820312 763.460938 L 34.5625 763.46875 C 38.003906 763.476562 41.445312 763.476562 44.886719 763.472656 C 48.625 763.46875 52.367188 763.476562 56.105469 763.480469 C 62.664062 763.488281 69.21875 763.492188 75.777344 763.488281 C 85.53125 763.488281 95.28125 763.496094 105.035156 763.503906 C 123.464844 763.519531 141.890625 763.523438 160.320312 763.523438 C 178.644531 763.515625 196.964844 763.519531 215.28125 763.535156 L 218.363281 763.539062 C 256.292969 763.546875 294.222656 763.554688 332.148438 763.550781 C 366.898438 763.550781 401.652344 763.5625 436.402344 763.582031 L 462.671875 763.601562 L 464.304688 763.601562 C 497.5 763.621094 530.695312 763.628906 563.890625 763.621094 L 566.941406 763.621094 C 583.183594 763.621094 599.421875 763.628906 615.660156 763.644531 C 631.96875 763.65625 648.28125 763.660156 664.59375 763.648438 C 674.289062 763.640625 683.988281 763.648438 693.6875 763.660156 C 700.160156 763.671875 706.628906 763.667969 713.101562 763.65625 C 716.792969 763.652344 720.484375 763.648438 724.175781 763.664062 C 727.535156 763.671875 730.890625 763.671875 734.246094 763.65625 C 735.453125 763.652344 736.664062 763.65625 737.871094 763.664062 C 745.160156 763.816406 745.160156 763.816406 752.058594 761.75 C 754.261719 760.300781 755.941406 759.046875 757.628906 757.035156 L 758.957031 755.511719 C 760.824219 752.679688 761.609375 749.902344 761.878906 746.527344 L 761.878906 743.773438 L 761.886719 742.222656 C 761.894531 740.503906 761.886719 738.785156 761.882812 737.070312 L 761.890625 733.324219 C 761.898438 729.878906 761.894531 726.433594 761.890625 722.988281 C 761.890625 719.246094 761.894531 715.503906 761.902344 711.761719 C 761.910156 705.195312 761.914062 698.632812 761.910156 692.066406 C 761.90625 682.304688 761.914062 672.542969 761.921875 662.78125 C 761.9375 644.335938 761.941406 625.890625 761.945312 607.445312 C 761.941406 589.117188 761.945312 570.777344 761.957031 552.433594 L 761.957031 549.347656 C 761.964844 511.382812 761.96875 473.417969 761.972656 435.457031 C 761.972656 400.667969 761.980469 365.886719 762.003906 331.101562 L 762.019531 304.804688 L 762.023438 303.171875 C 762.027344 286.011719 762.035156 268.855469 762.039062 251.699219 C 762.039062 234.609375 762.039062 217.519531 762.039062 200.433594 C 762.039062 184.179688 762.050781 167.925781 762.066406 151.671875 C 762.078125 135.34375 762.078125 119.019531 762.070312 102.691406 C 762.0625 92.984375 762.066406 83.277344 762.082031 73.574219 C 762.089844 67.09375 762.089844 60.617188 762.078125 54.136719 C 762.070312 50.445312 762.070312 46.75 762.082031 43.054688 C 762.09375 39.695312 762.09375 36.335938 762.078125 32.976562 C 762.074219 31.765625 762.078125 30.558594 762.085938 29.347656 C 762.238281 22.054688 762.238281 22.054688 760.171875 15.152344 C 758.707031 12.929688 757.445312 11.265625 755.40625 9.582031 L 753.855469 8.253906 C 751.253906 6.460938 749.003906 5.59375 745.839844 5.332031 L 743.089844 5.332031 L 741.539062 5.324219 C 739.824219 5.316406 738.105469 5.324219 736.390625 5.328125 L 732.652344 5.320312 C 729.207031 5.3125 725.765625 5.3125 722.324219 5.316406 C 718.585938 5.320312 714.847656 5.3125 711.105469 5.308594 C 704.550781 5.300781 697.992188 5.296875 691.433594 5.300781 C 681.679688 5.300781 671.929688 5.296875 662.175781 5.289062 C 643.75 5.273438 625.320312 5.269531 606.890625 5.265625 C 588.574219 5.265625 570.253906 5.261719 551.933594 5.253906 L 548.851562 5.253906 C 510.929688 5.246094 473 5.238281 435.0625 5.238281 C 400.3125 5.238281 365.558594 5.226562 330.808594 5.207031 L 304.539062 5.191406 L 302.90625 5.1875 C 269.714844 5.164062 236.519531 5.15625 203.320312 5.167969 L 200.269531 5.167969 C 184.027344 5.167969 167.789062 5.160156 151.550781 5.144531 C 135.242188 5.132812 118.929688 5.128906 102.617188 5.140625 C 92.921875 5.148438 83.222656 5.144531 73.527344 5.128906 C 67.054688 5.121094 60.582031 5.121094 54.109375 5.132812 C 50.417969 5.140625 46.726562 5.140625 43.035156 5.128906 C 39.679688 5.117188 36.320312 5.117188 32.964844 5.132812 C 31.757812 5.136719 30.546875 5.132812 29.339844 5.125 C 23.0625 5.082031 18.027344 5.148438 12.640625 8.691406 " fill-opacity="1" fill-rule="nonzero"/><path fill="#26bde2" d="M 254.417969 322.371094 L 512 322.371094 L 512.789062 323.949219 C 512.65625 325.335938 512.472656 326.710938 512.238281 328.082031 L 511.816406 330.695312 L 511.339844 333.527344 L 510.863281 336.425781 C 510.445312 338.972656 510.019531 341.519531 509.59375 344.066406 C 509.164062 346.652344 508.738281 349.242188 508.3125 351.828125 C 507.988281 353.792969 507.664062 355.761719 507.339844 357.726562 L 506.875 360.554688 L 506.433594 363.175781 L 506.050781 365.484375 C 505.679688 367.40625 505.679688 367.40625 504.890625 369.777344 L 502.628906 369.546875 C 501.617188 369.460938 500.601562 369.375 499.554688 369.285156 L 496.554688 369.003906 C 488.132812 368.71875 480.59375 371.457031 472.890625 374.515625 C 463.183594 378.359375 453.507812 381.875 443.257812 384 L 441.320312 384.433594 C 435.351562 385.660156 429.539062 385.855469 423.457031 385.828125 C 422.445312 385.824219 421.433594 385.820312 420.390625 385.8125 C 412.5 385.714844 405.09375 385.070312 397.433594 383.210938 L 395.664062 382.796875 C 384.671875 380.164062 374.207031 376.066406 363.726562 371.886719 C 354.597656 368.273438 345.296875 364.867188 335.40625 364.296875 L 332.371094 364.078125 C 323.457031 364.144531 314.675781 367.144531 306.335938 369.992188 C 292.53125 374.6875 279.320312 378.066406 264.691406 378.46875 C 262.289062 367.203125 259.996094 355.914062 257.765625 344.617188 C 257.480469 343.15625 257.1875 341.695312 256.898438 340.234375 C 256.480469 338.15625 256.070312 336.074219 255.664062 333.992188 C 255.539062 333.371094 255.410156 332.746094 255.28125 332.101562 L 254.9375 330.320312 L 254.632812 328.785156 C 254.363281 326.660156 254.417969 324.507812 254.417969 322.371094 " fill-opacity="1" fill-rule="nonzero"/><path fill="#fefefe" d="M 123.640625 71.015625 C 128.121094 73.089844 131.828125 76.019531 134.84375 79.921875 C 138.3125 85.195312 139.605469 90.183594 140.640625 96.394531 L 140.640625 107.457031 L 114.566406 107.457031 L 112.988281 94.816406 L 109.828125 90.863281 C 106.96875 89.910156 104.933594 89.820312 101.925781 90.074219 C 99.246094 91.089844 99.246094 91.089844 97.183594 93.234375 C 92.953125 101.324219 93.839844 111.730469 93.582031 120.59375 L 93.476562 123.910156 C 93.394531 126.589844 93.3125 129.269531 93.234375 131.949219 L 94.445312 130.96875 C 98.582031 127.714844 101.914062 126.175781 107.105469 125.15625 C 112.695312 124.503906 118.257812 124.828125 123.605469 126.667969 C 129.527344 129.472656 133.527344 133.085938 137.480469 138.273438 C 141.738281 144.816406 142.6875 153.429688 143.148438 161.078125 C 143.703125 175.472656 142.660156 189.300781 135.902344 202.273438 C 132.765625 206.96875 129.210938 210.203125 124.246094 212.890625 C 116.351562 216.425781 108.191406 218.09375 99.554688 217.285156 C 91.347656 216.027344 84.3125 213.445312 77.726562 208.347656 C 72.289062 203.226562 69.195312 196.109375 67.058594 189.054688 C 64.683594 178.710938 64.664062 168.195312 64.65625 157.640625 L 64.648438 153.671875 C 64.644531 150.914062 64.644531 148.15625 64.644531 145.398438 C 64.644531 141.898438 64.632812 138.398438 64.621094 134.898438 C 64.613281 132.171875 64.609375 129.441406 64.609375 126.714844 C 64.609375 125.425781 64.605469 124.136719 64.597656 122.847656 C 64.542969 109.597656 65.167969 95.953125 71.566406 84.023438 C 75.003906 78.371094 79.171875 74.671875 84.984375 71.488281 C 97.035156 66.316406 111.394531 66.683594 123.640625 71.015625 " fill-opacity="1" fill-rule="nonzero"/><path fill="#26bde2" d="M 383.210938 417.183594 L 385.582031 417.976562 C 386.8125 419.613281 387.980469 421.296875 389.082031 423.027344 L 390.101562 424.59375 C 391.203125 426.285156 392.292969 427.980469 393.382812 429.679688 C 394.140625 430.847656 394.898438 432.011719 395.652344 433.179688 C 397.152344 435.488281 398.648438 437.800781 400.140625 440.117188 C 401.816406 442.707031 403.5 445.292969 405.191406 447.871094 C 429.136719 484.363281 429.136719 484.363281 430.917969 501.46875 C 431.207031 509.917969 429.191406 517.992188 425.730469 525.679688 C 422.304688 532.011719 416.761719 537.886719 410.863281 542.023438 C 403.964844 546.246094 397.03125 548.257812 388.964844 548.570312 C 387.292969 548.605469 385.621094 548.628906 383.949219 548.640625 L 381.542969 548.675781 C 373.472656 548.625 365.828125 546.683594 358.714844 542.816406 C 352.5625 538.898438 346.746094 533.664062 343.039062 527.332031 C 338.523438 517.964844 336.632812 508.921875 337.382812 498.566406 C 338.488281 491.714844 340.433594 484.949219 343.703125 478.816406 L 345.011719 476.300781 C 350.707031 465.644531 357.5625 455.675781 364.246094 445.628906 L 365.367188 443.945312 C 370.257812 436.589844 375.15625 429.238281 380.066406 421.890625 C 381.117188 420.324219 382.164062 418.753906 383.210938 417.183594 " fill-opacity="1" fill-rule="nonzero"/><path fill="#fefefe" d="M 422.785156 69.929688 C 426.101562 71.195312 428.335938 73.179688 430.617188 75.851562 C 432.429688 78.570312 432.597656 81.335938 432.988281 84.542969 C 433.132812 88.136719 433.132812 91.730469 433.132812 95.328125 C 433.136719 97.023438 433.148438 98.71875 433.164062 100.414062 C 433.195312 107.402344 433.214844 114.449219 430.023438 120.839844 C 428.246094 123.257812 428.246094 123.257812 425.875 124.742188 C 421.359375 126.433594 417.261719 126.933594 412.445312 126.417969 C 409.886719 125.660156 407.5625 124.734375 405.332031 123.257812 C 402.738281 120.25 401.945312 117.3125 401.058594 113.492188 C 400.25 108.5 400.242188 103.527344 400.285156 98.476562 C 400.296875 96.636719 400.285156 94.796875 400.269531 92.953125 C 400.261719 86.878906 400.429688 81.488281 402.964844 75.851562 C 404.917969 73.355469 406.648438 72.054688 409.382812 70.46875 C 413.617188 68.851562 418.410156 68.871094 422.78125 69.929688 M 582.359375 160.992188 C 584.878906 162.277344 586.398438 163.714844 588.148438 165.925781 C 589.785156 168.949219 590.316406 171.347656 590.347656 174.761719 L 590.375 176.710938 L 590.382812 178.800781 L 590.394531 180.976562 C 590.402344 182.492188 590.410156 184.007812 590.410156 185.527344 C 590.417969 187.832031 590.445312 190.136719 590.46875 192.445312 C 590.472656 193.921875 590.476562 195.398438 590.480469 196.875 L 590.511719 198.945312 C 590.496094 203.488281 589.726562 206.816406 587.851562 210.964844 C 586.191406 213.226562 584.742188 214.503906 582.222656 215.734375 C 578.34375 217.164062 575.15625 217.410156 571.0625 216.839844 C 568.296875 216.253906 566.257812 215.578125 563.703125 214.320312 C 561.507812 212.296875 560.503906 210.570312 559.40625 207.800781 C 558.753906 205.578125 558.507812 203.578125 558.476562 201.265625 L 558.445312 199.265625 L 558.429688 197.125 L 558.410156 194.898438 C 558.398438 193.34375 558.390625 191.789062 558.382812 190.234375 C 558.375 188.652344 558.359375 187.070312 558.335938 185.484375 C 558.304688 183.191406 558.285156 180.898438 558.28125 178.605469 L 558.238281 176.480469 C 558.253906 172.292969 558.910156 169.316406 560.929688 165.632812 C 562.300781 163.554688 563.566406 162.433594 565.726562 161.183594 C 571.136719 159.222656 576.917969 158.988281 582.359375 160.992188 M 424.640625 160.199219 L 426.515625 160.136719 L 428.246094 160.394531 C 429.488281 161.414062 429.488281 161.414062 430.617188 162.765625 C 431.257812 164.980469 431.777344 167.117188 432.230469 169.371094 L 432.644531 171.339844 C 432.933594 172.714844 433.21875 174.089844 433.496094 175.46875 C 433.921875 177.5625 434.363281 179.65625 434.808594 181.746094 C 435.085938 183.085938 435.363281 184.425781 435.636719 185.765625 L 436.035156 187.644531 C 436.761719 191.28125 437.066406 194.617188 436.9375 198.320312 L 438.519531 198.320312 L 438.59375 196.890625 C 439.050781 190.445312 440.308594 184.261719 441.6875 177.964844 C 442.078125 176.179688 442.460938 174.394531 442.84375 172.609375 L 443.578125 169.183594 L 443.925781 167.578125 C 444.402344 165.398438 444.921875 163.304688 445.628906 161.183594 C 448.382812 160.019531 451.382812 160.285156 454.320312 160.394531 L 455.902344 161.183594 C 456.914062 179.351562 456.769531 197.515625 456.691406 215.703125 C 454.59375 216.226562 453.058594 216.554688 450.914062 216.148438 L 449.582031 215.703125 C 449.054688 207.144531 448.707031 198.601562 448.691406 190.023438 L 448.679688 187.667969 L 448.683594 185.457031 L 448.6875 183.503906 C 448.789062 181.761719 449.097656 180.242188 449.582031 178.566406 L 448 178.566406 L 447.777344 181.65625 C 447.210938 187.320312 446.003906 192.851562 444.832031 198.414062 C 444.441406 200.261719 444.058594 202.109375 443.675781 203.960938 L 442.9375 207.503906 L 442.589844 209.171875 C 442.121094 211.402344 441.609375 213.539062 440.890625 215.703125 C 439.0625 216.148438 439.0625 216.148438 436.9375 216.492188 L 434.566406 215.703125 C 433.816406 213.429688 433.816406 213.429688 433.183594 210.402344 L 432.832031 208.765625 C 432.464844 207.03125 432.105469 205.292969 431.753906 203.554688 L 431.027344 200.132812 C 427.457031 183.28125 427.457031 183.28125 427.457031 178.566406 L 425.875 178.566406 L 426.265625 179.769531 C 426.8125 182.449219 426.78125 185.082031 426.765625 187.800781 L 426.761719 189.628906 C 426.699219 198.328125 426.273438 207.015625 425.875 215.703125 L 418.765625 215.703125 C 418.746094 209.84375 418.730469 203.984375 418.722656 198.125 C 418.71875 196.136719 418.710938 194.148438 418.707031 192.160156 C 418.621094 166.632812 418.621094 166.632812 419.554688 161.183594 C 421.394531 160.265625 422.59375 160.238281 424.640625 160.199219 M 276.542969 69.53125 C 277.992188 69.457031 279.4375 69.425781 280.890625 69.433594 L 283.285156 69.425781 L 285.234375 69.53125 L 286.023438 70.320312 C 286.109375 71.6875 286.140625 73.054688 286.148438 74.421875 L 286.171875 77.074219 L 286.191406 79.964844 L 286.257812 85.964844 C 286.292969 89.132812 286.324219 92.300781 286.339844 95.46875 C 286.363281 98.515625 286.398438 101.5625 286.4375 104.609375 L 286.445312 107.484375 L 286.484375 110.160156 L 286.503906 112.511719 C 286.695312 114.617188 286.695312 114.617188 287.871094 116.398438 L 289.183594 117.726562 C 291.554688 118.253906 291.554688 118.253906 293.925781 117.726562 C 295.328125 116.417969 295.328125 116.417969 296.296875 114.566406 C 296.667969 112.464844 296.667969 112.464844 296.636719 110.148438 L 296.683594 107.464844 L 296.699219 104.578125 L 296.742188 101.617188 C 296.777344 99.027344 296.804688 96.433594 296.824219 93.839844 C 296.847656 91.191406 296.886719 88.542969 296.921875 85.894531 C 296.988281 80.703125 297.042969 75.511719 297.085938 70.320312 C 299.0625 69.332031 300.464844 69.425781 302.667969 69.433594 L 304.816406 69.425781 L 306.566406 69.53125 L 307.359375 70.320312 C 307.441406 71.484375 307.46875 72.648438 307.472656 73.8125 L 307.488281 76.070312 L 307.492188 78.535156 L 307.5 81.066406 C 307.503906 82.84375 307.503906 84.621094 307.503906 86.402344 C 307.503906 89.09375 307.519531 91.785156 307.535156 94.480469 C 307.539062 96.210938 307.539062 97.941406 307.539062 99.671875 L 307.558594 102.078125 C 307.535156 108.59375 307.136719 115.207031 304.640625 121.285156 C 302.078125 123.785156 299.699219 124.839844 296.304688 125.921875 C 291.875 126.847656 287.859375 126.492188 283.570312 125.082031 C 281.519531 124.109375 280.011719 122.902344 278.695312 121.050781 C 275.308594 114.835938 275.636719 108.1875 275.648438 101.289062 L 275.644531 98.609375 C 275.644531 96.75 275.648438 94.886719 275.648438 93.027344 C 275.65625 90.167969 275.648438 87.304688 275.644531 84.445312 C 275.644531 82.636719 275.644531 80.828125 275.648438 79.019531 L 275.644531 76.414062 L 275.652344 74.023438 L 275.652344 71.910156 L 275.753906 70.320312 Z M 318.417969 160.394531 C 322.425781 160.195312 322.425781 160.195312 324.742188 161.183594 C 325.785156 162.660156 325.785156 162.660156 326.664062 164.582031 L 327.664062 166.746094 L 328.691406 169.085938 L 329.746094 171.460938 C 330.8125 173.921875 331.859375 176.386719 332.890625 178.863281 L 333.976562 181.417969 L 335.003906 183.871094 L 335.929688 186.074219 C 336.59375 188.050781 336.59375 188.050781 336.59375 191.210938 L 338.171875 191.210938 L 338.160156 188.464844 C 338.144531 185.121094 338.136719 181.773438 338.128906 178.425781 C 338.125 176.972656 338.121094 175.523438 338.113281 174.070312 C 338.101562 171.992188 338.097656 169.910156 338.09375 167.832031 L 338.082031 165.851562 C 338.082031 164.296875 338.125 162.738281 338.171875 161.183594 L 338.964844 160.394531 C 344.117188 160.207031 344.117188 160.207031 346.074219 161.183594 L 346.074219 215.703125 L 338.964844 215.703125 C 337.269531 211.585938 335.582031 207.464844 333.898438 203.34375 C 333.324219 201.941406 332.75 200.539062 332.175781 199.136719 C 331.347656 197.125 330.523438 195.109375 329.703125 193.097656 L 328.917969 191.195312 C 327.109375 186.738281 327.109375 186.738281 327.109375 184.097656 L 325.53125 184.097656 L 326.320312 186.46875 C 326.386719 188.683594 326.414062 190.878906 326.398438 193.097656 L 326.394531 195.050781 C 326.390625 197.113281 326.378906 199.171875 326.371094 201.234375 C 326.367188 202.632812 326.363281 204.03125 326.359375 205.425781 C 326.351562 208.851562 326.335938 212.277344 326.320312 215.703125 L 323.308594 216.148438 L 321.613281 216.398438 C 320 216.492188 320 216.492188 317.628906 215.703125 C 317.613281 208.609375 317.597656 201.515625 317.589844 194.417969 C 317.585938 191.125 317.578125 187.832031 317.570312 184.539062 C 317.5625 181.359375 317.558594 178.183594 317.554688 175.007812 C 317.554688 173.792969 317.550781 172.578125 317.546875 171.367188 C 317.542969 169.667969 317.539062 167.972656 317.539062 166.28125 L 317.535156 163.351562 L 317.628906 161.183594 Z M 494.617188 160.394531 C 497.183594 159.949219 497.183594 159.949219 500.148438 160.394531 C 503.925781 165.511719 506.242188 171.296875 508.691406 177.136719 L 509.894531 179.917969 L 511.027344 182.601562 L 512.054688 185.027344 C 512.785156 187.242188 512.941406 188.894531 512.789062 191.210938 L 514.371094 191.210938 L 514.371094 161.183594 L 522.273438 160.394531 C 523.402344 162.660156 523.121094 164.554688 523.078125 167.085938 L 523.054688 168.675781 C 523.03125 170.410156 522.996094 172.148438 522.964844 173.882812 L 522.910156 177.488281 C 522.859375 180.65625 522.804688 183.824219 522.75 186.992188 C 522.695312 190.21875 522.640625 193.453125 522.589844 196.683594 C 522.488281 203.023438 522.382812 209.363281 522.273438 215.703125 L 515.949219 215.703125 C 513.0625 210.253906 510.777344 204.589844 508.5 198.867188 C 507.847656 197.21875 507.1875 195.578125 506.523438 193.933594 L 505.269531 190.796875 L 504.128906 187.933594 C 503.308594 185.679688 503.308594 185.679688 503.308594 184.097656 L 501.726562 184.097656 L 502.519531 186.46875 C 502.585938 188.683594 502.609375 190.878906 502.597656 193.097656 L 502.59375 195.050781 C 502.589844 197.113281 502.578125 199.171875 502.566406 201.234375 C 502.5625 202.632812 502.558594 204.03125 502.558594 205.425781 C 502.546875 208.851562 502.535156 212.277344 502.519531 215.703125 C 499.34375 216.253906 496.921875 216.628906 493.828125 215.703125 C 493.808594 208.609375 493.796875 201.515625 493.785156 194.417969 C 493.78125 191.125 493.777344 187.832031 493.769531 184.539062 C 493.757812 181.359375 493.753906 178.183594 493.753906 175.007812 C 493.75 173.792969 493.746094 172.578125 493.742188 171.367188 C 493.738281 169.667969 493.738281 167.972656 493.738281 166.28125 L 493.730469 163.351562 L 493.828125 161.183594 Z M 366.617188 69.53125 C 368.714844 69.449219 370.789062 69.417969 372.890625 69.433594 L 374.738281 69.445312 C 386.441406 69.566406 386.441406 69.566406 390.617188 71.652344 C 393.074219 73.820312 394.4375 75.234375 395.851562 78.222656 C 396.773438 83.007812 397.132812 87.714844 395.804688 92.445312 C 394.828125 94.839844 393.960938 95.945312 392.148438 97.925781 C 389.175781 99.773438 386.675781 100.746094 383.210938 101.136719 L 376.890625 101.136719 L 376.097656 125.628906 L 366.617188 125.628906 C 365.492188 123.378906 365.726562 121.46875 365.722656 118.949219 L 365.71875 117.367188 C 365.71875 115.632812 365.71875 113.902344 365.722656 112.167969 C 365.722656 110.96875 365.722656 109.769531 365.71875 108.570312 C 365.71875 106.050781 365.71875 103.535156 365.722656 101.019531 C 365.726562 97.785156 365.726562 94.554688 365.722656 91.320312 C 365.71875 88.839844 365.71875 86.363281 365.722656 83.882812 C 365.722656 82.691406 365.722656 81.5 365.71875 80.304688 C 365.71875 78.644531 365.71875 76.980469 365.726562 75.316406 L 365.726562 72.445312 L 365.828125 70.320312 Z M 261.035156 70.371094 C 263.378906 71.378906 264.691406 72.585938 266.222656 74.617188 C 267.511719 76.574219 268.230469 78.28125 268.640625 80.59375 C 268.742188 83.230469 268.675781 85.851562 268.640625 88.492188 L 259.160156 88.492188 L 258.773438 82.628906 C 258.476562 80.546875 258.476562 80.546875 257.300781 78.777344 L 256 77.433594 C 253.628906 76.90625 253.628906 76.90625 251.257812 77.433594 C 249.789062 78.550781 249.789062 78.550781 248.890625 80.59375 C 248.535156 83.136719 248.558594 85.65625 248.574219 88.222656 L 248.566406 90.472656 C 248.566406 92.039062 248.570312 93.605469 248.578125 95.171875 C 248.59375 97.570312 248.578125 99.96875 248.5625 102.367188 C 248.566406 103.890625 248.570312 105.414062 248.574219 106.9375 L 248.558594 109.109375 C 248.597656 112.996094 248.597656 112.996094 249.921875 116.597656 L 251.257812 117.726562 C 254.023438 118.320312 254.023438 118.320312 256.789062 117.726562 C 258.46875 115.585938 259.121094 114.011719 259.566406 111.316406 L 259.703125 108.789062 L 259.859375 106.230469 L 259.949219 104.296875 L 257.628906 104.347656 L 255.210938 104.296875 L 254.417969 103.507812 C 254.308594 101.398438 254.386719 99.300781 254.417969 97.183594 C 256.640625 97.164062 258.863281 97.148438 261.085938 97.136719 L 263.007812 97.117188 C 264.621094 97.109375 266.238281 97.144531 267.851562 97.183594 L 268.640625 97.976562 C 268.710938 100.023438 268.734375 102.050781 268.71875 104.101562 L 268.714844 105.957031 C 268.710938 107.921875 268.703125 109.886719 268.691406 111.851562 C 268.6875 113.179688 268.683594 114.507812 268.679688 115.835938 C 268.671875 119.101562 268.660156 122.367188 268.640625 125.628906 L 262.320312 125.628906 L 261.53125 121.679688 L 259.554688 123.605469 C 257.5 125.296875 256.492188 125.707031 253.777344 126.417969 C 250.597656 126.628906 247.878906 125.976562 244.921875 124.84375 C 243.359375 124.050781 243.359375 124.050781 241.480469 122.320312 C 238.792969 117.671875 237.5625 113.605469 237.496094 108.285156 L 237.511719 106.296875 L 237.503906 104.191406 C 237.503906 102.730469 237.507812 101.269531 237.519531 99.808594 C 237.53125 97.585938 237.519531 95.367188 237.503906 93.144531 C 237.503906 91.71875 237.507812 90.292969 237.511719 88.863281 L 237.496094 86.875 C 237.550781 82.433594 238.382812 79.125 240.199219 75.0625 C 241.527344 73.433594 241.527344 73.433594 242.914062 72.347656 L 244.292969 71.214844 C 248.9375 68.324219 255.984375 68.804688 261.035156 70.371094 M 323.160156 69.53125 C 324.722656 69.433594 326.285156 69.390625 327.851562 69.382812 L 330.441406 69.347656 L 332.640625 69.53125 C 334.222656 71.109375 334.222656 71.109375 334.800781 73.230469 L 335.34375 75.957031 L 335.96875 79.039062 L 336.625 82.390625 L 337.308594 85.8125 C 337.785156 88.207031 338.257812 90.601562 338.730469 93 C 339.332031 96.066406 339.945312 99.136719 340.558594 102.203125 C 341.027344 104.5625 341.496094 106.917969 341.964844 109.28125 L 342.640625 112.671875 C 342.953125 114.253906 343.265625 115.835938 343.574219 117.421875 L 344.113281 120.148438 C 344.492188 122.46875 344.492188 122.46875 344.492188 125.628906 L 335.011719 125.628906 L 332.640625 112.988281 L 323.160156 112.988281 L 322.863281 116.640625 C 322.550781 119.835938 321.972656 122.628906 320.789062 125.628906 L 312.097656 125.628906 C 312.578125 118.925781 313.652344 112.5 315.011719 105.921875 L 315.640625 102.828125 C 316.078125 100.6875 316.515625 98.546875 316.957031 96.410156 C 317.523438 93.664062 318.082031 90.917969 318.636719 88.167969 C 319.171875 85.542969 319.707031 82.917969 320.246094 80.289062 C 320.449219 79.300781 320.648438 78.3125 320.855469 77.296875 L 321.421875 74.550781 L 321.921875 72.128906 L 322.371094 70.320312 Z M 212.542969 69.53125 L 222.023438 69.53125 C 224.621094 74.746094 225.589844 80.171875 226.699219 85.859375 L 227.328125 89.003906 C 227.765625 91.1875 228.195312 93.375 228.625 95.558594 C 229.175781 98.359375 229.730469 101.15625 230.289062 103.953125 C 230.722656 106.109375 231.152344 108.269531 231.578125 110.429688 C 231.882812 111.960938 232.1875 113.492188 232.492188 115.023438 L 233.042969 117.847656 L 233.53125 120.328125 C 233.875 122.46875 233.875 122.46875 233.875 125.628906 L 224.394531 125.628906 C 223.429688 121.160156 222.816406 117.601562 222.816406 112.988281 L 212.542969 112.988281 L 212.246094 116.640625 C 211.933594 119.835938 211.355469 122.628906 210.171875 125.628906 L 201.480469 125.628906 C 201.957031 119.207031 202.914062 113.03125 204.195312 106.722656 L 204.761719 103.863281 C 205.160156 101.886719 205.558594 99.910156 205.957031 97.933594 C 206.570312 94.90625 207.171875 91.878906 207.773438 88.851562 L 208.933594 83.066406 L 209.480469 80.332031 L 210 77.78125 L 210.449219 75.546875 C 210.964844 73.480469 210.964844 73.480469 212.542969 69.53125 M 475.652344 69.53125 L 485.925781 69.53125 C 487.15625 72.609375 487.925781 75.09375 488.554688 78.292969 L 489.128906 81.175781 L 489.734375 84.269531 L 490.367188 87.46875 C 490.804688 89.695312 491.242188 91.925781 491.675781 94.15625 C 492.234375 97.007812 492.796875 99.855469 493.359375 102.707031 C 493.796875 104.90625 494.226562 107.105469 494.660156 109.304688 C 494.964844 110.863281 495.273438 112.425781 495.582031 113.984375 L 496.140625 116.867188 L 496.636719 119.402344 C 496.988281 121.679688 496.988281 121.679688 496.988281 125.628906 L 488.296875 125.628906 C 487.050781 121.445312 486.054688 117.253906 485.136719 112.988281 L 475.652344 112.988281 L 475.308594 117.085938 C 475.0625 120.027344 474.65625 122.714844 474.074219 125.628906 L 464.59375 125.628906 C 465.152344 119.496094 466.289062 113.542969 467.507812 107.507812 L 468.132812 104.363281 C 468.570312 102.179688 469.007812 99.996094 469.449219 97.8125 C 470.011719 95.015625 470.574219 92.214844 471.132812 89.414062 C 471.5625 87.257812 471.996094 85.097656 472.429688 82.9375 C 472.738281 81.40625 473.042969 79.871094 473.347656 78.335938 L 473.917969 75.53125 L 474.414062 73.054688 C 474.863281 71.109375 474.863281 71.109375 475.652344 69.53125 M 301.035156 160.394531 C 302.742188 166.96875 304.214844 173.5625 305.539062 180.226562 L 306.113281 183.089844 C 306.511719 185.070312 306.90625 187.050781 307.300781 189.027344 C 307.90625 192.066406 308.511719 195.101562 309.125 198.140625 L 310.28125 203.929688 L 310.832031 206.683594 L 311.339844 209.226562 L 311.785156 211.460938 C 312.097656 213.332031 312.097656 213.332031 312.097656 215.703125 C 310.964844 215.859375 309.828125 216.003906 308.691406 216.148438 L 306.773438 216.398438 C 304.988281 216.492188 304.988281 216.492188 302.617188 215.703125 C 302.351562 214.320312 302.085938 212.9375 301.828125 211.554688 L 301.382812 209.222656 C 301.035156 207.011719 301.035156 207.011719 301.035156 203.851562 L 290.765625 203.851562 L 290.421875 207.554688 C 289.808594 213.5625 289.808594 213.5625 289.183594 215.703125 C 286.824219 216.886719 284.679688 216.585938 282.074219 216.492188 L 279.703125 215.703125 C 280.175781 209.316406 281.316406 203.132812 282.589844 196.859375 L 283.210938 193.765625 C 283.644531 191.621094 284.082031 189.476562 284.519531 187.332031 C 285.078125 184.582031 285.628906 181.828125 286.175781 179.074219 C 286.703125 176.441406 287.238281 173.8125 287.773438 171.183594 L 288.371094 168.179688 L 288.9375 165.429688 L 289.429688 162.996094 L 289.976562 161.183594 C 293.21875 159.5625 297.464844 160.355469 301.035156 160.394531 M 391.902344 160.394531 C 393.460938 160.296875 395.027344 160.257812 396.59375 160.246094 L 399.183594 160.214844 L 401.382812 160.394531 C 402.964844 161.976562 402.964844 161.976562 403.542969 164.097656 L 404.085938 166.832031 L 404.707031 169.925781 L 405.363281 173.28125 L 406.046875 176.710938 C 406.527344 179.109375 407 181.507812 407.46875 183.90625 C 408.074219 186.984375 408.683594 190.058594 409.300781 193.132812 C 409.769531 195.492188 410.238281 197.855469 410.707031 200.21875 L 411.382812 203.621094 C 411.695312 205.203125 412.007812 206.789062 412.316406 208.375 L 412.855469 211.109375 C 413.234375 213.332031 413.234375 213.332031 413.234375 215.703125 C 412.101562 215.859375 410.964844 216.003906 409.828125 216.148438 L 407.910156 216.398438 C 406.125 216.492188 406.125 216.492188 403.753906 215.703125 C 403.488281 214.320312 403.222656 212.9375 402.964844 211.554688 L 402.519531 209.222656 C 402.171875 207.011719 402.171875 207.011719 402.171875 203.851562 L 391.902344 203.851562 L 391.554688 207.554688 C 391.28125 210.3125 390.953125 213 390.320312 215.703125 C 389.1875 215.859375 388.050781 216.003906 386.914062 216.148438 L 384.996094 216.398438 C 383.210938 216.492188 383.210938 216.492188 380.839844 215.703125 C 381.304688 209.3125 382.464844 203.132812 383.753906 196.859375 L 384.382812 193.765625 C 384.816406 191.621094 385.257812 189.476562 385.695312 187.332031 C 386.261719 184.582031 386.824219 181.828125 387.378906 179.074219 C 387.914062 176.445312 388.449219 173.8125 388.988281 171.183594 L 389.59375 168.179688 L 390.164062 165.429688 L 390.660156 162.996094 L 391.109375 161.183594 Z M 391.902344 160.394531 " fill-opacity="1" fill-rule="nonzero"/><path fill="#26bde2" d="M 107.457031 146.171875 C 110.074219 147.457031 110.074219 147.457031 112.199219 149.332031 C 114.625 153.1875 115.265625 156.828125 115.472656 161.332031 C 115.492188 164.246094 115.503906 167.160156 115.503906 170.074219 L 115.535156 173.121094 C 115.546875 179.835938 115.445312 186.234375 112.445312 192.347656 C 110.617188 194.371094 110.617188 194.371094 107.949219 195.902344 C 105.085938 196.742188 105.085938 196.742188 102.617188 196.691406 C 99.84375 195.785156 98.410156 194.914062 96.394531 192.789062 C 92.6875 185.578125 92.96875 177.46875 92.871094 169.566406 C 92.851562 168.261719 92.816406 166.957031 92.773438 165.652344 C 92.417969 154.867188 92.417969 154.867188 94.410156 151.007812 C 95.78125 149.390625 97.007812 148.140625 98.765625 146.964844 C 101.714844 145.980469 104.394531 145.761719 107.457031 146.171875 " fill-opacity="1" fill-rule="nonzero"/><path fill="#fefefe" d="M 267.851562 160.394531 C 270.511719 161.855469 272.414062 163.445312 274.171875 165.925781 C 275.105469 168.808594 275.535156 171.601562 275.753906 174.617188 C 272.734375 175.742188 270.289062 176.386719 267.0625 176.199219 L 266.570312 174.667969 L 265.925781 172.691406 L 265.285156 170.71875 C 264.832031 169.117188 264.832031 169.117188 263.902344 168.296875 C 261.992188 167.96875 261.992188 167.96875 259.949219 168.296875 C 258.261719 169.402344 258.261719 169.402344 257.582031 171.457031 C 258.023438 174.378906 258.386719 176.699219 260.121094 179.117188 C 261.28125 180.367188 262.488281 181.519531 263.753906 182.667969 L 265 183.851562 C 265.816406 184.621094 266.636719 185.390625 267.460938 186.15625 C 271.320312 189.757812 274.839844 193.210938 276.542969 198.320312 C 276.867188 202.273438 276.914062 205.898438 275.652344 209.679688 C 273.808594 212.261719 272 213.828125 269.433594 215.703125 C 265.558594 216.996094 261.625 216.789062 257.582031 216.492188 C 254.578125 215.476562 253.226562 214.53125 251.0625 212.246094 C 248.558594 208.488281 247.835938 205.164062 247.308594 200.691406 C 249.601562 199.164062 250.386719 198.875 252.988281 198.617188 L 256 198.320312 L 258.371094 207.800781 L 261.433594 207.949219 L 263.15625 208.035156 L 264.691406 207.800781 C 266.332031 205.6875 266.332031 205.6875 266.53125 203.921875 C 266.457031 201.84375 266.199219 200.285156 265.480469 198.320312 C 262.660156 194.738281 259.265625 191.816406 255.761719 188.914062 C 252.714844 186.386719 250.199219 184.121094 248.59375 180.445312 C 247.535156 176.421875 247.558594 172.398438 248.097656 168.296875 C 248.914062 166.199219 249.699219 165.25 251.257812 163.554688 L 252.347656 162.316406 C 253.859375 160.980469 254.929688 160.632812 256.890625 160.199219 C 260.691406 159.488281 264.128906 159.191406 267.851562 160.394531 M 503.011719 69.480469 L 504.96875 69.503906 L 506.46875 69.53125 C 507.839844 73.320312 508.675781 77.070312 509.414062 81.019531 L 509.777344 82.941406 C 510.03125 84.277344 510.28125 85.609375 510.53125 86.945312 C 510.914062 88.988281 511.300781 91.027344 511.691406 93.066406 L 512.425781 96.96875 L 512.777344 98.8125 C 513.273438 101.496094 513.582031 103.925781 513.582031 106.667969 L 515.160156 106.667969 L 515.25 104.898438 C 515.683594 97.992188 516.722656 91.3125 517.992188 84.523438 C 518.324219 82.734375 518.652344 80.949219 518.976562 79.15625 C 520.144531 72.804688 520.144531 72.804688 520.691406 70.320312 L 521.480469 69.53125 C 522.8125 69.476562 524.148438 69.460938 525.480469 69.480469 L 527.683594 69.503906 L 529.382812 69.53125 L 530.171875 71.109375 C 529.914062 72.847656 529.605469 74.578125 529.246094 76.296875 L 528.921875 77.90625 C 528.5625 79.667969 528.195312 81.429688 527.828125 83.191406 L 527.082031 86.851562 C 526.425781 90.066406 525.761719 93.28125 525.097656 96.492188 C 524.425781 99.769531 523.75 103.046875 523.082031 106.328125 C 521.765625 112.761719 520.441406 119.195312 519.109375 125.628906 L 509.628906 125.628906 C 507.433594 119.609375 506.160156 113.566406 504.953125 107.28125 L 504.328125 104.070312 C 503.78125 101.277344 503.238281 98.484375 502.699219 95.6875 C 502.148438 92.828125 501.589844 89.96875 501.03125 87.105469 C 499.941406 81.511719 498.859375 75.917969 497.777344 70.320312 C 499.679688 69.371094 500.898438 69.453125 503.011719 69.480469 M 470.964844 160.289062 L 473.855469 160.285156 L 476.886719 160.296875 L 479.929688 160.285156 L 482.816406 160.289062 L 485.484375 160.292969 L 487.507812 160.394531 L 488.296875 161.183594 C 488.40625 163.292969 488.328125 165.390625 488.296875 167.507812 C 485.875 168.714844 483.34375 168.375 480.691406 168.347656 L 474.863281 168.296875 L 474.863281 183.308594 L 480.804688 183.230469 C 482.765625 183.308594 482.765625 183.308594 485.136719 184.097656 L 485.136719 190.417969 C 482.765625 191.210938 482.765625 191.210938 474.863281 191.210938 L 475.652344 208.59375 C 479.519531 208.820312 479.519531 208.820312 483.382812 209.042969 C 484.757812 209.128906 486.132812 209.253906 487.507812 209.382812 L 488.296875 210.171875 C 488.328125 212.015625 488.328125 213.859375 488.296875 215.703125 C 485.847656 216.417969 483.652344 216.597656 481.109375 216.597656 L 478.796875 216.601562 L 476.394531 216.59375 L 473.984375 216.601562 L 471.675781 216.597656 L 469.566406 216.597656 C 467.753906 216.492188 467.753906 216.492188 465.382812 215.703125 C 464.261719 213.464844 464.496094 211.589844 464.503906 209.085938 L 464.503906 207.519531 C 464.503906 205.808594 464.507812 204.097656 464.515625 202.386719 L 464.519531 198.835938 C 464.523438 195.714844 464.527344 192.59375 464.539062 189.476562 C 464.546875 186.292969 464.550781 183.109375 464.554688 179.925781 C 464.5625 173.679688 464.574219 167.433594 464.59375 161.183594 C 466.769531 160.097656 468.535156 160.292969 470.964844 160.289062 M 204.640625 160.394531 C 206.28125 160.324219 207.917969 160.308594 209.558594 160.316406 L 212.574219 160.324219 L 215.753906 160.34375 C 216.816406 160.347656 217.878906 160.351562 218.941406 160.355469 C 221.546875 160.367188 224.15625 160.378906 226.765625 160.394531 L 227.554688 161.976562 C 227.257812 164.789062 227.257812 164.789062 226.765625 167.507812 L 225.976562 168.296875 C 223.972656 168.355469 222 168.367188 220 168.347656 L 214.125 168.296875 L 214.125 183.308594 L 220.066406 183.230469 C 222.023438 183.308594 222.023438 183.308594 224.394531 184.097656 L 224.394531 190.417969 C 221.320312 191.445312 218.949219 191.3125 215.703125 191.210938 L 214.125 190.417969 L 214.125 209.382812 L 226.765625 209.382812 L 227.554688 215.703125 C 225.121094 216.515625 223.4375 216.597656 220.890625 216.597656 L 218.351562 216.601562 L 215.703125 216.59375 L 213.054688 216.601562 L 210.519531 216.597656 L 208.195312 216.597656 C 206.222656 216.492188 206.222656 216.492188 203.851562 215.703125 C 203.832031 208.609375 203.820312 201.515625 203.8125 194.417969 C 203.808594 191.125 203.800781 187.832031 203.792969 184.539062 C 203.785156 181.359375 203.777344 178.183594 203.777344 175.007812 C 203.773438 173.792969 203.773438 172.578125 203.769531 171.367188 C 203.761719 169.667969 203.761719 167.972656 203.761719 166.28125 L 203.757812 163.351562 L 203.851562 161.183594 Z M 355.554688 160.394531 C 357.058594 160.316406 358.566406 160.292969 360.070312 160.289062 L 362.851562 160.285156 L 365.777344 160.296875 L 368.695312 160.285156 L 371.476562 160.289062 L 374.046875 160.292969 C 376.097656 160.394531 376.097656 160.394531 377.679688 161.183594 C 377.777344 166.519531 377.777344 166.519531 376.890625 168.296875 L 365.035156 168.296875 L 364.246094 183.308594 L 370.1875 183.230469 C 372.148438 183.308594 372.148438 183.308594 374.519531 184.097656 L 374.519531 190.417969 C 371.289062 190.851562 368.296875 191.210938 365.035156 191.210938 L 365.035156 208.59375 L 377.679688 209.382812 L 377.679688 215.703125 C 375.6875 216.699219 374.304688 216.597656 372.082031 216.597656 L 369.65625 216.601562 L 367.109375 216.59375 L 364.585938 216.601562 L 362.15625 216.597656 L 359.929688 216.597656 C 358.066406 216.5 356.519531 216.328125 354.765625 215.703125 C 353.75 213.667969 353.875 212.214844 353.871094 209.9375 L 353.867188 207.28125 L 353.871094 204.394531 L 353.867188 201.429688 C 353.867188 199.351562 353.871094 197.273438 353.871094 195.195312 C 353.875 193.078125 353.875 190.957031 353.871094 188.839844 C 353.867188 185.777344 353.867188 182.714844 353.871094 179.65625 L 353.867188 176.808594 C 353.894531 166.253906 353.894531 166.253906 354.765625 161.183594 Z M 535.703125 69.53125 C 538.839844 69.511719 541.976562 69.496094 545.113281 69.488281 C 546.179688 69.484375 547.246094 69.476562 548.316406 69.472656 C 549.847656 69.460938 551.378906 69.457031 552.910156 69.453125 L 555.707031 69.441406 L 557.828125 69.53125 L 558.617188 70.320312 C 558.730469 72.429688 558.652344 74.527344 558.617188 76.640625 C 556.167969 77.457031 554.417969 77.539062 551.851562 77.53125 L 549.527344 77.539062 C 547.554688 77.433594 547.554688 77.433594 545.976562 76.640625 L 545.976562 93.234375 L 555.457031 93.234375 L 555.457031 100.34375 L 545.976562 101.136719 L 545.976562 118.519531 L 558.617188 118.519531 L 558.617188 125.628906 L 535.703125 125.628906 C 535.1875 121.511719 534.824219 118.074219 534.894531 114.023438 L 534.945312 111.003906 L 535.007812 107.800781 L 535.066406 104.480469 C 535.117188 101.585938 535.167969 98.695312 535.226562 95.800781 C 535.28125 92.839844 535.332031 89.878906 535.382812 86.917969 C 535.488281 81.121094 535.59375 75.324219 535.703125 69.53125 M 436.9375 69.53125 C 438.722656 69.453125 440.503906 69.429688 442.289062 69.425781 L 443.917969 69.421875 C 445.054688 69.421875 446.195312 69.425781 447.332031 69.429688 C 449.074219 69.429688 450.816406 69.429688 452.554688 69.421875 C 453.660156 69.421875 454.765625 69.421875 455.871094 69.425781 L 458.925781 69.429688 C 461.433594 69.53125 461.433594 69.53125 463.800781 70.320312 L 463.800781 77.433594 L 455.902344 78.222656 L 455.109375 125.628906 L 445.628906 125.628906 L 444.839844 124.839844 C 444.769531 123.359375 444.742188 121.878906 444.75 120.398438 L 444.75 117.523438 L 444.761719 114.390625 L 444.765625 111.207031 C 444.769531 108.40625 444.777344 105.609375 444.785156 102.808594 C 444.792969 99.953125 444.796875 97.097656 444.800781 94.246094 C 444.808594 88.640625 444.820312 83.035156 444.839844 77.433594 L 443.140625 77.460938 L 440.9375 77.480469 L 438.742188 77.507812 L 436.9375 77.433594 L 436.148438 76.640625 C 436.042969 75.210938 436.042969 75.210938 436.050781 73.480469 L 436.042969 71.753906 L 436.148438 70.320312 Z M 528.59375 160.394531 C 530.996094 160.203125 530.996094 160.203125 534.050781 160.214844 L 535.679688 160.214844 C 536.816406 160.214844 537.953125 160.222656 539.089844 160.230469 C 540.832031 160.246094 542.574219 160.25 544.316406 160.25 C 552.851562 160.277344 552.851562 160.277344 554.667969 161.183594 L 554.667969 168.296875 L 546.765625 168.296875 L 545.976562 215.703125 C 543.210938 216.625 540.976562 216.601562 538.074219 216.492188 L 536.492188 215.703125 L 535.703125 169.085938 L 527.800781 168.296875 C 527.011719 166.714844 527.011719 166.714844 526.863281 164.34375 L 527.011719 161.976562 Z M 564.9375 69.53125 C 566.386719 69.457031 567.835938 69.425781 569.285156 69.433594 L 571.679688 69.425781 L 573.628906 69.53125 L 574.417969 70.320312 C 574.492188 71.824219 574.511719 73.328125 574.511719 74.835938 L 574.511719 77.757812 L 574.496094 80.941406 L 574.492188 84.179688 C 574.488281 87.027344 574.484375 89.871094 574.472656 92.71875 C 574.46875 95.621094 574.460938 98.523438 574.457031 101.425781 C 574.449219 107.121094 574.4375 112.820312 574.417969 118.519531 L 587.851562 118.519531 L 587.851562 125.628906 L 564.148438 125.628906 C 564.128906 118.429688 564.117188 111.234375 564.105469 104.035156 C 564.101562 100.695312 564.097656 97.351562 564.089844 94.011719 C 564.082031 90.789062 564.074219 87.566406 564.074219 84.34375 C 564.070312 83.113281 564.070312 81.878906 564.066406 80.648438 C 564.058594 78.929688 564.058594 77.207031 564.058594 75.488281 L 564.054688 72.515625 L 564.148438 70.320312 Z M 564.9375 69.53125 " fill-opacity="1" fill-rule="nonzero"/><path fill="#26bde2" d="M 414.023438 76.640625 C 416.839844 76.246094 416.839844 76.246094 419.554688 76.640625 C 421.035156 77.628906 421.035156 77.628906 421.925781 79.011719 C 422.925781 82.328125 422.84375 85.621094 422.847656 89.054688 L 422.855469 91.082031 C 422.859375 92.492188 422.863281 93.902344 422.863281 95.316406 C 422.863281 97.46875 422.878906 99.621094 422.894531 101.769531 C 422.894531 103.144531 422.898438 104.519531 422.898438 105.894531 L 422.914062 107.832031 C 422.902344 111.414062 422.65625 114.414062 421.136719 117.726562 C 418.914062 118.914062 418.914062 118.914062 416.394531 119.308594 C 414.222656 118.863281 414.222656 118.863281 412.445312 117.726562 C 410.402344 114.085938 410.609375 110.328125 410.597656 106.273438 L 410.582031 104.085938 C 410.574219 102.5625 410.570312 101.039062 410.570312 99.519531 C 410.566406 97.191406 410.539062 94.867188 410.507812 92.542969 C 410.503906 91.0625 410.5 89.582031 410.5 88.097656 L 410.464844 86 C 410.480469 84.144531 410.542969 82.417969 410.863281 80.59375 C 412.292969 78.171875 412.292969 78.171875 414.023438 76.640625 M 574.417969 167.109375 C 576.789062 167.507812 576.789062 167.507812 578.492188 168.625 C 579.949219 170.667969 579.949219 170.667969 580.25 172.269531 C 580.382812 174.335938 580.410156 176.375 580.398438 178.441406 L 580.414062 180.738281 C 580.417969 182.339844 580.417969 183.941406 580.40625 185.542969 C 580.394531 187.988281 580.421875 190.433594 580.453125 192.882812 C 580.453125 194.4375 580.449219 195.996094 580.449219 197.554688 L 580.480469 199.765625 C 580.449219 201.734375 580.367188 203.511719 579.949219 205.433594 C 578.097656 207.898438 578.097656 207.898438 576 209.382812 C 573.53125 209.433594 573.53125 209.433594 571.257812 208.59375 C 569.953125 207.449219 569.953125 207.449219 568.890625 205.433594 C 568.523438 202.832031 568.539062 200.253906 568.546875 197.628906 L 568.535156 195.328125 C 568.527344 193.722656 568.53125 192.117188 568.535156 190.515625 C 568.542969 188.058594 568.519531 185.605469 568.496094 183.148438 C 568.492188 181.589844 568.496094 180.03125 568.496094 178.46875 L 568.46875 176.246094 C 568.492188 174.332031 568.550781 172.546875 568.890625 170.667969 C 570.675781 168.160156 571.382812 167.617188 574.417969 167.113281 M 376.890625 76.640625 C 379.503906 76.496094 381.738281 76.421875 384.246094 77.234375 C 385.582031 78.222656 385.582031 78.222656 386.441406 79.644531 C 387.640625 82.546875 387.4375 85.402344 387.160156 88.492188 C 386.46875 90.863281 386.46875 90.863281 385.582031 92.445312 C 383.585938 93.441406 382.171875 93.3125 379.949219 93.285156 L 377.769531 93.261719 L 376.097656 93.234375 C 376.078125 90.617188 376.058594 88 376.050781 85.382812 L 376.027344 83.117188 L 376.019531 80.964844 L 376.007812 78.972656 L 376.097656 77.433594 Z M 376.890625 76.640625 " fill-opacity="1" fill-rule="nonzero"/><path fill="#fefefe" d="M 219.65625 52.148438 C 220.988281 52.09375 222.320312 52.078125 223.65625 52.097656 L 225.855469 52.121094 L 227.554688 52.148438 C 227.089844 55.679688 225.691406 58.453125 223.902344 61.480469 L 223.140625 62.910156 C 222.339844 64.261719 222.339844 64.261719 220.445312 66.371094 C 217.464844 66.675781 217.464844 66.675781 214.914062 66.371094 C 215.730469 61.582031 216.722656 57.3125 218.863281 52.9375 Z M 489.875 52.148438 C 490.355469 53.558594 490.355469 53.558594 490.667969 55.308594 C 489.722656 57.289062 488.652344 59.199219 487.457031 61.035156 L 486.539062 62.59375 C 485.601562 64.0625 485.601562 64.0625 483.554688 66.371094 C 480.941406 66.703125 480.941406 66.703125 478.816406 66.371094 C 479.238281 61.699219 480.007812 57.238281 481.976562 52.9375 C 484.515625 51.667969 487.058594 52.101562 489.875 52.148438 " fill-opacity="1" fill-rule="nonzero"/><path fill="#26bde2" d="M 395.851562 176.199219 L 397.433594 176.199219 C 397.964844 178.730469 398.492188 181.265625 399.011719 183.800781 L 399.46875 185.964844 C 400.214844 189.617188 400.792969 192.992188 400.59375 196.742188 L 393.480469 196.742188 C 393.910156 189.851562 394.699219 183.003906 395.851562 176.199219 M 295.507812 174.617188 L 297.085938 174.617188 L 297.203125 175.984375 C 297.652344 180.839844 298.335938 185.625 299.140625 190.4375 C 299.425781 192.574219 299.515625 194.585938 299.457031 196.742188 L 292.34375 196.742188 C 292.757812 189.21875 294.019531 181.984375 295.507812 174.617188 M 216.492188 84.542969 L 218.074219 85.332031 C 218.542969 86.96875 218.542969 86.96875 218.917969 89.101562 L 219.335938 91.425781 L 219.753906 93.875 C 219.898438 94.675781 220.039062 95.472656 220.1875 96.296875 C 220.761719 99.5625 221.234375 102.550781 221.234375 105.875 L 214.125 105.875 C 214.628906 98.71875 215.496094 91.648438 216.492188 84.542969 M 327.109375 84.542969 L 328.691406 84.542969 C 329.222656 87.503906 329.75 90.46875 330.273438 93.433594 L 330.726562 95.980469 L 331.160156 98.433594 L 331.5625 100.6875 C 331.851562 102.714844 331.851562 102.714844 331.851562 105.875 L 324.742188 105.875 C 325.316406 98.734375 326.191406 91.644531 327.109375 84.542969 M 480.394531 86.125 L 481.976562 86.914062 C 482.480469 89.1875 482.910156 91.476562 483.257812 93.777344 L 483.578125 95.703125 C 484.128906 99.128906 484.46875 102.394531 484.34375 105.875 L 477.234375 105.875 C 477.460938 103.769531 477.691406 101.660156 477.925781 99.554688 L 478.113281 97.773438 C 478.566406 93.777344 479.34375 90.007812 480.394531 86.125 " fill-opacity="1" fill-rule="nonzero"/></svg>