<svg xmlns="http://www.w3.org/2000/svg" xmlns:xlink="http://www.w3.org/1999/xlink" width="1024" zoomAndPan="magnify" viewBox="0 0 768 767.999994" height="1024" preserveAspectRatio="xMidYMid meet" version="1.0"><rect x="-76.8" width="921.6" fill="#ffffff" y="-76.799999" height="921.599993" fill-opacity="1"/><rect x="-76.8" width="921.6" fill="#ffffff" y="-76.799999" height="921.599993" fill-opacity="1"/><path fill="#fdc30b" d="M 0 0.00390625 L 771 0.00390625 L 771 767.996094 L 0 767.996094 Z M 0 0.00390625 " fill-opacity="1" fill-rule="nonzero"/><path fill="#fefefe" d="M 433.824219 384.839844 C 452.421875 394.164062 468.246094 407.691406 479.90625 424.917969 C 489.554688 440.230469 496.457031 457.480469 497.355469 475.75 C 497.792969 502.957031 497.792969 502.957031 494.070312 515.410156 L 493.558594 517.132812 C 489.65625 529.882812 484.066406 541.777344 475.972656 552.390625 L 474.339844 554.558594 C 463.039062 568.9375 449.46875 580.417969 432.703125 587.800781 L 431.246094 588.457031 C 413.105469 596.539062 393.976562 599.222656 374.246094 597.476562 C 356.722656 595.566406 338.371094 589.597656 323.9375 579.292969 C 306.042969 566.101562 292.375 550.601562 283.421875 530.164062 C 275.425781 511.269531 272.679688 491.160156 275.175781 470.773438 C 277.125 457.199219 281.304688 444.753906 287.945312 432.785156 L 289.292969 430.269531 C 298.367188 413.933594 311.652344 401.09375 327.28125 391.082031 L 329.808594 389.445312 C 360.441406 370.589844 401.605469 369.394531 433.824219 384.839844 " fill-opacity="1" fill-rule="nonzero"/><path fill="#fefefe" d="M 0 0.00390625 L 771 0.00390625 L 771 767.996094 L 0 767.996094 Z M 15.734375 10.234375 C 13.96875 11.699219 13.96875 11.699219 12.6875 13.332031 L 11.363281 14.878906 C 9.578125 17.46875 8.714844 19.710938 8.457031 22.863281 L 8.453125 25.605469 L 8.445312 27.148438 C 8.441406 28.859375 8.445312 30.570312 8.453125 32.28125 L 8.445312 36.007812 C 8.4375 39.441406 8.4375 42.871094 8.441406 46.300781 C 8.445312 50.027344 8.4375 53.757812 8.433594 57.484375 C 8.425781 64.019531 8.421875 70.554688 8.425781 77.09375 C 8.425781 86.8125 8.417969 96.535156 8.410156 106.253906 C 8.394531 124.625 8.390625 142.996094 8.390625 161.367188 C 8.386719 179.628906 8.382812 197.890625 8.378906 216.152344 L 8.378906 219.222656 C 8.351562 257.042969 8.34375 294.851562 8.363281 332.652344 C 8.363281 367.296875 8.351562 401.9375 8.332031 436.578125 L 8.3125 462.761719 L 8.3125 464.390625 C 8.304688 480.953125 8.296875 497.515625 8.296875 514.074219 L 8.296875 515.648438 C 8.289062 531.660156 8.289062 547.664062 8.292969 563.664062 L 8.292969 566.707031 C 8.292969 582.894531 8.285156 599.082031 8.269531 615.265625 C 8.257812 631.527344 8.253906 647.789062 8.265625 664.046875 C 8.273438 673.714844 8.269531 683.382812 8.253906 693.046875 C 8.246094 699.5 8.246094 705.953125 8.257812 712.40625 C 8.265625 716.082031 8.265625 719.761719 8.253906 723.441406 C 8.242188 726.789062 8.242188 730.136719 8.257812 733.484375 C 8.261719 734.6875 8.257812 735.890625 8.25 737.09375 C 8.210938 742.875 8.253906 748.03125 10.953125 753.285156 C 13.011719 756.53125 15.449219 758.515625 18.785156 760.324219 C 23.140625 762.550781 28.007812 762.585938 32.8125 762.585938 L 34.339844 762.589844 C 36.027344 762.59375 37.714844 762.589844 39.398438 762.589844 L 43.082031 762.59375 C 46.464844 762.597656 49.851562 762.597656 53.234375 762.59375 C 56.910156 762.59375 60.589844 762.59375 64.265625 762.597656 C 70.714844 762.601562 77.164062 762.605469 83.613281 762.601562 C 93.203125 762.601562 102.792969 762.605469 112.382812 762.609375 C 130.503906 762.617188 148.628906 762.621094 166.75 762.621094 C 185.777344 762.621094 204.804688 762.621094 223.828125 762.628906 C 261.117188 762.625 298.417969 762.628906 335.734375 762.632812 C 378.523438 762.644531 421.308594 762.652344 464.089844 762.660156 L 465.695312 762.660156 C 498.339844 762.675781 530.984375 762.679688 563.640625 762.667969 L 566.644531 762.667969 C 582.609375 762.667969 598.578125 762.671875 614.546875 762.679688 C 630.589844 762.6875 646.628906 762.6875 662.667969 762.683594 C 672.203125 762.679688 681.738281 762.679688 691.273438 762.6875 C 697.640625 762.691406 704.003906 762.691406 710.367188 762.6875 C 714 762.683594 717.628906 762.683594 721.257812 762.6875 C 724.558594 762.695312 727.859375 762.695312 731.164062 762.6875 C 732.347656 762.683594 733.535156 762.6875 734.722656 762.691406 C 744.617188 762.742188 744.617188 762.742188 754.078125 760.066406 C 757.464844 757.886719 759.628906 755.898438 761.558594 752.257812 C 763.050781 748.507812 763.457031 744.960938 763.617188 740.964844 L 763.707031 739.078125 C 763.980469 732.890625 764.027344 726.707031 764.011719 720.515625 C 764.011719 719.285156 764.011719 718.054688 764.015625 716.824219 C 764.015625 713.472656 764.011719 710.121094 764.007812 706.773438 C 764.003906 703.117188 764.003906 699.460938 764.003906 695.804688 C 764.003906 688.566406 764 681.328125 763.992188 674.089844 C 763.984375 665.414062 763.980469 656.742188 763.980469 648.066406 C 763.972656 627.113281 763.957031 606.160156 763.941406 585.207031 C 763.933594 575.296875 763.925781 565.386719 763.921875 555.472656 C 763.898438 522.074219 763.871094 488.671875 763.839844 455.273438 L 763.832031 447.296875 L 763.832031 445.699219 L 763.8125 426.457031 C 763.78125 392.015625 763.761719 357.578125 763.75 323.140625 C 763.738281 282.191406 763.710938 241.242188 763.660156 200.292969 L 763.65625 197.3125 C 763.644531 181.464844 763.636719 165.621094 763.632812 149.777344 C 763.632812 133.867188 763.621094 117.960938 763.59375 102.050781 C 763.578125 92.59375 763.574219 83.136719 763.582031 73.679688 C 763.585938 67.371094 763.578125 61.058594 763.558594 54.746094 C 763.550781 51.148438 763.546875 47.546875 763.554688 43.949219 C 763.5625 40.675781 763.558594 37.402344 763.539062 34.128906 C 763.535156 32.953125 763.539062 31.773438 763.546875 30.597656 C 763.679688 23.433594 763.679688 23.433594 761.632812 16.683594 C 760.175781 14.457031 758.925781 12.804688 756.886719 11.117188 L 755.34375 9.796875 C 752.75 8.011719 750.507812 7.148438 747.355469 6.886719 L 744.609375 6.886719 L 743.066406 6.878906 C 741.351562 6.871094 739.640625 6.878906 737.925781 6.882812 L 734.195312 6.875 C 730.761719 6.867188 727.324219 6.871094 723.890625 6.875 C 720.160156 6.875 716.429688 6.871094 712.699219 6.863281 C 706.152344 6.855469 699.609375 6.855469 693.066406 6.855469 C 683.335938 6.859375 673.601562 6.851562 663.871094 6.84375 C 645.480469 6.828125 627.09375 6.824219 608.703125 6.824219 C 590.425781 6.824219 572.144531 6.816406 553.859375 6.808594 L 550.785156 6.808594 C 512.941406 6.796875 475.09375 6.789062 437.242188 6.792969 C 402.5625 6.792969 367.886719 6.785156 333.207031 6.761719 L 306.996094 6.746094 L 305.363281 6.746094 C 288.785156 6.734375 272.207031 6.730469 255.628906 6.726562 L 254.050781 6.726562 C 238.027344 6.722656 222.007812 6.722656 205.992188 6.726562 L 202.945312 6.726562 C 186.742188 6.726562 170.539062 6.714844 154.332031 6.703125 C 138.058594 6.6875 121.78125 6.6875 105.503906 6.699219 C 95.828125 6.703125 86.148438 6.699219 76.472656 6.683594 C 70.015625 6.675781 63.554688 6.675781 57.097656 6.6875 C 53.414062 6.695312 49.730469 6.695312 46.046875 6.683594 C 42.695312 6.671875 39.347656 6.675781 35.996094 6.691406 C 34.792969 6.691406 33.585938 6.691406 32.382812 6.683594 C 26.125 6.640625 21.101562 6.699219 15.734375 10.234375 " fill-opacity="1" fill-rule="nonzero"/><path fill="#fdc30b" d="M 368.980469 430.425781 C 370.164062 444.972656 370.164062 444.972656 368.980469 451.671875 C 367.765625 453.972656 366.84375 454.566406 364.601562 456.097656 C 362.917969 456.992188 361.230469 457.878906 359.539062 458.753906 C 355.042969 463.105469 352.234375 468.664062 350.097656 474.492188 C 348.378906 480.972656 348.316406 489.167969 349.996094 495.691406 C 352.222656 502.34375 355.296875 508.242188 360.457031 513.070312 C 366.53125 518.015625 373.050781 521.097656 380.78125 522.492188 C 389.429688 523.269531 396.632812 521.636719 404.480469 518.0625 C 409.238281 515.550781 412.886719 512.589844 416.183594 508.328125 C 420.613281 501.210938 423.292969 493.652344 423.609375 485.261719 C 423.421875 478.730469 422.019531 472.546875 418.929688 466.761719 C 415.835938 462.0625 411.988281 458.234375 407.527344 454.820312 L 405.476562 453.871094 L 403.59375 452.457031 C 403.148438 450.167969 403.148438 450.167969 403.210938 447.410156 L 403.25 444.417969 L 403.347656 441.296875 C 403.367188 440.242188 403.386719 439.191406 403.402344 438.144531 C 403.449219 435.570312 403.511719 432.996094 403.59375 430.425781 C 410.867188 431.726562 417.523438 436.101562 423.171875 440.761719 C 429.046875 445.945312 433.515625 451.152344 437.425781 457.964844 L 438.351562 459.472656 C 442.746094 467.207031 444.039062 476.355469 444.113281 485.113281 C 443.992188 495.777344 441.589844 505.058594 436.574219 514.476562 C 434.300781 518.253906 431.722656 521.582031 428.769531 524.851562 L 427.277344 526.539062 C 420.308594 533.980469 411.5625 538.183594 402.019531 541.375 C 392.304688 544.152344 381.132812 544.113281 371.339844 541.71875 C 362.128906 538.824219 354.125 534.484375 346.949219 528 L 345.289062 526.53125 C 338.007812 519.714844 333.546875 511.632812 330.578125 502.210938 C 327.363281 491.207031 327.488281 480.308594 330.132812 469.226562 C 332.910156 459.761719 337.796875 451.71875 344.589844 444.589844 C 350.632812 438.917969 360.21875 430.425781 368.980469 430.425781 " fill-opacity="1" fill-rule="nonzero"/><path fill="#fefefe" d="M 62.9375 71.609375 C 64.972656 71.535156 66.988281 71.511719 69.023438 71.519531 L 70.953125 71.519531 C 73.070312 71.519531 75.183594 71.527344 77.300781 71.53125 L 81.6875 71.535156 C 85.546875 71.539062 89.40625 71.546875 93.261719 71.554688 C 97.195312 71.5625 101.128906 71.566406 105.0625 71.570312 C 112.789062 71.578125 120.515625 71.59375 128.238281 71.609375 C 129.058594 74.617188 129.183594 77.382812 129.222656 80.511719 L 129.28125 83.550781 C 128.800781 95.792969 124.507812 108.355469 121.636719 120.183594 L 120.152344 126.324219 C 119.117188 130.609375 118.078125 134.890625 117.039062 139.171875 C 115.855469 144.058594 114.671875 148.945312 113.492188 153.832031 C 111.855469 160.59375 110.222656 167.359375 108.585938 174.121094 C 107.242188 179.664062 105.894531 185.207031 104.539062 190.75 C 103.929688 193.25 103.324219 195.753906 102.722656 198.257812 C 102.347656 199.816406 101.96875 201.378906 101.585938 202.9375 C 101.105469 204.902344 100.632812 206.875 100.160156 208.84375 L 99.507812 211.5 L 98.941406 213.851562 L 98.34375 215.609375 C 96.25 216.65625 94.648438 216.496094 92.304688 216.5 L 89.589844 216.503906 L 86.738281 216.492188 L 83.921875 216.503906 L 81.195312 216.5 L 78.703125 216.496094 C 76.273438 216.394531 73.976562 216.058594 71.59375 215.609375 C 72.148438 211.085938 73.125 206.746094 74.222656 202.328125 L 74.789062 200.019531 C 75.410156 197.496094 76.03125 194.972656 76.65625 192.449219 L 77.96875 187.09375 C 79.128906 182.375 80.292969 177.65625 81.457031 172.9375 C 82.835938 167.335938 84.214844 161.738281 85.589844 156.136719 C 86.714844 151.574219 87.835938 147.011719 88.960938 142.445312 C 91.066406 133.914062 93.15625 125.378906 95.230469 116.839844 L 95.792969 114.519531 C 96.65625 110.957031 97.519531 107.394531 98.378906 103.832031 L 99.28125 100.113281 L 99.6875 98.417969 C 100.613281 94.609375 100.613281 94.609375 101.488281 92.855469 L 100.066406 92.867188 C 95.191406 92.898438 90.316406 92.925781 85.441406 92.941406 C 83.621094 92.949219 81.800781 92.960938 79.980469 92.972656 C 77.367188 92.992188 74.753906 93 72.140625 93.007812 L 69.660156 93.035156 L 67.371094 93.035156 L 65.347656 93.042969 L 63.726562 92.855469 L 62.152344 91.28125 C 61.960938 89.382812 61.960938 89.382812 61.972656 87.023438 L 61.976562 84.46875 L 62.003906 81.789062 L 62.003906 79.101562 C 62.03125 74.28125 62.03125 74.28125 62.152344 72.394531 Z M 475.1875 70.824219 C 477.847656 70.660156 480.496094 70.785156 483.128906 71.199219 L 485.414062 72.394531 C 486.3125 74.757812 486.824219 76.671875 487.253906 79.125 L 487.65625 81.152344 C 488.074219 83.296875 488.464844 85.445312 488.855469 87.59375 C 489.136719 89.03125 489.417969 90.46875 489.703125 91.90625 C 491.898438 103.238281 491.898438 103.238281 491.710938 107.019531 L 493.28125 107.019531 L 493.507812 103.917969 C 494.0625 98.398438 495.234375 93.007812 496.394531 87.589844 C 496.777344 85.808594 497.148438 84.023438 497.519531 82.238281 C 497.761719 81.097656 498.003906 79.957031 498.246094 78.816406 L 498.578125 77.207031 C 499.136719 74.652344 499.675781 73.035156 501.148438 70.824219 C 504.457031 70.574219 507.367188 70.921875 510.589844 71.609375 C 511.152344 82.9375 511.570312 94.261719 511.816406 105.605469 C 511.871094 108.054688 511.929688 110.507812 511.992188 112.957031 C 512.027344 114.523438 512.0625 116.089844 512.097656 117.65625 L 512.152344 119.863281 L 512.195312 121.890625 L 512.234375 123.671875 C 512.164062 125.117188 512.164062 125.117188 511.378906 126.691406 L 504.296875 126.691406 C 503.554688 118.90625 503.421875 111.148438 503.410156 103.332031 L 503.402344 100.371094 L 503.40625 97.566406 L 503.410156 95.046875 C 503.496094 93.132812 503.746094 91.535156 504.296875 89.707031 L 502.722656 89.707031 L 502.503906 92.785156 C 501.9375 98.425781 500.734375 103.929688 499.566406 109.472656 C 499.179688 111.3125 498.796875 113.152344 498.417969 114.996094 L 497.683594 118.523438 L 497.335938 120.1875 C 496.871094 122.40625 496.359375 124.535156 495.644531 126.691406 L 489.347656 126.691406 C 488.585938 123.335938 487.832031 119.980469 487.082031 116.625 C 486.828125 115.488281 486.574219 114.351562 486.3125 113.21875 C 484.484375 105.199219 483.136719 97.101562 482.269531 88.921875 L 480.695312 88.921875 L 481.480469 91.28125 C 481.554688 92.539062 481.582031 93.800781 481.585938 95.0625 L 481.589844 97.367188 L 481.578125 99.839844 L 481.574219 102.363281 C 481.53125 110.488281 481.167969 118.582031 480.695312 126.691406 L 473.613281 126.691406 C 472.566406 124.59375 472.761719 123.050781 472.796875 120.703125 L 472.839844 117.902344 L 472.894531 114.855469 L 472.945312 111.734375 C 472.980469 109.546875 473.019531 107.359375 473.0625 105.171875 C 473.113281 102.382812 473.160156 99.597656 473.203125 96.808594 C 473.242188 94.136719 473.289062 91.464844 473.335938 88.792969 L 473.382812 85.777344 C 473.476562 81 473.605469 76.324219 474.402344 71.609375 Z M 303.679688 70.824219 C 307.765625 71.1875 311.128906 71.695312 314.695312 73.773438 C 316.933594 76.292969 318.246094 78.585938 319 81.894531 C 319.5625 85.601562 319.457031 88.984375 318.550781 92.625 C 317.75 94.660156 316.777344 95.578125 315.230469 97.097656 C 313.871094 98.710938 313.871094 98.710938 313.121094 100.722656 C 313.441406 104.644531 314.6875 108.183594 315.972656 111.886719 C 316.613281 113.847656 317.242188 115.8125 317.871094 117.773438 L 318.761719 120.386719 C 319.414062 122.757812 319.414062 122.757812 319.414062 126.691406 L 309.972656 126.691406 C 307.433594 118.605469 305.132812 110.472656 302.894531 102.296875 L 298.960938 102.296875 L 298.171875 126.691406 L 288.730469 126.691406 C 287.761719 108.332031 287.863281 89.988281 287.945312 71.609375 C 292.136719 69.511719 299.019531 70.628906 303.679688 70.824219 M 203.550781 475.757812 L 205.117188 475.746094 C 206.8125 475.738281 208.507812 475.742188 210.207031 475.75 C 211.390625 475.75 212.574219 475.746094 213.757812 475.742188 C 216.238281 475.742188 218.714844 475.746094 221.195312 475.757812 C 224.367188 475.769531 227.539062 475.761719 230.710938 475.75 C 233.15625 475.738281 235.597656 475.742188 238.042969 475.75 C 239.214844 475.75 240.382812 475.75 241.550781 475.742188 C 243.1875 475.738281 244.824219 475.746094 246.460938 475.757812 L 249.277344 475.765625 C 252.027344 476.097656 253.484375 476.777344 255.6875 478.425781 C 257.164062 480.539062 257.164062 480.539062 258.050781 483.148438 C 258.199219 485.398438 257.980469 487.300781 257.261719 489.441406 C 255.542969 491.703125 255.542969 491.703125 253.328125 493.375 C 250.074219 494.675781 247.332031 495.152344 243.839844 495.167969 L 241.039062 495.1875 L 238.042969 495.1875 L 234.933594 495.195312 C 232.765625 495.203125 230.597656 495.203125 228.429688 495.199219 C 225.667969 495.195312 222.902344 495.207031 220.140625 495.226562 C 217.488281 495.238281 214.832031 495.238281 212.179688 495.234375 L 209.191406 495.257812 C 203.957031 495.230469 199.8125 494.988281 195.109375 492.589844 C 193.5 490.78125 192.90625 489.40625 191.964844 487.082031 C 191.621094 484.621094 191.621094 484.621094 191.964844 482.359375 C 193.019531 479.96875 193.945312 478.703125 196.046875 477.152344 C 198.722656 475.835938 200.578125 475.765625 203.550781 475.757812 M 388.648438 291.148438 C 391.15625 292.378906 391.15625 292.378906 393.367188 294.296875 C 395.40625 297.777344 395.894531 300.550781 396.019531 304.578125 C 396.03125 306.46875 396.027344 308.359375 396.011719 310.25 L 396.015625 313.296875 C 396.015625 315.417969 396.007812 317.542969 395.992188 319.664062 C 395.976562 322.367188 395.972656 325.070312 395.980469 327.773438 C 395.984375 330.375 395.972656 332.976562 395.964844 335.578125 L 395.964844 338.488281 C 395.921875 343.667969 395.617188 348.328125 394.152344 353.3125 C 392.433594 355.277344 392.433594 355.277344 390.21875 356.460938 C 387.515625 357.199219 387.515625 357.199219 384.714844 357.246094 C 382.3125 356.324219 380.542969 355.339844 378.566406 353.707031 C 377.632812 352.523438 377.632812 352.523438 376.847656 350.164062 C 376.75 348.492188 376.703125 346.820312 376.679688 345.144531 L 376.636719 342 C 376.625 340.863281 376.613281 339.730469 376.601562 338.59375 L 376.585938 336.859375 C 376.5625 333.828125 376.542969 330.796875 376.527344 327.761719 C 376.511719 325.261719 376.484375 322.757812 376.445312 320.253906 C 376.398438 317.226562 376.375 314.199219 376.367188 311.167969 C 376.359375 310.019531 376.347656 308.867188 376.324219 307.71875 C 376.152344 298.785156 376.152344 298.785156 377.847656 295.503906 C 379.015625 294.082031 380.054688 292.980469 381.566406 291.933594 C 384.203125 291.054688 385.878906 290.875 388.648438 291.148438 M 387.808594 613.382812 C 390.367188 613.988281 391.960938 615.417969 393.878906 617.148438 C 395.121094 618.71875 395.359375 619.675781 395.726562 621.636719 C 395.808594 623.1875 395.84375 624.738281 395.855469 626.289062 L 395.878906 629.128906 L 395.886719 632.195312 L 395.894531 633.765625 C 395.90625 636.507812 395.914062 639.25 395.917969 641.992188 C 395.921875 644.808594 395.941406 647.628906 395.960938 650.441406 C 395.976562 652.621094 395.980469 654.800781 395.984375 656.980469 C 395.984375 658.519531 396 660.058594 396.015625 661.597656 C 396 666.996094 395.730469 671.789062 393.367188 676.71875 L 392.089844 678.34375 C 389.636719 679.308594 387.535156 679.453125 384.914062 679.355469 C 383.140625 679.078125 383.140625 679.078125 380.433594 677.75 C 378.417969 675.933594 378.417969 675.933594 377.519531 674.175781 C 376.734375 671.632812 376.640625 669.507812 376.628906 666.847656 L 376.609375 663.734375 L 376.609375 660.390625 L 376.601562 656.945312 C 376.59375 654.539062 376.59375 652.132812 376.597656 649.730469 C 376.601562 646.652344 376.589844 643.574219 376.570312 640.496094 C 376.558594 638.125 376.558594 635.753906 376.5625 633.382812 C 376.5625 632.246094 376.558594 631.113281 376.550781 629.976562 C 376.542969 628.390625 376.542969 626.804688 376.554688 625.214844 L 376.550781 622.480469 C 376.882812 619.777344 377.605469 618.316406 379.207031 616.128906 C 381.867188 613.925781 384.332031 613.257812 387.808594 613.386719 M 526.011719 475.824219 L 527.570312 475.804688 C 529.269531 475.785156 530.964844 475.777344 532.664062 475.773438 L 536.214844 475.75 C 538.695312 475.738281 541.171875 475.730469 543.652344 475.730469 C 546.824219 475.726562 549.996094 475.695312 553.164062 475.660156 C 555.609375 475.636719 558.054688 475.632812 560.5 475.628906 C 561.667969 475.628906 562.835938 475.617188 564.007812 475.601562 C 573.105469 475.480469 573.105469 475.480469 576.082031 476.914062 C 577.75 478.257812 578.867188 479.65625 579.824219 481.574219 C 580.160156 483.980469 580.175781 486.246094 579.824219 488.65625 C 578.78125 490.875 577.824219 491.6875 575.890625 493.375 C 570.707031 495.453125 565.429688 495.191406 559.910156 495.1875 L 556.859375 495.195312 C 554.734375 495.203125 552.605469 495.203125 550.480469 495.199219 C 547.773438 495.195312 545.0625 495.207031 542.351562 495.226562 C 539.75 495.238281 537.144531 495.238281 534.539062 495.234375 L 531.613281 495.257812 C 526.410156 495.230469 522.363281 494.921875 517.671875 492.589844 C 516.375 491.472656 516.375 491.472656 515.3125 490.226562 C 514.335938 487.304688 514.09375 484.609375 514.523438 481.574219 C 515.832031 479.425781 516.925781 478.117188 519.03125 476.761719 C 521.417969 475.832031 523.449219 475.847656 526.011719 475.824219 M 254.117188 71.609375 C 254.230469 89.984375 253.9375 108.324219 253.328125 126.691406 L 247.035156 126.691406 C 244.171875 121.273438 241.882812 115.648438 239.617188 109.964844 C 238.964844 108.335938 238.308594 106.707031 237.648438 105.082031 C 237.234375 104.042969 236.816406 103.003906 236.402344 101.960938 L 235.261719 99.125 C 234.445312 96.789062 234.445312 96.789062 234.445312 94.429688 L 232.875 94.429688 L 233.660156 96.789062 C 233.738281 98.921875 233.769531 101.03125 233.765625 103.160156 L 233.765625 105.046875 C 233.765625 106.359375 233.765625 107.671875 233.761719 108.984375 C 233.757812 111 233.761719 113.011719 233.769531 115.023438 C 233.769531 116.300781 233.765625 117.574219 233.765625 118.851562 L 233.769531 120.679688 C 233.75 124.9375 233.75 124.9375 232.875 126.691406 L 225.007812 126.691406 L 225.007812 71.609375 L 232.085938 71.609375 C 235.210938 77.527344 237.976562 83.574219 240.640625 89.707031 L 241.609375 91.902344 L 242.503906 93.988281 L 243.3125 95.851562 C 243.886719 97.578125 243.886719 97.578125 243.886719 100.722656 L 245.460938 100.722656 L 245.460938 71.609375 C 250.773438 70.722656 250.773438 70.722656 254.117188 71.609375 M 267.835938 544.574219 C 269.699219 544.824219 269.699219 544.824219 271.421875 545.308594 C 273.550781 547.039062 274.921875 548.375 276.144531 550.816406 C 276.339844 553.425781 276.339844 553.425781 276.144531 556.328125 C 274.226562 560.226562 271.703125 561.980469 268.167969 564.351562 C 264.367188 566.742188 260.464844 568.925781 256.523438 571.082031 C 254.792969 572.039062 253.0625 572.996094 251.335938 573.953125 L 248.75 575.386719 C 244.40625 577.816406 240.109375 580.328125 235.824219 582.855469 L 234.109375 583.859375 C 233.621094 584.144531 233.132812 584.433594 232.628906 584.730469 C 230.46875 585.882812 228.730469 586.242188 226.285156 586.425781 C 223.433594 586.226562 223.433594 586.226562 221.269531 585.242188 C 218.210938 582.867188 218.210938 582.867188 217.140625 580.71875 C 216.765625 578.289062 216.621094 576.046875 217.140625 573.636719 C 218.851562 570.648438 221.070312 569.105469 223.949219 567.351562 C 225.476562 566.472656 227.007812 565.601562 228.546875 564.738281 L 231.027344 563.316406 C 233.257812 562.039062 235.496094 560.769531 237.734375 559.5 C 240.226562 558.085938 242.714844 556.652344 245.203125 555.222656 C 249.042969 553.015625 252.886719 550.8125 256.734375 548.617188 L 259.117188 547.257812 C 264.5 544.253906 264.5 544.253906 267.835938 544.574219 M 480.695312 315.542969 C 483.574219 317.148438 485.15625 318.300781 486.988281 321.050781 C 487.441406 324.15625 487.386719 326.273438 486.289062 329.21875 C 485.039062 331.796875 483.671875 334.292969 482.269531 336.789062 L 481.191406 338.714844 C 478.617188 343.320312 476.019531 347.914062 473.398438 352.492188 C 472.058594 354.859375 470.730469 357.238281 469.417969 359.621094 L 468.148438 361.894531 C 467.351562 363.316406 466.566406 364.746094 465.78125 366.175781 C 463.824219 369.664062 462.164062 372.410156 458.667969 374.558594 C 456.5625 375.285156 454.59375 375.464844 452.371094 375.34375 C 449.824219 374.210938 447.867188 372.769531 446.078125 370.625 C 445.121094 367.746094 445.035156 365.789062 445.292969 362.753906 C 446.160156 360.5 447.351562 358.480469 448.585938 356.410156 L 449.640625 354.578125 C 450.804688 352.578125 451.976562 350.582031 453.160156 348.589844 C 454.011719 347.136719 454.859375 345.683594 455.710938 344.230469 C 457.855469 340.578125 460.015625 336.933594 462.1875 333.296875 C 463.300781 331.421875 464.40625 329.546875 465.5 327.667969 L 467.371094 324.492188 L 468.195312 323.066406 C 469.734375 320.464844 471.3125 318.300781 473.613281 316.328125 C 476.25 315.449219 477.929688 315.269531 480.695312 315.542969 M 545.503906 383.832031 C 548.570312 384.21875 550.429688 384.605469 553.074219 386.3125 C 554.648438 387.933594 554.648438 387.933594 555.433594 389.507812 C 555.65625 392.394531 555.546875 394.648438 554.699219 397.425781 C 550.539062 403.351562 542.324219 406.648438 536.160156 410.164062 C 534.34375 411.203125 532.53125 412.242188 530.71875 413.285156 L 528.046875 414.8125 C 524.085938 417.105469 520.144531 419.429688 516.226562 421.792969 C 512.644531 423.929688 509.652344 425.578125 505.476562 425.949219 C 502.722656 425.703125 502.722656 425.703125 500.558594 424.722656 C 497.503906 422.34375 497.503906 422.34375 496.429688 420.195312 C 496.003906 417.734375 495.832031 415.546875 496.429688 413.113281 C 499.570312 408.148438 504.179688 405.984375 509.261719 403.277344 C 511.027344 402.316406 512.792969 401.351562 514.554688 400.386719 L 517.292969 398.894531 C 522.511719 396.003906 527.640625 392.957031 532.78125 389.925781 C 542.71875 384.082031 542.71875 384.082031 545.503906 383.832031 M 316.644531 595.097656 C 319.648438 595.242188 321.425781 595.46875 324.085938 596.996094 C 325.847656 598.972656 326.683594 600.175781 327.28125 602.753906 C 327.089844 608.183594 324.640625 612.199219 322.019531 616.867188 L 320.652344 619.347656 C 314.914062 629.683594 309.113281 640.039062 302.765625 650.015625 L 301.691406 651.714844 C 300.359375 653.324219 299.328125 653.949219 297.386719 654.6875 C 295.003906 654.957031 293.386719 655.125 291.089844 654.6875 C 289.105469 653.574219 287.980469 652.4375 286.371094 650.75 C 285.28125 647.476562 285.046875 644.730469 285.585938 641.308594 C 286.851562 638.28125 288.554688 635.574219 290.304688 632.800781 C 291.316406 631.144531 292.324219 629.484375 293.332031 627.824219 L 294.945312 625.1875 C 296.679688 622.316406 298.316406 619.394531 299.9375 616.457031 C 300.496094 615.460938 301.050781 614.460938 301.605469 613.460938 C 302.417969 612.007812 303.222656 610.546875 304.019531 609.085938 C 310.695312 596.84375 310.695312 596.84375 316.640625 595.097656 M 290.304688 316.328125 C 291.910156 316.03125 291.910156 316.03125 293.945312 315.886719 L 295.941406 315.6875 C 298.171875 316.328125 298.171875 316.328125 299.453125 317.398438 C 303.742188 322 306.65625 327.476562 309.679688 332.953125 C 310.777344 334.917969 311.875 336.882812 312.980469 338.851562 L 313.808594 340.335938 C 315.589844 343.496094 317.441406 346.617188 319.359375 349.699219 L 320.800781 352.035156 C 321.6875 353.46875 322.585938 354.890625 323.496094 356.308594 C 325.046875 358.828125 326.335938 360.980469 326.804688 363.925781 C 326.878906 367.117188 326.605469 368.824219 325.167969 371.753906 C 323.347656 373.769531 323.347656 373.769531 321.578125 374.902344 C 319.175781 375.394531 317.171875 375.371094 314.742188 375.167969 C 312.183594 374.207031 310.964844 372.699219 309.1875 370.625 C 307.636719 368.265625 306.273438 365.816406 304.910156 363.34375 L 303.695312 361.183594 C 302.832031 359.640625 301.972656 358.097656 301.113281 356.554688 C 299.691406 354.003906 298.257812 351.457031 296.820312 348.914062 L 293.894531 343.722656 L 292.515625 341.277344 C 290.441406 337.578125 288.402344 333.863281 286.449219 330.101562 L 285.488281 328.246094 C 284.796875 326.558594 284.796875 326.558594 284.699219 323.558594 C 285.585938 321.050781 285.585938 321.050781 287.550781 318.789062 L 289.519531 317.117188 Z M 452.613281 595.378906 L 454.632812 595.324219 L 456.644531 595.230469 C 458.667969 595.671875 458.667969 595.671875 460.671875 597.3125 C 462.753906 599.789062 464.40625 602.355469 465.992188 605.160156 L 466.96875 606.851562 C 468.140625 608.890625 469.304688 610.9375 470.46875 612.980469 L 474.476562 620.007812 C 475.867188 622.4375 477.25 624.871094 478.632812 627.304688 L 480.195312 630.050781 L 481.679688 632.664062 C 482.855469 634.65625 484.082031 636.617188 485.367188 638.542969 C 486.546875 640.40625 487.023438 641.46875 487.511719 643.679688 C 487.480469 645.84375 487.414062 647.839844 486.988281 649.964844 C 485.257812 652.246094 484.011719 653.421875 481.480469 654.6875 C 478.875 654.882812 478.875 654.882812 475.972656 654.6875 C 472.09375 652.773438 470.335938 650.28125 467.976562 646.757812 C 465.425781 642.6875 463.121094 638.496094 460.828125 634.277344 C 459.800781 632.394531 458.769531 630.511719 457.738281 628.632812 L 456.96875 627.230469 C 455.386719 624.363281 453.757812 621.527344 452.070312 618.722656 L 450.859375 616.695312 C 450.125 615.476562 449.378906 614.261719 448.625 613.050781 C 446.367188 609.289062 445.414062 606.378906 445.292969 601.964844 C 447.015625 598.640625 448.695312 596.007812 452.613281 595.378906 M 506.355469 544.199219 C 508.636719 544.59375 510.1875 545.429688 512.195312 546.578125 L 514.5 547.882812 L 516.882812 549.246094 C 518.414062 550.09375 519.945312 550.9375 521.480469 551.785156 C 529.523438 556.257812 537.539062 560.769531 545.453125 565.472656 L 547.414062 566.628906 C 553.492188 570.277344 553.492188 570.277344 555.433594 572.851562 C 556.023438 575.515625 555.867188 578.03125 555.433594 580.71875 C 554.027344 583.226562 552.914062 584.28125 550.46875 585.734375 C 547.570312 586.410156 545.753906 586.15625 542.847656 585.441406 C 537.042969 582.875 531.585938 579.613281 526.128906 576.390625 L 521.164062 573.46875 L 518.632812 571.976562 C 516.132812 570.511719 513.621094 569.066406 511.105469 567.632812 L 508.710938 566.257812 C 507.210938 565.390625 505.703125 564.535156 504.191406 563.683594 C 501.375 562.050781 499.191406 560.769531 497.15625 558.195312 C 496.300781 555.996094 496.011719 553.96875 496.089844 551.605469 C 496.484375 549.765625 497.117188 548.78125 498.296875 547.328125 C 500.984375 544.703125 502.574219 544.152344 506.355469 544.203125 M 229.375 384.84375 C 233.675781 386.476562 237.578125 388.949219 241.527344 391.277344 L 244.4375 392.96875 C 246.421875 394.125 248.40625 395.285156 250.386719 396.445312 C 253.203125 398.089844 256.027344 399.71875 258.859375 401.335938 L 263.949219 404.261719 L 266.335938 405.625 L 268.546875 406.90625 L 270.46875 408.011719 C 272.355469 409.277344 273.835938 410.640625 275.355469 412.328125 C 276.078125 414.410156 276.183594 416.425781 276.144531 418.621094 C 275.539062 421.042969 274.71875 422.363281 273.195312 424.328125 C 271.421875 425.703125 271.421875 425.703125 269.359375 426.492188 C 263.886719 426.492188 258.929688 423.480469 254.257812 420.839844 C 252.601562 419.878906 250.945312 418.910156 249.296875 417.933594 L 245.273438 415.582031 L 242.527344 413.96875 C 239.339844 412.101562 236.140625 410.253906 232.933594 408.425781 L 230.320312 406.933594 C 228.675781 405.988281 227.03125 405.050781 225.382812 404.121094 C 224.644531 403.691406 223.902344 403.265625 223.140625 402.828125 L 221.175781 401.707031 C 219.367188 400.429688 218.320312 399.238281 217.140625 397.378906 C 216.449219 395.164062 216.449219 395.164062 216.351562 392.65625 C 217.273438 389.792969 218.0625 387.777344 220.238281 385.671875 C 223.445312 383.921875 225.824219 383.859375 229.375 384.84375 M 519.246094 70.824219 C 526.472656 70.234375 536.082031 69.523438 542.847656 72.394531 C 544.890625 73.707031 546.269531 75.066406 547.566406 77.117188 C 549.042969 80.582031 549.453125 84.3125 549.339844 88.070312 C 548.867188 91.9375 547.703125 95.441406 545.503906 98.660156 C 542.710938 100.566406 539.878906 101.6875 536.554688 102.296875 C 533.929688 102.375 531.3125 102.355469 528.6875 102.296875 L 528.699219 104.453125 C 528.710938 107.082031 528.722656 109.710938 528.730469 112.339844 C 528.734375 113.480469 528.738281 114.621094 528.746094 115.757812 C 528.753906 117.394531 528.757812 119.027344 528.761719 120.664062 L 528.777344 123.648438 L 528.6875 125.902344 L 527.898438 126.691406 C 526.308594 126.746094 524.71875 126.757812 523.128906 126.742188 L 520.496094 126.71875 L 518.457031 126.691406 C 518.441406 119.523438 518.425781 112.355469 518.417969 105.1875 C 518.414062 101.859375 518.40625 98.53125 518.398438 95.203125 C 518.390625 91.992188 518.386719 88.785156 518.382812 85.574219 C 518.382812 84.347656 518.378906 83.121094 518.375 81.894531 C 518.371094 80.179688 518.367188 78.46875 518.367188 76.753906 L 518.363281 73.796875 L 518.457031 71.609375 Z M 346.457031 71.414062 C 349.679688 72.945312 351.785156 74.617188 353.882812 77.511719 C 355.257812 81.558594 355.003906 85.472656 354.816406 89.707031 L 346.164062 89.707031 C 345.042969 87.46875 345.078125 85.25 344.886719 82.777344 C 344.671875 80.828125 344.671875 80.828125 343.015625 78.691406 C 340.296875 78.234375 340.296875 78.234375 337.507812 78.691406 C 336.019531 79.808594 336.019531 79.808594 335.148438 81.839844 C 334.800781 84.304688 334.820312 86.75 334.835938 89.238281 L 334.828125 91.417969 C 334.828125 92.941406 334.832031 94.460938 334.839844 95.980469 C 334.855469 98.300781 334.839844 100.625 334.824219 102.949219 C 334.828125 104.425781 334.832031 105.90625 334.835938 107.386719 L 334.820312 109.484375 C 334.855469 112.492188 334.984375 114.523438 336.238281 117.300781 L 337.507812 118.820312 C 339.296875 119.296875 339.296875 119.296875 341.199219 119.070312 L 343.125 118.960938 L 344.589844 118.820312 C 345.484375 115.980469 345.457031 113.328125 345.425781 110.363281 L 345.402344 107.570312 L 345.375 105.445312 L 340.65625 104.660156 L 340.65625 99.148438 C 343.484375 98.207031 346.074219 98.25 349.015625 98.265625 L 350.667969 98.253906 C 352.050781 98.257812 353.433594 98.308594 354.816406 98.363281 L 355.605469 99.148438 C 355.683594 101.125 355.714844 103.078125 355.707031 105.050781 L 355.710938 106.84375 C 355.710938 108.09375 355.710938 109.34375 355.707031 110.597656 C 355.703125 112.519531 355.707031 114.441406 355.710938 116.363281 C 355.710938 117.578125 355.710938 118.789062 355.707031 120.003906 L 355.714844 121.757812 C 355.703125 123.140625 355.664062 124.523438 355.605469 125.902344 L 354.816406 126.691406 C 352.714844 126.800781 350.628906 126.722656 348.523438 126.691406 L 347.738281 122.757812 L 345.722656 124.675781 C 343.871094 126.1875 342.816406 126.753906 340.460938 127.476562 C 336.535156 127.476562 333.21875 126.738281 329.640625 125.117188 C 327.195312 122.792969 325.9375 120.453125 324.921875 117.25 C 324.144531 113.457031 324.007812 109.746094 324.003906 105.890625 L 323.996094 103.992188 C 323.992188 102.671875 323.988281 101.355469 323.988281 100.035156 C 323.988281 98.027344 323.972656 96.019531 323.957031 94.015625 C 323.953125 92.726562 323.953125 91.441406 323.953125 90.152344 L 323.9375 88.355469 C 323.953125 84.625 324.449219 81.460938 325.707031 77.90625 C 327.601562 75.089844 329.191406 73.453125 332.101562 71.707031 C 336.6875 70.011719 341.765625 70.371094 346.457031 71.414062 M 567.234375 70.824219 L 569.597656 71.609375 C 570.210938 73.273438 570.210938 73.273438 570.664062 75.511719 L 571.203125 78.074219 L 571.757812 80.902344 L 572.355469 83.820312 C 572.902344 86.503906 573.4375 89.1875 573.96875 91.878906 C 574.332031 93.714844 574.699219 95.550781 575.070312 97.386719 C 575.714844 100.589844 576.355469 103.792969 576.992188 106.996094 C 577.238281 108.253906 577.488281 109.507812 577.738281 110.761719 C 578.09375 112.535156 578.441406 114.308594 578.785156 116.085938 L 579.105469 117.679688 C 579.6875 120.726562 579.925781 123.589844 579.824219 126.691406 L 571.167969 126.691406 C 570.042969 122.480469 569.273438 118.433594 568.808594 114.101562 L 559.367188 114.886719 L 557.007812 126.691406 L 547.566406 126.691406 C 548.941406 116.527344 550.804688 106.5 552.785156 96.4375 C 553.175781 94.425781 553.5625 92.414062 553.945312 90.398438 C 554.5 87.472656 555.074219 84.550781 555.648438 81.628906 L 556.160156 78.890625 L 556.667969 76.375 L 557.097656 74.152344 L 557.792969 72.394531 C 560.917969 70.324219 563.585938 70.648438 567.234375 70.824219 M 387.859375 70.824219 C 389.269531 70.742188 390.679688 70.71875 392.089844 70.722656 L 394.417969 70.71875 C 396.515625 70.824219 396.515625 70.824219 398.875 71.609375 C 400.210938 78.324219 401.546875 85.042969 402.875 91.761719 C 403.492188 94.878906 404.109375 98 404.730469 101.117188 C 405.332031 104.125 405.929688 107.136719 406.523438 110.148438 C 406.75 111.296875 406.976562 112.445312 407.207031 113.59375 C 407.527344 115.199219 407.847656 116.808594 408.164062 118.417969 L 408.714844 121.191406 C 409.101562 123.542969 409.101562 123.542969 409.101562 126.691406 L 399.660156 126.691406 C 398.085938 118.527344 398.085938 118.527344 398.085938 114.101562 L 387.859375 114.101562 L 387.566406 117.296875 C 387.207031 120.585938 386.503906 123.542969 385.5 126.691406 L 376.847656 126.691406 C 377.363281 120.265625 378.472656 114.066406 379.746094 107.753906 L 380.371094 104.617188 C 380.808594 102.445312 381.242188 100.273438 381.683594 98.101562 C 382.246094 95.3125 382.804688 92.523438 383.355469 89.734375 C 383.785156 87.582031 384.214844 85.433594 384.648438 83.285156 C 384.953125 81.753906 385.261719 80.226562 385.566406 78.695312 L 386.128906 75.90625 L 386.625 73.445312 L 387.074219 71.609375 Z M 255.050781 161.65625 L 257.640625 161.902344 L 259.621094 162.101562 C 260.960938 168.714844 262.292969 175.328125 263.621094 181.945312 C 264.242188 185.015625 264.859375 188.085938 265.480469 191.160156 C 266.078125 194.121094 266.675781 197.085938 267.269531 200.050781 C 267.5 201.179688 267.726562 202.3125 267.957031 203.441406 C 268.277344 205.027344 268.59375 206.609375 268.910156 208.195312 C 269.09375 209.097656 269.273438 210 269.460938 210.925781 C 269.851562 213.246094 269.851562 213.246094 269.851562 216.394531 C 268.574219 216.546875 267.292969 216.695312 266.015625 216.839844 L 263.859375 217.085938 C 261.984375 217.183594 261.984375 217.183594 260.410156 216.394531 C 259.914062 214.425781 259.488281 212.441406 259.128906 210.445312 L 258.8125 208.75 C 258.554688 207.363281 258.296875 205.976562 258.050781 204.589844 L 249.394531 204.589844 L 247.035156 216.394531 C 241.042969 217.085938 241.042969 217.085938 239.167969 217.183594 L 237.59375 216.394531 C 238.152344 210.265625 239.296875 204.320312 240.523438 198.292969 L 241.152344 195.148438 C 241.703125 192.414062 242.257812 189.675781 242.8125 186.941406 C 243.375 184.140625 243.941406 181.339844 244.503906 178.539062 C 245.605469 173.058594 246.710938 167.578125 247.820312 162.101562 C 250.515625 161.203125 252.234375 161.386719 255.050781 161.65625 M 288.191406 161.117188 L 291.277344 161.054688 C 294.429688 161.332031 296.277344 162.042969 298.960938 163.675781 C 300.777344 165.390625 301.847656 166.839844 302.648438 169.214844 C 303.632812 173.191406 303.828125 176.902344 303.679688 180.984375 C 300.742188 181.675781 298.042969 181.972656 295.027344 181.773438 L 293.453125 180.199219 C 293.148438 177.773438 293.054688 175.363281 292.9375 172.921875 L 292.664062 170.757812 L 291.09375 169.183594 C 288.765625 168.855469 288.765625 168.855469 286.371094 169.183594 C 284.992188 170.121094 284.992188 170.121094 284.011719 171.542969 C 283.664062 173.15625 283.664062 173.15625 283.730469 174.953125 L 283.722656 177.027344 L 283.753906 179.265625 L 283.757812 181.566406 C 283.761719 183.171875 283.773438 184.777344 283.789062 186.382812 C 283.816406 188.84375 283.824219 191.304688 283.828125 193.765625 L 283.851562 198.445312 L 283.863281 200.679688 L 283.882812 202.757812 L 283.898438 204.582031 C 283.957031 206.328125 283.957031 206.328125 284.796875 208.527344 C 287.4375 209.128906 287.4375 209.128906 290.304688 209.3125 C 291.746094 208.53125 291.746094 208.53125 292.664062 206.953125 C 293.121094 204.441406 293.121094 204.441406 293.207031 201.691406 L 293.363281 198.878906 L 293.453125 196.722656 C 294.714844 196.570312 295.976562 196.421875 297.238281 196.28125 L 299.367188 196.03125 C 301.320312 195.9375 301.320312 195.9375 303.679688 196.722656 C 303.835938 201.648438 303.707031 206.1875 302.105469 210.886719 C 300.554688 213.527344 299.25 214.640625 296.648438 216.246094 C 292.375 217.867188 287.703125 217.605469 283.222656 217.183594 C 280.289062 216.1875 278.726562 215.003906 276.339844 213.050781 C 274.332031 210.59375 273.570312 208.441406 272.996094 205.378906 C 272.777344 202.859375 272.757812 200.359375 272.761719 197.832031 L 272.75 195.679688 C 272.746094 194.183594 272.746094 192.683594 272.75 191.1875 C 272.75 188.914062 272.734375 186.636719 272.714844 184.363281 C 272.710938 182.902344 272.710938 181.441406 272.710938 179.980469 L 272.6875 177.941406 C 272.722656 173.453125 273.457031 170.117188 275.355469 166.035156 C 279.15625 161.839844 282.695312 161.183594 288.191406 161.117188 M 352.175781 161.007812 C 354.492188 161.277344 356.066406 161.570312 358.113281 162.640625 C 360.445312 164.5625 361.585938 165.589844 362.683594 168.394531 C 363.09375 171.027344 363.292969 173.601562 363.472656 176.265625 L 354.816406 177.050781 L 353.742188 172.285156 C 353.320312 170.59375 353.320312 170.59375 351.671875 169.183594 C 349.703125 168.921875 349.703125 168.921875 347.738281 169.183594 L 346.164062 170.757812 C 345.90625 173.480469 345.832031 175.527344 346.96875 178.050781 C 349.621094 181.710938 353.105469 184.527344 356.476562 187.515625 C 359.882812 190.609375 362.285156 193.328125 364.257812 197.511719 C 365.183594 200.53125 365.269531 203.371094 364.699219 206.480469 C 363.816406 209.511719 362.816406 211.507812 360.816406 213.984375 C 358.769531 215.59375 357.265625 216.363281 354.816406 217.183594 C 350.863281 217.628906 346.824219 217.675781 343.066406 216.246094 C 340.425781 214.683594 339.109375 213.496094 337.507812 210.886719 C 336.230469 207.375 335.753906 204.386719 335.9375 200.65625 L 343.804688 199.082031 L 344.492188 201.199219 C 345.605469 205.144531 345.605469 205.144531 347.738281 208.527344 C 349.835938 208.636719 351.925781 208.558594 354.03125 208.527344 C 354.328125 205.847656 354.378906 203.335938 354.03125 200.65625 C 351.761719 195.570312 346.992188 192.289062 342.691406 188.992188 C 340.039062 186.761719 338.117188 184.542969 336.542969 181.449219 C 335.34375 177.433594 335.519531 173.324219 335.9375 169.183594 C 337.265625 166.261719 338.710938 164.832031 340.953125 162.59375 C 344.765625 160.882812 348.027344 160.882812 352.175781 161.007812 M 387.074219 161.3125 C 390.164062 162.699219 391.445312 164.066406 393.664062 166.574219 C 395.371094 170.054688 395.171875 172.417969 394.941406 176.265625 L 387.074219 177.050781 L 384.714844 169.96875 C 382.472656 169.367188 382.472656 169.367188 379.992188 169.183594 L 378.46875 169.921875 C 377.394531 171.691406 377.394531 171.691406 377.683594 174.59375 C 378.0625 176.765625 378.476562 177.933594 379.648438 179.855469 C 381.753906 181.960938 383.953125 183.902344 386.210938 185.84375 C 389.898438 189.058594 393.558594 192.261719 395.726562 196.722656 C 396.730469 200.140625 396.941406 203.417969 396.515625 206.953125 C 395.316406 210.378906 393.734375 213.1875 391.007812 215.609375 C 387.3125 217.363281 383.714844 217.46875 379.691406 217.375 C 377.632812 217.183594 377.632812 217.183594 374.976562 216.296875 C 372.425781 214.472656 370.765625 212.683594 368.980469 210.101562 C 367.789062 206.867188 367.195312 204.097656 367.40625 200.65625 C 370.457031 199.71875 372.847656 199.082031 376.058594 199.082031 L 376.546875 200.75 L 377.191406 202.917969 L 377.828125 205.078125 C 378.359375 206.9375 378.359375 206.9375 379.207031 208.527344 L 384.714844 208.527344 C 385.652344 207.246094 385.652344 207.246094 386.285156 205.378906 C 386.523438 202.75 386.523438 202.75 385.5 199.871094 C 382.382812 195.5 378.410156 192.015625 374.347656 188.554688 C 371.613281 186.128906 369.507812 183.695312 367.945312 180.347656 C 367.085938 176.351562 366.953125 172.570312 367.945312 168.59375 C 369.554688 165.835938 371.59375 163.738281 374.277344 162.003906 C 378.285156 160.449219 382.863281 160.921875 387.074219 161.3125 M 416.96875 161.3125 C 422.179688 161.214844 422.179688 161.214844 424.835938 162.101562 C 425.445312 163.695312 425.445312 163.695312 425.917969 165.984375 L 426.492188 168.746094 L 426.816406 170.398438 C 427.273438 172.714844 427.746094 175.027344 428.21875 177.339844 C 428.585938 179.160156 428.949219 180.984375 429.3125 182.804688 L 429.851562 185.476562 C 430.75 190.101562 431.34375 194.375 431.128906 199.082031 L 432.703125 199.082031 L 432.792969 197.507812 C 433.257812 190.761719 434.324219 184.1875 435.523438 177.542969 C 435.855469 175.695312 436.179688 173.851562 436.503906 172.003906 C 436.710938 170.832031 436.917969 169.65625 437.128906 168.484375 L 437.421875 166.8125 C 437.660156 165.5 437.933594 164.191406 438.210938 162.886719 L 438.996094 162.101562 C 440.457031 162.042969 441.914062 162.035156 443.375 162.050781 L 445.785156 162.074219 L 447.652344 162.101562 C 447.09375 168.230469 445.949219 174.175781 444.722656 180.203125 L 444.09375 183.347656 C 443.542969 186.082031 442.988281 188.820312 442.433594 191.554688 C 441.871094 194.355469 441.304688 197.15625 440.742188 199.957031 C 439.640625 205.4375 438.535156 210.917969 437.425781 216.394531 L 427.195312 217.183594 C 424.554688 207.214844 422.4375 197.15625 420.40625 187.046875 C 419.863281 184.351562 419.3125 181.660156 418.757812 178.964844 L 417.714844 173.796875 L 417.210938 171.367188 L 416.765625 169.105469 L 416.363281 167.128906 C 416.160156 165.027344 416.460938 163.351562 416.96875 161.3125 M 197.46875 70.824219 C 199.089844 70.742188 200.714844 70.71875 202.339844 70.71875 L 205.332031 70.714844 L 206.898438 70.71875 C 208.476562 70.722656 210.058594 70.722656 211.636719 70.714844 L 214.632812 70.71875 L 217.398438 70.722656 L 219.5 70.824219 L 220.285156 71.609375 C 220.398438 73.710938 220.320312 75.796875 220.285156 77.90625 C 215.65625 78.578125 211.726562 78.691406 206.910156 78.691406 L 206.910156 94.429688 L 217.140625 94.429688 L 217.140625 101.511719 L 207.699219 102.296875 L 207.699219 118.820312 L 220.285156 119.609375 L 220.285156 126.691406 L 197.46875 126.691406 C 196.347656 124.449219 196.582031 122.546875 196.582031 120.039062 L 196.578125 118.460938 C 196.574219 116.734375 196.574219 115.011719 196.578125 113.285156 C 196.578125 112.089844 196.578125 110.894531 196.578125 109.699219 C 196.574219 107.195312 196.578125 104.6875 196.582031 102.179688 C 196.585938 98.960938 196.582031 95.742188 196.578125 92.523438 C 196.574219 90.054688 196.574219 87.585938 196.578125 85.117188 C 196.578125 83.929688 196.578125 82.742188 196.578125 81.554688 C 196.574219 79.898438 196.578125 78.242188 196.582031 76.585938 L 196.582031 73.722656 L 196.683594 71.609375 Z M 261.195312 70.824219 C 262.816406 70.742188 264.441406 70.71875 266.0625 70.71875 L 269.058594 70.714844 L 270.625 70.71875 C 272.203125 70.722656 273.785156 70.722656 275.363281 70.714844 L 278.355469 70.71875 L 281.125 70.722656 L 283.222656 70.824219 L 284.011719 71.609375 C 284.121094 73.710938 284.042969 75.796875 284.011719 77.90625 C 279.378906 78.710938 275.5 78.691406 270.636719 78.691406 L 270.636719 94.429688 L 280.863281 94.429688 L 280.863281 101.511719 L 271.421875 102.296875 L 270.636719 119.609375 C 274.742188 119.578125 274.742188 119.578125 278.851562 119.539062 C 280.308594 119.53125 281.765625 119.570312 283.222656 119.609375 L 284.011719 120.394531 C 284.109375 123.148438 284.109375 123.148438 284.011719 125.902344 L 283.222656 126.691406 C 281.605469 126.769531 279.980469 126.792969 278.355469 126.796875 L 275.363281 126.796875 L 273.796875 126.792969 C 272.214844 126.789062 270.636719 126.792969 269.058594 126.796875 L 266.0625 126.796875 L 263.296875 126.792969 L 261.195312 126.691406 L 260.410156 125.902344 C 260.332031 124.21875 260.308594 122.53125 260.308594 120.84375 L 260.304688 119.242188 C 260.300781 117.488281 260.300781 115.730469 260.304688 113.976562 L 260.300781 110.335938 C 260.300781 107.785156 260.304688 105.238281 260.308594 102.691406 C 260.308594 99.417969 260.308594 96.144531 260.304688 92.871094 C 260.300781 90.363281 260.300781 87.855469 260.304688 85.34375 C 260.304688 84.136719 260.304688 82.929688 260.300781 81.722656 C 260.300781 80.039062 260.300781 78.355469 260.308594 76.671875 L 260.308594 73.761719 L 260.410156 71.609375 Z M 203.03125 161.207031 L 205.90625 161.207031 L 208.925781 161.214844 L 211.957031 161.207031 L 217.484375 161.210938 L 219.5 161.3125 L 220.285156 162.101562 C 220.398438 164.203125 220.320312 166.289062 220.285156 168.394531 C 216.042969 169.289062 212.011719 169.242188 207.699219 169.183594 L 206.910156 184.132812 L 211.582031 184.085938 C 213.171875 184.066406 214.761719 184.078125 216.351562 184.132812 L 217.140625 184.917969 C 217.25 187.019531 217.171875 189.109375 217.140625 191.214844 L 206.910156 192 L 207.699219 209.3125 L 220.285156 210.101562 L 220.285156 216.394531 C 215.902344 217.382812 211.632812 217.355469 207.15625 217.378906 L 204.636719 217.429688 L 202.230469 217.441406 L 200.035156 217.460938 L 198.257812 217.183594 C 196.683594 214.820312 196.683594 214.820312 196.496094 212.535156 L 196.503906 209.714844 L 196.503906 208.152344 C 196.503906 206.457031 196.519531 204.757812 196.53125 203.058594 L 196.535156 199.523438 C 196.542969 196.421875 196.558594 193.320312 196.574219 190.21875 C 196.589844 187.054688 196.597656 183.890625 196.605469 180.726562 C 196.625 174.515625 196.648438 168.308594 196.683594 162.101562 C 198.851562 161.015625 200.609375 161.210938 203.03125 161.207031 " fill-opacity="1" fill-rule="nonzero"/><path fill="#fdc30b" d="M 388.648438 410.753906 C 390.992188 411.9375 392.625 413.335938 394.152344 415.476562 C 394.949219 418.796875 394.871094 422.035156 394.800781 425.4375 L 394.800781 428.351562 C 394.792969 430.382812 394.773438 432.414062 394.742188 434.441406 C 394.703125 437.546875 394.6875 440.65625 394.699219 443.761719 C 394.6875 445.734375 394.671875 447.710938 394.65625 449.683594 L 394.652344 452.496094 C 394.523438 458.921875 394.523438 458.921875 392.648438 462.074219 C 391.007812 463.476562 391.007812 463.476562 389.433594 464.261719 C 387.027344 464.59375 384.757812 464.636719 382.351562 464.261719 C 379.992188 462.492188 379.992188 462.492188 378.417969 460.328125 C 377.628906 457.941406 377.523438 455.71875 377.492188 453.214844 L 377.460938 450.824219 L 377.445312 448.261719 L 377.425781 445.609375 C 377.414062 443.757812 377.40625 441.90625 377.402344 440.054688 C 377.386719 437.226562 377.351562 434.402344 377.316406 431.574219 C 377.308594 429.777344 377.304688 427.976562 377.296875 426.175781 L 377.253906 423.621094 C 377.273438 417.894531 377.273438 417.894531 378.304688 415.472656 C 379.417969 413.75 380.601562 412.460938 382.253906 411.246094 C 384.648438 410.542969 386.148438 410.363281 388.648438 410.753906 " fill-opacity="1" fill-rule="nonzero"/><path fill="#fefefe" d="M 318.152344 161.238281 L 320.476562 161.246094 L 322.855469 161.265625 L 325.292969 161.273438 C 327.265625 161.285156 329.242188 161.296875 331.214844 161.3125 C 332.808594 165.027344 332.808594 165.027344 332.640625 167.019531 L 332.003906 168.394531 C 327.9375 169.75 323.667969 169.226562 319.414062 169.183594 L 319.414062 184.132812 L 323.644531 184.085938 C 327.871094 184.035156 327.871094 184.035156 329.640625 184.917969 L 329.640625 191.214844 L 319.414062 192 L 319.414062 210.101562 L 332.003906 210.101562 C 332.789062 214.035156 332.789062 214.035156 332.003906 216.394531 C 329.925781 217.433594 328.351562 217.285156 326.027344 217.285156 L 323.375 217.289062 L 320.59375 217.28125 L 317.8125 217.289062 L 315.160156 217.285156 L 312.71875 217.285156 C 310.761719 217.183594 310.761719 217.183594 309.1875 216.394531 L 309.1875 162.101562 C 312.421875 161.5625 314.964844 161.21875 318.152344 161.238281 M 453.160156 161.3125 C 454.722656 161.234375 456.289062 161.210938 457.855469 161.207031 L 460.742188 161.207031 L 463.78125 161.214844 L 466.820312 161.207031 L 472.375 161.210938 L 474.402344 161.3125 L 475.1875 162.101562 C 475.296875 164.203125 475.222656 166.289062 475.1875 168.394531 C 470.828125 169.136719 467.144531 169.183594 462.601562 169.183594 L 462.601562 184.132812 L 468.515625 184.054688 C 470.46875 184.132812 470.46875 184.132812 472.828125 184.917969 L 472.828125 191.214844 L 462.601562 192 L 462.601562 210.101562 L 475.1875 210.101562 L 475.1875 216.394531 C 473.109375 217.433594 471.539062 217.285156 469.214844 217.285156 L 466.5625 217.289062 L 463.78125 217.28125 L 461 217.289062 L 458.347656 217.285156 L 455.90625 217.285156 C 453.945312 217.183594 453.945312 217.183594 452.371094 216.394531 C 452.355469 209.328125 452.339844 202.265625 452.332031 195.199219 C 452.328125 191.917969 452.320312 188.636719 452.3125 185.355469 C 452.304688 182.191406 452.300781 179.03125 452.296875 175.867188 C 452.296875 174.65625 452.292969 173.449219 452.289062 172.238281 C 452.285156 170.550781 452.28125 168.863281 452.28125 167.175781 L 452.277344 164.257812 L 452.371094 162.101562 Z M 480.695312 161.3125 L 490.136719 162.101562 L 490.921875 209.3125 L 503.511719 210.101562 L 503.511719 216.394531 C 498.820312 217.214844 494.25 217.300781 489.496094 217.28125 L 487.222656 217.289062 L 485.054688 217.285156 L 483.089844 217.285156 C 481.480469 217.183594 481.480469 217.183594 479.90625 216.394531 C 479.890625 209.328125 479.875 202.265625 479.867188 195.199219 C 479.863281 191.917969 479.859375 188.636719 479.847656 185.355469 C 479.839844 182.191406 479.835938 179.03125 479.832031 175.867188 C 479.832031 174.65625 479.828125 173.449219 479.824219 172.238281 C 479.820312 170.550781 479.816406 168.863281 479.820312 167.175781 L 479.8125 164.257812 L 479.90625 162.101562 Z M 429.558594 70.824219 L 438.996094 71.609375 L 438.996094 119.609375 L 451.585938 119.609375 L 452.371094 120.394531 C 452.558594 124.746094 452.558594 124.746094 451.585938 126.691406 L 428.769531 126.691406 C 428.753906 119.523438 428.738281 112.355469 428.730469 105.1875 C 428.726562 101.859375 428.71875 98.53125 428.710938 95.203125 C 428.703125 91.992188 428.699219 88.785156 428.695312 85.574219 C 428.695312 84.347656 428.691406 83.121094 428.6875 81.894531 C 428.683594 80.179688 428.679688 78.46875 428.679688 76.753906 L 428.675781 73.796875 L 428.769531 71.609375 Z M 362.683594 70.824219 C 363.980469 70.75 365.273438 70.714844 366.570312 70.722656 L 368.703125 70.71875 C 370.550781 70.824219 370.550781 70.824219 372.125 71.609375 C 372.144531 78.675781 372.15625 85.742188 372.167969 92.804688 C 372.171875 96.085938 372.175781 99.367188 372.183594 102.648438 C 372.191406 105.8125 372.199219 108.972656 372.199219 112.136719 C 372.203125 113.347656 372.203125 114.554688 372.207031 115.765625 C 372.214844 117.453125 372.214844 119.144531 372.214844 120.832031 L 372.21875 123.746094 L 372.125 125.902344 L 371.339844 126.691406 C 369.898438 126.769531 368.453125 126.792969 367.011719 126.789062 L 364.628906 126.796875 L 362.683594 126.691406 L 361.898438 125.902344 C 361.820312 124.21875 361.796875 122.53125 361.796875 120.84375 L 361.792969 119.242188 C 361.789062 117.488281 361.789062 115.730469 361.792969 113.976562 L 361.789062 110.335938 C 361.789062 107.785156 361.792969 105.238281 361.796875 102.691406 C 361.800781 99.417969 361.796875 96.144531 361.792969 92.871094 C 361.789062 90.363281 361.789062 87.855469 361.792969 85.34375 C 361.792969 84.136719 361.792969 82.929688 361.789062 81.722656 C 361.789062 80.039062 361.792969 78.355469 361.796875 76.671875 L 361.796875 73.761719 L 361.898438 71.609375 Z M 402.019531 161.3125 C 403.460938 161.238281 404.90625 161.207031 406.347656 161.214844 L 408.734375 161.207031 L 410.675781 161.3125 L 411.460938 162.101562 C 411.535156 163.789062 411.554688 165.480469 411.550781 167.175781 L 411.550781 168.78125 C 411.550781 170.539062 411.542969 172.296875 411.539062 174.054688 L 411.535156 177.703125 C 411.53125 180.910156 411.527344 184.117188 411.515625 187.324219 C 411.507812 190.59375 411.503906 193.863281 411.5 197.132812 C 411.492188 203.554688 411.480469 209.972656 411.460938 216.394531 C 410.054688 216.570312 408.644531 216.730469 407.234375 216.886719 L 404.855469 217.164062 L 402.808594 217.183594 L 401.234375 215.609375 C 401.039062 213.394531 401.039062 213.394531 401.042969 210.53125 L 401.039062 208.953125 C 401.035156 207.226562 401.042969 205.503906 401.054688 203.777344 L 401.054688 200.191406 C 401.054688 197.683594 401.0625 195.179688 401.074219 192.671875 C 401.085938 189.453125 401.089844 186.234375 401.089844 183.011719 C 401.089844 180.546875 401.09375 178.078125 401.097656 175.605469 L 401.101562 172.046875 C 401.105469 170.386719 401.109375 168.730469 401.121094 167.078125 L 401.128906 164.214844 L 401.234375 162.101562 Z M 457.09375 70.824219 C 458.535156 70.75 459.976562 70.714844 461.417969 70.722656 L 463.804688 70.71875 L 465.746094 70.824219 L 466.535156 71.609375 C 466.613281 73.152344 466.632812 74.699219 466.636719 76.246094 L 466.644531 79.253906 L 466.636719 82.535156 L 466.640625 85.886719 C 466.640625 88.234375 466.640625 90.578125 466.636719 92.925781 C 466.632812 95.925781 466.632812 98.925781 466.640625 101.925781 C 466.640625 104.234375 466.640625 106.542969 466.640625 108.851562 C 466.640625 109.957031 466.640625 111.0625 466.640625 112.167969 C 466.640625 113.71875 466.640625 115.273438 466.636719 116.824219 L 466.632812 119.496094 C 466.535156 121.957031 466.207031 124.273438 465.746094 126.691406 L 456.304688 126.691406 C 456.289062 119.523438 456.273438 112.355469 456.265625 105.1875 C 456.261719 101.859375 456.253906 98.53125 456.246094 95.203125 C 456.238281 91.992188 456.234375 88.785156 456.230469 85.574219 C 456.230469 84.347656 456.226562 83.121094 456.222656 81.894531 C 456.21875 80.179688 456.214844 78.46875 456.214844 76.753906 L 456.210938 73.796875 L 456.304688 71.609375 Z M 457.09375 70.824219 " fill-opacity="1" fill-rule="nonzero"/><path fill="#fdc30b" d="M 300.53125 77.90625 C 302.058594 77.8125 302.058594 77.8125 303.679688 78.003906 L 305.300781 78.15625 C 306.828125 78.691406 306.828125 78.691406 308.183594 80.039062 C 309.398438 82.21875 309.503906 83.636719 309.480469 86.117188 C 309.390625 88.617188 309.171875 90.550781 308.449219 92.953125 C 306.828125 94.429688 306.828125 94.429688 305.148438 94.859375 C 303.320312 95.105469 301.589844 95.265625 299.746094 95.214844 L 298.171875 94.429688 C 298.105469 91.96875 298.0625 89.511719 298.023438 87.050781 L 297.964844 84.929688 L 297.941406 82.902344 L 297.902344 81.03125 L 298.171875 79.476562 Z M 536.554688 78.691406 L 538.914062 80.265625 C 539.832031 84.046875 539.828125 87.878906 539.355469 91.722656 L 538.125 93.640625 C 536.070312 94.609375 534.097656 95.074219 531.832031 95.214844 L 528.6875 94.429688 L 528.6875 78.691406 C 531.875 77.894531 533.417969 77.957031 536.554688 78.691406 " fill-opacity="1" fill-rule="nonzero"/><path fill="#fefefe" d="M 407.527344 144.003906 L 416.183594 144.003906 C 415.410156 147.085938 414.394531 149.21875 412.839844 151.96875 L 411.449219 154.484375 C 409.890625 156.59375 409.890625 156.59375 407.886719 157.71875 L 405.957031 158.164062 L 403.59375 157.378906 C 403.953125 155.886719 404.3125 154.394531 404.675781 152.902344 L 405.285156 150.386719 C 405.957031 147.9375 405.957031 147.9375 407.527344 144.003906 " fill-opacity="1" fill-rule="nonzero"/><path fill="#fdc30b" d="M 252.542969 175.476562 L 254.117188 175.476562 C 254.644531 178.261719 255.167969 181.050781 255.6875 183.835938 L 256.144531 186.21875 C 256.847656 190.027344 257.476562 193.617188 257.261719 197.511719 L 250.96875 197.511719 C 250.238281 194.5625 250.203125 192.230469 250.621094 189.230469 L 250.953125 186.796875 L 251.3125 184.28125 L 251.664062 181.71875 C 251.949219 179.636719 252.242188 177.558594 252.542969 175.476562 M 563.300781 84.984375 L 564.875 84.984375 C 565.273438 87.773438 565.664062 90.558594 566.054688 93.347656 L 566.398438 95.730469 C 566.925781 99.519531 567.394531 103.179688 567.234375 107.019531 L 560.15625 107.019531 Z M 392.582031 88.132812 L 394.152344 88.132812 C 394.550781 90.691406 394.945312 93.25 395.335938 95.804688 L 395.675781 98 L 396 100.121094 L 396.296875 102.070312 C 396.515625 103.871094 396.515625 103.871094 396.515625 107.019531 L 389.433594 107.019531 C 389.886719 100.941406 390.515625 94.886719 391.792969 88.921875 Z M 392.582031 88.132812 " fill-opacity="1" fill-rule="nonzero"/></svg>