<svg width="1024" height="1024" viewBox="0 0 1024 1024" fill="none" xmlns="http://www.w3.org/2000/svg">
<g clip-path="url(#clip0_557_624)">
<rect width="1024" height="1024" fill="white"/>
<g clip-path="url(#clip1_557_624)">
<path d="M2.09375 353.865C2.09375 235.94 2.09375 119.062 2.09375 2.13861C343.31 2.13861 684.527 2.13861 1025.92 2.13861C1025.92 343.89 1025.92 685.686 1025.92 1027.79C684.761 1027.79 343.427 1027.79 2.09375 1027.79C2.09375 803.584 2.09375 579.248 2.09375 353.865ZM1015.63 212.529C1015.63 156.344 1015.63 100.159 1015.62 43.9745C1015.62 21.1843 1006.92 12.563 983.933 12.5627C670.179 12.5591 356.424 12.5595 42.6696 12.5618C18.9493 12.562 10.4692 20.9732 10.469 44.5121C10.466 358.238 10.466 671.964 10.469 985.689C10.4693 1009.21 18.9569 1017.63 42.6833 1017.63C356.089 1017.63 669.494 1017.63 982.9 1017.63C1007.35 1017.63 1015.62 1009.42 1015.63 985.153C1015.63 728.309 1015.63 471.466 1015.63 212.529Z" fill="white"/>
<path d="M1015.63 213.576C1015.63 471.466 1015.63 728.309 1015.63 985.153C1015.63 1009.42 1007.35 1017.63 982.902 1017.63C669.496 1017.63 356.091 1017.63 42.6853 1017.63C18.9588 1017.63 10.4712 1009.21 10.471 985.689C10.468 671.964 10.468 358.238 10.471 44.5121C10.4712 20.9732 18.9513 12.562 42.6716 12.5618C356.426 12.5595 670.181 12.5591 983.935 12.5627C1006.92 12.563 1015.62 21.1843 1015.63 43.9745C1015.63 100.159 1015.63 156.344 1015.63 213.576ZM711.581 552.221C710.964 546.785 710.347 541.35 709.562 534.435C705.788 536.713 704.14 537.352 702.951 538.477C668.521 571.064 633.969 603.526 599.991 636.579C596.362 640.11 594.573 647.125 594.553 652.534C594.223 741.076 594.419 829.62 594.151 918.163C594.124 927.02 597.269 929.579 605.709 929.483C636.036 929.136 666.369 929.356 696.7 929.345C711.552 929.34 711.578 929.309 711.579 913.957C711.582 794.04 711.581 674.123 711.581 552.221ZM551.729 686.345C535.719 701.302 519.709 716.259 502.887 731.976C487.207 716.2 469.971 698.86 452.735 681.52C451.724 682.105 450.712 682.689 449.7 683.273C449.178 686.513 448.203 689.752 448.2 692.993C448.114 767.964 448.222 842.935 448.014 917.905C447.99 926.581 451.242 929.547 459.759 929.461C490.793 929.148 521.837 929.059 552.868 929.504C562.508 929.642 565.59 926.233 565.555 916.718C565.276 841.399 565.438 766.079 565.278 690.759C565.271 687.281 563.489 683.806 562.533 680.329C559.291 681.951 556.048 683.573 551.729 686.345ZM371.963 699.616C350.48 720.015 328.73 740.145 307.739 761.037C303.525 765.231 299.967 772.293 299.889 778.084C299.258 825.128 299.622 872.185 299.421 919.237C299.391 926.322 301.823 929.431 309.053 929.4C341.818 929.257 374.585 929.297 407.35 929.372C413.639 929.386 416.9 927.348 416.887 920.283C416.739 837.331 416.823 754.378 416.655 671.426C416.65 668.763 414.607 666.104 413.515 663.443C411.15 664.61 408.352 665.307 406.491 667.021C395.214 677.409 384.152 688.028 371.963 699.616ZM400.306 625.359C406.663 618.097 413.02 610.835 421.607 601.024C451.496 630.944 478.963 658.438 508.018 687.522C574.387 621.146 641.587 553.938 708.837 486.681C715.268 492.825 721.887 499.148 730.3 507.185C736.948 475.906 742.952 447.653 749.436 417.144C718.349 424.069 690.363 430.303 660.178 437.027C668.555 445.838 675.125 452.749 680.06 457.94C620.773 517.223 561.923 576.068 500.702 637.286C474.142 610.692 446.678 583.194 421.067 557.551C369.924 608.222 317.989 659.679 266.551 710.641C274.431 718.27 282.585 726.165 290.682 734.005C326.484 698.527 362.873 662.467 400.306 625.359ZM108.853 286.158C134.662 299.962 165.663 295.447 180.202 275.767C197.709 252.07 192.894 213.557 169.401 189.381C194.916 167.119 189.06 122.841 173.977 108.619C156.329 91.9792 120.459 92.0875 103.06 109.389C83.6485 128.692 86.2263 166.104 108.809 189.849C107.784 190.76 106.79 191.692 105.747 192.566C79.852 214.267 80.8547 264.524 108.853 286.158ZM613.301 254.413C613.301 242.699 613.301 230.986 613.301 218.975C607.219 218.975 603.463 218.975 599.028 218.975C595.591 233.981 592.193 248.813 588.795 263.646C588.178 263.504 587.56 263.362 586.943 263.22C583.85 248.614 580.756 234.007 577.652 219.348C572.794 219.348 568.454 219.348 563.348 219.348C563.348 243.938 563.348 267.776 563.348 291.455C570.258 293.611 573.101 291.623 572.943 284.804C572.68 273.462 572.871 262.11 572.871 250.762C573.744 250.754 574.616 250.746 575.489 250.737C577.775 261.925 579.761 273.189 582.548 284.251C583.298 287.23 586.483 289.595 588.551 292.242C590.341 289.726 593.086 287.441 593.755 284.656C596.644 272.627 598.925 260.452 601.428 248.331C603.352 260.389 603.611 272.202 603.261 283.997C603.028 291.866 605.985 293.991 613.316 291.092C613.316 279.424 613.316 267.963 613.301 254.413ZM500.713 406.731C500.713 395.625 500.713 384.518 500.713 373.411C501.823 373.388 502.933 373.364 504.043 373.341C506.248 383.448 508.192 393.625 510.814 403.623C511.627 406.724 514.281 409.343 516.092 412.182C518.039 409.512 520.938 407.103 521.757 404.123C524.405 394.497 526.288 384.66 528.466 374.905C529.424 375.005 530.381 375.105 531.338 375.205C531.338 387.217 531.338 399.229 531.338 411.475C535.623 411.475 538.47 411.475 540.573 411.475C540.573 386.882 540.573 363.024 540.573 339.285C527.061 338.512 527.024 338.504 524.424 350.297C521.889 361.796 519.44 373.314 516.954 384.824C516.463 384.818 515.972 384.813 515.482 384.807C512.242 369.66 509.002 354.513 505.742 339.273C500.92 339.273 496.884 339.273 491.651 339.273C491.651 363.577 491.651 387.432 491.651 413.756C495.287 411.674 497.967 410.139 500.713 406.731ZM808.883 137.144C808.883 148.528 808.883 159.912 808.883 171.676C813.358 171.676 816.686 171.676 821.121 171.676C821.121 158.73 821.121 146.278 821.121 133.826C826.982 144.278 831.546 154.744 835.516 165.431C837.734 171.402 840.748 174.114 847.277 171.001C847.277 147.1 847.277 123.204 847.277 98.9329C843.511 98.9329 840.243 98.9329 835.966 98.9329C835.966 110.729 835.966 121.975 835.966 133.222C829.817 124.303 825.438 115.055 821.785 105.529C819.388 99.2786 816.274 96.2106 808.884 99.7801C808.884 111.424 808.884 123.239 808.883 137.144ZM543.362 138.593C548.402 137.948 551.083 139.324 550.782 145.248C550.333 154.077 550.666 162.945 550.666 171.455C555.981 171.455 559.668 171.455 563.583 171.455C563.583 146.901 563.583 122.982 563.583 99.0429C559.131 99.0429 555.167 99.0429 550.398 99.0429C550.398 109.314 550.398 118.937 550.398 128.785C545.265 128.785 540.974 128.785 535.822 128.785C535.822 118.552 535.822 108.929 535.822 98.9144C530.977 98.9144 527.01 98.9144 522.648 98.9144C522.648 123.332 522.648 147.207 522.648 171.464C527.158 171.464 531.117 171.464 535.902 171.464C535.902 162.568 535.466 154.234 536.158 145.995C536.376 143.399 539.617 141.056 543.362 138.593ZM682.005 117.56C678.299 99.4791 668.768 95.1432 641.623 99.4993C641.623 123.249 641.623 147.08 641.623 172.065C647.887 172.065 653.706 172.23 659.513 172.034C675.243 171.503 681.448 165.576 682.152 149.67C682.597 139.599 682.187 129.491 682.005 117.56ZM670.522 224.611C667.482 222.251 664.442 219.892 659.373 215.957C659.373 243.853 659.373 267.672 659.373 292.278C663.358 292.045 666.608 291.854 670.646 291.618C670.646 278.083 670.646 265.578 670.646 253.073C676.568 264.086 680.782 275.426 685.992 286.289C687.447 289.322 691.842 290.944 696.422 294.357C696.422 266.816 696.422 243.013 696.422 218.548C692.641 218.854 689.683 219.094 685.324 219.447C685.324 231.074 685.324 242.091 685.324 253.108C684.552 253.207 683.78 253.305 683.009 253.404C679.084 244.28 675.159 235.155 670.522 224.611ZM618.187 365.774C618.547 376.178 618.1 386.69 619.48 396.956C621.051 408.638 627.537 412.943 640.05 412.814C651.853 412.693 658.787 408.223 659.63 397.091C660.753 382.278 660.297 367.289 659.604 352.419C659.245 344.725 653.826 340.253 646.247 338.396C628.638 334.08 618.786 342.937 618.187 365.774ZM483.365 359.978C481.007 343.048 474.728 336.808 460.794 337.545C446.999 338.275 441.032 345.546 440.778 362.454C440.632 372.184 440.472 381.948 441.107 391.645C442.126 407.195 448.149 412.884 462.296 412.793C475.927 412.707 482.386 406.337 483.249 391.086C483.798 381.38 483.412 371.621 483.365 359.978ZM394.968 402.255C395.123 405.317 395.277 408.379 395.469 412.196C399.366 411.986 402.597 411.813 406.61 411.597C406.61 398.144 406.61 385.586 406.61 373.029C412.652 383.938 416.922 395.227 422.138 406.059C423.63 409.158 427.863 410.937 432.711 414.821C432.711 387.006 432.711 363.182 432.711 338.844C429.003 339.006 425.974 339.139 421.513 339.334C421.513 351.214 421.513 362.553 421.513 373.893C415.43 364.567 411.03 355.216 407.368 345.583C405.064 339.522 401.845 337.147 394.97 340.125C394.97 360.056 394.97 380.19 394.968 402.255ZM379.182 283.212C379.182 275.315 379.182 267.419 379.182 259.522C380.085 259.107 380.988 258.691 381.891 258.276C383.663 260.454 386.176 262.37 387.056 264.863C389.017 270.419 390.706 276.188 391.517 282.007C392.832 291.441 397.466 294.51 407.356 291.064C404.752 281.476 401.849 271.923 399.719 262.199C399.133 259.525 399.986 255.655 401.676 253.518C407.836 245.732 407.696 237.424 404.639 228.859C401.671 220.547 394.071 219.33 386.68 218.782C380.169 218.298 373.593 218.681 366.655 218.681C366.655 243.593 366.655 267.44 366.655 292.722C372.055 290.813 379.974 296.407 379.182 283.212ZM299.546 120.455C299.546 137.449 299.546 154.443 299.546 171.66C304.434 171.66 308.177 171.66 313.6 171.66C313.6 160.498 313.6 149.707 313.6 138.915C314.632 138.619 315.664 138.323 316.696 138.028C317.975 139.928 319.776 141.665 320.433 143.76C322.305 149.729 324.23 155.763 325.183 161.919C326.736 171.951 331.937 174.236 341.111 170.839C338.801 162.456 336.827 154.347 334.292 146.417C332.525 140.889 333.321 137.009 336.137 131.371C339.432 124.777 339.938 114.84 337.369 107.95C335.645 103.328 326.773 100.231 320.551 98.7418C314.079 97.1925 306.947 98.3964 299.547 98.3964C299.547 105.934 299.547 112.16 299.546 120.455ZM613.448 113.413C608.871 100.416 602.065 96.4044 587.931 98.3741C577.722 99.797 572.059 106.772 571.804 119.206C571.561 131.02 571.242 142.893 572.128 154.652C573.098 167.517 581.151 173.862 593.844 173.391C606.148 172.934 613.111 166.572 613.645 153.833C614.182 140.998 613.679 128.119 613.448 113.413ZM393.365 118.366C393.365 136.019 393.365 153.672 393.365 172.064C400.446 172.064 406.308 172.086 412.171 172.059C421.304 172.016 429.742 170.596 433.404 160.531C437.285 149.862 434.431 139.693 425.428 132.14C433.47 125.832 434.583 117.525 431.161 108.675C427.714 99.7611 419.667 98.4408 411.292 98.3954C405.493 98.3639 399.694 98.3893 393.365 98.3893C393.365 105.225 393.365 110.758 393.365 118.366ZM741.005 254.415C741.043 260.346 740.883 266.285 741.158 272.205C741.818 286.368 748.494 293.022 761.819 293.11C775.068 293.197 782.374 286.496 783 272.577C783.517 261.089 783.512 249.54 782.991 238.052C782.363 224.216 775 217.606 761.639 217.796C748.314 217.985 741.555 224.824 741.07 238.757C740.912 243.287 741.019 247.827 741.005 254.415ZM387.245 393.558C387.24 381.401 387.759 369.214 387.088 357.093C386.364 344.009 378.792 337.462 366.153 337.534C352.928 337.61 345.698 344.542 345.309 358.151C345.002 368.913 345.059 379.694 345.302 390.458C345.615 404.28 350.585 410.971 361.11 412.482C375.857 414.598 382.696 410.088 387.245 393.558ZM588.538 349.206C605.618 344.14 595.776 360.558 600.992 364.904C604.734 364.904 608.394 364.904 611.975 364.904C613.775 346.492 608.343 338.422 594.083 337.513C579.264 336.568 571.884 344.611 571.707 362.179C571.603 372.639 571.32 383.13 571.945 393.558C572.716 406.41 579.044 412.542 590.632 412.997C607.689 413.666 614.171 405.456 611.993 385.405C608.051 385.405 604.06 385.405 599.804 385.405C599.615 389.134 600.26 392.592 599.084 395.243C597.806 398.126 594.836 400.26 592.604 402.72C590.379 400.549 586.259 398.398 586.235 396.203C586.067 380.949 586.75 365.686 588.538 349.206ZM725.328 156.417C729.566 170.432 738.799 176.016 751.798 172.426C763.434 169.212 768.048 159.238 764.216 144.689C760.695 144.867 757.056 145.052 753.12 145.252C752.85 149.233 753.419 152.669 752.224 155.306C750.889 158.25 747.953 160.468 745.714 163.002C743.45 160.419 739.362 157.926 739.228 155.237C738.555 141.711 738.543 128.114 739.244 114.592C739.375 112.057 743.808 109.745 746.256 107.33C748.286 109.702 751.074 111.78 752.143 114.526C753.33 117.578 752.949 121.24 753.268 124.836C757.576 124.836 761.242 124.836 764.823 124.836C767.256 108.112 762.096 99.4935 749.312 98.2527C733.219 96.6907 725.259 103.571 724.78 120.209C724.451 131.671 724.895 143.155 725.328 156.417ZM505.943 240.238C506.406 235.215 505.102 228.299 512.62 228.286C524.231 228.264 517.223 239.338 521.045 244.253C524.947 244.253 528.872 244.253 532.763 244.253C533.226 224.935 528.019 217.998 513.484 217.747C498.968 217.496 492.326 225.055 492.125 242.319C492.012 252.082 491.827 261.861 492.243 271.608C492.899 286.985 502.531 295.176 516.74 292.979C529.678 290.978 535.352 280.565 531.742 265.33C528.095 265.33 524.437 265.33 520.356 265.33C520.159 268.358 520.651 271.038 519.707 273.041C518.061 276.532 515.97 281.895 513.285 282.411C506.253 283.762 506.197 277.409 506.082 272.576C505.843 262.468 505.972 252.351 505.943 240.238ZM354.212 245.017C355.736 244.054 358.331 243.338 358.619 242.09C361.333 230.314 354.33 219.684 343.113 218.004C329.207 215.922 319.468 222.283 318.6 235.493C317.733 248.68 317.849 262.004 318.614 275.205C319.249 286.16 326.28 292.243 336.911 293.071C353.123 294.333 360.825 284.154 357.616 265.338C354.014 265.338 350.367 265.338 346.3 265.338C346.1 267.588 346.025 269.272 345.789 270.934C345.115 275.673 347.711 282.534 339.449 282.802C330.929 283.079 331.816 276.116 331.658 270.806C331.337 260.006 330.908 249.132 331.886 238.413C332.22 234.756 336.637 231.473 339.189 228.018C341.385 231.264 344.955 234.317 345.445 237.803C346.129 242.668 346.54 245.991 354.212 245.017ZM335.417 344.453C328.509 336.36 319.689 336.41 310.574 339.047C301.828 341.578 298.979 348.852 298.806 356.87C298.514 370.419 298.496 384.023 299.408 397.532C300.057 407.142 306.365 412.254 316.105 412.891C334.396 414.087 342.298 404.017 337.884 385.589C334.095 385.589 330.411 385.589 326.718 385.589C326.462 389.764 327.081 393.595 325.78 396.594C324.672 399.15 321.253 402.444 319.044 402.31C316.659 402.165 312.637 398.503 312.535 396.23C311.908 382.328 311.877 368.371 312.477 354.469C312.578 352.121 316.705 349.947 318.972 347.693C321.376 350.116 324.581 352.16 325.958 355.069C327.3 357.904 326.772 361.624 327.054 364.828C331.516 364.828 335.151 364.828 340.269 364.828C338.845 357.827 337.62 351.805 335.417 344.453ZM353.424 127.856C350.541 142.311 347.658 156.767 344.576 172.221C350.138 171.906 353.77 171.701 357.002 171.517C358.341 165.338 359.424 160.342 360.481 155.463C364.978 155.463 368.701 155.463 372.63 155.463C373.738 160.929 374.76 165.969 375.882 171.498C379.773 171.498 383.394 171.498 388.081 171.498C383.144 146.721 378.358 122.697 373.639 99.0115C368.092 99.0115 363.697 99.0115 359.015 99.0115C357.18 108.406 355.453 117.252 353.424 127.856ZM470.453 116.89C469.139 110.872 467.825 104.854 466.509 98.8282C461.428 98.8282 457.001 98.8282 452.172 98.8282C447.364 123.183 442.627 147.18 437.84 171.433C442.749 171.433 446.398 171.433 450.093 171.433C451.296 165.79 452.369 160.755 453.452 155.676C457.88 155.676 461.839 155.676 465.843 155.676C466.986 161.344 467.998 166.366 469.021 171.435C473.325 171.435 476.985 171.435 481.079 171.435C477.577 153.37 474.21 136.004 470.453 116.89ZM450.785 280.944C457.234 292.757 468.986 296.624 479.433 290.369C489.163 284.543 491.029 270.43 482.674 260.057C477.903 254.135 471.313 249.674 466.581 243.728C464.122 240.637 463.534 235.801 462.996 231.637C462.877 230.714 467.881 227.971 468.233 228.328C470.904 231.036 472.994 234.314 475.294 237.393C475.681 237.912 476.205 238.329 477.067 239.198C479.717 238.731 482.67 238.21 485.526 237.707C485.175 224.86 480.882 219.009 470.978 217.967C462.881 217.114 455.191 218.613 451.403 226.716C447.62 234.811 448.111 243.248 454.334 250.132C459.449 255.791 466.092 260.159 470.705 266.143C473.237 269.428 473.33 274.844 473.661 279.362C473.727 280.269 468.456 282.731 468.093 282.32C465.339 279.195 463.153 275.559 460.89 272.019C460.363 271.195 460.217 270.127 459.735 268.691C456.343 269.383 453.098 270.045 449.391 270.801C449.749 274.063 450.045 276.766 450.785 280.944ZM294.226 287.674C291.55 277.109 281.725 286.693 277.181 281.597C277.181 274.16 277.181 266.737 277.181 259.391C290.912 258.286 290.912 258.286 288.824 249.517C284.829 249.163 280.835 248.809 276.912 248.462C276.912 241.52 276.912 235.373 276.912 228.684C282.663 228.398 288.027 228.132 293.322 227.869C293.531 217.789 284.497 215.589 263.789 220.043C263.789 243.815 263.789 267.633 263.789 293.688C274.452 292.161 284.273 290.754 294.226 287.674ZM429.697 259.419C433.447 258.985 437.196 258.551 441.245 258.082C441.245 255.125 441.245 252.531 441.245 249.604C436.716 249.228 432.643 248.89 428.358 248.535C428.358 241.776 428.358 235.399 428.358 228.297C431.688 228.297 434.434 228.388 437.171 228.271C439.852 228.157 442.525 227.832 445.161 227.604C444.86 217.876 434.94 215.585 415.12 219.959C415.12 243.799 415.12 267.625 415.12 291.825C425.385 291.825 434.996 291.825 445.666 291.825C446.096 276.48 432.37 287.052 428.132 280.854C428.132 274.622 428.132 267.686 429.697 259.419ZM629.886 292.377C637.481 292.377 645.076 292.377 653.066 292.377C654.805 275.964 641.062 286.796 636.632 280.924C636.632 274.363 636.632 266.947 636.632 259.505C641.113 259.021 644.855 258.618 648.901 258.181C648.901 255.149 648.901 252.53 648.901 249.617C644.471 249.179 640.459 248.783 636.345 248.377C636.345 241.636 636.345 235.5 636.345 228.795C642.162 228.457 647.56 228.144 652.48 227.858C654.899 220.527 652.32 218.152 645.722 218.451C638.163 218.793 630.576 218.53 622.023 218.53C622.023 242.235 621.894 264.772 622.28 287.301C622.309 289.022 625.986 290.681 629.886 292.377ZM277.58 379.108C290.633 378.274 290.633 378.274 288.876 369.14C285.01 368.906 281.012 368.665 277.219 368.435C277.219 361.185 277.219 354.799 277.219 348.491C294.243 347.328 294.243 347.328 292.412 339.606C282.797 339.606 273.278 339.606 264.017 339.606C264.017 364.171 264.017 387.945 264.017 411.495C274.415 411.495 283.98 411.495 294.094 411.495C294.294 396.599 281.288 406.854 276.597 400.68C276.597 394.609 276.597 387.692 277.58 379.108ZM906.459 116.18C905.304 101.509 918.056 111.563 923.14 106.249C923.14 104.475 923.14 101.863 923.14 99.0707C913.038 99.0707 903.162 99.0707 893.257 99.0707C893.257 123.67 893.257 147.542 893.257 171.324C920.315 174.323 924.081 173.273 922.344 163.205C917.322 162.955 912.24 162.702 907.213 162.452C907.213 154.096 907.213 146.633 907.213 139.253C920.022 138.17 920.022 138.17 918.536 129.69C914.872 129.476 911.153 129.258 906.458 128.984C906.458 124.96 906.458 121.551 906.459 116.18ZM772.69 108.117C772.69 129.249 772.69 150.381 772.69 171.577C783.61 171.577 793.241 171.577 803.967 171.577C804.075 157.099 791.519 166.395 786.729 161.008C786.729 154.378 786.729 146.955 786.729 139.194C791.428 138.717 795.431 138.31 799.259 137.921C802.534 124.235 790.194 132.378 786.754 127.67C786.754 121.716 786.754 115.32 786.754 108.56C792.59 108.138 797.702 107.768 803.198 107.37C803.198 104.324 803.198 101.763 803.198 98.39C795.059 98.39 787.418 98.8063 779.847 98.2618C773.486 97.8043 771.894 100.577 772.69 108.117ZM720.118 99.4816C710.212 98.986 700.305 98.4904 689.823 97.966C689.823 123.208 689.823 147.062 689.823 172.118C698.173 172.118 706.092 171.909 713.995 172.177C721.918 172.445 721.338 168.449 719.41 163.206C713.882 162.944 708.807 162.704 704.113 162.481C704.113 153.888 704.113 146.463 704.113 139.166C708.722 138.673 712.402 138.279 715.857 137.91C719.461 124.304 706.785 132.366 703.991 128.124C703.991 121.394 703.991 114.966 703.991 110.226C709.119 104.258 720.283 114.782 720.118 99.4816ZM711.451 218.641C708.379 218.777 705.307 218.912 701.882 219.063C701.882 222.298 701.882 224.945 701.882 227.987C705.505 228.472 708.804 228.914 713.45 229.536C713.45 250.453 713.45 271.077 713.45 291.65C718.55 291.65 722.227 291.65 726.967 291.65C726.967 270.367 726.967 249.674 726.967 229.122C731.093 228.71 734.137 228.406 737.13 228.107C739.783 220.735 737.232 218.122 730.089 218.572C724.547 218.921 718.965 218.642 711.451 218.641ZM270.202 157.913C270.202 162.351 270.202 166.79 270.202 171.506C275.194 171.506 279.161 171.506 284.072 171.506C284.072 150.531 284.072 130.151 284.072 109.451C288.222 108.848 291.497 108.372 295.387 107.806C295.117 104.416 294.888 101.549 294.668 98.7901C282.416 98.7901 271.049 98.7901 259.323 98.7901C259.323 102.158 259.323 105.056 259.323 108.188C263.25 108.559 266.523 108.868 270.203 109.215C270.203 125.315 270.203 140.585 270.202 157.913ZM870.233 172.123C876.775 173.157 877.423 169.429 877.357 164.135C877.131 145.802 877.27 127.464 877.27 109.119C881.34 108.743 884.381 108.462 887.894 108.137C887.894 104.846 887.894 101.905 887.894 98.9348C875.683 98.9348 864.021 98.9348 851.719 98.9348C852.172 102.508 852.541 105.415 852.883 108.112C856.767 108.587 859.737 108.95 863.358 109.392C863.358 127.986 863.15 145.998 863.579 163.994C863.644 166.735 866.661 169.407 870.233 172.123ZM517.439 168.569C515.888 156.935 505.583 166.565 499.846 160.078C499.846 140.902 499.846 119.885 499.846 99.1216C494.541 99.1216 490.577 99.1216 486.77 99.1216C486.77 123.763 486.77 147.62 486.77 172.795C497.422 172.011 507.302 171.284 517.439 168.569ZM553.653 284.652C553.653 262.881 553.653 241.11 553.653 219.26C548.541 219.26 544.865 219.26 540.852 219.26C540.852 243.649 540.852 267.44 540.852 293.652C545.487 289.676 553.054 297.062 553.653 284.652ZM554.12 338.91C553.051 339.593 551.05 340.27 551.045 340.961C550.883 364.509 550.911 388.058 550.911 411.472C555.746 411.472 559.383 411.472 563.77 411.472C563.77 388.563 563.946 366.322 563.439 344.097C563.398 342.299 558.67 340.608 554.12 338.91ZM472.693 326.1C469.773 321.49 468.436 312.938 460.935 316.552C455.591 319.127 452.21 325.776 447.953 330.608C449.192 331.841 450.431 333.075 451.67 334.308C455.43 331.303 459.189 328.298 461.523 326.433C465.483 328.922 469.412 331.392 473.34 333.863C473.897 333.013 474.455 332.163 475.012 331.314C474.455 330.074 473.898 328.834 472.693 326.1Z" fill="#A21A43"/>
<path d="M711.578 553.214C711.578 674.123 711.58 794.04 711.577 913.957C711.576 929.309 711.55 929.34 696.698 929.345C666.367 929.356 636.034 929.136 605.707 929.483C597.267 929.579 594.122 927.019 594.149 918.163C594.417 829.62 594.221 741.076 594.551 652.534C594.571 647.125 596.36 640.11 599.989 636.579C633.967 603.526 668.519 571.064 702.949 538.477C704.137 537.352 705.786 536.713 709.56 534.435C710.345 541.35 710.962 546.785 711.578 553.214Z" fill="#FEFDFD"/>
<path d="M552.266 685.77C556.047 683.573 559.289 681.951 562.531 680.329C563.487 683.806 565.269 687.281 565.276 690.759C565.436 766.079 565.275 841.399 565.553 916.718C565.588 926.233 562.506 929.642 552.866 929.503C521.835 929.059 490.792 929.148 459.757 929.461C451.24 929.547 447.988 926.581 448.012 917.905C448.22 842.935 448.112 767.964 448.198 692.993C448.201 689.752 449.176 686.513 449.698 683.273C450.71 682.689 451.722 682.104 452.734 681.52C469.969 698.86 487.205 716.2 502.885 731.976C519.708 716.259 535.717 701.302 552.266 685.77Z" fill="#FFFEFE"/>
<path d="M372.487 699.093C384.149 688.028 395.211 677.409 406.488 667.021C408.349 665.307 411.147 664.61 413.512 663.443C414.605 666.104 416.647 668.763 416.652 671.426C416.82 754.378 416.736 837.331 416.884 920.283C416.897 927.348 413.636 929.386 407.347 929.372C374.582 929.297 341.816 929.257 309.051 929.4C301.82 929.431 299.388 926.322 299.418 919.237C299.62 872.185 299.255 825.128 299.886 778.084C299.964 772.293 303.522 765.231 307.736 761.037C328.727 740.145 350.477 720.014 372.487 699.093Z" fill="#FFFEFE"/>
<path d="M399.783 625.884C362.872 662.467 326.484 698.527 290.681 734.005C282.585 726.165 274.43 718.27 266.551 710.641C317.988 659.679 369.924 608.222 421.067 557.551C446.677 583.194 474.141 610.692 500.701 637.286C561.923 576.068 620.772 517.223 680.06 457.94C675.124 452.748 668.555 445.838 660.177 437.027C690.362 430.303 718.349 424.069 749.436 417.144C742.952 447.653 736.947 475.906 730.3 507.185C721.886 499.148 715.268 492.824 708.837 486.681C641.586 553.938 574.387 621.146 508.017 687.522C478.962 658.438 451.496 630.944 421.607 601.024C413.019 610.835 406.662 618.097 399.783 625.884Z" fill="#FFFEFE"/>
<path d="M108.225 285.701C80.8526 264.524 79.8498 214.267 105.745 192.566C106.787 191.692 107.782 190.76 108.807 189.849C86.2242 166.104 83.6463 128.692 103.058 109.389C120.457 92.0875 156.327 91.9792 173.975 108.619C189.058 122.841 194.914 167.119 169.399 189.381C192.892 213.557 197.707 252.07 180.2 275.767C165.661 295.447 134.66 299.962 108.225 285.701ZM124.668 252.431C126.667 259.911 129.652 266.693 139.006 266.052C148.289 265.416 152.481 258.912 152.969 250.609C153.576 240.282 153.638 229.813 152.611 219.538C151.874 212.17 147.469 206.511 138.883 206.534C130.923 206.556 126.284 211.509 125.488 218.607C124.296 229.224 124.537 240.002 124.668 252.431ZM125.925 160.834C126.321 162.161 126.325 163.871 127.181 164.75C130.924 168.595 134.419 174.384 138.924 175.403C146.658 177.153 149.815 169.887 150.488 163.657C151.478 154.489 151.474 145.109 150.802 135.898C150.302 129.059 145.538 122.965 138.678 124.635C133.796 125.823 127.979 131.484 126.497 136.344C124.366 143.33 125.797 151.402 125.925 160.834Z" fill="#FEFCFC"/>
<path d="M613.308 255.458C613.315 267.963 613.315 279.424 613.315 291.092C605.985 293.991 603.027 291.866 603.261 283.997C603.61 272.202 603.351 260.389 601.427 248.331C598.925 260.452 596.644 272.627 593.754 284.656C593.086 287.441 590.34 289.726 588.55 292.242C586.483 289.595 583.298 287.23 582.547 284.251C579.76 273.189 577.775 261.925 575.488 250.737C574.616 250.746 573.743 250.754 572.871 250.762C572.871 262.11 572.68 273.462 572.942 284.804C573.1 291.623 570.258 293.611 563.348 291.455C563.348 267.776 563.348 243.938 563.348 219.348C568.453 219.348 572.794 219.348 577.651 219.348C580.756 234.007 583.849 248.614 586.942 263.22C587.56 263.362 588.177 263.504 588.795 263.646C592.192 248.813 595.59 233.981 599.027 218.975C603.462 218.975 607.218 218.975 613.3 218.975C613.3 230.986 613.3 242.699 613.308 255.458Z" fill="#F9F0F3"/>
<path d="M500.677 407.668C497.965 410.139 495.285 411.674 491.648 413.756C491.648 387.432 491.648 363.577 491.648 339.273C496.881 339.273 500.917 339.273 505.74 339.273C509 354.513 512.239 369.66 515.479 384.807C515.97 384.813 516.461 384.818 516.952 384.824C519.438 373.314 521.886 361.796 524.421 350.297C527.022 338.504 527.059 338.512 540.57 339.285C540.57 363.024 540.57 386.882 540.57 411.475C538.468 411.475 535.621 411.475 531.336 411.475C531.336 399.229 531.336 387.217 531.336 375.205C530.379 375.105 529.421 375.005 528.464 374.905C526.286 384.66 524.403 394.497 521.755 404.123C520.935 407.103 518.036 409.512 516.09 412.182C514.278 409.343 511.624 406.724 510.811 403.623C508.189 393.625 506.246 383.448 504.041 373.341C502.931 373.364 501.821 373.388 500.711 373.411C500.711 384.518 500.711 395.625 500.677 407.668Z" fill="#FAF4F6"/>
<path d="M808.883 136.099C808.884 123.239 808.884 111.424 808.884 99.7801C816.274 96.2106 819.388 99.2786 821.785 105.529C825.438 115.055 829.817 124.303 835.966 133.222C835.966 121.976 835.966 110.729 835.966 98.9329C840.243 98.9329 843.511 98.9329 847.277 98.9329C847.277 123.204 847.277 147.1 847.277 171.001C840.749 174.114 837.734 171.402 835.516 165.431C831.547 154.744 826.982 144.278 821.121 133.826C821.121 146.278 821.121 158.73 821.121 171.676C816.686 171.676 813.359 171.676 808.883 171.676C808.883 159.912 808.883 148.528 808.883 136.099Z" fill="#F7ECEF"/>
<path d="M542.414 138.595C539.613 141.056 536.372 143.399 536.154 145.995C535.462 154.234 535.899 162.568 535.899 171.464C531.113 171.464 527.154 171.464 522.645 171.464C522.645 147.207 522.645 123.332 522.645 98.9144C527.007 98.9144 530.974 98.9144 535.819 98.9144C535.819 108.929 535.819 118.552 535.819 128.785C540.971 128.785 545.262 128.785 550.395 128.785C550.395 118.937 550.395 109.314 550.395 99.0428C555.163 99.0428 559.128 99.0428 563.579 99.0428C563.579 122.982 563.579 146.901 563.579 171.455C559.665 171.455 555.978 171.455 550.662 171.455C550.662 162.945 550.33 154.077 550.778 145.248C551.08 139.324 548.398 137.948 542.414 138.595Z" fill="#FBF5F7"/>
<path d="M682.081 118.48C682.185 129.491 682.595 139.599 682.15 149.67C681.446 165.576 675.241 171.503 659.51 172.034C653.704 172.23 647.885 172.065 641.621 172.065C641.621 147.08 641.621 123.249 641.621 99.4993C668.766 95.1432 678.296 99.4791 682.081 118.48ZM658.191 108.699C657.33 109.151 655.72 109.597 655.717 110.055C655.589 127.524 655.609 144.994 655.609 162.457C665.137 163.154 668.462 158.998 668.236 150.726C667.943 139.966 668.769 129.131 667.739 118.46C667.403 114.979 662.767 111.913 658.191 108.699Z" fill="#F9EFF2"/>
<path d="M670.876 225.321C675.157 235.155 679.082 244.28 683.007 253.404C683.778 253.305 684.55 253.207 685.322 253.108C685.322 242.091 685.322 231.074 685.322 219.447C689.68 219.094 692.639 218.854 696.42 218.548C696.42 243.013 696.42 266.816 696.42 294.357C691.839 290.944 687.445 289.322 685.99 286.289C680.78 275.426 676.566 264.086 670.644 253.073C670.644 265.578 670.644 278.083 670.644 291.618C666.606 291.854 663.356 292.045 659.371 292.278C659.371 267.671 659.371 243.853 659.371 215.957C664.44 219.892 667.48 222.251 670.876 225.321Z" fill="#FBF6F7"/>
<path d="M618.188 364.796C618.785 342.937 628.637 334.08 646.246 338.396C653.825 340.253 659.244 344.725 659.603 352.419C660.296 367.289 660.752 382.278 659.629 397.091C658.786 408.223 651.852 412.693 640.049 412.814C627.536 412.943 621.05 408.638 619.479 396.956C618.099 386.69 618.546 376.178 618.188 364.796ZM633.65 350.778C633.228 365.659 632.47 380.545 632.711 395.416C632.752 397.909 637.12 400.332 639.488 402.787C641.994 400.063 646.488 397.462 646.664 394.595C647.45 381.764 647.421 368.84 646.849 355.986C646.515 348.474 642.354 345.225 633.65 350.778Z" fill="#FAF4F6"/>
<path d="M483.403 360.932C483.41 371.621 483.796 381.38 483.247 391.086C482.384 406.337 475.925 412.707 462.294 412.794C448.147 412.884 442.124 407.195 441.105 391.645C440.47 381.948 440.631 372.184 440.776 362.454C441.03 345.546 446.998 338.275 460.792 337.545C474.727 336.808 481.005 343.048 483.403 360.932ZM454.442 363.78C454.478 374.221 454.045 384.699 454.866 395.078C455.082 397.804 459.003 401.992 461.557 402.255C463.849 402.49 468.687 398.359 468.807 395.974C469.502 382.092 469.441 368.144 468.827 354.254C468.726 351.967 464.672 348.192 462.352 348.12C459.886 348.044 456.561 351.102 455.015 353.645C453.752 355.722 454.555 359.054 454.442 363.78Z" fill="#FBF6F7"/>
<path d="M394.969 401.289C394.97 380.19 394.97 360.056 394.97 340.125C401.845 337.147 405.064 339.522 407.368 345.583C411.029 355.216 415.43 364.567 421.513 373.893C421.513 362.553 421.513 351.214 421.513 339.334C425.973 339.139 429.002 339.006 432.71 338.844C432.71 363.182 432.71 387.006 432.71 414.82C427.863 410.937 423.63 409.158 422.138 406.059C416.922 395.227 412.652 383.938 406.61 373.029C406.61 385.586 406.61 398.144 406.61 411.597C402.596 411.813 399.365 411.986 395.469 412.196C395.277 408.379 395.122 405.317 394.969 401.289Z" fill="#FDF9FA"/>
<path d="M379.18 284.172C379.972 296.407 372.052 290.813 366.652 292.722C366.652 267.44 366.652 243.593 366.652 218.681C373.591 218.681 380.166 218.298 386.678 218.782C394.069 219.33 401.669 220.547 404.636 228.859C407.694 237.424 407.834 245.732 401.674 253.518C399.984 255.655 399.131 259.525 399.717 262.199C401.847 271.923 404.75 281.476 407.354 291.064C397.464 294.51 392.83 291.441 391.515 282.007C390.704 276.188 389.015 270.419 387.054 264.863C386.174 262.37 383.661 260.454 381.889 258.276C380.986 258.691 380.083 259.107 379.18 259.522C379.18 267.419 379.18 275.315 379.18 284.172ZM385.566 249.566C395.665 247.775 395.172 239.884 392.75 233.621C391.461 230.29 385.062 228.936 379.186 225.711C379.186 234.522 378.797 239.727 379.394 244.816C379.608 246.642 382.204 248.188 385.566 249.566Z" fill="#FBF5F7"/>
<path d="M299.543 119.421C299.544 112.16 299.544 105.934 299.544 98.3964C306.944 98.3964 314.075 97.1925 320.547 98.7418C326.769 100.231 335.642 103.328 337.365 107.95C339.934 114.84 339.429 124.777 336.134 131.371C333.317 137.009 332.522 140.889 334.289 146.417C336.823 154.347 338.798 162.456 341.108 170.839C331.934 174.236 326.733 171.951 325.18 161.919C324.227 155.763 322.302 149.729 320.43 143.76C319.772 141.665 317.972 139.928 316.693 138.028C315.661 138.323 314.629 138.619 313.596 138.915C313.596 149.707 313.596 160.498 313.596 171.66C308.174 171.66 304.431 171.66 299.543 171.66C299.543 154.443 299.543 137.449 299.543 119.421ZM320.477 129.733C322.826 127.143 326.54 124.869 327.231 121.894C328.562 116.165 328.424 109.534 320.608 108.185C318.306 107.787 313.102 111.374 313.219 111.699C315.367 117.669 306.825 127.121 320.477 129.733Z" fill="#FDF9FA"/>
<path d="M613.536 114.336C613.676 128.119 614.178 140.998 613.641 153.833C613.108 166.572 606.144 172.934 593.84 173.391C581.147 173.862 573.094 167.517 572.125 154.652C571.239 142.893 571.557 131.02 571.8 119.206C572.055 106.772 577.718 99.797 587.928 98.3741C602.061 96.4044 608.867 100.416 613.536 114.336ZM585.573 126.871C585.58 135.241 585.476 143.613 585.636 151.979C585.736 157.245 585.791 163.967 593.132 162.752C596.131 162.255 600.032 156.262 600.342 152.507C601.285 141.077 601.28 129.469 600.334 118.039C600.021 114.27 596.218 108.385 593.135 107.756C586.96 106.496 585.632 112.245 585.594 117.537C585.576 119.978 585.579 122.419 585.573 126.871Z" fill="#FBF5F7"/>
<path d="M393.363 117.328C393.363 110.758 393.363 105.225 393.363 98.3893C399.692 98.3893 405.491 98.3639 411.29 98.3954C419.665 98.4408 427.712 99.7611 431.159 108.675C434.581 117.525 433.468 125.832 425.426 132.14C434.429 139.693 437.283 149.862 433.402 160.531C429.74 170.596 421.302 172.016 412.169 172.059C406.306 172.086 400.444 172.064 393.363 172.064C393.363 153.672 393.363 136.019 393.363 117.328ZM422.126 153.103C421.294 138.432 419.347 136.65 406.955 139.214C406.955 146.99 406.955 154.766 406.955 162.498C414.489 163.832 420.064 162.762 422.126 153.103ZM420.62 113.194C416.577 110.935 412.534 108.677 407.016 105.594C407.016 115.133 407.016 121.764 407.016 128.371C419.615 128.681 420.828 127.438 420.62 113.194Z" fill="#FDF9FA"/>
<path d="M741.003 253.389C741.017 247.827 740.91 243.287 741.068 238.757C741.553 224.824 748.312 217.985 761.637 217.796C774.998 217.606 782.361 224.216 782.989 238.052C783.51 249.54 783.515 261.089 782.998 272.577C782.372 286.496 775.066 293.197 761.817 293.11C748.492 293.022 741.816 286.368 741.156 272.205C740.881 266.285 741.041 260.346 741.003 253.389ZM769.87 252.446C769.747 246.907 770.48 241.156 769.176 235.911C768.407 232.82 764.408 230.532 761.862 227.882C759.335 230.613 754.802 233.221 754.625 236.097C753.835 248.87 753.846 261.747 754.635 274.521C754.819 277.489 759.189 280.198 761.634 283.026C764.307 280.084 768.619 277.475 769.301 274.127C770.592 267.792 769.798 261.033 769.87 252.446Z" fill="#FDF9FA"/>
<path d="M387.15 394.465C382.695 410.088 375.856 414.598 361.109 412.482C350.584 410.971 345.614 404.28 345.301 390.458C345.057 379.694 345.001 368.913 345.308 358.151C345.696 344.542 352.927 337.61 366.152 337.534C378.791 337.462 386.363 344.009 387.087 357.093C387.758 369.214 387.239 381.4 387.15 394.465ZM374.032 362.05C374.016 361.008 374.094 359.953 373.969 358.924C373.349 353.811 373.735 347.507 366.216 347.7C358.329 347.903 358.433 354.255 358.391 359.913C358.31 370.69 357.755 381.524 358.725 392.214C359.071 396.028 362.776 402.027 365.798 402.607C372.733 403.939 373.781 397.53 373.915 392.131C374.148 382.75 374.011 373.36 374.032 362.05Z" fill="#FDF9FA"/>
<path d="M587.848 349.816C586.749 365.686 586.066 380.949 586.233 396.203C586.257 398.398 590.378 400.549 592.602 402.72C594.835 400.26 597.804 398.126 599.082 395.243C600.258 392.592 599.613 389.134 599.802 385.405C604.058 385.405 608.049 385.405 611.991 385.405C614.17 405.456 607.688 413.665 590.631 412.996C579.042 412.542 572.714 406.41 571.944 393.558C571.318 383.13 571.601 372.639 571.706 362.179C571.882 344.611 579.263 336.568 594.081 337.513C608.342 338.422 613.774 346.491 611.974 364.904C608.393 364.904 604.732 364.904 600.99 364.904C595.774 360.558 605.617 344.14 587.848 349.816Z" fill="#F8EEF1"/>
<path d="M725.158 155.523C724.892 143.155 724.447 131.671 724.777 120.209C725.256 103.571 733.216 96.6907 749.309 98.2527C762.093 99.4934 767.253 108.112 764.82 124.836C761.238 124.836 757.573 124.836 753.265 124.836C752.946 121.24 753.327 117.578 752.139 114.526C751.071 111.78 748.283 109.702 746.253 107.33C743.805 109.745 739.372 112.057 739.241 114.592C738.54 128.114 738.552 141.711 739.225 155.237C739.359 157.926 743.446 160.419 745.711 163.002C747.95 160.468 750.886 158.25 752.221 155.306C753.416 152.669 752.847 149.233 753.117 145.252C757.053 145.052 760.692 144.867 764.213 144.689C768.045 159.238 763.431 169.212 751.795 172.426C738.796 176.016 729.563 170.432 725.158 155.523Z" fill="#F9EFF2"/>
<path d="M505.946 241.238C505.971 252.351 505.843 262.468 506.082 272.576C506.197 277.409 506.253 283.762 513.285 282.411C515.97 281.895 518.061 276.532 519.707 273.041C520.651 271.038 520.159 268.358 520.356 265.33C524.437 265.33 528.095 265.33 531.742 265.33C535.351 280.565 529.678 290.978 516.74 292.979C502.53 295.176 492.899 286.985 492.242 271.608C491.826 261.861 492.012 252.082 492.125 242.319C492.326 225.055 498.968 217.496 513.483 217.747C528.019 217.998 533.226 224.935 532.763 244.253C528.872 244.253 524.947 244.253 521.045 244.253C517.223 239.338 524.231 228.264 512.62 228.286C505.102 228.299 506.405 235.215 505.946 241.238Z" fill="#F8EEF1"/>
<path d="M353.332 245.019C346.538 245.991 346.127 242.668 345.443 237.803C344.953 234.317 341.383 231.264 339.187 228.018C336.635 231.472 332.218 234.756 331.884 238.413C330.906 249.132 331.335 260.006 331.656 270.806C331.814 276.116 330.927 283.079 339.447 282.802C347.709 282.534 345.113 275.673 345.787 270.934C346.023 269.272 346.098 267.588 346.298 265.338C350.365 265.338 354.012 265.338 357.614 265.338C360.823 284.154 353.121 294.333 336.909 293.071C326.278 292.243 319.247 286.16 318.612 275.205C317.847 262.004 317.731 248.68 318.598 235.493C319.466 222.283 329.205 215.922 343.111 218.004C354.328 219.684 361.331 230.314 358.617 242.09C358.329 243.338 355.734 244.054 353.332 245.019Z" fill="#FBF6F7"/>
<path d="M335.903 345.118C337.617 351.805 338.842 357.827 340.266 364.828C335.148 364.828 331.514 364.828 327.052 364.828C326.77 361.624 327.298 357.904 325.956 355.069C324.579 352.16 321.374 350.116 318.969 347.693C316.702 349.947 312.576 352.121 312.475 354.469C311.875 368.371 311.905 382.328 312.532 396.23C312.635 398.503 316.657 402.165 319.042 402.31C321.25 402.444 324.67 399.15 325.778 396.594C327.078 393.595 326.459 389.764 326.716 385.589C330.408 385.589 334.093 385.589 337.881 385.589C342.296 404.017 334.393 414.087 316.102 412.891C306.362 412.254 300.054 407.142 299.406 397.532C298.494 384.023 298.511 370.419 298.804 356.87C298.977 348.852 301.826 341.578 310.572 339.047C319.687 336.41 328.507 336.36 335.903 345.118Z" fill="#FAF4F6"/>
<path d="M353.573 126.977C355.451 117.252 357.178 108.406 359.013 99.0115C363.695 99.0115 368.09 99.0115 373.637 99.0115C378.356 122.697 383.142 146.721 388.079 171.498C383.392 171.498 379.771 171.498 375.88 171.498C374.759 165.969 373.736 160.929 372.628 155.463C368.699 155.463 364.976 155.463 360.479 155.463C359.422 160.342 358.339 165.338 357 171.517C353.768 171.701 350.136 171.906 344.574 172.221C347.656 156.767 350.539 142.311 353.573 126.977ZM362.091 143.374C364.689 144.621 367.288 145.867 372.011 148.133C370.075 137.907 368.754 130.932 367.434 123.957C366.673 124.067 365.912 124.178 365.151 124.288C364.171 130.04 363.192 135.792 362.091 143.374Z" fill="#FCF7F8"/>
<path d="M470.644 117.764C474.206 136.004 477.573 153.37 481.075 171.435C476.981 171.435 473.321 171.435 469.017 171.435C467.995 166.366 466.982 161.344 465.839 155.676C461.836 155.676 457.876 155.676 453.448 155.676C452.366 160.754 451.292 165.79 450.089 171.433C446.394 171.433 442.745 171.433 437.836 171.433C442.623 147.18 447.36 123.183 452.168 98.8281C456.997 98.8281 461.425 98.8281 466.505 98.8281C467.821 104.854 469.135 110.872 470.644 117.764ZM460.964 124.962C460.138 124.49 459.311 124.018 458.484 123.546C457.271 130.376 456.035 137.203 454.887 144.044C454.797 144.58 455.31 145.218 455.822 146.514C458.488 146.351 461.38 146.173 464.558 145.978C463.347 138.918 462.292 132.766 460.964 124.962Z" fill="#FCF7F8"/>
<path d="M450.562 280.207C450.044 276.766 449.747 274.063 449.389 270.801C453.097 270.045 456.341 269.383 459.734 268.691C460.216 270.127 460.361 271.195 460.888 272.019C463.152 275.559 465.338 279.195 468.092 282.32C468.454 282.731 473.726 280.269 473.659 279.362C473.328 274.844 473.235 269.428 470.703 266.143C466.091 260.159 459.447 255.791 454.332 250.132C448.11 243.248 447.618 234.811 451.401 226.716C455.189 218.613 462.879 217.114 470.976 217.967C480.88 219.009 485.174 224.86 485.524 237.707C482.668 238.21 479.716 238.731 477.065 239.198C476.203 238.329 475.68 237.912 475.292 237.393C472.993 234.314 470.903 231.036 468.231 228.328C467.879 227.971 462.875 230.714 462.994 231.637C463.532 235.801 464.12 240.637 466.579 243.728C471.311 249.674 477.902 254.135 482.672 260.057C491.027 270.43 489.162 284.543 479.431 290.369C468.985 296.624 457.232 292.757 450.562 280.207Z" fill="#FAF4F6"/>
<path d="M294.156 288.511C284.269 290.754 274.448 292.161 263.785 293.688C263.785 267.633 263.785 243.815 263.785 220.043C284.493 215.589 293.527 217.789 293.318 227.869C288.024 228.132 282.659 228.398 276.909 228.684C276.909 235.373 276.909 241.52 276.909 248.462C280.831 248.809 284.826 249.163 288.822 249.518C290.908 258.285 290.908 258.285 277.178 259.391C277.178 266.737 277.178 274.16 277.178 281.597C281.722 286.693 291.547 277.109 294.156 288.511Z" fill="#F9F0F3"/>
<path d="M428.912 260.085C428.129 267.686 428.129 274.622 428.129 280.854C432.367 287.052 446.093 276.48 445.663 291.825C434.993 291.825 425.382 291.825 415.117 291.825C415.117 267.625 415.117 243.799 415.117 219.959C434.937 215.585 444.857 217.876 445.158 227.603C442.522 227.832 439.849 228.157 437.168 228.271C434.431 228.388 431.685 228.297 428.354 228.297C428.354 235.399 428.354 241.776 428.354 248.535C432.64 248.89 436.713 249.228 441.242 249.603C441.242 252.531 441.242 255.125 441.242 258.082C437.193 258.551 433.444 258.985 428.912 260.085Z" fill="#F9F0F3"/>
<path d="M628.925 292.372C625.984 290.681 622.307 289.022 622.278 287.301C621.891 264.772 622.021 242.235 622.021 218.53C630.574 218.53 638.16 218.793 645.719 218.451C652.318 218.152 654.896 220.527 652.478 227.858C647.558 228.144 642.159 228.457 636.343 228.795C636.343 235.5 636.343 241.636 636.343 248.377C640.456 248.783 644.469 249.179 648.898 249.617C648.898 252.53 648.898 255.149 648.898 258.181C644.853 258.618 641.11 259.021 636.629 259.505C636.629 266.947 636.629 274.363 636.629 280.924C641.06 286.796 654.803 275.964 653.064 292.377C645.073 292.377 637.478 292.377 628.925 292.372Z" fill="#F6E9ED"/>
<path d="M277.087 379.941C276.596 387.692 276.596 394.609 276.596 400.68C281.287 406.854 294.293 396.599 294.093 411.495C283.979 411.495 274.414 411.495 264.016 411.495C264.016 387.945 264.016 364.171 264.016 339.606C273.277 339.606 282.796 339.606 292.411 339.606C294.242 347.328 294.242 347.328 277.218 348.491C277.218 354.799 277.218 361.185 277.218 368.435C281.011 368.665 285.009 368.906 288.875 369.14C290.632 378.274 290.632 378.274 277.087 379.941Z" fill="#FCF7F8"/>
<path d="M906.455 117.161C906.455 121.551 906.455 124.96 906.455 128.984C911.15 129.258 914.869 129.476 918.533 129.69C920.019 138.17 920.019 138.17 907.211 139.253C907.211 146.633 907.211 154.096 907.211 162.452C912.237 162.702 917.319 162.955 922.341 163.205C924.078 173.273 920.312 174.323 893.254 171.324C893.254 147.542 893.254 123.67 893.254 99.0706C903.159 99.0706 913.035 99.0706 923.137 99.0706C923.137 101.863 923.137 104.475 923.137 106.249C918.053 111.563 905.301 101.509 906.455 117.161Z" fill="#F9F0F3"/>
<path d="M772.689 107.105C771.893 100.577 773.485 97.8043 779.846 98.2618C787.417 98.8063 795.058 98.39 803.197 98.39C803.197 101.763 803.197 104.324 803.197 107.37C797.701 107.768 792.589 108.138 786.753 108.56C786.753 115.32 786.753 121.716 786.753 127.67C790.193 132.378 802.533 124.235 799.258 137.921C795.43 138.31 791.427 138.717 786.728 139.194C786.728 146.955 786.728 154.378 786.728 161.008C791.518 166.395 804.074 157.099 803.966 171.577C793.24 171.577 783.61 171.577 772.689 171.577C772.689 150.381 772.689 129.249 772.689 107.105Z" fill="#FDF9FA"/>
<path d="M720.258 100.422C720.281 114.782 709.117 104.258 703.988 110.226C703.988 114.966 703.988 121.394 703.988 128.124C706.782 132.366 719.459 124.304 715.854 137.91C712.4 138.279 708.719 138.673 704.111 139.166C704.111 146.463 704.111 153.888 704.111 162.481C708.805 162.704 713.879 162.944 719.407 163.206C721.336 168.449 721.915 172.445 713.993 172.177C706.09 171.909 698.17 172.118 689.82 172.118C689.82 147.062 689.82 123.208 689.82 97.9659C700.303 98.4904 710.209 98.986 720.258 100.422Z" fill="#F9F0F3"/>
<path d="M712.422 218.642C718.961 218.642 724.543 218.921 730.086 218.572C737.229 218.122 739.779 220.735 737.127 228.107C734.134 228.406 731.09 228.71 726.963 229.122C726.963 249.674 726.963 270.367 726.963 291.65C722.223 291.65 718.546 291.65 713.447 291.65C713.447 271.077 713.447 250.453 713.447 229.536C708.801 228.914 705.501 228.472 701.879 227.986C701.879 224.945 701.879 222.298 701.879 219.063C705.304 218.912 708.376 218.777 712.422 218.642Z" fill="#FBF5F7"/>
<path d="M270.2 156.884C270.2 140.585 270.2 125.315 270.2 109.215C266.52 108.868 263.247 108.559 259.32 108.188C259.32 105.055 259.32 102.158 259.32 98.7901C271.046 98.7901 282.413 98.7901 294.665 98.7901C294.885 101.549 295.114 104.416 295.384 107.806C291.494 108.371 288.219 108.848 284.069 109.451C284.069 130.151 284.069 150.531 284.069 171.506C279.158 171.506 275.192 171.506 270.2 171.506C270.2 166.79 270.2 162.351 270.2 156.884Z" fill="#F9EFF2"/>
<path d="M869.272 172.117C866.66 169.407 863.644 166.735 863.578 163.994C863.149 145.998 863.357 127.986 863.357 109.392C859.737 108.95 856.767 108.587 852.883 108.112C852.541 105.415 852.172 102.508 851.719 98.9348C864.021 98.9348 875.682 98.9348 887.893 98.9348C887.893 101.905 887.893 104.846 887.893 108.137C884.38 108.462 881.339 108.743 877.269 109.119C877.269 127.464 877.13 145.802 877.357 164.135C877.422 169.429 876.774 173.157 869.272 172.117Z" fill="#F9EFF2"/>
<path d="M517.31 169.563C507.301 171.284 497.421 172.011 486.77 172.795C486.77 147.62 486.77 123.763 486.77 99.1216C490.577 99.1216 494.541 99.1216 499.845 99.1216C499.845 119.885 499.845 140.902 499.845 160.078C505.583 166.565 515.888 156.935 517.31 169.563Z" fill="#F8EEF1"/>
<path d="M553.65 285.562C553.053 297.062 545.487 289.676 540.852 293.652C540.852 267.44 540.852 243.649 540.852 219.26C544.865 219.26 548.54 219.26 553.653 219.26C553.653 241.11 553.653 262.881 553.65 285.562Z" fill="#FCF7F8"/>
<path d="M555.117 338.889C558.667 340.608 563.395 342.299 563.436 344.097C563.943 366.322 563.767 388.563 563.767 411.472C559.38 411.472 555.744 411.472 550.908 411.472C550.908 388.058 550.881 364.509 551.043 340.961C551.047 340.27 553.048 339.593 555.117 338.889Z" fill="#FEFDFD"/>
<path d="M473.017 326.847C473.898 328.834 474.455 330.074 475.012 331.314C474.454 332.163 473.897 333.013 473.34 333.862C469.411 331.392 465.483 328.922 461.522 326.433C459.189 328.298 455.429 331.303 451.67 334.308C450.431 333.074 449.192 331.841 447.953 330.607C452.21 325.776 455.591 319.127 460.935 316.552C468.436 312.938 469.772 321.49 473.017 326.847Z" fill="#F9EFF2"/>
<path d="M124.418 251.571C124.537 240.002 124.296 229.224 125.487 218.607C126.284 211.509 130.923 206.556 138.882 206.534C147.469 206.511 151.873 212.17 152.61 219.538C153.638 229.813 153.576 240.282 152.969 250.609C152.481 258.912 148.289 265.416 139.006 266.052C129.652 266.693 126.667 259.911 124.418 251.571Z" fill="#A41F47"/>
<path d="M125.816 159.922C125.797 151.402 124.366 143.33 126.497 136.344C127.979 131.484 133.796 125.823 138.678 124.635C145.538 122.965 150.303 129.059 150.802 135.898C151.474 145.109 151.478 154.489 150.488 163.657C149.816 169.887 146.658 177.153 138.924 175.403C134.419 174.384 130.924 168.595 127.181 164.75C126.325 163.871 126.321 162.161 125.816 159.922Z" fill="#A41F47"/>
<path d="M659.146 108.678C662.768 111.913 667.405 114.979 667.741 118.461C668.771 129.131 667.945 139.966 668.238 150.726C668.463 158.998 665.139 163.154 655.61 162.457C655.61 144.994 655.591 127.524 655.719 110.055C655.722 109.597 657.332 109.151 659.146 108.678Z" fill="#A31C45"/>
<path d="M634.256 350.122C642.352 345.225 646.513 348.474 646.847 355.986C647.419 368.839 647.448 381.764 646.661 394.595C646.486 397.462 641.992 400.063 639.486 402.787C637.117 400.332 632.75 397.909 632.709 395.416C632.468 380.545 633.225 365.659 634.256 350.122Z" fill="#A31C45"/>
<path d="M454.442 362.805C454.555 359.054 453.752 355.722 455.015 353.645C456.561 351.102 459.886 348.044 462.351 348.12C464.672 348.192 468.726 351.967 468.827 354.254C469.441 368.144 469.502 382.092 468.806 395.974C468.687 398.359 463.849 402.49 461.557 402.255C459.003 401.992 455.082 397.804 454.866 395.078C454.045 384.699 454.477 374.221 454.442 362.805Z" fill="#A31C45"/>
<path d="M384.64 249.714C382.205 248.188 379.609 246.642 379.395 244.816C378.798 239.727 379.187 234.522 379.187 225.711C385.063 228.936 391.462 230.29 392.751 233.621C395.173 239.884 395.666 247.775 384.64 249.714Z" fill="#A41F47"/>
<path d="M319.631 129.799C306.829 127.121 315.37 117.669 313.222 111.699C313.105 111.374 318.31 107.787 320.611 108.185C328.428 109.534 328.565 116.165 327.235 121.894C326.543 124.869 322.829 127.143 319.631 129.799Z" fill="#AA2D52"/>
<path d="M585.574 125.866C585.58 122.419 585.577 119.978 585.594 117.537C585.633 112.244 586.96 106.496 593.136 107.756C596.218 108.385 600.022 114.27 600.334 118.039C601.28 129.469 601.285 141.077 600.342 152.507C600.032 156.262 596.132 162.255 593.132 162.752C585.791 163.967 585.736 157.245 585.636 151.979C585.477 143.613 585.581 135.241 585.574 125.866Z" fill="#A41F47"/>
<path d="M421.951 153.901C420.065 162.762 414.49 163.832 406.956 162.498C406.956 154.766 406.956 146.99 406.945 139.205C419.348 136.65 421.295 138.432 421.951 153.901Z" fill="#AA2D52"/>
<path d="M420.768 114.034C420.828 127.438 419.614 128.681 407.016 128.371C407.016 121.764 407.016 115.133 407.016 105.594C412.533 108.677 416.576 110.935 420.768 114.034Z" fill="#AA2D52"/>
<path d="M769.871 253.448C769.799 261.033 770.593 267.792 769.302 274.127C768.62 277.475 764.308 280.084 761.635 283.026C759.191 280.198 754.82 277.489 754.636 274.521C753.847 261.747 753.836 248.87 754.626 236.097C754.803 233.22 759.336 230.613 761.863 227.882C764.409 230.531 768.408 232.82 769.177 235.911C770.481 241.156 769.748 246.907 769.871 253.448Z" fill="#AA2D52"/>
<path d="M374.03 363.012C374.011 373.36 374.148 382.75 373.915 392.131C373.782 397.53 372.733 403.939 365.798 402.607C362.777 402.027 359.071 396.028 358.725 392.214C357.755 381.524 358.311 370.69 358.391 359.913C358.433 354.255 358.329 347.903 366.216 347.7C373.736 347.507 373.349 353.811 373.97 358.924C374.095 359.953 374.016 361.008 374.03 363.012Z" fill="#AA2D52"/>
<path d="M362.152 142.459C363.193 135.792 364.172 130.04 365.151 124.288C365.912 124.178 366.673 124.067 367.434 123.957C368.755 130.932 370.075 137.907 372.011 148.133C367.288 145.867 364.69 144.621 362.152 142.459Z" fill="#AA2D52"/>
<path d="M461.103 125.788C462.294 132.766 463.35 138.918 464.561 145.978C461.383 146.173 458.49 146.351 455.825 146.514C455.313 145.218 454.799 144.58 454.889 144.044C456.038 137.203 457.273 130.376 458.487 123.546C459.314 124.018 460.14 124.49 461.103 125.788Z" fill="#AA2D52"/>
</g>
</g>
<defs>
<clipPath id="clip0_557_624">
<rect width="1024" height="1024" fill="white"/>
</clipPath>
<clipPath id="clip1_557_624">
<rect width="1024" height="1026" fill="white"/>
</clipPath>
</defs>
</svg>
