<svg version="1.1" id="Layer_1" xmlns="http://www.w3.org/2000/svg" xmlns:xlink="http://www.w3.org/1999/xlink" x="0px" y="0px"
	 width="100%" viewBox="0 0 489 490" enable-background="new 0 0 489 490" xml:space="preserve">
<path fill="#FFFFFF" opacity="1.000000" stroke="none" 
	d="
M1.000000,169.000000 
	C1.000000,112.680908 1.000000,56.861813 1.000000,1.021360 
	C163.944183,1.021360 326.888367,1.021360 489.916260,1.021360 
	C489.916260,164.235825 489.916260,327.471710 489.916260,490.853790 
	C327.000092,490.853790 164.000061,490.853790 1.000000,490.853790 
	C1.000000,383.778168 1.000000,276.639099 1.000000,169.000000 
M485.001373,101.500000 
	C485.001373,74.667160 485.004364,47.834312 484.999878,21.001471 
	C484.998047,10.117248 480.844818,5.999853 469.866699,5.999727 
	C320.036652,5.998002 170.206604,5.998190 20.376545,5.999294 
	C9.049180,5.999378 4.999619,10.016428 4.999512,21.258200 
	C4.998089,171.088257 4.998081,320.918304 4.999522,470.748352 
	C4.999629,481.983673 9.052792,486.000580 20.383120,486.000671 
	C170.046509,486.001740 319.709900,486.001587 469.373291,486.000854 
	C481.049561,486.000824 485.000732,482.080353 485.000824,470.491943 
	C485.001770,347.827972 485.001373,225.163986 485.001373,101.500000 
z"/>
<path fill="#A21A43" opacity="1.000000" stroke="none" 
	d="
M485.001373,102.000000 
	C485.001373,225.163986 485.001770,347.827972 485.000824,470.491943 
	C485.000732,482.080353 481.049561,486.000824 469.373291,486.000854 
	C319.709900,486.001587 170.046509,486.001740 20.383120,486.000671 
	C9.052792,486.000580 4.999629,481.983673 4.999522,470.748352 
	C4.998081,320.918304 4.998089,171.088257 4.999512,21.258200 
	C4.999619,10.016428 9.049180,5.999378 20.376545,5.999294 
	C170.206604,5.998190 320.036652,5.998002 469.866699,5.999727 
	C480.844818,5.999853 484.998047,10.117248 484.999878,21.001471 
	C485.004364,47.834312 485.001373,74.667160 485.001373,102.000000 
M339.806702,263.731201 
	C339.512115,261.135284 339.217529,258.539368 338.842773,255.236938 
	C337.040558,256.324951 336.253357,256.630310 335.685730,257.167603 
	C319.244110,272.730469 302.744110,288.233887 286.518463,304.019196 
	C284.785278,305.705353 283.931000,309.056000 283.921387,311.639160 
	C283.763763,353.925354 283.857666,396.212494 283.729370,438.498901 
	C283.716553,442.728607 285.218475,443.951080 289.249115,443.904999 
	C303.731293,443.739441 318.216522,443.844574 332.700592,443.839386 
	C339.793182,443.836823 339.805603,443.821808 339.805817,436.490326 
	C339.807404,379.220001 339.806702,321.949707 339.806702,263.731201 
M263.471466,327.786469 
	C255.826126,334.929840 248.180786,342.073212 240.147507,349.579041 
	C232.659515,342.045013 224.428787,333.763702 216.198074,325.482422 
	C215.714935,325.761414 215.231796,326.040436 214.748657,326.319458 
	C214.499237,327.866760 214.033844,329.413818 214.032074,330.961395 
	C213.991119,366.766235 214.042770,402.571259 213.943298,438.375854 
	C213.931793,442.519379 215.484970,443.935791 219.552231,443.894714 
	C234.372269,443.745117 249.196655,443.702576 264.015167,443.914948 
	C268.618622,443.980896 270.090424,442.352936 270.073639,437.808594 
	C269.940796,401.837677 270.018005,365.865997 269.941681,329.894745 
	C269.938171,328.233429 269.087067,326.573914 268.630737,324.913544 
	C267.082397,325.688080 265.534088,326.462646 263.471466,327.786469 
M177.626129,334.124603 
	C167.367157,343.866577 156.980682,353.480438 146.956451,363.458282 
	C144.944183,365.461212 143.245041,368.833984 143.207932,371.599396 
	C142.906540,394.066986 143.080612,416.540527 142.984467,439.011749 
	C142.970001,442.395569 144.131500,443.880341 147.584290,443.865326 
	C163.230896,443.797333 178.878021,443.816284 194.524841,443.851898 
	C197.528137,443.858734 199.085114,442.885681 199.079071,439.511261 
	C199.008224,399.894745 199.048431,360.278046 198.968262,320.661560 
	C198.965683,319.389709 197.990479,318.119812 197.468674,316.848999 
	C196.339310,317.406403 195.003174,317.739319 194.114471,318.557983 
	C188.729477,323.518707 183.446594,328.590332 177.626129,334.124603 
M191.161026,298.660675 
	C194.196609,295.192444 197.232193,291.724213 201.333069,287.038849 
	C215.606384,301.327911 228.722656,314.458649 242.597580,328.348907 
	C274.291443,296.648560 306.381958,264.551514 338.496613,232.430267 
	C341.567719,235.364517 344.728333,238.384293 348.746124,242.223083 
	C351.920624,227.284653 354.788025,213.791260 357.884369,199.220642 
	C343.038910,202.527878 329.674438,205.505173 315.259979,208.716400 
	C319.260529,212.924759 322.397705,216.224915 324.754456,218.704086 
	C296.442535,247.016708 268.339630,275.120300 239.103897,304.356781 
	C226.420410,291.656158 213.305389,278.523468 201.075348,266.276947 
	C176.652588,290.476440 151.851166,315.051147 127.287849,339.389923 
	C131.050690,343.033508 134.944702,346.804077 138.811142,350.548004 
	C155.908112,333.604309 173.285095,316.383087 191.161026,298.660675 
M51.980854,136.664032 
	C64.305550,143.256516 79.109695,141.100372 86.052750,131.701660 
	C94.413017,120.384476 92.113525,101.991287 80.894890,90.444969 
	C93.079178,79.812965 90.282982,58.666920 83.080048,51.874718 
	C74.652451,43.927681 57.522968,43.979404 49.214611,52.242104 
	C39.944626,61.461136 41.175652,79.328354 51.959812,90.668457 
	C51.470299,91.103912 50.995426,91.548698 50.497524,91.966019 
	C38.131641,102.330322 38.610500,126.332321 51.980854,136.664032 
M292.874268,121.503235 
	C292.874268,115.909065 292.874268,110.314896 292.874268,104.578827 
	C289.970032,104.578827 288.176239,104.578827 286.058441,104.578827 
	C284.417023,111.745079 282.794464,118.828888 281.171936,125.912704 
	C280.877075,125.844948 280.582214,125.777191 280.287384,125.709442 
	C278.810211,118.733559 277.333008,111.757683 275.850586,104.757057 
	C273.530914,104.757057 271.458130,104.757057 269.020020,104.757057 
	C269.020020,116.500565 269.020020,127.885323 269.020020,139.194031 
	C272.319885,140.223755 273.677246,139.274216 273.601868,136.017685 
	C273.476501,130.600922 273.567688,125.179169 273.567688,119.759514 
	C273.984314,119.755638 274.400909,119.751755 274.817535,119.747879 
	C275.909424,125.091080 276.857605,130.470490 278.188477,135.753464 
	C278.546875,137.176010 280.067902,138.305649 281.055206,139.569733 
	C281.909943,138.368393 283.221069,137.276642 283.540466,135.946716 
	C284.920166,130.202011 286.009521,124.387581 287.204559,118.598526 
	C288.123413,124.357475 288.246948,129.999130 288.079987,135.632172 
	C287.968567,139.390121 289.380890,140.405151 292.881470,139.020508 
	C292.881470,133.448212 292.881470,127.974754 292.874268,121.503235 
M239.109222,194.247925 
	C239.109222,188.943542 239.109222,183.639175 239.109222,178.334793 
	C239.639328,178.323547 240.169449,178.312286 240.699554,178.301041 
	C241.752518,183.128372 242.680649,187.988434 243.932617,192.763580 
	C244.320908,194.244583 245.588364,195.495071 246.453308,196.851105 
	C247.383026,195.575851 248.767303,194.425598 249.158752,193.002304 
	C250.423187,188.404968 251.322464,183.707199 252.362457,179.048141 
	C252.819656,179.095856 253.276871,179.143570 253.734070,179.191284 
	C253.734070,184.928055 253.734070,190.664825 253.734070,196.513214 
	C255.780106,196.513214 257.139679,196.513214 258.143829,196.513214 
	C258.143829,184.768143 258.143829,173.374008 258.143829,162.036850 
	C251.691666,161.667572 251.673843,161.663651 250.432098,167.296036 
	C249.221405,172.787659 248.052322,178.288437 246.864960,183.785202 
	C246.630585,183.782608 246.396210,183.779999 246.161835,183.777390 
	C244.614700,176.543472 243.067581,169.309540 241.510849,162.030731 
	C239.207962,162.030731 237.280502,162.030731 234.781708,162.030731 
	C234.781708,173.638260 234.781708,185.030899 234.781708,197.602676 
	C236.518265,196.608215 237.797943,195.875397 239.109222,194.247925 
M386.272278,65.497551 
	C386.272278,70.934486 386.272278,76.371429 386.272278,81.989532 
	C388.409668,81.989532 389.998688,81.989532 392.116425,81.989532 
	C392.116425,75.806747 392.116425,69.859756 392.116425,63.912769 
	C394.915192,68.904518 397.095123,73.902916 398.990601,79.006935 
	C400.049774,81.858871 401.489441,83.154007 404.607056,81.667152 
	C404.607056,70.252533 404.607056,58.840267 404.607056,47.248642 
	C402.808777,47.248642 401.248169,47.248642 399.205627,47.248642 
	C399.205627,52.882328 399.205627,58.253395 399.205627,63.624462 
	C396.269287,59.364914 394.178162,54.948277 392.433563,50.398762 
	C391.288910,47.413727 389.801758,45.948540 386.272919,47.653259 
	C386.272919,53.214180 386.272919,58.856812 386.272278,65.497551 
M259.475647,66.189499 
	C261.882446,65.881424 263.162872,66.538803 263.019104,69.367805 
	C262.804871,73.584366 262.963531,77.819878 262.963531,81.884094 
	C265.501923,81.884094 267.262604,81.884094 269.132050,81.884094 
	C269.132050,70.157372 269.132050,58.734077 269.132050,47.301163 
	C267.006287,47.301163 265.113007,47.301163 262.835876,47.301163 
	C262.835876,52.206692 262.835876,56.802284 262.835876,61.505531 
	C260.384644,61.505531 258.335480,61.505531 255.875381,61.505531 
	C255.875381,56.618355 255.875381,52.022438 255.875381,47.239807 
	C253.561600,47.239807 251.667175,47.239807 249.584045,47.239807 
	C249.584045,58.901203 249.584045,70.303612 249.584045,81.888428 
	C251.737549,81.888428 253.628174,81.888428 255.913345,81.888428 
	C255.913345,77.639496 255.705124,73.659569 256.035522,69.724869 
	C256.139648,68.484772 257.687286,67.365891 259.475647,66.189499 
M325.683044,56.144577 
	C323.913269,47.509510 319.362152,45.438744 306.399414,47.519173 
	C306.399414,58.861671 306.399414,70.242973 306.399414,82.175453 
	C309.390472,82.175453 312.169250,82.253922 314.942230,82.160355 
	C322.454010,81.906883 325.417450,79.076271 325.753387,71.479744 
	C325.966034,66.670303 325.770325,61.842793 325.683044,56.144577 
M320.199585,107.270531 
	C318.747925,106.143486 317.296234,105.016441 314.875732,103.137199 
	C314.875732,116.460159 314.875732,127.835312 314.875732,139.586990 
	C316.778473,139.475571 318.330536,139.384689 320.258820,139.271774 
	C320.258820,132.807526 320.258820,126.835373 320.258820,120.863228 
	C323.086792,126.123108 325.099304,131.538956 327.587311,136.726761 
	C328.281891,138.175125 330.380585,138.950089 332.568024,140.580063 
	C332.568024,127.426849 332.568024,116.058777 332.568024,104.374847 
	C330.762238,104.521072 329.349579,104.635460 327.268066,104.804016 
	C327.268066,110.357109 327.268066,115.618683 327.268066,120.880257 
	C326.899597,120.927277 326.531097,120.974289 326.162628,121.021301 
	C324.288422,116.663757 322.414246,112.306206 320.199585,107.270531 
M295.207855,174.687332 
	C295.379700,179.655960 295.166107,184.676422 295.825256,189.579544 
	C296.575287,195.158691 299.672668,197.214447 305.648010,197.153107 
	C311.284302,197.095245 314.595612,194.960327 314.998474,189.643753 
	C315.534515,182.569473 315.316772,175.411118 314.985779,168.309250 
	C314.814575,164.634781 312.226746,162.498871 308.607513,161.611893 
	C300.198242,159.550995 295.493530,163.780853 295.207855,174.687332 
M230.824829,171.919495 
	C229.698868,163.833801 226.700562,160.853485 220.046310,161.205658 
	C213.458862,161.554276 210.609055,165.026733 210.487991,173.101913 
	C210.418320,177.748459 210.341843,182.411942 210.645126,187.043137 
	C211.131439,194.469528 214.007645,197.186127 220.763428,197.143082 
	C227.272995,197.101608 230.357437,194.059753 230.769318,186.775909 
	C231.031448,182.140503 230.847275,177.479828 230.824829,171.919495 
M188.611969,192.109985 
	C188.685669,193.572403 188.759369,195.034821 188.851227,196.857513 
	C190.711838,196.757538 192.254776,196.674637 194.171570,196.571625 
	C194.171570,190.146652 194.171570,184.149460 194.171570,178.152267 
	C197.056793,183.362366 199.095856,188.753448 201.586777,193.926971 
	C202.299240,195.406769 204.320511,196.256454 206.635406,198.111145 
	C206.635406,184.827560 206.635406,173.449371 206.635406,161.825836 
	C204.864746,161.903458 203.418289,161.966873 201.288269,162.060257 
	C201.288269,167.733932 201.288269,173.149307 201.288269,178.564697 
	C198.383469,174.111099 196.281906,169.644882 194.533295,165.044510 
	C193.433029,162.149841 191.895859,161.015717 188.612732,162.437759 
	C188.612732,171.956573 188.612732,181.572006 188.611969,192.109985 
M181.073547,135.257080 
	C181.073547,131.485825 181.073547,127.714561 181.073547,123.943298 
	C181.504700,123.744896 181.935867,123.546501 182.367020,123.348099 
	C183.213196,124.388229 184.413239,125.303444 184.833481,126.493935 
	C185.770142,129.147491 186.576736,131.902435 186.964005,134.681870 
	C187.591736,139.187057 189.804672,140.653122 194.527618,139.007019 
	C193.284286,134.428253 191.897781,129.865540 190.880539,125.221947 
	C190.600677,123.944473 191.008163,122.096596 191.815353,121.076057 
	C194.756683,117.357338 194.690002,113.389793 193.229935,109.299118 
	C191.813004,105.329300 188.183624,104.748352 184.654083,104.486366 
	C181.544556,104.255554 178.404358,104.438080 175.091064,104.438080 
	C175.091064,116.335960 175.091064,127.724861 175.091064,139.799042 
	C177.669800,138.887192 181.451569,141.558975 181.073547,135.257080 
M143.044266,57.527092 
	C143.044266,65.643303 143.044266,73.759506 143.044266,81.981804 
	C145.378296,81.981804 147.165939,81.981804 149.755249,81.981804 
	C149.755249,76.651192 149.755249,71.497307 149.755249,66.343422 
	C150.248199,66.202164 150.741135,66.060905 151.234085,65.919647 
	C151.844666,66.827309 152.704590,67.656776 153.018448,68.657494 
	C153.912430,71.507988 154.831726,74.389885 155.286850,77.329735 
	C156.028595,82.120872 158.512115,83.211922 162.893005,81.589691 
	C161.789948,77.586273 160.847153,73.713432 159.636795,69.926102 
	C158.793121,67.286224 159.172852,65.433372 160.517960,62.740746 
	C162.091202,59.591415 162.332748,54.845390 161.105896,51.554966 
	C160.282898,49.347717 156.045914,47.868729 153.074661,47.157398 
	C149.983994,46.417473 146.578537,46.992439 143.044708,46.992439 
	C143.044708,50.592159 143.044708,53.565903 143.044266,57.527092 
M292.944458,54.164196 
	C290.758820,47.956928 287.508575,46.041092 280.759369,46.981789 
	C275.883820,47.661339 273.179718,50.992538 273.057770,56.930935 
	C272.941895,62.572849 272.789642,68.243347 273.212860,73.859108 
	C273.675873,80.003235 277.521484,83.033333 283.582916,82.808456 
	C289.458527,82.590485 292.783722,79.552124 293.038452,73.467911 
	C293.295105,67.338005 293.055054,61.187305 292.944458,54.164196 
M187.846466,56.529423 
	C187.846466,64.960304 187.846466,73.391190 187.846466,82.174797 
	C191.227615,82.174797 194.027283,82.185486 196.826843,82.172333 
	C201.188431,82.151833 205.217712,81.473557 206.966370,76.666862 
	C208.820023,71.571510 207.456787,66.714851 203.157623,63.108021 
	C206.998077,60.095131 207.529556,56.127705 205.895355,51.901108 
	C204.249420,47.644161 200.406479,47.013618 196.407196,46.991932 
	C193.638046,46.976913 190.868774,46.989044 187.846436,46.989044 
	C187.846436,50.253696 187.846436,52.896069 187.846466,56.529423 
M353.858246,121.504333 
	C353.876251,124.336586 353.799561,127.173256 353.931152,130.000214 
	C354.246124,136.764496 357.434174,139.942261 363.797668,139.984161 
	C370.124359,140.025818 373.613403,136.825668 373.912476,130.178284 
	C374.159363,124.691650 374.156860,119.176010 373.907959,113.689415 
	C373.608215,107.081871 370.092194,103.924965 363.711456,104.015648 
	C357.348328,104.106079 354.120728,107.371956 353.888947,114.026176 
	C353.813599,116.189766 353.864777,118.357750 353.858246,121.504333 
M184.923920,187.956604 
	C184.921555,182.150330 185.169357,176.330231 184.849045,170.541550 
	C184.503281,164.292709 180.887283,161.166046 174.851639,161.200592 
	C168.536346,161.236740 165.083374,164.547302 164.897919,171.046997 
	C164.751266,176.186310 164.778244,181.335297 164.894562,186.476227 
	C165.043915,193.077347 167.417358,196.272705 172.443573,196.994171 
	C179.485580,198.004974 182.751663,195.851181 184.923920,187.956604 
M281.049133,166.774658 
	C289.205566,164.355148 284.505402,172.196274 286.996185,174.272064 
	C288.783234,174.272064 290.531250,174.272064 292.241272,174.272064 
	C293.100891,165.478394 290.506897,161.624481 283.697052,161.190323 
	C276.620636,160.739197 273.095947,164.580231 273.011871,172.970291 
	C272.961853,177.966080 272.826843,182.976379 273.125397,187.956436 
	C273.493439,194.094238 276.515289,197.022949 282.049255,197.240036 
	C290.194611,197.559540 293.290039,193.639008 292.249695,184.062775 
	C290.367157,184.062775 288.461273,184.062775 286.428955,184.062775 
	C286.338745,185.843567 286.646606,187.495071 286.085236,188.761200 
	C285.474762,190.138168 284.056702,191.157104 282.990723,192.332123 
	C281.928314,191.295197 279.960663,190.268188 279.949158,189.219711 
	C279.869171,181.934875 280.195435,174.645554 281.049133,166.774658 
M346.371857,74.701981 
	C348.395599,81.395370 352.804626,84.062248 359.012054,82.347580 
	C364.568817,80.812637 366.772308,76.049492 364.942352,69.100822 
	C363.260681,69.186142 361.523132,69.274292 359.643616,69.369644 
	C359.514557,71.270966 359.786285,72.912041 359.215546,74.171257 
	C358.578278,75.577301 357.176056,76.636658 356.106750,77.846893 
	C355.025421,76.613205 353.073395,75.422821 353.009521,74.138542 
	C352.688263,67.678772 352.682312,61.185280 353.016998,54.727024 
	C353.079712,53.516331 355.196747,52.412090 356.365784,51.258728 
	C357.334991,52.391811 358.666504,53.383972 359.176666,54.695614 
	C359.743622,56.153175 359.561707,57.902012 359.714294,59.619415 
	C361.771271,59.619415 363.521820,59.619415 365.232300,59.619415 
	C366.394043,51.632504 363.929718,47.516361 357.825043,46.923782 
	C350.139954,46.177799 346.338867,49.463516 346.110199,57.409664 
	C345.952667,62.883801 346.165070,68.368584 346.371857,74.701981 
M241.606979,114.733551 
	C241.827621,112.334709 241.205093,109.031883 244.795151,109.025314 
	C250.340118,109.015175 246.993561,114.303818 248.818542,116.651123 
	C250.681763,116.651123 252.556458,116.651123 254.414444,116.651123 
	C254.635681,107.424965 252.148911,104.112137 245.207718,103.992050 
	C238.275864,103.872116 235.104126,107.482216 235.008270,115.727364 
	C234.954056,120.389816 234.865585,125.060173 235.064301,129.715363 
	C235.377792,137.059097 239.977158,140.970810 246.762863,139.921570 
	C252.941071,138.966263 255.650528,133.993225 253.926865,126.717148 
	C252.185364,126.717148 250.438400,126.717148 248.489380,126.717148 
	C248.395401,128.163147 248.630447,129.443008 248.179596,130.399551 
	C247.393692,132.067017 246.395142,134.628357 245.112991,134.874649 
	C241.754883,135.519714 241.727997,132.485977 241.673309,130.177597 
	C241.558914,125.350227 241.620407,120.518692 241.606979,114.733551 
M169.149063,117.015862 
	C169.877106,116.556015 171.116333,116.213974 171.253662,115.617989 
	C172.549744,109.993996 169.205841,104.917084 163.849106,104.114891 
	C157.208496,103.120445 152.557846,106.158394 152.143127,112.467224 
	C151.729095,118.765335 151.784714,125.128387 152.150024,131.433105 
	C152.453186,136.665237 155.810623,139.570175 160.887573,139.965530 
	C168.629242,140.568359 172.307175,135.706985 170.774826,126.720848 
	C169.054871,126.720848 167.312927,126.720848 165.371048,126.720848 
	C165.275543,127.795273 165.239548,128.599747 165.126755,129.393311 
	C164.805008,131.656799 166.044968,134.933365 162.099472,135.061539 
	C158.030655,135.193710 158.454208,131.868073 158.378876,129.332184 
	C158.225677,124.174301 158.020691,118.981186 158.487747,113.861961 
	C158.647079,112.115662 160.756561,110.547287 161.974991,108.897621 
	C163.023666,110.447899 164.728622,111.905952 164.962585,113.570732 
	C165.289093,115.894218 165.485748,117.481094 169.149063,117.015862 
M160.173782,164.504715 
	C156.875320,160.639893 152.663284,160.663452 148.310547,161.923157 
	C144.133896,163.131912 142.773499,166.605515 142.690796,170.435104 
	C142.551102,176.905838 142.542725,183.402573 142.978256,189.854691 
	C143.288040,194.443970 146.300354,196.885452 150.951645,197.189636 
	C159.686218,197.760849 163.459961,192.951782 161.351990,184.150482 
	C159.542755,184.150482 157.783249,184.150482 156.019974,184.150482 
	C155.897354,186.144424 156.192978,187.974106 155.572006,189.406387 
	C155.042816,190.626953 153.409897,192.200470 152.355194,192.136444 
	C151.216278,192.067276 149.295639,190.318069 149.246704,189.232727 
	C148.947372,182.593338 148.932785,175.927872 149.219238,169.288193 
	C149.267609,168.167007 151.238174,167.128754 152.320618,166.052185 
	C153.469040,167.209198 154.999481,168.185425 155.657043,169.574753 
	C156.297852,170.928741 156.045807,172.705276 156.180435,174.235535 
	C158.311142,174.235535 160.046768,174.235535 162.490829,174.235535 
	C161.810776,170.891876 161.225891,168.016174 160.173782,164.504715 
M168.773026,61.061630 
	C167.396301,67.965363 166.019577,74.869095 164.547729,82.249825 
	C167.203674,82.099426 168.938034,82.001213 170.481583,81.913803 
	C171.120987,78.962685 171.638016,76.576447 172.142822,74.246605 
	C174.290527,74.246605 176.068222,74.246605 177.944458,74.246605 
	C178.473785,76.856720 178.961960,79.263832 179.497482,81.904449 
	C181.355804,81.904449 183.084900,81.904449 185.322815,81.904449 
	C182.965546,70.071342 180.679962,58.598064 178.426544,47.286209 
	C175.777527,47.286209 173.678558,47.286209 171.442688,47.286209 
	C170.566696,51.772690 169.741760,55.997673 168.773026,61.061630 
M224.658981,55.824696 
	C224.031372,52.950550 223.403763,50.076408 222.775345,47.198631 
	C220.349197,47.198631 218.235031,47.198631 215.928864,47.198631 
	C213.633011,58.830051 211.370895,70.290649 209.084686,81.873260 
	C211.429123,81.873260 213.171600,81.873260 214.936218,81.873260 
	C215.510635,79.178383 216.023224,76.773598 216.540161,74.348358 
	C218.654617,74.348358 220.545486,74.348358 222.457321,74.348358 
	C223.003113,77.055000 223.486755,79.453407 223.974930,81.874329 
	C226.030380,81.874329 227.778030,81.874329 229.733078,81.874329 
	C228.060654,73.247040 226.452850,64.953079 224.658981,55.824696 
M215.266434,134.173965 
	C218.346146,139.815918 223.958511,141.662537 228.947174,138.675293 
	C233.593887,135.892807 234.484726,129.152847 230.494781,124.198906 
	C228.216782,121.370499 225.069443,119.239807 222.809784,116.400078 
	C221.635361,114.924179 221.354797,112.614326 221.097961,110.625984 
	C221.040985,110.184937 223.430511,108.875221 223.598694,109.045692 
	C224.874390,110.338669 225.872482,111.904312 226.970596,113.374878 
	C227.155655,113.622696 227.405624,113.822052 227.817169,114.236908 
	C229.082916,114.013756 230.492813,113.765190 231.856735,113.524727 
	C231.689331,107.389343 229.639069,104.595055 224.909500,104.097160 
	C221.042938,103.690132 217.370529,104.405785 215.561829,108.275841 
	C213.755020,112.141830 213.989944,116.170876 216.961502,119.458801 
	C219.403870,122.161217 222.576584,124.247589 224.779129,127.105263 
	C225.988281,128.674042 226.032822,131.260605 226.190781,133.418381 
	C226.222504,133.851654 223.705185,135.027679 223.532104,134.831253 
	C222.216965,133.338638 221.173035,131.602310 220.092041,129.911591 
	C219.840439,129.518066 219.771011,129.008072 219.540726,128.322205 
	C217.920731,128.652679 216.371384,128.968735 214.600830,129.329926 
	C214.771744,130.887604 214.913422,132.178879 215.266434,134.173965 
M140.503479,137.388168 
	C139.225784,132.342407 134.534134,136.919525 132.364197,134.485703 
	C132.364197,130.934052 132.364197,127.389038 132.364197,123.880913 
	C138.920837,123.352715 138.920837,123.352715 137.923737,119.165062 
	C136.016220,118.996010 134.108704,118.826958 132.235718,118.660965 
	C132.235718,115.345779 132.235718,112.410095 132.235718,109.215477 
	C134.981781,109.079063 137.543503,108.951805 140.071838,108.826202 
	C140.171494,104.012253 135.857544,102.961601 125.968582,105.088844 
	C125.968582,116.441895 125.968582,127.816788 125.968582,140.260559 
	C131.060715,139.531067 135.750595,138.859207 140.503479,137.388168 
M205.196365,123.893929 
	C206.986908,123.686668 208.777451,123.479408 210.710938,123.255600 
	C210.710938,121.843353 210.710938,120.604370 210.710938,119.206352 
	C208.548019,119.026993 206.603119,118.865707 204.556671,118.696014 
	C204.556671,115.468094 204.556671,112.422432 204.556671,109.030731 
	C206.147293,109.030731 207.458450,109.074028 208.765381,109.018433 
	C210.045868,108.963959 211.322083,108.808823 212.580963,108.699532 
	C212.437119,104.053635 207.699875,102.959618 198.235352,105.048576 
	C198.235352,116.434036 198.235352,127.813263 198.235352,139.370514 
	C203.137070,139.370514 207.726868,139.370514 212.822128,139.370514 
	C213.027634,132.041946 206.472672,137.090942 204.449051,134.131241 
	C204.449051,131.154678 204.449051,127.842461 205.196365,123.893929 
M300.794495,139.634033 
	C304.421265,139.634033 308.048035,139.634033 311.863800,139.634033 
	C312.694214,131.795456 306.131378,136.968658 304.015625,134.164551 
	C304.015625,131.031235 304.015625,127.489197 304.015625,123.934921 
	C306.155701,123.704086 307.942841,123.511330 309.874786,123.302948 
	C309.874786,121.854858 309.874786,120.603867 309.874786,119.212761 
	C307.759338,119.003761 305.843231,118.814461 303.878815,118.620384 
	C303.878815,115.401260 303.878815,112.470970 303.878815,109.268715 
	C306.656433,109.107300 309.234497,108.957481 311.584015,108.820938 
	C312.739044,105.320091 311.507690,104.185699 308.356537,104.328377 
	C304.746826,104.491821 301.124054,104.366249 297.039673,104.366249 
	C297.039673,115.687248 296.977844,126.450760 297.162231,137.210037 
	C297.176300,138.032013 298.932159,138.824142 300.794495,139.634033 
M132.554413,181.055603 
	C138.788040,180.656998 138.788040,180.656998 137.948929,176.295044 
	C136.102844,176.183365 134.193619,176.067871 132.381927,175.958267 
	C132.381927,172.495712 132.381927,169.445786 132.381927,166.433426 
	C140.511658,165.878052 140.511658,165.878052 139.637238,162.190155 
	C135.045670,162.190155 130.500107,162.190155 126.077484,162.190155 
	C126.077484,173.921814 126.077484,185.275848 126.077484,196.523163 
	C131.043152,196.523163 135.610794,196.523163 140.440704,196.523163 
	C140.535965,189.408722 134.325363,194.306717 132.085190,191.357666 
	C132.085190,188.458374 132.085190,185.154831 132.554413,181.055603 
M432.868561,55.485714 
	C432.317017,48.478996 438.406738,53.280643 440.834473,50.742527 
	C440.834473,49.895344 440.834473,48.648113 440.834473,47.314438 
	C436.010559,47.314438 431.294464,47.314438 426.564270,47.314438 
	C426.564270,59.062855 426.564270,70.463531 426.564270,81.821381 
	C439.485504,83.253494 441.284149,82.752304 440.454468,77.943993 
	C438.056458,77.824661 435.629578,77.703888 433.229095,77.584427 
	C433.229095,73.593521 433.229095,70.029358 433.229095,66.504745 
	C439.345764,65.987579 439.345764,65.987579 438.635956,61.937847 
	C436.886414,61.835468 435.110260,61.731533 432.868134,61.600327 
	C432.868134,59.678734 432.868134,58.050625 432.868561,55.485714 
M368.988922,51.634918 
	C368.988922,61.727127 368.988922,71.819336 368.988922,81.942062 
	C374.203827,81.942062 378.802795,81.942062 383.924774,81.942062 
	C383.976349,75.027809 377.980255,79.467316 375.693085,76.894478 
	C375.693085,73.728119 375.693085,70.183235 375.693085,66.476791 
	C377.937103,66.248734 379.848480,66.054482 381.676697,65.868683 
	C383.240601,59.332558 377.347717,63.221287 375.704773,60.973053 
	C375.704773,58.129608 375.704773,55.074764 375.704773,51.846348 
	C378.491669,51.644691 380.933014,51.468040 383.557678,51.278126 
	C383.557678,49.823475 383.557678,48.600254 383.557678,46.989376 
	C379.670929,46.989376 376.022156,47.188190 372.406403,46.928131 
	C369.368805,46.709663 368.608765,48.033833 368.988922,51.634918 
M343.883667,47.510689 
	C339.153046,47.274006 334.422424,47.037319 329.416595,46.786865 
	C329.416595,58.841816 329.416595,70.234146 329.416595,82.200729 
	C333.404114,82.200729 337.185822,82.100914 340.959778,82.228775 
	C344.743134,82.356949 344.466522,80.448555 343.545441,77.944466 
	C340.905548,77.819336 338.482391,77.704483 336.240906,77.598244 
	C336.240906,73.494492 336.240906,69.948013 336.240906,66.463219 
	C338.441467,66.227806 340.199097,66.039787 341.848663,65.863327 
	C343.570099,59.365643 337.516541,63.215961 336.182312,61.189915 
	C336.182312,57.975498 336.182312,54.905647 336.182312,52.641861 
	C338.631348,49.791935 343.962646,54.817974 343.883667,47.510689 
M339.744781,104.419327 
	C338.277802,104.484016 336.810822,104.548706 335.175415,104.620827 
	C335.175415,106.165627 335.175415,107.430099 335.175415,108.882454 
	C336.905182,109.114151 338.480865,109.325203 340.699402,109.622368 
	C340.699402,119.612274 340.699402,129.461655 340.699402,139.287018 
	C343.134674,139.287018 344.890594,139.287018 347.154236,139.287018 
	C347.154236,129.122787 347.154236,119.240120 347.154236,109.424515 
	C349.124878,109.227798 350.578308,109.082703 352.007568,108.940025 
	C353.274384,105.419281 352.056427,104.171265 348.645203,104.386269 
	C345.998566,104.553078 343.333008,104.419586 339.744781,104.419327 
M129.031448,75.416382 
	C129.031448,77.536140 129.031448,79.655891 129.031448,81.908234 
	C131.415314,81.908234 133.309326,81.908234 135.654755,81.908234 
	C135.654755,71.891190 135.654755,62.157703 135.654755,52.271797 
	C137.636261,51.983738 139.200333,51.756363 141.057968,51.486309 
	C140.928925,49.867085 140.819794,48.497932 140.714798,47.180458 
	C134.863937,47.180458 129.435623,47.180458 123.836143,47.180458 
	C123.836143,48.788792 123.836143,50.172703 123.836143,51.668564 
	C125.711319,51.845734 127.274284,51.993404 129.031631,52.159439 
	C129.031631,59.848236 129.031631,67.140991 129.031448,75.416382 
M415.569489,82.203056 
	C418.693512,82.696907 419.002777,80.916336 418.971558,78.388054 
	C418.863556,69.632362 418.929901,60.874535 418.929901,52.113579 
	C420.873444,51.933788 422.325592,51.799454 424.003052,51.644279 
	C424.003052,50.072437 424.003052,48.667973 424.003052,47.249577 
	C418.171936,47.249577 412.603210,47.249577 406.728485,47.249577 
	C406.944855,48.955925 407.120911,50.344501 407.284241,51.632496 
	C409.139099,51.859219 410.557281,52.032562 412.286194,52.243885 
	C412.286194,61.124039 412.186890,69.725937 412.391846,78.320602 
	C412.423065,79.629929 413.863708,80.905655 415.569489,82.203056 
M247.096313,80.505730 
	C246.355835,74.949608 241.434784,79.548660 238.694992,76.450722 
	C238.694992,67.292450 238.694992,57.255043 238.694992,47.338760 
	C236.161911,47.338760 234.269028,47.338760 232.450775,47.338760 
	C232.450775,59.107136 232.450775,70.500832 232.450775,82.524063 
	C237.537415,82.149727 242.255569,81.802505 247.096313,80.505730 
M264.390381,135.944824 
	C264.390381,125.547462 264.390381,115.150108 264.390381,104.714928 
	C261.948822,104.714928 260.193756,104.714928 258.277161,104.714928 
	C258.277161,116.362762 258.277161,127.724648 258.277161,140.243301 
	C260.490784,138.344147 264.104004,141.871521 264.390381,135.944824 
M264.613373,161.857605 
	C264.102448,162.183960 263.147156,162.507263 263.144897,162.837112 
	C263.067566,174.083221 263.080597,185.329941 263.080597,196.512177 
	C265.389801,196.512177 267.126282,196.512177 269.221344,196.512177 
	C269.221344,185.570847 269.305450,174.949127 269.063232,164.334824 
	C269.043640,163.476242 266.785736,162.668747 264.613373,161.857605 
M225.728790,155.739609 
	C224.333939,153.538116 223.695847,149.453598 220.113602,151.179733 
	C217.561539,152.409470 215.947189,155.585190 213.914368,157.892471 
	C214.505997,158.481567 215.097626,159.070663 215.689255,159.659760 
	C217.484604,158.224548 219.279968,156.789337 220.394257,155.898575 
	C222.285431,157.087692 224.161560,158.267349 226.037674,159.447006 
	C226.303741,159.041229 226.569809,158.635437 226.835876,158.229660 
	C226.569977,157.637527 226.304077,157.045410 225.728790,155.739609 
z"/>
<path fill="#FEFDFD" opacity="1.000000" stroke="none" 
	d="
M339.806702,264.205292 
	C339.806702,321.949707 339.807404,379.220001 339.805817,436.490326 
	C339.805603,443.821808 339.793182,443.836823 332.700592,443.839386 
	C318.216522,443.844574 303.731293,443.739441 289.249115,443.904999 
	C285.218475,443.951080 283.716553,442.728607 283.729370,438.498901 
	C283.857666,396.212494 283.763763,353.925354 283.921387,311.639160 
	C283.931000,309.056000 284.785278,305.705353 286.518463,304.019196 
	C302.744110,288.233887 319.244110,272.730469 335.685730,257.167603 
	C336.253357,256.630310 337.040558,256.324951 338.842773,255.236938 
	C339.217529,258.539368 339.512115,261.135284 339.806702,264.205292 
z"/>
<path fill="#FFFEFE" opacity="1.000000" stroke="none" 
	d="
M263.728607,327.511841 
	C265.534088,326.462646 267.082397,325.688080 268.630737,324.913544 
	C269.087067,326.573914 269.938171,328.233429 269.941681,329.894745 
	C270.018005,365.865997 269.940796,401.837677 270.073639,437.808594 
	C270.090424,442.352936 268.618622,443.980896 264.015167,443.914948 
	C249.196655,443.702576 234.372269,443.745117 219.552231,443.894714 
	C215.484970,443.935791 213.931793,442.519379 213.943298,438.375854 
	C214.042770,402.571259 213.991119,366.766235 214.032074,330.961395 
	C214.033844,329.413818 214.499237,327.866760 214.748657,326.319458 
	C215.231796,326.040436 215.714935,325.761414 216.198074,325.482422 
	C224.428787,333.763702 232.659515,342.045013 240.147507,349.579041 
	C248.180786,342.073212 255.826126,334.929840 263.728607,327.511841 
z"/>
<path fill="#FFFEFE" opacity="1.000000" stroke="none" 
	d="
M177.877869,333.874756 
	C183.446594,328.590332 188.729477,323.518707 194.114471,318.557983 
	C195.003174,317.739319 196.339310,317.406403 197.468674,316.848999 
	C197.990479,318.119812 198.965683,319.389709 198.968262,320.661560 
	C199.048431,360.278046 199.008224,399.894745 199.079071,439.511261 
	C199.085114,442.885681 197.528137,443.858734 194.524841,443.851898 
	C178.878021,443.816284 163.230896,443.797333 147.584290,443.865326 
	C144.131500,443.880341 142.970001,442.395569 142.984467,439.011749 
	C143.080612,416.540527 142.906540,394.066986 143.207932,371.599396 
	C143.245041,368.833984 144.944183,365.461212 146.956451,363.458282 
	C156.980682,353.480438 167.367157,343.866577 177.877869,333.874756 
z"/>
<path fill="#FFFEFE" opacity="1.000000" stroke="none" 
	d="
M190.911560,298.911285 
	C173.285095,316.383087 155.908112,333.604309 138.811142,350.548004 
	C134.944702,346.804077 131.050690,343.033508 127.287849,339.389923 
	C151.851166,315.051147 176.652588,290.476440 201.075348,266.276947 
	C213.305389,278.523468 226.420410,291.656158 239.103897,304.356781 
	C268.339630,275.120300 296.442535,247.016708 324.754456,218.704086 
	C322.397705,216.224915 319.260529,212.924759 315.259979,208.716400 
	C329.674438,205.505173 343.038910,202.527878 357.884369,199.220642 
	C354.788025,213.791260 351.920624,227.284653 348.746124,242.223083 
	C344.728333,238.384293 341.567719,235.364517 338.496613,232.430267 
	C306.381958,264.551514 274.291443,296.648560 242.597580,328.348907 
	C228.722656,314.458649 215.606384,301.327911 201.333069,287.038849 
	C197.232193,291.724213 194.196609,295.192444 190.911560,298.911285 
z"/>
<path fill="#FEFCFC" opacity="1.000000" stroke="none" 
	d="
M51.681873,136.445877 
	C38.610500,126.332321 38.131641,102.330322 50.497524,91.966019 
	C50.995426,91.548698 51.470299,91.103912 51.959812,90.668457 
	C41.175652,79.328354 39.944626,61.461136 49.214611,52.242104 
	C57.522968,43.979404 74.652451,43.927681 83.080048,51.874718 
	C90.282982,58.666920 93.079178,79.812965 80.894890,90.444969 
	C92.113525,101.991287 94.413017,120.384476 86.052750,131.701660 
	C79.109695,141.100372 64.305550,143.256516 51.681873,136.445877 
M59.533962,120.556709 
	C60.488598,124.129257 61.914074,127.367767 66.381210,127.061668 
	C70.814125,126.757912 72.816063,123.652046 73.049072,119.686546 
	C73.338852,114.754669 73.368492,109.754776 72.877731,104.847527 
	C72.525818,101.328629 70.422638,98.625992 66.322197,98.637123 
	C62.521137,98.647446 60.305904,101.013176 59.925503,104.402954 
	C59.356499,109.473427 59.471577,114.620674 59.533962,120.556709 
M60.134548,76.811539 
	C60.323593,77.445496 60.325233,78.261887 60.734077,78.681892 
	C62.521343,80.517960 64.190529,83.282692 66.341827,83.769577 
	C70.035072,84.605446 71.542969,81.135178 71.864235,78.159935 
	C72.337059,73.781082 72.335152,69.301399 72.014000,64.902740 
	C71.775536,61.636581 69.500496,58.725761 66.224365,59.523380 
	C63.892941,60.091000 61.115341,62.794624 60.407398,65.115540 
	C59.389709,68.451912 60.073025,72.307121 60.134548,76.811539 
z"/>
<path fill="#F9F0F3" opacity="1.000000" stroke="none" 
	d="
M292.877869,122.002258 
	C292.881470,127.974754 292.881470,133.448212 292.881470,139.020508 
	C289.380890,140.405151 287.968567,139.390121 288.079987,135.632172 
	C288.246948,129.999130 288.123413,124.357475 287.204559,118.598526 
	C286.009521,124.387581 284.920166,130.202011 283.540466,135.946716 
	C283.221069,137.276642 281.909943,138.368393 281.055206,139.569733 
	C280.067902,138.305649 278.546875,137.176010 278.188477,135.753464 
	C276.857605,130.470490 275.909424,125.091080 274.817535,119.747879 
	C274.400909,119.751755 273.984314,119.755638 273.567688,119.759514 
	C273.567688,125.179169 273.476501,130.600922 273.601868,136.017685 
	C273.677246,139.274216 272.319885,140.223755 269.020020,139.194031 
	C269.020020,127.885323 269.020020,116.500565 269.020020,104.757057 
	C271.458130,104.757057 273.530914,104.757057 275.850586,104.757057 
	C277.333008,111.757683 278.810211,118.733559 280.287384,125.709442 
	C280.582214,125.777191 280.877075,125.844948 281.171936,125.912704 
	C282.794464,118.828888 284.417023,111.745079 286.058441,104.578827 
	C288.176239,104.578827 289.970032,104.578827 292.874268,104.578827 
	C292.874268,110.314896 292.874268,115.909065 292.877869,122.002258 
z"/>
<path fill="#FAF4F6" opacity="1.000000" stroke="none" 
	d="
M239.093414,194.695251 
	C237.797943,195.875397 236.518265,196.608215 234.781708,197.602676 
	C234.781708,185.030899 234.781708,173.638260 234.781708,162.030731 
	C237.280502,162.030731 239.207962,162.030731 241.510849,162.030731 
	C243.067581,169.309540 244.614700,176.543472 246.161835,183.777390 
	C246.396210,183.779999 246.630585,183.782608 246.864960,183.785202 
	C248.052322,178.288437 249.221405,172.787659 250.432098,167.296036 
	C251.673843,161.663651 251.691666,161.667572 258.143829,162.036850 
	C258.143829,173.374008 258.143829,184.768143 258.143829,196.513214 
	C257.139679,196.513214 255.780106,196.513214 253.734070,196.513214 
	C253.734070,190.664825 253.734070,184.928055 253.734070,179.191284 
	C253.276871,179.143570 252.819656,179.095856 252.362457,179.048141 
	C251.322464,183.707199 250.423187,188.404968 249.158752,193.002304 
	C248.767303,194.425598 247.383026,195.575851 246.453308,196.851105 
	C245.588364,195.495071 244.320908,194.244583 243.932617,192.763580 
	C242.680649,187.988434 241.752518,183.128372 240.699554,178.301041 
	C240.169449,178.312286 239.639328,178.323547 239.109222,178.334793 
	C239.109222,183.639175 239.109222,188.943542 239.093414,194.695251 
z"/>
<path fill="#F7ECEF" opacity="1.000000" stroke="none" 
	d="
M386.272583,64.998497 
	C386.272919,58.856812 386.272919,53.214180 386.272919,47.653259 
	C389.801758,45.948540 391.288910,47.413727 392.433563,50.398762 
	C394.178162,54.948277 396.269287,59.364914 399.205627,63.624462 
	C399.205627,58.253395 399.205627,52.882328 399.205627,47.248642 
	C401.248169,47.248642 402.808777,47.248642 404.607056,47.248642 
	C404.607056,58.840267 404.607056,70.252533 404.607056,81.667152 
	C401.489441,83.154007 400.049774,81.858871 398.990601,79.006935 
	C397.095123,73.902916 394.915192,68.904518 392.116425,63.912769 
	C392.116425,69.859756 392.116425,75.806747 392.116425,81.989532 
	C389.998688,81.989532 388.409668,81.989532 386.272278,81.989532 
	C386.272278,76.371429 386.272278,70.934486 386.272583,64.998497 
z"/>
<path fill="#FBF5F7" opacity="1.000000" stroke="none" 
	d="
M259.024963,66.190514 
	C257.687286,67.365891 256.139648,68.484772 256.035522,69.724869 
	C255.705124,73.659569 255.913345,77.639496 255.913345,81.888428 
	C253.628174,81.888428 251.737549,81.888428 249.584045,81.888428 
	C249.584045,70.303612 249.584045,58.901203 249.584045,47.239807 
	C251.667175,47.239807 253.561600,47.239807 255.875381,47.239807 
	C255.875381,52.022438 255.875381,56.618355 255.875381,61.505531 
	C258.335480,61.505531 260.384644,61.505531 262.835876,61.505531 
	C262.835876,56.802284 262.835876,52.206692 262.835876,47.301163 
	C265.113007,47.301163 267.006287,47.301163 269.132050,47.301163 
	C269.132050,58.734077 269.132050,70.157372 269.132050,81.884094 
	C267.262604,81.884094 265.501923,81.884094 262.963531,81.884094 
	C262.963531,77.819878 262.804871,73.584366 263.019104,69.367805 
	C263.162872,66.538803 261.882446,65.881424 259.024963,66.190514 
z"/>
<path fill="#F9EFF2" opacity="1.000000" stroke="none" 
	d="
M325.720428,56.583984 
	C325.770325,61.842793 325.966034,66.670303 325.753387,71.479744 
	C325.417450,79.076271 322.454010,81.906883 314.942230,82.160355 
	C312.169250,82.253922 309.390472,82.175453 306.399414,82.175453 
	C306.399414,70.242973 306.399414,58.861671 306.399414,47.519173 
	C319.362152,45.438744 323.913269,47.509510 325.720428,56.583984 
M314.312225,51.912937 
	C313.901154,52.128582 313.132233,52.341610 313.130646,52.560253 
	C313.069641,60.903214 313.079041,69.246689 313.079041,77.586884 
	C317.629150,77.919670 319.216766,75.934837 319.109131,71.984268 
	C318.969177,66.845352 319.363556,61.670666 318.871765,56.574696 
	C318.711334,54.912125 316.497223,53.447731 314.312225,51.912937 
z"/>
<path fill="#FBF6F7" opacity="1.000000" stroke="none" 
	d="
M320.369812,107.609596 
	C322.414246,112.306206 324.288422,116.663757 326.162628,121.021301 
	C326.531097,120.974289 326.899597,120.927277 327.268066,120.880257 
	C327.268066,115.618683 327.268066,110.357109 327.268066,104.804016 
	C329.349579,104.635460 330.762238,104.521072 332.568024,104.374847 
	C332.568024,116.058777 332.568024,127.426849 332.568024,140.580063 
	C330.380585,138.950089 328.281891,138.175125 327.587311,136.726761 
	C325.099304,131.538956 323.086792,126.123108 320.258820,120.863228 
	C320.258820,126.835373 320.258820,132.807526 320.258820,139.271774 
	C318.330536,139.384689 316.778473,139.475571 314.875732,139.586990 
	C314.875732,127.835312 314.875732,116.460159 314.875732,103.137199 
	C317.296234,105.016441 318.747925,106.143486 320.369812,107.609596 
z"/>
<path fill="#FAF4F6" opacity="1.000000" stroke="none" 
	d="
M295.208374,174.220490 
	C295.493530,163.780853 300.198242,159.550995 308.607513,161.611893 
	C312.226746,162.498871 314.814575,164.634781 314.985779,168.309250 
	C315.316772,175.411118 315.534515,182.569473 314.998474,189.643753 
	C314.595612,194.960327 311.284302,197.095245 305.648010,197.153107 
	C299.672668,197.214447 296.575287,195.158691 295.825256,189.579544 
	C295.166107,184.676422 295.379700,179.655960 295.208374,174.220490 
M302.592285,167.525513 
	C302.390594,174.632416 302.028839,181.741928 302.144043,188.843689 
	C302.163361,190.034378 304.249207,191.191559 305.380157,192.364212 
	C306.576843,191.063461 308.722900,189.820892 308.806824,188.451935 
	C309.182465,182.324097 309.168457,176.151428 308.895355,170.012741 
	C308.735748,166.424988 306.748901,164.873779 302.592285,167.525513 
z"/>
<path fill="#FBF6F7" opacity="1.000000" stroke="none" 
	d="
M230.844025,172.375000 
	C230.847275,177.479828 231.031448,182.140503 230.769318,186.775909 
	C230.357437,194.059753 227.272995,197.101608 220.763428,197.143082 
	C214.007645,197.186127 211.131439,194.469528 210.645126,187.043137 
	C210.341843,182.411942 210.418320,177.748459 210.487991,173.101913 
	C210.609055,165.026733 213.458862,161.554276 220.046310,161.205658 
	C226.700562,160.853485 229.698868,163.833801 230.844025,172.375000 
M217.013672,173.734955 
	C217.030823,178.721512 216.824127,183.725769 217.216492,188.682632 
	C217.319534,189.984314 219.191956,191.984665 220.411499,192.109940 
	C221.506226,192.222397 223.816437,190.249405 223.873489,189.110367 
	C224.205566,182.480682 224.176666,175.819168 223.883224,169.185532 
	C223.834915,168.093399 221.898956,166.290482 220.790955,166.256302 
	C219.613388,166.219986 218.025757,167.680405 217.287369,168.894760 
	C216.684296,169.886597 217.067673,171.478241 217.013672,173.734955 
z"/>
<path fill="#FDF9FA" opacity="1.000000" stroke="none" 
	d="
M188.612350,191.648712 
	C188.612732,181.572006 188.612732,171.956573 188.612732,162.437759 
	C191.895859,161.015717 193.433029,162.149841 194.533295,165.044510 
	C196.281906,169.644882 198.383469,174.111099 201.288269,178.564697 
	C201.288269,173.149307 201.288269,167.733932 201.288269,162.060257 
	C203.418289,161.966873 204.864746,161.903458 206.635406,161.825836 
	C206.635406,173.449371 206.635406,184.827560 206.635406,198.111145 
	C204.320511,196.256454 202.299240,195.406769 201.586777,193.926971 
	C199.095856,188.753448 197.056793,183.362366 194.171570,178.152267 
	C194.171570,184.149460 194.171570,190.146652 194.171570,196.571625 
	C192.254776,196.674637 190.711838,196.757538 188.851227,196.857513 
	C188.759369,195.034821 188.685669,193.572403 188.612350,191.648712 
z"/>
<path fill="#FBF5F7" opacity="1.000000" stroke="none" 
	d="
M181.073410,135.715698 
	C181.451569,141.558975 177.669800,138.887192 175.091064,139.799042 
	C175.091064,127.724861 175.091064,116.335960 175.091064,104.438080 
	C178.404358,104.438080 181.544556,104.255554 184.654083,104.486366 
	C188.183624,104.748352 191.813004,105.329300 193.229935,109.299118 
	C194.690002,113.389793 194.756683,117.357338 191.815353,121.076057 
	C191.008163,122.096596 190.600677,123.944473 190.880539,125.221947 
	C191.897781,129.865540 193.284286,134.428253 194.527618,139.007019 
	C189.804672,140.653122 187.591736,139.187057 186.964005,134.681870 
	C186.576736,131.902435 185.770142,129.147491 184.833481,126.493935 
	C184.413239,125.303444 183.213196,124.388229 182.367020,123.348099 
	C181.935867,123.546501 181.504700,123.744896 181.073547,123.943298 
	C181.073547,127.714561 181.073547,131.485825 181.073410,135.715698 
M184.122879,119.188606 
	C188.945541,118.332870 188.710297,114.564598 187.553482,111.573280 
	C186.938324,109.982590 183.882355,109.335831 181.076584,107.795494 
	C181.076584,112.003624 180.890427,114.489540 181.175720,116.920128 
	C181.278046,117.791878 182.517502,118.530151 184.122879,119.188606 
z"/>
<path fill="#FDF9FA" opacity="1.000000" stroke="none" 
	d="
M143.044495,57.033371 
	C143.044708,53.565903 143.044708,50.592159 143.044708,46.992439 
	C146.578537,46.992439 149.983994,46.417473 153.074661,47.157398 
	C156.045914,47.868729 160.282898,49.347717 161.105896,51.554966 
	C162.332748,54.845390 162.091202,59.591415 160.517960,62.740746 
	C159.172852,65.433372 158.793121,67.286224 159.636795,69.926102 
	C160.847153,73.713432 161.789948,77.586273 162.893005,81.589691 
	C158.512115,83.211922 156.028595,82.120872 155.286850,77.329735 
	C154.831726,74.389885 153.912430,71.507988 153.018448,68.657494 
	C152.704590,67.656776 151.844666,66.827309 151.234085,65.919647 
	C150.741135,66.060905 150.248199,66.202164 149.755249,66.343422 
	C149.755249,71.497307 149.755249,76.651192 149.755249,81.981804 
	C147.165939,81.981804 145.378296,81.981804 143.044266,81.981804 
	C143.044266,73.759506 143.044266,65.643303 143.044495,57.033371 
M153.041199,61.958385 
	C154.162720,60.721176 155.936401,59.635433 156.266434,58.214401 
	C156.901840,55.478546 156.836166,52.311401 153.103622,51.667175 
	C152.004395,51.477455 149.519058,53.190266 149.574890,53.345478 
	C150.600708,56.196815 146.521912,60.710579 153.041199,61.958385 
z"/>
<path fill="#FBF5F7" opacity="1.000000" stroke="none" 
	d="
M292.988556,54.604958 
	C293.055054,61.187305 293.295105,67.338005 293.038452,73.467911 
	C292.783722,79.552124 289.458527,82.590485 283.582916,82.808456 
	C277.521484,83.033333 273.675873,80.003235 273.212860,73.859108 
	C272.789642,68.243347 272.941895,62.572849 273.057770,56.930935 
	C273.179718,50.992538 275.883820,47.661339 280.759369,46.981789 
	C287.508575,46.041092 290.758820,47.956928 292.988556,54.604958 
M279.634949,60.591621 
	C279.638428,64.588799 279.588745,68.586983 279.664764,72.582779 
	C279.712616,75.097549 279.738953,78.308029 283.244446,77.727478 
	C284.676819,77.490257 286.539612,74.628029 286.687561,72.834694 
	C287.137939,67.375916 287.135559,61.832283 286.683624,56.373493 
	C286.534546,54.573261 284.718109,51.762856 283.246094,51.462448 
	C280.297211,50.860634 279.663116,53.606052 279.644806,56.133678 
	C279.636353,57.299469 279.638000,58.465340 279.634949,60.591621 
z"/>
<path fill="#FDF9FA" opacity="1.000000" stroke="none" 
	d="
M187.846451,56.033932 
	C187.846436,52.896069 187.846436,50.253696 187.846436,46.989044 
	C190.868774,46.989044 193.638046,46.976913 196.407196,46.991932 
	C200.406479,47.013618 204.249420,47.644161 205.895355,51.901108 
	C207.529556,56.127705 206.998077,60.095131 203.157623,63.108021 
	C207.456787,66.714851 208.820023,71.571510 206.966370,76.666862 
	C205.217712,81.473557 201.188431,82.151833 196.826843,82.172333 
	C194.027283,82.185486 191.227615,82.174797 187.846466,82.174797 
	C187.846466,73.391190 187.846466,64.960304 187.846451,56.033932 
M201.581879,73.119217 
	C201.184280,66.112503 200.254684,65.261475 194.337250,66.486397 
	C194.337250,70.200066 194.337250,73.913734 194.337250,77.606186 
	C197.934692,78.243179 200.597031,77.732285 201.581879,73.119217 
M200.862411,54.059605 
	C198.931824,52.980846 197.001221,51.902084 194.366348,50.429794 
	C194.366348,54.985310 194.366348,58.152512 194.366348,61.307720 
	C200.382675,61.455746 200.962067,60.862091 200.862411,54.059605 
z"/>
<path fill="#FDF9FA" opacity="1.000000" stroke="none" 
	d="
M353.858154,121.014030 
	C353.864777,118.357750 353.813599,116.189766 353.888947,114.026176 
	C354.120728,107.371956 357.348328,104.106079 363.711456,104.015648 
	C370.092194,103.924965 373.608215,107.081871 373.907959,113.689415 
	C374.156860,119.176010 374.159363,124.691650 373.912476,130.178284 
	C373.613403,136.825668 370.124359,140.025818 363.797668,139.984161 
	C357.434174,139.942261 354.246124,136.764496 353.931152,130.000214 
	C353.799561,127.173256 353.876251,124.336586 353.858154,121.014030 
M367.643188,120.563690 
	C367.584381,117.918564 367.934387,115.171799 367.311676,112.666847 
	C366.944672,111.190613 365.035034,110.097893 363.819214,108.832718 
	C362.612122,110.136993 360.447723,111.382111 360.362854,112.755722 
	C359.985901,118.855888 359.991211,125.006096 360.367981,131.106735 
	C360.455505,132.524048 362.542786,133.817871 363.709930,135.168503 
	C364.986542,133.763168 367.045776,132.517273 367.371582,130.918228 
	C367.987946,127.892998 367.608734,124.664940 367.643188,120.563690 
z"/>
<path fill="#FDF9FA" opacity="1.000000" stroke="none" 
	d="
M184.879303,188.389801 
	C182.751663,195.851181 179.485580,198.004974 172.443573,196.994171 
	C167.417358,196.272705 165.043915,193.077347 164.894562,186.476227 
	C164.778244,181.335297 164.751266,176.186310 164.897919,171.046997 
	C165.083374,164.547302 168.536346,161.236740 174.851639,161.200592 
	C180.887283,161.166046 184.503281,164.292709 184.849045,170.541550 
	C185.169357,176.330231 184.921555,182.150330 184.879303,188.389801 
M178.614517,172.909027 
	C178.607117,172.411026 178.644470,171.907593 178.584778,171.415939 
	C178.288376,168.974243 178.473038,165.963562 174.882050,166.055695 
	C171.115829,166.152328 171.165573,169.186172 171.145401,171.888336 
	C171.106979,177.034988 170.841919,182.209320 171.304962,187.314651 
	C171.470200,189.136276 173.239731,192.001053 174.682587,192.278198 
	C177.994476,192.914398 178.494980,189.853348 178.558929,187.274902 
	C178.670044,182.794724 178.604645,178.310196 178.614517,172.909027 
z"/>
<path fill="#F8EEF1" opacity="1.000000" stroke="none" 
	d="
M280.720276,167.066162 
	C280.195435,174.645554 279.869171,181.934875 279.949158,189.219711 
	C279.960663,190.268188 281.928314,191.295197 282.990723,192.332123 
	C284.056702,191.157104 285.474762,190.138168 286.085236,188.761200 
	C286.646606,187.495071 286.338745,185.843567 286.428955,184.062775 
	C288.461273,184.062775 290.367157,184.062775 292.249695,184.062775 
	C293.290039,193.639008 290.194611,197.559540 282.049255,197.240036 
	C276.515289,197.022949 273.493439,194.094238 273.125397,187.956436 
	C272.826843,182.976379 272.961853,177.966080 273.011871,172.970291 
	C273.095947,164.580231 276.620636,160.739197 283.697052,161.190323 
	C290.506897,161.624481 293.100891,165.478394 292.241272,174.272064 
	C290.531250,174.272064 288.783234,174.272064 286.996185,174.272064 
	C284.505402,172.196274 289.205566,164.355148 280.720276,167.066162 
z"/>
<path fill="#F9EFF2" opacity="1.000000" stroke="none" 
	d="
M346.291992,74.275291 
	C346.165070,68.368584 345.952667,62.883801 346.110199,57.409664 
	C346.338867,49.463516 350.139954,46.177799 357.825043,46.923782 
	C363.929718,47.516361 366.394043,51.632504 365.232300,59.619415 
	C363.521820,59.619415 361.771271,59.619415 359.714294,59.619415 
	C359.561707,57.902012 359.743622,56.153175 359.176666,54.695614 
	C358.666504,53.383972 357.334991,52.391811 356.365784,51.258728 
	C355.196747,52.412090 353.079712,53.516331 353.016998,54.727024 
	C352.682312,61.185280 352.688263,67.678772 353.009521,74.138542 
	C353.073395,75.422821 355.025421,76.613205 356.106750,77.846893 
	C357.176056,76.636658 358.578278,75.577301 359.215546,74.171257 
	C359.786285,72.912041 359.514557,71.270966 359.643616,69.369644 
	C361.523132,69.274292 363.260681,69.186142 364.942352,69.100822 
	C366.772308,76.049492 364.568817,80.812637 359.012054,82.347580 
	C352.804626,84.062248 348.395599,81.395370 346.291992,74.275291 
z"/>
<path fill="#F8EEF1" opacity="1.000000" stroke="none" 
	d="
M241.608322,115.211212 
	C241.620407,120.518692 241.558914,125.350227 241.673309,130.177597 
	C241.727997,132.485977 241.754883,135.519714 245.112991,134.874649 
	C246.395142,134.628357 247.393692,132.067017 248.179596,130.399551 
	C248.630447,129.443008 248.395401,128.163147 248.489380,126.717148 
	C250.438400,126.717148 252.185364,126.717148 253.926865,126.717148 
	C255.650528,133.993225 252.941071,138.966263 246.762863,139.921570 
	C239.977158,140.970810 235.377792,137.059097 235.064301,129.715363 
	C234.865585,125.060173 234.954056,120.389816 235.008270,115.727364 
	C235.104126,107.482216 238.275864,103.872116 245.207718,103.992050 
	C252.148911,104.112137 254.635681,107.424965 254.414444,116.651123 
	C252.556458,116.651123 250.681763,116.651123 248.818542,116.651123 
	C246.993561,114.303818 250.340118,109.015175 244.795151,109.025314 
	C241.205093,109.031883 241.827621,112.334709 241.608322,115.211212 
z"/>
<path fill="#FBF6F7" opacity="1.000000" stroke="none" 
	d="
M168.729919,117.016701 
	C165.485748,117.481094 165.289093,115.894218 164.962585,113.570732 
	C164.728622,111.905952 163.023666,110.447899 161.974991,108.897621 
	C160.756561,110.547287 158.647079,112.115662 158.487747,113.861961 
	C158.020691,118.981186 158.225677,124.174301 158.378876,129.332184 
	C158.454208,131.868073 158.030655,135.193710 162.099472,135.061539 
	C166.044968,134.933365 164.805008,131.656799 165.126755,129.393311 
	C165.239548,128.599747 165.275543,127.795273 165.371048,126.720848 
	C167.312927,126.720848 169.054871,126.720848 170.774826,126.720848 
	C172.307175,135.706985 168.629242,140.568359 160.887573,139.965530 
	C155.810623,139.570175 152.453186,136.665237 152.150024,131.433105 
	C151.784714,125.128387 151.729095,118.765335 152.143127,112.467224 
	C152.557846,106.158394 157.208496,103.120445 163.849106,104.114891 
	C169.205841,104.917084 172.549744,109.993996 171.253662,115.617989 
	C171.116333,116.213974 169.877106,116.556015 168.729919,117.016701 
z"/>
<path fill="#FAF4F6" opacity="1.000000" stroke="none" 
	d="
M160.407394,164.822601 
	C161.225891,168.016174 161.810776,170.891876 162.490829,174.235535 
	C160.046768,174.235535 158.311142,174.235535 156.180435,174.235535 
	C156.045807,172.705276 156.297852,170.928741 155.657043,169.574753 
	C154.999481,168.185425 153.469040,167.209198 152.320618,166.052185 
	C151.238174,167.128754 149.267609,168.167007 149.219238,169.288193 
	C148.932785,175.927872 148.947372,182.593338 149.246704,189.232727 
	C149.295639,190.318069 151.216278,192.067276 152.355194,192.136444 
	C153.409897,192.200470 155.042816,190.626953 155.572006,189.406387 
	C156.192978,187.974106 155.897354,186.144424 156.019974,184.150482 
	C157.783249,184.150482 159.542755,184.150482 161.351990,184.150482 
	C163.459961,192.951782 159.686218,197.760849 150.951645,197.189636 
	C146.300354,196.885452 143.288040,194.443970 142.978256,189.854691 
	C142.542725,183.402573 142.551102,176.905838 142.690796,170.435104 
	C142.773499,166.605515 144.133896,163.131912 148.310547,161.923157 
	C152.663284,160.663452 156.875320,160.639893 160.407394,164.822601 
z"/>
<path fill="#FCF7F8" opacity="1.000000" stroke="none" 
	d="
M168.844925,60.642143 
	C169.741760,55.997673 170.566696,51.772690 171.442688,47.286209 
	C173.678558,47.286209 175.777527,47.286209 178.426544,47.286209 
	C180.679962,58.598064 182.965546,70.071342 185.322815,81.904449 
	C183.084900,81.904449 181.355804,81.904449 179.497482,81.904449 
	C178.961960,79.263832 178.473785,76.856720 177.944458,74.246605 
	C176.068222,74.246605 174.290527,74.246605 172.142822,74.246605 
	C171.638016,76.576447 171.120987,78.962685 170.481583,81.913803 
	C168.938034,82.001213 167.203674,82.099426 164.547729,82.249825 
	C166.019577,74.869095 167.396301,67.965363 168.844925,60.642143 
M172.912582,68.473007 
	C174.153458,69.068298 175.394333,69.663597 177.649811,70.745636 
	C176.725342,65.862137 176.094711,62.530914 175.464096,59.199688 
	C175.100632,59.252373 174.737183,59.305058 174.373718,59.357742 
	C173.906189,62.104847 173.438675,64.851952 172.912582,68.473007 
z"/>
<path fill="#FCF7F8" opacity="1.000000" stroke="none" 
	d="
M224.752014,56.241905 
	C226.452850,64.953079 228.060654,73.247040 229.733078,81.874329 
	C227.778030,81.874329 226.030380,81.874329 223.974930,81.874329 
	C223.486755,79.453407 223.003113,77.055000 222.457321,74.348358 
	C220.545486,74.348358 218.654617,74.348358 216.540161,74.348358 
	C216.023224,76.773598 215.510635,79.178383 214.936218,81.873260 
	C213.171600,81.873260 211.429123,81.873260 209.084686,81.873260 
	C211.370895,70.290649 213.633011,58.830051 215.928864,47.198631 
	C218.235031,47.198631 220.349197,47.198631 222.775345,47.198631 
	C223.403763,50.076408 224.031372,52.950550 224.752014,56.241905 
M220.129349,59.679928 
	C219.734604,59.454441 219.339844,59.228954 218.945084,59.003464 
	C218.365631,62.265499 217.775665,65.525772 217.227066,68.792976 
	C217.184052,69.049141 217.429398,69.353706 217.673721,69.972687 
	C218.946655,69.894539 220.328018,69.809731 221.845718,69.716553 
	C221.267365,66.344917 220.763351,63.406712 220.129349,59.679928 
z"/>
<path fill="#FAF4F6" opacity="1.000000" stroke="none" 
	d="
M215.160767,133.822052 
	C214.913422,132.178879 214.771744,130.887604 214.600830,129.329926 
	C216.371384,128.968735 217.920731,128.652679 219.540726,128.322205 
	C219.771011,129.008072 219.840439,129.518066 220.092041,129.911591 
	C221.173035,131.602310 222.216965,133.338638 223.532104,134.831253 
	C223.705185,135.027679 226.222504,133.851654 226.190781,133.418381 
	C226.032822,131.260605 225.988281,128.674042 224.779129,127.105263 
	C222.576584,124.247589 219.403870,122.161217 216.961502,119.458801 
	C213.989944,116.170876 213.755020,112.141830 215.561829,108.275841 
	C217.370529,104.405785 221.042938,103.690132 224.909500,104.097160 
	C229.639069,104.595055 231.689331,107.389343 231.856735,113.524727 
	C230.492813,113.765190 229.082916,114.013756 227.817169,114.236908 
	C227.405624,113.822052 227.155655,113.622696 226.970596,113.374878 
	C225.872482,111.904312 224.874390,110.338669 223.598694,109.045692 
	C223.430511,108.875221 221.040985,110.184937 221.097961,110.625984 
	C221.354797,112.614326 221.635361,114.924179 222.809784,116.400078 
	C225.069443,119.239807 228.216782,121.370499 230.494781,124.198906 
	C234.484726,129.152847 233.593887,135.892807 228.947174,138.675293 
	C223.958511,141.662537 218.346146,139.815918 215.160767,133.822052 
z"/>
<path fill="#F9F0F3" opacity="1.000000" stroke="none" 
	d="
M140.471985,137.787750 
	C135.750595,138.859207 131.060715,139.531067 125.968582,140.260559 
	C125.968582,127.816788 125.968582,116.441895 125.968582,105.088844 
	C135.857544,102.961601 140.171494,104.012253 140.071838,108.826202 
	C137.543503,108.951805 134.981781,109.079063 132.235718,109.215477 
	C132.235718,112.410095 132.235718,115.345779 132.235718,118.660965 
	C134.108704,118.826958 136.016220,118.996010 137.924667,119.165497 
	C138.920837,123.352715 138.920837,123.352715 132.364197,123.880913 
	C132.364197,127.389038 132.364197,130.934052 132.364197,134.485703 
	C134.534134,136.919525 139.225784,132.342407 140.471985,137.787750 
z"/>
<path fill="#F9F0F3" opacity="1.000000" stroke="none" 
	d="
M204.822708,124.212082 
	C204.449051,127.842461 204.449051,131.154678 204.449051,134.131241 
	C206.472672,137.090942 213.027634,132.041946 212.822128,139.370514 
	C207.726868,139.370514 203.137070,139.370514 198.235352,139.370514 
	C198.235352,127.813263 198.235352,116.434036 198.235352,105.048576 
	C207.699875,102.959618 212.437119,104.053635 212.580963,108.699532 
	C211.322083,108.808823 210.045868,108.963959 208.765381,109.018433 
	C207.458450,109.074028 206.147293,109.030731 204.556671,109.030731 
	C204.556671,112.422432 204.556671,115.468094 204.556671,118.696014 
	C206.603119,118.865707 208.548019,119.026993 210.710938,119.206352 
	C210.710938,120.604370 210.710938,121.843353 210.710938,123.255600 
	C208.777451,123.479408 206.986908,123.686668 204.822708,124.212082 
z"/>
<path fill="#F6E9ED" opacity="1.000000" stroke="none" 
	d="
M300.336456,139.632080 
	C298.932159,138.824142 297.176300,138.032013 297.162231,137.210037 
	C296.977844,126.450760 297.039673,115.687248 297.039673,104.366249 
	C301.124054,104.366249 304.746826,104.491821 308.356537,104.328377 
	C311.507690,104.185699 312.739044,105.320091 311.584015,108.820938 
	C309.234497,108.957481 306.656433,109.107300 303.878815,109.268715 
	C303.878815,112.470970 303.878815,115.401260 303.878815,118.620384 
	C305.843231,118.814461 307.759338,119.003761 309.874786,119.212761 
	C309.874786,120.603867 309.874786,121.854858 309.874786,123.302948 
	C307.942841,123.511330 306.155701,123.704086 304.015625,123.934921 
	C304.015625,127.489197 304.015625,131.031235 304.015625,134.164551 
	C306.131378,136.968658 312.694214,131.795456 311.863800,139.634033 
	C308.048035,139.634033 304.421265,139.634033 300.336456,139.632080 
z"/>
<path fill="#FCF7F8" opacity="1.000000" stroke="none" 
	d="
M132.319794,181.453461 
	C132.085190,185.154831 132.085190,188.458374 132.085190,191.357666 
	C134.325363,194.306717 140.535965,189.408722 140.440704,196.523163 
	C135.610794,196.523163 131.043152,196.523163 126.077484,196.523163 
	C126.077484,185.275848 126.077484,173.921814 126.077484,162.190155 
	C130.500107,162.190155 135.045670,162.190155 139.637238,162.190155 
	C140.511658,165.878052 140.511658,165.878052 132.381927,166.433426 
	C132.381927,169.445786 132.381927,172.495712 132.381927,175.958267 
	C134.193619,176.067871 136.102844,176.183365 137.948929,176.295044 
	C138.788040,180.656998 138.788040,180.656998 132.319794,181.453461 
z"/>
<path fill="#F9F0F3" opacity="1.000000" stroke="none" 
	d="
M432.868347,55.954117 
	C432.868134,58.050625 432.868134,59.678734 432.868134,61.600327 
	C435.110260,61.731533 436.886414,61.835468 438.635956,61.937847 
	C439.345764,65.987579 439.345764,65.987579 433.229095,66.504745 
	C433.229095,70.029358 433.229095,73.593521 433.229095,77.584427 
	C435.629578,77.703888 438.056458,77.824661 440.454468,77.943993 
	C441.284149,82.752304 439.485504,83.253494 426.564270,81.821381 
	C426.564270,70.463531 426.564270,59.062855 426.564270,47.314438 
	C431.294464,47.314438 436.010559,47.314438 440.834473,47.314438 
	C440.834473,48.648113 440.834473,49.895344 440.834473,50.742527 
	C438.406738,53.280643 432.317017,48.478996 432.868347,55.954117 
z"/>
<path fill="#FDF9FA" opacity="1.000000" stroke="none" 
	d="
M368.988983,51.151634 
	C368.608765,48.033833 369.368805,46.709663 372.406403,46.928131 
	C376.022156,47.188190 379.670929,46.989376 383.557678,46.989376 
	C383.557678,48.600254 383.557678,49.823475 383.557678,51.278126 
	C380.933014,51.468040 378.491669,51.644691 375.704773,51.846348 
	C375.704773,55.074764 375.704773,58.129608 375.704773,60.973053 
	C377.347717,63.221287 383.240601,59.332558 381.676697,65.868683 
	C379.848480,66.054482 377.937103,66.248734 375.693085,66.476791 
	C375.693085,70.183235 375.693085,73.728119 375.693085,76.894478 
	C377.980255,79.467316 383.976349,75.027809 383.924774,81.942062 
	C378.802795,81.942062 374.203827,81.942062 368.988922,81.942062 
	C368.988922,71.819336 368.988922,61.727127 368.988983,51.151634 
z"/>
<path fill="#F9F0F3" opacity="1.000000" stroke="none" 
	d="
M343.951782,47.959618 
	C343.962646,54.817974 338.631348,49.791935 336.182312,52.641861 
	C336.182312,54.905647 336.182312,57.975498 336.182312,61.189915 
	C337.516541,63.215961 343.570099,59.365643 341.848663,65.863327 
	C340.199097,66.039787 338.441467,66.227806 336.240906,66.463219 
	C336.240906,69.948013 336.240906,73.494492 336.240906,77.598244 
	C338.482391,77.704483 340.905548,77.819336 343.545441,77.944466 
	C344.466522,80.448555 344.743134,82.356949 340.959778,82.228775 
	C337.185822,82.100914 333.404114,82.200729 329.416595,82.200729 
	C329.416595,70.234146 329.416595,58.841816 329.416595,46.786865 
	C334.422424,47.037319 339.153046,47.274006 343.951782,47.959618 
z"/>
<path fill="#FBF5F7" opacity="1.000000" stroke="none" 
	d="
M340.210327,104.419449 
	C343.333008,104.419586 345.998566,104.553078 348.645203,104.386269 
	C352.056427,104.171265 353.274384,105.419281 352.007568,108.940025 
	C350.578308,109.082703 349.124878,109.227798 347.154236,109.424515 
	C347.154236,119.240120 347.154236,129.122787 347.154236,139.287018 
	C344.890594,139.287018 343.134674,139.287018 340.699402,139.287018 
	C340.699402,129.461655 340.699402,119.612274 340.699402,109.622368 
	C338.480865,109.325203 336.905182,109.114151 335.175415,108.882454 
	C335.175415,107.430099 335.175415,106.165627 335.175415,104.620827 
	C336.810822,104.548706 338.277802,104.484016 340.210327,104.419449 
z"/>
<path fill="#F9EFF2" opacity="1.000000" stroke="none" 
	d="
M129.031540,74.925064 
	C129.031631,67.140991 129.031631,59.848236 129.031631,52.159439 
	C127.274284,51.993404 125.711319,51.845734 123.836143,51.668564 
	C123.836143,50.172703 123.836143,48.788792 123.836143,47.180458 
	C129.435623,47.180458 134.863937,47.180458 140.714798,47.180458 
	C140.819794,48.497932 140.928925,49.867085 141.057968,51.486309 
	C139.200333,51.756363 137.636261,51.983738 135.654755,52.271797 
	C135.654755,62.157703 135.654755,71.891190 135.654755,81.908234 
	C133.309326,81.908234 131.415314,81.908234 129.031448,81.908234 
	C129.031448,79.655891 129.031448,77.536140 129.031540,74.925064 
z"/>
<path fill="#F9EFF2" opacity="1.000000" stroke="none" 
	d="
M415.110962,82.199982 
	C413.863708,80.905655 412.423065,79.629929 412.391846,78.320602 
	C412.186890,69.725937 412.286194,61.124039 412.286194,52.243885 
	C410.557281,52.032562 409.139099,51.859219 407.284241,51.632496 
	C407.120911,50.344501 406.944855,48.955925 406.728485,47.249577 
	C412.603210,47.249577 418.171936,47.249577 424.003052,47.249577 
	C424.003052,48.667973 424.003052,50.072437 424.003052,51.644279 
	C422.325592,51.799454 420.873444,51.933788 418.929901,52.113579 
	C418.929901,60.874535 418.863556,69.632362 418.971558,78.388054 
	C419.002777,80.916336 418.693512,82.696907 415.110962,82.199982 
z"/>
<path fill="#F8EEF1" opacity="1.000000" stroke="none" 
	d="
M247.035004,80.980515 
	C242.255569,81.802505 237.537415,82.149727 232.450775,82.524063 
	C232.450775,70.500832 232.450775,59.107136 232.450775,47.338760 
	C234.269028,47.338760 236.161911,47.338760 238.694992,47.338760 
	C238.694992,57.255043 238.694992,67.292450 238.694992,76.450722 
	C241.434784,79.548660 246.355835,74.949608 247.035004,80.980515 
z"/>
<path fill="#FCF7F8" opacity="1.000000" stroke="none" 
	d="
M264.388733,136.379623 
	C264.104004,141.871521 260.490784,138.344147 258.277161,140.243301 
	C258.277161,127.724648 258.277161,116.362762 258.277161,104.714928 
	C260.193756,104.714928 261.948822,104.714928 264.390381,104.714928 
	C264.390381,115.150108 264.390381,125.547462 264.388733,136.379623 
z"/>
<path fill="#FEFDFD" opacity="1.000000" stroke="none" 
	d="
M265.090637,161.847549 
	C266.785736,162.668747 269.043640,163.476242 269.063232,164.334824 
	C269.305450,174.949127 269.221344,185.570847 269.221344,196.512177 
	C267.126282,196.512177 265.389801,196.512177 263.080597,196.512177 
	C263.080597,185.329941 263.067566,174.083221 263.144897,162.837112 
	C263.147156,162.507263 264.102448,162.183960 265.090637,161.847549 
z"/>
<path fill="#F9EFF2" opacity="1.000000" stroke="none" 
	d="
M225.883484,156.096436 
	C226.304077,157.045410 226.569977,157.637527 226.835876,158.229660 
	C226.569809,158.635437 226.303741,159.041229 226.037674,159.447006 
	C224.161560,158.267349 222.285431,157.087692 220.394257,155.898575 
	C219.279968,156.789337 217.484604,158.224548 215.689255,159.659760 
	C215.097626,159.070663 214.505997,158.481567 213.914368,157.892471 
	C215.947189,155.585190 217.561539,152.409470 220.113602,151.179733 
	C223.695847,149.453598 224.333939,153.538116 225.883484,156.096436 
z"/>
<path fill="#A41F47" opacity="1.000000" stroke="none" 
	d="
M59.414822,120.145981 
	C59.471577,114.620674 59.356499,109.473427 59.925503,104.402954 
	C60.305904,101.013176 62.521137,98.647446 66.322197,98.637123 
	C70.422638,98.625992 72.525818,101.328629 72.877731,104.847527 
	C73.368492,109.754776 73.338852,114.754669 73.049072,119.686546 
	C72.816063,123.652046 70.814125,126.757912 66.381210,127.061668 
	C61.914074,127.367767 60.488598,124.129257 59.414822,120.145981 
z"/>
<path fill="#A41F47" opacity="1.000000" stroke="none" 
	d="
M60.082413,76.376205 
	C60.073025,72.307121 59.389709,68.451912 60.407398,65.115540 
	C61.115341,62.794624 63.892941,60.091000 66.224365,59.523380 
	C69.500496,58.725761 71.775536,61.636581 72.014000,64.902740 
	C72.335152,69.301399 72.337059,73.781082 71.864235,78.159935 
	C71.542969,81.135178 70.035072,84.605446 66.341827,83.769577 
	C64.190529,83.282692 62.521343,80.517960 60.734077,78.681892 
	C60.325233,78.261887 60.323593,77.445496 60.082413,76.376205 
z"/>
<path fill="#A31C45" opacity="1.000000" stroke="none" 
	d="
M314.767303,51.902817 
	C316.497223,53.447731 318.711334,54.912125 318.871765,56.574696 
	C319.363556,61.670666 318.969177,66.845352 319.109131,71.984268 
	C319.216766,75.934837 317.629150,77.919670 313.079041,77.586884 
	C313.079041,69.246689 313.069641,60.903214 313.130646,52.560253 
	C313.132233,52.341610 313.901154,52.128582 314.767303,51.902817 
z"/>
<path fill="#A31C45" opacity="1.000000" stroke="none" 
	d="
M302.882935,167.212158 
	C306.748901,164.873779 308.735748,166.424988 308.895355,170.012741 
	C309.168457,176.151428 309.182465,182.324097 308.806824,188.451935 
	C308.722900,189.820892 306.576843,191.063461 305.380157,192.364212 
	C304.249207,191.191559 302.163361,190.034378 302.144043,188.843689 
	C302.028839,181.741928 302.390594,174.632416 302.882935,167.212158 
z"/>
<path fill="#A31C45" opacity="1.000000" stroke="none" 
	d="
M217.013672,173.269455 
	C217.067673,171.478241 216.684296,169.886597 217.287369,168.894760 
	C218.025757,167.680405 219.613388,166.219986 220.790955,166.256302 
	C221.898956,166.290482 223.834915,168.093399 223.883224,169.185532 
	C224.176666,175.819168 224.205566,182.480682 223.873489,189.110367 
	C223.816437,190.249405 221.506226,192.222397 220.411499,192.109940 
	C219.191956,191.984665 217.319534,189.984314 217.216492,188.682632 
	C216.824127,183.725769 217.030823,178.721512 217.013672,173.269455 
z"/>
<path fill="#A41F47" opacity="1.000000" stroke="none" 
	d="
M183.680420,119.258972 
	C182.517502,118.530151 181.278046,117.791878 181.175720,116.920128 
	C180.890427,114.489540 181.076584,112.003624 181.076584,107.795494 
	C183.882355,109.335831 186.938324,109.982590 187.553482,111.573280 
	C188.710297,114.564598 188.945541,118.332870 183.680420,119.258972 
z"/>
<path fill="#AA2D52" opacity="1.000000" stroke="none" 
	d="
M152.635269,61.989838 
	C146.521912,60.710579 150.600708,56.196815 149.574890,53.345478 
	C149.519058,53.190266 152.004395,51.477455 153.103622,51.667175 
	C156.836166,52.311401 156.901840,55.478546 156.266434,58.214401 
	C155.936401,59.635433 154.162720,60.721176 152.635269,61.989838 
z"/>
<path fill="#A41F47" opacity="1.000000" stroke="none" 
	d="
M279.635010,60.111397 
	C279.638000,58.465340 279.636353,57.299469 279.644806,56.133678 
	C279.663116,53.606052 280.297211,50.860634 283.246094,51.462448 
	C284.718109,51.762856 286.534546,54.573261 286.683624,56.373493 
	C287.135559,61.832283 287.137939,67.375916 286.687561,72.834694 
	C286.539612,74.628029 284.676819,77.490257 283.244446,77.727478 
	C279.738953,78.308029 279.712616,75.097549 279.664764,72.582779 
	C279.588745,68.586983 279.638428,64.588799 279.635010,60.111397 
z"/>
<path fill="#AA2D52" opacity="1.000000" stroke="none" 
	d="
M201.497543,73.500473 
	C200.597031,77.732285 197.934692,78.243179 194.337250,77.606186 
	C194.337250,73.913734 194.337250,70.200066 194.331909,66.481766 
	C200.254684,65.261475 201.184280,66.112503 201.497543,73.500473 
z"/>
<path fill="#AA2D52" opacity="1.000000" stroke="none" 
	d="
M200.933411,54.460667 
	C200.962067,60.862091 200.382675,61.455746 194.366348,61.307720 
	C194.366348,58.152512 194.366348,54.985310 194.366348,50.429794 
	C197.001221,51.902084 198.931824,52.980846 200.933411,54.460667 
z"/>
<path fill="#AA2D52" opacity="1.000000" stroke="none" 
	d="
M367.643188,121.042419 
	C367.608734,124.664940 367.987946,127.892998 367.371582,130.918228 
	C367.045776,132.517273 364.986542,133.763168 363.709930,135.168503 
	C362.542786,133.817871 360.455505,132.524048 360.367981,131.106735 
	C359.991211,125.006096 359.985901,118.855888 360.362854,112.755722 
	C360.447723,111.382111 362.612122,110.136993 363.819214,108.832703 
	C365.035034,110.097893 366.944672,111.190613 367.311676,112.666847 
	C367.934387,115.171799 367.584381,117.918564 367.643188,121.042419 
z"/>
<path fill="#AA2D52" opacity="1.000000" stroke="none" 
	d="
M178.613876,173.368256 
	C178.604645,178.310196 178.670044,182.794724 178.558929,187.274902 
	C178.494980,189.853348 177.994476,192.914398 174.682587,192.278198 
	C173.239731,192.001053 171.470200,189.136276 171.304962,187.314651 
	C170.841919,182.209320 171.106979,177.034988 171.145401,171.888336 
	C171.165573,169.186172 171.115829,166.152328 174.882050,166.055695 
	C178.473038,165.963562 178.288376,168.974243 178.584778,171.415939 
	C178.644470,171.907593 178.607117,172.411026 178.613876,173.368256 
z"/>
<path fill="#AA2D52" opacity="1.000000" stroke="none" 
	d="
M172.941864,68.036034 
	C173.438675,64.851952 173.906189,62.104847 174.373718,59.357742 
	C174.737183,59.305058 175.100632,59.252373 175.464096,59.199688 
	C176.094711,62.530914 176.725342,65.862137 177.649811,70.745636 
	C175.394333,69.663597 174.153458,69.068298 172.941864,68.036034 
z"/>
<path fill="#AA2D52" opacity="1.000000" stroke="none" 
	d="
M220.194336,60.074211 
	C220.763351,63.406712 221.267365,66.344917 221.845718,69.716553 
	C220.328018,69.809731 218.946655,69.894539 217.673721,69.972687 
	C217.429398,69.353706 217.184052,69.049141 217.227066,68.792976 
	C217.775665,65.525772 218.365631,62.265499 218.945099,59.003464 
	C219.339844,59.228954 219.734604,59.454441 220.194336,60.074211 
z"/>
</svg>