<svg version="1.1" id="Layer_1" xmlns="http://www.w3.org/2000/svg" xmlns:xlink="http://www.w3.org/1999/xlink" x="0px" y="0px"
	 width="100%" viewBox="0 0 489 490" enable-background="new 0 0 489 490" xml:space="preserve">
<path fill="#FFFFFF" opacity="1.000000" stroke="none" 
	d="
M1.000000,167.000000 
	C1.000000,111.347404 1.000000,56.194805 1.000000,1.021105 
	C163.944351,1.021105 326.888702,1.021105 489.916534,1.021105 
	C489.916534,164.235992 489.916534,327.472046 489.916534,490.854065 
	C327.000092,490.854065 164.000061,490.854065 1.000000,490.854065 
	C1.000000,383.111176 1.000000,275.305573 1.000000,167.000000 
M249.500000,5.998983 
	C173.002563,5.999005 96.505127,5.997681 20.007696,6.000569 
	C9.123821,6.000980 5.000416,10.159455 5.000281,21.131037 
	C4.998430,170.959854 4.998629,320.788666 4.999819,470.617493 
	C4.999909,481.944611 9.020529,485.999725 20.256227,485.999847 
	C170.085052,486.001312 319.913879,486.001312 469.742706,485.999847 
	C480.979523,485.999725 484.999969,481.945190 485.000061,470.618591 
	C485.001221,320.956421 485.001190,171.294266 485.000427,21.632107 
	C485.000366,9.955318 481.077393,5.999902 469.493408,5.999690 
	C396.495605,5.998349 323.497803,5.998994 249.500000,5.998983 
z"/>
<path fill="#FD6926" opacity="1.000000" stroke="none" 
	d="
M250.000000,5.998983 
	C323.497803,5.998994 396.495605,5.998349 469.493408,5.999690 
	C481.077393,5.999902 485.000366,9.955318 485.000427,21.632107 
	C485.001190,171.294266 485.001221,320.956421 485.000061,470.618591 
	C484.999969,481.945190 480.979523,485.999725 469.742706,485.999847 
	C319.913879,486.001312 170.085052,486.001312 20.256227,485.999847 
	C9.020529,485.999725 4.999909,481.944611 4.999819,470.617493 
	C4.998629,320.788666 4.998430,170.959854 5.000281,21.131037 
	C5.000416,10.159455 9.123821,6.000980 20.007696,6.000569 
	C96.505127,5.997681 173.002563,5.999005 250.000000,5.998983 
M257.557831,108.096535 
	C254.114822,103.230713 248.038193,101.974106 243.792923,105.250038 
	C240.216125,108.010139 239.653595,114.351105 242.868988,118.297913 
	C244.535065,120.343002 246.700378,121.973083 248.510742,123.911507 
	C249.966431,125.470200 251.778336,127.031670 252.394836,128.928986 
	C252.860062,130.360733 251.685303,132.325378 251.240494,134.052826 
	C249.774750,133.091339 248.137161,132.304993 246.909622,131.100693 
	C246.207108,130.411484 246.171478,129.042511 245.764130,127.753403 
	C244.035553,128.085754 242.624573,128.357056 241.293594,128.612961 
	C240.929749,135.064377 243.235123,138.559784 248.107773,139.096710 
	C252.078995,139.534286 255.939575,139.223007 258.037872,135.158951 
	C260.149170,131.069717 259.474548,126.954994 256.718201,123.475601 
	C254.781784,121.031227 251.933701,119.308762 249.999146,116.863304 
	C248.591614,115.084038 247.830719,112.699669 247.220856,110.465172 
	C247.104660,110.039413 249.781448,108.304031 249.919479,108.440193 
	C251.438049,109.938210 252.708984,111.687294 254.423172,113.840782 
	C255.258698,113.619614 256.795044,113.212929 258.402924,112.787292 
	C258.238525,111.182190 258.105743,109.886116 258.876587,108.409653 
	C260.482391,108.601685 262.088165,108.793716 264.121338,109.036858 
	C264.121338,118.996742 264.121338,128.753479 264.121338,138.766510 
	C266.482941,138.766510 268.383942,138.766510 270.762512,138.766510 
	C270.762512,128.814285 270.762512,119.059097 270.762512,109.189453 
	C272.739471,108.797729 274.283356,108.491806 275.857361,108.179916 
	C275.857361,106.638649 275.857361,105.360619 275.857361,104.025040 
	C270.053070,104.025040 264.484589,104.025040 258.992004,104.025040 
	C258.622498,105.801804 258.322266,107.245667 257.557831,108.096535 
M272.804657,81.350830 
	C273.953522,81.698097 275.102386,82.045357 276.614899,82.502541 
	C275.530853,84.126549 274.792908,85.232056 273.875549,86.606308 
	C279.016479,86.045532 280.036835,83.696976 278.789307,75.379822 
	C276.486328,75.939476 274.237366,76.486000 272.028046,76.187881 
	C270.437439,68.204033 268.473175,60.270489 267.388977,52.218452 
	C266.679504,46.949104 264.640869,45.150944 259.130829,46.947315 
	C256.883759,58.152733 254.586578,69.608040 252.252716,81.246315 
	C255.683060,81.784973 258.742584,82.576263 258.893616,78.125465 
	C259.065735,73.053787 261.999725,73.189392 265.661133,74.026016 
	C266.258820,76.776611 266.810211,79.314171 267.427704,82.155914 
	C269.103882,81.931099 270.537689,81.738800 272.804657,81.350830 
M379.862793,138.843323 
	C381.840790,138.843323 383.818787,138.843323 385.870148,138.843323 
	C387.738708,135.611710 385.572235,128.225250 393.595154,131.443695 
	C394.152222,133.868256 394.729706,136.381699 395.344330,139.056885 
	C397.394653,138.956543 399.106567,138.872757 401.061981,138.777069 
	C398.659698,126.817627 396.377777,115.457405 394.090179,104.068878 
	C391.522552,104.068878 389.421082,104.068878 387.149048,104.068878 
	C386.101532,109.138687 385.084259,114.002693 384.093811,118.872169 
	C383.100037,123.757935 382.225494,128.670959 381.080902,133.520630 
	C380.834930,134.562775 379.655518,135.384598 378.913269,135.497391 
	C377.905640,131.823166 376.726593,128.183075 375.984406,124.455978 
	C375.728607,123.171425 376.161469,121.357552 376.968964,120.323921 
	C379.876465,116.602287 379.818085,112.559776 378.346130,108.554077 
	C376.851898,104.487625 373.105347,103.873756 369.284760,103.841141 
	C366.340302,103.816002 363.395477,103.836128 360.282227,103.836128 
	C360.282227,115.806862 360.282227,127.304535 360.282227,139.041046 
	C362.390930,138.942154 364.135498,138.860352 366.337708,138.757095 
	C366.337708,133.294113 366.337708,128.238678 366.337708,123.183243 
	C366.896271,123.012238 367.454834,122.841232 368.013397,122.670227 
	C371.860107,127.084213 371.140808,133.530502 373.753235,138.755966 
	C375.426178,138.755966 377.208221,138.755966 379.862793,138.843323 
M336.713928,108.644493 
	C336.874237,111.283607 337.086304,113.920815 337.183624,116.562248 
	C337.367249,121.545998 337.112457,126.578506 337.725281,131.505493 
	C338.471008,137.500854 341.468475,139.468216 347.860779,139.140411 
	C353.740753,138.838882 356.688354,136.424484 356.883759,130.677567 
	C357.182892,121.878082 356.962250,113.060928 356.962250,104.077049 
	C354.894012,104.077049 353.023071,104.077049 350.929779,104.077049 
	C350.929779,106.592644 350.931396,108.749893 350.929443,110.907143 
	C350.924042,116.902321 350.991913,122.898964 350.875244,128.891998 
	C350.826172,131.412399 350.510345,134.566208 347.129364,134.053604 
	C345.786224,133.849976 344.576416,130.996262 343.844574,129.137024 
	C343.333038,127.837440 343.731781,126.177864 343.731415,124.679085 
	C343.729706,117.891335 343.730652,111.103577 343.730652,103.649025 
	C340.830872,103.855629 338.410217,104.028099 335.098022,103.903526 
	C330.067627,103.974609 325.037201,104.045692 319.238037,104.059349 
	C316.985138,104.059349 314.732208,104.059349 312.179474,104.059349 
	C312.179474,106.541550 312.186859,108.681206 312.178101,110.820786 
	C312.151581,117.299927 312.316437,123.790771 311.933441,130.248993 
	C311.849701,131.660767 309.802765,132.956100 308.659973,134.305069 
	C307.469177,132.996140 305.919739,131.855698 305.200653,130.325165 
	C304.621643,129.092773 305.030090,127.388725 305.028839,125.893921 
	C305.022644,118.635864 305.026031,111.377808 305.026031,104.105820 
	C302.656586,104.105820 300.787323,104.105820 298.913361,104.105820 
	C298.913361,113.124763 298.724701,121.755745 298.978485,130.373703 
	C299.152893,136.295837 302.150421,139.056030 307.578033,139.184341 
	C314.552826,139.349243 317.592010,137.244904 318.187988,130.869202 
	C318.727203,125.100204 318.439880,119.258095 318.713959,113.457527 
	C318.791412,111.817696 319.560303,110.210533 320.818481,108.936760 
	C322.076996,109.058762 323.335510,109.180763 325.097595,109.351585 
	C325.097595,119.414444 325.097595,129.143951 325.097595,139.061432 
	C327.405121,138.944122 329.152557,138.855270 331.300049,138.746094 
	C331.300049,128.522293 331.300049,118.763908 331.300049,109.128014 
	C333.154907,108.660690 334.580078,108.301620 336.713928,108.644493 
M204.850311,51.449810 
	C208.488815,50.654564 209.436462,52.341480 209.365997,55.754635 
	C209.191864,64.189926 209.308884,72.631241 209.308884,81.362152 
	C211.736115,81.362152 213.620178,81.362152 215.970154,81.362152 
	C215.970154,71.328850 215.970154,61.585442 215.970154,51.588223 
	C218.183990,51.424751 219.954834,51.293995 222.232758,51.125793 
	C222.232758,61.271622 222.232758,71.182091 222.232758,81.326935 
	C224.608948,81.326935 226.489471,81.326935 229.260666,81.326935 
	C229.260666,75.919228 229.260666,70.823860 229.260666,65.728500 
	C229.934235,65.621811 230.607803,65.515129 231.281372,65.408447 
	C232.438843,69.334053 233.965683,73.195663 234.659622,77.201561 
	C235.513885,82.133026 238.055099,82.407043 242.179230,80.926353 
	C241.057373,76.836609 240.116486,72.983650 238.925507,69.209618 
	C238.094040,66.574814 237.856842,64.638588 239.980453,62.053719 
	C244.224487,56.887871 241.646881,47.655987 235.673630,47.201847 
	C225.235275,46.408222 214.693054,46.980671 204.099167,46.980671 
	C204.099167,48.784187 204.099167,50.418770 203.365982,51.957478 
	C201.914413,47.819660 199.003937,45.836960 194.616333,46.014133 
	C191.024551,46.159176 188.054901,47.377125 186.692459,50.974705 
	C185.217331,54.869751 185.781372,58.563274 188.560425,61.685181 
	C190.099121,63.413738 192.060516,64.758553 193.704636,66.403030 
	C195.102890,67.801582 197.058334,69.226578 197.414597,70.923813 
	C197.791458,72.719238 196.569626,74.850235 196.046097,76.834656 
	C194.652222,75.555359 193.169373,74.356094 191.909821,72.955956 
	C191.430130,72.422729 191.463043,71.428375 191.164001,70.260071 
	C189.306625,70.650833 187.648331,70.999702 184.197754,71.725632 
	C186.996078,75.542809 188.479553,79.135773 191.162888,80.844437 
	C194.827438,83.177910 199.235077,82.810783 202.480972,79.097572 
	C205.161987,76.030540 205.182938,70.353111 202.140488,66.572029 
	C199.758987,63.612335 196.534744,61.328976 194.167526,58.360291 
	C192.993134,56.887501 192.723129,54.571751 192.470505,52.583176 
	C192.416641,52.159058 194.872192,50.866402 195.049393,51.051018 
	C196.294601,52.348389 197.234741,53.935951 198.301895,55.409401 
	C198.483749,55.660484 198.807236,55.808998 199.070023,55.998669 
	C203.301468,55.731045 203.301468,55.731045 204.850311,51.449810 
M285.897949,205.639923 
	C274.657135,199.148056 263.383942,192.711197 252.196945,186.127853 
	C249.187103,184.356613 246.655594,184.098648 243.450424,185.977539 
	C225.361176,196.581635 207.186356,207.042007 188.944443,217.381500 
	C185.449738,219.362274 184.126999,221.828384 184.159180,225.807312 
	C184.312790,244.803146 184.087845,263.802673 184.330002,282.796692 
	C184.387482,287.304810 183.158279,289.897552 179.047409,292.166199 
	C162.439331,301.331696 146.100632,310.983978 129.587433,320.323853 
	C126.368141,322.144684 124.805733,324.246429 124.840439,328.182800 
	C125.027016,349.344604 124.998093,370.509338 124.860054,391.671844 
	C124.837486,395.132599 126.053452,397.155365 129.005997,398.836426 
	C147.372604,409.293762 165.696136,419.828369 183.941040,430.496277 
	C187.071365,432.326599 189.478363,432.300415 192.639343,430.448792 
	C209.726547,420.439240 226.992844,410.735596 244.092300,400.746582 
	C246.750748,399.193604 248.634506,399.207275 251.275223,400.748901 
	C268.377014,410.733032 285.624359,420.467712 302.732758,430.440704 
	C305.843262,432.253876 308.298553,432.299225 311.455322,430.449982 
	C329.547852,419.851532 347.716095,409.379486 365.973755,399.068390 
	C369.325073,397.175690 370.637787,394.918793 370.615601,391.134949 
	C370.493561,370.305511 370.494324,349.474640 370.614105,328.645203 
	C370.636902,324.685455 369.246368,322.255035 365.733856,320.280151 
	C348.617249,310.656403 331.668732,300.733826 314.564911,291.086914 
	C311.879791,289.572449 310.938354,287.892700 310.959534,284.836761 
	C311.096893,265.007416 310.938721,245.175858 311.109314,225.347046 
	C311.142548,221.485245 309.795074,219.196991 306.474304,217.398392 
	C299.745209,213.753754 293.178436,209.809387 285.897949,205.639923 
M84.336189,53.207035 
	C71.586975,40.697140 49.961449,44.371601 44.205254,60.338879 
	C40.379505,70.951256 40.513744,81.947243 44.146160,92.660439 
	C46.726883,100.271851 52.518032,104.378387 60.463898,104.032433 
	C64.672829,103.849182 68.823318,102.323776 73.479935,101.298660 
	C73.001518,107.915146 72.641930,114.871933 71.938560,121.793793 
	C71.577393,125.348099 68.972054,126.857971 65.576080,126.779068 
	C61.871601,126.693001 60.423332,124.221596 60.000755,120.927261 
	C59.792721,119.305458 59.712814,117.667221 59.558506,115.842163 
	C53.974354,115.842163 48.641922,115.842163 43.329895,115.842163 
	C42.851818,126.044884 45.529152,132.808777 51.332706,136.547089 
	C67.014763,146.648560 87.970650,138.152634 89.783043,119.750153 
	C91.437592,102.950264 90.887901,85.873894 90.331146,68.951576 
	C90.162827,63.835476 86.730820,58.826759 84.336189,53.207035 
M222.651489,131.793427 
	C220.778503,122.547707 218.905502,113.301979 217.041367,104.099915 
	C214.435577,104.099915 212.334412,104.099915 210.137848,104.099915 
	C207.864944,115.198753 205.641327,126.056870 203.417725,136.914993 
	C201.435593,133.559570 200.645538,130.332275 199.619888,127.181686 
	C198.631607,124.146004 198.205414,121.873024 200.751740,118.773956 
	C205.021103,113.577827 201.690491,105.052605 195.476944,104.189240 
	C191.469086,103.632355 187.321030,104.084618 183.236847,104.084618 
	C183.236847,115.928200 183.236847,127.332031 183.236847,138.707520 
	C185.308197,138.707520 187.052979,138.707520 189.285172,138.707520 
	C189.285172,133.344681 189.285172,128.272278 189.285172,123.199860 
	C189.851730,123.025612 190.418289,122.851364 190.984863,122.677124 
	C194.829285,127.101616 194.137894,133.560181 196.756287,138.755859 
	C200.746429,138.755859 204.825836,138.755859 208.936615,138.755859 
	C210.567734,135.190094 208.860626,128.170197 216.643982,131.555252 
	C217.146255,133.907394 217.658005,136.303940 218.179169,138.744507 
	C220.167419,138.744507 221.928696,138.744507 223.881424,138.744507 
	C223.500153,136.510117 223.168243,134.564987 222.651489,131.793427 
M317.758026,54.591003 
	C317.758026,51.986423 317.758026,49.381847 317.758026,46.313786 
	C315.506195,46.455936 313.954987,46.553864 312.048584,46.674210 
	C312.048584,52.540398 312.048584,57.926941 312.048584,63.313480 
	C309.102234,58.722076 307.238129,53.814377 304.850830,49.175976 
	C304.083496,47.685104 301.935944,46.904598 299.442322,45.086349 
	C299.442322,58.370388 299.442322,69.765495 299.442322,81.327194 
	C301.320984,81.327194 302.886230,81.327194 305.053223,81.327194 
	C305.053223,75.243553 305.053223,69.462532 305.053223,63.681507 
	C307.988800,68.659157 309.861053,73.797775 312.221222,78.701546 
	C312.935303,80.185234 315.000793,81.018501 316.447327,82.149689 
	C316.884186,81.755363 317.321075,81.361031 317.757965,80.966705 
	C317.757965,72.500549 317.757965,64.034386 317.758026,54.591003 
M133.768295,77.804474 
	C134.659607,80.535934 135.773926,82.878029 139.442902,81.018852 
	C139.442902,69.597130 139.442902,58.214607 139.442902,46.376873 
	C137.558090,46.467098 136.010269,46.541191 133.881714,46.643082 
	C133.881714,52.517849 133.881714,57.936077 133.881714,63.354301 
	C131.057373,58.693298 128.964203,54.010715 127.042923,49.258633 
	C125.858383,46.328800 124.147392,45.472176 121.541245,46.997807 
	C121.541245,58.611546 121.541245,69.985977 121.541245,81.722496 
	C123.546852,81.562981 125.113853,81.438354 127.019699,81.286774 
	C127.019699,75.117302 127.019699,69.416313 127.019699,63.715332 
	C127.297691,63.653908 127.575684,63.592484 127.853676,63.531059 
	C129.715195,68.058876 131.576706,72.586685 133.768295,77.804474 
M142.620346,77.989380 
	C142.395767,80.331841 142.950974,81.859055 145.814545,81.641243 
	C148.293854,81.452660 150.810577,81.736969 153.286453,81.526337 
	C158.546463,81.078835 161.606171,78.233727 161.877579,72.946579 
	C162.183838,66.980453 162.497452,60.911251 161.699188,55.037552 
	C161.325821,52.290226 158.845261,48.528168 156.435730,47.649124 
	C152.333694,46.152618 147.533447,46.569981 142.620132,46.148335 
	C142.620132,57.178749 142.620132,67.130447 142.620346,77.989380 
M422.091492,63.504814 
	C422.245026,67.143425 422.034119,70.843712 422.637024,74.406273 
	C423.555084,79.831367 426.846191,82.100166 432.571075,82.002007 
	C438.214386,81.905251 441.529083,79.417412 442.003265,73.861671 
	C442.509277,67.933289 442.547424,61.921619 442.224731,55.976982 
	C441.831940,48.741261 438.579834,45.861679 431.982697,46.007580 
	C425.568481,46.149437 422.358704,49.558716 422.112457,56.556675 
	C422.042419,58.546513 422.094910,60.540657 422.091492,63.504814 
M321.916077,49.591366 
	C318.628387,58.474499 319.353302,67.593262 321.204315,76.499191 
	C322.262665,81.591278 327.108765,82.262543 331.702454,81.916473 
	C336.510986,81.554230 339.563416,78.864281 339.922363,74.113480 
	C340.359589,68.326385 340.230896,62.491230 340.217010,56.677177 
	C340.207550,52.718182 339.565430,48.800068 335.387878,47.072098 
	C330.807587,45.177525 326.288330,45.316982 321.916077,49.591366 
M388.285156,75.818810 
	C388.092651,68.682243 387.741211,61.542923 387.864929,54.411850 
	C387.885437,53.231045 389.982574,52.086258 391.120026,50.924828 
	C392.135712,52.165150 393.421204,53.279118 394.080353,54.686440 
	C394.592529,55.779911 394.323456,57.239285 394.408997,58.658787 
	C396.587280,58.658787 398.453705,58.658787 400.300171,58.658787 
	C400.672028,49.562351 398.114410,46.125359 391.166656,45.999573 
	C384.176483,45.873013 381.057129,49.429096 380.985260,57.707687 
	C380.944733,62.373009 380.569611,67.094772 381.164948,71.684776 
	C381.543274,74.601875 382.929230,77.715744 384.758148,80.036057 
	C387.155396,83.077492 390.434692,85.423683 393.876892,88.563560 
	C391.305328,89.364098 389.710449,89.860588 387.253296,90.625504 
	C390.781189,93.708107 393.979340,93.366676 396.021362,90.848595 
	C399.854950,86.121346 394.473267,85.107239 391.739532,83.182198 
	C400.399994,77.961296 401.432495,76.115280 399.966278,68.842583 
	C398.114105,68.842583 396.275940,68.842583 394.821655,68.842583 
	C393.122833,72.115601 396.675323,78.698601 388.285156,75.818810 
M276.966278,106.686028 
	C276.966278,117.297287 276.966278,127.908539 276.966278,138.726898 
	C279.344208,138.726898 281.224976,138.726898 283.646912,138.726898 
	C283.646912,133.374634 283.646912,128.294586 283.646912,123.214554 
	C284.149231,123.078148 284.651550,122.941742 285.153870,122.805344 
	C289.347687,127.106812 288.125153,133.796967 291.031891,138.729416 
	C292.921051,138.729416 294.836914,138.729416 296.987732,138.729416 
	C295.803619,134.414490 294.813324,130.387039 293.574402,126.437592 
	C292.738007,123.771347 293.184906,121.895302 294.566040,119.229858 
	C296.114655,116.241150 296.406372,111.607674 295.179596,108.506966 
	C294.291321,106.261841 290.179626,104.866714 287.237915,103.991112 
	C284.793182,103.263451 281.945862,103.700470 279.304352,103.933220 
	C278.485168,104.005402 277.755920,105.098068 276.966278,106.686028 
M170.868042,74.000511 
	C170.868042,64.923035 170.868042,55.845558 170.868042,46.322594 
	C168.080856,46.455894 166.206055,46.545555 164.612595,46.621765 
	C164.612595,56.368721 164.211472,65.512611 164.763657,74.598572 
	C165.092728,80.013191 168.546356,82.149139 174.087036,82.025177 
	C180.079315,81.891106 183.442657,79.651260 183.715744,74.174095 
	C184.167999,65.103653 183.838730,55.994236 183.838730,46.655670 
	C181.815689,46.655670 180.086777,46.655670 177.876358,46.655670 
	C177.876358,48.727489 177.880508,50.514828 177.875610,52.302135 
	C177.857376,58.949402 177.982468,65.602692 177.708740,72.239487 
	C177.643845,73.812943 176.584091,75.920670 175.323151,76.661888 
	C174.518082,77.135132 172.502258,75.548683 170.868042,74.000511 
M164.086685,130.435852 
	C164.086685,121.666466 164.086685,112.897079 164.086685,103.814255 
	C162.043076,103.944893 160.645126,104.034256 158.693222,104.159027 
	C158.693222,110.089622 158.693222,115.688377 158.693222,121.287132 
	C155.864166,116.625816 153.741928,111.937576 151.866379,107.152649 
	C150.791809,104.411179 149.356796,102.969757 146.152863,104.356056 
	C146.152863,115.711952 146.152863,127.125603 146.152863,138.628632 
	C147.923386,138.628632 149.450195,138.628632 151.344437,138.628632 
	C151.344437,132.264984 151.344437,126.259079 151.344437,120.253174 
	C154.312378,125.429413 156.356232,130.832474 158.837036,136.026810 
	C159.545685,137.510605 161.521332,138.389267 162.916000,139.545395 
	C163.306122,139.149796 163.696259,138.754181 164.086395,138.358566 
	C164.086395,136.041718 164.086395,133.724869 164.086685,130.435852 
M377.705261,66.704102 
	C376.495453,60.838409 375.417511,54.939613 373.960785,49.135895 
	C373.680634,48.019691 371.945129,46.582352 370.825378,46.532063 
	C369.328857,46.464836 366.632202,47.349472 366.425293,48.269432 
	C363.987183,59.108299 361.918488,70.030243 359.673645,81.327072 
	C361.973328,81.327072 363.715118,81.327072 365.519745,81.327072 
	C366.146362,78.733841 366.722229,76.350769 367.279663,74.043839 
	C370.770447,73.263809 373.784546,73.025330 373.867218,77.544189 
	C373.952087,82.184380 376.686920,81.987335 380.421082,81.245171 
	C379.554413,76.587059 378.712585,72.062607 377.705261,66.704102 
M405.222107,59.690331 
	C403.850861,66.811325 402.479645,73.932312 401.049988,81.356613 
	C403.239441,81.356613 404.983215,81.356613 406.840668,81.356613 
	C407.467407,78.745697 408.038788,76.365372 408.551239,74.230476 
	C416.334595,71.215553 414.445251,78.151314 416.137695,81.278656 
	C418.022003,81.278656 419.744659,81.278656 421.850281,81.278656 
	C419.449738,69.413643 417.132904,57.962418 414.833374,46.596725 
	C412.225067,46.596725 410.275146,46.596725 408.011139,46.596725 
	C407.129364,50.787727 406.279480,54.827278 405.222107,59.690331 
M358.755280,60.303204 
	C359.580048,55.829918 360.404846,51.356632 361.224121,46.913258 
	C357.176697,45.744366 355.333923,46.419910 354.857025,50.419689 
	C354.170105,56.180542 352.832062,61.863754 351.771881,67.580101 
	C351.435303,67.579605 351.098694,67.579117 350.762115,67.578621 
	C349.397552,60.661549 348.032990,53.744480 346.657898,46.773952 
	C344.699707,46.773952 343.015350,46.773952 340.989624,46.773952 
	C343.379395,58.583439 345.676331,69.934212 347.932678,81.084496 
	C352.486115,82.524490 354.834595,81.644196 355.404968,76.742989 
	C356.016632,71.487045 357.457001,66.327530 358.755280,60.303204 
M231.558167,139.035141 
	C234.335571,139.035141 237.112961,139.035141 239.865143,139.035141 
	C241.006805,131.000763 234.078171,136.321609 232.074661,133.262543 
	C232.074661,130.185349 232.074661,126.765503 232.074661,123.123123 
	C234.081894,122.976128 235.854309,122.846329 237.852036,122.700035 
	C237.852036,121.248787 237.852036,119.903282 237.852036,118.616379 
	C235.680313,118.371651 233.923569,118.173691 232.083984,117.966393 
	C232.083984,114.719437 232.083984,111.787018 232.083984,108.575081 
	C234.752274,108.403465 237.182770,108.247139 240.010834,108.065247 
	C239.889755,106.535995 239.783371,105.192291 239.692856,104.049042 
	C234.605515,104.049042 230.026184,104.049042 225.436768,104.049042 
	C225.436768,115.804390 225.436768,127.199913 225.436768,139.035156 
	C227.355545,139.035156 228.980545,139.035156 231.558167,139.035141 
M111.577019,135.159836 
	C112.354454,136.442596 113.031380,138.744873 113.926559,138.833115 
	C117.983734,139.233063 122.102509,139.008118 126.394440,139.008118 
	C126.847282,131.358398 120.570900,136.131042 118.301041,133.506393 
	C118.301041,130.273468 118.301041,126.696915 118.301041,124.130394 
	C120.827370,122.795761 122.752747,121.778603 124.678131,120.761444 
	C122.735146,119.575981 120.792152,118.390511 118.269333,116.851273 
	C118.269333,114.820190 118.269333,111.739723 118.269333,108.401657 
	C120.936455,108.253036 123.368210,108.117531 126.026154,107.969414 
	C126.026154,106.593475 126.026154,105.363281 126.026154,104.117943 
	C121.153893,104.117943 116.578461,104.117943 111.577293,104.117943 
	C111.577293,114.346176 111.577293,124.287819 111.577019,135.159836 
M176.468491,123.038681 
	C179.977585,123.390518 180.974930,121.964890 179.540054,118.609810 
	C177.741928,118.418365 175.980820,118.230858 174.177338,118.038849 
	C174.177338,114.707077 174.177338,111.679832 174.177338,108.299110 
	C176.087692,108.299110 177.665268,108.614120 179.019562,108.199600 
	C180.106186,107.867020 180.922028,106.649712 181.858032,105.825020 
	C180.972305,105.118332 180.118881,103.855263 179.195236,103.801643 
	C175.273041,103.573952 171.330017,103.704971 167.388153,103.704971 
	C167.388153,115.816612 167.388153,127.239677 167.388153,138.690323 
	C169.591385,138.690323 171.481018,138.690323 173.747131,138.690323 
	C173.747131,134.552246 173.595093,130.737686 173.829666,126.947067 
	C173.911713,125.621086 174.945633,124.353996 176.468491,123.038681 
M138.622177,139.036392 
	C140.365738,138.786346 142.876419,139.994781 142.862640,136.565796 
	C142.819458,125.818680 142.846771,115.071289 142.846771,104.100380 
	C140.459381,104.100380 138.440399,104.100380 136.204056,104.100380 
	C136.204056,115.121201 136.167725,125.725052 136.269806,136.327576 
	C136.278397,137.221283 137.215042,138.106049 138.622177,139.036392 
M250.938156,57.529224 
	C250.938156,53.940430 250.938156,50.351639 250.938156,46.684471 
	C248.517197,46.684471 246.771210,46.684471 244.722183,46.684471 
	C244.722183,58.327473 244.722183,69.673561 244.722183,81.238571 
	C246.900787,81.238571 248.764313,81.238571 250.938828,81.238571 
	C250.938828,73.418839 250.938828,65.968834 250.938156,57.529224 
M117.830170,47.158432 
	C115.997658,46.886642 114.165146,46.614857 112.210007,46.324883 
	C112.210007,58.440258 112.210007,69.819145 112.210007,81.252502 
	C114.294090,81.252502 116.029617,81.252502 118.046524,81.252502 
	C118.046524,69.950546 118.046524,58.988560 117.830170,47.158432 
M289.876953,69.484581 
	C289.876953,73.402458 289.876953,77.320343 289.876953,81.244461 
	C292.319214,81.244461 294.052032,81.244461 295.737549,81.244461 
	C295.737549,69.519447 295.737549,58.148621 295.737549,46.755943 
	C293.652527,46.755943 291.918640,46.755943 289.876892,46.755943 
	C289.876892,54.231495 289.876892,61.360085 289.876953,69.484581 
M405.110657,40.951801 
	C408.397858,41.245712 411.724274,41.987968 414.960999,41.704803 
	C418.067413,41.433025 418.664551,39.167873 417.595245,36.952076 
	C414.931763,36.952076 412.677429,37.476166 410.820038,36.840408 
	C407.212250,35.605515 405.374329,36.479458 405.110657,40.951801 
M173.392212,43.855846 
	C178.799835,43.657532 178.139801,38.414734 180.866318,35.601849 
	C174.435272,34.752197 174.435272,34.752197 173.392212,43.855846 
z"/>
<path fill="#FFFDFC" opacity="1.000000" stroke="none" 
	d="
M286.221344,205.814270 
	C293.178436,209.809387 299.745209,213.753754 306.474304,217.398392 
	C309.795074,219.196991 311.142548,221.485245 311.109314,225.347046 
	C310.938721,245.175858 311.096893,265.007416 310.959534,284.836761 
	C310.938354,287.892700 311.879791,289.572449 314.564911,291.086914 
	C331.668732,300.733826 348.617249,310.656403 365.733856,320.280151 
	C369.246368,322.255035 370.636902,324.685455 370.614105,328.645203 
	C370.494324,349.474640 370.493561,370.305511 370.615601,391.134949 
	C370.637787,394.918793 369.325073,397.175690 365.973755,399.068390 
	C347.716095,409.379486 329.547852,419.851532 311.455322,430.449982 
	C308.298553,432.299225 305.843262,432.253876 302.732758,430.440704 
	C285.624359,420.467712 268.377014,410.733032 251.275223,400.748901 
	C248.634506,399.207275 246.750748,399.193604 244.092300,400.746582 
	C226.992844,410.735596 209.726547,420.439240 192.639343,430.448792 
	C189.478363,432.300415 187.071365,432.326599 183.941040,430.496277 
	C165.696136,419.828369 147.372604,409.293762 129.005997,398.836426 
	C126.053452,397.155365 124.837486,395.132599 124.860054,391.671844 
	C124.998093,370.509338 125.027016,349.344604 124.840439,328.182800 
	C124.805733,324.246429 126.368141,322.144684 129.587433,320.323853 
	C146.100632,310.983978 162.439331,301.331696 179.047409,292.166199 
	C183.158279,289.897552 184.387482,287.304810 184.330002,282.796692 
	C184.087845,263.802673 184.312790,244.803146 184.159180,225.807312 
	C184.126999,221.828384 185.449738,219.362274 188.944443,217.381500 
	C207.186356,207.042007 225.361176,196.581635 243.450424,185.977539 
	C246.655594,184.098648 249.187103,184.356613 252.196945,186.127853 
	C263.383942,192.711197 274.657135,199.148056 286.221344,205.814270 
M334.178741,348.682037 
	C327.969940,352.241699 321.850891,355.972626 315.515778,359.291229 
	C312.179169,361.039062 310.819733,363.068665 310.910065,367.027466 
	C311.214142,380.352814 311.026154,393.689392 311.026367,407.021667 
	C311.026428,411.607025 311.026367,416.192352 311.026367,420.790619 
	C311.912170,420.790619 312.297302,420.910339 312.534454,420.773560 
	C328.535217,411.545502 344.561707,402.360107 360.443390,392.930878 
	C361.729401,392.167358 362.639038,389.730194 362.666290,388.053558 
	C362.856049,376.390900 362.766266,364.723694 362.766144,353.057953 
	C362.766083,346.466553 362.766144,339.875122 362.766144,332.269379 
	C352.854919,337.936066 343.819641,343.101929 334.178741,348.682037 
M304.058624,297.518158 
	C288.072876,306.744202 272.087128,315.970245 255.561859,325.507690 
	C272.477081,335.252899 288.857178,344.760803 305.362579,354.045990 
	C306.513397,354.693420 308.843262,354.136932 310.201721,353.380493 
	C319.942047,347.956421 329.580292,342.348480 339.235626,336.772430 
	C345.531189,333.136719 351.801086,329.456482 358.661743,325.458649 
	C341.624115,315.652130 325.217987,306.162567 308.722260,296.831451 
	C307.745178,296.278717 306.048096,296.998840 304.058624,297.518158 
M132.831802,362.500000 
	C132.831696,370.832153 133.009583,379.170013 132.743759,387.493683 
	C132.637634,390.816681 133.826294,392.582947 136.612045,394.168213 
	C151.365082,402.563782 166.014801,411.140900 180.715530,419.628693 
	C181.657562,420.172607 182.727539,420.494934 184.213501,421.120514 
	C184.213501,401.802063 184.289856,382.993958 184.061920,364.189514 
	C184.044540,362.756622 182.148636,360.879089 180.658600,360.003876 
	C166.021622,351.406891 151.289246,342.972137 136.569504,334.516479 
	C135.533218,333.921173 134.382233,333.525574 132.831528,332.835541 
	C132.831528,342.853119 132.831528,352.176544 132.831802,362.500000 
M239.429840,316.218842 
	C240.698990,316.835876 241.968155,317.452911 243.487762,318.191711 
	C243.487762,299.870514 243.487762,282.089844 243.487762,263.661652 
	C227.514511,272.966461 212.107864,281.941193 196.130386,291.248474 
	C210.859848,299.768036 224.799805,307.830963 239.429840,316.218842 
M192.097626,412.411682 
	C192.097626,415.179688 192.097626,417.947693 192.097626,421.767761 
	C208.312347,412.335602 223.688248,403.391418 239.840622,393.995575 
	C223.556107,384.610382 208.132202,375.721191 192.097656,366.480042 
	C192.097656,382.154541 192.097656,396.794067 192.097626,412.411682 
M207.899063,366.587677 
	C219.668701,373.357971 231.438339,380.128235 243.592056,387.119446 
	C243.592056,368.693726 243.592056,350.994995 243.592056,332.373688 
	C227.600357,341.591919 212.213196,350.461700 196.099533,359.750244 
	C200.409927,362.231598 203.846619,364.210022 207.899063,366.587677 
M199.192719,233.252228 
	C197.055969,232.115417 194.919205,230.978607 192.323380,229.597565 
	C192.323380,248.002640 192.323380,265.687592 192.323380,284.144440 
	C208.275284,274.943726 223.727936,266.030945 239.818817,256.750061 
	C225.971558,248.762909 212.889267,241.216980 199.192719,233.252228 
M281.374512,241.880600 
	C272.987000,246.714554 264.599518,251.548508 255.565491,256.755096 
	C271.715637,266.068146 287.127014,274.955200 302.746155,283.962036 
	C302.746155,265.530548 302.746155,247.870956 302.746155,229.564453 
	C295.454376,233.753769 288.723419,237.620895 281.374512,241.880600 
M291.647888,286.850586 
	C278.558319,279.223053 265.468750,271.595520 252.105286,263.808411 
	C252.105286,282.382599 252.105286,300.059784 252.105286,318.447571 
	C268.008270,309.276550 283.312805,300.450653 299.172333,291.304688 
	C296.517609,289.702972 294.410645,288.431732 291.647888,286.850586 
z"/>
<path fill="#FFFDFB" opacity="1.000000" stroke="none" 
	d="
M84.564972,53.487946 
	C86.730820,58.826759 90.162827,63.835476 90.331146,68.951576 
	C90.887901,85.873894 91.437592,102.950264 89.783043,119.750153 
	C87.970650,138.152634 67.014763,146.648560 51.332706,136.547089 
	C45.529152,132.808777 42.851818,126.044884 43.329895,115.842163 
	C48.641922,115.842163 53.974354,115.842163 59.558506,115.842163 
	C59.712814,117.667221 59.792721,119.305458 60.000755,120.927261 
	C60.423332,124.221596 61.871601,126.693001 65.576080,126.779068 
	C68.972054,126.857971 71.577393,125.348099 71.938560,121.793793 
	C72.641930,114.871933 73.001518,107.915146 73.479935,101.298660 
	C68.823318,102.323776 64.672829,103.849182 60.463898,104.032433 
	C52.518032,104.378387 46.726883,100.271851 44.146160,92.660439 
	C40.513744,81.947243 40.379505,70.951256 44.205254,60.338879 
	C49.961449,44.371601 71.586975,40.697140 84.564972,53.487946 
M59.623898,71.623672 
	C59.736618,75.778717 59.706867,79.943977 60.003654,84.085831 
	C60.279537,87.935997 61.944862,90.890579 66.356094,90.937683 
	C70.475639,90.981674 73.020813,88.059135 73.072319,83.495956 
	C73.096725,81.333900 73.172356,79.166229 73.056931,77.010086 
	C72.826958,72.714195 73.068565,68.261162 71.939468,64.199959 
	C71.359558,62.114151 68.226807,59.378963 66.286697,59.409573 
	C64.314346,59.440685 61.909401,62.215652 60.598438,64.345764 
	C59.572083,66.013435 59.927200,68.531319 59.623898,71.623672 
z"/>
<path fill="#FFFAF8" opacity="1.000000" stroke="none" 
	d="
M222.743912,132.206635 
	C223.168243,134.564987 223.500153,136.510117 223.881424,138.744507 
	C221.928696,138.744507 220.167419,138.744507 218.179169,138.744507 
	C217.658005,136.303940 217.146255,133.907394 216.643982,131.555252 
	C208.860626,128.170197 210.567734,135.190094 208.936615,138.755859 
	C204.825836,138.755859 200.746429,138.755859 196.756287,138.755859 
	C194.137894,133.560181 194.829285,127.101616 190.984863,122.677124 
	C190.418289,122.851364 189.851730,123.025612 189.285172,123.199860 
	C189.285172,128.272278 189.285172,133.344681 189.285172,138.707520 
	C187.052979,138.707520 185.308197,138.707520 183.236847,138.707520 
	C183.236847,127.332031 183.236847,115.928200 183.236847,104.084618 
	C187.321030,104.084618 191.469086,103.632355 195.476944,104.189240 
	C201.690491,105.052605 205.021103,113.577827 200.751740,118.773956 
	C198.205414,121.873024 198.631607,124.146004 199.619888,127.181686 
	C200.645538,130.332275 201.435593,133.559570 203.417725,136.914993 
	C205.641327,126.056870 207.864944,115.198753 210.137848,104.099915 
	C212.334412,104.099915 214.435577,104.099915 217.041367,104.099915 
	C218.905502,113.301979 220.778503,122.547707 222.743912,132.206635 
M189.120148,112.628654 
	C189.120148,114.559196 189.120148,116.489738 189.120148,118.358360 
	C195.119934,118.986732 197.972031,115.707878 195.762787,110.929970 
	C195.140442,109.584068 192.758743,109.051659 191.184006,108.146133 
	C190.496201,109.347450 189.808395,110.548767 189.120148,112.628654 
M213.465179,115.327690 
	C212.692413,118.950485 211.919647,122.573280 211.062744,126.590561 
	C212.942947,126.590561 214.285660,126.590561 216.178635,126.590561 
	C215.442169,122.726349 214.778076,119.241829 213.465179,115.327690 
z"/>
<path fill="#FFF1EB" opacity="1.000000" stroke="none" 
	d="
M204.099167,52.053356 
	C204.099167,50.418770 204.099167,48.784187 204.099167,46.980671 
	C214.693054,46.980671 225.235275,46.408222 235.673630,47.201847 
	C241.646881,47.655987 244.224487,56.887871 239.980453,62.053719 
	C237.856842,64.638588 238.094040,66.574814 238.925507,69.209618 
	C240.116486,72.983650 241.057373,76.836609 242.179230,80.926353 
	C238.055099,82.407043 235.513885,82.133026 234.659622,77.201561 
	C233.965683,73.195663 232.438843,69.334053 231.281372,65.408447 
	C230.607803,65.515129 229.934235,65.621811 229.260666,65.728500 
	C229.260666,70.823860 229.260666,75.919228 229.260666,81.326935 
	C226.489471,81.326935 224.608948,81.326935 222.232758,81.326935 
	C222.232758,71.182091 222.232758,61.271622 222.232758,51.125793 
	C219.954834,51.293995 218.183990,51.424751 215.970154,51.588223 
	C215.970154,61.585442 215.970154,71.328850 215.970154,81.362152 
	C213.620178,81.362152 211.736115,81.362152 209.308884,81.362152 
	C209.308884,72.631241 209.191864,64.189926 209.365997,55.754635 
	C209.436462,52.341480 208.488815,50.654564 204.463989,51.727627 
	C204.077667,52.005444 204.099167,52.053356 204.099167,52.053356 
M228.827454,59.265934 
	C229.375504,59.923313 230.119858,61.226139 230.438507,61.129219 
	C232.037338,60.642971 234.460342,60.112602 234.844772,58.995720 
	C235.518661,57.037952 235.567368,54.293739 234.631058,52.547554 
	C233.972565,51.319454 231.247894,51.199223 228.805939,50.365963 
	C228.805939,53.790760 228.805939,56.064808 228.827454,59.265934 
z"/>
<path fill="#FFF1EB" opacity="1.000000" stroke="none" 
	d="
M317.757996,55.079617 
	C317.757965,64.034386 317.757965,72.500549 317.757965,80.966705 
	C317.321075,81.361031 316.884186,81.755363 316.447327,82.149689 
	C315.000793,81.018501 312.935303,80.185234 312.221222,78.701546 
	C309.861053,73.797775 307.988800,68.659157 305.053223,63.681507 
	C305.053223,69.462532 305.053223,75.243553 305.053223,81.327194 
	C302.886230,81.327194 301.320984,81.327194 299.442322,81.327194 
	C299.442322,69.765495 299.442322,58.370388 299.442322,45.086349 
	C301.935944,46.904598 304.083496,47.685104 304.850830,49.175976 
	C307.238129,53.814377 309.102234,58.722076 312.048584,63.313480 
	C312.048584,57.926941 312.048584,52.540398 312.048584,46.674210 
	C313.954987,46.553864 315.506195,46.455936 317.758026,46.313786 
	C317.758026,49.381847 317.758026,51.986423 317.757996,55.079617 
z"/>
<path fill="#FFF1EB" opacity="1.000000" stroke="none" 
	d="
M133.603256,77.459488 
	C131.576706,72.586685 129.715195,68.058876 127.853676,63.531059 
	C127.575684,63.592484 127.297691,63.653908 127.019699,63.715332 
	C127.019699,69.416313 127.019699,75.117302 127.019699,81.286774 
	C125.113853,81.438354 123.546852,81.562981 121.541245,81.722496 
	C121.541245,69.985977 121.541245,58.611546 121.541245,46.997807 
	C124.147392,45.472176 125.858383,46.328800 127.042923,49.258633 
	C128.964203,54.010715 131.057373,58.693298 133.881714,63.354301 
	C133.881714,57.936077 133.881714,52.517849 133.881714,46.643082 
	C136.010269,46.541191 137.558090,46.467098 139.442902,46.376873 
	C139.442902,58.214607 139.442902,69.597130 139.442902,81.018852 
	C135.773926,82.878029 134.659607,80.535934 133.603256,77.459488 
z"/>
<path fill="#FFFAF8" opacity="1.000000" stroke="none" 
	d="
M142.620239,77.535767 
	C142.620132,67.130447 142.620132,57.178749 142.620132,46.148335 
	C147.533447,46.569981 152.333694,46.152618 156.435730,47.649124 
	C158.845261,48.528168 161.325821,52.290226 161.699188,55.037552 
	C162.497452,60.911251 162.183838,66.980453 161.877579,72.946579 
	C161.606171,78.233727 158.546463,81.078835 153.286453,81.526337 
	C150.810577,81.736969 148.293854,81.452660 145.814545,81.641243 
	C142.950974,81.859055 142.395767,80.331841 142.620239,77.535767 
M155.697388,65.417625 
	C155.660736,62.270908 155.703079,59.120777 155.567413,55.978336 
	C155.398483,52.065670 153.552429,50.164932 149.314636,51.314129 
	C149.314636,59.809509 149.314636,68.318375 149.314636,76.703964 
	C153.904007,77.878639 155.427094,75.614853 155.617310,71.828659 
	C155.708694,70.010040 155.674515,68.185120 155.697388,65.417625 
z"/>
<path fill="#FFF6F3" opacity="1.000000" stroke="none" 
	d="
M320.012085,108.588394 
	C319.560303,110.210533 318.791412,111.817696 318.713959,113.457527 
	C318.439880,119.258095 318.727203,125.100204 318.187988,130.869202 
	C317.592010,137.244904 314.552826,139.349243 307.578033,139.184341 
	C302.150421,139.056030 299.152893,136.295837 298.978485,130.373703 
	C298.724701,121.755745 298.913361,113.124763 298.913361,104.105820 
	C300.787323,104.105820 302.656586,104.105820 305.026031,104.105820 
	C305.026031,111.377808 305.022644,118.635864 305.028839,125.893921 
	C305.030090,127.388725 304.621643,129.092773 305.200653,130.325165 
	C305.919739,131.855698 307.469177,132.996140 308.659973,134.305069 
	C309.802765,132.956100 311.849701,131.660767 311.933441,130.248993 
	C312.316437,123.790771 312.151581,117.299927 312.178101,110.820786 
	C312.186859,108.681206 312.179474,106.541550 312.179474,104.059349 
	C314.732208,104.059349 316.985138,104.059349 319.623932,104.460999 
	C320.010559,106.104561 320.011322,107.346474 320.012085,108.588394 
z"/>
<path fill="#FFF9F6" opacity="1.000000" stroke="none" 
	d="
M422.091370,63.018822 
	C422.094910,60.540657 422.042419,58.546513 422.112457,56.556675 
	C422.358704,49.558716 425.568481,46.149437 431.982697,46.007580 
	C438.579834,45.861679 441.831940,48.741261 442.224731,55.976982 
	C442.547424,61.921619 442.509277,67.933289 442.003265,73.861671 
	C441.529083,79.417412 438.214386,81.905251 432.571075,82.002007 
	C426.846191,82.100166 423.555084,79.831367 422.637024,74.406273 
	C422.034119,70.843712 422.245026,67.143425 422.091370,63.018822 
M429.061066,53.101589 
	C428.984222,59.566166 428.693329,66.040382 428.983551,72.488426 
	C429.054657,74.067719 431.026672,75.561440 432.124725,77.094513 
	C433.395599,75.507851 435.625244,73.999329 435.762085,72.320244 
	C436.218689,66.717430 436.090332,61.046993 435.867981,55.415024 
	C435.686249,50.812363 433.773071,49.998497 429.061066,53.101589 
z"/>
<path fill="#FFF9F6" opacity="1.000000" stroke="none" 
	d="
M322.160126,49.281525 
	C326.288330,45.316982 330.807587,45.177525 335.387878,47.072098 
	C339.565430,48.800068 340.207550,52.718182 340.217010,56.677177 
	C340.230896,62.491230 340.359589,68.326385 339.922363,74.113480 
	C339.563416,78.864281 336.510986,81.554230 331.702454,81.916473 
	C327.108765,82.262543 322.262665,81.591278 321.204315,76.499191 
	C319.353302,67.593262 318.628387,58.474499 322.160126,49.281525 
M333.897705,60.625374 
	C333.886322,58.803593 334.360260,56.787674 333.730499,55.213276 
	C333.067688,53.556416 331.349518,52.321739 330.092468,50.902588 
	C328.972260,52.411808 326.990051,53.864239 326.886200,55.440418 
	C326.506012,61.211529 326.545166,67.036560 326.902435,72.811844 
	C326.994110,74.293671 328.832367,75.667442 329.868225,77.090858 
	C331.195465,75.730995 333.434906,74.510971 333.669067,72.983536 
	C334.239960,69.259476 333.881714,65.392975 333.897705,60.625374 
z"/>
<path fill="#FFF6F3" opacity="1.000000" stroke="none" 
	d="
M388.584961,76.154869 
	C396.675323,78.698601 393.122833,72.115601 394.821655,68.842583 
	C396.275940,68.842583 398.114105,68.842583 399.966278,68.842583 
	C401.432495,76.115280 400.399994,77.961296 391.739532,83.182198 
	C394.473267,85.107239 399.854950,86.121346 396.021362,90.848595 
	C393.979340,93.366676 390.781189,93.708107 387.253296,90.625504 
	C389.710449,89.860588 391.305328,89.364098 393.876892,88.563560 
	C390.434692,85.423683 387.155396,83.077492 384.758148,80.036057 
	C382.929230,77.715744 381.543274,74.601875 381.164948,71.684776 
	C380.569611,67.094772 380.944733,62.373009 380.985260,57.707687 
	C381.057129,49.429096 384.176483,45.873013 391.166656,45.999573 
	C398.114410,46.125359 400.672028,49.562351 400.300171,58.658787 
	C398.453705,58.658787 396.587280,58.658787 394.408997,58.658787 
	C394.323456,57.239285 394.592529,55.779911 394.080353,54.686440 
	C393.421204,53.279118 392.135712,52.165150 391.120026,50.924828 
	C389.982574,52.086258 387.885437,53.231045 387.864929,54.411850 
	C387.741211,61.542923 388.092651,68.682243 388.584961,76.154869 
z"/>
<path fill="#FFFBF9" opacity="1.000000" stroke="none" 
	d="
M276.975891,106.204773 
	C277.755920,105.098068 278.485168,104.005402 279.304352,103.933220 
	C281.945862,103.700470 284.793182,103.263451 287.237915,103.991112 
	C290.179626,104.866714 294.291321,106.261841 295.179596,108.506966 
	C296.406372,111.607674 296.114655,116.241150 294.566040,119.229858 
	C293.184906,121.895302 292.738007,123.771347 293.574402,126.437592 
	C294.813324,130.387039 295.803619,134.414490 296.987732,138.729416 
	C294.836914,138.729416 292.921051,138.729416 291.031891,138.729416 
	C288.125153,133.796967 289.347687,127.106812 285.153870,122.805344 
	C284.651550,122.941742 284.149231,123.078148 283.646912,123.214554 
	C283.646912,128.294586 283.646912,133.374634 283.646912,138.726898 
	C281.224976,138.726898 279.344208,138.726898 276.966278,138.726898 
	C276.966278,127.908539 276.966278,117.297287 276.975891,106.204773 
M283.443604,117.728912 
	C285.328247,117.720215 288.570709,118.272568 288.848633,117.599968 
	C289.764526,115.383469 290.324829,112.482491 289.598785,110.322685 
	C289.148834,108.984093 286.120239,108.512321 283.323517,107.225594 
	C283.323517,111.365181 283.323517,114.132950 283.443604,117.728912 
z"/>
<path fill="#FFF6F3" opacity="1.000000" stroke="none" 
	d="
M335.989563,104.200562 
	C338.410217,104.028099 340.830872,103.855629 343.730652,103.649025 
	C343.730652,111.103577 343.729706,117.891335 343.731415,124.679085 
	C343.731781,126.177864 343.333038,127.837440 343.844574,129.137024 
	C344.576416,130.996262 345.786224,133.849976 347.129364,134.053604 
	C350.510345,134.566208 350.826172,131.412399 350.875244,128.891998 
	C350.991913,122.898964 350.924042,116.902321 350.929443,110.907143 
	C350.931396,108.749893 350.929779,106.592644 350.929779,104.077049 
	C353.023071,104.077049 354.894012,104.077049 356.962250,104.077049 
	C356.962250,113.060928 357.182892,121.878082 356.883759,130.677567 
	C356.688354,136.424484 353.740753,138.838882 347.860779,139.140411 
	C341.468475,139.468216 338.471008,137.500854 337.725281,131.505493 
	C337.112457,126.578506 337.367249,121.545998 337.183624,116.562248 
	C337.086304,113.920815 336.874237,111.283607 336.347717,107.986435 
	C335.984161,106.285774 335.986847,105.243172 335.989563,104.200562 
z"/>
<path fill="#FFF5F1" opacity="1.000000" stroke="none" 
	d="
M170.948669,74.443100 
	C172.502258,75.548683 174.518082,77.135132 175.323151,76.661888 
	C176.584091,75.920670 177.643845,73.812943 177.708740,72.239487 
	C177.982468,65.602692 177.857376,58.949402 177.875610,52.302135 
	C177.880508,50.514828 177.876358,48.727489 177.876358,46.655670 
	C180.086777,46.655670 181.815689,46.655670 183.838730,46.655670 
	C183.838730,55.994236 184.167999,65.103653 183.715744,74.174095 
	C183.442657,79.651260 180.079315,81.891106 174.087036,82.025177 
	C168.546356,82.149139 165.092728,80.013191 164.763657,74.598572 
	C164.211472,65.512611 164.612595,56.368721 164.612595,46.621765 
	C166.206055,46.545555 168.080856,46.455894 170.868042,46.322594 
	C170.868042,55.845558 170.868042,64.923035 170.948669,74.443100 
z"/>
<path fill="#FFFDFB" opacity="1.000000" stroke="none" 
	d="
M378.990295,138.755966 
	C377.208221,138.755966 375.426178,138.755966 373.753235,138.755966 
	C371.140808,133.530502 371.860107,127.084213 368.013397,122.670227 
	C367.454834,122.841232 366.896271,123.012238 366.337708,123.183243 
	C366.337708,128.238678 366.337708,133.294113 366.337708,138.757095 
	C364.135498,138.860352 362.390930,138.942154 360.282227,139.041046 
	C360.282227,127.304535 360.282227,115.806862 360.282227,103.836128 
	C363.395477,103.836128 366.340302,103.816002 369.284760,103.841141 
	C373.105347,103.873756 376.851898,104.487625 378.346130,108.554077 
	C379.818085,112.559776 379.876465,116.602287 376.968964,120.323921 
	C376.161469,121.357552 375.728607,123.171425 375.984406,124.455978 
	C376.726593,128.183075 377.905640,131.823166 378.930908,136.207642 
	C378.962463,137.530594 378.976379,138.143280 378.990295,138.755966 
M369.200897,118.851089 
	C373.910217,117.980614 373.876251,114.289307 372.765869,111.233131 
	C372.147339,109.530762 369.262115,108.651947 367.398407,107.401993 
	C366.972778,107.806274 366.547119,108.210564 366.121490,108.614845 
	C366.121490,110.718842 365.846375,112.872803 366.216309,114.909615 
	C366.471161,116.312904 367.619446,117.553925 369.200897,118.851089 
z"/>
<path fill="#FFFDFC" opacity="1.000000" stroke="none" 
	d="
M164.086548,130.921936 
	C164.086395,133.724869 164.086395,136.041718 164.086395,138.358566 
	C163.696259,138.754181 163.306122,139.149796 162.916000,139.545395 
	C161.521332,138.389267 159.545685,137.510605 158.837036,136.026810 
	C156.356232,130.832474 154.312378,125.429413 151.344437,120.253174 
	C151.344437,126.259079 151.344437,132.264984 151.344437,138.628632 
	C149.450195,138.628632 147.923386,138.628632 146.152863,138.628632 
	C146.152863,127.125603 146.152863,115.711952 146.152863,104.356056 
	C149.356796,102.969757 150.791809,104.411179 151.866379,107.152649 
	C153.741928,111.937576 155.864166,116.625816 158.693222,121.287132 
	C158.693222,115.688377 158.693222,110.089622 158.693222,104.159027 
	C160.645126,104.034256 162.043076,103.944893 164.086685,103.814255 
	C164.086685,112.897079 164.086685,121.666466 164.086548,130.921936 
z"/>
<path fill="#FFF5F1" opacity="1.000000" stroke="none" 
	d="
M377.788025,67.121124 
	C378.712585,72.062607 379.554413,76.587059 380.421082,81.245171 
	C376.686920,81.987335 373.952087,82.184380 373.867218,77.544189 
	C373.784546,73.025330 370.770447,73.263809 367.279663,74.043839 
	C366.722229,76.350769 366.146362,78.733841 365.519745,81.327072 
	C363.715118,81.327072 361.973328,81.327072 359.673645,81.327072 
	C361.918488,70.030243 363.987183,59.108299 366.425293,48.269432 
	C366.632202,47.349472 369.328857,46.464836 370.825378,46.532063 
	C371.945129,46.582352 373.680634,48.019691 373.960785,49.135895 
	C375.417511,54.939613 376.495453,60.838409 377.788025,67.121124 
M368.894470,62.459991 
	C368.571381,64.672867 368.248322,66.885742 367.918488,69.144798 
	C372.632019,69.360664 372.632019,69.360664 370.266998,55.737091 
	C369.639252,58.596508 369.303802,60.124508 368.894470,62.459991 
z"/>
<path fill="#FFF6F3" opacity="1.000000" stroke="none" 
	d="
M271.971466,81.546494 
	C270.537689,81.738800 269.103882,81.931099 267.427704,82.155914 
	C266.810211,79.314171 266.258820,76.776611 265.661133,74.026016 
	C261.999725,73.189392 259.065735,73.053787 258.893616,78.125465 
	C258.742584,82.576263 255.683060,81.784973 252.252716,81.246315 
	C254.586578,69.608040 256.883759,58.152733 259.130829,46.947315 
	C264.640869,45.150944 266.679504,46.949104 267.388977,52.218452 
	C268.473175,60.270489 270.437439,68.204033 272.002258,76.987030 
	C271.974823,79.039619 271.973145,80.293060 271.971466,81.546494 
M264.049164,69.520576 
	C263.932709,65.780182 263.816254,62.039783 263.699829,58.299389 
	C263.169800,58.323425 262.639801,58.347462 262.109802,58.371498 
	C261.684357,61.100235 261.004669,63.825325 260.965424,66.559608 
	C260.950867,67.576241 262.435913,68.614388 264.049164,69.520576 
z"/>
<path fill="#FFF6F3" opacity="1.000000" stroke="none" 
	d="
M405.325836,59.278580 
	C406.279480,54.827278 407.129364,50.787727 408.011139,46.596725 
	C410.275146,46.596725 412.225067,46.596725 414.833374,46.596725 
	C417.132904,57.962418 419.449738,69.413643 421.850281,81.278656 
	C419.744659,81.278656 418.022003,81.278656 416.137695,81.278656 
	C414.445251,78.151314 416.334595,71.215553 408.551239,74.230476 
	C408.038788,76.365372 407.467407,78.745697 406.840668,81.356613 
	C404.983215,81.356613 403.239441,81.356613 401.049988,81.356613 
	C402.479645,73.932312 403.850861,66.811325 405.325836,59.278580 
M410.474518,60.274216 
	C410.024200,63.190605 409.573883,66.106995 409.079498,69.309036 
	C410.815338,69.309036 412.178741,69.309036 413.837250,69.309036 
	C413.115387,64.855835 412.457306,60.796181 411.604797,55.537090 
	C411.108582,57.658710 410.890594,58.590675 410.474518,60.274216 
z"/>
<path fill="#FFF9F6" opacity="1.000000" stroke="none" 
	d="
M379.426544,138.799652 
	C378.976379,138.143280 378.962463,137.530594 378.927338,136.612915 
	C379.655518,135.384598 380.834930,134.562775 381.080902,133.520630 
	C382.225494,128.670959 383.100037,123.757935 384.093811,118.872169 
	C385.084259,114.002693 386.101532,109.138687 387.149048,104.068878 
	C389.421082,104.068878 391.522552,104.068878 394.090179,104.068878 
	C396.377777,115.457405 398.659698,126.817627 401.061981,138.777069 
	C399.106567,138.872757 397.394653,138.956543 395.344330,139.056885 
	C394.729706,136.381699 394.152222,133.868256 393.595154,131.443695 
	C385.572235,128.225250 387.738708,135.611710 385.870148,138.843323 
	C383.818787,138.843323 381.840790,138.843323 379.426544,138.799652 
M388.700806,123.832748 
	C387.590363,128.602753 390.695343,126.482651 393.095825,126.667404 
	C392.370026,122.525810 391.730011,118.873825 391.090027,115.221848 
	C390.770935,115.238220 390.451843,115.254601 390.132751,115.270973 
	C389.703735,117.861252 389.274750,120.451530 388.700806,123.832748 
z"/>
<path fill="#FFF9F6" opacity="1.000000" stroke="none" 
	d="
M204.054993,51.992195 
	C203.301468,55.731045 203.301468,55.731045 199.067657,56.001785 
	C198.807236,55.808998 198.483749,55.660484 198.301895,55.409401 
	C197.234741,53.935951 196.294601,52.348389 195.049393,51.051018 
	C194.872192,50.866402 192.416641,52.159058 192.470505,52.583176 
	C192.723129,54.571751 192.993134,56.887501 194.167526,58.360291 
	C196.534744,61.328976 199.758987,63.612335 202.140488,66.572029 
	C205.182938,70.353111 205.161987,76.030540 202.480972,79.097572 
	C199.235077,82.810783 194.827438,83.177910 191.162888,80.844437 
	C188.479553,79.135773 186.996078,75.542809 184.197754,71.725632 
	C187.648331,70.999702 189.306625,70.650833 191.164001,70.260071 
	C191.463043,71.428375 191.430130,72.422729 191.909821,72.955956 
	C193.169373,74.356094 194.652222,75.555359 196.046112,76.834656 
	C196.569626,74.850235 197.791458,72.719238 197.414597,70.923813 
	C197.058334,69.226578 195.102890,67.801582 193.704636,66.403030 
	C192.060516,64.758553 190.099121,63.413738 188.560425,61.685181 
	C185.781372,58.563274 185.217331,54.869751 186.692459,50.974705 
	C188.054901,47.377125 191.024551,46.159176 194.616333,46.014133 
	C199.003937,45.836960 201.914413,47.819660 203.732574,52.005417 
	C204.099167,52.053356 204.077667,52.005444 204.054993,51.992195 
z"/>
<path fill="#FFF9F6" opacity="1.000000" stroke="none" 
	d="
M257.972992,108.590034 
	C258.105743,109.886116 258.238525,111.182190 258.402924,112.787292 
	C256.795044,113.212929 255.258698,113.619614 254.423172,113.840782 
	C252.708984,111.687294 251.438049,109.938210 249.919479,108.440193 
	C249.781448,108.304031 247.104660,110.039413 247.220856,110.465172 
	C247.830719,112.699669 248.591614,115.084038 249.999146,116.863304 
	C251.933701,119.308762 254.781784,121.031227 256.718201,123.475601 
	C259.474548,126.954994 260.149170,131.069717 258.037872,135.158951 
	C255.939575,139.223007 252.078995,139.534286 248.107773,139.096710 
	C243.235123,138.559784 240.929749,135.064377 241.293594,128.612961 
	C242.624573,128.357056 244.035553,128.085754 245.764130,127.753403 
	C246.171478,129.042511 246.207108,130.411484 246.909622,131.100693 
	C248.137161,132.304993 249.774750,133.091339 251.240494,134.052826 
	C251.685303,132.325378 252.860062,130.360733 252.394836,128.928986 
	C251.778336,127.031670 249.966431,125.470200 248.510742,123.911507 
	C246.700378,121.973083 244.535065,120.343002 242.868988,118.297913 
	C239.653595,114.351105 240.216125,108.010139 243.792923,105.250038 
	C248.038193,101.974106 254.114822,103.230713 257.789337,108.361603 
	C258.020844,108.626671 257.972992,108.590034 257.972992,108.590034 
z"/>
<path fill="#FFF5F1" opacity="1.000000" stroke="none" 
	d="
M358.645508,60.714569 
	C357.457001,66.327530 356.016632,71.487045 355.404968,76.742989 
	C354.834595,81.644196 352.486115,82.524490 347.932678,81.084496 
	C345.676331,69.934212 343.379395,58.583439 340.989624,46.773952 
	C343.015350,46.773952 344.699707,46.773952 346.657898,46.773952 
	C348.032990,53.744480 349.397552,60.661549 350.762115,67.578621 
	C351.098694,67.579117 351.435303,67.579605 351.771881,67.580101 
	C352.832062,61.863754 354.170105,56.180542 354.857025,50.419689 
	C355.333923,46.419910 357.176697,45.744366 361.224121,46.913258 
	C360.404846,51.356632 359.580048,55.829918 358.645508,60.714569 
z"/>
<path fill="#FFF4EE" opacity="1.000000" stroke="none" 
	d="
M231.081848,139.035156 
	C228.980545,139.035156 227.355545,139.035156 225.436768,139.035156 
	C225.436768,127.199913 225.436768,115.804390 225.436768,104.049042 
	C230.026184,104.049042 234.605515,104.049042 239.692856,104.049042 
	C239.783371,105.192291 239.889755,106.535995 240.010834,108.065247 
	C237.182770,108.247139 234.752274,108.403465 232.083984,108.575081 
	C232.083984,111.787018 232.083984,114.719437 232.083984,117.966393 
	C233.923569,118.173691 235.680313,118.371651 237.852036,118.616379 
	C237.852036,119.903282 237.852036,121.248787 237.852036,122.700035 
	C235.854309,122.846329 234.081894,122.976128 232.074661,123.123123 
	C232.074661,126.765503 232.074661,130.185349 232.074661,133.262543 
	C234.078171,136.321609 241.006805,131.000763 239.865143,139.035141 
	C237.112961,139.035141 234.335571,139.035141 231.081848,139.035156 
z"/>
<path fill="#FFFAF8" opacity="1.000000" stroke="none" 
	d="
M111.577156,134.694641 
	C111.577293,124.287819 111.577293,114.346176 111.577293,104.117943 
	C116.578461,104.117943 121.153893,104.117943 126.026154,104.117943 
	C126.026154,105.363281 126.026154,106.593475 126.026154,107.969414 
	C123.368210,108.117531 120.936455,108.253036 118.269333,108.401657 
	C118.269333,111.739723 118.269333,114.820190 118.269333,116.851273 
	C120.792152,118.390511 122.735146,119.575981 124.678131,120.761444 
	C122.752747,121.778603 120.827370,122.795761 118.301041,124.130394 
	C118.301041,126.696915 118.301041,130.273468 118.301041,133.506393 
	C120.570900,136.131042 126.847282,131.358398 126.394440,139.008118 
	C122.102509,139.008118 117.983734,139.233063 113.926559,138.833115 
	C113.031380,138.744873 112.354454,136.442596 111.577156,134.694641 
z"/>
<path fill="#FFF4EE" opacity="1.000000" stroke="none" 
	d="
M176.006683,123.049347 
	C174.945633,124.353996 173.911713,125.621086 173.829666,126.947067 
	C173.595093,130.737686 173.747131,134.552246 173.747131,138.690323 
	C171.481018,138.690323 169.591385,138.690323 167.388153,138.690323 
	C167.388153,127.239677 167.388153,115.816612 167.388153,103.704971 
	C171.330017,103.704971 175.273041,103.573952 179.195236,103.801643 
	C180.118881,103.855263 180.972305,105.118332 181.858032,105.825012 
	C180.922028,106.649712 180.106186,107.867020 179.019562,108.199600 
	C177.665268,108.614120 176.087692,108.299110 174.177338,108.299110 
	C174.177338,111.679832 174.177338,114.707077 174.177338,118.038849 
	C175.980820,118.230858 177.741928,118.418365 179.540054,118.609810 
	C180.974930,121.964890 179.977585,123.390518 176.006683,123.049347 
z"/>
<path fill="#FFF4EE" opacity="1.000000" stroke="none" 
	d="
M258.424805,108.499847 
	C257.972992,108.590034 258.020844,108.626671 258.021423,108.658104 
	C258.322266,107.245667 258.622498,105.801804 258.992004,104.025040 
	C264.484589,104.025040 270.053070,104.025040 275.857361,104.025040 
	C275.857361,105.360619 275.857361,106.638649 275.857361,108.179916 
	C274.283356,108.491806 272.739471,108.797729 270.762512,109.189453 
	C270.762512,119.059097 270.762512,128.814285 270.762512,138.766510 
	C268.383942,138.766510 266.482941,138.766510 264.121338,138.766510 
	C264.121338,128.753479 264.121338,118.996742 264.121338,109.036858 
	C262.088165,108.793716 260.482391,108.601685 258.424805,108.499847 
z"/>
<path fill="#FFFDFC" opacity="1.000000" stroke="none" 
	d="
M335.543793,104.052048 
	C335.986847,105.243172 335.984161,106.285774 335.993378,107.635468 
	C334.580078,108.301620 333.154907,108.660690 331.300049,109.128014 
	C331.300049,118.763908 331.300049,128.522293 331.300049,138.746094 
	C329.152557,138.855270 327.405121,138.944122 325.097595,139.061432 
	C325.097595,129.143951 325.097595,119.414444 325.097595,109.351585 
	C323.335510,109.180763 322.076996,109.058762 320.415283,108.762573 
	C320.011322,107.346474 320.010559,106.104561 320.008301,104.489700 
	C325.037201,104.045692 330.067627,103.974609 335.543793,104.052048 
z"/>
<path fill="#FFF1EB" opacity="1.000000" stroke="none" 
	d="
M138.171356,139.015686 
	C137.215042,138.106049 136.278397,137.221283 136.269806,136.327576 
	C136.167725,125.725052 136.204056,115.121201 136.204056,104.100380 
	C138.440399,104.100380 140.459381,104.100380 142.846771,104.100380 
	C142.846771,115.071289 142.819458,125.818680 142.862640,136.565796 
	C142.876419,139.994781 140.365738,138.786346 138.171356,139.015686 
z"/>
<path fill="#FFF9F6" opacity="1.000000" stroke="none" 
	d="
M250.938492,58.024033 
	C250.938828,65.968834 250.938828,73.418839 250.938828,81.238571 
	C248.764313,81.238571 246.900787,81.238571 244.722183,81.238571 
	C244.722183,69.673561 244.722183,58.327473 244.722183,46.684471 
	C246.771210,46.684471 248.517197,46.684471 250.938156,46.684471 
	C250.938156,50.351639 250.938156,53.940430 250.938492,58.024033 
z"/>
<path fill="#FFFBF9" opacity="1.000000" stroke="none" 
	d="
M117.938347,47.592506 
	C118.046524,58.988560 118.046524,69.950546 118.046524,81.252502 
	C116.029617,81.252502 114.294090,81.252502 112.210007,81.252502 
	C112.210007,69.819145 112.210007,58.440258 112.210007,46.324883 
	C114.165146,46.614857 115.997658,46.886642 117.938347,47.592506 
z"/>
<path fill="#FFFBF9" opacity="1.000000" stroke="none" 
	d="
M289.876923,68.986633 
	C289.876892,61.360085 289.876892,54.231495 289.876892,46.755943 
	C291.918640,46.755943 293.652527,46.755943 295.737549,46.755943 
	C295.737549,58.148621 295.737549,69.519447 295.737549,81.244461 
	C294.052032,81.244461 292.319214,81.244461 289.876953,81.244461 
	C289.876953,77.320343 289.876953,73.402458 289.876923,68.986633 
z"/>
<path fill="#FFF1EB" opacity="1.000000" stroke="none" 
	d="
M272.388062,81.448669 
	C271.973145,80.293060 271.974823,79.039619 271.982452,77.409348 
	C274.237366,76.486000 276.486328,75.939476 278.789307,75.379822 
	C280.036835,83.696976 279.016479,86.045532 273.875549,86.606308 
	C274.792908,85.232056 275.530853,84.126549 276.614899,82.502541 
	C275.102386,82.045357 273.953522,81.698097 272.388062,81.448669 
z"/>
<path fill="#FFF1EB" opacity="1.000000" stroke="none" 
	d="
M405.011230,40.596916 
	C405.374329,36.479458 407.212250,35.605515 410.820038,36.840408 
	C412.677429,37.476166 414.931763,36.952076 417.595245,36.952076 
	C418.664551,39.167873 418.067413,41.433025 414.960999,41.704803 
	C411.724274,41.987968 408.397858,41.245712 405.011230,40.596916 
z"/>
<path fill="#FFF1EB" opacity="1.000000" stroke="none" 
	d="
M173.134491,43.537556 
	C174.435272,34.752197 174.435272,34.752197 180.866318,35.601849 
	C178.139801,38.414734 178.799835,43.657532 173.134491,43.537556 
z"/>
<path fill="#FD6B28" opacity="1.000000" stroke="none" 
	d="
M334.481567,348.474915 
	C343.819641,343.101929 352.854919,337.936066 362.766144,332.269379 
	C362.766144,339.875122 362.766083,346.466553 362.766144,353.057953 
	C362.766266,364.723694 362.856049,376.390900 362.666290,388.053558 
	C362.639038,389.730194 361.729401,392.167358 360.443390,392.930878 
	C344.561707,402.360107 328.535217,411.545502 312.534454,420.773560 
	C312.297302,420.910339 311.912170,420.790619 311.026367,420.790619 
	C311.026367,416.192352 311.026428,411.607025 311.026367,407.021667 
	C311.026154,393.689392 311.214142,380.352814 310.910065,367.027466 
	C310.819733,363.068665 312.179169,361.039062 315.515778,359.291229 
	C321.850891,355.972626 327.969940,352.241699 334.481567,348.474915 
z"/>
<path fill="#FD6A27" opacity="1.000000" stroke="none" 
	d="
M304.372314,297.322388 
	C306.048096,296.998840 307.745178,296.278717 308.722260,296.831451 
	C325.217987,306.162567 341.624115,315.652130 358.661743,325.458649 
	C351.801086,329.456482 345.531189,333.136719 339.235626,336.772430 
	C329.580292,342.348480 319.942047,347.956421 310.201721,353.380493 
	C308.843262,354.136932 306.513397,354.693420 305.362579,354.045990 
	C288.857178,344.760803 272.477081,335.252899 255.561859,325.507690 
	C272.087128,315.970245 288.072876,306.744202 304.372314,297.322388 
z"/>
<path fill="#FD6A26" opacity="1.000000" stroke="none" 
	d="
M132.831665,362.000000 
	C132.831528,352.176544 132.831528,342.853119 132.831528,332.835541 
	C134.382233,333.525574 135.533218,333.921173 136.569504,334.516479 
	C151.289246,342.972137 166.021622,351.406891 180.658600,360.003876 
	C182.148636,360.879089 184.044540,362.756622 184.061920,364.189514 
	C184.289856,382.993958 184.213501,401.802063 184.213501,421.120514 
	C182.727539,420.494934 181.657562,420.172607 180.715530,419.628693 
	C166.014801,411.140900 151.365082,402.563782 136.612045,394.168213 
	C133.826294,392.582947 132.637634,390.816681 132.743759,387.493683 
	C133.009583,379.170013 132.831696,370.832153 132.831665,362.000000 
z"/>
<path fill="#FD6C29" opacity="1.000000" stroke="none" 
	d="
M239.084808,316.056335 
	C224.799805,307.830963 210.859848,299.768036 196.130386,291.248474 
	C212.107864,281.941193 227.514511,272.966461 243.487762,263.661652 
	C243.487762,282.089844 243.487762,299.870514 243.487762,318.191711 
	C241.968155,317.452911 240.698990,316.835876 239.084808,316.056335 
z"/>
<path fill="#FD6C29" opacity="1.000000" stroke="none" 
	d="
M192.097641,411.922638 
	C192.097656,396.794067 192.097656,382.154541 192.097656,366.480042 
	C208.132202,375.721191 223.556107,384.610382 239.840622,393.995575 
	C223.688248,403.391418 208.312347,412.335602 192.097626,421.767761 
	C192.097626,417.947693 192.097626,415.179688 192.097641,411.922638 
z"/>
<path fill="#FD6C29" opacity="1.000000" stroke="none" 
	d="
M207.591187,366.388062 
	C203.846619,364.210022 200.409927,362.231598 196.099533,359.750244 
	C212.213196,350.461700 227.600357,341.591919 243.592056,332.373688 
	C243.592056,350.994995 243.592056,368.693726 243.592056,387.119446 
	C231.438339,380.128235 219.668701,373.357971 207.591187,366.388062 
z"/>
<path fill="#FD6C29" opacity="1.000000" stroke="none" 
	d="
M199.499847,233.461639 
	C212.889267,241.216980 225.971558,248.762909 239.818817,256.750061 
	C223.727936,266.030945 208.275284,274.943726 192.323380,284.144440 
	C192.323380,265.687592 192.323380,248.002640 192.323380,229.597565 
	C194.919205,230.978607 197.055969,232.115417 199.499847,233.461639 
z"/>
<path fill="#FD6A27" opacity="1.000000" stroke="none" 
	d="
M281.683472,241.684311 
	C288.723419,237.620895 295.454376,233.753769 302.746155,229.564453 
	C302.746155,247.870956 302.746155,265.530548 302.746155,283.962036 
	C287.127014,274.955200 271.715637,266.068146 255.565491,256.755096 
	C264.599518,251.548508 272.987000,246.714554 281.683472,241.684311 
z"/>
<path fill="#FD6A27" opacity="1.000000" stroke="none" 
	d="
M291.975769,287.005554 
	C294.410645,288.431732 296.517609,289.702972 299.172333,291.304688 
	C283.312805,300.450653 268.008270,309.276550 252.105286,318.447571 
	C252.105286,300.059784 252.105286,282.382599 252.105286,263.808411 
	C265.468750,271.595520 278.558319,279.223053 291.975769,287.005554 
z"/>
<path fill="#FD6C29" opacity="1.000000" stroke="none" 
	d="
M59.646210,71.147568 
	C59.927200,68.531319 59.572083,66.013435 60.598438,64.345764 
	C61.909401,62.215652 64.314346,59.440685 66.286697,59.409573 
	C68.226807,59.378963 71.359558,62.114151 71.939468,64.199959 
	C73.068565,68.261162 72.826958,72.714195 73.056931,77.010086 
	C73.172356,79.166229 73.096725,81.333900 73.072319,83.495956 
	C73.020813,88.059135 70.475639,90.981674 66.356094,90.937683 
	C61.944862,90.890579 60.279537,87.935997 60.003654,84.085831 
	C59.706867,79.943977 59.736618,75.778717 59.646210,71.147568 
z"/>
<path fill="#FD7638" opacity="1.000000" stroke="none" 
	d="
M189.120361,112.189369 
	C189.808395,110.548767 190.496201,109.347450 191.184006,108.146133 
	C192.758743,109.051659 195.140442,109.584068 195.762787,110.929970 
	C197.972031,115.707878 195.119934,118.986732 189.120148,118.358360 
	C189.120148,116.489738 189.120148,114.559196 189.120361,112.189369 
z"/>
<path fill="#FD7F45" opacity="1.000000" stroke="none" 
	d="
M213.789581,115.542496 
	C214.778076,119.241829 215.442169,122.726349 216.178635,126.590561 
	C214.285660,126.590561 212.942947,126.590561 211.062744,126.590561 
	C211.919647,122.573280 212.692413,118.950485 213.789581,115.542496 
z"/>
<path fill="#FD7130" opacity="1.000000" stroke="none" 
	d="
M228.816696,58.802395 
	C228.805939,56.064808 228.805939,53.790760 228.805939,50.365963 
	C231.247894,51.199223 233.972565,51.319454 234.631058,52.547554 
	C235.567368,54.293739 235.518661,57.037952 234.844772,58.995720 
	C234.460342,60.112602 232.037338,60.642971 230.438507,61.129219 
	C230.119858,61.226139 229.375504,59.923313 228.816696,58.802395 
z"/>
<path fill="#FD7130" opacity="1.000000" stroke="none" 
	d="
M155.697296,65.890335 
	C155.674515,68.185120 155.708694,70.010040 155.617310,71.828659 
	C155.427094,75.614853 153.904007,77.878639 149.314636,76.703964 
	C149.314636,68.318375 149.314636,59.809509 149.314636,51.314129 
	C153.552429,50.164932 155.398483,52.065670 155.567413,55.978336 
	C155.703079,59.120777 155.660736,62.270908 155.697296,65.890335 
z"/>
<path fill="#FD6C29" opacity="1.000000" stroke="none" 
	d="
M429.225555,52.689568 
	C433.773071,49.998497 435.686249,50.812363 435.867981,55.415024 
	C436.090332,61.046993 436.218689,66.717430 435.762085,72.320244 
	C435.625244,73.999329 433.395599,75.507851 432.124725,77.094513 
	C431.026672,75.561440 429.054657,74.067719 428.983551,72.488426 
	C428.693329,66.040382 428.984222,59.566166 429.225555,52.689568 
z"/>
<path fill="#FD6C29" opacity="1.000000" stroke="none" 
	d="
M333.897644,61.104599 
	C333.881714,65.392975 334.239960,69.259476 333.669067,72.983536 
	C333.434906,74.510971 331.195465,75.730995 329.868225,77.090858 
	C328.832367,75.667442 326.994110,74.293671 326.902435,72.811844 
	C326.545166,67.036560 326.506012,61.211529 326.886200,55.440418 
	C326.990051,53.864239 328.972260,52.411808 330.092468,50.902592 
	C331.349518,52.321739 333.067688,53.556416 333.730499,55.213276 
	C334.360260,56.787674 333.886322,58.803593 333.897644,61.104599 
z"/>
<path fill="#FD7638" opacity="1.000000" stroke="none" 
	d="
M283.383545,117.314812 
	C283.323517,114.132950 283.323517,111.365181 283.323517,107.225594 
	C286.120239,108.512321 289.148834,108.984093 289.598785,110.322685 
	C290.324829,112.482491 289.764526,115.383469 288.848633,117.599968 
	C288.570709,118.272568 285.328247,117.720215 283.383545,117.314812 
z"/>
<path fill="#FD7638" opacity="1.000000" stroke="none" 
	d="
M368.784668,118.859283 
	C367.619446,117.553925 366.471161,116.312904 366.216309,114.909615 
	C365.846375,112.872803 366.121490,110.718842 366.121490,108.614845 
	C366.547119,108.210564 366.972778,107.806274 367.398407,107.401993 
	C369.262115,108.651947 372.147339,109.530762 372.765869,111.233131 
	C373.876251,114.289307 373.910217,117.980614 368.784668,118.859283 
z"/>
<path fill="#FD7F45" opacity="1.000000" stroke="none" 
	d="
M368.931396,62.056252 
	C369.303802,60.124508 369.639252,58.596508 370.266998,55.737091 
	C372.632019,69.360664 372.632019,69.360664 367.918488,69.144798 
	C368.248322,66.885742 368.571381,64.672867 368.931396,62.056252 
z"/>
<path fill="#FD7F45" opacity="1.000000" stroke="none" 
	d="
M263.643127,69.581650 
	C262.435913,68.614388 260.950867,67.576241 260.965424,66.559608 
	C261.004669,63.825325 261.684357,61.100235 262.109802,58.371498 
	C262.639801,58.347462 263.169800,58.323425 263.699829,58.299389 
	C263.816254,62.039783 263.932709,65.780182 263.643127,69.581650 
z"/>
<path fill="#FD7F45" opacity="1.000000" stroke="none" 
	d="
M410.573578,59.898430 
	C410.890594,58.590675 411.108582,57.658710 411.604797,55.537090 
	C412.457306,60.796181 413.115387,64.855835 413.837250,69.309036 
	C412.178741,69.309036 410.815338,69.309036 409.079498,69.309036 
	C409.573883,66.106995 410.024200,63.190605 410.573578,59.898430 
z"/>
<path fill="#FD7F45" opacity="1.000000" stroke="none" 
	d="
M388.773254,123.437279 
	C389.274750,120.451530 389.703735,117.861252 390.132751,115.270973 
	C390.451843,115.254601 390.770935,115.238220 391.090027,115.221848 
	C391.730011,118.873825 392.370026,122.525810 393.095825,126.667404 
	C390.695343,126.482651 387.590363,128.602753 388.773254,123.437279 
z"/>
</svg>