<svg width="86" height="98" viewBox="0 0 86 98" fill="none" xmlns="http://www.w3.org/2000/svg">
<path d="M85.9999 6.25512C86.0058 5.43003 85.7122 4.6222 85.1568 3.93463C84.6013 3.24705 83.8091 2.71089 82.8811 2.39449C81.953 2.07809 80.9313 1.9958 79.9461 2.15809C78.9609 2.32039 78.0569 2.71992 77.3493 3.30576L74.2635 5.88126C74.013 6.06518 73.6889 6.16686 73.3529 6.16686C73.0169 6.16686 72.6927 6.06518 72.4423 5.88126L66.827 1.22875C66.3567 0.839403 65.7972 0.530367 65.1808 0.319473C64.5643 0.108579 63.9031 0 63.2353 0C62.5674 0 61.9062 0.108579 61.2897 0.319473C60.6733 0.530367 60.1138 0.839403 59.6435 1.22875L54.0282 5.88126C53.7778 6.06518 53.4536 6.16686 53.1176 6.16686C52.7817 6.16686 52.4575 6.06518 52.207 5.88126L46.5918 1.22875C46.1215 0.839403 45.562 0.530367 44.9455 0.319473C44.329 0.108579 43.6678 0 43 0C42.3322 0 41.671 0.108579 41.0545 0.319473C40.438 0.530367 39.8785 0.839403 39.4082 1.22875L33.793 5.88126C33.5425 6.06518 33.2183 6.16686 32.8824 6.16686C32.5464 6.16686 32.2222 6.06518 31.9718 5.88126L26.3565 1.22875C25.8862 0.839403 25.3267 0.530367 24.7102 0.319473C24.0938 0.108579 23.4326 0 22.7647 0C22.0969 0 21.4357 0.108579 20.8192 0.319473C20.2028 0.530367 19.6433 0.839403 19.173 1.22875L13.5577 5.88126C13.3073 6.06518 12.9831 6.16686 12.6471 6.16686C12.3111 6.16686 11.987 6.06518 11.7365 5.88126L8.65066 3.30576C7.94308 2.71992 7.03906 2.32039 6.05387 2.15809C5.06868 1.9958 4.04695 2.07809 3.11894 2.39449C2.19093 2.71089 1.39869 3.24705 0.843226 3.93463C0.287763 4.6222 -0.00575783 5.43003 8.55797e-05 6.25512V91.7449C-0.00575783 92.57 0.287763 93.3778 0.843226 94.0654C1.39869 94.7529 2.19093 95.2891 3.11894 95.6055C4.04695 95.9219 5.06868 96.0042 6.05387 95.8419C7.03906 95.6796 7.94308 95.2801 8.65066 94.6942L11.7365 92.1187C11.987 91.9348 12.3111 91.8331 12.6471 91.8331C12.9831 91.8331 13.3073 91.9348 13.5577 92.1187L19.173 96.7712C19.6433 97.1606 20.2028 97.4696 20.8192 97.6805C21.4357 97.8914 22.0969 98 22.7647 98C23.4326 98 24.0938 97.8914 24.7102 97.6805C25.3267 97.4696 25.8862 97.1606 26.3565 96.7712L31.9718 92.1187C32.2222 91.9348 32.5464 91.8331 32.8824 91.8331C33.2183 91.8331 33.5425 91.9348 33.793 92.1187L39.4082 96.7712C39.8785 97.1606 40.438 97.4696 41.0545 97.6805C41.671 97.8914 42.3322 98 43 98C43.6678 98 44.329 97.8914 44.9455 97.6805C45.562 97.4696 46.1215 97.1606 46.5918 96.7712L52.207 92.1187C52.4575 91.9348 52.7817 91.8331 53.1176 91.8331C53.4536 91.8331 53.7778 91.9348 54.0282 92.1187L59.6435 96.7712C60.1138 97.1606 60.6733 97.4696 61.2897 97.6805C61.9062 97.8914 62.5674 98 63.2353 98C63.9031 98 64.5643 97.8914 65.1808 97.6805C65.7972 97.4696 66.3567 97.1606 66.827 96.7712L72.4423 92.1187C72.6927 91.9348 73.0169 91.8331 73.3529 91.8331C73.6889 91.8331 74.013 91.9348 74.2635 92.1187L77.3493 94.6942C78.0569 95.2801 78.9609 95.6796 79.9461 95.8419C80.9313 96.0042 81.953 95.9219 82.8811 95.6055C83.8091 95.2891 84.6013 94.7529 85.1568 94.0654C85.7122 93.3778 86.0058 92.57 85.9999 91.7449V6.25512ZM50.2341 67.61C49.7609 66.9234 49.6179 66.1163 49.8333 65.3474C50.0486 64.5786 50.6067 63.9038 51.3976 63.456C52.2277 63.0474 53.2183 62.9187 54.1615 63.0968C55.1046 63.2749 55.9272 63.7461 56.4564 64.4114C57.0362 65.1471 57.8301 65.7526 58.7663 66.1733C59.7025 66.5939 60.7516 66.8165 61.8188 66.8208C63.4959 66.8208 65.1043 66.2737 66.2902 65.2999C67.4761 64.3261 68.1423 63.0054 68.1423 61.6282C68.1423 60.2511 67.4761 58.9303 66.2902 57.9566C65.1043 56.9828 63.4959 56.4357 61.8188 56.4357C58.2831 56.4141 54.8901 55.2879 52.3294 53.2859C49.7687 51.2839 48.2323 48.5564 48.0326 45.6576C47.8329 42.7589 48.9849 39.9065 51.2543 37.6801C53.5238 35.4538 56.7404 34.0205 60.2505 33.6717C60.4468 33.6747 60.6413 33.6416 60.82 33.5748C60.9986 33.5081 61.1568 33.4093 61.2829 33.2859C61.409 33.1624 61.4999 33.0173 61.5489 32.8612C61.5978 32.7051 61.6036 32.5421 61.5658 32.3839V31.0131C61.5658 30.1868 61.9656 29.3944 62.6771 28.8101C63.3886 28.2258 64.3537 27.8976 65.36 27.8976C66.3662 27.8976 67.3313 28.2258 68.0428 28.8101C68.7543 29.3944 69.1541 30.1868 69.1541 31.0131V34.4609C69.1517 34.6328 69.2012 34.8024 69.2984 34.9547C69.3955 35.107 69.5371 35.237 69.7105 35.3333C71.3577 36.2491 72.7535 37.4376 73.8082 38.8226C74.2885 39.5117 74.4303 40.3254 74.2047 41.0974C73.979 41.8695 73.4029 42.5417 72.5941 42.9767C71.7521 43.3612 70.765 43.4721 69.8281 43.2875C68.8913 43.1029 68.073 42.6361 67.5352 41.9797C66.9536 41.2115 66.1377 40.5814 65.1682 40.1518C64.1988 39.7222 63.1095 39.508 62.0083 39.5304C60.907 39.5529 59.832 39.8111 58.8897 40.2797C57.9474 40.7482 57.1705 41.4107 56.6359 42.2017C56.1014 42.9926 55.8277 43.8845 55.8421 44.789C55.8564 45.6935 56.1582 46.5792 56.7177 47.3584C57.2771 48.1376 58.0748 48.7834 59.0316 49.2316C59.9885 49.6798 61.0713 49.915 62.1729 49.9139C65.7086 49.9355 69.1015 51.0617 71.6623 53.0637C74.223 55.0657 75.7594 57.7932 75.9591 60.6919C76.1588 63.5907 75.0068 66.4431 72.7374 68.6694C70.4679 70.8958 67.2513 72.3291 63.7411 72.6779C63.4278 72.7077 63.1379 72.8289 62.9243 73.0196C62.7107 73.2102 62.5876 73.4575 62.5776 73.7164V75.1703C62.5776 75.9966 62.1779 76.7891 61.4663 77.3733C60.7548 77.9576 59.7898 78.2859 58.7835 78.2859C57.7772 78.2859 56.8122 77.9576 56.1007 77.3733C55.3891 76.7891 54.9894 75.9966 54.9894 75.1703V71.681C54.9927 71.5147 54.9431 71.3506 54.8455 71.2049C54.7479 71.0592 54.6057 70.9369 54.4329 70.8502C52.7862 70.0086 51.3591 68.9074 50.2341 67.61ZM35.4118 56.2695H17.7059C16.6997 56.2695 15.7346 55.9413 15.0231 55.357C14.3116 54.7727 13.9118 53.9803 13.9118 53.154C13.9118 52.3277 14.3116 51.5353 15.0231 50.951C15.7346 50.3667 16.6997 50.0385 17.7059 50.0385H35.4118C36.418 50.0385 37.3831 50.3667 38.0946 50.951C38.8061 51.5353 39.2059 52.3277 39.2059 53.154C39.2059 53.9803 38.8061 54.7727 38.0946 55.357C37.3831 55.9413 36.418 56.2695 35.4118 56.2695ZM36.6765 69.7701C36.6634 70.593 36.2594 71.3793 35.5507 71.9612C34.842 72.5432 33.8846 72.8749 32.8824 72.8856H17.7059C16.6997 72.8856 15.7346 72.5574 15.0231 71.9731C14.3116 71.3888 13.9118 70.5964 13.9118 69.7701C13.9118 68.9438 14.3116 68.1514 15.0231 67.5671C15.7346 66.9828 16.6997 66.6546 17.7059 66.6546H32.8824C33.8846 66.6654 34.842 66.997 35.5507 67.579C36.2594 68.161 36.6634 68.9472 36.6765 69.7701ZM35.4118 39.6535H17.7059C16.6997 39.6535 15.7346 39.3252 15.0231 38.7409C14.3116 38.1567 13.9118 37.3642 13.9118 36.5379C13.9118 35.7116 14.3116 34.9192 15.0231 34.3349C15.7346 33.7507 16.6997 33.4224 17.7059 33.4224H35.4118C36.418 33.4224 37.3831 33.7507 38.0946 34.3349C38.8061 34.9192 39.2059 35.7116 39.2059 36.5379C39.2059 37.3642 38.8061 38.1567 38.0946 38.7409C37.3831 39.3252 36.418 39.6535 35.4118 39.6535Z" fill="#24539E"/>
</svg>
