<svg width="82" height="91" viewBox="0 0 82 91" fill="none" xmlns="http://www.w3.org/2000/svg">
<path d="M0 12.8006C0 9.40566 1.34863 6.14978 3.7492 3.7492C6.14978 1.34863 9.40566 0 12.8006 0H59.3482C62.7431 0 65.999 1.34863 68.3995 3.7492C70.8001 6.14978 72.1488 9.40566 72.1488 12.8006V38.4018C72.1488 39.3276 71.7809 40.2156 71.1262 40.8703C70.4715 41.525 69.5836 41.8928 68.6577 41.8928C67.7318 41.8928 66.8438 41.525 66.1891 40.8703C65.5344 40.2156 65.1666 39.3276 65.1666 38.4018V12.8006C65.1666 9.5888 62.5599 6.98214 59.3482 6.98214H12.8006C9.5888 6.98214 6.98214 9.5888 6.98214 12.8006V77.9672C6.98214 81.179 9.5888 83.7856 12.8006 83.7856H47.7113C48.6372 83.7856 49.5251 84.1534 50.1798 84.8082C50.8345 85.4629 51.2023 86.3508 51.2023 87.2767C51.2023 88.2026 50.8345 89.0906 50.1798 89.7453C49.5251 90.4 48.6372 90.7678 47.7113 90.7678H12.8006C9.40566 90.7678 6.14978 89.4192 3.7492 87.0186C1.34863 84.618 0 81.3621 0 77.9672V12.8006Z" fill="#24539E"/>
<path d="M68.6584 51.2022C69.5843 51.2022 70.4723 51.5701 71.127 52.2248C71.7817 52.8795 72.1495 53.7674 72.1495 54.6933V56.639C76.9299 56.8159 81.459 60.3395 81.459 65.5529C81.459 66.4788 81.0912 67.3667 80.4365 68.0214C79.7818 68.6761 78.8938 69.0439 77.9679 69.0439C77.042 69.0439 76.1541 68.6761 75.4994 68.0214C74.8447 67.3667 74.4769 66.4788 74.4769 65.5529C74.4769 64.8919 73.7228 63.6165 71.7724 63.6165H64.7624C64.206 63.6016 63.6627 63.7865 63.231 64.1378C62.9144 64.4171 62.84 64.6824 62.84 64.8547C62.8328 65.0887 62.8611 65.3226 62.9237 65.5482C62.9855 65.5939 63.0509 65.6343 63.1192 65.6692C63.3054 65.7623 63.5847 65.874 64.0176 66.0044L75.2728 69.2674C76.5575 69.6491 78.2053 70.2821 79.4993 71.6553C80.8958 73.1448 81.459 75.0532 81.459 77.1153C81.459 82.0819 77.009 85.3356 72.5544 85.3356H72.1495V87.2766C72.1495 88.2025 71.7817 89.0905 71.127 89.7452C70.4723 90.3999 69.5843 90.7677 68.6584 90.7677C67.7325 90.7677 66.8446 90.3999 66.1898 89.7452C65.5351 89.0905 65.1673 88.2025 65.1673 87.2766V85.3309C60.3869 85.1541 55.8578 81.6304 55.8578 76.4171C55.8578 75.4912 56.2256 74.6032 56.8803 73.9485C57.535 73.2938 58.423 72.926 59.3489 72.926C60.2748 72.926 61.1627 73.2938 61.8175 73.9485C62.4722 74.6032 62.84 75.4912 62.84 76.4171C62.84 77.078 63.594 78.3534 65.5444 78.3534H72.5544C73.1108 78.3684 73.6541 78.1834 74.0859 77.8321C74.4024 77.5528 74.4769 77.2875 74.4769 77.1153C74.484 76.8812 74.4557 76.6474 74.3931 76.4217C74.3313 76.3761 74.266 76.3356 74.1976 76.3007C74.0114 76.2076 73.7321 76.0959 73.2992 75.9656L62.044 72.7026C60.7593 72.3209 59.1115 71.6878 57.8175 70.3147C56.421 68.8252 55.8578 66.9167 55.8578 64.8547C55.8578 59.888 60.3078 56.6343 64.7624 56.6343H65.1673V54.6933C65.1673 53.7674 65.5351 52.8795 66.1898 52.2248C66.8446 51.5701 67.7325 51.2022 68.6584 51.2022ZM13.965 40.729C13.965 39.8032 14.3328 38.9152 14.9875 38.2605C15.6422 37.6058 16.5302 37.238 17.4561 37.238H19.7834C20.7093 37.238 21.5973 37.6058 22.252 38.2605C22.9067 38.9152 23.2745 39.8032 23.2745 40.729C23.2745 41.6549 22.9067 42.5429 22.252 43.1976C21.5973 43.8523 20.7093 44.2201 19.7834 44.2201H17.4561C16.5302 44.2201 15.6422 43.8523 14.9875 43.1976C14.3328 42.5429 13.965 41.6549 13.965 40.729ZM27.9293 40.729C27.9293 39.8032 28.2971 38.9152 28.9518 38.2605C29.6065 37.6058 30.4945 37.238 31.4203 37.238H54.6941C55.62 37.238 56.508 37.6058 57.1627 38.2605C57.8174 38.9152 58.1852 39.8032 58.1852 40.729C58.1852 41.6549 57.8174 42.5429 57.1627 43.1976C56.508 43.8523 55.62 44.2201 54.6941 44.2201H31.4203C30.4945 44.2201 29.6065 43.8523 28.9518 43.1976C28.2971 42.5429 27.9293 41.6549 27.9293 40.729ZM13.965 54.6933C13.965 53.7674 14.3328 52.8795 14.9875 52.2248C15.6422 51.5701 16.5302 51.2022 17.4561 51.2022H19.7834C20.7093 51.2022 21.5973 51.5701 22.252 52.2248C22.9067 52.8795 23.2745 53.7674 23.2745 54.6933C23.2745 55.6192 22.9067 56.5072 22.252 57.1619C21.5973 57.8166 20.7093 58.1844 19.7834 58.1844H17.4561C16.5302 58.1844 15.6422 57.8166 14.9875 57.1619C14.3328 56.5072 13.965 55.6192 13.965 54.6933ZM27.9293 54.6933C27.9293 53.7674 28.2971 52.8795 28.9518 52.2248C29.6065 51.5701 30.4945 51.2022 31.4203 51.2022H47.712C48.6379 51.2022 49.5259 51.5701 50.1806 52.2248C50.8353 52.8795 51.2031 53.7674 51.2031 54.6933C51.2031 55.6192 50.8353 56.5072 50.1806 57.1619C49.5259 57.8166 48.6379 58.1844 47.712 58.1844H31.4203C30.4945 58.1844 29.6065 57.8166 28.9518 57.1619C28.2971 56.5072 27.9293 55.6192 27.9293 54.6933ZM13.965 68.6576C13.965 67.7317 14.3328 66.8437 14.9875 66.189C15.6422 65.5343 16.5302 65.1665 17.4561 65.1665H19.7834C20.7093 65.1665 21.5973 65.5343 22.252 66.189C22.9067 66.8437 23.2745 67.7317 23.2745 68.6576C23.2745 69.5835 22.9067 70.4714 22.252 71.1262C21.5973 71.7809 20.7093 72.1487 19.7834 72.1487H17.4561C16.5302 72.1487 15.6422 71.7809 14.9875 71.1262C14.3328 70.4714 13.965 69.5835 13.965 68.6576ZM27.9293 68.6576C27.9293 67.7317 28.2971 66.8437 28.9518 66.189C29.6065 65.5343 30.4945 65.1665 31.4203 65.1665H40.7299C41.6557 65.1665 42.5437 65.5343 43.1984 66.189C43.8531 66.8437 44.2209 67.7317 44.2209 68.6576C44.2209 69.5835 43.8531 70.4714 43.1984 71.1262C42.5437 71.7809 41.6557 72.1487 40.7299 72.1487H31.4203C30.4945 72.1487 29.6065 71.7809 28.9518 71.1262C28.2971 70.4714 27.9293 69.5835 27.9293 68.6576ZM12.8013 19.7826C12.8013 17.6135 12.8013 16.529 13.1551 15.6725C13.6285 14.5342 14.5342 13.6302 15.6733 13.1589C16.5298 12.8005 17.6143 12.8005 19.7834 12.8005H52.3668C54.5359 12.8005 55.6204 12.8005 56.4769 13.1543C57.6152 13.6277 58.5191 14.5333 58.9905 15.6725C59.3489 16.529 59.3489 17.6135 59.3489 19.7826C59.3489 21.9517 59.3489 23.0363 58.9951 23.8928C58.5217 25.0311 57.6161 25.935 56.4769 26.4064C55.6204 26.7648 54.5359 26.7648 52.3668 26.7648H19.7834C17.6143 26.7648 16.5298 26.7648 15.6733 26.411C14.535 25.9376 13.6311 25.0319 13.1597 23.8928C12.8013 23.0363 12.8013 21.9517 12.8013 19.7826Z" fill="#24539E"/>
</svg>
