<svg width="45" height="40" viewBox="0 0 45 40" fill="none" xmlns="http://www.w3.org/2000/svg">
<path d="M7.58731 0C6.33822 0 5.25822 5.81145e-07 4.41004 0.0827593C3.57277 0.160001 2.54186 0.344827 1.70186 1.04276C1.1708 1.48689 0.742986 2.04392 0.448853 2.67423C0.154719 3.30454 0.00148534 3.99266 4.6579e-05 4.68966C-0.00540796 5.76552 0.469137 6.69242 0.927319 7.42622C1.3855 8.17105 2.04823 9.05381 2.82277 10.0855L9.90276 19.5255C10.59 20.4414 10.7619 20.6842 10.8819 20.9324C11.0055 21.1899 11.0955 21.463 11.1519 21.7518C11.2064 22.0276 11.2146 22.3366 11.2146 23.5007V31.6938C11.2146 32.3504 11.2119 33.0566 11.4055 33.7297C11.5746 34.3145 11.8555 34.8607 12.2319 35.3435C12.6682 35.8952 13.2409 36.298 13.7646 36.6594L13.8955 36.7504L16.5955 38.6345C17.0482 38.9518 17.4982 39.269 17.8909 39.4897C18.2837 39.7104 18.9491 40.047 19.7728 39.9945C20.7628 39.9338 21.6546 39.4207 22.2273 38.629C22.6964 37.978 22.8 37.2525 22.8382 36.8001C22.8764 36.3421 22.8764 35.7794 22.8764 35.2056V23.5007C22.8764 22.3366 22.8873 22.0276 22.9391 21.7518C22.9937 21.463 23.0846 21.1899 23.2118 20.9324C23.3291 20.6842 23.5009 20.4414 24.1882 19.5255L31.2682 10.0855C32.0427 9.05381 32.7055 8.17105 33.1664 7.42622C33.6218 6.69242 34.0936 5.76552 34.0909 4.68966C34.0895 3.99266 33.9363 3.30454 33.6421 2.67423C33.348 2.04392 32.9202 1.48689 32.3891 1.04276C31.5491 0.344827 30.5182 0.16 29.6809 0.0799996C28.8327 -5.36442e-07 27.7527 0 26.5037 0H7.58731ZM4.09368 4.65932C4.10251 4.52182 4.15733 4.39146 4.24913 4.28966C4.31459 4.27035 4.4755 4.23173 4.79459 4.20138C5.42731 4.14069 6.31095 4.13794 7.68549 4.13794H26.4055C27.78 4.13794 28.6637 4.13794 29.2964 4.20138C29.6155 4.22897 29.7764 4.27035 29.8418 4.28966C29.9237 4.3807 29.9864 4.51035 29.9973 4.65932C29.9198 4.8609 29.8191 5.05256 29.6973 5.23035C29.3482 5.79587 28.7973 6.53242 27.9518 7.6607L26.9727 8.96553H7.11822L6.1364 7.6607C5.29095 6.52966 4.74004 5.79587 4.39095 5.23035C4.26916 5.05256 4.1712 4.8609 4.09368 4.65932ZM34.7727 13.7931C34.2303 13.7931 33.71 14.0111 33.3264 14.3991C32.9428 14.7871 32.7273 15.3134 32.7273 15.8621C32.7273 16.4108 32.9428 16.9371 33.3264 17.3251C33.71 17.7131 34.2303 17.9311 34.7727 17.9311H42.9545C43.497 17.9311 44.0173 17.7131 44.4009 17.3251C44.7845 16.9371 45 16.4108 45 15.8621C45 15.3134 44.7845 14.7871 44.4009 14.3991C44.0173 14.0111 43.497 13.7931 42.9545 13.7931H34.7727ZM30.6818 20.6897C30.1393 20.6897 29.6191 20.9077 29.2355 21.2957C28.8519 21.6837 28.6364 22.2099 28.6364 22.7587C28.6364 23.3074 28.8519 23.8336 29.2355 24.2216C29.6191 24.6096 30.1393 24.8276 30.6818 24.8276H42.9545C43.497 24.8276 44.0173 24.6096 44.4009 24.2216C44.7845 23.8336 45 23.3074 45 22.7587C45 22.2099 44.7845 21.6837 44.4009 21.2957C44.0173 20.9077 43.497 20.6897 42.9545 20.6897H30.6818ZM29.3182 27.5862C28.7757 27.5862 28.2554 27.8042 27.8718 28.1922C27.4882 28.5802 27.2727 29.1065 27.2727 29.6552C27.2727 30.2039 27.4882 30.7302 27.8718 31.1182C28.2554 31.5062 28.7757 31.7242 29.3182 31.7242H42.9545C43.497 31.7242 44.0173 31.5062 44.4009 31.1182C44.7845 30.7302 45 30.2039 45 29.6552C45 29.1065 44.7845 28.5802 44.4009 28.1922C44.0173 27.8042 43.497 27.5862 42.9545 27.5862H29.3182ZM29.3182 34.4828C28.7757 34.4828 28.2554 34.7008 27.8718 35.0888C27.4882 35.4768 27.2727 36.003 27.2727 36.5518C27.2727 37.1005 27.4882 37.6268 27.8718 38.0148C28.2554 38.4028 28.7757 38.6207 29.3182 38.6207H36.1364C36.6789 38.6207 37.1991 38.4028 37.5827 38.0148C37.9663 37.6268 38.1818 37.1005 38.1818 36.5518C38.1818 36.003 37.9663 35.4768 37.5827 35.0888C37.1991 34.7008 36.6789 34.4828 36.1364 34.4828H29.3182Z" fill="url(#paint0_linear_319_41)"/>
<defs>
<linearGradient id="paint0_linear_319_41" x1="10.5" y1="-6.59376e-08" x2="23" y2="63" gradientUnits="userSpaceOnUse">
<stop stop-color="#24539E"/>
<stop offset="1" stop-color="#F3F7FE"/>
</linearGradient>
</defs>
</svg>
