<svg width="88" height="100" viewBox="0 0 88 100" fill="none" xmlns="http://www.w3.org/2000/svg">
<path d="M65.1872 50C78.6372 41.4688 87.7497 25.075 87.7497 6.25C87.7497 4.13333 87.6372 2.05 87.4122 0H0.593442C0.36503 2.07545 0.252356 4.16202 0.255942 6.25C0.255942 25.075 9.36219 41.4688 22.8122 50C9.36219 58.5312 0.255942 74.925 0.255942 93.75C0.255942 95.8667 0.368442 97.95 0.593442 100H87.4122C87.6372 97.95 87.7497 95.8667 87.7497 93.75C87.7497 74.925 78.6372 58.5312 65.1872 50ZM9.62469 93.75C9.62469 75.4937 17.4559 60.0188 31.4997 54.9125V45.0875C17.4559 39.9813 9.62469 24.5 9.62469 6.25H78.3747C78.3747 24.5063 70.5434 39.9813 56.4997 45.0875V54.9125C70.5434 60.0188 78.3747 75.5 78.3747 93.75H9.62469ZM54.5122 65.3875C47.5122 61.4187 47.1309 56.2688 47.1247 53.1438V46.8688C47.1247 43.7438 47.4934 38.575 54.5247 34.6C58.2872 32.4187 61.5372 29.1 63.9997 24.9937H23.9997C26.4684 29.1 29.7247 32.4188 33.4872 34.6063C40.4872 38.575 40.8684 43.725 40.8747 46.85V53.125C40.8747 56.25 40.5059 61.4188 33.4747 65.3938C26.3809 69.5125 21.0997 77.6688 19.4997 87.5H68.4934C66.8934 77.6625 61.6059 69.5062 54.5059 65.3875H54.5122Z" fill="#24539E"/>
</svg>
