<svg width="88" height="88" viewBox="0 0 88 88" fill="none" xmlns="http://www.w3.org/2000/svg">
<path d="M21.1673 0.166748V8.50008H4.50065C3.39558 8.50008 2.33577 8.93907 1.55437 9.72047C0.772971 10.5019 0.333984 11.5617 0.333984 12.6667V79.3334C0.333984 80.4385 0.772971 81.4983 1.55437 82.2797C2.33577 83.0611 3.39558 83.5001 4.50065 83.5001H36.8131C31.6847 77.0947 29.0991 69.0228 29.5513 60.8299C30.0034 52.6369 33.4616 44.8986 39.2637 39.0965C45.0658 33.2944 52.8042 29.8362 60.9971 29.384C69.1901 28.9319 77.262 31.5175 83.6673 36.6459V12.6667C83.6673 11.5617 83.2283 10.5019 82.4469 9.72047C81.6655 8.93907 80.6057 8.50008 79.5006 8.50008H62.834V0.166748H54.5006V8.50008H29.5007V0.166748H21.1673ZM87.834 62.6667C87.834 65.9498 87.1873 69.2007 85.931 72.2338C84.6746 75.267 82.8331 78.023 80.5117 80.3444C78.1902 82.6659 75.4342 84.5074 72.4011 85.7637C69.3679 87.0201 66.117 87.6667 62.834 87.6667C59.5509 87.6667 56.3 87.0201 53.2669 85.7637C50.2338 84.5074 47.4778 82.6659 45.1563 80.3444C42.8349 78.023 40.9934 75.267 39.737 72.2338C38.4806 69.2007 37.834 65.9498 37.834 62.6667C37.834 56.0363 40.4679 49.6775 45.1563 44.9891C49.8447 40.3007 56.2036 37.6667 62.834 37.6667C69.4644 37.6667 75.8232 40.3007 80.5117 44.9891C85.2001 49.6775 87.834 56.0363 87.834 62.6667ZM58.6673 46.0001V64.3917L68.2215 73.9459L74.1132 68.0542L67.0006 60.9417V46.0001H58.6673Z" fill="#24539E"/>
</svg>
