<svg width="88" height="88" viewBox="0 0 88 88" fill="none" xmlns="http://www.w3.org/2000/svg">
<path fill-rule="evenodd" clip-rule="evenodd" d="M13.0628 13.0625C21.2679 4.8574 32.3965 0.247803 44.0003 0.247803C55.6041 0.247803 66.7326 4.8574 74.9378 13.0625C83.1429 21.2677 87.7525 32.3962 87.7525 44C87.7525 55.6038 83.1429 66.7324 74.9378 74.9375C66.7326 83.1427 55.6041 87.7523 44.0003 87.7523C32.3965 87.7523 21.2679 83.1427 13.0628 74.9375C4.85765 66.7324 0.248047 55.6038 0.248047 44C0.248047 32.3962 4.85764 21.2677 13.0628 13.0625ZM23.2315 16.6L71.4003 64.7688C76.4187 58.1493 78.8709 49.9367 78.3035 41.6494C77.7362 33.362 74.1876 25.5603 68.3138 19.6865C62.44 13.8127 54.6383 10.2641 46.3509 9.69677C38.0636 9.12939 29.851 11.5816 23.2315 16.6ZM64.769 71.4L16.6003 23.2313C11.5818 29.8508 9.12963 38.0633 9.69701 46.3507C10.2644 54.6381 13.813 62.4398 19.6868 68.3136C25.5605 74.1873 33.3623 77.7359 41.6496 78.3033C49.937 78.8707 58.1495 76.4185 64.769 71.4Z" fill="#24539E"/>
</svg>
