<svg width="76" height="100" viewBox="0 0 76 100" fill="none" xmlns="http://www.w3.org/2000/svg">
<path d="M67.1667 26.6667L73.4167 20.8333C71.3333 18.75 69.25 16.6667 67.1667 15L61.3333 20.8333C54.6667 15.4167 46.75 12.5 38 12.5C17.1667 12.5 0.5 29.1667 0.5 50C0.5 70.8333 17.1667 87.5 38 87.5C58.8333 87.5 75.5 70.8333 75.5 50C75.5 41.25 72.5833 32.9167 67.1667 26.6667ZM42.1667 54.1667H33.8333V25H42.1667V54.1667ZM50.5 0H25.5V8.33333H50.5V0ZM42.1667 100H33.8333V91.6667H42.1667V100ZM58.8333 100H50.5V91.6667H58.8333V100ZM25.5 100H17.1667V91.6667H25.5V100Z" fill="#24539E"/>
</svg>
