<svg width="45" height="40" viewBox="0 0 45 40" fill="none" xmlns="http://www.w3.org/2000/svg">
<path fill-rule="evenodd" clip-rule="evenodd" d="M36 0L20.2501 18.9583V31.6667H15.7501V18.9583L0 0H36ZM42.75 30C42.75 34.2956 39.2242 37.7778 34.875 37.7778C30.5258 37.7778 27.0001 34.2956 27.0001 30C27.0001 25.7044 30.5258 22.2223 34.875 22.2223C39.2242 22.2223 42.75 25.7045 42.75 30ZM45 30C45 35.5229 40.467 40 34.875 40C29.2832 40 24.75 35.5229 24.75 30C24.75 24.4772 29.2832 20 34.875 20C40.467 20 45 24.4772 45 30ZM38.4549 24.9039L40.0459 26.4752L36.4659 30.011L40.0469 33.5479L38.4559 35.1193L34.8749 31.5824L31.2951 35.118L29.7041 33.5467L33.2839 30.011L29.7025 26.4739L31.2935 24.9025L34.8749 28.4397L38.4549 24.9039Z" fill="#24539E"/>
</svg>
