<svg width="100" height="100" viewBox="0 0 100 100" fill="none" xmlns="http://www.w3.org/2000/svg">
<path d="M83.3333 75C83.3333 72.7431 82.5087 70.7899 80.8594 69.1406C79.2101 67.4913 77.2569 66.6667 75 66.6667C72.7431 66.6667 70.7899 67.4913 69.1406 69.1406C67.4913 70.7899 66.6667 72.7431 66.6667 75C66.6667 77.2569 67.4913 79.2101 69.1406 80.8594C70.7899 82.5087 72.7431 83.3333 75 83.3333C77.2569 83.3333 79.2101 82.5087 80.8594 80.8594C82.5087 79.2101 83.3333 77.2569 83.3333 75ZM33.3333 25C33.3333 22.7431 32.5087 20.7899 30.8594 19.1406C29.2101 17.4913 27.2569 16.6667 25 16.6667C22.7431 16.6667 20.7899 17.4913 19.1406 19.1406C17.4913 20.7899 16.6667 22.7431 16.6667 25C16.6667 27.2569 17.4913 29.2101 19.1406 30.8594C20.7899 32.5087 22.7431 33.3333 25 33.3333C27.2569 33.3333 29.2101 32.5087 30.8594 30.8594C32.5087 29.2101 33.3333 27.2569 33.3333 25ZM100 75C100 81.901 97.5586 87.793 92.6758 92.6758C87.793 97.5586 81.901 100 75 100C68.099 100 62.207 97.5586 57.3242 92.6758C52.4414 87.793 50 81.901 50 75C50 68.099 52.4414 62.207 57.3242 57.3242C62.207 52.4414 68.099 50 75 50C81.901 50 87.793 52.4414 92.6758 57.3242C97.5586 62.207 100 68.099 100 75ZM93.75 4.16667C93.75 5.03472 93.4679 5.85937 92.9036 6.64062L24.1536 98.3073C23.329 99.4358 22.2222 100 20.8333 100H10.4167C9.28819 100 8.31163 99.5877 7.48698 98.763C6.66233 97.9384 6.25 96.9618 6.25 95.8333C6.25 94.9653 6.53212 94.1406 7.09635 93.3594L75.8464 1.69271C76.671 0.564236 77.7778 0 79.1667 0H89.5833C90.7118 0 91.6884 0.412326 92.513 1.23698C93.3377 2.06163 93.75 3.03819 93.75 4.16667ZM50 25C50 31.901 47.5586 37.793 42.6758 42.6758C37.793 47.5586 31.901 50 25 50C18.099 50 12.207 47.5586 7.32422 42.6758C2.44141 37.793 0 31.901 0 25C0 18.099 2.44141 12.207 7.32422 7.32422C12.207 2.44141 18.099 0 25 0C31.901 0 37.793 2.44141 42.6758 7.32422C47.5586 12.207 50 18.099 50 25Z" fill="#24539E"/>
</svg>
