<svg width="91" height="92" viewBox="0 0 91 92" fill="none" xmlns="http://www.w3.org/2000/svg">
<path fill-rule="evenodd" clip-rule="evenodd" d="M65.1048 32.4584C65.1045 26.0373 63.1899 19.7622 59.6056 14.4346C56.0213 9.10708 50.9301 4.96907 44.9825 2.54927C39.0348 0.129462 32.5008 -0.462256 26.2152 0.849711C19.9297 2.16168 14.1779 5.31776 9.69487 9.91472C5.21182 14.5117 2.20103 20.3408 1.04717 26.6573C-0.106697 32.9738 0.648756 39.4909 3.21701 45.376C5.78526 51.261 10.0497 56.2468 15.4655 59.6963C20.8813 63.1458 27.2025 64.9024 33.6215 64.7417L46.1173 52.2417L52.1757 58.3042C56.193 55.2991 59.4537 51.3979 61.6982 46.911C63.9428 42.4241 65.1092 37.4753 65.1048 32.4584ZM27.6048 15.7917H28.6465V11.625H36.9798V15.7917H38.0215C40.2316 15.7917 42.3513 16.6697 43.9141 18.2325C45.4769 19.7953 46.3548 21.9149 46.3548 24.125V26.2084H38.0215V24.125H27.6048V25.9917L39.8298 28.7084C41.6804 29.1197 43.3353 30.1497 44.5216 31.6284C45.7079 33.1071 46.3545 34.946 46.3548 36.8417V40.7917C46.3548 43.0018 45.4769 45.1214 43.9141 46.6842C42.3513 48.247 40.2316 49.125 38.0215 49.125H36.9798V53.2917H28.6465V49.125H27.6048C25.3947 49.125 23.2751 48.247 21.7123 46.6842C20.1495 45.1214 19.2715 43.0018 19.2715 40.7917V38.7084H27.6048V40.7917H38.0215V36.8417L25.7923 34.125C23.9418 33.7137 22.2868 32.6836 21.1006 31.205C19.9143 29.7263 19.2677 27.8874 19.2673 25.9917V24.125C19.2673 21.9149 20.1453 19.7953 21.7081 18.2325C23.2709 16.6697 25.3947 15.7917 27.6048 15.7917ZM21.3548 85.8459L27.2465 91.7375L46.1173 72.8667L61.6965 88.45L78.5923 71.5542L87.884 80.8459L90.834 77.9042V54.3334H67.2632L64.3173 57.2792L72.7007 65.6625L61.7007 76.6625L46.1173 61.0834L21.3548 85.8459Z" fill="#24539E"/>
</svg>
