<svg width="109" height="129" viewBox="0 0 109 129" fill="none" xmlns="http://www.w3.org/2000/svg">
<path d="M33.9999 126.5L82.9999 29L90.9999 33L90.4999 2.5C89.8933 0.890682 88.9063 0.293126 85.4999 0L60.9999 18L69.9999 22.5L21.9999 119.5C19.9998 127.5 28.9999 131.5 33.9999 126.5Z" fill="#A0D1FF"/>
<path fill-rule="evenodd" clip-rule="evenodd" d="M42.5 29V61.5C37.5 81 4.5 81.5 0 61.5V29C2.5 12 35.5 8 42.5 29ZM29 33C28 26 15 25 13 33V59.5C16 65 26 65.5 29 59.5V33Z" fill="#72BAFD"/>
<path fill-rule="evenodd" clip-rule="evenodd" d="M108.5 77.5V110C103.5 129.5 70.4999 130 65.9999 110V77.5C68.4999 60.5 101.5 56.5 108.5 77.5ZM94.9999 81.5C93.9999 74.5 80.9999 73.5 78.9999 81.5V108C81.9999 113.5 91.9999 114 94.9999 108V81.5Z" fill="#72BAFD"/>
</svg>
