<svg width="100" height="100" viewBox="0 0 100 100" fill="none" xmlns="http://www.w3.org/2000/svg">
<path d="M31.3364 98.2866L76.4977 22.5321L83.871 25.64L83.4102 1.94242C82.851 0.692033 81.9414 0.22775 78.8019 0L56.2212 13.9854L64.5162 17.4818L20.2765 92.8478C18.433 99.0636 26.728 102.171 31.3364 98.2866Z" fill="#A0D1FF"/>
<path fill-rule="evenodd" clip-rule="evenodd" d="M39.1706 22.5321V47.7836C34.5623 62.9345 4.14747 63.323 0 47.7836V22.5321C2.30415 9.32363 32.7189 6.21575 39.1706 22.5321ZM26.7281 25.64C25.8065 20.2012 13.8249 19.4242 11.9816 25.64V46.2297C14.7466 50.503 23.9632 50.8915 26.7281 46.2297V25.64Z" fill="#72BAFD"/>
<path fill-rule="evenodd" clip-rule="evenodd" d="M100 60.2151V85.4666C95.3917 100.618 64.9769 101.006 60.8294 85.4666V60.2151C63.1336 47.0066 93.5484 43.8988 100 60.2151ZM87.5576 63.323C86.6359 57.8842 74.6543 57.1072 72.811 63.323V83.9127C75.576 88.186 84.7926 88.5745 87.5576 83.9127V63.323Z" fill="#72BAFD"/>
</svg>
