<svg width="100" height="100" viewBox="0 0 100 100" fill="none" xmlns="http://www.w3.org/2000/svg">
<path fill-rule="evenodd" clip-rule="evenodd" d="M50.2173 5.20825H49.784C46.0382 5.20825 42.9173 5.20825 40.4423 5.54159C37.8257 5.89159 35.4632 6.66659 33.5673 8.56242C31.6673 10.4624 30.8923 12.8249 30.5423 15.4374C30.3048 17.2166 30.234 21.4624 30.2173 25.1041C21.7923 25.3833 16.7298 26.3666 13.2173 29.8833C8.33398 34.7624 8.33398 42.6208 8.33398 58.3333C8.33398 74.0458 8.33398 81.9041 13.2173 86.7833C18.1007 91.6624 25.9548 91.6666 41.6673 91.6666H58.334C74.0465 91.6666 81.9048 91.6666 86.784 86.7833C91.6632 81.8999 91.6673 74.0458 91.6673 58.3333C91.6673 42.6208 91.6673 34.7624 86.784 29.8833C83.2715 26.3666 78.209 25.3833 69.784 25.1083C69.7673 21.4624 69.7007 17.2166 69.459 15.4416C69.109 12.8249 68.334 10.4624 66.434 8.56659C64.5382 6.66659 62.1757 5.89159 59.559 5.54159C57.084 5.20825 53.959 5.20825 50.2173 5.20825ZM63.534 25.0083C63.5132 21.4791 63.4548 17.6833 63.2673 16.2708C63.0048 14.3499 62.559 13.5249 62.0173 12.9833C61.4757 12.4416 60.6507 11.9958 58.7257 11.7333C56.7173 11.4666 54.0173 11.4583 50.0007 11.4583C45.984 11.4583 43.284 11.4666 41.2715 11.7374C39.3507 11.9958 38.5257 12.4416 37.984 12.9874C37.4423 13.5333 36.9965 14.3499 36.734 16.2708C36.5465 17.6874 36.484 21.4791 36.4673 25.0083C38.1007 24.9999 39.834 24.9971 41.6673 24.9999H58.334C60.1729 24.9999 61.9062 25.0027 63.534 25.0083ZM50.0007 38.5416C50.8295 38.5416 51.6243 38.8708 52.2104 39.4569C52.7964 40.0429 53.1257 40.8378 53.1257 41.6666V41.7083C57.6632 42.8499 61.459 46.4291 61.459 51.3874C61.459 52.2162 61.1297 53.0111 60.5437 53.5971C59.9576 54.1832 59.1628 54.5124 58.334 54.5124C57.5052 54.5124 56.7103 54.1832 56.1243 53.5971C55.5382 53.0111 55.209 52.2162 55.209 51.3874C55.209 49.7874 53.434 47.5708 50.0007 47.5708C46.5673 47.5708 44.7923 49.7874 44.7923 51.3874C44.7923 52.9874 46.5673 55.2083 50.0007 55.2083C55.7715 55.2083 61.459 59.2083 61.459 65.2791C61.459 70.2374 57.6632 73.8124 53.1257 74.9583V74.9999C53.1257 75.8287 52.7964 76.6236 52.2104 77.2096C51.6243 77.7957 50.8295 78.1249 50.0007 78.1249C49.1719 78.1249 48.377 77.7957 47.7909 77.2096C47.2049 76.6236 46.8757 75.8287 46.8757 74.9999V74.9583C42.3382 73.8166 38.5423 70.2374 38.5423 65.2791C38.5423 64.4503 38.8716 63.6554 39.4576 63.0694C40.0437 62.4833 40.8385 62.1541 41.6673 62.1541C42.4961 62.1541 43.291 62.4833 43.877 63.0694C44.4631 63.6554 44.7923 64.4503 44.7923 65.2791C44.7923 66.8791 46.5673 69.0958 50.0007 69.0958C53.434 69.0958 55.209 66.8791 55.209 65.2791C55.209 63.6791 53.434 61.4583 50.0007 61.4583C44.2298 61.4583 38.5423 57.4583 38.5423 51.3874C38.5423 46.4291 42.3382 42.8499 46.8757 41.7083V41.6666C46.8757 40.8378 47.2049 40.0429 47.7909 39.4569C48.377 38.8708 49.1719 38.5416 50.0007 38.5416Z" fill="#24539E"/>
</svg>
