<svg width="100" height="100" viewBox="0 0 100 100" fill="none" xmlns="http://www.w3.org/2000/svg">
<path d="M46.6665 0.106689C38.7452 0.638159 31.0643 3.04828 24.2594 7.13762C17.4544 11.227 11.7211 16.878 7.53375 23.623C3.34641 30.3681 0.825453 38.0134 0.179471 45.9262C-0.466512 53.839 0.78105 61.7919 3.81893 69.1268C6.85681 76.4618 11.5977 82.9678 17.6492 88.1068C23.7008 93.2457 30.8891 96.8697 38.6193 98.6789C46.3496 100.488 54.3995 100.431 62.1031 98.511C69.8067 96.5914 76.9424 92.865 82.9199 87.64L47.6665 52.38C47.35 52.0697 47.0985 51.6994 46.9268 51.2908C46.7551 50.8821 46.6666 50.4433 46.6665 50V0.106689Z" fill="#24539E"/>
<path d="M87.6332 82.92C95.6216 73.8157 100.018 62.1121 99.9999 50C100.005 43.3624 98.6881 36.7901 96.1265 30.6667L55.6265 50.9134L87.6332 82.92ZM93.1332 24.7067C89.0084 17.6714 83.2254 11.7518 76.2882 7.46399C69.3511 3.1762 61.4704 0.650366 53.3332 0.106689V44.6067L93.1332 24.7067Z" fill="#24539E"/>
</svg>
