<svg width="98" height="98" viewBox="0 0 98 98" fill="none" xmlns="http://www.w3.org/2000/svg">
<path d="M40.0321 41.8946C40.4275 42.5046 40.9538 43.0183 41.5725 43.3996C42.1913 43.7813 42.8871 44.02 43.6092 44.0996C44.335 44.1729 45.0679 44.0833 45.7546 43.8379C46.4408 43.5917 47.0642 43.1958 47.5783 42.6783L53.115 37.0925L59.6321 46.8925C60.0871 47.5483 60.6954 48.0829 61.4042 48.4504C62.1129 48.8175 62.9008 49.0063 63.6988 48.9992C64.6621 49.01 65.605 48.7192 66.3938 48.1663C67.4679 47.4479 68.2146 46.3342 68.4721 45.0675C68.7288 43.8017 68.475 42.485 67.7658 41.4046L57.9658 26.7046C57.5704 26.095 57.0442 25.5804 56.4258 25.1992C55.8071 24.8179 55.1113 24.5787 54.3892 24.4996C53.6633 24.4262 52.9304 24.5158 52.2438 24.7612C51.5571 25.0067 50.9342 25.4033 50.42 25.9204L44.8833 31.5067L38.3663 21.7067C38.0442 21.1058 37.6 20.5787 37.0625 20.1596C36.5246 19.74 35.9058 19.4375 35.2446 19.2712C34.5833 19.105 33.8946 19.0779 33.2225 19.1929C32.5508 19.3079 31.91 19.5617 31.3417 19.9383C30.7733 20.315 30.29 20.8058 29.9221 21.38C29.5546 21.9542 29.3104 22.5987 29.2063 23.2725C29.1017 23.9462 29.1392 24.6342 29.3158 25.2925C29.4925 25.9513 29.8046 26.5654 30.2325 27.0963L40.0321 41.8946ZM93.0983 58.7992H88.1988V9.8H93.0983C94.3979 9.8 95.6446 9.28375 96.5633 8.36458C97.4821 7.44583 97.9983 6.19958 97.9983 4.9C97.9983 3.60042 97.4821 2.35417 96.5633 1.435C95.6446 0.51625 94.3979 0 93.0983 0H4.89958C3.60042 0 2.35375 0.51625 1.435 1.435C0.51625 2.35417 0 3.60042 0 4.9C0 6.19958 0.51625 7.44583 1.435 8.36458C2.35375 9.28375 3.60042 9.8 4.89958 9.8H9.79958V58.7992H4.89958C3.60042 58.7992 2.35375 59.3158 1.435 60.2346C0.51625 61.1529 0 62.3996 0 63.6992C0 64.9988 0.51625 66.245 1.435 67.1638C2.35375 68.0825 3.60042 68.5992 4.89958 68.5992H44.0992V74.2342L21.8046 88.9337C20.89 89.4996 20.1871 90.3512 19.8042 91.3567C19.4217 92.3617 19.3804 93.4654 19.6867 94.4962C19.9933 95.5275 20.6308 96.4292 21.5004 97.0621C22.3704 97.695 23.4242 98.0242 24.4996 97.9987C25.4629 98.0096 26.4054 97.7183 27.1946 97.1654L44.0992 85.9938V93.0988C44.0992 94.3983 44.6158 95.6446 45.5346 96.5633C46.4533 97.4821 47.6996 97.9987 48.9992 97.9987C50.2988 97.9987 51.545 97.4821 52.4638 96.5633C53.3825 95.6446 53.8992 94.3983 53.8992 93.0988V85.9938L70.8038 97.1654C71.5929 97.7183 72.5354 98.0092 73.4988 97.9987C74.5454 97.9908 75.5625 97.6471 76.4 97.0196C77.2379 96.3913 77.8525 95.5121 78.1538 94.5092C78.455 93.5062 78.4271 92.4338 78.0742 91.4479C77.7221 90.4625 77.0625 89.6158 76.1938 89.0317L53.8992 74.3321V68.5992H93.0988C94.3979 68.5992 95.6446 68.0825 96.5633 67.1638C97.4821 66.245 97.9983 64.9988 97.9983 63.6992C97.9983 62.3996 97.4821 61.1529 96.5633 60.2342C95.6446 59.3154 94.3979 58.7992 93.0983 58.7992ZM78.3988 58.7992H19.5996V9.8H78.3988V58.7992Z" fill="#24539E"/>
</svg>
