<svg width="51" height="28" viewBox="0 0 51 28" fill="none" xmlns="http://www.w3.org/2000/svg">
<path d="M13.9091 28C10.0455 28 6.76136 26.6389 4.05682 23.9167C1.35227 21.1944 0 17.8889 0 14C0 10.1111 1.35227 6.80556 4.05682 4.08333C6.76136 1.36111 10.0455 0 13.9091 0H37.0909C40.9545 0 44.2386 1.36111 46.9432 4.08333C49.6477 6.80556 51 10.1111 51 14C51 17.8889 49.6477 21.1944 46.9432 23.9167C44.2386 26.6389 40.9545 28 37.0909 28H13.9091ZM37.0909 21C39.0227 21 40.6648 20.3194 42.017 18.9583C43.3693 17.5972 44.0455 15.9444 44.0455 14C44.0455 12.0556 43.3693 10.4028 42.017 9.04167C40.6648 7.68056 39.0227 7 37.0909 7C35.1591 7 33.517 7.68056 32.1648 9.04167C30.8125 10.4028 30.1364 12.0556 30.1364 14C30.1364 15.9444 30.8125 17.5972 32.1648 18.9583C33.517 20.3194 35.1591 21 37.0909 21Z" fill="#00C514"/>
</svg>
