<svg width="51" height="28" viewBox="0 0 51 28" fill="none" xmlns="http://www.w3.org/2000/svg">
<path d="M37.0909 28C40.9545 28 44.2386 26.6389 46.9432 23.9167C49.6477 21.1944 51 17.8889 51 14C51 10.1111 49.6477 6.80556 46.9432 4.08333C44.2386 1.36111 40.9545 0 37.0909 0H13.9091C10.0455 0 6.76136 1.36111 4.05682 4.08333C1.35227 6.80556 1.43051e-06 10.1111 1.43051e-06 14C1.43051e-06 17.8889 1.35227 21.1944 4.05682 23.9167C6.76136 26.6389 10.0455 28 13.9091 28H37.0909ZM13.9091 21C11.9773 21 10.3352 20.3194 8.98296 18.9583C7.63068 17.5972 6.95455 15.9444 6.95455 14C6.95455 12.0556 7.63068 10.4028 8.98296 9.04167C10.3352 7.68056 11.9773 7 13.9091 7C15.8409 7 17.483 7.68056 18.8352 9.04167C20.1875 10.4028 20.8636 12.0556 20.8636 14C20.8636 15.9444 20.1875 17.5972 18.8352 18.9583C17.483 20.3194 15.8409 21 13.9091 21Z" fill="#00C514"/>
</svg>
